<svg xmlns="http://www.w3.org/2000/svg" width="17" height="17" viewBox="0 0 17 17" fill="none">
  <path fill-rule="evenodd" clip-rule="evenodd" d="M14.653 14.3262V9.7955C14.6605 9.75561 14.6644 9.71447 14.6644 9.67243V9.50759V3.67708C14.6644 2.9407 14.0674 2.34375 13.3311 2.34375L8.80173 2.34375C8.76121 2.33606 8.71939 2.33203 8.67663 2.33203H8.5118H2.68129C2.29588 2.33203 1.94866 2.49555 1.70524 2.757C1.47703 2.99628 1.33691 3.32032 1.33691 3.67708V14.3155C1.33691 14.6949 1.4954 15.0373 1.74979 15.2801C1.99013 15.5148 2.31882 15.6595 2.68129 15.6595H13.3197C14.0561 15.6595 14.653 15.0625 14.653 14.3262ZM13.3197 8.26606C13.3197 8.22395 13.3236 8.18276 13.3311 8.14282V3.67708L2.68129 3.67708V14.3155L8.73033 14.3155C8.77115 14.3155 8.81111 14.3192 8.8499 14.3262H13.3197V8.26606ZM8.49897 5.75816C8.28713 5.35665 7.7121 5.35665 7.50026 5.75816L6.72323 7.23091C6.66083 7.34918 6.54709 7.43181 6.41533 7.45461L4.77455 7.73851C4.32723 7.8159 4.14954 8.36279 4.46593 8.68833L5.62648 9.88243C5.71968 9.97833 5.76312 10.112 5.74409 10.2444L5.50706 11.8926C5.44244 12.3419 5.90765 12.6799 6.31503 12.4796L7.80932 11.7449C7.92932 11.6859 8.0699 11.6859 8.18991 11.7449L9.68419 12.4796C10.0916 12.6799 10.5568 12.3419 10.4922 11.8926L10.2551 10.2444C10.2361 10.112 10.2795 9.97833 10.3727 9.88243L11.5333 8.68833C11.8497 8.36279 11.672 7.8159 11.2247 7.73851L9.5839 7.45461C9.45213 7.43181 9.3384 7.34918 9.276 7.23091L8.49897 5.75816ZM7.57311 8.15915L7.99965 7.42177L8.42619 8.15915C8.5433 8.3616 8.74066 8.50499 8.96939 8.55381L9.80249 8.73161L9.233 9.36514C9.07665 9.53907 9.00127 9.77108 9.02552 10.0037L9.11387 10.851L8.33536 10.5051C8.12162 10.4102 7.87767 10.4102 7.66393 10.5051L6.88543 10.851L6.97378 10.0037C6.99803 9.77108 6.92265 9.53907 6.7663 9.36514L6.19681 8.73161L7.02991 8.55381C7.25864 8.50499 7.456 8.3616 7.57311 8.15915Z" fill="#1D1C23" fill-opacity="0.6" style="fill:#1D1C23;fill:color(display-p3 0.1137 0.1098 0.1373);fill-opacity:0.6;"/>
  <circle cx="14" cy="3" r="2.5" fill="#FF441E" stroke="white" style="fill:#FF441E;fill:color(display-p3 1.0000 0.2667 0.1176);fill-opacity:1;stroke:white;stroke-opacity:1;"/>
</svg>