<svg xmlns="http://www.w3.org/2000/svg" width="16" height="16" viewBox="0 0 16 16" fill="none">
  <path fill-rule="evenodd" clip-rule="evenodd" d="M13.3305 0C12.9618 0 12.663 0.298834 12.663 0.667465V1.9578H11.3345C10.9658 1.9578 10.667 2.25663 10.667 2.62526C10.667 2.99389 10.9658 3.29272 11.3345 3.29272H12.663V4.62733C12.663 4.99596 12.9618 5.2948 13.3305 5.2948C13.6991 5.2948 13.9979 4.99596 13.9979 4.62733V3.29272L15.3327 3.29258C15.7014 3.29258 16.0002 2.99375 16.0002 2.62512C16.0002 2.25649 15.7014 1.95766 15.3327 1.95766L13.9979 1.9578V0.667465C13.9979 0.298834 13.6991 0 13.3305 0ZM14.6527 13.3281V7.26801C14.6527 6.89982 14.3542 6.60135 13.9861 6.60135C13.6179 6.60135 13.3194 6.89982 13.3194 7.26801V13.3281H2.68099V2.66729H8.67633C9.04451 2.66729 9.34298 2.36882 9.34298 2.00064C9.34298 1.63245 9.04451 1.33398 8.67633 1.33398H8.5115H2.68099C1.94461 1.33398 1.34766 1.93092 1.34766 2.66729V13.3281C1.34766 14.0645 1.94461 14.6614 2.68099 14.6614H13.3194C14.0558 14.6614 14.6527 14.0645 14.6527 13.3281ZM8.43968 4.78901C8.25285 4.43491 7.74572 4.43491 7.5589 4.78901L6.78187 6.26176C6.70982 6.39831 6.5785 6.49372 6.42637 6.52004L4.78559 6.80394C4.39109 6.87219 4.23438 7.3545 4.51341 7.64161L5.67396 8.83571C5.78157 8.94643 5.83173 9.1008 5.80975 9.25362L5.57272 10.9018C5.51573 11.2981 5.92601 11.5962 6.28529 11.4195L7.77958 10.6848C7.91813 10.6167 8.08045 10.6167 8.219 10.6848L9.71328 11.4195C10.0726 11.5962 10.4828 11.2981 10.4258 10.9018L10.1888 9.25362C10.1668 9.1008 10.217 8.94643 10.3246 8.83571L11.4852 7.64161C11.7642 7.3545 11.6075 6.87219 11.213 6.80394L9.5722 6.52004C9.42007 6.49372 9.28875 6.39831 9.21671 6.26176L8.43968 4.78901ZM9.28226 8.40945C9.13851 8.56936 9.0692 8.78266 9.0915 8.99653L9.1918 9.95843L8.30797 9.5658C8.11146 9.4785 7.88718 9.4785 7.69068 9.5658L6.80685 9.95843L6.90714 8.99653C6.92944 8.78266 6.86014 8.56936 6.71639 8.40945L6.06985 7.6902L7.01567 7.48835C7.22596 7.44347 7.40741 7.31164 7.51507 7.12551L7.99932 6.28836L8.48357 7.12551C8.59124 7.31164 8.77269 7.44347 8.98297 7.48835L9.92879 7.6902L9.28226 8.40945Z" fill="#1D1C23" fill-opacity="0.6" style="fill:#1D1C23;fill:color(display-p3 0.1137 0.1098 0.1373);fill-opacity:0.6;"/>
</svg>