<svg xmlns="http://www.w3.org/2000/svg" width="16" height="16" viewBox="0 0 16 16" fill="none">
  <path fill-rule="evenodd" clip-rule="evenodd" d="M14.653 13.3262V8.7955C14.6605 8.75561 14.6644 8.71447 14.6644 8.67243V8.50759V2.67708C14.6644 1.9407 14.0674 1.34375 13.3311 1.34375L8.80173 1.34375C8.76121 1.33606 8.71939 1.33203 8.67663 1.33203H8.5118H2.68129C2.29588 1.33203 1.94866 1.49555 1.70524 1.757C1.47703 1.99628 1.33691 2.32032 1.33691 2.67708V13.3155C1.33691 13.6949 1.4954 14.0373 1.74979 14.2801C1.99013 14.5148 2.31882 14.6595 2.68129 14.6595H13.3197C14.0561 14.6595 14.653 14.0625 14.653 13.3262ZM13.3197 7.26606C13.3197 7.22395 13.3236 7.18276 13.3311 7.14282V2.67708L2.68129 2.67708V13.3155L8.73033 13.3155C8.77115 13.3155 8.81111 13.3192 8.8499 13.3262H13.3197V7.26606ZM8.49897 4.75816C8.28713 4.35665 7.7121 4.35665 7.50026 4.75816L6.72323 6.23091C6.66083 6.34918 6.54709 6.43181 6.41533 6.45461L4.77455 6.73851C4.32723 6.8159 4.14954 7.36279 4.46593 7.68833L5.62648 8.88243C5.71968 8.97833 5.76312 9.11203 5.74409 9.24439L5.50706 10.8926C5.44244 11.3419 5.90765 11.6799 6.31503 11.4796L7.80932 10.7449C7.92932 10.6859 8.0699 10.6859 8.18991 10.7449L9.68419 11.4796C10.0916 11.6799 10.5568 11.3419 10.4922 10.8926L10.2551 9.24439C10.2361 9.11203 10.2795 8.97833 10.3727 8.88243L11.5333 7.68833C11.8497 7.36279 11.672 6.8159 11.2247 6.73851L9.5839 6.45461C9.45213 6.43181 9.3384 6.34918 9.276 6.23091L8.49897 4.75816ZM7.57311 7.15915L7.99965 6.42177L8.42619 7.15915C8.5433 7.3616 8.74066 7.50499 8.96939 7.55381L9.80249 7.73161L9.233 8.36514C9.07665 8.53907 9.00127 8.77108 9.02552 9.0037L9.11387 9.85098L8.33536 9.50513C8.12162 9.41018 7.87767 9.41018 7.66393 9.50513L6.88543 9.85098L6.97378 9.0037C6.99803 8.77108 6.92265 8.53907 6.7663 8.36514L6.19681 7.73161L7.02991 7.55381C7.25864 7.50499 7.456 7.3616 7.57311 7.15915Z" fill="#1D1C23" fill-opacity="0.6" style="fill:#1D1C23;fill:color(display-p3 0.1137 0.1098 0.1373);fill-opacity:0.6;"/>
</svg>