<svg xmlns="http://www.w3.org/2000/svg" width="34" height="34" viewBox="0 0 34 34" fill="none">
    <path
        d="M4.16699 4.49994C4.16699 2.96582 5.41065 1.72217 6.94477 1.72217H20.2584C20.6267 1.72217 20.98 1.8685 21.2405 2.12896L28.7602 9.64871C29.0207 9.90917 29.167 10.2624 29.167 10.6308V29.4999C29.167 31.0341 27.9233 32.2777 26.3892 32.2777H6.94477C5.41065 32.2777 4.16699 31.0341 4.16699 29.4999V4.49994Z"
        fill="#336DF4" />
    <path opacity="0.7"
        d="M20.833 2.39278C20.833 2.14531 21.1322 2.02137 21.3072 2.19636L28.6921 9.58131C28.8671 9.7563 28.7432 10.0555 28.4957 10.0555H23.6108C22.0767 10.0555 20.833 8.81185 20.833 7.27772V2.39278Z"
        fill="#0442D2" />
    <path
        d="M17.4247 15.2324V25.6491C17.4247 25.7537 17.34 25.8385 17.2354 25.8385H16.099C15.9944 25.8385 15.9096 25.7537 15.9096 25.6491V15.2324H11.1747C11.0701 15.2324 10.9854 15.1476 10.9854 15.043V13.9067C10.9854 13.8021 11.0701 13.7173 11.1747 13.7173H22.1596C22.2642 13.7173 22.349 13.8021 22.349 13.9067V15.043C22.349 15.1476 22.2642 15.2324 22.1596 15.2324H17.4247Z"
        fill="white" />
</svg>
