<svg width="24" height="24" viewBox="0 0 24 24" fill="none" xmlns="http://www.w3.org/2000/svg">
<path d="M3 3C3 1.89543 3.89543 1 5 1H14.5858C14.851 1 15.1054 1.10536 15.2929 1.29289L20.7071 6.70711C20.8946 6.89464 21 7.149 21 7.41421V21C21 22.1046 20.1046 23 19 23H5C3.89543 23 3 22.1046 3 21V3Z" fill="#5B65F5" style="fill:#5B65F5;fill:color(display-p3 0.3574 0.3977 0.9626);fill-opacity:1;"/>
<path d="M8.30915 13.5716C8.30915 13.2823 8.54532 13.0478 8.83664 13.0478H13.0565C13.3478 13.0478 13.584 13.2823 13.584 13.5716C13.584 13.8609 13.3478 14.0955 13.0565 14.0955H8.83664C8.54532 14.0955 8.30915 13.8609 8.30915 13.5716Z" fill="white" style="fill:white;fill-opacity:1;"/>
<path d="M15.1664 13.0478C14.8751 13.0478 14.639 13.2823 14.639 13.5716C14.639 13.8609 14.8751 14.0955 15.1664 14.0955C15.4578 14.0955 15.6939 13.8609 15.6939 13.5716C15.6939 13.2823 15.4578 13.0478 15.1664 13.0478Z" fill="white" style="fill:white;fill-opacity:1;"/>
<path d="M7.25419 10.4287C6.67154 10.4287 6.19922 10.8978 6.19922 11.4764V18.8098C6.19922 19.3884 6.67154 19.8575 7.25419 19.8575H16.7489C17.3315 19.8575 17.8039 19.3884 17.8039 18.8098V11.4764C17.8039 10.8978 17.3315 10.4287 16.7489 10.4287H7.25419ZM16.7489 12.0002V18.8098H7.25419L7.25419 12.0002H16.7489Z" fill="white" style="fill:white;fill-opacity:1;"/>
<path opacity="0.8" d="M14.9922 1.46933C14.9922 1.29614 15.2016 1.2094 15.3241 1.33187L20.6603 6.66813C20.7828 6.7906 20.6961 7 20.5229 7H16.9922C15.8876 7 14.9922 6.10457 14.9922 5V1.46933Z" fill="#3741D0" style="fill:#3741D0;fill:color(display-p3 0.2157 0.2549 0.8157);fill-opacity:1;"/>
</svg>
