<svg xmlns="http://www.w3.org/2000/svg" width="34" height="34" viewBox="0 0 34 34" fill="none">
    <path opacity="0.9"
        d="M4.5 4.49994C4.5 2.96582 5.74365 1.72217 7.27778 1.72217H20.5914C20.9597 1.72217 21.313 1.8685 21.5735 2.12896L29.0932 9.64871C29.3537 9.90917 29.5 10.2624 29.5 10.6308V29.4999C29.5 31.0341 28.2563 32.2777 26.7222 32.2777H7.27778C5.74365 32.2777 4.5 31.0341 4.5 29.4999V4.49994Z"
        fill="#8F959E" />
    <path opacity="0.6"
        d="M21.166 2.39278C21.166 2.14531 21.4652 2.02137 21.6402 2.19636L29.0252 9.58131C29.2001 9.7563 29.0762 10.0555 28.8287 10.0555H23.9438C22.4097 10.0555 21.166 8.81185 21.166 7.27772V2.39278Z"
        fill="#646A73" />
    <path
        d="M20.177 14.0339C19.419 13.3158 18.4242 12.9595 17.1871 12.9595C15.7974 12.9595 14.7082 13.405 13.9191 14.3125C13.2507 15.0923 12.8906 15.8398 12.8391 17.0181C12.8379 17.0458 12.8368 17.0968 12.836 17.1558C12.8331 17.3483 12.9893 17.5049 13.1818 17.5049H14.0027C14.1937 17.5049 14.3483 17.3507 14.3515 17.1598C14.3524 17.1023 14.3535 17.0528 14.3548 17.0262C14.3952 16.2122 14.6075 15.7864 14.9865 15.3126C15.4649 14.6749 16.1668 14.361 17.1302 14.361C17.9901 14.361 18.6347 14.5803 19.0797 15.0252C19.5038 15.4671 19.7249 16.0686 19.7249 16.8231C19.7249 17.3382 19.5383 17.8288 19.1588 18.3167C19.0379 18.4678 18.8638 18.6475 18.3031 19.2081C17.4175 19.9825 16.8705 20.6124 16.5815 21.2317C16.3439 21.7066 16.2228 22.2466 16.2228 22.8269V23.2183C16.2228 23.4101 16.3783 23.5655 16.5701 23.5655H17.4097C17.6015 23.5655 17.7569 23.4101 17.7569 23.2183V22.8269C17.7569 22.3351 17.878 21.894 18.1289 21.464C18.3167 21.1446 18.5579 20.8942 18.9785 20.5262C19.8216 19.7634 20.2894 19.309 20.4989 19.0424C21.0021 18.3782 21.259 17.6174 21.259 16.7852C21.259 15.6368 20.8985 14.7153 20.177 14.0339ZM16.589 25.0807C16.3972 25.0807 16.2418 25.2361 16.2418 25.4279V26.2486C16.2418 26.4404 16.3972 26.5958 16.589 26.5958H17.4097C17.6015 26.5958 17.7569 26.4404 17.7569 26.2486V25.4279C17.7569 25.2361 17.6015 25.0807 17.4097 25.0807H16.589Z"
        fill="white" />
</svg>
