<svg width="16" height="16" viewBox="0 0 16 16" fill="none" xmlns="http://www.w3.org/2000/svg">
<path d="M12.6667 1.99984H3.33333V13.9998H6.66667V15.3332H3.33333C2.59695 15.3332 2 14.7362 2 13.9998V1.99984C2 1.26346 2.59695 0.666504 3.33333 0.666504H12.6667C13.403 0.666504 14 1.26346 14 1.99984V7.33317H12.6667V1.99984Z" fill="#1D1C23" fill-opacity="0.35" style="fill:#1D1C23;fill:color(display-p3 0.1137 0.1098 0.1373);fill-opacity:0.35;"/>
<path d="M5.33333 4.6665C4.96514 4.6665 4.66667 4.96498 4.66667 5.33317C4.66667 5.70136 4.96514 5.99984 5.33333 5.99984H10.6667C11.0349 5.99984 11.3333 5.70136 11.3333 5.33317C11.3333 4.96498 11.0349 4.6665 10.6667 4.6665H5.33333Z" fill="#1D1C23" fill-opacity="0.35" style="fill:#1D1C23;fill:color(display-p3 0.1137 0.1098 0.1373);fill-opacity:0.35;"/>
<path d="M4.66667 8.33317C4.66667 7.96498 4.96514 7.6665 5.33333 7.6665H8C8.36819 7.6665 8.66667 7.96498 8.66667 8.33317C8.66667 8.70136 8.36819 8.99984 8 8.99984H5.33333C4.96514 8.99984 4.66667 8.70136 4.66667 8.33317Z" fill="#1D1C23" fill-opacity="0.35" style="fill:#1D1C23;fill:color(display-p3 0.1137 0.1098 0.1373);fill-opacity:0.35;"/>
<path d="M13.5523 8.69999C13.9428 8.30946 14.576 8.30946 14.9665 8.69999C15.357 9.09051 15.357 9.72368 14.9665 10.1142L14.2594 10.8213L12.8452 9.40709L13.5523 8.69999Z" fill="#1D1C23" fill-opacity="0.35" style="fill:#1D1C23;fill:color(display-p3 0.1137 0.1098 0.1373);fill-opacity:0.35;"/>
<path d="M12.1381 10.1142L13.5523 11.5284L10.2309 14.8498C10.0916 14.9891 9.91229 15.0813 9.71798 15.1136L8.45737 15.3233C8.42136 15.3292 8.38467 15.3175 8.35885 15.2917C8.33271 15.2655 8.32099 15.2282 8.32749 15.1918L8.55128 13.9372C8.58465 13.7501 8.6746 13.5777 8.80901 13.4433L12.1381 10.1142Z" fill="#1D1C23" fill-opacity="0.35" style="fill:#1D1C23;fill:color(display-p3 0.1137 0.1098 0.1373);fill-opacity:0.35;"/>
</svg>
