<svg width="24" height="24" viewBox="0 0 24 24" fill="none" xmlns="http://www.w3.org/2000/svg">
<g id="icon_wiki-ppt_colorful">
<path id="Rectangle 2530" d="M3 3C3 1.89543 3.89543 1 5 1H14.5858C14.851 1 15.1054 1.10536 15.2929 1.29289L20.7071 6.70711C20.8946 6.89464 21 7.149 21 7.41421V21C21 22.1046 20.1046 23 19 23H5C3.89543 23 3 22.1046 3 21V3Z" fill="#FF811A" style="fill:#FF811A;fill:color(display-p3 1.0000 0.5059 0.1020);fill-opacity:1;"/>
<path id="Rectangle 2531" opacity="0.8" d="M15 1.48284C15 1.30466 15.2154 1.21543 15.3414 1.34142L20.6586 6.65858C20.7846 6.78457 20.6953 7 20.5172 7H17C15.8954 7 15 6.10457 15 5V1.48284Z" fill="#ED6D0C" style="fill:#ED6D0C;fill:color(display-p3 0.9294 0.4275 0.0471);fill-opacity:1;"/>
<path id="Subtract" d="M10.3838 18.4952V14.9087H12.0857C12.4947 14.9087 12.9016 14.8728 13.3065 14.8009C13.7188 14.7277 14.0889 14.599 14.4161 14.4147C14.7492 14.2271 15.0207 13.9703 15.2295 13.6458C15.4415 13.3164 15.5462 12.9033 15.5462 12.4089C15.5462 12.0831 15.5023 11.7708 15.4144 11.4725C15.3238 11.1651 15.1639 10.8928 14.9357 10.6574C14.7065 10.4209 14.3984 10.2371 14.0133 10.1049C13.6317 9.97386 13.1535 9.90918 12.5779 9.90918H9.41474C9.3367 9.90918 9.27344 9.97244 9.27344 10.0505V18.4952C9.27344 18.5732 9.3367 18.6365 9.41474 18.6365H10.2425C10.3206 18.6365 10.3838 18.5732 10.3838 18.4952ZM13.1192 13.8731C12.8231 13.9188 12.4865 13.9417 12.1096 13.9417H10.3838V10.8762H12.3497C13.0962 10.8762 13.6319 11.0055 13.9576 11.2557C14.2763 11.5005 14.4358 11.8608 14.4358 12.3503C14.4358 12.6888 14.3821 12.9582 14.2777 13.1586C14.1737 13.3581 14.028 13.5143 13.8388 13.6293C13.6443 13.7475 13.4048 13.8291 13.1192 13.8731Z" fill="white" style="fill:white;fill-opacity:1;"/>
</g>
</svg>
