<svg width="33" height="32" viewBox="0 0 33 32" fill="none" xmlns="http://www.w3.org/2000/svg">
<path fill-rule="evenodd" clip-rule="evenodd" d="M4.4082 0.000488281C2.19906 0.000488281 0.408203 1.79135 0.408203 4.00049V20.0005C0.408203 22.2096 2.19906 24.0005 4.4082 24.0005H20.1387V19.2771C20.1387 18.0373 21.1318 17.0044 22.3909 17.0044H24.4082V4.00049C24.4082 1.79135 22.6173 0.000488281 20.4082 0.000488281H4.4082ZM24.4082 18.0044H22.3909C21.6993 18.0044 21.1387 18.5742 21.1387 19.2771V23.9339C22.999 23.5907 24.4082 21.9601 24.4082 20.0005V18.0044Z" fill="#35C566"/>
<path fill-rule="evenodd" clip-rule="evenodd" d="M7.38747 5.63525C7.06129 5.63525 6.79688 5.89967 6.79688 6.22585V15.1195C6.79688 15.8935 7.1164 16.6357 7.68516 17.183C8.25391 17.7303 9.02532 18.0377 9.82966 18.0377H17.4276C17.7538 18.0377 18.0182 17.7733 18.0182 17.4472V8.55349C18.0182 7.77952 17.6987 7.03726 17.1299 6.48998C16.5611 5.94271 15.7897 5.63525 14.9854 5.63525H7.38747ZM14.1024 8.73535H9.31055V13.5272C9.31055 14.3056 9.94155 14.9366 10.7199 14.9366H15.5118V10.1447C15.5118 9.36635 14.8808 8.73535 14.1024 8.73535ZM12.8108 11.4132V9.58098H14.1024C14.4138 9.58098 14.6662 9.83338 14.6662 10.1447V11.4132H12.8108ZM10.1562 9.58098H11.9651V11.4132H10.1562V9.58098ZM10.1562 13.5272V12.2588H11.9651V14.091H10.7199C10.4086 14.091 10.1562 13.8386 10.1562 13.5272ZM14.6662 14.091H12.8108V12.2588H14.6662V14.091Z" fill="white"/>
<path d="M21.0332 19.2732C21.0332 18.5703 21.5991 18.0005 22.2971 18.0005H28.3546C28.5222 18.0005 28.683 18.0675 28.8015 18.1869L32.2229 21.6322C32.3414 21.7515 32.408 21.9134 32.408 22.0822V30.7275C32.408 31.4304 31.8421 32.0002 31.1441 32.0002H22.2971C21.5991 32.0002 21.0332 31.4304 21.0332 30.7275V19.2732Z" fill="#00BDBD"/>
<path opacity="0.8" d="M28.6113 18.3093C28.6113 18.1957 28.7489 18.139 28.8289 18.2196L32.1875 21.6016C32.2672 21.6819 32.2103 21.8186 32.0972 21.8186H29.8752C29.1772 21.8186 28.6113 21.2488 28.6113 20.5459V18.3093Z" fill="#0195AD"/>
<path d="M25.5077 26.5038L25.1754 26.1715C25.1572 26.1532 25.1342 26.1454 25.1113 26.1454C25.0886 26.1454 25.0655 26.1544 25.0479 26.1709L25.0478 26.1709L25.0473 26.1715L24.2187 27.0007L24.2187 27.0007C23.6544 27.5659 23.5837 28.437 24.0064 29.0784L23.4016 29.6833L25.5077 26.5038ZM25.5077 26.5038L26.0328 25.9786L25.5077 26.5038ZM24.4765 29.5186L23.8571 30.138C23.8441 30.1502 23.8279 30.1567 23.8108 30.1567C23.7937 30.1567 23.7774 30.151 23.7644 30.138L23.4193 29.7929C23.3941 29.7677 23.3941 29.7262 23.4193 29.701L23.4016 29.6833C23.3666 29.7183 23.3666 29.7756 23.4016 29.8106L23.4016 29.8106L23.7467 30.1556C23.765 30.1739 23.7879 30.1817 23.8108 30.1817C23.8345 30.1817 23.8568 30.1726 23.8743 30.1562L23.8743 30.1562L23.8748 30.1556L24.4797 29.5508M24.4765 29.5186L24.4625 29.5393C24.4682 29.5432 24.4739 29.547 24.4797 29.5508M24.4765 29.5186L24.4942 29.5363L24.4797 29.5508M24.4765 29.5186C24.7508 29.705 25.0699 29.7978 25.3889 29.7978C25.8055 29.7978 26.2222 29.6391 26.5404 29.3209L27.3698 28.4916C27.395 28.4663 27.395 28.4248 27.3698 28.3996L27.0375 28.0673L27.0552 28.0497M24.4797 29.5508C24.7543 29.7324 25.0717 29.8228 25.3889 29.8228C25.8119 29.8228 26.235 29.6616 26.5581 29.3386L27.3874 28.5092L27.3875 28.5092C27.4224 28.4742 27.4224 28.4169 27.3874 28.3819L27.0552 28.0497M27.0552 28.0497L27.0375 28.032M27.0552 28.0497L27.5803 27.5245C27.6153 27.4895 27.6153 27.4322 27.5803 27.3972L27.5802 27.3971L27.2824 27.1025L27.2648 27.1202M27.0375 28.032L27.2824 27.1025L27.2823 27.1024L27.2648 27.1202M27.0375 28.032L27.5627 27.5068C27.5879 27.4816 27.5879 27.4401 27.5627 27.4149M27.0375 28.032L27.5627 27.4149M27.2648 27.1202L27.5627 27.4149M27.2648 27.1202C27.2396 27.095 27.198 27.095 27.1728 27.1202L26.6484 27.6445L27.5627 27.4149M28.3293 26.7138L28.795 26.248C28.993 26.0492 29.1027 25.7861 29.1027 25.5055C29.1027 25.2249 28.993 24.961 28.7951 24.7631C28.795 24.7631 28.795 24.7631 28.795 24.7631M28.3293 26.7138L27.2924 24.7454C27.4951 24.5427 27.7653 24.4304 28.0526 24.4304C28.3399 24.4304 28.6092 24.5419 28.8127 24.7454L28.795 24.7631M28.3293 26.7138L26.8444 25.2288M28.3293 26.7138L26.8444 25.2288M28.795 24.7631C28.5962 24.5643 28.3332 24.4554 28.0526 24.4554C27.7719 24.4554 27.5081 24.5651 27.3101 24.7631L26.8444 25.2288M28.795 24.7631L26.8444 25.2288M25.388 29.2201C25.6686 29.2201 25.9325 29.1105 26.1305 28.9125L26.5962 28.4468L25.1113 26.9618L24.6455 27.4276C24.4468 27.6263 24.3379 27.8894 24.3379 28.17C24.3379 28.4507 24.4476 28.7146 24.6455 28.9125C24.6455 28.9125 24.6455 28.9125 24.6455 28.9125M25.388 29.2201L26.1481 28.9302C25.9455 29.1328 25.6753 29.2451 25.388 29.2451C25.1007 29.2451 24.8313 29.1336 24.6278 28.9302L24.6455 28.9125M25.388 29.2201C25.1073 29.2201 24.8443 29.1113 24.6455 28.9125M25.388 29.2201L24.6455 28.9125M29.6947 23.5191L29.6947 23.5191C29.6765 23.5009 29.6536 23.4931 29.6307 23.4931C29.607 23.4931 29.5847 23.5021 29.5672 23.5185L29.5671 23.5185L29.5665 23.5191L28.9617 24.1239C28.6871 23.9423 28.3697 23.852 28.0526 23.852C27.6295 23.852 27.2064 24.0131 26.8833 24.3362C26.8833 24.3362 26.8833 24.3362 26.8833 24.3362L26.0539 25.1656C26.019 25.2005 26.019 25.2579 26.0539 25.2928L28.2652 27.5041C28.2834 27.5222 28.3063 27.5301 28.3292 27.5301C28.352 27.5301 28.3751 27.5212 28.3928 27.5046L28.3933 27.5041L29.2226 26.6747L29.2226 26.6747C29.7869 26.1096 29.8577 25.2384 29.4349 24.5971L30.0397 23.9922L30.04 23.992C30.0745 23.9565 30.0749 23.8993 30.0397 23.8642L29.6947 23.5191ZM25.9312 26.9273L26.4564 26.4022C26.4914 26.3671 26.4914 26.3098 26.4563 26.2748L26.4564 26.2748L25.9312 26.9273Z" fill="white" stroke="white" stroke-width="0.05"/>
</svg>
