<svg width="24" height="24" viewBox="0 0 24 24" fill="none" xmlns="http://www.w3.org/2000/svg">
<path d="M3 3C3 1.89543 3.89543 1 5 1H14.5858C14.851 1 15.1054 1.10536 15.2929 1.29289L20.7071 6.70711C20.8946 6.89464 21 7.149 21 7.41421V21C21 22.1046 20.1046 23 19 23H5C3.89543 23 3 22.1046 3 21V3Z" fill="#2688FC" style="fill:#2688FC;fill:color(display-p3 0.1490 0.5333 0.9882);fill-opacity:1;"/>
<path opacity="0.8" d="M14.9922 1.48622C14.9922 1.30679 15.2091 1.21693 15.336 1.34381L20.6484 6.65619C20.7753 6.78306 20.6854 7 20.506 7H16.9922C15.8876 7 14.9922 6.10457 14.9922 5V1.48622Z" fill="#0058C1" style="fill:#0058C1;fill:color(display-p3 0.0000 0.3471 0.7578);fill-opacity:1;"/>
<path d="M17.321 16.0247L13.8852 10.1141H10.1251L13.5608 16.0247H17.321ZM9.79902 10.6744L6.36328 16.5849L8.24419 19.8198L11.6794 13.9092L9.79902 10.6744ZM10.7767 16.5849L8.89636 19.8198H15.7667L17.6465 16.5844L10.7767 16.5849Z" fill="white" style="fill:white;fill-opacity:1;"/>
</svg>
