<svg width="16" height="16" viewBox="0 0 16 16" fill="none" xmlns="http://www.w3.org/2000/svg">
<path d="M8.24912 5.94694C8.11652 5.79777 7.88344 5.79777 7.75085 5.94695L5.82647 8.11188C5.63539 8.32685 5.78799 8.66667 6.0756 8.66667H7.33332V9.8C7.33332 9.91046 7.42287 10 7.53332 10H8.46666C8.57711 10 8.66666 9.91046 8.66666 9.8V8.66667H9.92437C10.212 8.66667 10.3646 8.32685 10.1735 8.11188L8.24912 5.94694Z" fill="#1D1C23" fill-opacity="0.35" style="fill:#1D1C23;fill:color(display-p3 0.1137 0.1098 0.1373);fill-opacity:0.35;"/>
<path d="M7.33332 10.8667C7.33332 10.7562 7.42287 10.6667 7.53332 10.6667H8.46666C8.57711 10.6667 8.66666 10.7562 8.66666 10.8667V11.4667C8.66666 11.5771 8.57711 11.6667 8.46666 11.6667H7.53332C7.42287 11.6667 7.33332 11.5771 7.33332 11.4667V10.8667Z" fill="#1D1C23" fill-opacity="0.35" style="fill:#1D1C23;fill:color(display-p3 0.1137 0.1098 0.1373);fill-opacity:0.35;"/>
<path d="M1 3.33333C1 2.59695 1.59695 2 2.33333 2H5.51644C5.83621 2 6.15337 2.05751 6.45277 2.16979L8.2139 2.83021C8.5133 2.94249 8.83046 3 9.15023 3H13.6667C14.403 3 15 3.59695 15 4.33333V12.6667C15 13.403 14.403 14 13.6667 14H2.33333C1.59695 14 1 13.403 1 12.6667V3.33333ZM2.33333 4.66667L2.33333 12.6667H13.6667V4.66667H2.33333Z" fill="#1D1C23" fill-opacity="0.35" style="fill:#1D1C23;fill:color(display-p3 0.1137 0.1098 0.1373);fill-opacity:0.35;"/>
</svg>
