<svg xmlns="http://www.w3.org/2000/svg" width="34" height="34" viewBox="0 0 34 34" fill="none">
    <path
        d="M4.5 4.49994C4.5 2.96582 5.74365 1.72217 7.27778 1.72217H20.5914C20.9597 1.72217 21.313 1.8685 21.5735 2.12896L29.0932 9.64871C29.3537 9.90917 29.5 10.2624 29.5 10.6308V29.4999C29.5 31.0341 28.2563 32.2777 26.7222 32.2777H7.27778C5.74365 32.2777 4.5 31.0341 4.5 29.4999V4.49994Z"
        fill="#336DF4" />
    <path
        d="M4.5 4.49994C4.5 2.96582 5.74365 1.72217 7.27778 1.72217H20.5914C20.9597 1.72217 21.313 1.8685 21.5735 2.12896L29.0932 9.64871C29.3537 9.90917 29.5 10.2624 29.5 10.6308V29.4999C29.5 31.0341 28.2563 32.2777 26.7222 32.2777H7.27778C5.74365 32.2777 4.5 31.0341 4.5 29.4999V4.49994Z"
        fill="#336DF4" />
    <path opacity="0.7"
        d="M21.166 2.39278C21.166 2.14531 21.4652 2.02137 21.6402 2.19636L29.0252 9.58131C29.2001 9.7563 29.0762 10.0555 28.8287 10.0555H23.9438C22.4097 10.0555 21.166 8.81185 21.166 7.27772V2.39278Z"
        fill="#0442D2" />
    <path
        d="M17.0054 17.3464L14.9574 24.9249C14.9325 25.0169 14.8491 25.0808 14.7538 25.0808H13.5476C13.4533 25.0808 13.3704 25.0181 13.3447 24.9274L10.5676 15.1219C10.5359 15.0098 10.601 14.8932 10.713 14.8615C10.7317 14.8562 10.7511 14.8535 10.7705 14.8535H11.9802C12.0763 14.8535 12.1603 14.9185 12.1843 15.0116L14.1606 22.6551L16.2128 15.0097C16.2376 14.9176 16.3211 14.8535 16.4165 14.8535H17.5953C17.6908 14.8535 17.7744 14.9177 17.799 15.01L19.8381 22.6533L21.8138 15.0116C21.8379 14.9185 21.9219 14.8535 22.018 14.8535H23.2277C23.3441 14.8535 23.4385 14.9479 23.4385 15.0644C23.4385 15.0838 23.4359 15.1032 23.4306 15.1219L20.6534 24.9274C20.6277 25.0181 20.5449 25.0808 20.4505 25.0808H19.2444C19.149 25.0808 19.0654 25.0167 19.0407 24.9246L17.0054 17.3464Z"
        fill="white" />
</svg>
