<svg width="16" height="16" viewBox="0 0 16 16" fill="none" xmlns="http://www.w3.org/2000/svg">
<path d="M14.6036 1.40473C14.8639 1.66508 14.8639 2.08719 14.6036 2.34754L13.6216 3.32946C14.7349 4.8916 14.5908 7.07432 13.1893 8.4758L12.2465 9.41861C11.9862 9.67896 11.5641 9.67896 11.3037 9.41861L6.58968 4.70457C6.32934 4.44422 6.32934 4.02211 6.58968 3.76176L7.53249 2.81895C8.93398 1.41746 11.1167 1.27336 12.6788 2.38665L13.6608 1.40473C13.9211 1.14439 14.3432 1.14439 14.6036 1.40473ZM8.4753 3.76176L8.0039 4.23316L11.7751 8.0044L12.2465 7.53299C13.2879 6.49159 13.2879 4.80315 12.2465 3.76176C11.2051 2.72036 9.5167 2.72036 8.4753 3.76176Z" fill="#1D1C23" fill-opacity="0.35" style="fill:#1D1C23;fill:color(display-p3 0.1137 0.1098 0.1373);fill-opacity:0.35;"/>
<path d="M3.32897 13.6221C4.89111 14.7354 7.07383 14.5913 8.47532 13.1898L9.41813 12.247C9.67848 11.9867 9.67848 11.5646 9.41813 11.3042L8.94674 10.8328L9.65386 10.1257C9.91421 9.86537 9.91421 9.44326 9.65386 9.18291C9.39351 8.92256 8.9714 8.92256 8.71105 9.18291L8.00393 9.89003L6.1183 8.0044L6.82541 7.29729C7.08576 7.03694 7.08576 6.61483 6.82541 6.35448C6.56506 6.09413 6.14295 6.09413 5.8826 6.35448L5.17549 7.06159L4.70408 6.59018C4.44373 6.32983 4.02162 6.32983 3.76127 6.59018L2.81846 7.53299C1.41698 8.93447 1.27288 11.1172 2.38616 12.6793L1.40425 13.6612C1.1439 13.9216 1.1439 14.3437 1.40425 14.6041C1.6646 14.8644 2.08671 14.8644 2.34706 14.6041L3.32897 13.6221ZM3.76127 12.247C2.71988 11.2056 2.71988 9.51719 3.76127 8.4758L4.23268 8.00439L4.70315 8.47486L4.70409 8.4758L8.00391 11.7756L7.53251 12.247C6.49111 13.2884 4.80267 13.2884 3.76127 12.247Z" fill="#1D1C23" fill-opacity="0.35" style="fill:#1D1C23;fill:color(display-p3 0.1137 0.1098 0.1373);fill-opacity:0.35;"/>
</svg>
