<svg width="24" height="24" viewBox="0 0 24 24" fill="none" xmlns="http://www.w3.org/2000/svg">
<path d="M3 3C3 1.89543 3.89543 1 5 1H14.5858C14.851 1 15.1054 1.10536 15.2929 1.29289L20.7071 6.70711C20.8946 6.89464 21 7.149 21 7.41421V21C21 22.1046 20.1046 23 19 23H5C3.89543 23 3 22.1046 3 21V3Z" fill="#00BDBD" style="fill:#00BDBD;fill:color(display-p3 0.0000 0.7412 0.7412);fill-opacity:1;"/>
<path opacity="0.8" d="M14.9922 1.48622C14.9922 1.30679 15.2091 1.21693 15.336 1.34381L20.6484 6.65619C20.7753 6.78306 20.6854 7 20.506 7H16.9922C15.8876 7 14.9922 6.10457 14.9922 5V1.48622Z" fill="#0195AD" style="fill:#0195AD;fill:color(display-p3 0.0039 0.5843 0.6784);fill-opacity:1;"/>
<path d="M16.9522 10.0534C17.1474 10.2487 17.1474 10.5653 16.9522 10.7605L16.2157 11.497C17.0507 12.6686 16.9426 14.3056 15.8915 15.3567L15.1844 16.0638C14.9892 16.2591 14.6726 16.2591 14.4773 16.0638L10.9418 12.5283C10.7465 12.333 10.7465 12.0165 10.9418 11.8212L11.6489 11.1141C12.7 10.063 14.337 9.9549 15.5086 10.7899L16.2451 10.0534C16.4403 9.85817 16.7569 9.85817 16.9522 10.0534ZM12.356 11.8212L12.0024 12.1747L14.8309 15.0032L15.1844 14.6496C15.9655 13.8686 15.9655 12.6022 15.1844 11.8212C14.4034 11.0401 13.137 11.0401 12.356 11.8212Z" fill="white" style="fill:white;fill-opacity:1;"/>
<path d="M8.49624 19.2165C9.66784 20.0514 11.3049 19.9434 12.356 18.8923L13.0631 18.1852C13.2584 17.9899 13.2584 17.6733 13.0631 17.478L12.7096 17.1245L13.2399 16.5942C13.4352 16.3989 13.4352 16.0823 13.2399 15.8871C13.0446 15.6918 12.7281 15.6918 12.5328 15.8871L12.0025 16.4174L10.5882 15.0032L11.1186 14.4728C11.3138 14.2776 11.3138 13.961 11.1186 13.7657C10.9233 13.5705 10.6067 13.5705 10.4115 13.7657L9.88113 14.2961L9.52757 13.9425C9.33231 13.7472 9.01573 13.7472 8.82047 13.9425L8.11336 14.6496C7.06225 15.7007 6.95417 17.3378 7.78914 18.5094L7.0527 19.2458C6.85743 19.4411 6.85743 19.7577 7.0527 19.9529C7.24796 20.1482 7.56454 20.1482 7.7598 19.9529L8.49624 19.2165ZM8.82047 18.1852C8.03942 17.4041 8.03942 16.1378 8.82047 15.3567L9.17402 15.0032L9.52687 15.356L9.52758 15.3567L12.0024 17.8316L11.6489 18.1852C10.8678 18.9662 9.60152 18.9662 8.82047 18.1852Z" fill="white" style="fill:white;fill-opacity:1;"/>
</svg>
