<svg width="16" height="16" viewBox="0 0 16 16" fill="none" xmlns="http://www.w3.org/2000/svg">
<g id="icon">
<path id="Union" fill-rule="evenodd" clip-rule="evenodd" d="M5.33447 2.66634C5.33447 1.92996 5.93142 1.33301 6.6678 1.33301H9.33447C10.0708 1.33301 10.6678 1.92996 10.6678 2.66634L14 2.66634C14.3682 2.66634 14.6667 2.96482 14.6667 3.33301C14.6667 3.7012 14.3682 3.99968 14 3.99968L2.00004 3.99967C1.63185 3.99967 1.33337 3.7012 1.33337 3.33301C1.33337 2.96482 1.63185 2.66634 2.00004 2.66634H5.33447ZM9.33272 5.99976C9.70091 5.99976 9.99939 6.29823 9.99939 6.66642V10.6664C9.99939 11.0346 9.70091 11.3331 9.33272 11.3331C8.96453 11.3331 8.66606 11.0346 8.66606 10.6664V6.66642C8.66606 6.29823 8.96453 5.99976 9.33272 5.99976ZM2.66931 12.6664V3.99976H4.00265V12.6664C4.00265 13.0346 4.30112 13.3331 4.66931 13.3331H11.3308C11.699 13.3331 11.9974 13.0346 11.9974 12.6664V3.99976H13.3308V12.6664C13.3308 13.771 12.4353 14.6664 11.3308 14.6664H4.66931C3.56474 14.6664 2.66931 13.771 2.66931 12.6664ZM6.66671 5.99976C7.0349 5.99976 7.33337 6.29823 7.33337 6.66642V10.6664C7.33337 11.0346 7.0349 11.3331 6.66671 11.3331C6.29852 11.3331 6.00004 11.0346 6.00004 10.6664V6.66642C6.00004 6.29823 6.29852 5.99976 6.66671 5.99976Z" fill="#888A92"/>
</g>
</svg>
