<svg xmlns="http://www.w3.org/2000/svg" width="34" height="34" viewBox="0 0 34 34" fill="none">
    <path
        d="M4.79688 4.79682C4.79688 3.2627 6.04053 2.01904 7.57465 2.01904H20.8882C21.2566 2.01904 21.6099 2.16537 21.8703 2.42584L29.3901 9.94558C29.6506 10.206 29.7969 10.5593 29.7969 10.9277V29.7968C29.7969 31.3309 28.5532 32.5746 27.0191 32.5746H7.57465C6.04053 32.5746 4.79688 31.3309 4.79688 29.7968V4.79682Z"
        fill="#F54A45" />
    <path
        d="M21.4629 2.68966C21.4629 2.44218 21.7621 2.31825 21.9371 2.49324L29.322 9.87818C29.497 10.0532 29.3731 10.3524 29.1256 10.3524H24.2407C22.7065 10.3524 21.4629 9.10872 21.4629 7.5746V2.68966Z"
        fill="#C02A26" />
    <path
        d="M25.007 22.2292C24.6623 21.8256 23.9554 21.6293 22.846 21.6293C22.2011 21.6293 21.3128 21.6455 20.42 21.778C17.9816 20.0201 17.4101 18.1317 17.4101 18.1317C17.4101 18.1317 17.8265 17.0863 17.8529 15.379C17.8697 14.2996 17.6986 13.4946 17.2622 13.1486C17.0763 13.0012 16.8064 12.8779 16.5347 12.8779C16.3226 12.8779 16.124 12.9393 15.9613 13.0567C14.6937 13.9713 16.0777 18.2828 16.1147 18.3977C15.5165 19.8493 14.7629 21.3872 13.9873 22.7385C13.7353 23.1776 13.7353 23.186 13.566 23.3853C13.566 23.3853 11.347 24.4859 10.3065 25.7061C9.71856 26.3956 9.69948 26.8689 9.73069 27.2236C9.781 27.6491 10.3233 28.0294 10.8693 28.0294C10.8919 28.0294 10.9147 28.0288 10.937 28.0274C11.4919 27.9936 12.1092 27.841 12.796 27.1913C13.2932 26.7209 13.8524 25.4437 14.5712 24.1938C16.6335 23.6153 18.4485 23.2033 19.9695 22.9684C21.085 23.5602 22.7445 24.2305 23.8742 24.2305C24.2532 24.2305 24.558 24.1543 24.7802 24.0041C25.0462 23.8245 25.1591 23.6006 25.2293 23.186C25.2995 22.7715 25.2018 22.4572 25.007 22.2292ZM22.5823 22.878C23.6124 22.878 24.17 23.0597 24.4565 23.2121C24.5449 23.2592 24.6092 23.3045 24.6548 23.3424C24.574 23.405 24.4152 23.484 24.1283 23.484C23.6524 23.484 23.0278 23.2824 22.266 22.8834C22.3743 22.8798 22.4798 22.878 22.5823 22.878ZM16.6667 13.7913L16.6685 13.7871C16.8293 13.9055 16.9043 14.7372 16.8893 15.2195C16.869 15.8666 16.8642 16.1167 16.783 16.5143C16.5627 15.6854 16.5471 14.1954 16.6667 13.7913ZM16.7175 19.8477C17.2199 20.6751 17.8569 21.5131 18.5747 22.153C17.1737 22.4533 16.0104 22.7289 15.1734 23.0218C16.0706 21.468 16.6586 20.0017 16.7175 19.8477ZM11.0606 26.8586C11.1874 26.6711 11.5338 26.3078 12.4121 25.6052C11.9407 26.6911 11.4113 26.8586 10.9191 27.1203C10.9563 27.0342 11.003 26.9439 11.0606 26.8586Z"
        fill="white" />
</svg>
