<svg width="25" height="24" viewBox="0 0 25 24" fill="none" xmlns="http://www.w3.org/2000/svg">
<rect x="0.517578" y="0.000488281" width="24" height="24" rx="4" fill="#2288FF"/>
<path fill-rule="evenodd" clip-rule="evenodd" d="M7.49895 5.63477C7.17269 5.63477 6.9082 5.89925 6.9082 6.22551V15.1214C6.9082 15.8956 7.22781 16.6381 7.79671 17.1855C8.36561 17.7329 9.13721 18.0404 9.94176 18.0404H17.5416C17.8679 18.0404 18.1324 17.7759 18.1324 17.4497V8.55374C18.1324 7.77958 17.8128 7.03713 17.2439 6.48971C16.675 5.9423 15.9034 5.63477 15.0988 5.63477H7.49895ZM9.56445 9.88813C9.56445 9.65975 9.74959 9.47461 9.97797 9.47461H15.0584C15.2868 9.47461 15.4719 9.65975 15.4719 9.88813C15.4719 10.1165 15.2868 10.3017 15.0584 10.3017H9.97797C9.74959 10.3017 9.56445 10.1165 9.56445 9.88813ZM9.56445 11.8967C9.56445 11.6683 9.74959 11.4831 9.97797 11.4831H15.0584C15.2868 11.4831 15.4719 11.6683 15.4719 11.8967C15.4719 12.125 15.2868 12.3102 15.0584 12.3102H9.97797C9.74959 12.3102 9.56445 12.125 9.56445 11.8967ZM9.97797 13.4917C9.74959 13.4917 9.56445 13.6768 9.56445 13.9052C9.56445 14.1336 9.74959 14.3187 9.97798 14.3187H12.6954C12.9238 14.3187 13.1089 14.1336 13.1089 13.9052C13.1089 13.6768 12.9238 13.4917 12.6954 13.4917H9.97797Z" fill="white"/>
</svg>
