<svg width="25" height="24" viewBox="0 0 25 24" fill="none" xmlns="http://www.w3.org/2000/svg">
<rect x="0.408203" y="0.000488281" width="24" height="24" rx="4" fill="#35C566"/>
<path fill-rule="evenodd" clip-rule="evenodd" d="M7.38747 5.63525C7.06129 5.63525 6.79688 5.89967 6.79688 6.22585V15.1195C6.79688 15.8935 7.1164 16.6357 7.68516 17.183C8.25391 17.7303 9.02532 18.0377 9.82966 18.0377H17.4276C17.7538 18.0377 18.0182 17.7733 18.0182 17.4472V8.55349C18.0182 7.77952 17.6987 7.03726 17.1299 6.48998C16.5611 5.94271 15.7897 5.63525 14.9854 5.63525H7.38747ZM14.1024 8.73535H9.31055V13.5272C9.31055 14.3056 9.94155 14.9366 10.7199 14.9366H15.5118V10.1447C15.5118 9.36635 14.8808 8.73535 14.1024 8.73535ZM12.8108 11.4132V9.58098H14.1024C14.4138 9.58098 14.6662 9.83338 14.6662 10.1447V11.4132H12.8108ZM10.1562 9.58098H11.9651V11.4132H10.1562V9.58098ZM10.1562 13.5272V12.2588H11.9651V14.091H10.7199C10.4086 14.091 10.1562 13.8386 10.1562 13.5272ZM14.6662 14.091H12.8108V12.2588H14.6662V14.091Z" fill="white"/>
</svg>
