<svg width="24" height="24" viewBox="0 0 24 24" fill="none" xmlns="http://www.w3.org/2000/svg">
<path d="M3 3C3 1.89543 3.89543 1 5 1H14.5858C14.851 1 15.1054 1.10536 15.2929 1.29289L20.7071 6.70711C20.8946 6.89464 21 7.149 21 7.41421V21C21 22.1046 20.1046 23 19 23H5C3.89543 23 3 22.1046 3 21V3Z" fill="#32A645" style="fill:#32A645;fill:color(display-p3 0.1950 0.6500 0.2708);fill-opacity:1;"/>
<path d="M7.40345 18.3744C6.09742 18.3744 5.26953 17.4515 5.26953 15.9969V15.9926C5.26953 14.5511 6.11513 13.6283 7.39459 13.6283C8.54124 13.6283 9.2186 14.3842 9.316 15.1664L9.32043 15.2015H8.5678L8.55895 15.1664C8.44384 14.7094 8.07195 14.3051 7.39459 14.3051C6.59327 14.3051 6.05757 14.9642 6.05757 16.0013V16.0057C6.05757 17.0692 6.60655 17.6976 7.40345 17.6976C8.03211 17.6976 8.43499 17.3461 8.56337 16.8363L8.57223 16.8011H9.32928L9.32485 16.8319C9.20089 17.702 8.44384 18.3744 7.40345 18.3744Z" fill="white" style="fill:white;fill-opacity:1;"/>
<path fill-rule="evenodd" clip-rule="evenodd" d="M9.48169 16.8542C9.34569 17.8088 8.51604 18.5327 7.40355 18.5327C6.7112 18.5327 6.13282 18.2868 5.72901 17.8369C5.32688 17.3888 5.11133 16.7535 5.11133 15.9969V15.9925C5.11133 15.2413 5.33197 14.6096 5.73492 14.1637C6.13926 13.7163 6.71487 13.47 7.3947 13.47C8.62103 13.47 9.3658 14.2851 9.47318 15.1466L9.50003 15.3598H8.44453L8.40554 15.205C8.35504 15.0045 8.24946 14.8203 8.08706 14.6865C7.92601 14.5538 7.70021 14.4634 7.3947 14.4634C7.0416 14.4634 6.75323 14.6067 6.54961 14.8628C6.34334 15.1222 6.21599 15.5085 6.21599 16.0013V16.0057C6.21599 16.5117 6.34659 16.8959 6.5544 17.1503C6.75968 17.4017 7.0502 17.5393 7.40355 17.5393C7.68756 17.5393 7.91006 17.4603 8.07406 17.3331C8.23829 17.2056 8.35337 17.0223 8.40997 16.7976L8.44895 16.6428H9.51212L9.48169 16.8542Z" fill="white" style="fill:white;fill-opacity:1;"/>
<path fill-rule="evenodd" clip-rule="evenodd" d="M10.0749 17.0253L10.0508 16.8098H11.1277L11.1621 16.9805C11.2019 17.1759 11.2912 17.3194 11.4288 17.4168C11.5693 17.5162 11.7763 17.5789 12.0695 17.5789C12.3626 17.5789 12.5767 17.5176 12.7126 17.425C12.8422 17.3367 12.9073 17.2166 12.9073 17.0648V17.0604C12.9073 16.9269 12.8741 16.8444 12.8048 16.7785C12.7269 16.7042 12.5861 16.6344 12.3333 16.5727L11.6034 16.397C11.1557 16.2904 10.8024 16.1295 10.56 15.8933C10.3125 15.6521 10.1935 15.3447 10.1935 14.9774V14.973C10.1935 14.0674 10.9947 13.47 12.043 13.47C13.1174 13.47 13.8446 14.1017 13.9097 14.9653L13.9273 15.1928H12.8842L12.8602 15.0263C12.8343 14.8407 12.7521 14.694 12.6231 14.5927C12.4927 14.4903 12.3017 14.4238 12.043 14.4238C11.7874 14.4238 11.5984 14.4854 11.4774 14.5765C11.3607 14.6644 11.2981 14.7859 11.2981 14.9379V14.9422C11.2981 15.0579 11.3344 15.1467 11.4156 15.2227C11.503 15.3044 11.6522 15.3803 11.8941 15.4387L12.6245 15.6145C13.1 15.7291 13.4503 15.8852 13.6812 16.1163C13.9188 16.3541 14.012 16.6526 14.012 17.0077V17.0121C14.012 17.9377 13.1355 18.5327 12.0651 18.5327C11.4968 18.5327 11.0252 18.3887 10.6802 18.123C10.3332 17.8557 10.1259 17.4739 10.0749 17.0253Z" fill="white" style="fill:white;fill-opacity:1;"/>
<path fill-rule="evenodd" clip-rule="evenodd" d="M16.1432 18.4443L14.3301 13.5574H15.4814L16.6476 17.0057L17.8177 13.5574H18.9599L17.1516 18.4443H16.1432Z" fill="white" style="fill:white;fill-opacity:1;"/>
<path opacity="0.8" d="M14.9902 1.47995C14.9902 1.30284 15.2044 1.21414 15.3296 1.33938L20.6509 6.66062C20.7761 6.78586 20.6874 7 20.5103 7H16.9902C15.8857 7 14.9902 6.10457 14.9902 5V1.47995Z" fill="#278B34" style="fill:#278B34;fill:color(display-p3 0.1529 0.5451 0.2039);fill-opacity:1;"/>
</svg>
