<svg width="16" height="16" viewBox="0 0 16 16" fill="none" xmlns="http://www.w3.org/2000/svg">
<path d="M12.6673 1.99984H2.66732V13.9998H5.22705C5.35425 14.494 5.58503 14.9467 5.89487 15.3332H2.66732C1.93094 15.3332 1.33398 14.7362 1.33398 13.9998V1.99984C1.33398 1.26346 1.93094 0.666504 2.66732 0.666504H12.6673C13.4037 0.666504 14.0007 1.26346 14.0007 1.99984V8.57945C13.6264 8.19182 13.175 7.87597 12.6673 7.65922V1.99984Z" fill="#1D1C23" fill-opacity="0.35" style="fill:#1D1C23;fill:color(display-p3 0.1137 0.1098 0.1373);fill-opacity:0.35;"/>
<path d="M4.00065 4.6665C4.00065 4.29831 4.29913 3.99984 4.66732 3.99984H10.6673C11.0355 3.99984 11.334 4.29831 11.334 4.6665C11.334 5.03469 11.0355 5.33317 10.6673 5.33317H4.66732C4.29913 5.33317 4.00065 5.03469 4.00065 4.6665Z" fill="#1D1C23" fill-opacity="0.35" style="fill:#1D1C23;fill:color(display-p3 0.1137 0.1098 0.1373);fill-opacity:0.35;"/>
<path d="M4.66732 6.99984C4.29913 6.99984 4.00065 7.29831 4.00065 7.6665C4.00065 8.03469 4.29913 8.33317 4.66732 8.33317H7.33398C7.70217 8.33317 8.00065 8.03469 8.00065 7.6665C8.00065 7.29831 7.70217 6.99984 7.33398 6.99984H4.66732Z" fill="#1D1C23" fill-opacity="0.35" style="fill:#1D1C23;fill:color(display-p3 0.1137 0.1098 0.1373);fill-opacity:0.35;"/>
<path d="M11.0588 8.6665C9.69445 8.6665 8.58364 9.64844 8.3441 10.9125C7.27158 11.0705 6.44836 11.9946 6.44836 13.1109C6.44836 14.3382 7.44329 15.3332 8.67059 15.3332H13.1013C14.4584 15.3332 15.4842 14.1041 15.2414 12.7688C15.0986 11.9837 14.5409 11.3502 13.803 11.0989C13.6429 9.76187 12.506 8.6665 11.0588 8.6665ZM8.53832 12.2317L9.4774 12.0934L9.65412 11.1608C9.77832 10.5053 10.356 9.99984 11.0588 9.99984C11.8028 9.99984 12.3959 10.5623 12.4791 11.2574L12.5789 12.0906L13.3732 12.3611C13.6587 12.4583 13.8744 12.7039 13.9296 13.0074C14.0235 13.5241 13.6265 13.9998 13.1013 13.9998H8.67059C8.17967 13.9998 7.7817 13.6019 7.7817 13.1109C7.7817 12.6656 8.11053 12.2946 8.53832 12.2317Z" fill="#1D1C23" fill-opacity="0.35" style="fill:#1D1C23;fill:color(display-p3 0.1137 0.1098 0.1373);fill-opacity:0.35;"/>
</svg>
