<svg width="24" height="24" viewBox="0 0 24 24" fill="none" xmlns="http://www.w3.org/2000/svg">
<g id="icon_wiki-excel_colorful">
<path id="Rectangle 2530" d="M3 3C3 1.89543 3.89543 1 5 1H14.5858C14.851 1 15.1054 1.10536 15.2929 1.29289L20.7071 6.70711C20.8946 6.89464 21 7.149 21 7.41421V21C21 22.1046 20.1046 23 19 23H5C3.89543 23 3 22.1046 3 21V3Z" fill="#35BD4B" style="fill:#35BD4B;fill:color(display-p3 0.2078 0.7412 0.2941);fill-opacity:1;"/>
<path id="Rectangle 2531" opacity="0.8" d="M15 1.48284C15 1.30466 15.2154 1.21543 15.3414 1.34142L20.6586 6.65858C20.7846 6.78457 20.6953 7 20.5172 7H17C15.8954 7 15 6.10457 15 5V1.48284Z" fill="#32A645" style="fill:#32A645;fill:color(display-p3 0.1961 0.6510 0.2706);fill-opacity:1;"/>
<path id="icon_file_excel_nor" d="M8.54616 9.90918H9.63802C9.68642 9.90918 9.73174 9.93297 9.75923 9.97281L11.8578 13.014L13.9675 9.97251C13.995 9.93284 14.0402 9.90918 14.0885 9.90918H15.1801C15.2615 9.90918 15.3274 9.97512 15.3274 10.0565C15.3274 10.0871 15.3179 10.117 15.3001 10.1419L12.5671 13.9756L15.5175 18.1312C15.5646 18.1975 15.549 18.2894 15.4827 18.3365C15.4578 18.3542 15.428 18.3637 15.3974 18.3637H14.3057C14.2573 18.3637 14.2121 18.34 14.1845 18.3002L11.8578 14.9373L9.54214 18.3C9.51466 18.3399 9.4693 18.3637 9.42084 18.3637H8.32891C8.24758 18.3637 8.18164 18.2978 8.18164 18.2165C8.18164 18.1861 8.19103 18.1565 8.20853 18.1316L11.137 13.9756L8.42592 10.1415C8.37896 10.0751 8.39473 9.98316 8.46114 9.9362C8.486 9.91862 8.51571 9.90918 8.54616 9.90918Z" fill="white" style="fill:white;fill-opacity:1;"/>
</g>
</svg>
