<svg width="24" height="24" viewBox="0 0 24 24" fill="none" xmlns="http://www.w3.org/2000/svg">
<path d="M3 3C3 1.89543 3.89543 1 5 1H14.5858C14.851 1 15.1054 1.10536 15.2929 1.29289L20.7071 6.70711C20.8946 6.89464 21 7.149 21 7.41421V21C21 22.1046 20.1046 23 19 23H5C3.89543 23 3 22.1046 3 21V3Z" fill="#336DF4" style="fill:#336DF4;fill:color(display-p3 0.2000 0.4275 0.9569);fill-opacity:1;"/>
<path opacity="0.7" d="M15 1.48284C15 1.30466 15.2154 1.21543 15.3414 1.34142L20.6586 6.65858C20.7846 6.78457 20.6953 7 20.5172 7H17C15.8954 7 15 6.10457 15 5V1.48284Z" fill="#0442D2" style="fill:#0442D2;fill:color(display-p3 0.0157 0.2588 0.8235);fill-opacity:1;"/>
<path d="M12.5465 10.7271V18.2271C12.5465 18.3025 12.4855 18.3635 12.4102 18.3635H11.592C11.5167 18.3635 11.4556 18.3025 11.4556 18.2271V10.7271H8.04652C7.97121 10.7271 7.91016 10.6661 7.91016 10.5908V9.77259C7.91016 9.69728 7.97121 9.63623 8.04652 9.63623H15.9556C16.0309 9.63623 16.092 9.69728 16.092 9.77259V10.5908C16.092 10.6661 16.0309 10.7271 15.9556 10.7271H12.5465Z" fill="white" style="fill:white;fill-opacity:1;"/>
</svg>
