<svg width="24" height="24" viewBox="0 0 24 24" fill="none" xmlns="http://www.w3.org/2000/svg">
<g id="icon_wiki-pdf_colorful">
<path id="Rectangle 2530" d="M3 3C3 1.89543 3.89543 1 5 1H14.5858C14.851 1 15.1054 1.10536 15.2929 1.29289L20.7071 6.70711C20.8946 6.89464 21 7.149 21 7.41421V21C21 22.1046 20.1046 23 19 23H5C3.89543 23 3 22.1046 3 21V3Z" fill="#F54A45" style="fill:#F54A45;fill:color(display-p3 0.9608 0.2902 0.2706);fill-opacity:1;"/>
<path id="Rectangle 2531" d="M15 1.48284C15 1.30466 15.2154 1.21543 15.3414 1.34142L20.6586 6.65858C20.7846 6.78457 20.6953 7 20.5172 7H17C15.8954 7 15 6.10457 15 5V1.48284Z" fill="#C02A26" style="fill:#C02A26;fill:color(display-p3 0.7529 0.1647 0.1490);fill-opacity:1;"/>
<path id="icon_file_pdf_nor" d="M17.5503 15.5512C17.3022 15.2606 16.7932 15.1194 15.9944 15.1194C15.5301 15.1194 14.8905 15.131 14.2477 15.2264C12.492 13.9607 12.0805 12.6011 12.0805 12.6011C12.0805 12.6011 12.3804 11.8484 12.3994 10.6191C12.4115 9.84198 12.2883 9.2624 11.9741 9.01323C11.8402 8.9071 11.6459 8.81836 11.4503 8.81836C11.2976 8.81836 11.1546 8.86258 11.0375 8.94711C10.1248 9.6056 11.1212 12.7099 11.1479 12.7926C10.7172 13.8377 10.1746 14.945 9.61615 15.918C9.4347 16.2341 9.4347 16.2402 9.31282 16.3837C9.31282 16.3837 7.71514 17.1761 6.96597 18.0546C6.54268 18.551 6.52894 18.8919 6.55141 19.1473C6.58763 19.4536 6.97811 19.7275 7.37121 19.7275C7.38752 19.7275 7.40392 19.727 7.41999 19.726C7.81951 19.7017 8.26391 19.5917 8.75842 19.124C9.11642 18.7853 9.51901 17.8657 10.0366 16.9658C11.5215 16.5493 12.8282 16.2526 13.9234 16.0835C14.7265 16.5096 15.9214 16.9922 16.7347 16.9922C17.0076 16.9922 17.2271 16.9374 17.3871 16.8292C17.5786 16.6999 17.6599 16.5387 17.7104 16.2402C17.7609 15.9418 17.6906 15.7154 17.5503 15.5512ZM15.8046 16.0184C16.5462 16.0184 16.9477 16.1492 17.154 16.259C17.2176 16.2928 17.2639 16.3255 17.2968 16.3528C17.2386 16.3978 17.1243 16.4547 16.9177 16.4547C16.575 16.4547 16.1253 16.3096 15.5768 16.0223C15.6548 16.0197 15.7308 16.0184 15.8046 16.0184ZM11.5453 9.47602L11.5466 9.47293C11.6624 9.5582 11.7164 10.157 11.7056 10.5043C11.691 10.9702 11.6876 11.1503 11.6291 11.4366C11.4705 10.8397 11.4592 9.76694 11.5453 9.47602ZM11.5819 13.8366C11.9436 14.4323 12.4023 15.0357 12.9191 15.4964C11.9104 15.7126 11.0728 15.911 10.4701 16.122C11.1161 15.0032 11.5395 13.9474 11.5819 13.8366ZM7.50897 18.8845C7.60024 18.7495 7.84962 18.4878 8.48205 17.982C8.14263 18.7639 7.76145 18.8845 7.40708 19.0729C7.43383 19.0109 7.46748 18.9458 7.50897 18.8845Z" fill="white" style="fill:white;fill-opacity:1;"/>
</g>
</svg>
