<svg width="24" height="25" viewBox="0 0 24 25" fill="current" xmlns="http://www.w3.org/2000/svg">
  <g id="Import Excel/CSV">
    <g id="Union">
      <path
        d="M7 13C7 12.4477 7.44772 12 8 12H16C16.5523 12 17 12.4477 17 13C17 13.5523 16.5523 14 16 14H8C7.44772 14 7 13.5523 7 13Z" />
      <path
        d="M7 18C7 17.4477 7.44772 17 8 17H13C13.5523 17 14 17.4477 14 18C14 18.5523 13.5523 19 13 19H8C7.44772 19 7 18.5523 7 18Z" />
      <path
        d="M5 1.5C3.89543 1.5 3 2.39543 3 3.5V22.5C3 23.6046 3.89543 24.5 5 24.5H19C20.1046 24.5 21 23.6046 21 22.5V8.05251C21 7.53746 20.8013 7.04227 20.4453 6.67007L16.0907 2.11755C15.7134 1.7231 15.1913 1.5 14.6454 1.5H5ZM5 22.5V3.5L14.5 3.5V7C14.5 7.55228 14.9477 8 15.5 8H18.9498L19 8.05252V22.5H5Z" />
    </g>
  </g>
</svg>
