<svg width="16" height="16" viewBox="0 0 16 16" fill="none" xmlns="http://www.w3.org/2000/svg">
<path fill-rule="evenodd" clip-rule="evenodd" d="M12.3775 2.01277L14.4504 4.08571C15.0228 4.65813 15.0228 5.58622 14.4504 6.15864L6.15864 14.4504C5.58622 15.0228 4.65813 15.0228 4.08571 14.4504L2.01277 12.3775C1.44034 11.805 1.44034 10.8769 2.01277 10.3045L10.3045 2.01277C10.8769 1.44034 11.805 1.44034 12.3775 2.01277ZM6.11644 0.841895C6.18123 0.637199 6.47089 0.637199 6.53568 0.841895L6.74973 1.51819C6.77133 1.58642 6.82478 1.63987 6.89301 1.66146L7.5693 1.87552C7.774 1.94031 7.774 2.22997 7.5693 2.29476L6.89301 2.50881C6.82478 2.53041 6.77133 2.58386 6.74973 2.65208L6.53568 3.32838C6.47089 3.53308 6.18123 3.53308 6.11644 3.32838L5.90239 2.65208C5.88079 2.58386 5.82734 2.53041 5.75912 2.50881L5.08282 2.29476C4.87812 2.22997 4.87812 1.94031 5.08282 1.87552L5.75912 1.66146C5.82734 1.63987 5.88079 1.58642 5.90239 1.51819L6.11644 0.841895ZM1.85997 3.23387L2.22567 2.16297C2.30246 1.9381 2.6205 1.9381 2.6973 2.16297L3.06299 3.23387C3.08793 3.30688 3.14527 3.36423 3.21828 3.38916L4.28918 3.75486C4.51406 3.83165 4.51406 4.14969 4.28918 4.22648L3.21828 4.59218C3.14527 4.61711 3.08793 4.67446 3.06299 4.74747L2.6973 5.81837C2.6205 6.04324 2.30246 6.04324 2.22567 5.81837L1.85997 4.74747C1.83504 4.67446 1.7777 4.61711 1.70468 4.59218L0.633785 4.22648C0.40891 4.14969 0.40891 3.83165 0.633785 3.75486L1.70468 3.38916C1.7777 3.36423 1.83504 3.30688 1.85997 3.23387ZM13.4837 9.6851C13.5605 9.46022 13.8785 9.46022 13.9553 9.6851L14.321 10.756C14.3459 10.829 14.4033 10.8864 14.4763 10.9113L15.5472 11.277C15.7721 11.3538 15.7721 11.6718 15.5472 11.7486L14.4763 12.1143C14.4033 12.1392 14.3459 12.1966 14.321 12.2696L13.9553 13.3405C13.8785 13.5654 13.5605 13.5654 13.4837 13.3405L13.118 12.2696C13.093 12.1966 13.0357 12.1392 12.9627 12.1143L11.8918 11.7486C11.6669 11.6718 11.6669 11.3538 11.8918 11.277L12.9627 10.9113C13.0357 10.8864 13.093 10.829 13.118 10.756L13.4837 9.6851ZM10.5629 4.34447C10.9922 3.91515 11.6882 3.91515 12.1176 4.34447C12.5469 4.77379 12.5469 5.46985 12.1176 5.89917L10.0446 7.97211C9.6153 8.40143 8.91924 8.40143 8.48992 7.97211C8.0606 7.54279 8.0606 6.84673 8.48992 6.41741L10.5629 4.34447Z" fill="#4D53E8"/>
</svg>
