<svg width="32" height="32" viewBox="0 0 32 32" fill="none" xmlns="http://www.w3.org/2000/svg">
<g id="icon_wiki-excel_colorful">
<path id="Rectangle 2530" d="M4 4.00004C4 2.52728 5.19391 1.33337 6.66667 1.33337H19.4477C19.8013 1.33337 20.1405 1.47385 20.3905 1.7239L27.6095 8.94285C27.8595 9.1929 28 9.53204 28 9.88566V28C28 29.4728 26.8061 30.6667 25.3333 30.6667H6.66667C5.19391 30.6667 4 29.4728 4 28V4.00004Z" fill="#32A645"/>
<path id="Rectangle 2531" opacity="0.8" d="M20 1.97716C20 1.73959 20.2872 1.62061 20.4552 1.7886L27.5448 8.87815C27.7128 9.04614 27.5938 9.33337 27.3562 9.33337H22.6667C21.1939 9.33337 20 8.13947 20 6.66671V1.97716Z" fill="#258832"/>
<path id="icon_file_excel_nor" d="M11.3955 13.2123H12.8513C12.9158 13.2123 12.9762 13.244 13.0129 13.2971L15.811 17.352L18.6239 13.2967C18.6606 13.2438 18.7208 13.2123 18.7852 13.2123H20.2408C20.3492 13.2123 20.4371 13.3002 20.4371 13.4086C20.4371 13.4495 20.4244 13.4894 20.4007 13.5226L16.7567 18.6342L20.6906 24.175C20.7534 24.2634 20.7326 24.386 20.6441 24.4488C20.6109 24.4723 20.5712 24.485 20.5305 24.485H19.0748C19.0103 24.485 18.95 24.4534 18.9133 24.4004L15.811 19.9165L12.7234 24.4C12.6868 24.4532 12.6263 24.485 12.5617 24.485H11.1058C10.9973 24.485 10.9094 24.3971 10.9094 24.2886C10.9094 24.2481 10.9219 24.2086 10.9453 24.1755L14.8499 18.6342L11.2351 13.522C11.1725 13.4335 11.1935 13.3109 11.2821 13.2483C11.3152 13.2249 11.3548 13.2123 11.3955 13.2123Z" fill="white"/>
</g>
</svg>
