<svg width="32" height="32" viewBox="0 0 32 32" fill="none" xmlns="http://www.w3.org/2000/svg">
<g id="icon_wiki-excel_colorful">
<g id="Group 1321320754">
<path id="Rectangle 2530" d="M4 4.0186C4 2.53559 5.19334 1.33337 6.66541 1.33337H19.4404C19.7939 1.33337 20.1328 1.47483 20.3828 1.72662L27.5983 8.99581C27.8482 9.2476 27.9886 9.5891 27.9886 9.94518V28.1856C27.9886 29.6686 26.7953 30.8708 25.3232 30.8708H6.66541C5.19334 30.8708 4 29.6686 4 28.1856V4.0186Z" fill="#32A645"/>
<path id="csv" d="M12.5336 22.6041L12.5395 22.5629L12.5567 22.4425H12.4351H11.4262H11.3438L11.3238 22.5224L11.312 22.5696C11.2315 22.8919 11.0661 23.1596 10.8265 23.347C10.587 23.5342 10.267 23.6461 9.86853 23.6461C9.36786 23.6461 8.95012 23.4484 8.6554 23.0849C8.35894 22.7191 8.18038 22.177 8.18038 21.4801V21.4742C8.18038 20.7949 8.35456 20.2506 8.64815 19.8786C8.93993 19.5089 9.35476 19.3022 9.85673 19.3022C10.2858 19.3022 10.6109 19.4307 10.8462 19.626C11.0824 19.8221 11.2341 20.0904 11.3061 20.3787L11.3179 20.4259L11.3379 20.5058H11.4203H12.4233H12.5428L12.528 20.3873L12.5221 20.3402C12.3858 19.2377 11.4387 18.1826 9.85673 18.1826C8.97717 18.1826 8.23953 18.503 7.72274 19.0791C7.20694 19.6541 6.91917 20.4746 6.91917 21.4624V21.4683C6.91917 22.4641 7.2006 23.2892 7.71512 23.8668C8.23082 24.4457 8.97178 24.7657 9.86853 24.7657C11.3037 24.7657 12.3606 23.8281 12.5336 22.6041Z" fill="white" stroke="white" stroke-width="0.210982"/>
<path id="csv_2" d="M13.5353 22.837L13.5354 22.8371C13.6003 23.4122 13.8628 23.8975 14.3012 24.2377C14.7384 24.5768 15.3426 24.7657 16.0828 24.7657C17.4813 24.7657 18.572 23.9883 18.572 22.8312V22.8253C18.572 22.369 18.454 21.9985 18.1623 21.7045C17.875 21.4148 17.4306 21.2111 16.804 21.0589L16.8039 21.0589L15.8305 20.823C15.8305 20.823 15.8305 20.8229 15.8304 20.8229C15.4997 20.7424 15.2808 20.6347 15.1455 20.5072C15.0143 20.3835 14.9552 20.2351 14.9552 20.0522V20.0463C14.9552 19.808 15.0547 19.6134 15.2365 19.4754C15.4211 19.3354 15.6973 19.2491 16.0533 19.2491C16.4159 19.2491 16.695 19.3431 16.8913 19.4985C17.0869 19.6532 17.2089 19.8754 17.2469 20.1493L17.2469 20.1498L17.2528 20.1911L17.2658 20.2816H17.3573H18.3367H18.4506L18.4419 20.168L18.436 20.0916C18.436 20.0915 18.436 20.0915 18.436 20.0915C18.3544 18.9994 17.4427 18.1826 16.0533 18.1826C14.6903 18.1826 13.694 18.9588 13.694 20.0935V20.0994C13.694 20.5669 13.8432 20.9506 14.1504 21.2522C14.4542 21.5505 14.9042 21.7603 15.4917 21.9012C15.4918 21.9012 15.4918 21.9013 15.4918 21.9013L16.4648 22.1371C16.4648 22.1371 16.4649 22.1372 16.465 22.1372C16.8074 22.2213 17.0169 22.3206 17.1412 22.4397C17.2598 22.5535 17.3108 22.6954 17.3108 22.8961V22.902C17.3108 23.1432 17.2051 23.3369 17.0048 23.4744C16.8004 23.6146 16.4919 23.6992 16.0887 23.6992C15.684 23.6992 15.3847 23.6122 15.1742 23.4622C14.9656 23.3134 14.8336 23.0952 14.7761 22.8103L14.7643 22.7515L14.7474 22.6667H14.6609H13.6343H13.5164L13.5294 22.7839L13.5353 22.837Z" fill="white" stroke="white" stroke-width="0.210982"/>
<path id="csv_3" d="M21.5641 24.5781L21.5895 24.6472H21.6631H22.7133H22.7869L22.8123 24.578L25.0662 18.4419L25.1183 18.3H24.9672H23.8992H23.8235L23.7993 18.3718L22.1883 23.1543L20.5831 18.3719L20.5589 18.3H20.483H19.4033H19.2521L19.3043 18.442L21.5641 24.5781Z" fill="white" stroke="white" stroke-width="0.210982"/>
<path id="Rectangle 2531" opacity="0.8" d="M19.9802 1.97637C19.9802 1.73986 20.2666 1.62187 20.4332 1.78972L27.5282 8.93745C27.6941 9.10464 27.5757 9.38905 27.3401 9.38905H22.6456C21.1736 9.38905 19.9802 8.18683 19.9802 6.70382V1.97637Z" fill="#278B34"/>
</g>
</g>
</svg>
