<svg width="16" height="16" viewBox="0 0 16 16" fill="none" xmlns="http://www.w3.org/2000/svg">
<g clip-path="url(#clip0_1848_33110)">
<path d="M7.99996 14C11.3136 14 14 11.3137 14 7.99999C14 4.68632 11.3136 1.99999 7.99996 1.99999C4.68629 1.99999 1.99996 4.68632 1.99996 7.99999C1.99996 11.3137 4.68629 14 7.99996 14ZM7.99996 15.3333C3.94996 15.3333 0.666626 12.05 0.666626 7.99999C0.666626 3.94999 3.94996 0.666656 7.99996 0.666656C12.05 0.666656 15.3333 3.94999 15.3333 7.99999C15.3333 12.05 12.05 15.3333 7.99996 15.3333ZM7.3333 10.3333V7.66666C6.96511 7.66666 6.66663 7.36818 6.66663 6.99999C6.66663 6.6318 6.96511 6.33332 7.3333 6.33332H8.00237C8.36962 6.33332 8.66774 6.63033 8.6683 6.99758C8.66998 8.10948 8.66663 9.22144 8.66663 10.3333H8.99996C9.36815 10.3333 9.66663 10.6318 9.66663 11C9.66663 11.3682 9.36815 11.6667 8.99996 11.6667H6.99996C6.63177 11.6667 6.3333 11.3682 6.3333 11C6.3333 10.6318 6.63177 10.3333 6.99996 10.3333H7.3333ZM7.99996 5.66666C7.63177 5.66666 7.3333 5.36818 7.3333 4.99999C7.3333 4.6318 7.63177 4.33332 7.99996 4.33332C8.36815 4.33332 8.66663 4.6318 8.66663 4.99999C8.66663 5.36818 8.36815 5.66666 7.99996 5.66666Z" fill="#C6CACD"/>
</g>
<defs>
<clipPath id="clip0_1848_33110">
<rect width="16" height="16" fill="white"/>
</clipPath>
</defs>
</svg>
