<svg width="32" height="32" viewBox="0 0 20 20" fill="none" xmlns="http://www.w3.org/2000/svg">
<ellipse cx="9.99992" cy="9.99967" rx="4.16667" ry="4.16667" fill="#FF441E"/>
<path fill-rule="evenodd" clip-rule="evenodd" d="M3.87626 3.21676C3.68101 3.0215 3.36442 3.02149 3.16916 3.21675C2.97389 3.41201 2.97389 3.72859 3.16915 3.92386L6.10719 6.862C6.31706 6.60199 6.55245 6.36344 6.80955 6.15015L3.87626 3.21676ZM13.8499 13.1907C13.6366 13.4478 13.398 13.6832 13.138 13.893L15.7957 16.5508C15.991 16.7461 16.3075 16.7461 16.5028 16.5508C16.6981 16.3556 16.6981 16.039 16.5028 15.8437L13.8499 13.1907Z" fill="#FF441E"/>
<path d="M10 8.08984V10.5898" stroke="white" stroke-linecap="round" stroke-linejoin="round"/>
<ellipse cx="9.99992" cy="12.0358" rx="0.416667" ry="0.416667" fill="white"/>
<circle cx="3.52279" cy="3.57064" r="1.90267" fill="#FF441E"/>
<ellipse cx="16.1493" cy="16.1976" rx="1.90267" ry="1.90267" fill="#FF441E"/>
</svg>
