<svg width="160" height="64" viewBox="0 0 160 64" fill="none" xmlns="http://www.w3.org/2000/svg">
    <path d="M55.9363 0H8.06366C3.61022 0 0 3.61022 0 8.06366V55.9363C0 60.3898 3.61022 64 8.06366 64H55.9363C60.3898 64 64 60.3898 64 55.9363V8.06366C64 3.61022 60.3898 0 55.9363 0Z" fill="#4D53E8"/>
    <path fill-rule="evenodd" clip-rule="evenodd" d="M32.2647 10.0801C23.0128 10.0801 15.5114 17.5814 15.5114 26.844V33.8679H11.4902C6.87482 33.8679 5.82443 40.3506 10.217 41.7936L15.5114 43.5549V46.5894C15.5114 49.592 18.6732 51.5443 21.347 50.1968L24.286 48.7326C24.4239 48.6689 24.583 48.7326 24.6361 48.8811C27.0128 56.3082 37.5273 56.3082 39.904 48.8811C39.9464 48.7326 40.1162 48.6689 40.2541 48.7326L43.1931 50.1968C45.8775 51.5337 49.0287 49.592 49.0287 46.5894V43.5549L54.3231 41.7936C58.7051 40.34 57.6653 33.8679 53.0499 33.8679H49.0287V26.844C49.0287 17.592 41.5273 10.0801 32.2754 10.0801H32.2647Z" fill="white"/>
    <path d="M37.9414 35.4905C37.9414 34.5993 38.6629 33.8672 39.5648 33.8672C40.4666 33.8672 41.1881 34.5887 41.1881 35.4905C41.1881 36.3924 40.4666 37.1139 39.5648 37.1139C38.6629 37.1139 37.9414 36.3924 37.9414 35.4905Z" fill="url(#paint0_linear_578_240)"/>
    <path d="M27.1083 41.4645C26.4717 40.8279 26.4717 39.8094 27.1083 39.1728C27.7449 38.5362 28.7635 38.5362 29.4001 39.1728C30.981 40.7537 33.5486 40.7537 35.1295 39.1728C35.7661 38.5362 36.7847 38.5362 37.4213 39.1728C38.0579 39.8094 38.0579 40.8279 37.4213 41.4645C34.5778 44.3187 29.9518 44.3187 27.1083 41.4645Z" fill="url(#paint1_linear_578_240)"/>
    <path d="M24.9769 32.2549C24.0856 32.2549 23.3535 32.9764 23.3535 33.8782V37.1249C23.3535 38.0162 24.075 38.7483 24.9769 38.7483C25.8787 38.7483 26.6002 38.0268 26.6002 37.1249V33.8782C26.6002 32.987 25.8787 32.2549 24.9769 32.2549Z" fill="url(#paint2_linear_578_240)"/>
    <path d="M90.7914 14.7476H85.3697V19.7555H81.1893V24.7847H85.3803V32.6786H81.1893V37.7078H85.3803V43.1507C85.3803 43.5433 85.062 43.8616 84.6694 43.8616H81.0195V49.2728H84.6694C88.0434 49.2728 90.802 46.5247 90.802 43.1507V34.111H94.9824V29.0818H90.802V24.7953H94.9824V19.7661H90.802V14.7582L90.7914 14.7476Z" fill="#1E1E1E"/>
    <path d="M112.139 14.5781H102.547C99.3539 14.5781 96.7544 17.1776 96.7544 20.3606V43.4482C96.7544 46.6418 99.3539 49.2306 102.547 49.2306H112.139C115.333 49.2306 117.932 46.6312 117.932 43.4482V20.3606C117.932 17.167 115.333 14.5781 112.139 14.5781ZM112.51 43.4482C112.51 43.6604 112.341 43.8195 112.139 43.8195H102.547C102.335 43.8195 102.176 43.6497 102.176 43.4482V20.3606C102.176 20.1484 102.346 19.9893 102.547 19.9893H112.139C112.351 19.9893 112.51 20.159 112.51 20.3606V43.4482Z" fill="#1E1E1E"/>
    <path d="M146.579 28.6887L153.508 19.8824L153.465 15.0229H127.237V20.4341H146.187L139.693 28.6887H123.693V34.0999H139.449V43.1184C139.449 43.511 139.131 43.8293 138.738 43.8293H130.898V49.2405H138.738C142.123 49.2405 144.871 46.4924 144.871 43.1184V34.0999H158.738V28.6887H146.579Z" fill="#1E1E1E"/>
    <defs>
        <linearGradient id="paint0_linear_578_240" x1="39.5966" y1="34.4083" x2="39.3419" y2="44.7956" gradientUnits="userSpaceOnUse">
            <stop stop-color="#272DCC"/>
            <stop offset="1" stop-color="#9A9DF2"/>
        </linearGradient>
        <linearGradient id="paint1_linear_578_240" x1="32.2436" y1="40.4035" x2="31.172" y2="44.4035" gradientUnits="userSpaceOnUse">
            <stop stop-color="#2B33E6"/>
            <stop offset="1" stop-color="#A19AF2"/>
        </linearGradient>
        <linearGradient id="paint2_linear_578_240" x1="25.083" y1="33.3265" x2="24.0644" y2="54.0798" gradientUnits="userSpaceOnUse">
            <stop stop-color="#272DCC"/>
            <stop offset="1" stop-color="#9A9DF2"/>
        </linearGradient>
    </defs>
</svg>
