<svg width="196" height="64" viewBox="0 0 196 64" fill="none" xmlns="http://www.w3.org/2000/svg">
    <g clip-path="url(#clip0_592_285)">
        <path d="M55.9363 0H8.06366C3.61022 0 0 3.61022 0 8.06366V55.9363C0 60.3898 3.61022 64 8.06366 64H55.9363C60.3898 64 64 60.3898 64 55.9363V8.06366C64 3.61022 60.3898 0 55.9363 0Z" fill="#4D53E8"/>
        <path fill-rule="evenodd" clip-rule="evenodd" d="M32.2647 10.0801C23.0128 10.0801 15.5114 17.5814 15.5114 26.844V33.8679H11.4902C6.87482 33.8679 5.82443 40.3506 10.217 41.7936L15.5114 43.5549V46.5894C15.5114 49.592 18.6732 51.5443 21.347 50.1968L24.286 48.7326C24.4239 48.6689 24.583 48.7326 24.6361 48.8811C27.0128 56.3082 37.5273 56.3082 39.904 48.8811C39.9464 48.7326 40.1162 48.6689 40.2541 48.7326L43.1931 50.1968C45.8775 51.5337 49.0287 49.592 49.0287 46.5894V43.5549L54.3231 41.7936C58.7051 40.34 57.6653 33.8679 53.0499 33.8679H49.0287V26.844C49.0287 17.592 41.5273 10.0801 32.2754 10.0801H32.2647Z" fill="white"/>
        <path d="M37.9414 35.4905C37.9414 34.5993 38.6629 33.8672 39.5648 33.8672C40.4666 33.8672 41.1881 34.5887 41.1881 35.4905C41.1881 36.3924 40.4666 37.1139 39.5648 37.1139C38.6629 37.1139 37.9414 36.3924 37.9414 35.4905Z" fill="url(#paint0_linear_592_285)"/>
        <path d="M27.1083 41.4645C26.4717 40.8279 26.4717 39.8094 27.1083 39.1728C27.7449 38.5362 28.7635 38.5362 29.4001 39.1728C30.981 40.7537 33.5486 40.7537 35.1295 39.1728C35.7661 38.5362 36.7847 38.5362 37.4213 39.1728C38.0579 39.8094 38.0579 40.8279 37.4213 41.4645C34.5778 44.3187 29.9518 44.3187 27.1083 41.4645Z" fill="url(#paint1_linear_592_285)"/>
        <path d="M24.9769 32.2549C24.0856 32.2549 23.3535 32.9764 23.3535 33.8782V37.1249C23.3535 38.0162 24.075 38.7483 24.9769 38.7483C25.8787 38.7483 26.6002 38.0268 26.6002 37.1249V33.8782C26.6002 32.987 25.8787 32.2549 24.9769 32.2549Z" fill="url(#paint2_linear_592_285)"/>
        <path d="M102.993 42.2758C103.182 42.6034 103.109 43.0214 102.808 43.2501C100.352 45.1133 97.2698 46.2224 93.9228 46.2224C85.9066 46.2224 79.4082 39.8606 79.4082 32.013C79.4082 24.1654 85.9066 17.8037 93.9228 17.8037C97.3925 17.8037 100.578 18.9955 103.075 20.9838C103.366 21.2154 103.432 21.6257 103.247 21.9476L101.124 25.6249C100.841 26.1136 100.144 26.1497 99.7547 25.7411C98.256 24.1678 96.1961 23.1965 93.9228 23.1965C89.3399 23.1965 85.6248 27.1438 85.6248 32.013C85.6248 36.8822 89.3399 40.8295 93.9228 40.8295C96.0928 40.8295 98.0682 39.9445 99.5468 38.4957C99.9405 38.11 100.615 38.1575 100.89 38.6347L102.993 42.2758Z" fill="#1E1E1E"/>
        <path d="M140.779 19.5124C140.779 19.0833 141.126 18.7354 141.556 18.7354H163.143C163.572 18.7354 163.92 19.0833 163.92 19.5124V23.1203V23.1203C163.919 23.1203 163.918 23.1207 163.917 23.1214L148.034 40.3685H163.124C163.554 40.3685 163.901 40.7164 163.901 41.1456V44.5869C163.901 45.016 163.554 45.364 163.124 45.364H141.068C140.639 45.364 140.291 45.016 140.291 44.5869V41.3101C140.291 41.1151 140.364 40.9272 140.496 40.7837L156.2 23.7308H141.556C141.126 23.7308 140.779 23.3829 140.779 22.9537V19.5124Z" fill="#1E1E1E"/>
        <path fill-rule="evenodd" clip-rule="evenodd" d="M121.706 46.197C129.722 46.197 136.221 39.8352 136.221 31.9876C136.221 24.14 129.722 17.7783 121.706 17.7783C113.69 17.7783 107.191 24.14 107.191 31.9876C107.191 39.8352 113.69 46.197 121.706 46.197ZM113.41 31.9877C113.41 36.857 117.125 40.8042 121.708 40.8042C126.291 40.8042 130.006 36.857 130.006 31.9877C130.006 27.1185 126.291 23.1713 121.708 23.1713C117.125 23.1713 113.41 27.1185 113.41 31.9877Z" fill="#1E1E1E"/>
        <path fill-rule="evenodd" clip-rule="evenodd" d="M168.049 32.0902C168.049 40.4861 174.127 46.2036 182.008 46.2036C186.691 46.2036 190.108 44.4384 192.638 41.6718C192.922 41.362 192.884 40.8829 192.57 40.6042L190.017 38.3392C189.713 38.0687 189.252 38.0818 188.949 38.3544C186.956 40.1477 184.903 41.1042 182.111 41.1042C178.093 41.1042 174.951 38.6318 174.281 34.2021H193.552C193.956 34.2021 194.291 33.8919 194.321 33.4889C194.33 33.3762 194.336 33.2961 194.336 33.2961C194.37 32.9596 194.37 32.6751 194.37 32.4508C194.37 24.6214 189.992 17.8223 181.338 17.8223C173.56 17.8223 168.049 24.2094 168.049 31.9872V32.0902ZM174.388 29.1751H188.06C187.404 25.6011 185.092 22.9216 181.287 22.9216C177.754 22.9216 175.195 25.4435 174.388 29.1751Z" fill="#1E1E1E"/>
    </g>
    <defs>
        <linearGradient id="paint0_linear_592_285" x1="39.5966" y1="34.4083" x2="39.3419" y2="44.7956" gradientUnits="userSpaceOnUse">
            <stop stop-color="#272DCC"/>
            <stop offset="1" stop-color="#9A9DF2"/>
        </linearGradient>
        <linearGradient id="paint1_linear_592_285" x1="32.2436" y1="40.4035" x2="31.172" y2="44.4035" gradientUnits="userSpaceOnUse">
            <stop stop-color="#2B33E6"/>
            <stop offset="1" stop-color="#A19AF2"/>
        </linearGradient>
        <linearGradient id="paint2_linear_592_285" x1="25.083" y1="33.3265" x2="24.0644" y2="54.0798" gradientUnits="userSpaceOnUse">
            <stop stop-color="#272DCC"/>
            <stop offset="1" stop-color="#9A9DF2"/>
        </linearGradient>
        <clipPath id="clip0_592_285">
            <rect width="196" height="64" fill="white"/>
        </clipPath>
    </defs>
</svg>
