<svg xmlns="http://www.w3.org/2000/svg" width="240" height="96" viewBox="0 0 240 96" fill="none">
    <path d="M83.9045 0H12.0955C5.41534 0 0 5.41534 0 12.0955V83.9045C0 90.5847 5.41534 96 12.0955 96H83.9045C90.5847 96 96 90.5847 96 83.9045V12.0955C96 5.41534 90.5847 0 83.9045 0Z" fill="#4D53E8"/>
    <path fill-rule="evenodd" clip-rule="evenodd" d="M48.3979 15.1194C34.5199 15.1194 23.2679 26.3714 23.2679 40.2653V50.8011H17.236C10.313 50.8011 8.73737 60.5252 15.3262 62.6897L23.2679 65.3316V69.8833C23.2679 74.3873 28.0106 77.3157 32.0212 75.2945L36.4297 73.0982C36.6366 73.0027 36.8753 73.0982 36.9549 73.321C40.5199 84.4616 56.2917 84.4616 59.8567 73.321C59.9204 73.0982 60.175 73.0027 60.3819 73.0982L64.7904 75.2945C68.8169 77.2998 73.5437 74.3873 73.5437 69.8833V65.3316L81.4854 62.6897C88.0583 60.5093 86.4986 50.8011 79.5756 50.8011H73.5437V40.2653C73.5437 26.3873 62.2917 15.1194 48.4138 15.1194H48.3979Z" fill="white"/>
    <path d="M56.9128 53.2358C56.9128 51.8989 57.9951 50.8008 59.3479 50.8008C60.7006 50.8008 61.7829 51.883 61.7829 53.2358C61.7829 54.5886 60.7006 55.6708 59.3479 55.6708C57.9951 55.6708 56.9128 54.5886 56.9128 53.2358Z" fill="url(#paint0_linear_1_133)"/>
    <path d="M40.6632 62.1968C39.7083 61.2419 39.7083 59.7141 40.6632 58.7591C41.6181 57.8042 43.146 57.8042 44.1009 58.7591C46.4722 61.1305 50.3237 61.1305 52.695 58.7591C53.6499 57.8042 55.1778 57.8042 56.1327 58.7591C57.0876 59.7141 57.0876 61.2419 56.1327 62.1968C51.8674 66.478 44.9285 66.478 40.6632 62.1968Z" fill="url(#paint1_linear_1_133)"/>
    <path d="M37.4646 48.3823C36.1277 48.3823 35.0295 49.4646 35.0295 50.8173V55.6874C35.0295 57.0242 36.1118 58.1224 37.4646 58.1224C38.8173 58.1224 39.8996 57.0402 39.8996 55.6874V50.8173C39.8996 49.4805 38.8173 48.3823 37.4646 48.3823Z" fill="url(#paint2_linear_1_133)"/>
    <path d="M136.186 22.1221H128.053V29.634H121.782V37.1778H128.069V49.0186H121.782V56.5624H128.069V64.7268C128.069 65.3157 127.591 65.7932 127.003 65.7932H121.528V73.9099H127.003C132.064 73.9099 136.202 69.7879 136.202 64.7268V51.1672H142.472V43.6234H136.202V37.1937H142.472V29.6499H136.202V22.138L136.186 22.1221Z" fill="white"/>
    <path d="M168.207 21.8679H153.82C149.029 21.8679 145.13 25.7671 145.13 30.5417V65.173C145.13 69.9634 149.029 73.8467 153.82 73.8467H168.207C172.997 73.8467 176.897 69.9475 176.897 65.173V30.5417C176.897 25.7512 172.997 21.8679 168.207 21.8679ZM168.764 65.173C168.764 65.4913 168.509 65.73 168.207 65.73H153.82C153.501 65.73 153.263 65.4753 153.263 65.173V30.5417C153.263 30.2234 153.517 29.9846 153.82 29.9846H168.207C168.525 29.9846 168.764 30.2393 168.764 30.5417V65.173Z" fill="white"/>
    <path d="M219.867 43.0338L230.26 29.8243L230.196 22.5352H190.854V30.6519H219.279L209.539 43.0338H185.539V51.1505H209.173V64.6784C209.173 65.2673 208.695 65.7447 208.106 65.7447H196.345V73.8614H208.106C213.183 73.8614 217.305 69.7394 217.305 64.6784V51.1505H238.106V43.0338H219.867Z" fill="white"/>
    <defs>
        <linearGradient id="paint0_linear_1_133" x1="59.3956" y1="51.6125" x2="59.0136" y2="67.1934" gradientUnits="userSpaceOnUse">
            <stop stop-color="#272DCC"/>
            <stop offset="1" stop-color="#9A9DF2"/>
        </linearGradient>
        <linearGradient id="paint1_linear_1_133" x1="48.3661" y1="60.6053" x2="46.7587" y2="66.6053" gradientUnits="userSpaceOnUse">
            <stop stop-color="#2B33E6"/>
            <stop offset="1" stop-color="#A19AF2"/>
        </linearGradient>
        <linearGradient id="paint2_linear_1_133" x1="37.6237" y1="49.9898" x2="36.0959" y2="81.1197" gradientUnits="userSpaceOnUse">
            <stop stop-color="#272DCC"/>
            <stop offset="1" stop-color="#9A9DF2"/>
        </linearGradient>
    </defs>
</svg>
