<svg width="14" height="15" viewBox="0 0 14 15" fill="currentColor" xmlns="http://www.w3.org/2000/svg">
  <path
    d="M1.7487 3.41667C1.7487 2.775 2.2737 2.25 2.91536 2.25H11.6654C12.307 2.25 12.832 2.775 12.832 3.41667V9.25C12.832 9.89167 12.307 10.4167 11.6654 10.4167H8.7487V11.5833H9.91537C10.2375 11.5833 10.4987 11.8445 10.4987 12.1667C10.4987 12.4888 10.2375 12.75 9.91537 12.75H6.9987C6.67653 12.75 6.41537 12.4888 6.41537 12.1667C6.41537 11.8445 6.67653 11.5833 6.9987 11.5833H7.58203V10.4167H6.9987C6.67653 10.4167 6.41537 10.1555 6.41537 9.83333C6.41537 9.51117 6.67653 9.25 6.9987 9.25H11.6654V3.41667H2.91536V4.58333C2.91536 4.9055 2.6542 5.16667 2.33203 5.16667C2.00987 5.16667 1.7487 4.9055 1.7487 4.58333V3.41667Z" />
  <path
    d="M2.33203 9.83333C2.33203 9.51117 2.5932 9.25 2.91536 9.25H3.4987C3.82086 9.25 4.08203 9.51117 4.08203 9.83333C4.08203 10.1555 3.82086 10.4167 3.4987 10.4167H2.91536C2.5932 10.4167 2.33203 10.1555 2.33203 9.83333Z" />
  <path
    d="M0.582031 6.91667C0.582031 6.27233 1.10437 5.75 1.7487 5.75H4.66536C5.3097 5.75 5.83203 6.27233 5.83203 6.91667V11.5833C5.83203 12.2277 5.3097 12.75 4.66536 12.75H1.7487C1.10437 12.75 0.582031 12.2277 0.582031 11.5833V6.91667ZM1.7487 11.5833H4.66536V6.91667H1.7487V11.5833Z" />
</svg>
