<svg width="16" height="16" viewBox="0 0 16 16" fill="currentColor" xmlns="http://www.w3.org/2000/svg">
<g clip-path="url(#clip0_4851_140318)">
<path d="M12.6664 7.43398L10.8286 14.6873C10.8064 14.7718 10.8708 14.8518 10.9575 14.8518H14.6331C14.7197 14.8518 14.782 14.7718 14.762 14.6873L12.9242 7.43398C12.8908 7.30065 12.702 7.30065 12.6686 7.43398H12.6664Z" />
<path d="M2.54942 9.07852L1.12942 14.6874C1.1072 14.7718 1.17165 14.8519 1.25831 14.8519H4.09832C4.18499 14.8519 4.24721 14.7718 4.22721 14.6874L2.8072 9.07852C2.77387 8.94518 2.58498 8.94518 2.55165 9.07852H2.54942Z" />
<path d="M5.06092 4.43398L2.46536 14.6895C2.44314 14.774 2.50758 14.854 2.59425 14.854H7.78537C7.87203 14.854 7.93423 14.774 7.91423 14.6895L5.3187 4.43398C5.28537 4.30065 5.09648 4.30065 5.06314 4.43398H5.06092Z" />
<path d="M9.53516 1.17255C9.4996 1.04144 9.31516 1.04144 9.2796 1.17255L5.73294 14.6881C5.71071 14.7725 5.77516 14.8525 5.86182 14.8525H12.9574C13.044 14.8525 13.1063 14.7725 13.0863 14.6881L9.53738 1.17255H9.53516Z" />
<path d="M6.93104 5.92422L4.68215 14.6864C4.65993 14.7709 4.72438 14.8509 4.81104 14.8509H9.31104C9.39771 14.8509 9.45993 14.7687 9.43993 14.6864L7.19104 5.92422C7.15771 5.79089 6.96882 5.79089 6.93549 5.92422H6.93104Z" />
</g>
<defs>
<clipPath id="clip0_4851_140318">
<rect width="13.7778" height="14" fill="white" transform="translate(1 1)"/>
</clipPath>
</defs>
</svg>
