<svg width="16" height="16" viewBox="0 0 16 16" fill="currentColor" xmlns="http://www.w3.org/2000/svg">
  <g clip-path="url(#clip0_4851_140130)">
    <path
      d="M2.5443 8.7999L1.04208 14.731C1.02652 14.7932 1.07318 14.851 1.13541 14.851H2.30207C2.34652 14.851 2.38431 14.8199 2.39542 14.7777L3.31319 11.151C3.31764 11.1355 3.31764 11.1199 3.31319 11.1043L2.73096 8.7999C2.70652 8.70212 2.56875 8.70212 2.5443 8.7999Z" />
    <path
      d="M14.9552 14.8513C15.0174 14.8513 15.0641 14.7913 15.0485 14.7313L13.1197 7.12021C13.0952 7.02243 12.9574 7.02243 12.933 7.12021L12.1752 10.1091C12.1708 10.1247 12.1708 10.1402 12.1752 10.1558L13.3463 14.7802C13.3574 14.8224 13.3952 14.8535 13.4397 14.8535H14.9552V14.8513Z" />
    <path
      d="M9.20648 1.14755L7.83536 6.56756C7.83092 6.58312 7.83092 6.59867 7.83536 6.61423L9.90203 14.7787C9.91314 14.8209 9.95092 14.852 9.99536 14.852H12.7376C12.7998 14.852 12.8465 14.792 12.8309 14.732L9.39314 1.14755C9.3687 1.04977 9.23092 1.04977 9.20648 1.14755Z" />
    <path
      d="M5.37566 4.99521L2.91122 14.7308C2.89566 14.793 2.94234 14.8508 3.00456 14.8508H4.28233C4.32678 14.8508 4.36455 14.8197 4.37566 14.7774L6.20011 7.56854C6.20455 7.55299 6.20455 7.53743 6.20011 7.52188L5.56011 4.99521C5.53566 4.89743 5.39789 4.89743 5.37344 4.99521H5.37566Z" />
    <path
      d="M7.0463 6.11826L4.8663 14.7316C4.85074 14.7938 4.89741 14.8516 4.95963 14.8516H9.31963C9.38185 14.8516 9.42852 14.7916 9.41296 14.7316L7.23296 6.11826C7.20852 6.02048 7.07074 6.02048 7.0463 6.11826Z" />
  </g>
  <defs>
    <clipPath id="clip0_4851_140130">
      <rect width="14.2222" height="14" fill="white" transform="translate(1 1)" />
    </clipPath>
  </defs>
</svg>
