<svg width="16" height="16" viewBox="0 0 16 16" fill="none" xmlns="http://www.w3.org/2000/svg">
<path fill-rule="evenodd" clip-rule="evenodd" d="M2.00008 2C1.2637 2 0.666748 2.59695 0.666748 3.33333V12.6667C0.666748 13.403 1.2637 14 2.00008 14H7.78013C7.5671 13.7159 7.44661 13.3662 7.44661 12.9993V9.66727C7.44661 9.07136 7.76452 8.52072 8.2806 8.22276L11.1662 6.55675C11.6823 6.2588 12.3181 6.2588 12.8342 6.55675L15.3334 7.99968V3.33333C15.3334 2.59695 14.7365 2 14.0001 2H2.00008ZM3.86201 6.58582C3.60166 6.32548 3.60166 5.90337 3.86201 5.64302C4.12236 5.38267 4.54447 5.38267 4.80482 5.64302L6.69044 7.52863C6.70225 7.54044 6.71352 7.55259 6.72426 7.56503C6.92066 7.79265 6.93786 8.12151 6.77586 8.36686C6.75146 8.40383 6.72298 8.4389 6.69044 8.47145L4.80482 10.3571C4.54447 10.6174 4.12236 10.6174 3.86201 10.3571C3.60166 10.0967 3.60166 9.67461 3.86201 9.41426L5.27623 8.00004L3.86201 6.58582Z" fill="#0F1528" fill-opacity="0.82"/>
<path fill-rule="evenodd" clip-rule="evenodd" d="M11.3732 7.57866C11.7858 7.34048 12.294 7.34048 12.7066 7.57866L15.0133 8.91042C15.4258 9.1486 15.6799 9.58877 15.6799 10.0651V12.7286C15.6799 13.205 15.4258 13.6452 15.0133 13.8833L12.7066 15.2151C12.294 15.4533 11.7858 15.4533 11.3732 15.2151L9.06657 13.8833C8.65403 13.6452 8.3999 13.205 8.3999 12.7286V10.0651C8.3999 9.58877 8.65403 9.1486 9.06657 8.91042L11.3732 7.57866ZM12.0398 12.4C12.5921 12.4 13.0398 11.9523 13.0398 11.4C13.0398 10.8477 12.5921 10.4 12.0398 10.4C11.4875 10.4 11.0398 10.8477 11.0398 11.4C11.0398 11.9523 11.4875 12.4 12.0398 12.4Z" fill="#0F1528" fill-opacity="0.82"/>
</svg>
