<svg xmlns="http://www.w3.org/2000/svg" width="16" height="16" viewBox="0 0 16 16" fill="none">
  <path fill-rule="evenodd" clip-rule="evenodd" d="M14.0001 3.33333H2.00008V12.6667H7.44661V12.9993C7.44661 13.3662 7.5671 13.7159 7.78013 14H2.00008C1.2637 14 0.666748 13.403 0.666748 12.6667V3.33333C0.666748 2.59695 1.2637 2 2.00008 2H14.0001C14.7365 2 15.3334 2.59695 15.3334 3.33333V7.99968L14.0001 7.22988V3.33333ZM12.6668 7.51506C12.2543 7.27688 11.746 7.27688 11.3335 7.51506L9.02677 8.84682C8.61424 9.085 8.36011 9.52517 8.36011 10.0015V12.665C8.36011 13.1414 8.61424 13.5816 9.02677 13.8197L11.3335 15.1515C11.746 15.3897 12.2543 15.3897 12.6668 15.1515L14.9735 13.8197C15.386 13.5816 15.6401 13.1414 15.6401 12.665V10.0015C15.6401 9.52517 15.386 9.085 14.9735 8.84682L12.6668 7.51506ZM14.3068 10.0015L12.0001 8.66976L9.69344 10.0015V12.665L12.0001 13.9968L14.3068 12.665V10.0015ZM13.5001 11.3333C13.5001 12.1617 12.8285 12.8333 12.0001 12.8333C11.1717 12.8333 10.5001 12.1617 10.5001 11.3333C10.5001 10.5049 11.1717 9.83329 12.0001 9.83329C12.8285 9.83329 13.5001 10.5049 13.5001 11.3333ZM12.0001 10.8333C11.7239 10.8333 11.5001 11.0571 11.5001 11.3333C11.5001 11.6094 11.7239 11.8333 12.0001 11.8333C12.2762 11.8333 12.5001 11.6094 12.5001 11.3333C12.5001 11.0571 12.2762 10.8333 12.0001 10.8333ZM3.86201 5.64302C3.60166 5.90337 3.60166 6.32548 3.86201 6.58582L5.27623 8.00004L3.86201 9.41426C3.60166 9.67461 3.60166 10.0967 3.86201 10.3571C4.12236 10.6174 4.54447 10.6174 4.80482 10.3571L6.69044 8.47145C6.72298 8.4389 6.75146 8.40383 6.77586 8.36686C6.93786 8.12151 6.92066 7.79265 6.72426 7.56503C6.71352 7.55259 6.70225 7.54044 6.69044 7.52863L4.80482 5.64302C4.54447 5.38267 4.12236 5.38267 3.86201 5.64302Z" fill="#060709" fill-opacity="0.8"/>
</svg>
