<svg xmlns="http://www.w3.org/2000/svg" width="1em" height="1em" viewBox="0 0 16 16" fill="none">
  <path
    d="M6 8.66671H10C11.841 8.66671 14 9.95241 14 12.2667V13.3334C14 14.0667 13.4 14.6667 12.6667 14.6667H3.33333C2.6 14.6667 2 14.0667 2 13.3334V12.2667C2 9.95436 4.15905 8.66671 6 8.66671ZM12.6667 13.3334V12.2223C12.6667 10.8213 11.2473 10 10 10H6C4.77998 10 3.33333 10.7812 3.33333 12.2223V13.3334H12.6667ZM8 8.00004C6.15905 8.00004 4.66667 6.50766 4.66667 4.66671C4.66667 2.82576 6.15905 1.33337 8 1.33337C9.84095 1.33337 11.3333 2.82576 11.3333 4.66671C11.3333 6.50766 9.84095 8.00004 8 8.00004ZM8 6.66671C9.10457 6.66671 10 5.77128 10 4.66671C10 3.56214 9.10457 2.66671 8 2.66671C6.89543 2.66671 6 3.56214 6 4.66671C6 5.77128 6.89543 6.66671 8 6.66671Z"
    fill="currentColor" fill-opacity="0.96" />
</svg>
