<svg width="240" height="241" viewBox="0 0 240 241" fill="none" xmlns="http://www.w3.org/2000/svg">
  <rect y="0.648926" width="240" height="240" fill="#2288FF"
    style="fill:#2288FF;fill:color(display-p3 0.1347 0.5317 1.0000);fill-opacity:1;" />
  <path fill-rule="evenodd" clip-rule="evenodd"
    d="M75.1662 68.144C73.698 68.144 72.5078 69.3342 72.5078 70.8024V148.459C72.5078 155.013 75.2136 161.298 80.03 165.933C84.8463 170.567 91.3787 173.171 98.19 173.171H164.874C166.342 173.171 167.532 171.981 167.532 170.512V92.8562C167.532 86.3021 164.826 80.0165 160.01 75.3821C155.193 70.7476 148.661 68.144 141.85 68.144H75.1662ZM94.9961 104.153C94.9961 102.219 96.5635 100.652 98.497 100.652H141.508C143.441 100.652 145.009 102.219 145.009 104.153C145.009 106.086 143.441 107.654 141.508 107.654H98.497C96.5635 107.654 94.9961 106.086 94.9961 104.153ZM94.9961 121.157C94.9961 119.224 96.5635 117.656 98.497 117.656H141.508C143.441 117.656 145.009 119.224 145.009 121.157C145.009 123.091 143.441 124.658 141.508 124.658H98.497C96.5635 124.658 94.9961 123.091 94.9961 121.157ZM98.497 134.661C96.5635 134.661 94.9961 136.228 94.9961 138.161C94.9961 140.095 96.5635 141.662 98.497 141.662H121.503C123.436 141.662 125.004 140.095 125.004 138.161C125.004 136.228 123.436 134.661 121.503 134.661H98.497Z"
    fill="white" style="fill:white;fill-opacity:1;" />
</svg>
