<svg width="14" height="14" viewBox="0 0 14 14" fill="none" xmlns="http://www.w3.org/2000/svg">
<path d="M7.57488 6.4167L6.33153 5.17334C6.10491 4.94672 6.10855 4.57865 6.33517 4.35203C6.56179 4.12541 6.92987 4.12177 7.15649 4.34839L9.61018 6.80208C9.72408 6.91598 9.72408 7.10066 9.61018 7.21456L7.16756 9.65718C6.94134 9.8834 6.57084 9.88139 6.34461 9.65517C6.11839 9.42894 6.11638 9.05844 6.34261 8.83222L7.59146 7.58336H1.74984C1.42767 7.58336 1.1665 7.32219 1.1665 7.00003C1.1665 6.67786 1.42767 6.4167 1.74984 6.4167H7.57488ZM2.33317 2.33335V5.25002H1.1665C1.1665 4.8313 1.1665 3.38533 1.1665 2.33269C1.1665 1.68835 1.68884 1.16669 2.33317 1.16669L11.6665 1.16669C12.3108 1.16669 12.8332 1.68902 12.8332 2.33335V11.6667C12.8332 12.311 12.3108 12.8334 11.6665 12.8334H2.33317C1.68884 12.8334 1.1665 12.311 1.1665 11.6667V8.75002H2.33317V11.6667H11.6665V2.33335H2.33317Z" fill="#4D53E8" style="fill:#4D53E8;fill:color(display-p3 0.3028 0.3270 0.9083);fill-opacity:1;"/>
</svg>
