<svg width="16" height="16" viewBox="0 0 16 16" fill="none" xmlns="http://www.w3.org/2000/svg">
  <mask id="mask0_7789_589266" style="mask-type:alpha" maskUnits="userSpaceOnUse" x="0" y="0" width="16" height="16">
    <rect width="16" height="16" fill="#D9D9D9" />
  </mask>
  <g mask="url(#mask0_7789_589266)">
    <path
      d="M6.16745 14.6654L5.90078 12.532C5.75634 12.4765 5.62023 12.4098 5.49245 12.332C5.36467 12.2543 5.23967 12.1709 5.11745 12.082L3.13411 12.9154L1.30078 9.7487L3.01745 8.4487C3.00634 8.37092 3.00078 8.29592 3.00078 8.2237V7.7737C3.00078 7.70148 3.00634 7.62648 3.01745 7.5487L1.30078 6.2487L3.13411 3.08203L5.11745 3.91536C5.23967 3.82648 5.36745 3.74314 5.50078 3.66536C5.63411 3.58759 5.76745 3.52092 5.90078 3.46536L6.16745 1.33203H9.83412L10.1008 3.46536C10.2452 3.52092 10.3813 3.58759 10.5091 3.66536C10.6369 3.74314 10.7619 3.82648 10.8841 3.91536L12.8674 3.08203L14.7008 6.2487L12.9841 7.5487C12.9952 7.62648 13.0008 7.70148 13.0008 7.7737V8.2237C13.0008 8.29592 12.9897 8.37092 12.9674 8.4487L14.6841 9.7487L12.8508 12.9154L10.8841 12.082C10.7619 12.1709 10.6341 12.2543 10.5008 12.332C10.3674 12.4098 10.2341 12.4765 10.1008 12.532L9.83412 14.6654H6.16745ZM7.33412 13.332H8.65078L8.88411 11.5654C9.22856 11.4765 9.548 11.3459 9.84245 11.1737C10.1369 11.0015 10.4063 10.7931 10.6508 10.5487L12.3008 11.232L12.9508 10.0987L11.5174 9.01536C11.573 8.85981 11.6119 8.69592 11.6341 8.5237C11.6563 8.35148 11.6674 8.17648 11.6674 7.9987C11.6674 7.82092 11.6563 7.64592 11.6341 7.4737C11.6119 7.30148 11.573 7.13759 11.5174 6.98203L12.9508 5.8987L12.3008 4.76536L10.6508 5.46536C10.4063 5.20981 10.1369 4.99592 9.84245 4.8237C9.548 4.65148 9.22856 4.52092 8.88411 4.43203L8.66745 2.66536H7.35078L7.11745 4.43203C6.773 4.52092 6.45356 4.65148 6.15911 4.8237C5.86467 4.99592 5.59523 5.20425 5.35078 5.4487L3.70078 4.76536L3.05078 5.8987L4.48411 6.96536C4.42856 7.13203 4.38967 7.2987 4.36745 7.46536C4.34523 7.63203 4.33411 7.80981 4.33411 7.9987C4.33411 8.17648 4.34523 8.3487 4.36745 8.51536C4.38967 8.68203 4.42856 8.8487 4.48411 9.01536L3.05078 10.0987L3.70078 11.232L5.35078 10.532C5.59523 10.7876 5.86467 11.0015 6.15911 11.1737C6.45356 11.3459 6.773 11.4765 7.11745 11.5654L7.33412 13.332ZM8.03411 10.332C8.67856 10.332 9.22856 10.1043 9.68411 9.6487C10.1397 9.19314 10.3674 8.64314 10.3674 7.9987C10.3674 7.35425 10.1397 6.80425 9.68411 6.3487C9.22856 5.89314 8.67856 5.66536 8.03411 5.66536C7.37856 5.66536 6.82578 5.89314 6.37578 6.3487C5.92578 6.80425 5.70078 7.35425 5.70078 7.9987C5.70078 8.64314 5.92578 9.19314 6.37578 9.6487C6.82578 10.1043 7.37856 10.332 8.03411 10.332Z"
      fill="#4A494F" />
  </g>
</svg>
