<svg width="16" height="16" viewBox="0 0 16 16" fill="none" xmlns="http://www.w3.org/2000/svg">
<path d="M13.0026 2.83333V13.1667H2.66927L2.66927 2.83333H13.0026ZM2.66927 1.5C1.93289 1.5 1.33594 2.09695 1.33594 2.83333V13.1667C1.33594 13.903 1.93289 14.5 2.66927 14.5H13.0026C13.739 14.5 14.3359 13.903 14.3359 13.1667V2.83333C14.3359 2.09695 13.739 1.5 13.0026 1.5H2.66927Z" fill="#1D1C23" fill-opacity="0.8" style="fill:#1D1C23;fill:color(display-p3 0.1137 0.1098 0.1373);fill-opacity:0.8;"/>
<path d="M6.66733 2.83333V5.38997H13.0026V6.72331H6.66733V9.27669H13.0026V10.61H6.66733V13.1667H5.33399L5.33399 10.61H2.66927V9.27669H5.33399L5.33399 6.72331H2.66927V5.38997H5.33399V2.83333H6.66733Z" fill="#1D1C23" fill-opacity="0.8" style="fill:#1D1C23;fill:color(display-p3 0.1137 0.1098 0.1373);fill-opacity:0.8;"/>
</svg>
