<svg width="16" height="16" viewBox="0 0 16 16" fill="none" xmlns="http://www.w3.org/2000/svg">
<path d="M8 1.99951C7.63181 1.99951 7.33333 2.29799 7.33333 2.66618V7.33284H2.66667C2.29848 7.33284 2 7.63132 2 7.99951C2 8.3677 2.29848 8.66618 2.66667 8.66618H7.33333V13.3328C7.33333 13.701 7.63181 13.9995 8 13.9995C8.36819 13.9995 8.66667 13.701 8.66667 13.3328V8.66618H13.3333C13.7015 8.66618 14 8.3677 14 7.99951C14 7.63132 13.7015 7.33285 13.3333 7.33285H8.66667V2.66618C8.66667 2.29799 8.36819 1.99951 8 1.99951Z" fill="#1D1C23" style="fill:#1D1C23;fill:color(display-p3 0.1137 0.1098 0.1373);fill-opacity:1;"/>
</svg>
