<svg width="16" height="16" viewBox="0 0 16 16" fill="none" xmlns="http://www.w3.org/2000/svg">
<path d="M5.83073 4.33333C6.47506 4.33333 6.9974 3.811 6.9974 3.16667C6.9974 2.52233 6.47506 2 5.83073 2C5.1864 2 4.66406 2.52233 4.66406 3.16667C4.66406 3.811 5.1864 4.33333 5.83073 4.33333Z" fill="#1D1C23" fill-opacity="0.35" style="fill:#1D1C23;fill:color(display-p3 0.1137 0.1098 0.1373);fill-opacity:0.35;"/>
<path d="M5.83073 9.16667C6.47506 9.16667 6.9974 8.64433 6.9974 8C6.9974 7.35567 6.47506 6.83333 5.83073 6.83333C5.1864 6.83333 4.66406 7.35567 4.66406 8C4.66406 8.64433 5.1864 9.16667 5.83073 9.16667Z" fill="#1D1C23" fill-opacity="0.35" style="fill:#1D1C23;fill:color(display-p3 0.1137 0.1098 0.1373);fill-opacity:0.35;"/>
<path d="M6.9974 12.8333C6.9974 13.4777 6.47506 14 5.83073 14C5.1864 14 4.66406 13.4777 4.66406 12.8333C4.66406 12.189 5.1864 11.6667 5.83073 11.6667C6.47506 11.6667 6.9974 12.189 6.9974 12.8333Z" fill="#1D1C23" fill-opacity="0.35" style="fill:#1D1C23;fill:color(display-p3 0.1137 0.1098 0.1373);fill-opacity:0.35;"/>
<path d="M10.1663 4.33333C10.8107 4.33333 11.333 3.811 11.333 3.16667C11.333 2.52233 10.8107 2 10.1663 2C9.52201 2 8.99967 2.52233 8.99967 3.16667C8.99967 3.811 9.52201 4.33333 10.1663 4.33333Z" fill="#1D1C23" fill-opacity="0.35" style="fill:#1D1C23;fill:color(display-p3 0.1137 0.1098 0.1373);fill-opacity:0.35;"/>
<path d="M11.3307 8C11.3307 8.64433 10.8084 9.16667 10.1641 9.16667C9.51973 9.16667 8.9974 8.64433 8.9974 8C8.9974 7.35567 9.51973 6.83333 10.1641 6.83333C10.8084 6.83333 11.3307 7.35567 11.3307 8Z" fill="#1D1C23" fill-opacity="0.35" style="fill:#1D1C23;fill:color(display-p3 0.1137 0.1098 0.1373);fill-opacity:0.35;"/>
<path d="M10.1663 14C10.8107 14 11.333 13.4777 11.333 12.8333C11.333 12.189 10.8107 11.6667 10.1663 11.6667C9.52201 11.6667 8.99967 12.189 8.99967 12.8333C8.99967 13.4777 9.52201 14 10.1663 14Z" fill="#1D1C23" fill-opacity="0.35" style="fill:#1D1C23;fill:color(display-p3 0.1137 0.1098 0.1373);fill-opacity:0.35;"/>
</svg>
