<svg width="16" height="16" viewBox="0 0 16 16" fill="none" xmlns="http://www.w3.org/2000/svg">
<path d="M2.88539 13.1558L2.67797 12.9299C1.9518 12.1389 1.40699 11.1955 1.0876 10.1652L0.997559 9.87475L2.36293 8.00002L0.997559 6.12529L1.0876 5.83484C1.40699 4.80455 1.9518 3.86115 2.67797 3.07019L2.88539 2.84426L5.17993 3.09506L6.11191 0.970504L6.41075 0.903226C6.92858 0.786644 7.46058 0.727295 7.99981 0.727295C8.53905 0.727295 9.07105 0.786644 9.58888 0.903226L9.88772 0.970504L10.8197 3.09506L13.1142 2.84426L13.3217 3.07019C14.0478 3.86115 14.5926 4.80455 14.912 5.83484L15.0021 6.12529L13.6367 8.00002L15.0021 9.87475L14.912 10.1652C14.5926 11.1955 14.0478 12.1389 13.3217 12.9299L13.1142 13.1558L10.8197 12.905L9.88772 15.0295L9.58888 15.0968C9.07105 15.2134 8.53905 15.2727 7.99981 15.2727C7.46058 15.2727 6.92858 15.2134 6.41075 15.0968L6.11191 15.0295L5.17993 12.905L2.88539 13.1558ZM5.20878 11.6825C5.63953 11.6354 6.051 11.8733 6.22507 12.2701L6.97203 13.9729C7.30893 14.0311 7.65234 14.0606 7.99982 14.0606C8.3473 14.0606 8.69071 14.0311 9.0276 13.9729L9.77456 12.2701C9.94863 11.8733 10.3601 11.6354 10.7908 11.6825L12.627 11.8831C13.0705 11.3494 13.4201 10.7428 13.6588 10.0892L12.5625 8.58403C12.309 8.23593 12.309 7.76404 12.5625 7.41594L13.6588 5.91073C13.4201 5.25712 13.0705 4.6506 12.627 4.11682L10.7908 4.31752C10.3601 4.3646 9.94863 4.12667 9.77456 3.72986L9.0276 2.02707C8.69071 1.96889 8.3473 1.93938 7.99982 1.93938C7.65234 1.93938 7.30893 1.96889 6.97203 2.02707L6.22507 3.72986C6.051 4.12667 5.63953 4.3646 5.20878 4.31752L3.37264 4.11682C2.92917 4.6506 2.57952 5.25712 2.34084 5.91073L3.43709 7.41594C3.69061 7.76404 3.69061 8.23593 3.43709 8.58403L2.34084 10.0892C2.57952 10.7428 2.92917 11.3494 3.37264 11.8831L5.20878 11.6825ZM7.99982 11.0303C6.33195 11.0303 4.98106 9.67296 4.98106 8.00002C4.98106 6.32707 6.33195 4.96971 7.99982 4.96971C9.66768 4.96971 11.0186 6.32707 11.0186 8.00002C11.0186 9.67296 9.66768 11.0303 7.99982 11.0303ZM7.99982 9.81824C8.99694 9.81824 9.80645 9.00486 9.80645 8.00006C9.80645 6.99526 8.99694 6.18188 7.99982 6.18188C7.00269 6.18188 6.19318 6.99526 6.19318 8.00006C6.19318 9.00486 7.00269 9.81824 7.99982 9.81824Z" fill="#1D1C23" fill-opacity="0.8" style="fill:#1D1C23;fill:color(display-p3 0.1137 0.1098 0.1373);fill-opacity:0.8;"/>
</svg>
