<svg width="16" height="16" viewBox="0 0 16 16" fill="none" xmlns="http://www.w3.org/2000/svg">
<path d="M8.64648 5.66821C8.94724 5.7942 9.23537 5.96449 9.50156 6.18005C11.0103 7.40179 11.2429 9.61528 10.0212 11.124L8.03024 13.5826C6.80849 15.0914 4.59501 15.324 3.08628 14.1023C1.57755 12.8805 1.3449 10.667 2.56665 9.15829L4.47085 6.8068L4.53154 7.3842C4.57422 7.7903 4.7134 8.1629 4.92388 8.48161L3.65936 10.0432C2.92632 10.9484 3.06591 12.2765 3.97114 13.0095C4.87638 13.7426 6.20447 13.603 6.93752 12.6978L8.92847 10.2391C9.66152 9.33391 9.52193 8.00581 8.61669 7.27276C8.33969 7.04845 8.02309 6.90585 7.69606 6.84189L8.64648 5.66821ZM7.5865 10.1007C7.28575 9.97469 6.99762 9.8044 6.73143 9.58885C5.2227 8.3671 4.99005 6.15361 6.2118 4.64488L8.20275 2.18627C9.42449 0.677535 11.638 0.444888 13.1467 1.66663C14.6554 2.88838 14.8881 5.10187 13.6663 6.6106L11.7621 8.9621L11.7014 8.38469C11.6588 7.97859 11.5196 7.60599 11.3091 7.28728L12.5736 5.72573C13.3067 4.82049 13.1671 3.4924 12.2618 2.75935C11.3566 2.02631 10.0285 2.16589 9.29547 3.07113L7.30452 5.52975C6.57147 6.43499 6.71106 7.76308 7.6163 8.49613C7.8933 8.72044 8.2099 8.86304 8.53693 8.927L7.5865 10.1007Z" fill="#1D1C23" fill-opacity="0.6" style="fill:#1D1C23;fill:color(display-p3 0.1137 0.1098 0.1373);fill-opacity:0.6;"/>
</svg>
