<svg width="16" height="16" viewBox="0 0 16 16" fill="none" xmlns="http://www.w3.org/2000/svg">
<g id="icon_more-round_outlined">
<path id="Union" fill-rule="evenodd" clip-rule="evenodd" d="M7.20081 7.61384L11.8081 3.00525L12.9874 4.18455L8.3801 8.79313C8.08664 9.0866 7.28402 9.05539 7.03561 9.03798C6.99145 9.03489 6.95836 9.00177 6.95532 8.95759C6.9382 8.7092 6.90784 7.90681 7.20081 7.61384ZM13.9342 3.2375L13.3805 3.7913L12.2012 2.61201L12.7549 2.05821C13.1063 1.70673 13.6553 1.6858 13.9809 2.01145C14.3066 2.3371 14.2856 2.88602 13.9342 3.2375ZM2.6663 4.01352C2.6663 3.82601 2.81831 3.674 3.00582 3.674L7.65138 3.674C8.0236 3.674 8.32535 3.37226 8.32535 3.00003C8.32535 2.62781 8.0236 2.32607 7.65138 2.32607L3.00582 2.32606C2.07386 2.32606 1.31836 3.08157 1.31836 4.01352V12.7997C1.31836 13.7317 2.07386 14.4872 3.00582 14.4872L11.792 14.4872C12.7228 14.4872 13.4795 13.7341 13.4795 12.801V8.15417C13.4795 7.78195 13.1777 7.4802 12.8055 7.4802C12.4333 7.4802 12.1315 7.78195 12.1315 8.15417V12.801C12.1315 12.9874 11.9807 13.1392 11.792 13.1392L3.00582 13.1392C2.81831 13.1392 2.6663 12.9872 2.6663 12.7997L2.6663 4.01352Z" fill="#1D1C23" fill-opacity="0.6" style="fill:#1D1C23;fill:color(display-p3 0.1137 0.1098 0.1373);fill-opacity:0.6;"/>
</g>
</svg>
