<svg width="16" height="16" viewBox="0 0 16 16" fill="none" xmlns="http://www.w3.org/2000/svg">
<path fill-rule="evenodd" clip-rule="evenodd" d="M1.97569 2.60938C1.73023 2.60938 1.53125 2.80836 1.53125 3.05382V3.66493C1.53125 3.91039 1.73023 4.10938 1.97569 4.10938H13.5868C13.8323 4.10938 14.0312 3.91039 14.0312 3.66493V3.05382C14.0312 2.80836 13.8323 2.60938 13.5868 2.60938H1.97569ZM1.97569 6.60938C1.73023 6.60938 1.53125 6.80836 1.53125 7.05382V7.66493C1.53125 7.91039 1.73023 8.10938 1.97569 8.10938H8.24375C8.52368 7.51188 8.94981 6.99656 9.47612 6.60938H1.97569ZM1.97569 10.6094H7.875V10.6136H9.28355C9.4908 10.6422 9.65243 10.8137 9.66577 11.0254L9.16006 11.3626C8.88551 11.5456 8.72418 11.8195 8.67606 12.1094H1.97569C1.73023 12.1094 1.53125 11.9104 1.53125 11.6649V11.0538C1.53125 10.8084 1.73023 10.6094 1.97569 10.6094ZM11.9564 5.98354C11.776 5.8633 11.5344 5.99259 11.5344 6.20937V6.80004C10.0127 6.93716 8.82031 8.21601 8.82031 9.77337H9.90595C9.90595 8.81625 10.6137 8.02444 11.5344 7.89275V8.45201C11.5344 8.66878 11.776 8.79808 11.9564 8.67784L13.6383 7.55651C13.7995 7.44908 13.7995 7.21229 13.6383 7.10486L11.9564 5.98354ZM14.7913 9.77337C14.7913 11.4222 13.4547 12.7589 11.8058 12.7589V13.3374C11.8058 13.5541 11.5642 13.6834 11.3839 13.5632L9.70187 12.4419C9.54072 12.3344 9.54072 12.0977 9.70187 11.9902L11.3839 10.8689C11.5642 10.7487 11.8058 10.878 11.8058 11.0947V11.6732C12.8551 11.6732 13.7057 10.8226 13.7057 9.77337H14.7913Z" fill="#1D1C23" fill-opacity="0.8" style="fill:#1D1C23;fill:color(display-p3 0.1137 0.1098 0.1373);fill-opacity:0.8;"/>
</svg>
