<svg width="17" height="17" viewBox="0 0 17 17" fill="none" xmlns="http://www.w3.org/2000/svg">
  <mask id="mask0_7760_565681" style="mask-type:alpha" maskUnits="userSpaceOnUse" x="-1" y="-1" width="18" height="18">
    <rect x="-1" y="-1" width="18" height="18" fill="#D9D9D9" />
  </mask>
  <g mask="url(#mask0_7760_565681)">
    <path
      d="M1.25 6.5V2H2.75V3.7625C3.3875 2.9625 4.16563 2.34375 5.08438 1.90625C6.00313 1.46875 6.975 1.25 8 1.25C9.875 1.25 11.4688 1.90625 12.7812 3.21875C14.0938 4.53125 14.75 6.125 14.75 8H13.25C13.25 6.5375 12.7406 5.29688 11.7219 4.27812C10.7031 3.25937 9.4625 2.75 8 2.75C7.1375 2.75 6.33125 2.95 5.58125 3.35C4.83125 3.75 4.2 4.3 3.6875 5H5.75V6.5H1.25ZM1.2875 8.75H2.825C2.975 9.9125 3.45313 10.8969 4.25938 11.7031C5.06563 12.5094 6.03125 13 7.15625 13.175L8.05625 14.75C6.33125 14.75 4.81875 14.1781 3.51875 13.0344C2.21875 11.8906 1.475 10.4625 1.2875 8.75ZM9.0125 10.0625L7.25 8.3V4.25H8.75V7.7L9.8 8.75L9.0125 10.0625ZM12.4813 17L12.2563 15.875C12.1062 15.8125 11.9656 15.7469 11.8344 15.6781C11.7031 15.6094 11.5687 15.525 11.4312 15.425L10.3438 15.7625L9.59375 14.4875L10.4563 13.7375C10.4313 13.575 10.4188 13.4125 10.4188 13.25C10.4188 13.0875 10.4313 12.925 10.4563 12.7625L9.59375 12.0125L10.3438 10.7375L11.4312 11.075C11.5687 10.975 11.7031 10.8906 11.8344 10.8219C11.9656 10.7531 12.1062 10.6875 12.2563 10.625L12.4813 9.5H13.9813L14.2062 10.625C14.3562 10.6875 14.5 10.7594 14.6375 10.8406C14.775 10.9219 14.9062 11.0125 15.0312 11.1125L16.1188 10.7375L16.8688 12.05L16.0063 12.8C16.0313 12.9625 16.0438 13.1187 16.0438 13.2687C16.0438 13.4187 16.0313 13.575 16.0063 13.7375L16.8688 14.4875L16.1188 15.7625L15.0312 15.425C14.8938 15.525 14.7594 15.6094 14.6281 15.6781C14.4969 15.7469 14.3562 15.8125 14.2062 15.875L13.9813 17H12.4813ZM13.2313 14.75C13.6438 14.75 13.9969 14.6031 14.2906 14.3094C14.5844 14.0156 14.7313 13.6625 14.7313 13.25C14.7313 12.8375 14.5844 12.4844 14.2906 12.1906C13.9969 11.8969 13.6438 11.75 13.2313 11.75C12.8188 11.75 12.4656 11.8969 12.1719 12.1906C11.8781 12.4844 11.7313 12.8375 11.7313 13.25C11.7313 13.6625 11.8781 14.0156 12.1719 14.3094C12.4656 14.6031 12.8188 14.75 13.2313 14.75Z"
      fill="#4A494F" />
  </g>
</svg>
