<svg width="16" height="16" viewBox="0 0 16 16" fill="none" xmlns="http://www.w3.org/2000/svg">
<g id="icon_forward-15s_outlined">
<path id="Union" fill-rule="evenodd" clip-rule="evenodd" d="M1.55932 4.11153C1.46341 4.3313 1.62843 4.5825 1.86821 4.58175L5.02806 4.57182C5.28657 4.57101 5.43582 4.28219 5.29137 4.06229L4.66018 3.10143C7.1712 1.45192 10.544 2.15032 12.1935 4.66135C12.7234 5.46804 13.011 6.36366 13.074 7.26252C13.1204 7.27562 13.1664 7.2894 13.2119 7.30381C13.627 7.43551 14.0086 7.61156 14.4029 7.85383C14.445 6.51206 14.0887 5.14452 13.2957 3.9373C11.2463 0.817542 7.05589 -0.0501677 3.93613 1.99922L3.39544 1.17614C3.25099 0.956237 2.92665 0.978522 2.82325 1.21545L1.55932 4.11153ZM8.06489 14.3949C5.72553 14.5376 3.37707 13.4581 1.99804 11.3588C1.30194 10.2991 0.941886 9.11401 0.893276 7.93145C0.87832 7.56759 1.16116 7.2605 1.52501 7.24554C1.88887 7.23059 2.19596 7.51343 2.21092 7.87728C2.24999 8.82782 2.53892 9.78023 3.10026 10.6347C4.11211 12.1751 5.77242 13.0333 7.48448 13.0859C7.61082 13.5503 7.80684 13.9915 8.06489 14.3949ZM9.39175 14.1122C9.05588 13.7176 8.81182 13.2533 8.67708 12.7529L9.10808 12.1606C9.29242 11.9072 9.29242 11.5639 9.10808 11.3106L8.71742 10.7739C8.88242 10.2492 9.16855 9.77055 9.55275 9.37689L10.1718 9.44455C10.3246 9.46129 10.4788 9.42882 10.6119 9.35182C10.745 9.27489 10.8501 9.15742 10.9118 9.01655L11.1638 8.44122C11.4442 8.36915 11.7326 8.33275 12.0221 8.33289C12.2848 8.33289 12.5408 8.36255 12.7868 8.41822L13.0491 9.01655C13.1108 9.15742 13.2158 9.27489 13.349 9.35182C13.482 9.42882 13.6362 9.46129 13.7891 9.44455L14.4834 9.36855C14.8519 9.74369 15.1312 10.1969 15.3008 10.6946L14.8524 11.3109C14.7626 11.4344 14.7142 11.5831 14.7142 11.7357C14.7142 11.8884 14.7626 12.0371 14.8524 12.1606L15.3438 12.8359C15.204 13.3085 14.966 13.7462 14.6454 14.1206L13.7888 14.0269C13.6359 14.0102 13.4817 14.0426 13.3486 14.1196C13.2155 14.1966 13.1105 14.314 13.0487 14.4549L12.6927 15.2676C12.2188 15.3614 11.7303 15.3546 11.2591 15.2476L10.9114 14.4549C10.8498 14.314 10.7447 14.1966 10.6116 14.1196C10.4785 14.0426 10.3243 14.0102 10.1714 14.0269L9.39175 14.1122ZM12.0094 13.2331C12.7826 13.2331 13.4094 12.6063 13.4094 11.8331C13.4094 11.0599 12.7826 10.4331 12.0094 10.4331C11.2362 10.4331 10.6094 11.0599 10.6094 11.8331C10.6094 12.6063 11.2362 13.2331 12.0094 13.2331ZM8.67173 4.7461C8.67173 4.58025 8.53497 4.4458 8.36628 4.4458H7.63322C7.46452 4.4458 7.32777 4.58025 7.32777 4.7461V7.38874H5.25076C5.08206 7.38874 4.94531 7.52319 4.94531 7.68904V8.40977C4.94531 8.57562 5.08206 8.71006 5.25076 8.71006H8.36628C8.53497 8.71006 8.67173 8.57562 8.67173 8.40977V4.7461Z" fill="#1D1C23" fill-opacity="0.6" style="fill:#1D1C23;fill:color(display-p3 0.1137 0.1098 0.1373);fill-opacity:0.6;"/>
</g>
</svg>
