<svg width="16" height="16" viewBox="0 0 16 16" fill="none" xmlns="http://www.w3.org/2000/svg">
<path d="M6.61979 2.84841C7.75384 2.54454 8.95646 2.62337 10.0411 3.07265C11.0036 3.47132 11.8255 4.14191 12.4086 4.99832L10.3352 4.99832C9.967 4.99832 9.66852 5.2968 9.66852 5.66499C9.66852 6.03318 9.967 6.33165 10.3352 6.33165L13.9995 6.33165C14.2264 6.33165 14.4275 6.21832 14.5479 6.04518C14.6229 5.93734 14.6668 5.8063 14.6668 5.66499V2.00001C14.6668 1.63182 14.3684 1.33335 14.0002 1.33335C13.632 1.33335 13.3335 1.63182 13.3335 2.00001V4C12.6194 3.04781 11.66 2.30001 10.5514 1.84082C9.19553 1.2792 7.69226 1.18067 6.2747 1.56051C4.85715 1.94034 3.60453 2.77731 2.71114 3.9416C1.81775 5.1059 1.3335 6.53245 1.3335 8.00001C1.3335 9.46758 1.81775 10.8941 2.71114 12.0584C3.60454 13.2227 4.85715 14.0597 6.2747 14.4395C7.69226 14.8194 9.19554 14.7208 10.5514 14.1592C11.9072 13.5976 13.0399 12.6043 13.7737 11.3333C13.9578 11.0145 13.8485 10.6068 13.5296 10.4227C13.2108 10.2386 12.8031 10.3478 12.619 10.6667C12.0319 11.6834 11.1258 12.4781 10.0411 12.9274C8.95646 13.3767 7.75384 13.4555 6.61979 13.1516C5.48575 12.8478 4.48366 12.1782 3.76895 11.2467C3.05423 10.3153 2.66683 9.17406 2.66683 8.00001C2.66683 6.82596 3.05423 5.68472 3.76894 4.75329C4.48366 3.82185 5.48575 3.15227 6.61979 2.84841Z" fill="#1D1C23" fill-opacity="0.6" style="fill:#1D1C23;fill:color(display-p3 0.1137 0.1098 0.1373);fill-opacity:0.6;"/>
</svg>
