<svg width="240" height="241" viewBox="0 0 240 241" fill="none" xmlns="http://www.w3.org/2000/svg">
  <rect y="0.648926" width="240" height="240" fill="#FFB233"
    style="fill:#FFB233;fill:color(display-p3 1.0000 0.6980 0.2000);fill-opacity:1;" />
  <path fill-rule="evenodd" clip-rule="evenodd"
    d="M78.5527 68.1489C72.4485 68.1489 67.5 73.0974 67.5 79.2016V162.097C67.5 168.201 72.4485 173.15 78.5527 173.15H161.448C167.552 173.15 172.501 168.201 172.501 162.097V79.2016C172.501 73.0974 167.552 68.1489 161.448 68.1489H78.5527ZM96.0781 101.112C96.0781 96.0761 100.161 91.9937 105.197 91.9937C110.233 91.9937 114.315 96.0761 114.315 101.112C114.315 106.148 110.233 110.231 105.197 110.231C100.161 110.231 96.0781 106.148 96.0781 101.112ZM148.42 108.534C148.42 106.862 146.412 106.009 145.21 107.171L117.921 133.512L110.901 126.674C110.165 125.958 108.993 125.958 108.257 126.674L88.6019 145.819C87.384 147.005 88.2239 149.071 89.924 149.071H126.205L126.241 149.071L146.526 149.071C147.572 149.071 148.42 148.223 148.42 147.176L148.42 108.534Z"
    fill="white" style="fill:white;fill-opacity:1;" />
</svg>
