<svg width="240" height="241" viewBox="0 0 240 241" fill="none" xmlns="http://www.w3.org/2000/svg">
  <rect y="0.648926" width="240" height="240" fill="#35C566"
    style="fill:#35C566;fill:color(display-p3 0.2078 0.7725 0.4000);fill-opacity:1;" />
  <path fill-rule="evenodd" clip-rule="evenodd"
    d="M75.1655 68.1499C73.6977 68.1499 72.5078 69.3398 72.5078 70.8076V148.444C72.5078 154.996 75.2129 161.28 80.028 165.914C84.8432 170.547 91.3739 173.15 98.1835 173.15H164.85C166.318 173.15 167.508 171.96 167.508 170.492V92.8558C167.508 86.3034 164.803 80.0193 159.988 75.3861C155.172 70.7528 148.642 68.1499 141.832 68.1499H75.1655ZM134.34 94.3999H93.7715V134.968C93.7715 141.558 99.1135 146.9 105.703 146.9H146.271V106.332C146.271 99.742 140.929 94.3999 134.34 94.3999ZM123.405 117.07V101.559H134.34C136.976 101.559 139.112 103.696 139.112 106.332V117.07H123.405ZM100.931 101.559H116.245V117.07H100.931V101.559ZM100.931 134.968V124.23H116.245V139.741H105.703C103.067 139.741 100.931 137.604 100.931 134.968ZM139.112 139.741H123.405V124.23H139.112V139.741Z"
    fill="white" style="fill:white;fill-opacity:1;" />
</svg>
