<svg width="15" height="14" viewBox="0 0 15 14" fill="none" xmlns="http://www.w3.org/2000/svg">
<g id="coz_chat">
<g id="Union">
<path d="M5.24283 5.83325C5.24283 5.51109 5.504 5.24992 5.82617 5.24992H9.9095C10.2317 5.24992 10.4928 5.51109 10.4928 5.83325C10.4928 6.15542 10.2317 6.41659 9.9095 6.41659H5.82617C5.504 6.41659 5.24283 6.15542 5.24283 5.83325Z" fill="#5147FF"/>
<path d="M5.82617 7.58325C5.504 7.58325 5.24283 7.84442 5.24283 8.16659C5.24283 8.48875 5.504 8.74992 5.82617 8.74992H8.1595C8.48167 8.74992 8.74283 8.48875 8.74283 8.16659C8.74283 7.84442 8.48167 7.58325 8.1595 7.58325H5.82617Z" fill="#5147FF"/>
<path fill-rule="evenodd" clip-rule="evenodd" d="M13.9928 6.99992C13.9928 10.5437 11.12 13.4166 7.57617 13.4166H3.27002C2.83638 13.4166 2.55434 12.9602 2.74827 12.5724L3.19186 11.6852C1.94111 10.5143 1.1595 8.84839 1.1595 6.99992C1.1595 3.45609 4.03234 0.583252 7.57617 0.583252C11.12 0.583252 13.9928 3.45609 13.9928 6.99992ZM4.62464 11.4284L4.21387 12.2499H7.57617C10.4757 12.2499 12.8262 9.89941 12.8262 6.99992C12.8262 4.10042 10.4757 1.74992 7.57617 1.74992C4.67667 1.74992 2.32617 4.10042 2.32617 6.99992C2.32617 8.51237 2.96421 9.87396 3.98918 10.8335L4.62464 11.4284Z" fill="#5147FF"/>
</g>
</g>
</svg>
