<svg width="15" height="14" viewBox="0 0 15 14" fill="none" xmlns="http://www.w3.org/2000/svg">
<g id="Component 2">
<g id="Union">
<path d="M1.47082 1.39238C1.72422 1.27387 1.92817 1.06992 2.04668 0.816521C2.05886 0.790463 2.07015 0.763881 2.08049 0.736816C2.08663 0.720755 2.09243 0.704523 2.0979 0.688128L2.25921 0.204192C2.34996 -0.0680642 2.73506 -0.0680639 2.82581 0.204192L2.98712 0.688129C2.99259 0.704523 2.99839 0.720755 3.00453 0.736816C3.01487 0.763881 3.02615 0.790463 3.03834 0.816521C3.15685 1.06992 3.3608 1.27387 3.6142 1.39238C3.64026 1.40457 3.66684 1.41585 3.6939 1.42619C3.70997 1.43233 3.7262 1.43813 3.74259 1.4436L4.22653 1.60491C4.49878 1.69566 4.49878 2.08076 4.22653 2.17151L3.74259 2.33283C3.7262 2.33829 3.70997 2.3441 3.6939 2.35023C3.66684 2.36057 3.64026 2.37186 3.6142 2.38404C3.40047 2.484 3.22192 2.64474 3.10015 2.84466C3.07754 2.88177 3.05689 2.92023 3.03834 2.9599C3.02615 2.98596 3.01487 3.01254 3.00453 3.03961C2.99839 3.05567 2.99259 3.0719 2.98712 3.08829L2.82581 3.57223C2.78611 3.69134 2.69006 3.75834 2.58698 3.77323C2.45444 3.79238 2.31026 3.72538 2.25921 3.57223L2.0979 3.08829C2.09243 3.0719 2.08662 3.05567 2.08049 3.03961C2.07015 3.01254 2.05886 2.98596 2.04668 2.9599C1.92816 2.7065 1.72422 2.50256 1.47082 2.38404C1.44476 2.37186 1.41818 2.36057 1.39111 2.35023C1.37505 2.3441 1.35882 2.33829 1.34243 2.33282L0.858488 2.17151C0.586233 2.08076 0.586233 1.69566 0.858489 1.60491L1.34243 1.4436C1.35882 1.43813 1.37505 1.43233 1.39111 1.42619C1.41818 1.41585 1.44476 1.40457 1.47082 1.39238Z" fill="#4E40E5"/>
<path d="M11.6944 11.616C11.9478 11.4974 12.1517 11.2935 12.2702 11.0401C12.2824 11.014 12.2937 10.9875 12.3041 10.9604C12.3102 10.9443 12.316 10.9281 12.3215 10.9117L12.4828 10.4278C12.5735 10.1555 12.9586 10.1555 13.0494 10.4278L13.2107 10.9117C13.2162 10.9281 13.222 10.9443 13.2281 10.9604C13.2384 10.9875 13.2497 11.014 13.2619 11.0401C13.3804 11.2935 13.5844 11.4974 13.8378 11.616C13.8638 11.6281 13.8904 11.6394 13.9175 11.6498C13.9335 11.6559 13.9498 11.6617 13.9662 11.6672L14.4501 11.8285C14.7224 11.9192 14.7224 12.3043 14.4501 12.3951L13.9662 12.5564C13.9498 12.5619 13.9335 12.5677 13.9175 12.5738C13.8904 12.5841 13.8638 12.5954 13.8378 12.6076C13.624 12.7076 13.4455 12.8683 13.3237 13.0682C13.3011 13.1053 13.2805 13.1438 13.2619 13.1835C13.2497 13.2095 13.2384 13.2361 13.2281 13.2632C13.222 13.2792 13.2162 13.2955 13.2107 13.3119L13.0494 13.7958C13.0097 13.9149 12.9136 13.9819 12.8105 13.9968C12.678 14.0159 12.5338 13.9489 12.4828 13.7958L12.3215 13.3119C12.316 13.2955 12.3102 13.2792 12.3041 13.2632C12.2937 13.2361 12.2824 13.2095 12.2702 13.1835C12.1517 12.9301 11.9478 12.7261 11.6944 12.6076C11.6683 12.5954 11.6417 12.5841 11.6147 12.5738C11.5986 12.5677 11.5824 12.5619 11.566 12.5564L11.0821 12.3951C10.8098 12.3043 10.8098 11.9192 11.0821 11.8285L11.566 11.6672C11.5824 11.6617 11.5986 11.6559 11.6147 11.6498C11.6417 11.6394 11.6683 11.6281 11.6944 11.616Z" fill="#4E40E5"/>
<path d="M2.54396 4.39184C2.36112 4.39184 2.18523 4.33824 2.03515 4.23662C1.95199 4.18032 1.88005 4.1116 1.82096 4.03265V11.6667C1.82096 12.3083 2.34596 12.8333 2.98763 12.8333H10.6203C10.5422 12.7745 10.4743 12.7031 10.4186 12.6208C10.3171 12.4708 10.2633 12.2949 10.2633 12.1119C10.2633 11.9542 10.3032 11.8018 10.3792 11.6667H2.98763V4.27615C2.98011 4.28037 2.97254 4.28448 2.96492 4.28847C2.83574 4.3562 2.69174 4.39168 2.54306 4.39168L2.54396 4.39184Z" fill="#4E40E5"/>
<path d="M13.4876 2.33333V9.96567C13.347 9.77914 13.1375 9.65251 12.8977 9.61784C12.8545 9.61165 12.8104 9.60848 12.7667 9.60848C12.6088 9.60848 12.4562 9.64838 12.321 9.7245V2.33333H4.93076C5.00684 2.19813 5.04667 2.04568 5.04667 1.88807C5.04667 1.70508 4.99307 1.52919 4.89161 1.37926C4.83597 1.29697 4.7681 1.22563 4.69018 1.16688L12.321 1.16667C12.9626 1.16667 13.4876 1.69167 13.4876 2.33333Z" fill="#4E40E5"/>
<path d="M6.56987 10.4932L4.07594 10.4872C3.97929 10.487 3.90113 10.4084 3.90136 10.3118C3.90147 10.2655 3.9199 10.2212 3.95262 10.1884L6.36342 7.77765C6.45454 7.68652 6.60228 7.68652 6.6934 7.77765L7.80586 8.89011L10.756 5.94C10.8471 5.84888 10.9948 5.84888 11.086 5.94C11.1297 5.98376 11.1543 6.04311 11.1543 6.10499V10.325C11.1543 10.4217 11.0759 10.5 10.9793 10.5H6.61845C6.6016 10.5 6.5853 10.4976 6.56987 10.4932Z" fill="#4E40E5"/>
<path d="M4.1543 3.5H5.9043V5.25H4.1543V3.5Z" fill="#4E40E5"/>
</g>
</g>
</svg>
