<svg width="15" height="14" viewBox="0 0 15 14" fill="none" xmlns="http://www.w3.org/2000/svg">
<g id="Component 2">
<g id="Union">
<path d="M11.7377 5.08875V10.3246C11.7377 10.4212 11.6594 10.4996 11.5627 10.4996H8.39925L8.39859 10.4996H3.41023C3.25433 10.4996 3.17625 10.3111 3.28649 10.2008L5.78067 7.70667C5.84901 7.63833 5.95982 7.63833 6.02816 7.70667L7.36272 9.04124L11.439 4.965C11.5492 4.85476 11.7377 4.93284 11.7377 5.08875Z" fill="#4E40E5"/>
<path d="M4.73779 5.83293C5.38213 5.83293 5.90446 5.31059 5.90446 4.66626C5.90446 4.02193 5.38213 3.49959 4.73779 3.49959C4.09346 3.49959 3.57113 4.02193 3.57113 4.66626C3.57113 5.31059 4.09346 5.83293 4.73779 5.83293Z" fill="#4E40E5"/>
<path fill-rule="evenodd" clip-rule="evenodd" d="M1.23779 2.33293C1.23779 1.69126 1.76279 1.16626 2.40446 1.16626H12.9045C13.5461 1.16626 14.0711 1.69126 14.0711 2.33293V11.6663C14.0711 12.3079 13.5461 12.8329 12.9045 12.8329H2.40446C1.76279 12.8329 1.23779 12.3079 1.23779 11.6663V2.33293ZM12.9045 2.33293H2.40446V11.6663H12.9045V2.33293Z" fill="#4E40E5"/>
</g>
</g>
</svg>
