<svg width="15" height="14" viewBox="0 0 15 14" fill="none" xmlns="http://www.w3.org/2000/svg">
<g id="Component 2">
<path id="Union" fill-rule="evenodd" clip-rule="evenodd" d="M6.90598 0.696144C7.36911 0.428759 7.9397 0.428759 8.40282 0.696144L12.7393 3.19983C13.2025 3.46722 13.4878 3.96136 13.4878 4.49613V9.50351C13.4878 10.0383 13.2025 10.5324 12.7393 10.7998L8.40282 13.3035C7.9397 13.5709 7.3691 13.5709 6.90598 13.3035L2.56946 10.7998C2.10634 10.5324 1.82104 10.0383 1.82104 9.50351V4.49613C1.82104 3.96136 2.10634 3.46722 2.56946 3.19983L6.90598 0.696144ZM11.9063 4.06604L7.81949 1.70651C7.71733 1.64753 7.59147 1.64753 7.48931 1.70651L3.40043 4.06722L7.65235 6.52207L11.9063 4.06604ZM2.98771 5.17609V9.50351C2.98771 9.62147 3.05064 9.73047 3.1528 9.78945L7.06901 12.0505V7.53243L2.98771 5.17609ZM8.23568 12.0528L12.156 9.78945C12.2582 9.73047 12.3211 9.62147 12.3211 9.50351V5.17372L8.23568 7.53243V12.0528Z" fill="#4E40E5"/>
</g>
</svg>
