<svg width="15" height="14" viewBox="0 0 15 14" fill="none" xmlns="http://www.w3.org/2000/svg">
<g id="Component 2">
<path id="Union" d="M1.82104 2.33342C1.82104 1.68908 2.34338 1.16675 2.98771 1.16675H12.321C12.9654 1.16675 13.4877 1.68908 13.4877 2.33341V11.6667C13.4877 12.3111 12.9654 12.8334 12.321 12.8334H2.98771C2.34338 12.8334 1.82104 12.3111 1.82104 11.6667V2.33342ZM6.19605 2.33341V4.66675L12.321 4.66675V2.33341H6.19605ZM6.19605 5.83341V8.16675L12.321 8.16675V5.83342L6.19605 5.83341ZM5.02938 8.16675V5.83341H2.98771V8.16675H5.02938ZM2.98771 9.33342V11.6667H5.02938V9.33342H2.98771ZM6.19605 9.33342V11.6667H12.321V9.33342H6.19605ZM5.02938 2.33341H2.98771V4.66675L5.02938 4.66675V2.33341Z" fill="#4E40E5"/>
</g>
</svg>
