<svg width="15" height="14" viewBox="0 0 15 14" fill="none" xmlns="http://www.w3.org/2000/svg">
<g id="Component 2">
<g id="Union">
<path d="M4.73763 4.9585C4.73763 4.63633 4.9988 4.37516 5.32096 4.37516H7.6543C7.97646 4.37516 8.23763 4.63633 8.23763 4.9585C8.23763 5.28066 7.97646 5.54183 7.6543 5.54183H5.32096C4.9988 5.54183 4.73763 5.28066 4.73763 4.9585Z" fill="#4E40E5"/>
<path d="M4.73763 7.29183C4.73763 6.96966 4.9988 6.7085 5.32096 6.7085H9.98763C10.3098 6.7085 10.571 6.96966 10.571 7.29183C10.571 7.614 10.3098 7.87516 9.98763 7.87516H5.32096C4.9988 7.87516 4.73763 7.614 4.73763 7.29183Z" fill="#4E40E5"/>
<path d="M4.73763 9.62516C4.73763 9.303 4.9988 9.04183 5.32096 9.04183H9.98763C10.3098 9.04183 10.571 9.303 10.571 9.62516C10.571 9.94733 10.3098 10.2085 9.98763 10.2085H5.32096C4.9988 10.2085 4.73763 9.94733 4.73763 9.62516Z" fill="#4E40E5"/>
<path d="M2.4043 1.75016C2.4043 1.10583 2.92663 0.583496 3.57096 0.583496H11.7376C12.382 0.583496 12.9043 1.10583 12.9043 1.75016V12.2502C12.9043 12.8945 12.382 13.4168 11.7376 13.4168H3.57096C2.92663 13.4168 2.4043 12.8945 2.4043 12.2502V1.75016ZM3.57096 1.75016V12.2502H11.7376V1.75016H3.57096Z" fill="#4E40E5"/>
</g>
</g>
</svg>
