<svg width="15" height="14" viewBox="0 0 15 14" fill="none" xmlns="http://www.w3.org/2000/svg">
<g id="Component 2">
<path id="Union" fill-rule="evenodd" clip-rule="evenodd" d="M9.06505 5.38087C9.27846 5.65615 9.61235 5.83333 9.98763 5.83333H12.6126C13.257 5.83333 13.7793 5.311 13.7793 4.66667V2.04167C13.7793 1.39733 13.257 0.875 12.6126 0.875H9.98763C9.3433 0.875 8.82096 1.39733 8.82096 2.04167V4.19269L8.80691 4.16985L6.48763 5.5971V5.25C6.48763 4.60567 5.9653 4.08333 5.32096 4.08333L2.69596 4.08333C2.05163 4.08333 1.5293 4.60567 1.5293 5.25V8.75C1.5293 9.39433 2.05163 9.91667 2.69596 9.91667H5.32096C5.9653 9.91667 6.48763 9.39433 6.48763 8.75V8.36035L8.82096 9.72859V11.9583C8.82096 12.6027 9.3433 13.125 9.98763 13.125H12.6126C13.257 13.125 13.7793 12.6027 13.7793 11.9583V9.33333C13.7793 8.689 13.257 8.16667 12.6126 8.16667H9.98763C9.64375 8.16667 9.33463 8.31544 9.12111 8.55214L6.48763 7.00789V6.96697L9.06505 5.38087ZM9.98763 2.04167V4.66667H12.6126V2.04167H9.98763ZM9.98763 9.33333V11.9583H12.6126V9.33333H9.98763ZM2.69596 8.75L2.69596 5.25L5.32096 5.25L5.32096 8.75H2.69596Z" fill="#4E40E5"/>
</g>
</svg>
