<svg width="160" height="160" viewBox="0 0 160 160" fill="none" xmlns="http://www.w3.org/2000/svg">
<g id="SVG" clip-path="url(#clip0_8929_585468)">
<path id="Vector" fill-rule="evenodd" clip-rule="evenodd" d="M57.9982 24.6112C63.1409 22.2437 68.8652 20.9233 74.8979 20.9233C92.186 20.9233 106.941 31.7663 112.734 47.0225C114.331 46.7315 115.977 46.5795 117.658 46.5795C132.736 46.5795 144.959 58.8025 144.959 73.8803C144.959 78.4066 143.858 82.6756 141.908 86.434C151.386 91.1884 157.892 100.996 157.892 112.322C157.892 128.308 144.932 141.267 128.946 141.267C128.565 141.267 128.187 141.26 127.81 141.245C117.924 152.267 103.572 159.2 87.6004 159.2C63.4581 159.2 43.0162 143.357 36.1042 121.501C36.0531 121.501 36.002 121.501 35.9508 121.501C17.4214 121.501 2.40039 106.48 2.40039 87.9508C2.40039 78.1783 6.57868 69.3815 13.2462 63.2497C10.921 58.9647 9.60039 54.0552 9.60039 48.8374C9.60039 32.1246 23.1488 18.5762 39.8615 18.5762C46.665 18.5762 52.9441 20.8214 57.9982 24.6112Z" fill="#F3F3F6"/>
<path id="Vector_2" d="M25.6007 30.9761C28.1607 24.5761 31.8673 21.2428 34.0007 19.7761C35.0542 18.9761 45.2007 10.5761 66.8007 8.97612C88.7439 7.35062 92.0007 17.3761 92.8007 23.3761C93.6007 29.3761 84.4007 40.5761 81.6007 42.1761C84.4007 44.5761 100.001 61.3761 104.001 66.5761C108.001 71.7761 134.001 89.7763 134.401 93.3763C136.801 91.7763 137.601 92.5763 138.401 94.9763C138.801 92.5763 142.001 92.1763 142.401 94.9763C146.401 90.5763 146.401 93.3763 147.201 94.9763C149.601 92.1763 152.401 96.5763 149.601 100.576C146.801 104.576 147.201 109.776 147.201 112.576C147.201 115.376 146.401 126.176 140.401 126.976C135.601 127.616 131.734 125.109 130.401 123.776C129.601 123.243 127.441 121.296 125.201 117.776C122.401 113.376 111.601 99.3763 101.601 89.7763C91.6007 80.1763 86.0007 76.9761 88.0007 82.1763C90.0007 87.3763 108.001 109.376 109.601 111.376C111.201 110.416 112.134 111.776 112.401 112.576C112.801 110.709 114.241 107.456 116.801 109.376C119.361 111.296 117.601 114.976 116.401 116.576C116.267 118.843 116.081 123.776 116.401 125.376C116.801 127.376 120.001 132.976 116.401 136.176C113.521 138.736 101.601 138.843 96.0007 138.576C92.8007 132.709 86.1607 120.576 85.2007 118.976C84.0007 116.976 74.8007 103.776 70.8007 99.3763C67.6007 95.8563 59.6007 81.9091 56.0007 75.3761C55.6007 75.9094 54.7207 77.3761 54.4007 78.9761C54.0007 80.9763 50.4007 90.1763 36.4007 89.7763C22.4007 89.3763 16.8007 80.1763 15.2007 68.1761C13.6007 56.1761 24.8007 46.5761 27.2007 44.1761C26.8807 42.5761 27.0673 40.0428 27.2007 38.9761C26.6673 40.0428 25.4407 42.1761 24.8007 42.1761C24.0007 42.1761 22.4007 38.9761 25.6007 30.9761Z" fill="white"/>
<path id="Vector_3" d="M37.2982 60.2794C29.4389 51.5468 22.1375 52.0319 19.4692 53.3661C21.6524 47.9083 36.2067 36.9926 41.3007 35.5371C45.3956 34.3671 52.2164 32.2624 54.3995 29.7154C56.5827 27.1684 63.8598 22.4383 70.0453 19.8912C78.0502 17.7081 84.9633 20.2551 91.5129 28.6239C87.8745 38.0841 83.5081 40.6311 81.6889 42.4504C83.8721 43.5419 91.1489 50.8191 98.4265 60.2794C73.32 57.0047 60.5851 85.7494 59.8573 83.2022C59.1296 80.6558 55.8549 77.0168 55.8549 75.1975C55.8549 73.3783 58.402 70.4674 62.0405 66.1011C65.6791 61.7348 71.5008 60.2794 73.32 59.5517C75.1393 58.8239 76.5948 58.4601 76.9586 57.0047C77.2497 55.8403 75.7458 55.3067 74.7755 55.1854C75.6245 55.0641 77.3225 54.3849 77.3225 52.6384C77.3225 50.9354 75.362 51.4004 74.4773 51.5371C74.4524 51.5435 74.4303 51.5468 74.4116 51.5468C74.4328 51.5438 74.4547 51.5405 74.4773 51.5371C74.9384 51.4171 76.391 50.2079 75.8671 48.6359C75.5032 47.5444 73.9265 47.4231 72.9562 47.5444C73.5626 47.3019 74.3388 46.0162 74.0478 44.2697C73.7567 42.5231 70.8944 42.2078 69.3176 42.4504C70.6518 41.6014 72.3012 39.6851 69.6815 38.8119C66.4068 37.7203 57.6059 40.7475 49.6693 46.8167C43.4838 51.5468 40.6942 56.3983 40.2091 58.8239C39.724 58.4601 38.4625 58.2418 37.2982 60.2794Z" fill="#D0D2FB"/>
<path id="Vector_4" d="M90.4006 16.1758H42.8006L36.8006 18.1758L33.6006 20.5758L57.2006 24.9758L70.4006 19.7758C70.4006 19.7758 78.0006 17.7758 84.0006 21.7758C90.0006 25.7758 91.6006 28.5758 91.6006 28.5758L92.8006 23.7758L90.4006 16.1758Z" fill="white"/>
<path id="Vector_5" d="M61.9151 23.8799C58.5938 25.7416 55.1842 28.189 53.1715 31.2692C49.9859 31.7779 45.7011 33.1764 41.1265 35.3955C38.8251 39.715 38.1155 44.8984 36.8544 44.395C36.2992 44.1733 36.1715 42.9561 36.2313 41.5646C35.4012 45.2436 34.1925 48.1687 33.3936 45.7767C32.9864 44.5575 33.2712 42.0103 33.6843 39.635C33.6394 39.6647 33.5945 39.6944 33.5496 39.7243C32.7686 44.6538 32.1853 50.1894 30.6249 45.7767C30.2372 44.6802 30.1029 43.4392 30.1273 42.1684C29.8343 42.3932 29.5429 42.6213 29.253 42.8525C28.7632 45.1409 28.2702 46.3673 27.5101 44.395C27.5011 44.3715 27.4922 44.3479 27.4834 44.324C24.318 47.0678 21.4223 50.209 19.1072 53.7212C10.4551 66.847 17.4737 83.9312 27.5101 88.076C37.5465 92.2208 51.3899 89.2992 54.5046 78.9365C54.7557 78.1014 55.0313 77.2956 55.3288 76.5186C55.4944 76.0859 55.6667 75.6621 55.8453 75.2473C59.3237 67.1657 65.1489 62.4853 69.3862 60.9749C74.2313 59.2478 79.0765 57.5208 75.9618 55.7936C75.5047 55.5402 74.9881 55.4058 74.4358 55.3631C73.4429 55.8376 72.2135 56.3999 70.7705 57.1753C66.2714 59.5932 64.8871 59.2478 65.9254 58.557C66.8113 57.9676 71.2247 55.1148 74.4358 55.3631C76.5388 54.3582 77.5812 53.7473 77.3461 52.3396C77.2168 51.5651 76.0242 51.2729 74.4366 51.319C73.0839 52.3038 71.123 53.1264 69.7323 53.7212C67.3097 54.7574 63.5028 55.7936 66.2715 53.7212C68.0055 52.4232 71.7758 51.3961 74.4366 51.319C75.4404 50.5882 76.1092 49.7681 75.9618 48.8854C75.7901 47.8568 74.6808 47.2537 73.0992 47.1181C71.5403 48.7444 68.6445 50.119 65.9254 50.6124C62.1185 51.3032 63.1567 49.9216 67.3097 48.1945C69.4017 47.3245 71.4938 46.9804 73.0992 47.1181C73.7228 46.4676 74.1325 45.7767 74.2313 45.0858C74.4901 43.2782 72.6211 42.2428 69.2029 42.5569C67.5201 44.0911 64.9409 45.676 63.1567 46.4675C60.042 47.8492 59.3498 45.0858 65.2332 43.3588C66.7182 42.9228 68.0489 42.6629 69.2029 42.5569C70.4577 41.4128 71.2141 40.2969 70.7705 39.5592C69.7323 37.8321 66.6687 38.3362 60.4393 40.7541C54.6753 42.9912 44.7636 48.0497 40.2985 58.3696C39.9379 59.2032 39.6127 60.0712 39.3281 60.9749C35.5213 73.0644 32.0093 69.2648 33.3936 65.1199C34.3725 62.1888 37.0821 59.7758 40.2985 58.3696C44.7636 48.0497 54.6753 42.9912 60.4393 40.7541C66.6687 38.3362 69.7323 37.8321 70.7705 39.5592C71.2141 40.2969 70.4577 41.4128 69.2029 42.5569C72.6211 42.2428 74.4901 43.2782 74.2313 45.0858C74.1325 45.7767 73.7228 46.4676 73.0992 47.1181C74.6808 47.2537 75.7901 47.8568 75.9618 48.8854C76.1092 49.7681 75.4404 50.5882 74.4366 51.319C76.0242 51.2729 77.2168 51.5651 77.3461 52.3396C77.5812 53.7473 76.5388 54.3582 74.4358 55.3631C74.9881 55.4058 75.5047 55.5402 75.9618 55.7936C79.0765 57.5208 74.2313 59.2478 69.3862 60.9749C65.1489 62.4853 59.3237 67.1657 55.8453 75.2473C58.5135 80.144 65.2576 92.4448 69.3862 97.3928C74.5469 103.578 82.7818 114.86 86.7842 121.077C90.7866 127.294 100.187 146.514 112.993 142.147C121.991 138.694 116.107 125.913 116.107 122.459V116.932C117.031 115.896 118.668 113.202 117.838 110.714C116.865 107.802 112.852 108.225 112.637 113.692C112.715 114.142 112.722 114.558 112.647 114.86C112.625 114.447 112.623 114.058 112.637 113.692C112.355 112.082 111.155 110.055 109.532 111.406C108.999 111.849 108.648 112.451 108.427 113.108C108.63 113.428 108.776 113.787 108.839 114.169C109.186 116.242 108.839 117.969 108.494 117.623C108.236 117.366 107.788 115.01 108.427 113.108C107.531 111.693 105.534 111.033 104.687 112.442C104.36 112.984 104.137 113.731 104.015 114.544C104.236 114.707 104.462 114.924 104.687 115.205C106.071 116.932 105.725 120.732 104.687 119.35C103.975 118.402 103.751 116.318 104.015 114.544C102.879 113.702 101.862 114.282 101.572 114.86C101.377 115.248 100.854 116.292 100.742 117.623C102.406 119.314 102.883 123.171 101.572 121.077C100.815 119.868 100.654 118.659 100.742 117.623C100.854 116.292 101.377 115.248 101.572 114.86C101.862 114.282 102.879 113.702 104.015 114.544C104.137 113.731 104.36 112.984 104.687 112.442C105.534 111.033 107.531 111.693 108.427 113.108C108.648 112.451 108.999 111.849 109.532 111.406C111.155 110.055 112.355 112.082 112.637 113.692C112.852 108.225 116.865 107.802 117.838 110.714C118.668 113.202 117.031 115.896 116.107 116.932V122.459C116.107 125.913 121.991 138.694 112.993 142.147C100.187 146.514 90.7866 127.294 86.7842 121.077C82.7818 114.86 74.5469 103.578 69.3862 97.3928C65.2576 92.4448 58.5135 80.144 55.8453 75.2473C55.6667 75.6621 55.4944 76.0859 55.3288 76.5186C55.0313 77.2956 54.7557 78.1014 54.5046 78.9365C51.3899 89.2992 37.5465 92.2208 27.5101 88.076C17.4737 83.9312 10.4551 66.847 19.1072 53.7212C21.4223 50.209 24.318 47.0678 27.4834 44.324C28.0649 43.82 28.6553 43.3296 29.253 42.8525C29.8785 39.9311 30.4987 35.2787 31.6632 33.3417C33.3519 30.5325 30.2337 36.6334 30.1273 42.1684C31.2506 41.3061 32.3955 40.4911 33.5496 39.7243C33.8079 38.094 34.0878 36.5301 34.4318 35.4142C35.2733 32.6848 34.3246 35.9534 33.6843 39.635C34.6925 38.9688 35.7075 38.3394 36.7208 37.7475C36.9178 36.8014 37.0672 36.4865 36.9281 37.6269C38.3392 36.8096 39.7461 36.0652 41.1265 35.3955C41.9831 33.7878 43.0601 32.2998 44.4682 31.2692C48.5161 28.3064 54.8786 25.1337 61.9151 23.8799Z" fill="white"/>
<path id="Vector_6" d="M70.4245 19.8707C67.4251 21.2523 57.3245 24.9137 53.1715 31.2694C44.5194 32.651 27.7593 40.5956 19.1072 53.7213C10.4551 66.8472 17.4737 83.9314 27.5101 88.0762C37.5465 92.221 51.3899 89.2994 54.5046 78.9367C54.7557 78.1016 55.0313 77.2957 55.3288 76.5188C58.7215 67.6547 64.9315 62.563 69.3862 60.9751C74.2313 59.248 79.0765 57.5209 75.9618 55.7938C72.847 54.0668 66.9637 57.8664 65.9254 58.5572C64.8871 59.248 66.2714 59.5934 70.7705 57.1755C75.2696 54.7576 77.6922 54.4122 77.3461 52.3397C77.0001 50.2672 69.0401 51.6489 66.2715 53.7213C63.5028 55.7938 67.3097 54.7576 69.7323 53.7213C72.1549 52.6851 76.3079 50.9581 75.9618 48.8856C75.6157 46.813 71.4627 46.4677 67.3097 48.1947C63.1567 49.9218 62.1185 51.3034 65.9254 50.6126C69.7323 49.9218 73.8853 47.5039 74.2313 45.086C74.5774 42.6681 71.1166 41.6318 65.2332 43.3589C59.3498 45.086 60.042 47.8493 63.1567 46.4677C66.2714 45.086 71.8088 41.2864 70.7705 39.5593C69.7323 37.8322 66.6687 38.3364 60.4393 40.7543C54.2097 43.1721 43.1351 48.8856 39.3281 60.9751C35.5213 73.0646 32.0093 69.265 33.3936 65.1201C34.7779 60.9751 39.6231 57.8664 44.4682 57.1755M81.845 42.3226C85.537 39.2139 92.9202 31.0621 92.9202 23.3248C92.9202 13.6532 80.461 5.01781 54.5046 10.8899C28.5484 16.7619 25.0876 30.924 24.0493 37.1414C23.0111 43.3589 26.1258 44.3952 27.5101 36.4506C28.6177 30.0949 29.1252 29.4272 29.2405 29.8877C28.0869 33.2267 26.1258 40.8029 27.5101 44.3952C29.2405 48.8856 29.5866 36.7961 31.6632 33.3419C33.7397 29.8877 28.5485 39.9048 30.6249 45.7769C32.7014 51.6489 33.0475 39.9048 34.4318 35.4144C35.8161 30.924 32.3553 42.6681 33.3936 45.7769C34.4318 48.8856 36.1622 43.0135 36.8544 38.1777C37.5465 33.3419 35.124 43.7044 36.8544 44.3952C38.5848 45.086 39.277 35.0689 44.4682 31.2694C49.6595 27.4698 58.6577 23.3248 68.0019 23.3248M69.3862 31.9602C75.1543 36.3354 88.4898 47.5039 95.6882 57.1755C104.687 69.2651 126.49 84.809 134.45 92.753M100.187 132.131C98.457 129.713 98.8034 125.223 98.8034 123.15C97.4186 121.768 95.6882 117.623 98.8034 116.932C101.918 116.242 103.303 123.841 101.572 121.077C99.8418 118.314 101.226 115.551 101.572 114.86C101.918 114.169 103.303 113.479 104.687 115.205C106.071 116.932 105.725 120.732 104.687 119.351C103.648 117.968 103.648 114.169 104.687 112.442C105.725 110.715 108.494 112.096 108.839 114.169C109.186 116.242 108.839 117.969 108.494 117.623C108.147 117.278 107.455 113.133 109.532 111.406C111.608 109.679 112.993 113.479 112.647 114.86C112.3 108.297 116.799 107.606 117.838 110.715C118.668 113.202 117.031 115.896 116.107 116.932C116.107 117.623 116.107 119.695 116.107 122.459C116.107 125.913 121.991 138.694 112.993 142.147C100.187 146.514 90.7866 127.295 86.7842 121.077C82.7818 114.86 74.5469 103.579 69.3862 97.393C65.2576 92.445 58.5135 80.1442 55.8453 75.2475" stroke="#41464C" stroke-width="0.8"/>
<path id="Vector_7" d="M110.001 111.493C102.761 103.196 84.1855 80.8118 88.2407 79.5638C90.4239 78.8921 109.558 96.7686 122.079 113.039C125.898 118 130.244 126.501 137.362 126.501C146.325 126.501 147.482 115.349 147.138 110.441C146.862 106.515 148.171 102.729 148.861 101.326C149.895 99.807 151.482 96.3478 149.55 94.6654C147.62 92.9822 146.678 96.0678 146.448 97.8206C146.907 96.0678 147.275 92.6318 145.069 92.9126C142.862 93.1926 142.31 96.3014 142.31 97.8206C142.541 96.1846 142.518 92.9126 140.587 92.9126C138.656 92.9126 138.174 95.483 138.174 96.7686C138.403 94.899 138.105 91.5102 135.07 92.9126C131.278 94.6654 131.968 99.9238 133.002 98.8718C134.036 97.8206 133.002 92.211 130.244 92.211C127.486 92.211 126.797 97.119 128.865 101.326C127.83 104.131 128.414 108.508 128.865 111.493C129.317 114.478 129.784 116.401 130.244 118.154" stroke="#41464C" stroke-width="0.8"/>
<path id="Vector_8" d="M54.7228 23.255C55.2317 24.2837 55.4398 25.3181 55.3827 26.1483C55.3247 26.9899 55.0071 27.5394 54.5571 27.7621C54.1071 27.9846 53.4775 27.9037 52.7735 27.439C52.0789 26.9806 51.3829 26.1876 50.874 25.159C50.3651 24.1303 50.1571 23.0959 50.2143 22.2657C50.2721 21.4242 50.5898 20.8746 51.0398 20.6519C51.4897 20.4294 52.1194 20.5103 52.8234 20.975C53.518 21.4334 54.2139 22.2264 54.7228 23.255Z" fill="#41464C" stroke="#41464C" stroke-width="0.8"/>
<path id="Vector_9" d="M38.3914 28.6241C37.4212 26.9261 37.0815 22.8751 40.5745 20.2554C44.9409 16.9806 49.671 19.1638 52.218 22.0746" stroke="#41464C" stroke-width="0.8"/>
<path id="Vector_10" d="M47.1809 36.2471C51.3537 36.2471 54.7364 32.8644 54.7364 28.6917C54.7364 24.5189 51.3537 21.1362 47.1809 21.1362C43.0082 21.1362 39.6255 24.5189 39.6255 28.6917C39.6255 32.8644 43.0082 36.2471 47.1809 36.2471Z" fill="white" stroke="#41464C" stroke-width="0.8"/>
<path id="Vector_11" d="M42.6841 26.4914C42.9146 26.9526 43.5834 27.7366 44.4135 27.1832C45.2437 26.6298 44.7594 25.5691 44.4135 25.1079" stroke="#41464C" stroke-width="0.8"/>
<path id="Vector_12" d="M46.8364 23.8502C47.067 24.3114 47.6194 24.8575 48.5659 24.5419C49.6035 24.196 49.2576 23.1584 48.9117 22.8125" stroke="#41464C" stroke-width="0.8"/>
<path id="Vector_13" d="M50.2935 27.5285C50.8699 25.3379 53.3373 20.5416 58.5948 18.8813" stroke="#41464C" stroke-width="0.8"/>
<path id="Vector_14" d="M58.5947 18.8813C59.517 19.573 63.2293 20.8171 62.7454 18.8813C62.3994 17.4978 59.6323 17.8436 58.5947 18.8813Z" stroke="#41464C" stroke-width="0.8"/>
<path id="Vector_15" d="M41.6242 30.5323C42.1331 31.561 42.3411 32.5954 42.284 33.4256C42.2262 34.2672 41.9085 34.8168 41.4585 35.0394C41.0086 35.262 40.379 35.1811 39.6749 34.7164C38.9802 34.258 38.2843 33.465 37.7754 32.4363C37.2666 31.4077 37.0586 30.3733 37.1156 29.5431C37.1735 28.7015 37.4912 28.1518 37.9412 27.9293C38.3911 27.7066 39.0207 27.7877 39.7248 28.2523C40.4194 28.7107 41.1154 29.5037 41.6242 30.5323Z" fill="#41464C" stroke="#41464C" stroke-width="0.8"/>
<path id="Vector_16" d="M42.3941 35.1738C31.1145 40.6317 24.8077 46.5747 21.6543 50.8197L31.4785 52.639L43.8496 39.1762C46.0327 38.8124 48.798 37.5025 42.3941 35.1738Z" fill="#D0D2FB"/>
<path id="Vector_17" d="M90.4238 94.8464C91.7574 95.2096 94.4262 96.8112 94.4262 100.304M114.438 79.2002C115.529 79.564 117.858 81.092 118.441 84.2944" stroke="#41464C" stroke-width="0.8"/>
<path id="Vector_18" fill-rule="evenodd" clip-rule="evenodd" d="M22.4002 94.5758C22.9505 94.5758 23.4864 94.5142 24.0013 94.3966C24.0006 94.4566 24.0002 94.5158 24.0002 94.5758C24.0002 102.529 30.4473 108.976 38.4002 108.976C46.3531 108.976 52.8002 102.529 52.8002 94.5758C52.8002 86.623 46.3531 80.1758 38.4002 80.1758C34.6717 80.1758 31.2743 81.5926 28.7169 83.9174C27.4934 81.6878 25.1233 80.1758 22.4002 80.1758C18.4237 80.1758 15.2002 83.399 15.2002 87.3758C15.2002 91.3518 18.4237 94.5758 22.4002 94.5758ZM80.4002 136.976C81.7458 136.976 83.041 136.761 84.2538 136.365C85.0282 139.029 87.4866 140.976 90.4002 140.976C92.4458 140.976 94.2682 140.016 95.4394 138.521C96.8146 140.942 99.417 142.576 102.4 142.576C103.379 142.576 104.319 142.4 105.186 142.077C106.352 146.064 110.036 148.976 114.4 148.976C119.702 148.976 124 144.677 124 139.376C124 138.089 123.747 136.861 123.287 135.74C125.12 134.936 126.4 133.105 126.4 130.976C126.4 128.104 124.072 125.776 121.2 125.776C118.687 125.776 116.591 127.557 116.106 129.927C115.552 129.828 114.983 129.776 114.4 129.776C112.647 129.776 111.005 130.245 109.591 131.065C108.291 128.407 105.559 126.576 102.4 126.576C99.417 126.576 96.8146 128.209 95.4394 130.629C94.6234 129.589 93.4922 128.808 92.1898 128.429C92.5858 127.217 92.8002 125.921 92.8002 124.576C92.8002 117.727 87.2482 112.176 80.4002 112.176C73.5519 112.176 68.0002 117.727 68.0002 124.576C68.0002 131.424 73.5519 136.976 80.4002 136.976ZM150.4 122.576C150.4 126.11 147.535 128.976 144 128.976C143.289 128.976 142.604 128.86 141.965 128.645C141.035 131.18 138.715 132.976 136 132.976C132.466 132.976 129.6 129.931 129.6 126.176C129.6 122.42 132.466 119.376 136 119.376C136.785 119.376 137.537 119.525 138.231 119.801C139.265 117.656 141.46 116.176 144 116.176C147.535 116.176 150.4 119.041 150.4 122.576Z" fill="#F3F3F6"/>
<g id="Mask group">
<mask id="mask0_8929_585468" style="mask-type:luminance" maskUnits="userSpaceOnUse" x="15" y="80" width="136" height="69">
<g id="Group">
<path id="Vector_19" fill-rule="evenodd" clip-rule="evenodd" d="M22.4002 94.5758C22.9505 94.5758 23.4864 94.5142 24.0013 94.3966C24.0006 94.4566 24.0002 94.5158 24.0002 94.5758C24.0002 102.529 30.4473 108.976 38.4002 108.976C46.3531 108.976 52.8002 102.529 52.8002 94.5758C52.8002 86.623 46.3531 80.1758 38.4002 80.1758C34.6717 80.1758 31.2743 81.5926 28.7169 83.9174C27.4934 81.6878 25.1233 80.1758 22.4002 80.1758C18.4237 80.1758 15.2002 83.399 15.2002 87.3758C15.2002 91.3518 18.4237 94.5758 22.4002 94.5758ZM80.4002 136.976C81.7458 136.976 83.041 136.761 84.2538 136.365C85.0282 139.029 87.4866 140.976 90.4002 140.976C92.4458 140.976 94.2682 140.016 95.4394 138.521C96.8146 140.942 99.417 142.576 102.4 142.576C103.379 142.576 104.319 142.4 105.186 142.077C106.352 146.064 110.036 148.976 114.4 148.976C119.702 148.976 124 144.677 124 139.376C124 138.089 123.747 136.861 123.287 135.74C125.12 134.936 126.4 133.105 126.4 130.976C126.4 128.104 124.072 125.776 121.2 125.776C118.687 125.776 116.591 127.557 116.106 129.927C115.552 129.828 114.983 129.776 114.4 129.776C112.647 129.776 111.005 130.245 109.591 131.065C108.291 128.407 105.559 126.576 102.4 126.576C99.417 126.576 96.8146 128.209 95.4394 130.629C94.6234 129.589 93.4922 128.808 92.1898 128.429C92.5858 127.217 92.8002 125.921 92.8002 124.576C92.8002 117.727 87.2482 112.176 80.4002 112.176C73.5519 112.176 68.0002 117.727 68.0002 124.576C68.0002 131.424 73.5519 136.976 80.4002 136.976ZM150.4 122.576C150.4 126.11 147.535 128.976 144 128.976C143.289 128.976 142.604 128.86 141.965 128.645C141.035 131.18 138.715 132.976 136 132.976C132.466 132.976 129.6 129.931 129.6 126.176C129.6 122.42 132.466 119.376 136 119.376C136.785 119.376 137.537 119.525 138.231 119.801C139.265 117.656 141.46 116.176 144 116.176C147.535 116.176 150.4 119.041 150.4 122.576Z" fill="white"/>
</g>
</mask>
<g mask="url(#mask0_8929_585468)">
<path id="Vector_20" d="M24.0015 94.3969L24.8014 94.4073L24.8138 93.3921L23.8243 93.6169L24.0015 94.3969ZM28.7171 83.9177L28.0157 84.3025L28.504 85.1929L29.2552 84.5097L28.7171 83.9177ZM84.254 136.366L85.022 136.143L84.7916 135.348L84.0052 135.605L84.254 136.366ZM95.4396 138.522L96.1356 138.127L95.546 137.09L94.81 138.028L95.4396 138.522ZM105.186 142.078L105.953 141.853L105.712 141.029L104.908 141.328L105.186 142.078ZM123.288 135.74L122.967 135.007L122.252 135.321L122.548 136.043L123.288 135.74ZM116.106 129.927L115.965 130.715L116.733 130.852L116.89 130.087L116.106 129.927ZM109.591 131.066L108.872 131.417L109.25 132.188L109.992 131.758L109.591 131.066ZM95.4396 130.63L94.81 131.124L95.546 132.063L96.1356 131.025L95.4396 130.63ZM92.19 128.43L91.4292 128.181L91.1724 128.967L91.9668 129.198L92.19 128.43ZM141.965 128.646L142.22 127.887L141.482 127.64L141.214 128.37L141.965 128.646ZM138.232 119.801L137.938 120.545L138.629 120.818L138.952 120.148L138.232 119.801ZM23.8243 93.6169C23.3671 93.7209 22.8907 93.7761 22.4004 93.7761V95.3761C23.0107 95.3761 23.606 95.3073 24.1786 95.1777L23.8243 93.6169ZM24.8004 94.5761C24.8004 94.5193 24.8007 94.4633 24.8014 94.4073L23.2015 94.3873C23.2008 94.4505 23.2004 94.5129 23.2004 94.5761H24.8004ZM38.4004 108.176C30.8894 108.176 24.8004 102.087 24.8004 94.5761H23.2004C23.2004 102.971 30.0057 109.776 38.4004 109.776V108.176ZM52.0004 94.5761C52.0004 102.087 45.9114 108.176 38.4004 108.176V109.776C46.7951 109.776 53.6004 102.971 53.6004 94.5761H52.0004ZM38.4004 80.9761C45.9114 80.9761 52.0004 87.0649 52.0004 94.5761H53.6004C53.6004 86.1809 46.7951 79.376 38.4004 79.376V80.9761ZM29.2552 84.5097C31.6711 82.3137 34.8786 80.9761 38.4004 80.9761V79.376C34.4653 79.376 30.8778 80.8721 28.179 83.3257L29.2552 84.5097ZM22.4004 80.9761C24.8199 80.9761 26.927 82.3185 28.0157 84.3025L29.4185 83.5329C28.0601 81.0569 25.4272 79.376 22.4004 79.376V80.9761ZM16.0004 87.3761C16.0004 83.8417 18.8658 80.9761 22.4004 80.9761V79.376C17.9822 79.376 14.4004 82.9577 14.4004 87.3761H16.0004ZM22.4004 93.7761C18.8658 93.7761 16.0004 90.9105 16.0004 87.3761H14.4004C14.4004 91.7945 17.9822 95.3761 22.4004 95.3761V93.7761ZM84.0052 135.605C82.8716 135.975 81.6604 136.176 80.4004 136.176V137.776C81.8308 137.776 83.21 137.548 84.502 137.126L84.0052 135.605ZM90.4004 140.176C87.8524 140.176 85.6996 138.474 85.022 136.143L83.486 136.589C84.3564 139.585 87.1212 141.776 90.4004 141.776V140.176ZM94.81 138.028C93.7836 139.337 92.19 140.176 90.4004 140.176V141.776C92.7028 141.776 94.7524 140.695 96.0692 139.015L94.81 138.028ZM102.4 141.776C99.7164 141.776 97.374 140.307 96.1356 138.127L94.7444 138.917C96.2556 141.578 99.118 143.376 102.4 143.376V141.776ZM104.908 141.328C104.128 141.618 103.284 141.776 102.4 141.776V143.376C103.476 143.376 104.509 143.183 105.464 142.827L104.908 141.328ZM114.4 148.176C110.401 148.176 107.024 145.508 105.953 141.853L104.418 142.303C105.682 146.621 109.672 149.776 114.4 149.776V148.176ZM123.2 139.376C123.2 144.236 119.26 148.176 114.4 148.176V149.776C120.144 149.776 124.8 145.119 124.8 139.376H123.2ZM122.548 136.043C122.968 137.07 123.2 138.195 123.2 139.376H124.8C124.8 137.983 124.526 136.653 124.028 135.437L122.548 136.043ZM123.609 136.473C125.722 135.546 127.2 133.435 127.2 130.976H125.6C125.6 132.777 124.519 134.327 122.967 135.007L123.609 136.473ZM127.2 130.976C127.2 127.663 124.514 124.976 121.2 124.976V126.576C123.631 126.576 125.6 128.546 125.6 130.976H127.2ZM121.2 124.976C118.3 124.976 115.883 127.033 115.323 129.767L116.89 130.087C117.3 128.083 119.076 126.576 121.2 126.576V124.976ZM114.4 130.576C114.935 130.576 115.458 130.623 115.965 130.715L116.248 129.139C115.648 129.032 115.03 128.976 114.4 128.976V130.576ZM109.992 131.758C111.288 131.007 112.792 130.576 114.4 130.576V128.976C112.504 128.976 110.723 129.485 109.19 130.374L109.992 131.758ZM102.4 127.376C105.242 127.376 107.701 129.023 108.872 131.417L110.31 130.715C108.88 127.791 105.876 125.776 102.4 125.776V127.376ZM96.1356 131.025C97.374 128.844 99.7164 127.376 102.4 127.376V125.776C99.118 125.776 96.2556 127.574 94.7444 130.235L96.1356 131.025ZM91.9668 129.198C93.1052 129.529 94.0956 130.212 94.81 131.124L96.0692 130.136C95.1524 128.967 93.8804 128.087 92.4132 127.661L91.9668 129.198ZM92.0004 124.576C92.0004 125.836 91.7996 127.047 91.4292 128.181L92.95 128.678C93.3724 127.386 93.6004 126.007 93.6004 124.576H92.0004ZM80.4004 112.976C86.8068 112.976 92.0004 118.17 92.0004 124.576H93.6004C93.6004 117.286 87.6908 111.376 80.4004 111.376V112.976ZM68.8004 124.576C68.8004 118.17 73.9939 112.976 80.4004 112.976V111.376C73.1102 111.376 67.2004 117.286 67.2004 124.576H68.8004ZM80.4004 136.176C73.9939 136.176 68.8004 130.983 68.8004 124.576H67.2004C67.2004 131.866 73.1102 137.776 80.4004 137.776V136.176ZM144 129.776C147.977 129.776 151.2 126.552 151.2 122.576H149.6C149.6 125.669 147.093 128.176 144 128.176V129.776ZM141.711 129.404C142.432 129.646 143.201 129.776 144 129.776V128.176C143.376 128.176 142.778 128.075 142.22 127.887L141.711 129.404ZM136 133.776C139.085 133.776 141.683 131.737 142.716 128.921L141.214 128.37C140.387 130.623 138.345 132.176 136 132.176V133.776ZM128.8 126.176C128.8 130.327 131.979 133.776 136 133.776V132.176C132.952 132.176 130.4 129.536 130.4 126.176H128.8ZM136 118.576C131.979 118.576 128.8 122.025 128.8 126.176H130.4C130.4 122.816 132.952 120.176 136 120.176V118.576ZM138.526 119.057C137.74 118.746 136.888 118.576 136 118.576V120.176C136.682 120.176 137.334 120.307 137.938 120.545L138.526 119.057ZM144 115.376C141.141 115.376 138.673 117.043 137.511 119.454L138.952 120.148C139.858 118.27 141.779 116.976 144 116.976V115.376ZM151.2 122.576C151.2 118.599 147.977 115.376 144 115.376V116.976C147.093 116.976 149.6 119.483 149.6 122.576H151.2Z" fill="#41464C"/>
</g>
</g>
<path id="Vector_21" d="M17.6003 86.9758L12.8003 82.1758L8.80029 94.5758L29.6003 110.976L54.4003 107.376V90.1758L44.4003 94.5758L17.6003 86.9758Z" fill="#F3F3F6"/>
<path id="Vector_22" d="M75.2002 122.976L57.2002 108.176V130.576L91.2002 150.976L114.8 150.176L120 147.376L124.8 142.976L127.2 139.376L144 134.976L150.8 129.776L154.8 118.176L128.8 124.976L127.2 128.176L114.8 132.576L102 138.176L75.2002 122.976Z" fill="#F3F3F6"/>
<path id="Vector_23" d="M35.896 84.7471L69.1868 101.13L48.2273 114.781L14.9365 98.3975L35.896 84.7471Z" fill="#4E40E5"/>
<path id="Vector_24" d="M15.8213 98.2468L27.0942 72.6807L61.2343 87.658L48.4062 114.283L15.8213 98.2468Z" fill="white" stroke="#41464C" stroke-width="0.8"/>
<path id="Vector_25" d="M37.3378 96.576C39.2729 96.576 40.8416 95.0073 40.8416 93.0722C40.8416 91.1371 39.2729 89.5684 37.3378 89.5684C35.4027 89.5684 33.834 91.1371 33.834 93.0722C33.834 95.0073 35.4027 96.576 37.3378 96.576Z" fill="#4E40E5"/>
<path id="Vector_26" d="M41.7058 93.0718C42.183 93.0718 42.5698 92.685 42.5698 92.2078C42.5698 91.7306 42.183 91.3438 41.7058 91.3438C41.2286 91.3438 40.8418 91.7306 40.8418 92.2078C40.8418 92.685 41.2286 93.0718 41.7058 93.0718Z" fill="#4E40E5"/>
</g>
<defs>
<clipPath id="clip0_8929_585468">
<rect width="160" height="160" fill="white"/>
</clipPath>
</defs>
</svg>
