<svg width="16" height="16" viewBox="0 0 16 16" fill="none" xmlns="http://www.w3.org/2000/svg">
    <g clip-path="url(#clip0_1163_68314)">
        <mask id="mask0_1163_68314" style="mask-type:luminance" maskUnits="userSpaceOnUse" x="0" y="0" width="16" height="16">
            <path d="M16 0H0V16H16V0Z" fill="white"/>
        </mask>
        <g mask="url(#mask0_1163_68314)">
            <path d="M0.941895 4.15078C0.941895 2.37897 2.37824 0.942627 4.15005 0.942627C5.92187 0.942627 7.35821 2.37897 7.35821 4.15078V6.07568C7.35821 6.7844 6.78367 7.35894 6.07494 7.35894H4.15005C2.37824 7.35894 0.941895 5.9226 0.941895 4.15078Z" fill="#1D1C23"/>
            <path d="M0.941895 11.8503C0.941895 10.0784 2.37824 8.64209 4.15005 8.64209H6.07494C6.78367 8.64209 7.35821 9.21663 7.35821 9.92535V11.8503C7.35821 13.6221 5.92187 15.0584 4.15005 15.0584C2.37824 15.0584 0.941895 13.6221 0.941895 11.8503Z" fill="#1D1C23"/>
            <path d="M9.92462 8.64209C9.2159 8.64209 8.64136 9.21663 8.64136 9.92535V11.8503C8.64136 13.6221 10.0777 15.0584 11.8495 15.0584C13.6213 15.0584 15.0577 13.6221 15.0577 11.8503C15.0577 10.0784 13.6213 8.64209 11.8495 8.64209H9.92462Z" fill="#1D1C23"/>
            <path d="M8.6416 4.15054C8.6416 2.37872 10.0779 0.942383 11.8498 0.942383C13.6216 0.942383 15.0579 2.37872 15.0579 4.15054C15.0579 5.92235 13.6216 7.3587 11.8498 7.3587H9.92486C9.21614 7.3587 8.6416 6.78416 8.6416 6.07543V4.15054Z" fill="#1D1C23"/>
        </g>
    </g>
    <defs>
        <clipPath id="clip0_1163_68314">
            <rect width="16" height="16" fill="white"/>
        </clipPath>
    </defs>
</svg>
