<svg width="24" height="24" viewBox="0 0 24 24" fill="none" xmlns="http://www.w3.org/2000/svg">
  <path fill-rule="evenodd" clip-rule="evenodd"
    d="M12 22C17.5228 22 22 17.5228 22 12C22 6.47715 17.5228 2 12 2C6.47715 2 2 6.47715 2 12C2 17.5228 6.47715 22 12 22ZM9.48544 7H11.0225C11.2106 7 11.3793 7.12745 11.4465 7.32043L14.5702 16.2923C14.6838 16.6186 14.4641 16.9686 14.1456 16.9686H13.3052C13.1152 16.9686 12.9453 16.8389 12.8792 16.6435L12.3143 14.9739H8.18872L7.62275 16.6422C7.55654 16.8373 7.38669 16.9668 7.19682 16.9668H6.36382C6.04537 16.9668 5.82567 16.6169 5.93924 16.2906L9.06143 7.32043C9.12863 7.12745 9.48544 7 9.48544 7ZM8.8588 12.9804H11.6401L10.2689 8.94692H10.2262L8.8588 12.9804ZM16.2827 7C15.973 7 15.722 7.25106 15.722 7.56075V16.4393C15.722 16.7489 15.973 17 16.2827 17H17.0304C17.3401 17 17.5911 16.7489 17.5911 16.4393V7.56075C17.5911 7.25106 17.3401 7 17.0304 7H16.2827Z"
    fill="#4D53E8" />
</svg>
