<svg width="16" height="16" viewBox="0 0 16 16" fill="none" xmlns="http://www.w3.org/2000/svg">
<g clip-path="url(#clip0_2361_213320)">
<path d="M13.4026 5.56201C13.4724 5.56201 13.5411 5.56618 13.6109 5.57347C14.1448 5.644 14.6664 5.78806 15.1608 6.00156C15.3045 6.06614 15.3399 6.11822 15.217 6.24842C14.8629 6.62756 14.5692 7.06086 14.3483 7.52958C14.1088 8.03267 13.8484 8.5243 13.6036 9.0253C13.4225 9.39983 13.1703 9.73555 12.861 10.0138C12.0975 10.7043 11.2069 10.996 10.1903 10.8554C9.02373 10.6939 7.91965 10.3002 6.87597 9.78046C6.82527 9.75647 6.77558 9.73041 6.72702 9.70234C6.71577 9.69528 6.70657 9.68539 6.70033 9.67367C6.69409 9.66195 6.69102 9.6488 6.69144 9.63552C6.69187 9.62225 6.69576 9.60931 6.70273 9.59801C6.7097 9.58671 6.71952 9.57743 6.73119 9.5711L6.8041 9.53256C7.64779 9.08155 8.35399 8.45243 9.03311 7.79102C9.32059 7.51291 9.59557 7.22127 9.88617 6.94629C10.5237 6.34251 11.3114 5.92061 12.1673 5.7245C12.3547 5.67867 12.5454 5.64221 12.7339 5.60159H12.7422L13.1443 5.56514" fill="#133C9A" style="fill:#133C9A;fill:color(display-p3 0.0745 0.2353 0.6039);fill-opacity:1;"/>
<path d="M5.23265 13.7209C5.10453 13.7136 4.78893 13.6699 4.75039 13.6646C3.93489 13.5634 3.14106 13.3313 2.39952 12.9772C1.96934 12.7762 1.55583 12.5397 1.14127 12.3085C0.868378 12.1564 0.706901 11.8659 0.708984 11.544L0.709015 5.74439C0.709015 5.67669 0.719431 5.60898 0.740262 5.54649C0.787134 5.40796 0.881919 5.40066 0.975662 5.49024C1.08399 5.5944 1.17044 5.72147 1.27772 5.82355C2.23599 6.76931 3.25362 7.63488 4.39312 8.34733C5.03474 8.75875 5.7024 9.12644 6.39298 9.44933C7.50019 9.95242 8.63657 10.3961 9.82606 10.6774C10.8781 10.9263 11.8999 10.769 12.7519 10.1024C13.0123 9.87951 13.1404 9.71702 13.4487 9.30663C13.3113 9.67156 13.1328 10.0196 12.9165 10.3441C12.7186 10.6565 12.2707 11.0732 11.9311 11.3992C11.4145 11.8992 10.7385 12.3043 10.1042 12.646C9.41255 13.0189 8.69385 13.3168 7.9262 13.4792C7.53248 13.5782 6.96377 13.6907 6.76795 13.7011C6.73358 13.699 6.61588 13.7251 6.55651 13.7209C6.05029 13.7584 5.73782 13.773 5.23369 13.7209H5.23265Z" fill="#3370FF" style="fill:#3370FF;fill:color(display-p3 0.2000 0.4392 1.0000);fill-opacity:1;"/>
<path d="M3.06055 2.28168C3.09592 2.27915 3.13142 2.27915 3.16679 2.28168C5.34059 2.28168 7.49773 2.31709 9.66944 2.31709C9.67361 2.31709 9.67778 2.31709 9.67986 2.32022C9.88193 2.49624 10.0684 2.68686 10.2392 2.89205C10.7298 3.37951 11.0954 4.22529 11.3454 4.73983C11.4704 5.09606 11.6578 5.43562 11.7464 5.8335V5.83975C11.5245 5.91162 11.3089 5.99912 11.1006 6.10328C10.4715 6.422 10.1861 6.65532 9.66528 7.16778C9.38092 7.44589 9.13823 7.69587 8.76118 8.05209C8.62446 8.18486 8.48306 8.31271 8.33725 8.4354C8.23726 8.25833 6.54675 4.95232 3.15012 2.35042" fill="#00D6B9" style="fill:#00D6B9;fill:color(display-p3 0.0000 0.8392 0.7255);fill-opacity:1;"/>
</g>
<defs>
<clipPath id="clip0_2361_213320">
<rect width="14.5823" height="14.5823" fill="white" style="fill:white;fill-opacity:1;" transform="translate(0.708984 0.708984)"/>
</clipPath>
</defs>
</svg>
