<svg xmlns="http://www.w3.org/2000/svg" width="16" height="16" viewBox="0 0 16 16" fill="none">
  <g clip-path="url(#clip0_3819_68226)">
    <path d="M5.00663 10.6689H0.000730294C-0.00662746 10.8616 0.0417402 11.0523 0.140034 11.2181L2.18248 14.6687C2.26266 14.8039 2.3729 14.9162 2.50017 14.9994L5.00663 10.6689Z" fill="#1967D2"/>
    <path d="M15.9991 10.6689H10.9922L13.4986 14.9984C13.629 14.9143 13.7381 14.8011 13.8173 14.6677L15.8598 11.2181C15.9581 11.0523 16.0064 10.8616 15.9991 10.6689Z" fill="#EA4335"/>
    <path d="M15.9984 10.6689C16.007 10.862 15.9597 11.0534 15.8621 11.2201L13.8437 14.6646C13.7552 14.8154 13.6289 14.9405 13.4772 15.0273C13.3254 15.1142 13.1536 15.1598 12.9788 15.1597H3.04419C2.85113 15.1598 2.66216 15.1041 2.5 14.9994L5.00746 10.6689H10.9915L13.4979 14.9984C13.6284 14.9143 13.7374 14.8011 13.8166 14.6677L15.8591 11.2181C15.9577 11.0524 16.0065 10.8617 15.9994 10.6689H15.9984Z" fill="#4285F4"/>
    <path d="M7.97805 5.60477L10.5456 1.06889C10.3934 0.980525 10.2206 0.933859 10.0446 0.933594H5.90855C5.72901 0.933826 5.55284 0.982283 5.39844 1.0739L7.96402 5.60376L7.97004 5.59374L7.97805 5.60477Z" fill="#188038"/>
    <path d="M10.5434 1.07129L7.97577 5.60717L7.96875 5.59714V5.59915L10.9272 10.6702H15.9982C15.9913 10.5129 15.9473 10.3594 15.87 10.2222L10.9142 1.44611C10.8262 1.29031 10.6982 1.16089 10.5434 1.07129Z" fill="#FBBC04"/>
    <path d="M7.96033 5.60604L5.0069 10.6701H0C0.00604041 10.5122 0.0493085 10.358 0.126275 10.2201L5.03096 1.44898C5.11752 1.29469 5.24338 1.16607 5.39575 1.07617L7.96134 5.60604H7.96033Z" fill="#34A853"/>
  </g>
  <defs>
    <clipPath id="clip0_3819_68226">
      <rect width="16" height="16" fill="white"/>
    </clipPath>
  </defs>
</svg>
