<svg width="16" height="16" viewBox="0 0 16 16" fill="none" xmlns="http://www.w3.org/2000/svg">
<g clip-path="url(#clip0_2361_213325)">
<path d="M1.65666 1.39146L10.6242 0.788364C11.0139 0.761619 11.4015 0.863654 11.7256 1.07829L14.8763 3.17531C15.1349 3.34739 15.2901 3.62902 15.2901 3.93002V13.6903C15.2901 14.1761 14.8926 14.5783 14.3827 14.6093L4.42844 15.2124C4.17974 15.2285 3.93073 15.1858 3.70224 15.0878C3.47375 14.9898 3.27242 14.8394 3.11508 14.6492L1.18102 12.2783C0.872504 11.9018 0.703901 11.4329 0.703125 10.9492V2.36472C0.703125 1.85237 1.11917 1.42743 1.65666 1.39091V1.39146ZM2.19246 2.20759C2.0356 2.21865 1.97657 2.40788 2.10138 2.49862L3.35065 3.40881C3.56711 3.5665 3.83585 3.64562 4.10797 3.63068L13.1014 3.14931C13.1818 3.14543 13.2121 3.04805 13.1475 3.00268L11.4428 1.81474C11.2219 1.66155 10.9539 1.58843 10.6843 1.60781L2.19246 2.20759ZM4.22379 4.59896C3.92188 4.61501 3.6863 4.85237 3.6863 5.14009V13.5558C3.6863 13.8679 3.96179 14.1158 4.28957 14.0975L13.7384 13.568C14.0392 13.5514 14.2747 13.314 14.2747 13.0269V4.57628C14.2747 4.29575 14.0273 4.07332 13.7327 4.08937L4.22379 4.59841V4.59896ZM5.32463 6.54825V6.66057L6.09039 6.70262V12.2251L5.79634 12.2556C5.50567 12.286 5.2954 12.5333 5.32463 12.81L7.56173 12.7115C7.83498 12.6999 8.06043 12.5051 8.09979 12.2478L8.11215 12.1659L7.21259 11.9966V7.8546L10.135 12.1941C10.4207 12.6191 10.9773 12.8 11.4771 12.6313L12.0753 12.4288V6.22844L12.5515 6.14932C12.6166 6.13949 12.6761 6.10725 12.7194 6.05831C12.7626 6.00937 12.7868 5.94692 12.7876 5.88207V5.60155L10.8069 5.70114C10.5044 5.71663 10.2672 5.95455 10.2672 6.24282V6.29594L11.0419 6.39775V10.2266L8.03176 5.86437L5.85537 6.00712C5.55683 6.02704 5.32463 6.2633 5.32463 6.54825Z" fill="black" style="fill:black;fill-opacity:1;"/>
</g>
<defs>
<clipPath id="clip0_2361_213325">
<rect width="14.5823" height="14.5823" fill="white" style="fill:white;fill-opacity:1;" transform="translate(0.708984 0.708984)"/>
</clipPath>
</defs>
</svg>
