<svg width="12" height="12" viewBox="0 0 12 12" fill="none" xmlns="http://www.w3.org/2000/svg">
<g id="icon_cross_fill">
<path id="Union" d="M1.75753 2.11084C1.56227 2.3061 1.56227 2.62268 1.75753 2.81795L4.93951 5.99993L1.75753 9.18192C1.56227 9.37718 1.56227 9.69376 1.75753 9.88902L2.11108 10.2426C2.30635 10.4378 2.62293 10.4378 2.81819 10.2426L6.00017 7.06059L9.18215 10.2426C9.37741 10.4378 9.694 10.4378 9.88926 10.2426L10.2428 9.88901C10.4381 9.69375 10.4381 9.37717 10.2428 9.18191L7.06084 5.99993L10.2428 2.81795C10.4381 2.62269 10.4381 2.30611 10.2428 2.11085L9.88926 1.75729C9.694 1.56203 9.37741 1.56203 9.18215 1.75729L6.00017 4.93927L2.81819 1.75729C2.62293 1.56202 2.30635 1.56202 2.11108 1.75729L1.75753 2.11084Z" fill="#060709" fill-opacity="0.5"/>
</g>
</svg>
