<svg width="25" height="24" viewBox="0 0 25 24" fill="none" xmlns="http://www.w3.org/2000/svg">
  <g clip-path="url(#clip0_5257_104690)">
    <g filter="url(#filter0_d_5257_104690)">
      <path
        d="M3.6 2.68c0-1.008 0-1.512.196-1.897a1.8 1.8 0 0 1 .786-.787C4.967-.2 5.472-.2 6.48-.2H16.8l6 7.2v13.92c0 1.008 0 1.512-.196 1.897a1.8 1.8 0 0 1-.787.787c-.384.196-.889.196-1.897.196H6.48c-1.008 0-1.512 0-1.897-.196a1.8 1.8 0 0 1-.786-.787c-.197-.385-.197-.89-.197-1.897V2.68z"
        fill="#FF54C5" />
      <path
        d="M3.66 2.68c0-.505 0-.88.024-1.178.024-.296.072-.51.165-.692a1.74 1.74 0 0 1 .76-.76c.183-.094.397-.142.693-.166.297-.024.672-.024 1.177-.024h10.292l5.968 7.162V20.92c0 .505 0 .88-.024 1.177-.024.297-.072.51-.165.693a1.74 1.74 0 0 1-.76.76c-.183.093-.397.141-.693.165-.297.025-.673.025-1.178.025H6.48c-.505 0-.88 0-1.177-.024-.296-.025-.51-.073-.693-.166a1.74 1.74 0 0 1-.76-.76c-.093-.183-.141-.396-.165-.693a15.907 15.907 0 0 1-.025-1.177V2.68z"
        stroke="#000" stroke-opacity=".08" stroke-width=".12" />
    </g>
    <path d="M3.6 1.6A1.8 1.8 0 0 1 5.4-.2h11.4l6 7.2v15a1.8 1.8 0 0 1-1.8 1.8H5.4A1.8 1.8 0 0 1 3.6 22V1.6z"
      fill="url(#paint0_radial_5257_104690)" fill-opacity=".6" />
    <g filter="url(#filter1_dd_5257_104690)" shape-rendering="crispEdges">
      <path
        d="M16.8-.2l6 7.2h-2.16c-1.345 0-2.017 0-2.53-.262A2.4 2.4 0 0 1 17.06 5.69c-.262-.513-.262-1.185-.262-2.53V-.2z"
        fill="#fff" />
      <path
        d="M16.846-.239l-.107-.127v3.529c0 .67 0 1.175.033 1.578.033.404.1.71.236.976.235.463.612.839 1.075 1.075.266.136.571.202.975.235.403.033.909.033 1.579.033h2.29l-.081-.099-6-7.2z"
        stroke="#000" stroke-opacity=".08" stroke-width=".12" />
    </g>
    <path
      d="M16.8-.2l6 7.2h-2.16c-1.345 0-2.017 0-2.53-.262A2.4 2.4 0 0 1 17.06 5.69c-.262-.513-.262-1.185-.262-2.53V-.2z"
      fill="#FF7BD2" />
    <path d="M16.8-.2l6 7.2h-3.6a2.4 2.4 0 0 1-2.4-2.4V-.2z" fill="url(#paint1_linear_5257_104690)" fill-opacity=".6" />
  </g>
  <defs>
    <filter id="filter0_d_5257_104690" x="-1.543" y="-3.629" width="29.486" height="34.286" filterUnits="userSpaceOnUse"
      color-interpolation-filters="sRGB">
      <feFlood flood-opacity="0" result="BackgroundImageFix" />
      <feColorMatrix in="SourceAlpha" values="0 0 0 0 0 0 0 0 0 0 0 0 0 0 0 0 0 0 127 0" result="hardAlpha" />
      <feOffset dy="1.714" />
      <feGaussianBlur stdDeviation="2.571" />
      <feComposite in2="hardAlpha" operator="out" />
      <feColorMatrix values="0 0 0 0 0 0 0 0 0 0 0 0 0 0 0 0 0 0 0.16 0" />
      <feBlend in2="BackgroundImageFix" result="effect1_dropShadow_5257_104690" />
      <feBlend in="SourceGraphic" in2="effect1_dropShadow_5257_104690" result="shape" />
    </filter>
    <filter id="filter1_dd_5257_104690" x="9.479" y="-5.331" width="20.776" height="22.051" filterUnits="userSpaceOnUse"
      color-interpolation-filters="sRGB">
      <feFlood flood-opacity="0" result="BackgroundImageFix" />
      <feColorMatrix in="SourceAlpha" values="0 0 0 0 0 0 0 0 0 0 0 0 0 0 0 0 0 0 127 0" result="hardAlpha" />
      <feOffset dy="2.4" />
      <feGaussianBlur stdDeviation="3.6" />
      <feComposite in2="hardAlpha" operator="out" />
      <feColorMatrix values="0 0 0 0 0 0 0 0 0 0 0 0 0 0 0 0 0 0 0.24 0" />
      <feBlend in2="BackgroundImageFix" result="effect1_dropShadow_5257_104690" />
      <feColorMatrix in="SourceAlpha" values="0 0 0 0 0 0 0 0 0 0 0 0 0 0 0 0 0 0 127 0" result="hardAlpha" />
      <feOffset dy="1.2" />
      <feGaussianBlur stdDeviation="1.2" />
      <feComposite in2="hardAlpha" operator="out" />
      <feColorMatrix values="0 0 0 0 0 0 0 0 0 0 0 0 0 0 0 0 0 0 0.12 0" />
      <feBlend in2="effect1_dropShadow_5257_104690" result="effect2_dropShadow_5257_104690" />
      <feBlend in="SourceGraphic" in2="effect2_dropShadow_5257_104690" result="shape" />
    </filter>
    <radialGradient id="paint0_radial_5257_104690" cx="0" cy="0" r="1" gradientUnits="userSpaceOnUse"
      gradientTransform="matrix(23.09998 27.59995 -27.8692 23.32533 4.2 .4)">
      <stop stop-color="#FCF3CE" />
      <stop offset=".357" stop-color="#FCF3CD" stop-opacity="0" />
      <stop offset=".783" stop-color="#FCF3CD" stop-opacity=".095" />
      <stop offset="1" stop-color="#FCF3CD" />
    </radialGradient>
    <linearGradient id="paint1_linear_5257_104690" x1="15.299" y1="4.6" x2="25.75" y2="-.606"
      gradientUnits="userSpaceOnUse">
      <stop stop-color="#FCF3CE" />
      <stop offset=".5" stop-color="#FCF3CD" stop-opacity="0" />
      <stop offset=".723" stop-color="#FCF3CD" stop-opacity=".095" />
      <stop offset="1" stop-color="#FCF3CD" />
    </linearGradient>
    <clipPath id="clip0_5257_104690">
      <path fill="#fff" transform="translate(.9)" d="M0 0h24v24H0z" />
    </clipPath>
  </defs>
</svg>
