<svg width="16" height="16" viewBox="0 0 16 16" fill="none" xmlns="http://www.w3.org/2000/svg">
<g id="coz_ban">
<path id="Union" d="M0.666992 8.00008C0.666992 12.0502 3.95024 15.3334 8.00033 15.3334C12.0504 15.3334 15.3337 12.0502 15.3337 8.00008C15.3337 3.94999 12.0504 0.666748 8.00033 0.666748C3.95024 0.666748 0.666992 3.94999 0.666992 8.00008ZM11.7453 12.6881C10.7189 13.5091 9.41694 14.0001 8.00033 14.0001C4.68662 14.0001 2.00033 11.3138 2.00033 8.00008C2.00033 6.58346 2.49127 5.28151 3.31229 4.25508L11.7453 12.6881ZM12.6882 11.7453L4.25508 3.31225C5.28154 2.4911 6.58359 2.00008 8.00033 2.00008C11.314 2.00008 14.0003 4.68637 14.0003 8.00008C14.0003 9.41681 13.5093 10.7189 12.6882 11.7453Z" fill="#060709" fill-opacity="0.3"/>
</g>
</svg>
