<svg width="32" height="32" viewBox="0 0 32 32" fill="none" xmlns="http://www.w3.org/2000/svg">
<g id="coz_warning_circle_fill_palette">
<path id="Union" d="M15.9997 30.6666C24.0998 30.6666 30.6663 24.1001 30.6663 15.9999C30.6663 7.89974 24.0998 1.33325 15.9997 1.33325C7.8995 1.33325 1.33301 7.89974 1.33301 15.9999C1.33301 24.1001 7.8995 30.6666 15.9997 30.6666Z" fill="#F22435"/>
<g id="Union_2">
<path d="M16.0003 9.33325C15.2639 9.33325 14.667 9.93021 14.667 10.6666V17.3333C14.667 18.0696 15.2639 18.6666 16.0003 18.6666C16.7367 18.6666 17.3337 18.0696 17.3337 17.3333V10.6666C17.3337 9.93021 16.7367 9.33325 16.0003 9.33325Z" fill="white"/>
<path d="M16.0003 19.9999C15.2639 19.9999 14.667 20.5969 14.667 21.3333C14.667 22.0696 15.2639 22.6666 16.0003 22.6666C16.7367 22.6666 17.3337 22.0696 17.3337 21.3333C17.3337 20.5969 16.7367 19.9999 16.0003 19.9999Z" fill="white"/>
</g>
</g>
</svg>
