<svg width="108" height="13" viewBox="0 0 108 13" fill="none" xmlns="http://www.w3.org/2000/svg">
<path d="M3.54 4.42L5.1 0.688H6.66L5.7 4.42H3.54ZM0.42 4.42L1.98 0.688H3.54L2.58 4.42H0.42ZM7.69931 10V1.24H9.72731L10.5313 4C10.6193 4.288 10.6833 4.54 10.7233 4.756C10.7713 4.972 10.7993 5.124 10.8073 5.212C10.8153 5.124 10.8393 4.972 10.8793 4.756C10.9273 4.54 10.9913 4.288 11.0713 4L11.8633 1.24H13.8913V10H12.2473V7.6C12.2473 7.16 12.2553 6.7 12.2713 6.22C12.2953 5.732 12.3233 5.248 12.3553 4.768C12.3873 4.288 12.4233 3.84 12.4633 3.424C12.5033 3 12.5393 2.632 12.5713 2.32L11.5633 6.28H10.0393L8.98331 2.32C9.02331 2.616 9.06331 2.972 9.10331 3.388C9.14331 3.796 9.17931 4.24 9.21131 4.72C9.25131 5.192 9.28331 5.676 9.30731 6.172C9.33131 6.668 9.34331 7.144 9.34331 7.6V10H7.69931ZM17.9906 10.12C17.4066 10.12 16.8986 10.012 16.4666 9.796C16.0346 9.572 15.6986 9.264 15.4586 8.872C15.2266 8.472 15.1106 8.008 15.1106 7.48V5.92C15.1106 5.392 15.2266 4.932 15.4586 4.54C15.6986 4.14 16.0346 3.832 16.4666 3.616C16.8986 3.392 17.4066 3.28 17.9906 3.28C18.5826 3.28 19.0906 3.392 19.5146 3.616C19.9466 3.832 20.2786 4.14 20.5106 4.54C20.7506 4.932 20.8706 5.392 20.8706 5.92V7.48C20.8706 8.008 20.7506 8.472 20.5106 8.872C20.2786 9.264 19.9466 9.572 19.5146 9.796C19.0906 10.012 18.5826 10.12 17.9906 10.12ZM17.9906 8.56C18.3426 8.56 18.6106 8.468 18.7946 8.284C18.9786 8.092 19.0706 7.824 19.0706 7.48V5.92C19.0706 5.568 18.9786 5.3 18.7946 5.116C18.6106 4.932 18.3426 4.84 17.9906 4.84C17.6466 4.84 17.3786 4.932 17.1866 5.116C17.0026 5.3 16.9106 5.568 16.9106 5.92V7.48C16.9106 7.824 17.0026 8.092 17.1866 8.284C17.3786 8.468 17.6466 8.56 17.9906 8.56ZM24.5019 10.12C23.8379 10.12 23.3059 9.888 22.9059 9.424C22.5059 8.96 22.3059 8.332 22.3059 7.54V5.86C22.3059 5.076 22.5059 4.452 22.9059 3.988C23.3059 3.516 23.8379 3.28 24.5019 3.28C25.0459 3.28 25.4739 3.44 25.7859 3.76C26.0979 4.072 26.2539 4.512 26.2539 5.08L25.8339 4.66H26.2539L26.1939 3.04V1.24H27.9939V10H26.2539V8.74H25.8339L26.2539 8.32C26.2539 8.888 26.0979 9.332 25.7859 9.652C25.4739 9.964 25.0459 10.12 24.5019 10.12ZM25.1499 8.56C25.4779 8.56 25.7339 8.468 25.9179 8.284C26.1019 8.092 26.1939 7.824 26.1939 7.48V5.92C26.1939 5.576 26.1019 5.312 25.9179 5.128C25.7339 4.936 25.4779 4.84 25.1499 4.84C24.8139 4.84 24.5539 4.936 24.3699 5.128C24.1939 5.312 24.1059 5.576 24.1059 5.92V7.48C24.1059 7.824 24.1939 8.092 24.3699 8.284C24.5539 8.468 24.8139 8.56 25.1499 8.56ZM32.3933 10.12C31.8093 10.12 31.2973 10.012 30.8573 9.796C30.4253 9.572 30.0893 9.264 29.8493 8.872C29.6173 8.472 29.5013 8.008 29.5013 7.48V5.92C29.5013 5.392 29.6173 4.932 29.8493 4.54C30.0893 4.14 30.4253 3.832 30.8573 3.616C31.2973 3.392 31.8093 3.28 32.3933 3.28C32.9773 3.28 33.4813 3.392 33.9053 3.616C34.3373 3.832 34.6693 4.14 34.9013 4.54C35.1413 4.932 35.2613 5.392 35.2613 5.92V7.12H31.2173V7.48C31.2173 7.896 31.3173 8.212 31.5173 8.428C31.7173 8.636 32.0173 8.74 32.4173 8.74C32.6973 8.74 32.9213 8.692 33.0893 8.596C33.2653 8.5 33.3813 8.368 33.4373 8.2H35.2013C35.0573 8.776 34.7293 9.24 34.2173 9.592C33.7133 9.944 33.1053 10.12 32.3933 10.12ZM33.5453 6.196V5.896C33.5453 5.488 33.4493 5.176 33.2573 4.96C33.0733 4.744 32.7853 4.636 32.3933 4.636C32.0013 4.636 31.7053 4.748 31.5053 4.972C31.3133 5.196 31.2173 5.512 31.2173 5.92V6.1L33.6653 6.076L33.5453 6.196ZM40.6566 10C40.1926 10 39.7846 9.904 39.4326 9.712C39.0806 9.512 38.8046 9.236 38.6046 8.884C38.4126 8.532 38.3166 8.124 38.3166 7.66V2.86H36.2766V1.24H40.1166V7.66C40.1166 7.876 40.1806 8.052 40.3086 8.188C40.4446 8.316 40.6206 8.38 40.8366 8.38H42.7566V10H40.6566ZM51.1472 10V1.24H53.9672C54.5912 1.24 55.1312 1.348 55.5872 1.564C56.0432 1.78 56.3952 2.088 56.6432 2.488C56.8992 2.888 57.0272 3.36 57.0272 3.904C57.0272 4.472 56.8872 4.98 56.6072 5.428C56.3352 5.876 55.9632 6.2 55.4912 6.4L57.1472 10H55.1912L53.7752 6.688H52.9352V10H51.1472ZM52.9352 5.128H53.9672C54.3672 5.128 54.6752 5.028 54.8912 4.828C55.1152 4.628 55.2272 4.348 55.2272 3.988C55.2272 3.612 55.1152 3.32 54.8912 3.112C54.6752 2.904 54.3672 2.8 53.9672 2.8H52.9352V5.128ZM60.3105 10.12C59.6465 10.12 59.1185 9.94 58.7265 9.58C58.3425 9.22 58.1505 8.732 58.1505 8.116C58.1505 7.452 58.3785 6.944 58.8345 6.592C59.2985 6.232 59.9625 6.052 60.8265 6.052H62.1945V5.56C62.1945 5.304 62.1025 5.1 61.9185 4.948C61.7425 4.796 61.5025 4.72 61.1985 4.72C60.9185 4.72 60.6865 4.784 60.5025 4.912C60.3185 5.04 60.2065 5.216 60.1665 5.44H58.4265C58.4985 4.776 58.7865 4.252 59.2905 3.868C59.8025 3.476 60.4585 3.28 61.2585 3.28C62.0985 3.28 62.7625 3.488 63.2505 3.904C63.7465 4.312 63.9945 4.864 63.9945 5.56V10H62.2545V8.92H61.9665L62.2665 8.5C62.2665 8.996 62.0865 9.392 61.7265 9.688C61.3745 9.976 60.9025 10.12 60.3105 10.12ZM60.9825 8.8C61.3345 8.8 61.6225 8.708 61.8465 8.524C62.0785 8.332 62.1945 8.084 62.1945 7.78V7.072H60.8625C60.5905 7.072 60.3705 7.152 60.2025 7.312C60.0345 7.464 59.9505 7.668 59.9505 7.924C59.9505 8.196 60.0425 8.412 60.2265 8.572C60.4105 8.724 60.6625 8.8 60.9825 8.8ZM65.5498 10V3.4H67.2898V4.66H67.8178L67.2898 5.08C67.2898 4.52 67.4498 4.08 67.7698 3.76C68.0898 3.44 68.5218 3.28 69.0658 3.28C69.7058 3.28 70.2178 3.504 70.6018 3.952C70.9938 4.4 71.1898 4.996 71.1898 5.74V10H69.3898V5.92C69.3898 5.576 69.2978 5.312 69.1138 5.128C68.9378 4.936 68.6858 4.84 68.3578 4.84C68.0378 4.84 67.7898 4.936 67.6138 5.128C67.4378 5.312 67.3498 5.576 67.3498 5.92V10H65.5498ZM72.7811 10V1.24H74.5811V5.896H75.4691L76.8491 3.4H78.8531L77.0171 6.628L78.8891 10H76.8491L75.4571 7.408H74.5811V10H72.7811ZM79.9884 10V8.368H82.2684V5.02H80.2884V3.4H83.9484V8.368H85.8684V10H79.9884ZM82.9884 2.356C82.6604 2.356 82.3964 2.272 82.1964 2.104C82.0044 1.936 81.9084 1.708 81.9084 1.42C81.9084 1.132 82.0044 0.904 82.1964 0.736C82.3964 0.568 82.6604 0.483999 82.9884 0.483999C83.3164 0.483999 83.5764 0.568 83.7684 0.736C83.9684 0.904 84.0684 1.132 84.0684 1.42C84.0684 1.708 83.9684 1.936 83.7684 2.104C83.5764 2.272 83.3164 2.356 82.9884 2.356ZM87.1357 10V3.4H88.8758V4.66H89.4038L88.8758 5.08C88.8758 4.52 89.0358 4.08 89.3558 3.76C89.6758 3.44 90.1078 3.28 90.6518 3.28C91.2918 3.28 91.8038 3.504 92.1878 3.952C92.5798 4.4 92.7758 4.996 92.7758 5.74V10H90.9758V5.92C90.9758 5.576 90.8838 5.312 90.6998 5.128C90.5238 4.936 90.2718 4.84 89.9438 4.84C89.6238 4.84 89.3758 4.936 89.1998 5.128C89.0238 5.312 88.9358 5.576 88.9358 5.92V10H87.1357ZM95.2791 12.16V10.72H97.1391C97.4751 10.72 97.7311 10.636 97.9071 10.468C98.0911 10.3 98.1831 10.068 98.1831 9.772V9.52L98.2071 8.26H97.7871L98.2071 7.84C98.2071 8.408 98.0511 8.852 97.7391 9.172C97.4271 9.484 96.9991 9.64 96.4551 9.64C95.7911 9.64 95.2591 9.408 94.8591 8.944C94.4591 8.48 94.2591 7.852 94.2591 7.06V5.86C94.2591 5.076 94.4591 4.452 94.8591 3.988C95.2591 3.516 95.7911 3.28 96.4551 3.28C96.9991 3.28 97.4271 3.44 97.7391 3.76C98.0511 4.072 98.2071 4.512 98.2071 5.08L97.7871 4.66H98.2071L98.1471 3.4H99.9471V9.832C99.9471 10.552 99.6991 11.12 99.2031 11.536C98.7151 11.952 98.0471 12.16 97.1991 12.16H95.2791ZM97.1031 8.08C97.4311 8.08 97.6871 7.988 97.8711 7.804C98.0551 7.612 98.1471 7.344 98.1471 7V5.92C98.1471 5.576 98.0551 5.312 97.8711 5.128C97.6871 4.936 97.4311 4.84 97.1031 4.84C96.7671 4.84 96.5071 4.936 96.3231 5.128C96.1471 5.312 96.0591 5.576 96.0591 5.92V7C96.0591 7.344 96.1471 7.612 96.3231 7.804C96.5071 7.988 96.7671 8.08 97.1031 8.08ZM104.394 4.42L105.354 0.688H107.514L105.954 4.42H104.394ZM101.274 4.42L102.234 0.688H104.394L102.834 4.42H101.274Z" fill="#A6A6FF"/>
</svg>
