<svg width="25" height="24" viewBox="0 0 25 24" fill="none" xmlns="http://www.w3.org/2000/svg">
<mask id="mask0_3779_336852" style="mask-type:alpha" maskUnits="userSpaceOnUse" x="0" y="0" width="25" height="24">
<rect x="0.151611" width="24" height="24" fill="#D9D9D9"/>
</mask>
<g mask="url(#mask0_3779_336852)">
<path d="M9.22656 16.2502L12.1516 14.4752L15.0766 16.2502L14.3016 12.9252L16.9016 10.6752L13.4766 10.4002L12.1516 7.2502L10.8266 10.4002L7.40156 10.6752L10.0016 12.9252L9.22656 16.2502ZM12.1516 23.3002L8.80156 20.0002H4.15156V15.3502L0.851562 12.0002L4.15156 8.6502V4.0002H8.80156L12.1516 0.700195L15.5016 4.0002H20.1516V8.6502L23.4516 12.0002L20.1516 15.3502V20.0002H15.5016L12.1516 23.3002ZM12.1516 20.5002L14.6516 18.0002H18.1516V14.5002L20.6516 12.0002L18.1516 9.5002V6.0002H14.6516L12.1516 3.5002L9.65156 6.0002H6.15156V9.5002L3.65156 12.0002L6.15156 14.5002V18.0002H9.65156L12.1516 20.5002Z" fill="#4E40E5"/>
</g>
</svg>
