<svg width="25" height="24" viewBox="0 0 25 24" fill="none" xmlns="http://www.w3.org/2000/svg">
<mask id="mask0_3779_337191" style="mask-type:alpha" maskUnits="userSpaceOnUse" x="0" y="0" width="25" height="24">
<rect x="0.808105" width="24" height="24" fill="#D9D9D9"/>
</mask>
<g mask="url(#mask0_3779_337191)">
<path d="M6.80811 14H14.8081V12H6.80811V14ZM6.80811 11H18.8081V9H6.80811V11ZM6.80811 8H18.8081V6H6.80811V8ZM2.80811 22V4C2.80811 3.45 3.00394 2.97917 3.39561 2.5875C3.78727 2.19583 4.25811 2 4.80811 2H20.8081C21.3581 2 21.8289 2.19583 22.2206 2.5875C22.6123 2.97917 22.8081 3.45 22.8081 4V16C22.8081 16.55 22.6123 17.0208 22.2206 17.4125C21.8289 17.8042 21.3581 18 20.8081 18H6.80811L2.80811 22ZM5.95811 16H20.8081V4H4.80811V17.125L5.95811 16Z" fill="#4E40E5"/>
</g>
</svg>
