<svg width="25" height="24" viewBox="0 0 25 24" fill="none" xmlns="http://www.w3.org/2000/svg">
<mask id="mask0_3779_337098" style="mask-type:alpha" maskUnits="userSpaceOnUse" x="0" y="0" width="25" height="24">
<rect x="0.474854" width="24" height="24" fill="#D9D9D9"/>
</mask>
<g mask="url(#mask0_3779_337098)">
<path d="M10.0749 15.6L11.4749 14.175L9.29985 12L11.4749 9.825L10.0749 8.4L6.47485 12L10.0749 15.6ZM14.8749 15.6L18.4749 12L14.8749 8.4L13.4749 9.825L15.6499 12L13.4749 14.175L14.8749 15.6ZM5.47485 21C4.92485 21 4.45402 20.8042 4.06235 20.4125C3.67069 20.0208 3.47485 19.55 3.47485 19V5C3.47485 4.45 3.67069 3.97917 4.06235 3.5875C4.45402 3.19583 4.92485 3 5.47485 3H19.4749C20.0249 3 20.4957 3.19583 20.8874 3.5875C21.279 3.97917 21.4749 4.45 21.4749 5V19C21.4749 19.55 21.279 20.0208 20.8874 20.4125C20.4957 20.8042 20.0249 21 19.4749 21H5.47485ZM5.47485 19H19.4749V5H5.47485V19Z" fill="#4E40E5"/>
</g>
</svg>
