<svg width="25" height="24" viewBox="0 0 25 24" fill="none" xmlns="http://www.w3.org/2000/svg">
<mask id="mask0_3779_203610" style="mask-type:alpha" maskUnits="userSpaceOnUse" x="0" y="0" width="25" height="24">
<rect x="0.814941" width="24" height="24" fill="#D9D9D9"/>
</mask>
<g mask="url(#mask0_3779_203610)">
<path d="M12.8149 17C13.9149 17 14.8566 16.6083 15.6399 15.825C16.4233 15.0417 16.8149 14.1 16.8149 13H8.81494C8.81494 14.1 9.20661 15.0417 9.98994 15.825C10.7733 16.6083 11.7149 17 12.8149 17ZM7.81494 9H11.8149C11.8149 8.45 11.6191 7.97917 11.2274 7.5875C10.8358 7.19583 10.3649 7 9.81494 7C9.26494 7 8.79411 7.19583 8.40244 7.5875C8.01077 7.97917 7.81494 8.45 7.81494 9ZM13.8149 9H17.8149C17.8149 8.45 17.6191 7.97917 17.2274 7.5875C16.8358 7.19583 16.3649 7 15.8149 7C15.2649 7 14.7941 7.19583 14.4024 7.5875C14.0108 7.97917 13.8149 8.45 13.8149 9ZM12.8149 22C11.5649 22 10.3941 21.7625 9.30244 21.2875C8.21077 20.8125 7.26077 20.1708 6.45244 19.3625C5.64411 18.5542 5.00244 17.6042 4.52744 16.5125C4.05244 15.4208 3.81494 14.25 3.81494 13V2H21.8149V13C21.8149 14.25 21.5774 15.4208 21.1024 16.5125C20.6274 17.6042 19.9858 18.5542 19.1774 19.3625C18.3691 20.1708 17.4191 20.8125 16.3274 21.2875C15.2358 21.7625 14.0649 22 12.8149 22ZM12.8149 20C14.7483 20 16.3983 19.3167 17.7649 17.95C19.1316 16.5833 19.8149 14.9333 19.8149 13V4H5.81494V13C5.81494 14.9333 6.49827 16.5833 7.86494 17.95C9.23161 19.3167 10.8816 20 12.8149 20Z" fill="#4E40E5"/>
</g>
</svg>
