<svg width="25" height="24" viewBox="0 0 25 24" fill="none" xmlns="http://www.w3.org/2000/svg">
<mask id="mask0_3779_203637" style="mask-type:alpha" maskUnits="userSpaceOnUse" x="0" y="0" width="25" height="25">
<rect x="0.14502" y="0.00390625" width="24" height="24" fill="#D9D9D9"/>
</mask>
<g mask="url(#mask0_3779_203637)">
<path d="M19.045 21.0035L13.57 15.5285L15.67 13.4285L21.145 18.9035L19.045 21.0035ZM5.24502 21.0035L3.14502 18.9035L10.045 12.0035L8.34502 10.3035L7.64502 11.0035L6.37002 9.72852V11.7785L5.67002 12.4785L2.64502 9.45352L3.34502 8.75352H5.39502L4.14502 7.50352L7.69502 3.95352C8.02835 3.62018 8.38669 3.37852 8.77002 3.22852C9.15335 3.07852 9.54502 3.00352 9.94502 3.00352C10.345 3.00352 10.7367 3.07852 11.12 3.22852C11.5034 3.37852 11.8617 3.62018 12.195 3.95352L9.89502 6.25352L11.145 7.50352L10.445 8.20352L12.145 9.90352L14.395 7.65352C14.3284 7.47018 14.2742 7.27852 14.2325 7.07852C14.1909 6.87852 14.17 6.67852 14.17 6.47852C14.17 5.49518 14.5075 4.66602 15.1825 3.99102C15.8575 3.31602 16.6867 2.97852 17.67 2.97852C17.92 2.97852 18.1575 3.00352 18.3825 3.05352C18.6075 3.10352 18.8367 3.17852 19.07 3.27852L16.595 5.75352L18.395 7.55352L20.87 5.07852C20.9867 5.31185 21.0659 5.54102 21.1075 5.76602C21.1492 5.99102 21.17 6.22852 21.17 6.47852C21.17 7.46185 20.8325 8.29102 20.1575 8.96602C19.4825 9.64102 18.6534 9.97852 17.67 9.97852C17.47 9.97852 17.27 9.96185 17.07 9.92852C16.87 9.89518 16.6784 9.83685 16.495 9.75352L5.24502 21.0035Z" fill="#4E40E5"/>
</g>
</svg>
