<svg width="25" height="25" viewBox="0 0 25 25" fill="none" xmlns="http://www.w3.org/2000/svg">
<mask id="mask0_3779_336705" style="mask-type:alpha" maskUnits="userSpaceOnUse" x="0" y="0" width="25" height="25">
<rect x="0.0244141" y="0.0117188" width="24" height="24" fill="#D9D9D9"/>
</mask>
<g mask="url(#mask0_3779_336705)">
<path d="M14.0244 9.91172V8.21172C14.5744 7.97839 15.1369 7.80339 15.7119 7.68672C16.2869 7.57005 16.8911 7.51172 17.5244 7.51172C17.9577 7.51172 18.3827 7.54505 18.7994 7.61172C19.2161 7.67839 19.6244 7.76172 20.0244 7.86172V9.46172C19.6244 9.31172 19.2202 9.19922 18.8119 9.12422C18.4036 9.04922 17.9744 9.01172 17.5244 9.01172C16.8911 9.01172 16.2827 9.09089 15.6994 9.24922C15.1161 9.40755 14.5577 9.62839 14.0244 9.91172ZM14.0244 15.4117V13.7117C14.5744 13.4784 15.1369 13.3034 15.7119 13.1867C16.2869 13.0701 16.8911 13.0117 17.5244 13.0117C17.9577 13.0117 18.3827 13.0451 18.7994 13.1117C19.2161 13.1784 19.6244 13.2617 20.0244 13.3617V14.9617C19.6244 14.8117 19.2202 14.6992 18.8119 14.6242C18.4036 14.5492 17.9744 14.5117 17.5244 14.5117C16.8911 14.5117 16.2827 14.5867 15.6994 14.7367C15.1161 14.8867 14.5577 15.1117 14.0244 15.4117ZM14.0244 12.6617V10.9617C14.5744 10.7284 15.1369 10.5534 15.7119 10.4367C16.2869 10.3201 16.8911 10.2617 17.5244 10.2617C17.9577 10.2617 18.3827 10.2951 18.7994 10.3617C19.2161 10.4284 19.6244 10.5117 20.0244 10.6117V12.2117C19.6244 12.0617 19.2202 11.9492 18.8119 11.8742C18.4036 11.7992 17.9744 11.7617 17.5244 11.7617C16.8911 11.7617 16.2827 11.8409 15.6994 11.9992C15.1161 12.1576 14.5577 12.3784 14.0244 12.6617ZM6.52441 16.0117C7.30775 16.0117 8.07025 16.0992 8.81191 16.2742C9.55358 16.4492 10.2911 16.7117 11.0244 17.0617V7.21172C10.3411 6.81172 9.61608 6.51172 8.84941 6.31172C8.08275 6.11172 7.30775 6.01172 6.52441 6.01172C5.92441 6.01172 5.32858 6.07005 4.73691 6.18672C4.14525 6.30339 3.57441 6.47839 3.02441 6.71172V16.6117C3.60775 16.4117 4.18691 16.2617 4.76191 16.1617C5.33691 16.0617 5.92441 16.0117 6.52441 16.0117ZM13.0244 17.0617C13.7577 16.7117 14.4952 16.4492 15.2369 16.2742C15.9786 16.0992 16.7411 16.0117 17.5244 16.0117C18.1244 16.0117 18.7119 16.0617 19.2869 16.1617C19.8619 16.2617 20.4411 16.4117 21.0244 16.6117V6.71172C20.4744 6.47839 19.9036 6.30339 19.3119 6.18672C18.7202 6.07005 18.1244 6.01172 17.5244 6.01172C16.7411 6.01172 15.9661 6.11172 15.1994 6.31172C14.4327 6.51172 13.7077 6.81172 13.0244 7.21172V17.0617ZM12.0244 20.0117C11.2244 19.3784 10.3577 18.8867 9.42441 18.5367C8.49108 18.1867 7.52441 18.0117 6.52441 18.0117C5.82441 18.0117 5.13691 18.1034 4.46191 18.2867C3.78691 18.4701 3.14108 18.7284 2.52441 19.0617C2.17441 19.2451 1.83691 19.2367 1.51191 19.0367C1.18691 18.8367 1.02441 18.5451 1.02441 18.1617V6.11172C1.02441 5.92839 1.07025 5.75339 1.16191 5.58672C1.25358 5.42005 1.39108 5.29505 1.57441 5.21172C2.34108 4.81172 3.14108 4.51172 3.97441 4.31172C4.80775 4.11172 5.65775 4.01172 6.52441 4.01172C7.49108 4.01172 8.43691 4.13672 9.36191 4.38672C10.2869 4.63672 11.1744 5.01172 12.0244 5.51172C12.8744 5.01172 13.7619 4.63672 14.6869 4.38672C15.6119 4.13672 16.5577 4.01172 17.5244 4.01172C18.3911 4.01172 19.2411 4.11172 20.0744 4.31172C20.9077 4.51172 21.7077 4.81172 22.4744 5.21172C22.6577 5.29505 22.7952 5.42005 22.8869 5.58672C22.9786 5.75339 23.0244 5.92839 23.0244 6.11172V18.1617C23.0244 18.5451 22.8619 18.8367 22.5369 19.0367C22.2119 19.2367 21.8744 19.2451 21.5244 19.0617C20.9077 18.7284 20.2619 18.4701 19.5869 18.2867C18.9119 18.1034 18.2244 18.0117 17.5244 18.0117C16.5244 18.0117 15.5577 18.1867 14.6244 18.5367C13.6911 18.8867 12.8244 19.3784 12.0244 20.0117Z" fill="#4E40E5"/>
</g>
</svg>
