<svg width="25" height="24" viewBox="0 0 25 24" fill="none" xmlns="http://www.w3.org/2000/svg">
<mask id="mask0_3779_203664" style="mask-type:alpha" maskUnits="userSpaceOnUse" x="0" y="0" width="25" height="24">
<rect x="0.484985" width="24" height="24" fill="#D9D9D9"/>
</mask>
<g mask="url(#mask0_3779_203664)">
<path d="M6.48499 22V17.7C5.53499 16.8333 4.79749 15.8208 4.27249 14.6625C3.74749 13.5042 3.48499 12.2833 3.48499 11C3.48499 8.5 4.35999 6.375 6.10999 4.625C7.85999 2.875 9.98499 2 12.485 2C14.5683 2 16.4142 2.6125 18.0225 3.8375C19.6308 5.0625 20.6767 6.65833 21.16 8.625L22.46 13.75C22.5433 14.0667 22.485 14.3542 22.285 14.6125C22.085 14.8708 21.8183 15 21.485 15H19.485V18C19.485 18.55 19.2892 19.0208 18.8975 19.4125C18.5058 19.8042 18.035 20 17.485 20H15.485V22H13.485V18H17.485V13H20.185L19.235 9.125C18.8517 7.60833 18.035 6.375 16.785 5.425C15.535 4.475 14.1017 4 12.485 4C10.5517 4 8.90165 4.675 7.53499 6.025C6.16832 7.375 5.48499 9.01667 5.48499 10.95C5.48499 11.95 5.68915 12.9 6.09749 13.8C6.50582 14.7 7.08499 15.5 7.83499 16.2L8.48499 16.8V22H6.48499ZM11.485 15H13.485L13.635 13.75C13.7683 13.7 13.8892 13.6417 13.9975 13.575C14.1058 13.5083 14.2017 13.4333 14.285 13.35L15.435 13.85L16.435 12.15L15.435 11.4C15.4683 11.2667 15.485 11.1333 15.485 11C15.485 10.8667 15.4683 10.7333 15.435 10.6L16.435 9.85L15.435 8.15L14.285 8.65C14.2017 8.56667 14.1058 8.49167 13.9975 8.425C13.8892 8.35833 13.7683 8.3 13.635 8.25L13.485 7H11.485L11.335 8.25C11.2017 8.3 11.0808 8.35833 10.9725 8.425C10.8642 8.49167 10.7683 8.56667 10.685 8.65L9.53499 8.15L8.53499 9.85L9.53499 10.6C9.50165 10.7333 9.48499 10.8667 9.48499 11C9.48499 11.1333 9.50165 11.2667 9.53499 11.4L8.53499 12.15L9.53499 13.85L10.685 13.35C10.7683 13.4333 10.8642 13.5083 10.9725 13.575C11.0808 13.6417 11.2017 13.7 11.335 13.75L11.485 15ZM12.485 12.5C12.0683 12.5 11.7142 12.3542 11.4225 12.0625C11.1308 11.7708 10.985 11.4167 10.985 11C10.985 10.5833 11.1308 10.2292 11.4225 9.9375C11.7142 9.64583 12.0683 9.5 12.485 9.5C12.9017 9.5 13.2558 9.64583 13.5475 9.9375C13.8392 10.2292 13.985 10.5833 13.985 11C13.985 11.4167 13.8392 11.7708 13.5475 12.0625C13.2558 12.3542 12.9017 12.5 12.485 12.5Z" fill="#4E40E5"/>
</g>
</svg>
