<svg width="644" height="16" viewBox="0 0 644 16" fill="none" xmlns="http://www.w3.org/2000/svg">
<path d="M3.132 8.176C3.7 8.176 4.124 8.048 4.404 7.792C4.692 7.528 4.836 7.192 4.836 6.784V6.7C4.836 6.26 4.696 5.932 4.416 5.716C4.144 5.492 3.784 5.38 3.336 5.38C2.904 5.38 2.552 5.476 2.28 5.668C2.008 5.852 1.784 6.104 1.608 6.424L0.864 5.848C0.968 5.68 1.092 5.516 1.236 5.356C1.388 5.188 1.564 5.04 1.764 4.912C1.964 4.784 2.196 4.68 2.46 4.6C2.724 4.52 3.024 4.48 3.36 4.48C3.712 4.48 4.044 4.528 4.356 4.624C4.668 4.712 4.936 4.848 5.16 5.032C5.392 5.208 5.572 5.428 5.7 5.692C5.836 5.956 5.904 6.256 5.904 6.592C5.904 6.864 5.86 7.108 5.772 7.324C5.692 7.54 5.58 7.728 5.436 7.888C5.292 8.048 5.12 8.184 4.92 8.296C4.728 8.408 4.52 8.492 4.296 8.548V8.596C4.52 8.644 4.736 8.724 4.944 8.836C5.16 8.94 5.348 9.08 5.508 9.256C5.676 9.424 5.808 9.632 5.904 9.88C6.008 10.12 6.06 10.396 6.06 10.708C6.06 11.068 5.992 11.4 5.856 11.704C5.72 12 5.528 12.256 5.28 12.472C5.032 12.68 4.732 12.844 4.38 12.964C4.028 13.084 3.64 13.144 3.216 13.144C2.856 13.144 2.536 13.104 2.256 13.024C1.976 12.944 1.728 12.836 1.512 12.7C1.296 12.564 1.104 12.412 0.936 12.244C0.776 12.076 0.632 11.9 0.504 11.716L1.26 11.14C1.364 11.308 1.476 11.46 1.596 11.596C1.724 11.732 1.864 11.848 2.016 11.944C2.168 12.04 2.34 12.116 2.532 12.172C2.724 12.22 2.948 12.244 3.204 12.244C3.796 12.244 4.244 12.112 4.548 11.848C4.852 11.576 5.004 11.192 5.004 10.696V10.6C5.004 10.104 4.852 9.724 4.548 9.46C4.244 9.188 3.796 9.052 3.204 9.052H2.22V8.176H3.132ZM12.0953 4.624V9.808C12.0953 10.608 12.2433 11.216 12.5393 11.632C12.8353 12.04 13.3553 12.244 14.0993 12.244C14.8433 12.244 15.3633 12.04 15.6593 11.632C15.9553 11.216 16.1033 10.608 16.1033 9.808V4.624H17.1113V9.568C17.1113 10.176 17.0553 10.704 16.9433 11.152C16.8393 11.6 16.6673 11.972 16.4273 12.268C16.1873 12.564 15.8713 12.784 15.4793 12.928C15.0953 13.072 14.6233 13.144 14.0633 13.144C13.5033 13.144 13.0313 13.072 12.6473 12.928C12.2713 12.784 11.9673 12.564 11.7353 12.268C11.5033 11.972 11.3353 11.6 11.2313 11.152C11.1353 10.704 11.0873 10.176 11.0873 9.568V4.624H12.0953ZM21.0441 13.144C20.4681 13.144 19.9841 13.036 19.5921 12.82C19.2081 12.596 18.8761 12.3 18.5961 11.932L19.2801 11.38C19.5201 11.684 19.7881 11.92 20.0841 12.088C20.3801 12.248 20.7241 12.328 21.1161 12.328C21.5241 12.328 21.8401 12.24 22.0641 12.064C22.2961 11.888 22.4121 11.64 22.4121 11.32C22.4121 11.08 22.3321 10.876 22.1721 10.708C22.0201 10.532 21.7401 10.412 21.3321 10.348L20.8401 10.276C20.5521 10.236 20.2881 10.176 20.0481 10.096C19.8081 10.008 19.5961 9.896 19.4121 9.76C19.2361 9.616 19.0961 9.44 18.9921 9.232C18.8961 9.024 18.8481 8.776 18.8481 8.488C18.8481 8.184 18.9041 7.92 19.0161 7.696C19.1281 7.464 19.2801 7.272 19.4721 7.12C19.6721 6.968 19.9081 6.856 20.1801 6.784C20.4521 6.704 20.7441 6.664 21.0561 6.664C21.5601 6.664 21.9801 6.752 22.3161 6.928C22.6601 7.104 22.9601 7.348 23.2161 7.66L22.5801 8.236C22.4441 8.044 22.2441 7.872 21.9801 7.72C21.7161 7.56 21.3841 7.48 20.9841 7.48C20.5841 7.48 20.2801 7.568 20.0721 7.744C19.8721 7.912 19.7721 8.144 19.7721 8.44C19.7721 8.744 19.8721 8.964 20.0721 9.1C20.2801 9.236 20.5761 9.336 20.9601 9.4L21.4401 9.472C22.1281 9.576 22.6161 9.776 22.9041 10.072C23.1921 10.36 23.3361 10.74 23.3361 11.212C23.3361 11.812 23.1321 12.284 22.7241 12.628C22.3161 12.972 21.7561 13.144 21.0441 13.144ZM27.3597 13.144C26.9357 13.144 26.5517 13.068 26.2077 12.916C25.8717 12.764 25.5797 12.548 25.3317 12.268C25.0917 11.98 24.9037 11.64 24.7677 11.248C24.6397 10.848 24.5757 10.4 24.5757 9.904C24.5757 9.416 24.6397 8.972 24.7677 8.572C24.9037 8.172 25.0917 7.832 25.3317 7.552C25.5797 7.264 25.8717 7.044 26.2077 6.892C26.5517 6.74 26.9357 6.664 27.3597 6.664C27.7757 6.664 28.1477 6.74 28.4757 6.892C28.8037 7.044 29.0837 7.256 29.3157 7.528C29.5477 7.792 29.7237 8.108 29.8437 8.476C29.9717 8.844 30.0357 9.248 30.0357 9.688V10.144H25.5837V10.432C25.5837 10.696 25.6237 10.944 25.7037 11.176C25.7917 11.4 25.9117 11.596 26.0637 11.764C26.2237 11.932 26.4157 12.064 26.6397 12.16C26.8717 12.256 27.1317 12.304 27.4197 12.304C27.8117 12.304 28.1517 12.212 28.4397 12.028C28.7357 11.844 28.9637 11.58 29.1237 11.236L29.8077 11.728C29.6077 12.152 29.2957 12.496 28.8717 12.76C28.4477 13.016 27.9437 13.144 27.3597 13.144ZM27.3597 7.468C27.0957 7.468 26.8557 7.516 26.6397 7.612C26.4237 7.7 26.2357 7.828 26.0757 7.996C25.9237 8.164 25.8037 8.364 25.7157 8.596C25.6277 8.82 25.5837 9.068 25.5837 9.34V9.424H29.0037V9.292C29.0037 8.74 28.8517 8.3 28.5477 7.972C28.2517 7.636 27.8557 7.468 27.3597 7.468Z" fill="#060709" fill-opacity="0.5"/>
<rect x="37.5" y="6.5" width="3" height="3" rx="1.5" fill="#060709" fill-opacity="0.3"/>
<path d="M52.976 5.512H49.304L49.064 8.704H49.148C49.348 8.424 49.572 8.2 49.82 8.032C50.076 7.864 50.424 7.78 50.864 7.78C51.224 7.78 51.556 7.84 51.86 7.96C52.164 8.08 52.428 8.252 52.652 8.476C52.876 8.692 53.048 8.96 53.168 9.28C53.296 9.6 53.36 9.964 53.36 10.372C53.36 10.78 53.296 11.156 53.168 11.5C53.04 11.836 52.852 12.128 52.604 12.376C52.364 12.616 52.068 12.804 51.716 12.94C51.372 13.076 50.98 13.144 50.54 13.144C50.188 13.144 49.876 13.104 49.604 13.024C49.34 12.944 49.104 12.836 48.896 12.7C48.688 12.564 48.504 12.412 48.344 12.244C48.192 12.076 48.052 11.9 47.924 11.716L48.68 11.14C48.784 11.308 48.892 11.46 49.004 11.596C49.124 11.732 49.252 11.848 49.388 11.944C49.532 12.04 49.696 12.116 49.88 12.172C50.064 12.22 50.284 12.244 50.54 12.244C51.116 12.244 51.552 12.092 51.848 11.788C52.144 11.484 52.292 11.056 52.292 10.504V10.384C52.292 9.832 52.144 9.404 51.848 9.1C51.552 8.796 51.116 8.644 50.54 8.644C50.156 8.644 49.852 8.716 49.628 8.86C49.412 8.996 49.216 9.16 49.04 9.352L48.188 9.232L48.488 4.624H52.976V5.512ZM61.0993 13.144C60.0353 13.144 59.2073 12.784 58.6152 12.064C58.0233 11.336 57.7273 10.268 57.7273 8.86C57.7273 7.452 58.0233 6.372 58.6152 5.62C59.2073 4.86 60.0353 4.48 61.0993 4.48C61.8033 4.48 62.3913 4.64 62.8633 4.96C63.3433 5.28 63.7153 5.732 63.9793 6.316L63.1633 6.808C62.9953 6.376 62.7393 6.032 62.3953 5.776C62.0513 5.512 61.6193 5.38 61.0993 5.38C60.7393 5.38 60.4153 5.448 60.1273 5.584C59.8473 5.72 59.6073 5.916 59.4073 6.172C59.2153 6.42 59.0673 6.72 58.9633 7.072C58.8593 7.416 58.8073 7.804 58.8073 8.236V9.484C58.8073 10.348 59.0073 11.024 59.4073 11.512C59.8073 12 60.3713 12.244 61.0993 12.244C61.6353 12.244 62.0833 12.108 62.4433 11.836C62.8033 11.556 63.0673 11.188 63.2353 10.732L64.0393 11.236C63.7753 11.828 63.3953 12.296 62.8993 12.64C62.4033 12.976 61.8033 13.144 61.0993 13.144ZM67.8444 13.144C67.4284 13.144 67.0484 13.068 66.7044 12.916C66.3604 12.764 66.0644 12.548 65.8164 12.268C65.5764 11.98 65.3884 11.64 65.2524 11.248C65.1164 10.848 65.0484 10.4 65.0484 9.904C65.0484 9.416 65.1164 8.972 65.2524 8.572C65.3884 8.172 65.5764 7.832 65.8164 7.552C66.0644 7.264 66.3604 7.044 66.7044 6.892C67.0484 6.74 67.4284 6.664 67.8444 6.664C68.2604 6.664 68.6364 6.74 68.9724 6.892C69.3164 7.044 69.6124 7.264 69.8604 7.552C70.1084 7.832 70.3004 8.172 70.4364 8.572C70.5724 8.972 70.6404 9.416 70.6404 9.904C70.6404 10.4 70.5724 10.848 70.4364 11.248C70.3004 11.64 70.1084 11.98 69.8604 12.268C69.6124 12.548 69.3164 12.764 68.9724 12.916C68.6364 13.068 68.2604 13.144 67.8444 13.144ZM67.8444 12.292C68.3644 12.292 68.7884 12.132 69.1164 11.812C69.4444 11.492 69.6084 11.004 69.6084 10.348V9.46C69.6084 8.804 69.4444 8.316 69.1164 7.996C68.7884 7.676 68.3644 7.516 67.8444 7.516C67.3244 7.516 66.9004 7.676 66.5724 7.996C66.2444 8.316 66.0804 8.804 66.0804 9.46V10.348C66.0804 11.004 66.2444 11.492 66.5724 11.812C66.9004 12.132 67.3244 12.292 67.8444 12.292ZM73.2392 13C72.9032 13 72.6472 12.908 72.4712 12.724C72.3032 12.532 72.2192 12.292 72.2192 12.004V4.12H73.1792V12.16H74.0912V13H73.2392ZM76.4502 13C76.1142 13 75.8582 12.908 75.6822 12.724C75.5142 12.532 75.4302 12.292 75.4302 12.004V4.12H76.3902V12.16H77.3022V13H76.4502ZM81.0277 13.144C80.6037 13.144 80.2197 13.068 79.8757 12.916C79.5397 12.764 79.2477 12.548 78.9997 12.268C78.7597 11.98 78.5717 11.64 78.4357 11.248C78.3077 10.848 78.2437 10.4 78.2437 9.904C78.2437 9.416 78.3077 8.972 78.4357 8.572C78.5717 8.172 78.7597 7.832 78.9997 7.552C79.2477 7.264 79.5397 7.044 79.8757 6.892C80.2197 6.74 80.6037 6.664 81.0277 6.664C81.4437 6.664 81.8157 6.74 82.1437 6.892C82.4717 7.044 82.7517 7.256 82.9837 7.528C83.2157 7.792 83.3917 8.108 83.5117 8.476C83.6397 8.844 83.7037 9.248 83.7037 9.688V10.144H79.2517V10.432C79.2517 10.696 79.2917 10.944 79.3717 11.176C79.4597 11.4 79.5797 11.596 79.7317 11.764C79.8917 11.932 80.0837 12.064 80.3077 12.16C80.5397 12.256 80.7997 12.304 81.0877 12.304C81.4797 12.304 81.8197 12.212 82.1077 12.028C82.4037 11.844 82.6317 11.58 82.7917 11.236L83.4757 11.728C83.2757 12.152 82.9637 12.496 82.5397 12.76C82.1157 13.016 81.6117 13.144 81.0277 13.144ZM81.0277 7.468C80.7637 7.468 80.5237 7.516 80.3077 7.612C80.0917 7.7 79.9037 7.828 79.7437 7.996C79.5917 8.164 79.4717 8.364 79.3837 8.596C79.2957 8.82 79.2517 9.068 79.2517 9.34V9.424H82.6717V9.292C82.6717 8.74 82.5197 8.3 82.2157 7.972C81.9197 7.636 81.5237 7.468 81.0277 7.468ZM87.5896 13.144C87.1576 13.144 86.7696 13.068 86.4256 12.916C86.0816 12.764 85.7896 12.548 85.5496 12.268C85.3176 11.988 85.1376 11.648 85.0096 11.248C84.8896 10.848 84.8296 10.4 84.8296 9.904C84.8296 9.408 84.8896 8.96 85.0096 8.56C85.1376 8.16 85.3176 7.82 85.5496 7.54C85.7896 7.26 86.0816 7.044 86.4256 6.892C86.7696 6.74 87.1576 6.664 87.5896 6.664C88.2056 6.664 88.6976 6.8 89.0656 7.072C89.4416 7.336 89.7216 7.684 89.9056 8.116L89.1016 8.524C88.9896 8.204 88.8056 7.956 88.5496 7.78C88.2936 7.604 87.9736 7.516 87.5896 7.516C87.3016 7.516 87.0496 7.564 86.8336 7.66C86.6176 7.748 86.4376 7.876 86.2936 8.044C86.1496 8.204 86.0416 8.4 85.9696 8.632C85.8976 8.856 85.8616 9.104 85.8616 9.376V10.432C85.8616 10.976 86.0056 11.424 86.2936 11.776C86.5896 12.12 87.0216 12.292 87.5896 12.292C88.3656 12.292 88.9256 11.932 89.2696 11.212L89.9656 11.68C89.7656 12.128 89.4656 12.484 89.0656 12.748C88.6736 13.012 88.1816 13.144 87.5896 13.144ZM92.6888 13C92.3528 13 92.0968 12.908 91.9208 12.724C91.7528 12.532 91.6688 12.284 91.6688 11.98V7.648H90.6488V6.808H91.2248C91.4328 6.808 91.5728 6.768 91.6448 6.688C91.7248 6.6 91.7648 6.452 91.7648 6.244V5.092H92.6288V6.808H93.9848V7.648H92.6288V12.16H93.8888V13H92.6888Z" fill="#060709" fill-opacity="0.5"/>
<rect x="101.5" y="6.5" width="3" height="3" rx="1.5" fill="#060709" fill-opacity="0.3"/>
<path d="M112.056 13V12.112H114.396V5.368H114.312L112.2 7.336L111.612 6.7L113.832 4.624H115.404V12.112H117.564V13H112.056ZM124.591 7.696C124.591 8.32 124.499 8.908 124.315 9.46C124.131 10.004 123.891 10.504 123.595 10.96C123.307 11.408 122.987 11.808 122.635 12.16C122.283 12.504 121.939 12.784 121.603 13H120.307C120.755 12.672 121.155 12.352 121.507 12.04C121.859 11.728 122.167 11.404 122.431 11.068C122.695 10.724 122.919 10.36 123.103 9.976C123.287 9.584 123.435 9.144 123.547 8.656L123.487 8.632C123.287 8.976 123.027 9.264 122.707 9.496C122.395 9.72 121.983 9.832 121.471 9.832C121.111 9.832 120.779 9.772 120.475 9.652C120.171 9.532 119.911 9.36 119.695 9.136C119.479 8.912 119.307 8.644 119.179 8.332C119.059 8.012 118.999 7.652 118.999 7.252C118.999 6.844 119.063 6.472 119.191 6.136C119.327 5.792 119.515 5.5 119.755 5.26C120.003 5.012 120.295 4.82 120.631 4.684C120.975 4.548 121.359 4.48 121.783 4.48C122.215 4.48 122.603 4.556 122.947 4.708C123.299 4.852 123.595 5.064 123.835 5.344C124.083 5.616 124.271 5.952 124.399 6.352C124.527 6.752 124.591 7.2 124.591 7.696ZM121.795 8.98C122.347 8.98 122.775 8.828 123.079 8.524C123.391 8.22 123.547 7.784 123.547 7.216V7.12C123.547 6.552 123.391 6.116 123.079 5.812C122.775 5.508 122.347 5.356 121.795 5.356C121.243 5.356 120.811 5.508 120.499 5.812C120.195 6.116 120.043 6.552 120.043 7.12V7.216C120.043 7.784 120.195 8.22 120.499 8.524C120.811 8.828 121.243 8.98 121.795 8.98ZM128.991 13.144C127.991 13.144 127.259 12.764 126.795 12.004C126.339 11.244 126.111 10.18 126.111 8.812C126.111 7.444 126.339 6.38 126.795 5.62C127.259 4.86 127.991 4.48 128.991 4.48C129.991 4.48 130.719 4.86 131.175 5.62C131.639 6.38 131.871 7.444 131.871 8.812C131.871 10.18 131.639 11.244 131.175 12.004C130.719 12.764 129.991 13.144 128.991 13.144ZM128.991 12.268C129.319 12.268 129.599 12.2 129.831 12.064C130.063 11.928 130.251 11.736 130.395 11.488C130.539 11.24 130.643 10.948 130.707 10.612C130.779 10.276 130.815 9.904 130.815 9.496V8.128C130.815 7.72 130.779 7.348 130.707 7.012C130.643 6.676 130.539 6.384 130.395 6.136C130.251 5.888 130.063 5.696 129.831 5.56C129.599 5.424 129.319 5.356 128.991 5.356C128.663 5.356 128.383 5.424 128.151 5.56C127.919 5.696 127.731 5.888 127.587 6.136C127.443 6.384 127.335 6.676 127.263 7.012C127.199 7.348 127.167 7.72 127.167 8.128V9.496C127.167 9.904 127.199 10.276 127.263 10.612C127.335 10.948 127.443 11.24 127.587 11.488C127.731 11.736 127.919 11.928 128.151 12.064C128.383 12.2 128.663 12.268 128.991 12.268ZM133.642 13V12.112H135.982V5.368H135.898L133.786 7.336L133.198 6.7L135.418 4.624H136.99V12.112H139.15V13H133.642ZM146.553 5.512V13H145.545V5.512H142.881V4.624H149.217V5.512H146.553ZM150.504 4.12H151.464V7.816H151.512C151.664 7.464 151.876 7.184 152.148 6.976C152.428 6.768 152.8 6.664 153.264 6.664C153.904 6.664 154.408 6.872 154.776 7.288C155.152 7.696 155.34 8.276 155.34 9.028V13H154.38V9.196C154.38 8.084 153.912 7.528 152.976 7.528C152.784 7.528 152.596 7.552 152.412 7.6C152.236 7.648 152.076 7.72 151.932 7.816C151.788 7.912 151.672 8.036 151.584 8.188C151.504 8.332 151.464 8.504 151.464 8.704V13H150.504V4.12ZM159.665 13.144C159.249 13.144 158.869 13.068 158.525 12.916C158.181 12.764 157.885 12.548 157.637 12.268C157.397 11.98 157.209 11.64 157.073 11.248C156.937 10.848 156.869 10.4 156.869 9.904C156.869 9.416 156.937 8.972 157.073 8.572C157.209 8.172 157.397 7.832 157.637 7.552C157.885 7.264 158.181 7.044 158.525 6.892C158.869 6.74 159.249 6.664 159.665 6.664C160.081 6.664 160.457 6.74 160.793 6.892C161.137 7.044 161.433 7.264 161.681 7.552C161.929 7.832 162.121 8.172 162.257 8.572C162.393 8.972 162.461 9.416 162.461 9.904C162.461 10.4 162.393 10.848 162.257 11.248C162.121 11.64 161.929 11.98 161.681 12.268C161.433 12.548 161.137 12.764 160.793 12.916C160.457 13.068 160.081 13.144 159.665 13.144ZM159.665 12.292C160.185 12.292 160.609 12.132 160.937 11.812C161.265 11.492 161.429 11.004 161.429 10.348V9.46C161.429 8.804 161.265 8.316 160.937 7.996C160.609 7.676 160.185 7.516 159.665 7.516C159.145 7.516 158.721 7.676 158.393 7.996C158.065 8.316 157.901 8.804 157.901 9.46V10.348C157.901 11.004 158.065 11.492 158.393 11.812C158.721 12.132 159.145 12.292 159.665 12.292ZM164.04 13V6.808H165V7.948H165.06C165.172 7.652 165.372 7.388 165.66 7.156C165.948 6.924 166.344 6.808 166.848 6.808H167.22V7.768H166.656C166.136 7.768 165.728 7.868 165.432 8.068C165.144 8.26 165 8.504 165 8.8V13H164.04ZM168.446 13V6.808H169.406V7.816H169.454C169.606 7.464 169.818 7.184 170.09 6.976C170.37 6.768 170.742 6.664 171.206 6.664C171.846 6.664 172.35 6.872 172.718 7.288C173.094 7.696 173.282 8.276 173.282 9.028V13H172.322V9.196C172.322 8.084 171.854 7.528 170.918 7.528C170.726 7.528 170.538 7.552 170.354 7.6C170.178 7.648 170.018 7.72 169.874 7.816C169.73 7.912 169.614 8.036 169.526 8.188C169.446 8.332 169.406 8.504 169.406 8.704V13H168.446ZM175.266 13V6.808H176.226V7.948H176.286C176.398 7.652 176.598 7.388 176.886 7.156C177.174 6.924 177.57 6.808 178.074 6.808H178.446V7.768H177.882C177.362 7.768 176.954 7.868 176.658 8.068C176.37 8.26 176.226 8.504 176.226 8.8V13H175.266ZM180.152 5.356C179.944 5.356 179.792 5.308 179.696 5.212C179.608 5.108 179.564 4.976 179.564 4.816V4.66C179.564 4.5 179.608 4.372 179.696 4.276C179.792 4.172 179.944 4.12 180.152 4.12C180.36 4.12 180.508 4.172 180.596 4.276C180.692 4.372 180.74 4.5 180.74 4.66V4.816C180.74 4.976 180.692 5.108 180.596 5.212C180.508 5.308 180.36 5.356 180.152 5.356ZM179.672 6.808H180.632V13H179.672V6.808ZM186.632 11.992H186.584C186.208 12.76 185.604 13.144 184.772 13.144C184.388 13.144 184.04 13.068 183.728 12.916C183.416 12.764 183.148 12.548 182.924 12.268C182.708 11.988 182.54 11.648 182.42 11.248C182.308 10.848 182.252 10.4 182.252 9.904C182.252 9.408 182.308 8.96 182.42 8.56C182.54 8.16 182.708 7.82 182.924 7.54C183.148 7.26 183.416 7.044 183.728 6.892C184.04 6.74 184.388 6.664 184.772 6.664C185.204 6.664 185.572 6.76 185.876 6.952C186.188 7.136 186.424 7.424 186.584 7.816H186.632V4.12H187.592V13H186.632V11.992ZM185.036 12.28C185.252 12.28 185.456 12.252 185.648 12.196C185.848 12.14 186.02 12.06 186.164 11.956C186.308 11.844 186.42 11.712 186.5 11.56C186.588 11.4 186.632 11.22 186.632 11.02V8.716C186.632 8.548 186.588 8.392 186.5 8.248C186.42 8.096 186.308 7.968 186.164 7.864C186.02 7.76 185.848 7.68 185.648 7.624C185.456 7.56 185.252 7.528 185.036 7.528C184.492 7.528 184.064 7.7 183.752 8.044C183.44 8.38 183.284 8.824 183.284 9.376V10.432C183.284 10.984 183.44 11.432 183.752 11.776C184.064 12.112 184.492 12.28 185.036 12.28ZM194.853 13.684C194.853 14.324 194.601 14.792 194.097 15.088C193.601 15.392 192.853 15.544 191.853 15.544C190.885 15.544 190.189 15.412 189.765 15.148C189.341 14.884 189.129 14.508 189.129 14.02C189.129 13.684 189.217 13.42 189.393 13.228C189.569 13.044 189.809 12.908 190.113 12.82V12.688C189.745 12.512 189.561 12.224 189.561 11.824C189.561 11.512 189.661 11.276 189.861 11.116C190.061 10.948 190.317 10.824 190.629 10.744V10.696C190.261 10.52 189.973 10.268 189.765 9.94C189.565 9.612 189.465 9.232 189.465 8.8C189.465 8.488 189.521 8.2 189.633 7.936C189.745 7.672 189.901 7.448 190.101 7.264C190.309 7.072 190.553 6.924 190.833 6.82C191.121 6.716 191.441 6.664 191.793 6.664C192.233 6.664 192.625 6.744 192.969 6.904V6.796C192.969 6.556 193.025 6.36 193.137 6.208C193.249 6.048 193.433 5.968 193.689 5.968H194.613V6.808H193.437V7.204C193.661 7.396 193.833 7.628 193.953 7.9C194.081 8.164 194.145 8.464 194.145 8.8C194.145 9.112 194.089 9.4 193.977 9.664C193.865 9.928 193.705 10.156 193.497 10.348C193.297 10.532 193.053 10.676 192.765 10.78C192.477 10.884 192.157 10.936 191.805 10.936C191.605 10.936 191.405 10.916 191.205 10.876C190.997 10.932 190.809 11.016 190.641 11.128C190.473 11.232 190.389 11.38 190.389 11.572C190.389 11.756 190.477 11.88 190.653 11.944C190.829 12.008 191.057 12.04 191.337 12.04H192.657C193.425 12.04 193.981 12.188 194.325 12.484C194.677 12.772 194.853 13.172 194.853 13.684ZM193.953 13.756C193.953 13.508 193.857 13.308 193.665 13.156C193.481 13.012 193.149 12.94 192.669 12.94H190.605C190.221 13.116 190.029 13.396 190.029 13.78C190.029 14.052 190.129 14.284 190.329 14.476C190.537 14.668 190.885 14.764 191.373 14.764H192.261C192.797 14.764 193.213 14.68 193.509 14.512C193.805 14.344 193.953 14.092 193.953 13.756ZM191.805 10.168C192.213 10.168 192.537 10.072 192.777 9.88C193.017 9.68 193.137 9.376 193.137 8.968V8.632C193.137 8.224 193.017 7.924 192.777 7.732C192.537 7.532 192.213 7.432 191.805 7.432C191.397 7.432 191.073 7.532 190.833 7.732C190.593 7.924 190.473 8.224 190.473 8.632V8.968C190.473 9.376 190.593 9.68 190.833 9.88C191.073 10.072 191.397 10.168 191.805 10.168ZM198.231 13.144C197.807 13.144 197.423 13.068 197.079 12.916C196.743 12.764 196.451 12.548 196.203 12.268C195.963 11.98 195.775 11.64 195.639 11.248C195.511 10.848 195.447 10.4 195.447 9.904C195.447 9.416 195.511 8.972 195.639 8.572C195.775 8.172 195.963 7.832 196.203 7.552C196.451 7.264 196.743 7.044 197.079 6.892C197.423 6.74 197.807 6.664 198.231 6.664C198.647 6.664 199.019 6.74 199.347 6.892C199.675 7.044 199.955 7.256 200.187 7.528C200.419 7.792 200.595 8.108 200.715 8.476C200.843 8.844 200.907 9.248 200.907 9.688V10.144H196.455V10.432C196.455 10.696 196.495 10.944 196.575 11.176C196.663 11.4 196.783 11.596 196.935 11.764C197.095 11.932 197.287 12.064 197.511 12.16C197.743 12.256 198.003 12.304 198.291 12.304C198.683 12.304 199.023 12.212 199.311 12.028C199.607 11.844 199.835 11.58 199.995 11.236L200.679 11.728C200.479 12.152 200.167 12.496 199.743 12.76C199.319 13.016 198.815 13.144 198.231 13.144ZM198.231 7.468C197.967 7.468 197.727 7.516 197.511 7.612C197.295 7.7 197.107 7.828 196.947 7.996C196.795 8.164 196.675 8.364 196.587 8.596C196.499 8.82 196.455 9.068 196.455 9.34V9.424H199.875V9.292C199.875 8.74 199.723 8.3 199.419 7.972C199.123 7.636 198.727 7.468 198.231 7.468ZM208.373 13.144C207.309 13.144 206.481 12.784 205.889 12.064C205.297 11.336 205.001 10.268 205.001 8.86C205.001 7.452 205.297 6.372 205.889 5.62C206.481 4.86 207.309 4.48 208.373 4.48C209.077 4.48 209.665 4.64 210.137 4.96C210.617 5.28 210.989 5.732 211.253 6.316L210.437 6.808C210.269 6.376 210.013 6.032 209.669 5.776C209.325 5.512 208.893 5.38 208.373 5.38C208.013 5.38 207.689 5.448 207.401 5.584C207.121 5.72 206.881 5.916 206.681 6.172C206.489 6.42 206.341 6.72 206.237 7.072C206.133 7.416 206.081 7.804 206.081 8.236V9.484C206.081 10.348 206.281 11.024 206.681 11.512C207.081 12 207.645 12.244 208.373 12.244C208.909 12.244 209.357 12.108 209.717 11.836C210.077 11.556 210.341 11.188 210.509 10.732L211.313 11.236C211.049 11.828 210.669 12.296 210.173 12.64C209.677 12.976 209.077 13.144 208.373 13.144ZM213.258 5.356C213.05 5.356 212.898 5.308 212.802 5.212C212.714 5.108 212.67 4.976 212.67 4.816V4.66C212.67 4.5 212.714 4.372 212.802 4.276C212.898 4.172 213.05 4.12 213.258 4.12C213.466 4.12 213.614 4.172 213.702 4.276C213.798 4.372 213.846 4.5 213.846 4.66V4.816C213.846 4.976 213.798 5.108 213.702 5.212C213.614 5.308 213.466 5.356 213.258 5.356ZM212.778 6.808H213.738V13H212.778V6.808ZM215.778 13V6.808H216.738V7.948H216.798C216.91 7.652 217.11 7.388 217.398 7.156C217.686 6.924 218.082 6.808 218.586 6.808H218.958V7.768H218.394C217.874 7.768 217.466 7.868 217.17 8.068C216.882 8.26 216.738 8.504 216.738 8.8V13H215.778ZM219.835 13.144C219.579 13.144 219.391 13.08 219.271 12.952C219.159 12.824 219.103 12.656 219.103 12.448V12.292C219.103 12.084 219.159 11.916 219.271 11.788C219.391 11.66 219.579 11.596 219.835 11.596C220.091 11.596 220.275 11.66 220.387 11.788C220.507 11.916 220.567 12.084 220.567 12.292V12.448C220.567 12.656 220.507 12.824 220.387 12.952C220.275 13.08 220.091 13.144 219.835 13.144ZM227.777 13.144C227.097 13.144 226.517 13.016 226.037 12.76C225.557 12.496 225.149 12.136 224.813 11.68L225.557 11.056C225.853 11.448 226.181 11.748 226.541 11.956C226.901 12.156 227.325 12.256 227.813 12.256C228.413 12.256 228.869 12.112 229.181 11.824C229.501 11.536 229.661 11.152 229.661 10.672C229.661 10.272 229.541 9.964 229.301 9.748C229.061 9.532 228.665 9.36 228.113 9.232L227.429 9.076C226.661 8.9 226.073 8.636 225.665 8.284C225.265 7.924 225.065 7.42 225.065 6.772C225.065 6.404 225.133 6.076 225.269 5.788C225.405 5.5 225.593 5.26 225.833 5.068C226.081 4.876 226.373 4.732 226.709 4.636C227.053 4.532 227.429 4.48 227.837 4.48C228.469 4.48 229.009 4.596 229.457 4.828C229.913 5.06 230.297 5.4 230.609 5.848L229.853 6.4C229.621 6.08 229.341 5.828 229.013 5.644C228.685 5.46 228.277 5.368 227.789 5.368C227.253 5.368 226.829 5.484 226.517 5.716C226.213 5.94 226.061 6.28 226.061 6.736C226.061 7.136 226.189 7.44 226.445 7.648C226.709 7.848 227.105 8.008 227.633 8.128L228.317 8.284C229.141 8.468 229.737 8.748 230.105 9.124C230.473 9.5 230.657 10 230.657 10.624C230.657 11.008 230.589 11.356 230.453 11.668C230.325 11.98 230.137 12.244 229.889 12.46C229.641 12.676 229.337 12.844 228.977 12.964C228.625 13.084 228.225 13.144 227.777 13.144ZM232.301 4.12H233.261V7.816H233.309C233.461 7.464 233.673 7.184 233.945 6.976C234.225 6.768 234.597 6.664 235.061 6.664C235.701 6.664 236.205 6.872 236.573 7.288C236.949 7.696 237.137 8.276 237.137 9.028V13H236.177V9.196C236.177 8.084 235.709 7.528 234.773 7.528C234.581 7.528 234.393 7.552 234.209 7.6C234.033 7.648 233.873 7.72 233.729 7.816C233.585 7.912 233.469 8.036 233.381 8.188C233.301 8.332 233.261 8.504 233.261 8.704V13H232.301V4.12ZM239.602 5.356C239.394 5.356 239.242 5.308 239.146 5.212C239.058 5.108 239.014 4.976 239.014 4.816V4.66C239.014 4.5 239.058 4.372 239.146 4.276C239.242 4.172 239.394 4.12 239.602 4.12C239.81 4.12 239.958 4.172 240.046 4.276C240.142 4.372 240.19 4.5 240.19 4.66V4.816C240.19 4.976 240.142 5.108 240.046 5.212C239.958 5.308 239.81 5.356 239.602 5.356ZM239.122 6.808H240.082V13H239.122V6.808ZM243.142 13C242.806 13 242.55 12.908 242.374 12.724C242.206 12.532 242.122 12.292 242.122 12.004V4.12H243.082V12.16H243.994V13H243.142ZM247.731 13.144C247.315 13.144 246.935 13.068 246.591 12.916C246.247 12.764 245.951 12.548 245.703 12.268C245.463 11.98 245.275 11.64 245.139 11.248C245.003 10.848 244.935 10.4 244.935 9.904C244.935 9.416 245.003 8.972 245.139 8.572C245.275 8.172 245.463 7.832 245.703 7.552C245.951 7.264 246.247 7.044 246.591 6.892C246.935 6.74 247.315 6.664 247.731 6.664C248.147 6.664 248.523 6.74 248.859 6.892C249.203 7.044 249.499 7.264 249.747 7.552C249.995 7.832 250.187 8.172 250.323 8.572C250.459 8.972 250.527 9.416 250.527 9.904C250.527 10.4 250.459 10.848 250.323 11.248C250.187 11.64 249.995 11.98 249.747 12.268C249.499 12.548 249.203 12.764 248.859 12.916C248.523 13.068 248.147 13.144 247.731 13.144ZM247.731 12.292C248.251 12.292 248.675 12.132 249.003 11.812C249.331 11.492 249.495 11.004 249.495 10.348V9.46C249.495 8.804 249.331 8.316 249.003 7.996C248.675 7.676 248.251 7.516 247.731 7.516C247.211 7.516 246.787 7.676 246.459 7.996C246.131 8.316 245.967 8.804 245.967 9.46V10.348C245.967 11.004 246.131 11.492 246.459 11.812C246.787 12.132 247.211 12.292 247.731 12.292ZM252.106 4.12H253.066V7.816H253.114C253.266 7.464 253.478 7.184 253.75 6.976C254.03 6.768 254.402 6.664 254.866 6.664C255.506 6.664 256.01 6.872 256.378 7.288C256.754 7.696 256.942 8.276 256.942 9.028V13H255.982V9.196C255.982 8.084 255.514 7.528 254.578 7.528C254.386 7.528 254.198 7.552 254.014 7.6C253.838 7.648 253.678 7.72 253.534 7.816C253.39 7.912 253.274 8.036 253.186 8.188C253.106 8.332 253.066 8.504 253.066 8.704V13H252.106V4.12ZM259.538 11.596C259.794 11.596 259.978 11.664 260.09 11.8C260.21 11.928 260.27 12.096 260.27 12.304V12.472C260.27 12.8 260.174 13.16 259.982 13.552C259.79 13.952 259.522 14.3 259.178 14.596H258.374C258.614 14.34 258.806 14.096 258.95 13.864C259.102 13.64 259.21 13.388 259.274 13.108C259.114 13.068 258.994 12.992 258.914 12.88C258.842 12.768 258.806 12.632 258.806 12.472V12.304C258.806 12.096 258.862 11.928 258.974 11.8C259.094 11.664 259.282 11.596 259.538 11.596ZM270.372 9.208H266.136V13H265.128V4.624H266.136V8.32H270.372V4.624H271.38V13H270.372V9.208ZM278.016 13C277.656 13 277.396 12.904 277.236 12.712C277.084 12.52 276.988 12.28 276.948 11.992H276.888C276.752 12.376 276.528 12.664 276.216 12.856C275.904 13.048 275.532 13.144 275.1 13.144C274.444 13.144 273.932 12.976 273.564 12.64C273.204 12.304 273.024 11.848 273.024 11.272C273.024 10.688 273.236 10.24 273.66 9.928C274.092 9.616 274.76 9.46 275.664 9.46H276.888V8.848C276.888 8.408 276.768 8.072 276.528 7.84C276.288 7.608 275.92 7.492 275.424 7.492C275.048 7.492 274.732 7.576 274.476 7.744C274.228 7.912 274.02 8.136 273.852 8.416L273.276 7.876C273.444 7.54 273.712 7.256 274.08 7.024C274.448 6.784 274.912 6.664 275.472 6.664C276.224 6.664 276.808 6.848 277.224 7.216C277.64 7.584 277.848 8.096 277.848 8.752V12.16H278.556V13H278.016ZM275.256 12.328C275.496 12.328 275.716 12.3 275.916 12.244C276.116 12.188 276.288 12.108 276.432 12.004C276.576 11.9 276.688 11.78 276.768 11.644C276.848 11.508 276.888 11.36 276.888 11.2V10.18H275.616C275.064 10.18 274.66 10.26 274.404 10.42C274.156 10.58 274.032 10.812 274.032 11.116V11.368C274.032 11.672 274.14 11.908 274.356 12.076C274.58 12.244 274.88 12.328 275.256 12.328ZM279.243 6.808H280.179L280.839 9.484L281.499 12.196H281.523L282.279 9.484L283.059 6.808H283.911L284.715 9.484L285.483 12.196H285.507L286.143 9.484L286.815 6.808H287.715L286.071 13H284.883L284.019 10.024L283.479 8.14H283.455L282.927 10.024L282.063 13H280.899L279.243 6.808ZM293.497 13C293.137 13 292.877 12.904 292.717 12.712C292.565 12.52 292.469 12.28 292.429 11.992H292.369C292.233 12.376 292.009 12.664 291.697 12.856C291.385 13.048 291.013 13.144 290.581 13.144C289.925 13.144 289.413 12.976 289.045 12.64C288.685 12.304 288.505 11.848 288.505 11.272C288.505 10.688 288.717 10.24 289.141 9.928C289.573 9.616 290.241 9.46 291.145 9.46H292.369V8.848C292.369 8.408 292.249 8.072 292.009 7.84C291.769 7.608 291.401 7.492 290.905 7.492C290.529 7.492 290.213 7.576 289.957 7.744C289.709 7.912 289.501 8.136 289.333 8.416L288.757 7.876C288.925 7.54 289.193 7.256 289.561 7.024C289.929 6.784 290.393 6.664 290.953 6.664C291.705 6.664 292.289 6.848 292.705 7.216C293.121 7.584 293.329 8.096 293.329 8.752V12.16H294.037V13H293.497ZM290.737 12.328C290.977 12.328 291.197 12.3 291.397 12.244C291.597 12.188 291.769 12.108 291.913 12.004C292.057 11.9 292.169 11.78 292.249 11.644C292.329 11.508 292.369 11.36 292.369 11.2V10.18H291.097C290.545 10.18 290.141 10.26 289.885 10.42C289.637 10.58 289.513 10.812 289.513 11.116V11.368C289.513 11.672 289.621 11.908 289.837 12.076C290.061 12.244 290.361 12.328 290.737 12.328ZM295.887 5.356C295.679 5.356 295.527 5.308 295.431 5.212C295.343 5.108 295.299 4.976 295.299 4.816V4.66C295.299 4.5 295.343 4.372 295.431 4.276C295.527 4.172 295.679 4.12 295.887 4.12C296.095 4.12 296.243 4.172 296.331 4.276C296.427 4.372 296.475 4.5 296.475 4.66V4.816C296.475 4.976 296.427 5.108 296.331 5.212C296.243 5.308 296.095 5.356 295.887 5.356ZM295.407 6.808H296.367V13H295.407V6.808ZM298.887 5.356C298.679 5.356 298.527 5.308 298.431 5.212C298.343 5.108 298.299 4.976 298.299 4.816V4.66C298.299 4.5 298.343 4.372 298.431 4.276C298.527 4.172 298.679 4.12 298.887 4.12C299.095 4.12 299.243 4.172 299.331 4.276C299.427 4.372 299.475 4.5 299.475 4.66V4.816C299.475 4.976 299.427 5.108 299.331 5.212C299.243 5.308 299.095 5.356 298.887 5.356ZM298.407 6.808H299.367V13H298.407V6.808ZM306.823 13.144C306.343 13.144 305.923 13.084 305.563 12.964C305.203 12.836 304.899 12.664 304.651 12.448C304.411 12.232 304.227 11.976 304.099 11.68C303.979 11.384 303.919 11.064 303.919 10.72C303.919 10.144 304.075 9.688 304.387 9.352C304.699 9.016 305.107 8.78 305.611 8.644V8.548C305.171 8.396 304.819 8.152 304.555 7.816C304.299 7.472 304.171 7.06 304.171 6.58C304.171 5.94 304.403 5.432 304.867 5.056C305.331 4.672 305.983 4.48 306.823 4.48C307.663 4.48 308.315 4.672 308.779 5.056C309.243 5.432 309.475 5.94 309.475 6.58C309.475 7.06 309.343 7.472 309.079 7.816C308.823 8.152 308.475 8.396 308.035 8.548V8.644C308.539 8.78 308.947 9.016 309.259 9.352C309.571 9.688 309.727 10.144 309.727 10.72C309.727 11.064 309.663 11.384 309.535 11.68C309.415 11.976 309.231 12.232 308.983 12.448C308.743 12.664 308.443 12.836 308.083 12.964C307.723 13.084 307.303 13.144 306.823 13.144ZM306.823 12.268C307.407 12.268 307.859 12.14 308.179 11.884C308.499 11.62 308.659 11.248 308.659 10.768V10.516C308.659 10.036 308.499 9.668 308.179 9.412C307.859 9.148 307.407 9.016 306.823 9.016C306.239 9.016 305.787 9.148 305.467 9.412C305.147 9.668 304.987 10.036 304.987 10.516V10.768C304.987 11.248 305.147 11.62 305.467 11.884C305.787 12.14 306.239 12.268 306.823 12.268ZM306.823 8.176C307.351 8.176 307.751 8.064 308.023 7.84C308.295 7.616 308.431 7.288 308.431 6.856V6.676C308.431 6.244 308.295 5.916 308.023 5.692C307.751 5.468 307.351 5.356 306.823 5.356C306.295 5.356 305.895 5.468 305.623 5.692C305.351 5.916 305.215 6.244 305.215 6.676V6.856C305.215 7.288 305.351 7.616 305.623 7.84C305.895 8.064 306.295 8.176 306.823 8.176ZM311.474 13V12.112H313.814V5.368H313.73L311.618 7.336L311.03 6.7L313.25 4.624H314.822V12.112H316.982V13H311.474ZM321.213 13.144C320.213 13.144 319.481 12.764 319.017 12.004C318.561 11.244 318.333 10.18 318.333 8.812C318.333 7.444 318.561 6.38 319.017 5.62C319.481 4.86 320.213 4.48 321.213 4.48C322.213 4.48 322.941 4.86 323.397 5.62C323.861 6.38 324.093 7.444 324.093 8.812C324.093 10.18 323.861 11.244 323.397 12.004C322.941 12.764 322.213 13.144 321.213 13.144ZM321.213 12.268C321.541 12.268 321.821 12.2 322.053 12.064C322.285 11.928 322.473 11.736 322.617 11.488C322.761 11.24 322.865 10.948 322.929 10.612C323.001 10.276 323.037 9.904 323.037 9.496V8.128C323.037 7.72 323.001 7.348 322.929 7.012C322.865 6.676 322.761 6.384 322.617 6.136C322.473 5.888 322.285 5.696 322.053 5.56C321.821 5.424 321.541 5.356 321.213 5.356C320.885 5.356 320.605 5.424 320.373 5.56C320.141 5.696 319.953 5.888 319.809 6.136C319.665 6.384 319.557 6.676 319.485 7.012C319.421 7.348 319.389 7.72 319.389 8.128V9.496C319.389 9.904 319.421 10.276 319.485 10.612C319.557 10.948 319.665 11.24 319.809 11.488C319.953 11.736 320.141 11.928 320.373 12.064C320.605 12.2 320.885 12.268 321.213 12.268ZM328.421 13.144C327.989 13.144 327.597 13.072 327.245 12.928C326.901 12.776 326.605 12.564 326.357 12.292C326.117 12.012 325.933 11.672 325.805 11.272C325.677 10.872 325.613 10.424 325.613 9.928C325.613 9.304 325.705 8.72 325.889 8.176C326.073 7.624 326.309 7.124 326.597 6.676C326.893 6.22 327.217 5.82 327.569 5.476C327.921 5.124 328.265 4.84 328.601 4.624H329.897C329.449 4.952 329.049 5.272 328.697 5.584C328.345 5.896 328.037 6.224 327.773 6.568C327.509 6.904 327.285 7.268 327.101 7.66C326.917 8.044 326.769 8.48 326.657 8.968L326.717 8.992C326.917 8.648 327.173 8.364 327.485 8.14C327.805 7.908 328.221 7.792 328.733 7.792C329.093 7.792 329.425 7.852 329.729 7.972C330.033 8.092 330.293 8.264 330.509 8.488C330.725 8.712 330.893 8.984 331.013 9.304C331.141 9.624 331.205 9.98 331.205 10.372C331.205 10.78 331.137 11.156 331.001 11.5C330.873 11.836 330.685 12.128 330.437 12.376C330.197 12.616 329.905 12.804 329.561 12.94C329.217 13.076 328.837 13.144 328.421 13.144ZM328.409 12.268C328.961 12.268 329.389 12.116 329.693 11.812C330.005 11.508 330.161 11.072 330.161 10.504V10.408C330.161 9.84 330.005 9.404 329.693 9.1C329.389 8.796 328.961 8.644 328.409 8.644C327.857 8.644 327.425 8.796 327.113 9.1C326.809 9.404 326.657 9.84 326.657 10.408V10.504C326.657 11.072 326.809 11.508 327.113 11.812C327.425 12.116 327.857 12.268 328.409 12.268ZM335.136 8.176C335.704 8.176 336.128 8.048 336.408 7.792C336.696 7.528 336.84 7.192 336.84 6.784V6.7C336.84 6.26 336.7 5.932 336.42 5.716C336.148 5.492 335.788 5.38 335.34 5.38C334.908 5.38 334.556 5.476 334.284 5.668C334.012 5.852 333.788 6.104 333.612 6.424L332.868 5.848C332.972 5.68 333.096 5.516 333.24 5.356C333.392 5.188 333.568 5.04 333.768 4.912C333.968 4.784 334.2 4.68 334.464 4.6C334.728 4.52 335.028 4.48 335.364 4.48C335.716 4.48 336.048 4.528 336.36 4.624C336.672 4.712 336.94 4.848 337.164 5.032C337.396 5.208 337.576 5.428 337.704 5.692C337.84 5.956 337.908 6.256 337.908 6.592C337.908 6.864 337.864 7.108 337.776 7.324C337.696 7.54 337.584 7.728 337.44 7.888C337.296 8.048 337.124 8.184 336.924 8.296C336.732 8.408 336.524 8.492 336.3 8.548V8.596C336.524 8.644 336.74 8.724 336.948 8.836C337.164 8.94 337.352 9.08 337.512 9.256C337.68 9.424 337.812 9.632 337.908 9.88C338.012 10.12 338.064 10.396 338.064 10.708C338.064 11.068 337.996 11.4 337.86 11.704C337.724 12 337.532 12.256 337.284 12.472C337.036 12.68 336.736 12.844 336.384 12.964C336.032 13.084 335.644 13.144 335.22 13.144C334.86 13.144 334.54 13.104 334.26 13.024C333.98 12.944 333.732 12.836 333.516 12.7C333.3 12.564 333.108 12.412 332.94 12.244C332.78 12.076 332.636 11.9 332.508 11.716L333.264 11.14C333.368 11.308 333.48 11.46 333.6 11.596C333.728 11.732 333.868 11.848 334.02 11.944C334.172 12.04 334.344 12.116 334.536 12.172C334.728 12.22 334.952 12.244 335.208 12.244C335.8 12.244 336.248 12.112 336.552 11.848C336.856 11.576 337.008 11.192 337.008 10.696V10.6C337.008 10.104 336.856 9.724 336.552 9.46C336.248 9.188 335.8 9.052 335.208 9.052H334.224V8.176H335.136Z" fill="#060709" fill-opacity="0.3"/>
</svg>
