<svg width="16" height="16" viewBox="0 0 16 16" fill="none" xmlns="http://www.w3.org/2000/svg">
<g id="coz_pin">
<path id="Union" d="M9.12874 1.26293C8.83426 0.968447 8.42153 1.00681 8.16153 1.26682C7.90962 1.51873 7.93238 1.95503 8.18593 2.20574L8.98206 3.0047L6.84831 5.13812C6.78497 5.20145 6.67062 5.20977 6.58095 5.20977L2.37356 5.49908C2.284 5.49908 2.1981 5.53574 2.13473 5.59908L1.75596 5.97698C1.49198 6.24097 1.48469 6.65991 1.75498 6.9302L4.81029 9.98643L1.70259 13.1005C1.4427 13.3609 1.44291 13.7826 1.70307 14.0428L1.71298 14.0527C1.97333 14.313 2.39542 14.313 2.65578 14.0527L5.76559 10.9431L8.82137 13.9965C9.08064 14.2558 9.50585 14.2548 9.76935 13.9904L10.1488 13.6119C10.2121 13.5486 10.2478 13.4619 10.2478 13.3719L10.5423 9.16977C10.5423 9.0831 10.5589 8.97771 10.6222 8.91437L12.7563 6.78096L13.5552 7.57504C13.8899 7.90968 14.3225 7.77334 14.5 7.59585C14.7906 7.30526 14.7526 6.88679 14.498 6.63223L9.12874 1.26293ZM9.9464 3.96832L11.8353 5.85507L9.28342 8.41202L9.00512 12.2978L3.49211 6.78153L7.40332 6.51438L9.9464 3.96832Z" fill="#060709" fill-opacity="0.8"/>
</g>
</svg>
