<svg width="16" height="17" viewBox="0 0 16 17" fill="none" xmlns="http://www.w3.org/2000/svg">
  <path id="Union" fill-rule="evenodd" clip-rule="evenodd"
    d="M3.33333 1.99996L12.6667 1.99996V8.64139L13.8892 8.23389C13.9262 8.22155 13.9631 8.21073 14 8.20138L14 1.99996C14 1.26358 13.403 0.666626 12.6667 0.666626H3.33333C2.59695 0.666626 2 1.26358 2 1.99996V14C2 14.7363 2.59695 15.3333 3.33333 15.3333H6.86835C6.87772 15.2963 6.88857 15.2592 6.90095 15.2221L7.30833 14L3.33333 14L3.33333 1.99996ZM10.6667 5.33134C11.0349 5.33134 11.3333 5.03286 11.3333 4.66467C11.3333 4.29648 11.0349 3.99801 10.6667 3.99801L5.33333 3.99801C4.96514 3.99801 4.66667 4.29648 4.66667 4.66467C4.66667 5.03286 4.96514 5.33134 5.33333 5.33134H10.6667ZM4.66667 7.34631C4.66667 7.7145 4.96514 8.01298 5.33333 8.01298H7.33333C7.70152 8.01298 8 7.7145 8 7.34631C8 6.97812 7.70152 6.67965 7.33333 6.67965H5.33333C4.96514 6.67965 4.66667 6.97812 4.66667 7.34631ZM13.2271 9.38191C14.087 9.09528 14.9051 9.91335 14.6184 10.7732L13.4977 14.1355C13.3882 14.464 13.1305 14.7217 12.802 14.8312L9.43972 15.952C8.57983 16.2386 7.76176 15.4205 8.04839 14.5606L9.16915 11.1983C9.27864 10.8699 9.53637 10.6122 9.86482 10.5027L13.2271 9.38191ZM13.5749 10.4254L10.2127 11.5462L9.09189 14.9085L12.4542 13.7877L13.5749 10.4254ZM11.8333 12.1667C12.1095 12.4428 12.1095 12.8905 11.8333 13.1667C11.5572 13.4428 11.1095 13.4428 10.8333 13.1667C10.5572 12.8905 10.5572 12.4428 10.8333 12.1667C11.1095 11.8905 11.5572 11.8905 11.8333 12.1667Z"
    fill="#060709" fill-opacity="0.8" />
</svg>
