<svg width="16" height="16" viewBox="0 0 24 24" fill="currentColor" xmlns="http://www.w3.org/2000/svg">
  <g id="coz_text_style">
    <g id="Union">
      <path
        d="M14.0001 5.00001C13.4478 5.00001 13.0001 5.44772 13.0001 6C13.0001 6.55229 13.4478 7 14.0001 7H22.0001C22.5524 7 23.0001 6.55229 23.0001 6C23.0001 5.44772 22.5524 5.00001 22.0001 5.00001H14.0001Z" />
      <path
        d="M15.0001 12C15.0001 11.4477 15.4478 11 16.0001 11H22.0001C22.5524 11 23.0001 11.4477 23.0001 12C23.0001 12.5523 22.5524 13 22.0001 13H16.0001C15.4478 13 15.0001 12.5523 15.0001 12Z" />
      <path
        d="M18.0001 17C17.4478 17 17.0001 17.4477 17.0001 18C17.0001 18.5523 17.4478 19 18.0001 19H22.0001C22.5524 19 23.0001 18.5523 23.0001 18C23.0001 17.4477 22.5524 17 22.0001 17H18.0001Z" />
      <path
        d="M14.7987 21.2225L12.3504 15.2768H4.77082C4.7068 15.2768 4.64405 15.2713 4.58302 15.2609L2.49762 21.1695C2.29451 21.745 1.66334 22.0469 1.08787 21.8438C0.512391 21.6406 0.210529 21.0095 0.413638 20.434L6.56226 3.0129C7.06862 1.57821 9.0786 1.52663 9.65788 2.93346L16.8422 20.381C17.0745 20.9453 16.8054 21.5912 16.2411 21.8235C15.6768 22.0559 15.031 21.7868 14.7987 21.2225ZM8.16496 5.11205L5.35739 13.0668H11.4404L8.16496 5.11205Z" />
    </g>
  </g>
</svg>
