<svg width="16" height="16" viewBox="0 0 16 16" fill="none" xmlns="http://www.w3.org/2000/svg">
  <g id="coz_document_code">
    <g id="Union">
      <path
        d="M12.6667 2.00033H3.33333V14.0003H5.3348V15.3337H3.33333C2.59695 15.3337 2 14.7367 2 14.0003V2.00032C2 1.26395 2.59695 0.666992 3.33333 0.666992H12.6667C13.403 0.666992 14 1.26395 14 2.00033V8.64486H12.6667V2.00033Z"
        fill="currentColor" />
      <path
        d="M8.63565 10.1019C8.3753 9.84153 7.95319 9.84153 7.69284 10.1019L6.20784 11.5868C5.8173 11.9773 5.8173 12.6105 6.20783 13.001L7.69284 14.4861C7.95319 14.7464 8.3753 14.7464 8.63565 14.4861C8.896 14.2257 8.896 13.8036 8.63565 13.5433L7.38634 12.2939L8.63563 11.0447C8.89598 10.7844 8.89599 10.3622 8.63565 10.1019Z"
        fill="currentColor" />
      <path
        d="M13.4265 10.1019C13.1661 9.84153 12.744 9.84153 12.4837 10.1019C12.2233 10.3622 12.2233 10.7844 12.4837 11.0447L13.733 12.2939L12.4837 13.5433C12.2233 13.8036 12.2233 14.2257 12.4837 14.4861C12.744 14.7464 13.1661 14.7464 13.4265 14.4861L14.9115 13.001C15.302 12.6105 15.302 11.9773 14.9115 11.5868L13.4265 10.1019Z"
        fill="currentColor" />
      <path
        d="M11.0033 8.81087C10.6382 8.76325 10.3036 9.02062 10.256 9.38572L9.54088 14.8684C9.49326 15.2335 9.75063 15.5681 10.1157 15.6157C10.4808 15.6633 10.8154 15.4059 10.863 15.0408L11.5781 9.55816C11.6257 9.19307 11.3684 8.85849 11.0033 8.81087Z"
        fill="currentColor" />
      <path
        d="M11.3333 4.66504C11.3333 5.03323 11.0349 5.33171 10.6667 5.33171H5.33333C4.96514 5.33171 4.66667 5.03323 4.66667 4.66504C4.66667 4.29685 4.96514 3.99837 5.33333 3.99837H10.6667C11.0349 3.99837 11.3333 4.29685 11.3333 4.66504Z"
        fill="currentColor" />
      <path
        d="M4.66667 7.34668C4.66667 7.71487 4.96514 8.01335 5.33333 8.01335H7.33333C7.70152 8.01335 8 7.71487 8 7.34668C8 6.97849 7.70152 6.68001 7.33333 6.68001H5.33333C4.96514 6.68001 4.66667 6.97849 4.66667 7.34668Z"
        fill="currentColor" />
    </g>
  </g>
</svg>
