<svg width="16" height="16" viewBox="0 0 16 16" fill="none" xmlns="http://www.w3.org/2000/svg">
<g id="coz_eye_close">
<path id="Union" d="M1.35292 5.44784C1.65773 5.2413 2.07225 5.32097 2.27878 5.62578C3.5073 7.43884 5.75629 8.66641 7.99863 8.66641C10.241 8.66641 12.49 7.43884 13.7185 5.62578C13.925 5.32097 14.3395 5.2413 14.6443 5.44784C14.9491 5.65437 15.0288 6.0689 14.8223 6.3737C14.4479 6.92616 13.9968 7.43215 13.4879 7.87956L14.827 9.21869C15.0874 9.47904 15.0874 9.90115 14.827 10.1615C14.5667 10.4218 14.1446 10.4218 13.8842 10.1615L12.47 8.74728C12.4496 8.72688 12.4308 8.70549 12.4136 8.68326C11.9171 8.99757 11.3869 9.26257 10.8353 9.47056L11.31 11.2422C11.4053 11.5979 11.1943 11.9634 10.8386 12.0587C10.483 12.154 10.1174 11.943 10.0221 11.5873L9.55416 9.84086C9.04255 9.94499 8.52123 9.99974 7.99863 9.99974C7.52467 9.99974 7.05178 9.95471 6.58622 9.86865L6.1257 11.5873C6.03041 11.943 5.66485 12.154 5.3092 12.0587C4.95356 11.9634 4.7425 11.5979 4.8378 11.2422L5.29902 9.52091C4.68963 9.30297 4.10494 9.01555 3.56096 8.66884C3.54089 8.69627 3.51847 8.72252 3.49369 8.7473L2.07948 10.1615C1.81913 10.4219 1.39702 10.4219 1.13667 10.1615C0.876319 9.90117 0.876319 9.47906 1.13667 9.21871L2.49153 7.86385C1.98989 7.42031 1.54494 6.9197 1.17498 6.3737C0.968445 6.0689 1.04811 5.65437 1.35292 5.44784Z" fill="#060709" fill-opacity="0.8"/>
</g>
</svg>
