<svg width="17" height="16" viewBox="0 0 17 16" fill="none" xmlns="http://www.w3.org/2000/svg">
<path d="M12.7039 5.33338C10.7144 5.3382 9.13872 5.70204 7.81586 6.42237C6.55025 7.11154 5.56481 8.11489 4.88795 9.40352C4.77913 9.61069 4.6786 9.82395 4.58635 10.0439C4.54581 10.1406 4.49431 10.275 4.43185 10.4471C4.38401 10.5789 4.25877 10.6667 4.11852 10.6667H3.41103C3.22693 10.6667 3.07769 10.5174 3.07769 10.3333C3.07769 10.2983 3.08322 10.2634 3.09408 10.2301C3.10705 10.1903 3.11889 10.1549 3.12962 10.1238C3.2938 9.64811 3.48836 9.19984 3.71217 8.77472C4.51289 7.25373 5.68792 6.06005 7.18514 5.24662C8.67369 4.4379 10.4506 4.00503 12.704 4.00004L11.0125 2.30854C10.753 2.04899 10.7554 1.62775 11.015 1.3682C11.2745 1.10865 11.6958 1.10618 11.9553 1.36573L15.0206 4.43096C15.1507 4.56114 15.1507 4.77219 15.0206 4.90237L11.9528 7.9701C11.6951 8.22779 11.2758 8.21966 11.0182 7.96197C10.7605 7.70428 10.7523 7.28498 11.01 7.02729L12.7039 5.33338ZM14.1517 12C14.5199 12 14.8184 12.2985 14.8184 12.6667V14C14.8184 14.3682 14.5199 14.6667 14.1517 14.6667H3.48503C3.11684 14.6667 2.81836 14.3682 2.81836 14V12.6667C2.81836 12.2985 3.11684 12 3.48503 12C3.85322 12 4.15169 12.2985 4.15169 12.6667V13.3333H13.485V12.6667C13.485 12.2985 13.7835 12 14.1517 12Z" fill="#060709" fill-opacity="0.8"/>
</svg>
