<svg width="16" height="16" viewBox="0 0 16 16" fill="none" xmlns="http://www.w3.org/2000/svg">
<g id="coz_diamond">
<g id="Union">
<path d="M5.33366 5.58895C4.96548 5.58895 4.667 5.88742 4.667 6.25561C4.667 6.6238 4.96548 6.92228 5.33366 6.92228H10.667C11.0352 6.92228 11.3337 6.6238 11.3337 6.25561C11.3337 5.88742 11.0352 5.58895 10.667 5.58895H5.33366Z" fill="#0F1529" fill-opacity="0.82"/>
<path fill-rule="evenodd" clip-rule="evenodd" d="M3.77472 1.57935C3.53597 1.57935 3.31545 1.70702 3.19657 1.91406L0.781886 6.11961C0.641837 6.36353 0.669937 6.66911 0.852123 6.88339L7.49247 14.6937C7.61914 14.8427 7.80483 14.9285 8.00038 14.9285C8.19593 14.9285 8.38162 14.8427 8.50829 14.6937L15.1486 6.88339C15.3308 6.66911 15.3589 6.36353 15.2189 6.11961L12.8042 1.91406C12.6853 1.70702 12.4648 1.57935 12.226 1.57935H3.77472ZM2.17163 6.37693L4.16068 2.91268H11.8401L13.8291 6.37693L8.00038 13.2327L2.17163 6.37693Z" fill="#0F1529" fill-opacity="0.82"/>
</g>
</g>
</svg>
