<svg width="14" height="14" viewBox="0 0 14 14" fill="none" xmlns="http://www.w3.org/2000/svg">
  <path fill-rule="evenodd" clip-rule="evenodd"
    d="M7.90083 1.09475C7.43414 0.527662 6.56584 0.527662 6.09916 1.09475L5.46623 1.86383C5.21935 2.16383 4.83932 2.32124 4.45262 2.28368L3.46126 2.1874C2.73027 2.11641 2.11629 2.73039 2.18728 3.46138L2.28356 4.45274C2.32111 4.83945 2.1637 5.21947 1.86371 5.46636L1.09463 6.09928C0.52754 6.56597 0.52754 7.43426 1.09463 7.90095L1.86371 8.53387C2.1637 8.78076 2.32111 9.16078 2.28356 9.54749L2.18728 10.5389C2.11629 11.2698 2.73027 11.8838 3.46126 11.8128L4.45262 11.7165C4.83932 11.679 5.21935 11.8364 5.46623 12.1364L6.09916 12.9055C6.56584 13.4726 7.43414 13.4726 7.90083 12.9055L8.53375 12.1364C8.78064 11.8364 9.16066 11.679 9.54736 11.7165L10.5387 11.8128C11.2697 11.8838 11.8837 11.2698 11.8127 10.5389L11.7164 9.54749C11.6789 9.16078 11.8363 8.78076 12.1363 8.53387L12.9054 7.90095C13.4724 7.43426 13.4724 6.56597 12.9054 6.09928L12.1363 5.46636C11.8363 5.21947 11.6789 4.83945 11.7164 4.45274L11.8127 3.46138C11.8837 2.73039 11.2697 2.11641 10.5387 2.1874L9.54736 2.28368C9.16066 2.32124 8.78064 2.16383 8.53375 1.86383L7.90083 1.09475ZM10.0152 5.53438L9.48459 5.0038C9.46326 4.98247 9.43827 4.96522 9.4104 4.95367C9.38253 4.94213 9.35266 4.93619 9.32249 4.93619C9.29233 4.93619 9.26246 4.94213 9.23459 4.95367C9.20672 4.96522 9.1814 4.98214 9.16007 5.00347L6.4281 7.73544L5.16482 6.47249C5.14349 6.45116 5.11817 6.43423 5.0903 6.42269C5.06244 6.41115 5.03257 6.4052 5.0024 6.4052C4.97224 6.4052 4.94237 6.41115 4.9145 6.42269C4.88663 6.43423 4.86131 6.45116 4.83998 6.47249L4.3094 7.00274C4.28807 7.02407 4.27115 7.04939 4.25961 7.07726C4.24806 7.10512 4.24212 7.13499 4.24212 7.16516C4.24212 7.19532 4.24806 7.22519 4.25961 7.25306C4.27115 7.28093 4.28807 7.30625 4.3094 7.32758L6.26568 9.28386C6.28701 9.30519 6.31233 9.32211 6.3402 9.33366C6.36807 9.3452 6.39794 9.35114 6.4281 9.35114C6.45827 9.35114 6.48814 9.3452 6.51601 9.33366C6.54388 9.32211 6.5692 9.30519 6.59053 9.28386L10.0152 5.85922C10.0365 5.83789 10.0534 5.81257 10.065 5.7847C10.0765 5.75683 10.0824 5.72696 10.0824 5.6968C10.0824 5.66663 10.0765 5.63676 10.065 5.60889C10.0534 5.58103 10.0365 5.5557 10.0152 5.53438Z"
    fill="currentColor" />
</svg>
