<svg width="19" height="18" viewBox="0 0 19 18" fill="none" xmlns="http://www.w3.org/2000/svg">
<path fill-rule="evenodd" clip-rule="evenodd" d="M2.04239 1.64456C1.93638 1.64278 1.84998 1.72917 1.85176 1.83518L1.90699 5.12046C1.90862 5.21772 1.94799 5.31054 2.01677 5.37933L11.2376 14.6001L11.0609 14.7768C10.9144 14.9233 10.9144 15.1607 11.0609 15.3071L11.5912 15.8375C11.7376 15.9839 11.9751 15.9839 12.1215 15.8375L13.5526 14.4064L14.2502 15.1041C14.1704 15.5236 14.2929 15.974 14.6176 16.2987C15.1389 16.82 15.9841 16.82 16.5054 16.2987C17.0267 15.7774 17.0267 14.9322 16.5054 14.4109C16.1807 14.0862 15.7304 13.9638 15.311 14.0435L14.6132 13.3458L16.0442 11.9148C16.1907 11.7683 16.1907 11.5309 16.0442 11.3845L15.5139 10.8541C15.3674 10.7077 15.13 10.7077 14.9836 10.8541L14.8073 11.0304L5.58653 1.80956C5.51775 1.74078 5.42493 1.70142 5.32767 1.69978L2.04239 1.64456ZM4.69594 3.18938C4.7932 3.19101 4.88602 3.23037 4.9548 3.29916L13.7465 12.0908L12.298 13.5393L3.50636 4.7476C3.43758 4.67882 3.39822 4.586 3.39658 4.48874L3.37762 3.36104C3.37584 3.25504 3.46224 3.16864 3.56825 3.17042L4.69594 3.18938Z" fill="black"/>
<path d="M16.8649 1.86438C16.8667 1.75838 16.7803 1.67198 16.6743 1.67376L13.389 1.72898C13.2917 1.73062 13.1989 1.76998 13.1301 1.83876L10.4372 4.53166L11.4979 5.59232L13.7618 3.32836C13.8306 3.25957 13.9234 3.22021 14.0207 3.21858L15.1484 3.19962C15.2544 3.19784 15.3408 3.28424 15.339 3.39024L15.3201 4.51794C15.3184 4.6152 15.2791 4.70802 15.2103 4.7768L12.9463 7.04076L14.007 8.10142L16.6999 5.40853C16.7687 5.33974 16.808 5.24692 16.8097 5.14966L16.8649 1.86438Z" fill="black"/>
<path d="M3.90932 11.0596L4.73115 10.2377L5.79181 11.2984L4.97016 12.12L6.4186 13.5685L7.24025 12.7468L8.30091 13.8075L7.47908 14.6293L7.65577 14.806C7.80222 14.9525 7.80222 15.1899 7.65577 15.3364L7.12544 15.8667C6.979 16.0131 6.74156 16.0131 6.59511 15.8667L5.16407 14.4356L4.46642 15.1333C4.54623 15.5528 4.42378 16.0032 4.09906 16.3279C3.57777 16.8492 2.73258 16.8492 2.21128 16.3279C1.68999 15.8066 1.68999 14.9614 2.21128 14.4401C2.53595 14.1154 2.98624 13.993 3.40567 14.0727L4.10341 13.375L2.67242 11.944C2.52598 11.7975 2.52598 11.5601 2.67242 11.4137L3.20275 10.8833C3.3492 10.7369 3.58664 10.7369 3.73308 10.8833L3.90932 11.0596Z" fill="black"/>
</svg>
