<svg width="16" height="16" viewBox="0 0 16 16" fill="none" xmlns="http://www.w3.org/2000/svg">
<g id="coz_document_code">
<g id="Union">
<path d="M12.6667 1.99996H3.33333V14H5.3348V15.3333H3.33333C2.59695 15.3333 2 14.7363 2 14V1.99996C2 1.26358 2.59695 0.666626 3.33333 0.666626H12.6667C13.403 0.666626 14 1.26358 14 1.99996V8.64449H12.6667V1.99996Z" fill="#0F1529" fill-opacity="0.82"/>
<path d="M8.63565 10.1015C8.3753 9.84117 7.95319 9.84116 7.69284 10.1015L6.20784 11.5865C5.8173 11.977 5.8173 12.6102 6.20783 13.0007L7.69284 14.4857C7.95319 14.746 8.3753 14.746 8.63565 14.4857C8.896 14.2253 8.896 13.8032 8.63565 13.5429L7.38634 12.2936L8.63563 11.0443C8.89598 10.784 8.89599 10.3619 8.63565 10.1015Z" fill="#0F1529" fill-opacity="0.82"/>
<path d="M13.4265 10.1015C13.1661 9.84116 12.744 9.84117 12.4837 10.1015C12.2233 10.3619 12.2233 10.784 12.4837 11.0443L13.733 12.2936L12.4837 13.5429C12.2233 13.8032 12.2233 14.2253 12.4837 14.4857C12.744 14.746 13.1661 14.746 13.4265 14.4857L14.9115 13.0007C15.302 12.6102 15.302 11.977 14.9115 11.5865L13.4265 10.1015Z" fill="#0F1529" fill-opacity="0.82"/>
<path d="M11.0033 8.81051C10.6382 8.76289 10.3036 9.02025 10.256 9.38535L9.54088 14.868C9.49326 15.2331 9.75063 15.5677 10.1157 15.6153C10.4808 15.6629 10.8154 15.4056 10.863 15.0405L11.5781 9.5578C11.6257 9.1927 11.3684 8.85813 11.0033 8.81051Z" fill="#0F1529" fill-opacity="0.82"/>
<path d="M11.3333 4.66467C11.3333 5.03286 11.0349 5.33134 10.6667 5.33134H5.33333C4.96514 5.33134 4.66667 5.03286 4.66667 4.66467C4.66667 4.29648 4.96514 3.99801 5.33333 3.99801H10.6667C11.0349 3.99801 11.3333 4.29648 11.3333 4.66467Z" fill="#0F1529" fill-opacity="0.82"/>
<path d="M4.66667 7.34631C4.66667 7.7145 4.96514 8.01298 5.33333 8.01298H7.33333C7.70152 8.01298 8 7.7145 8 7.34631C8 6.97812 7.70152 6.67965 7.33333 6.67965H5.33333C4.96514 6.67965 4.66667 6.97812 4.66667 7.34631Z" fill="#0F1529" fill-opacity="0.82"/>
</g>
</g>
</svg>
