<svg width="36" height="36" viewBox="0 0 36 36" fill="none" xmlns="http://www.w3.org/2000/svg">
<path fill-rule="evenodd" clip-rule="evenodd" d="M8.39696 4.06232C7.85978 4.06232 7.36361 4.34957 7.09613 4.81543L2.07028 13.5687C1.75517 14.1176 1.81839 14.8051 2.22831 15.2872L17.5425 33.2996C17.7821 33.5814 18.2171 33.5814 18.4567 33.2996L33.7709 15.2872C34.1808 14.8051 34.2441 14.1176 33.9289 13.5687L28.9031 4.81543C28.6356 4.34957 28.1395 4.06232 27.6023 4.06232H8.39696ZM11.9996 12.5753C11.1712 12.5753 10.4996 13.2468 10.4996 14.0753C10.4996 14.9037 11.1712 15.5753 11.9996 15.5753H23.9996C24.828 15.5753 25.4996 14.9037 25.4996 14.0753C25.4996 13.2468 24.828 12.5753 23.9996 12.5753H11.9996Z" fill="#4E40E5"/>
</svg>
