<svg width="16" height="16" viewBox="0 0 16 16" fill="none" xmlns="http://www.w3.org/2000/svg">
<path d="M12.1299 12.1279C12.3252 11.9327 12.3266 11.6175 12.1313 11.4222L8.70894 7.99986L12.1313 4.57749C12.3266 4.38222 12.3252 4.06706 12.1299 3.87179C11.9346 3.67653 11.6195 3.67512 11.4242 3.87038C11.2289 4.06564 8.00183 7.29275 8.00183 7.29275L4.57944 3.87035C4.38417 3.67509 4.06901 3.6765 3.87374 3.87177C3.67848 4.06703 3.67707 4.38219 3.87233 4.57746L7.29473 7.99986L3.8723 11.4223C3.67704 11.6175 3.67846 11.9327 3.87372 12.128C4.06898 12.3232 4.38415 12.3246 4.57941 12.1294L8.00183 8.70696L11.4242 12.1294C11.6195 12.3246 11.9347 12.3232 12.1299 12.1279Z" fill="#060709" fill-opacity="0.5"/>
</svg>
