<svg width="12" height="12" viewBox="0 0 12 12" fill="none" xmlns="http://www.w3.org/2000/svg">
<path d="M9.77461 5.49857C9.54609 4.98529 9.21914 4.5306 8.80313 4.14857L8.46211 3.83568C8.41172 3.79115 8.33203 3.81107 8.30977 3.87435L8.15742 4.31146C8.0625 4.58568 7.88789 4.86576 7.64062 5.14115C7.62422 5.15873 7.60547 5.16341 7.59258 5.16459C7.57969 5.16576 7.55977 5.16341 7.54219 5.14701C7.52578 5.13295 7.51758 5.11185 7.51875 5.09076C7.56211 4.38529 7.35117 3.58959 6.88945 2.72357C6.50742 2.00404 5.97656 1.44271 5.31328 1.0513L4.8293 0.766539C4.76602 0.729039 4.68516 0.778258 4.68867 0.852086L4.71445 1.41459C4.73203 1.79896 4.6875 2.1388 4.58203 2.42123C4.45312 2.76693 4.26797 3.08802 4.03125 3.3763C3.86484 3.57787 3.67852 3.75951 3.47461 3.91654C2.98125 4.29506 2.57461 4.78841 2.29922 5.34037C2.02148 5.89818 1.875 6.52279 1.875 7.14857C1.875 7.7017 1.98398 8.23724 2.19961 8.74232C2.4082 9.22865 2.70586 9.66693 3.08438 10.0419C3.46406 10.4169 3.90469 10.7122 4.3957 10.9173C4.9043 11.1306 5.44336 11.2384 6 11.2384C6.55664 11.2384 7.0957 11.1306 7.6043 10.9185C8.09531 10.7134 8.53711 10.4193 8.91562 10.0431C9.29531 9.6681 9.59297 9.22982 9.80039 8.74349C10.016 8.23841 10.125 7.70287 10.125 7.14974C10.125 6.57787 10.0078 6.0224 9.77461 5.49857Z" fill="url(#paint0_linear_705_32686)"/>
<defs>
<linearGradient id="paint0_linear_705_32686" x1="6" y1="0.753662" x2="6" y2="11.2384" gradientUnits="userSpaceOnUse">
<stop stop-color="#FFB800"/>
<stop offset="1" stop-color="#FF9B26"/>
</linearGradient>
</defs>
</svg>
