<svg width="24" height="24" viewBox="0 0 24 24" fill="none" xmlns="http://www.w3.org/2000/svg">
<mask id="mask0_986_292" style="mask-type:alpha" maskUnits="userSpaceOnUse" x="0" y="0" width="24" height="24">
<rect width="24" height="24" fill="#D9D9D9"/>
</mask>
<g mask="url(#mask0_986_292)">
<path fill-rule="evenodd" clip-rule="evenodd" d="M6.59922 4.2002C5.27374 4.2002 4.19922 5.27471 4.19922 6.60019V17.4002C4.19922 18.7257 5.27373 19.8002 6.59922 19.8002H17.3992C18.7247 19.8002 19.7992 18.7257 19.7992 17.4002V6.6002C19.7992 5.27471 18.7247 4.2002 17.3992 4.2002H6.59922ZM8.88016 16.1997C8.48251 16.1997 8.16016 15.8774 8.16016 15.4797V12.8054C8.16016 12.4078 8.48251 12.0854 8.88016 12.0854C9.2778 12.0854 9.60016 12.4078 9.60016 12.8054V15.4797C9.60016 15.8774 9.2778 16.1997 8.88016 16.1997ZM11.9973 16.1997C11.5997 16.1997 11.2773 15.8774 11.2773 15.4797V11.2626C11.2773 10.8649 11.5997 10.5426 11.9973 10.5426C12.395 10.5426 12.7173 10.8649 12.7173 11.2626V15.4797C12.7173 15.8774 12.395 16.1997 11.9973 16.1997ZM14.3992 15.4797C14.3992 15.8774 14.7216 16.1997 15.1192 16.1997C15.5169 16.1997 15.8392 15.8774 15.8392 15.4797V9.71971C15.8392 9.32206 15.5169 8.99971 15.1192 8.99971C14.7216 8.99971 14.3992 9.32206 14.3992 9.71971V15.4797Z" fill="#E4B920"/>
</g>
</svg>
