<svg xmlns="http://www.w3.org/2000/svg" width="14" height="14" viewBox="0 0 14 14" fill="none">
    <path fill-rule="evenodd" clip-rule="evenodd"
        d="M12.8322 11.6488V7.88274C12.8322 7.56057 12.571 7.29939 12.2488 7.29939C11.9267 7.29939 11.6655 7.56057 11.6655 7.88274V11.6488H1.16523V3.4821H7.28819C7.61035 3.4821 7.87152 3.22093 7.87152 2.89876C7.87152 2.5766 7.61035 2.31543 7.28819 2.31543H6.99421H1.16523C0.520882 2.31543 -0.00146484 2.83776 -0.00146484 3.4821V11.6488C-0.00146484 12.2931 0.520882 12.8154 1.16523 12.8154H11.6655C12.3098 12.8154 12.8322 12.2931 12.8322 11.6488ZM2.91527 5.82923C2.5931 5.82923 2.33192 6.0904 2.33192 6.41256C2.33192 6.73473 2.5931 6.99589 2.91527 6.99589H6.41531C6.73749 6.99589 6.99866 6.73473 6.99866 6.41256C6.99866 6.0904 6.73749 5.82923 6.41531 5.82923H2.91527ZM2.33192 8.74589C2.33192 8.42373 2.5931 8.16256 2.91527 8.16256H8.74869C9.07086 8.16256 9.33204 8.42373 9.33204 8.74589C9.33204 9.06806 9.07086 9.32923 8.74869 9.32923H2.91527C2.5931 9.32923 2.33192 9.06806 2.33192 8.74589Z"
        fill="currentColor" />
    <path
        d="M11.08 1.76862C11.08 1.44606 11.3415 1.18457 11.6641 1.18457C11.9867 1.18457 12.2481 1.44606 12.2481 1.76862V2.89768L13.4161 2.89756C13.7387 2.89756 14.0002 3.15904 14.0002 3.4816C14.0002 3.80416 13.7387 4.06565 13.4161 4.06565L12.2481 4.06577V5.23358C12.2481 5.55614 11.9867 5.81763 11.6641 5.81763C11.3415 5.81763 11.08 5.55614 11.08 5.23358V4.06577H9.91756C9.59499 4.06577 9.3335 3.80429 9.3335 3.48173C9.3335 3.15917 9.59499 2.89768 9.91756 2.89768H11.08V1.76862Z"
        fill="currentColor" />
</svg>
