<svg xmlns="http://www.w3.org/2000/svg" width="14" height="14" viewBox="0 0 14 14" fill="none">
  <g clip-path="url(#clip0_3456_31287)">
    <path d="M7 0.875C3.62293 0.875 0.875 3.62251 0.875 7C0.875 10.3775 3.62251 13.125 7 13.125C10.3771 13.125 13.125 10.3775 13.125 7C13.125 3.62251 10.3775 0.875 7 0.875ZM9.49857 8.8865C9.66919 9.058 9.66874 9.3345 9.49769 9.50513C9.41239 9.59 9.30082 9.63288 9.18883 9.63288C9.07639 9.63288 8.96439 9.59 8.87907 9.50426L6.99781 7.61731L5.11044 9.48457C5.02514 9.56858 4.91399 9.61101 4.80287 9.61101C4.69 9.61101 4.57756 9.56769 4.49182 9.48107C4.32206 9.30913 4.32338 9.03262 4.49532 8.86244L6.3805 6.99781L4.5023 5.1135C4.33168 4.94243 4.33213 4.6655 4.50318 4.49487C4.67425 4.3238 4.95073 4.32469 5.1218 4.49574L7.00261 6.38224L8.88998 4.515C9.06148 4.34483 9.33885 4.34657 9.50861 4.51851C9.67879 4.69045 9.67705 4.96738 9.5051 5.13714L7.61994 7.00174L9.49857 8.8865Z" fill="#1C1F23" fill-opacity="0.35"/>
  </g>
  <defs>
    <clipPath id="clip0_3456_31287">
      <rect width="14" height="14" fill="white"/>
    </clipPath>
  </defs>
</svg>
