<svg xmlns="http://www.w3.org/2000/svg" width="16" height="16" viewBox="0 0 16 16" fill="none">
  <path
    d="M11.1829 12.0826C10.1442 12.9235 8.82134 13.4272 7.38082 13.4272C4.04125 13.4272 1.33398 10.7199 1.33398 7.38034C1.33398 4.04076 4.04125 1.3335 7.38082 1.3335C10.7204 1.3335 13.4277 4.04076 13.4277 7.38034C13.4277 8.82085 12.924 10.1437 12.0831 11.1824L14.4843 13.5837C14.7314 13.8307 14.7267 14.2321 14.4797 14.4792C14.2326 14.7263 13.8312 14.7309 13.5842 14.4838L11.1829 12.0826ZM12.1546 7.38034C12.1546 4.74383 10.0173 2.60652 7.38082 2.60652C4.74432 2.60652 2.607 4.74383 2.607 7.38034C2.607 10.0168 4.74432 12.1542 7.38082 12.1542C10.0173 12.1542 12.1546 10.0168 12.1546 7.38034Z"
    fill="currentColor" />
</svg>
