<svg xmlns="http://www.w3.org/2000/svg" width="1em" height="1em" viewBox="0 0 24 24" fill="currentColor">
  <path
    d="M6.5754 10.9005C6.5754 10.2585 7.09588 9.738 7.73793 9.738C8.37998 9.738 8.90046 10.2585 8.90046 10.9005V12.4506C8.90046 13.0926 8.37998 13.6131 7.73793 13.6131C7.09588 13.6131 6.5754 13.0926 6.5754 12.4506V10.9005Z"
    fill="currentColor" />
  <path
    d="M16.2602 9.738C15.6181 9.738 15.0976 10.2585 15.0976 10.9005V12.4506C15.0976 13.0926 15.6181 13.6131 16.2602 13.6131C16.9022 13.6131 17.4227 13.0926 17.4227 12.4506V10.9005C17.4227 10.2585 16.9022 9.738 16.2602 9.738Z"
    fill="currentColor" />
  <path fill-rule="evenodd" clip-rule="evenodd"
    d="M6.02809 3.18654C3.80298 3.69368 2.00234 5.27178 1.49252 7.49628C1.21579 8.70376 1 10.2328 1 12.0654C1 14.1381 1.27607 15.8011 1.60415 17.0455C2.098 18.9188 3.58981 20.2764 5.46958 20.7448C7.03213 21.1342 9.22811 21.495 12.0013 21.495C14.7745 21.495 16.9704 21.1342 18.533 20.7448C20.4127 20.2764 21.9045 18.9188 22.3983 17.0456C22.7264 15.8011 23.0025 14.1381 23.0025 12.0654C23.0025 10.2328 22.7867 8.70372 22.5099 7.49623C22.0001 5.27176 20.1995 3.69368 17.9744 3.18654C16.3854 2.82436 14.3251 2.50488 12.0013 2.50488C9.6775 2.50488 7.61717 2.82437 6.02809 3.18654ZM3 12.0654C3 13.9584 3.25189 15.4501 3.53807 16.5357C3.82873 17.6382 4.71419 18.4954 5.95319 18.8042C7.36948 19.1571 9.40297 19.495 12.0013 19.495C14.5996 19.495 16.6331 19.1571 18.0493 18.8042C19.2883 18.4954 20.1737 17.6382 20.4644 16.5357C20.7506 15.4502 21.0025 13.9585 21.0025 12.0654C21.0025 10.3911 20.8054 9.01187 20.5605 7.94302C20.2468 6.57444 19.1203 5.49899 17.53 5.13653C16.0539 4.8001 14.1452 4.50488 12.0013 4.50488C9.85738 4.50488 7.94868 4.8001 6.47252 5.13653C4.88219 5.499 3.75564 6.57447 3.44198 7.94306C3.19702 9.0119 3 10.3911 3 12.0654Z"
    fill="currentColor" />
</svg>
