<svg xmlns="http://www.w3.org/2000/svg" width="1em" height="1em" viewBox="0 0 1em 1em" fill="none">
    <path
        d="M12.8354 1.76433C13.226 1.3738 13.8591 1.3738 14.2497 1.76433C14.6402 2.15485 14.6402 2.78802 14.2497 3.17854L13.5426 3.88565L12.1283 2.47144L12.8354 1.76433Z"
        fill="currentColor" />
    <path
        d="M11.4262 3.17362L12.8404 4.58784L7.62847 9.79974C7.48918 9.93903 7.30983 10.0313 7.11552 10.0636L5.85491 10.2732C5.8189 10.2792 5.78221 10.2674 5.75639 10.2416C5.73025 10.2155 5.71853 10.1782 5.72503 10.1418L5.94881 8.88714C5.98219 8.70002 6.07214 8.52764 6.20654 8.39323L11.4262 3.17362Z"
        fill="currentColor" />
    <path
        d="M9.00004 2H2.66671C1.93033 2 1.33337 2.59695 1.33337 3.33333V13.3333C1.33337 14.0697 1.93033 14.6667 2.66671 14.6667H12.6667C13.4031 14.6667 14 14.0697 14 13.3333V6.66667L12.6667 8V13.3333H2.66671V3.33333H7.66671L9.00004 2Z"
        fill="currentColor" />
</svg>
