<svg width="16" height="16" viewBox="0 0 16 16" fill="none" xmlns="http://www.w3.org/2000/svg">
<path fill-rule="evenodd" clip-rule="evenodd" d="M2.68188 2.34251C2.68188 1.9755 2.38436 1.67798 2.01735 1.67798C1.65033 1.67798 1.35281 1.9755 1.35281 2.34251V5.74337C1.56341 5.68147 1.78628 5.64826 2.01691 5.64826C2.24786 5.64826 2.47103 5.68156 2.68188 5.74362L2.68188 2.34251ZM2.68188 10.2549C2.47103 10.317 2.24786 10.3503 2.01691 10.3503C1.78628 10.3503 1.56341 10.3171 1.35281 10.2552V13.6581C1.35281 14.0251 1.65033 14.3226 2.01735 14.3226C2.38436 14.3226 2.68188 14.0251 2.68188 13.6581L2.68188 10.2549ZM3.34955 8.00041C3.34955 8.73444 2.7545 9.32948 2.02048 9.32948C1.28645 9.32948 0.691406 8.73444 0.691406 8.00041C0.691406 7.26638 1.28645 6.67134 2.02048 6.67134C2.7545 6.67134 3.34955 7.26638 3.34955 8.00041ZM5.8377 7.70518L6.33589 7.30614V6.66784V3.02615H13.9813L13.9813 12.9942L6.33589 12.9942V9.32401V8.68571L5.8377 8.28667L5.4747 7.99593L5.8377 7.70518ZM5.00682 12.9942V9.32401L3.99627 8.5146C3.66414 8.24857 3.66414 7.74328 3.99627 7.47726L5.00682 6.66784V3.02615C5.00682 2.29212 5.60187 1.69708 6.33589 1.69708H13.9813C14.7153 1.69708 15.3104 2.29212 15.3104 3.02615V12.9942C15.3104 13.7282 14.7153 14.3233 13.9813 14.3233H6.33589C5.60187 14.3233 5.00682 13.7282 5.00682 12.9942ZM7.18453 6.83196C7.18453 6.46495 7.48205 6.16742 7.84906 6.16742H12.5579C12.9249 6.16742 13.2225 6.46495 13.2225 6.83196C13.2225 7.19897 12.9249 7.49649 12.5579 7.49649H7.84906C7.48205 7.49649 7.18453 7.19897 7.18453 6.83196ZM7.84906 8.50374C7.48205 8.50374 7.18453 8.80126 7.18453 9.16828C7.18453 9.53529 7.48205 9.83281 7.84906 9.83281H10.5744C10.9414 9.83281 11.239 9.53529 11.239 9.16828C11.239 8.80126 10.9414 8.50374 10.5744 8.50374H7.84906Z" fill="#040A1A"/>
</svg>
