<svg width="16" height="16" viewBox="0 0 16 16" fill="none" xmlns="http://www.w3.org/2000/svg">
  <path
    d="M6.80474 2.47181C7.06509 2.21146 7.06509 1.78935 6.80474 1.529C6.54439 1.26865 6.12228 1.26865 5.86193 1.529L3.33333 4.0576L2.13807 2.86234C1.87772 2.60199 1.45561 2.60199 1.19526 2.86234C0.934913 3.12268 0.934913 3.5448 1.19526 3.80514L2.86193 5.47181C3.12228 5.73216 3.54439 5.73216 3.80474 5.47181L6.80474 2.47181Z"
    fill="currentColor" />
  <path
    d="M8.66667 3.33324C8.29848 3.33324 8 3.63171 8 3.9999C8 4.36809 8.29848 4.66657 8.66667 4.66657H14C14.3682 4.66657 14.6667 4.36809 14.6667 3.9999C14.6667 3.63171 14.3682 3.33324 14 3.33324H8.66667Z"
    fill="currentColor" />
  <path
    d="M4 9.33324C2.52724 9.33324 1.33333 10.5271 1.33333 11.9999C1.33333 13.4727 2.52724 14.6666 4 14.6666C5.47276 14.6666 6.66667 13.4727 6.66667 11.9999C6.66667 10.5271 5.47276 9.33324 4 9.33324ZM2.66667 11.9999C2.66667 11.2635 3.26362 10.6666 4 10.6666C4.73638 10.6666 5.33333 11.2635 5.33333 11.9999C5.33333 12.7363 4.73638 13.3332 4 13.3332C3.26362 13.3332 2.66667 12.7363 2.66667 11.9999Z"
    fill="currentColor" />
  <path
    d="M8 11.9999C8 11.6317 8.29848 11.3332 8.66667 11.3332H14C14.3682 11.3332 14.6667 11.6317 14.6667 11.9999C14.6667 12.3681 14.3682 12.6666 14 12.6666H8.66667C8.29848 12.6666 8 12.3681 8 11.9999Z"
    fill="currentColor" />
</svg>
