<svg xmlns="http://www.w3.org/2000/svg" width="25" height="25" viewBox="0 0 25 25" fill="none">
    <path
        d="M15.1505 9.03885C15.3576 9.03885 15.5618 9.054 15.7641 9.07598C15.213 6.53636 12.4687 4.64902 9.33644 4.64902C5.83434 4.64902 2.96545 7.01126 2.96545 10.0106C2.96545 11.7416 3.92012 13.1634 5.51483 14.2661L4.87773 16.163L7.10465 15.0576C7.902 15.2134 8.54103 15.3742 9.33644 15.3742C9.53626 15.3742 9.73412 15.3644 9.93103 15.3488C9.80643 14.9277 9.73412 14.486 9.73412 14.0282C9.73414 11.2741 12.1242 9.03885 15.1505 9.03885ZM11.7256 7.32934C12.2053 7.32934 12.5229 7.64202 12.5229 8.11643C12.5229 8.58887 12.2053 8.90547 11.7256 8.90547C11.2477 8.90547 10.7689 8.58887 10.7689 8.11643C10.7689 7.64202 11.2477 7.32934 11.7256 7.32934ZM7.26685 8.90545C6.78901 8.90545 6.30727 8.58885 6.30727 8.11641C6.30727 7.642 6.78901 7.32932 7.26685 7.32932C7.74416 7.32932 8.06224 7.642 8.06224 8.11641C8.06224 8.58887 7.74416 8.90545 7.26685 8.90545ZM20.9655 13.9524C20.9655 11.4319 18.4166 9.37743 15.554 9.37743C12.5229 9.37743 10.1357 11.4319 10.1357 13.9524C10.1357 16.4767 12.5229 18.5267 15.554 18.5267C16.1882 18.5267 16.8282 18.3694 17.4653 18.2111L19.213 19.1579L18.7336 17.5828C20.0128 16.633 20.9655 15.3742 20.9655 13.9524ZM13.7971 13.1634C13.48 13.1634 13.16 12.8512 13.16 12.5326C13.16 12.2185 13.48 11.9024 13.7971 11.9024C14.2788 11.9024 14.5944 12.2185 14.5944 12.5326C14.5944 12.8512 14.2788 13.1634 13.7971 13.1634ZM17.3011 13.1634C16.9865 13.1634 16.6685 12.8512 16.6685 12.5326C16.6685 12.2185 16.9865 11.9024 17.3011 11.9024C17.779 11.9024 18.0985 12.2185 18.0985 12.5326C18.0985 12.8512 17.779 13.1634 17.3011 13.1634Z"
        fill="currentColor" />
</svg>
