<svg xmlns="http://www.w3.org/2000/svg" width="16" height="16" viewBox="0 0 16 16" fill="none">
  <path fill-rule="evenodd" clip-rule="evenodd"
    d="M4.96611 2.07006C5.19197 1.61834 5.65365 1.33301 6.15868 1.33301H9.84392C10.349 1.33301 10.8106 1.61834 11.0365 2.07006L11.668 3.33301H13.3346C14.4392 3.33301 15.3346 4.22844 15.3346 5.33301V11.9997C15.3346 13.1042 14.4392 13.9997 13.3346 13.9997H2.66797C1.5634 13.9997 0.667969 13.1042 0.667969 11.9997V5.33301C0.667969 4.22844 1.5634 3.33301 2.66797 3.33301H4.33464L4.96611 2.07006ZM6.0013 8.66634C6.0013 7.56177 6.89673 6.66634 8.0013 6.66634C9.10587 6.66634 10.0013 7.56177 10.0013 8.66634C10.0013 9.77091 9.10587 10.6663 8.0013 10.6663C6.89673 10.6663 6.0013 9.77091 6.0013 8.66634ZM8.0013 5.33301C6.16035 5.33301 4.66797 6.82539 4.66797 8.66634C4.66797 10.5073 6.16035 11.9997 8.0013 11.9997C9.84225 11.9997 11.3346 10.5073 11.3346 8.66634C11.3346 6.82539 9.84225 5.33301 8.0013 5.33301Z"
    fill="#1D1C23" fill-opacity="0.8"
    style="fill:#1D1C23;fill:color(display-p3 0.1137 0.1098 0.1373);fill-opacity:0.8;" />
</svg>
