<svg width="16" height="16" viewBox="0 0 16 16" fill="none" xmlns="http://www.w3.org/2000/svg">
<path fill-rule="evenodd" clip-rule="evenodd" d="M7.2061 7.61946L11.8577 2.96651L13.037 4.1458L8.38539 8.79875C8.09193 9.09222 7.28931 9.061 7.04091 9.0436C6.99674 9.0405 6.96365 9.00738 6.96061 8.96321C6.94349 8.71482 6.91313 7.91242 7.2061 7.61946ZM13.9395 3.24311L13.4302 3.75256L12.2509 2.57327L12.7602 2.06382C13.1116 1.71235 13.6606 1.69142 13.9862 2.01707C14.3119 2.34272 14.2909 2.89164 13.9395 3.24311ZM2.98048 3.66635C2.98048 3.47523 3.13542 3.32029 3.32655 3.32029L8.08813 3.32029C8.44929 3.32029 8.74207 3.02751 8.74207 2.66635C8.74207 2.30519 8.44929 2.01241 8.08813 2.01241L3.32655 2.01241C2.4131 2.01241 1.67261 2.7529 1.67261 3.66635V12.6755C1.67261 13.5889 2.4131 14.3294 3.32654 14.3294H12.3357C13.2482 14.3294 13.9896 13.5909 13.9896 12.6765V7.91388C13.9896 7.55272 13.6968 7.25994 13.3357 7.25994C12.9745 7.25994 12.6817 7.55272 12.6817 7.91388V12.6765C12.6817 12.8667 12.5277 13.0215 12.3357 13.0215H3.32654C3.13542 13.0215 2.98048 12.8666 2.98048 12.6755L2.98048 3.66635Z" fill="#1D1C23" fill-opacity="0.6"/>
</svg>
