<svg xmlns="http://www.w3.org/2000/svg" width="20" height="20" viewBox="0 0 20 20" fill="none">
  <mask id="mask0_1862_62423" style="mask-type:alpha" maskUnits="userSpaceOnUse" x="0" y="0" width="20" height="20">
    <rect width="20" height="20" fill="#D9D9D9" />
  </mask>
  <g mask="url(#mask0_1862_62423)">
    <path
      d="M16 10C16 11.2537 15.6073 12.4758 14.8771 13.4949C14.1469 14.5139 13.1158 15.2786 11.9286 15.6816C10.7415 16.0846 9.45797 16.1056 8.25829 15.7416C7.05861 15.3777 6.00306 14.6472 5.23988 13.6526C4.4767 12.658 4.04423 11.4493 4.00321 10.1963C3.96219 8.94333 4.31469 7.70896 5.01118 6.66658C5.70768 5.6242 6.71319 4.82617 7.8865 4.38456C9.05981 3.94296 10.342 3.87997 11.5529 4.20444"
      stroke="#6B6B75" stroke-width="1.33" stroke-linecap="round" />
    <path
      d="M13 5C13 4.72386 13.2239 4.5 13.5 4.5H17.5C17.7761 4.5 18 4.72386 18 5V7.5C18 7.77614 17.7761 8 17.5 8H14.5L13.7773 8.48177C13.4451 8.70329 13 8.46509 13 8.06574V5Z"
      fill="#6B6B75" />
    <path d="M10 7V9.92984C10 9.97526 10.0155 10.0193 10.0438 10.0548L12 12.5" stroke="#6B6B75" stroke-width="1.33"
      stroke-linecap="round" />
  </g>
</svg>
