<svg width="14" height="14" viewBox="0 0 14 14" fill="none" xmlns="http://www.w3.org/2000/svg">
<path d="M5.7922 2.49219C6.78449 2.2263 7.83678 2.29527 8.78588 2.6884C9.62804 3.03724 10.3472 3.624 10.8574 4.37336L9.04317 4.37336C8.721 4.37336 8.45984 4.63452 8.45984 4.95669C8.45984 5.27886 8.721 5.54002 9.04317 5.54002L12.2494 5.54002C12.448 5.54002 12.6239 5.44086 12.7293 5.28936C12.7949 5.195 12.8334 5.08034 12.8334 4.95669V1.74984C12.8334 1.42767 12.5722 1.16651 12.25 1.16651C11.9279 1.16651 11.6667 1.42767 11.6667 1.74984V3.49983C11.0418 2.66666 10.2024 2.01234 9.23234 1.61054C8.04597 1.11913 6.7306 1.03292 5.49024 1.36527C4.24988 1.69763 3.15385 2.42997 2.37213 3.44873C1.5904 4.46749 1.16669 5.71572 1.16669 6.99984C1.16669 8.28396 1.59041 9.53219 2.37213 10.5509C3.15385 11.5697 4.24988 12.3021 5.49024 12.6344C6.7306 12.9668 8.04597 12.8805 9.23234 12.3891C10.4187 11.8977 11.4098 11.0286 12.0518 9.9165C12.2129 9.6375 12.1173 9.28074 11.8383 9.11966C11.5593 8.95857 11.2026 9.05417 11.0415 9.33317C10.5278 10.2228 9.73497 10.9181 8.78588 11.3113C7.83678 11.7044 6.78449 11.7734 5.7922 11.5075C4.79991 11.2416 3.92308 10.6557 3.29771 9.84073C2.67233 9.02572 2.33335 8.02713 2.33335 6.99984C2.33335 5.97255 2.67233 4.97396 3.2977 4.15895C3.92308 3.34395 4.79991 2.75807 5.7922 2.49219Z" fill="#4D53E8"/>
</svg>
