<svg xmlns="http://www.w3.org/2000/svg" width="16" height="16" viewBox="0 0 16 16" fill="none">
  <path d="M8.70469 5.40732L9.6475 6.35012C11.47 8.1726 11.47 11.1273 9.6475 12.9498L9.41183 13.1855C7.58936 15.0079 4.63459 15.0079 2.81215 13.1855C0.989701 11.3631 0.989701 8.40827 2.81215 6.58583L3.75496 7.52867C2.45321 8.8304 2.45321 10.9409 3.75496 12.2427C5.05671 13.5444 7.16723 13.5444 8.46903 12.2427L8.70469 12.007C10.0064 10.7052 10.0064 8.59467 8.70469 7.29294L7.76189 6.35012L8.70469 5.40732ZM13.183 9.41427L12.2402 8.47147C13.542 7.16967 13.542 5.05915 12.2402 3.7574C10.9385 2.45566 8.82796 2.45566 7.52623 3.7574L7.29049 3.9931C5.98875 5.29485 5.98875 7.4054 7.29049 8.70714L8.23329 9.64994L7.29049 10.5927L6.34768 9.64994C4.52523 7.82754 4.52523 4.87274 6.34768 3.0503L6.58339 2.81459C8.40583 0.992142 11.3606 0.992142 13.183 2.81459C15.0055 4.63704 15.0055 7.5918 13.183 9.41427Z" fill="#165DFF"/>
</svg>
