<svg xmlns="http://www.w3.org/2000/svg" width="18" height="18" viewBox="0 0 18 18" fill="currentColor">
  <path fill-rule="evenodd" clip-rule="evenodd" d="M10.4803 9.57609L11.1489 10.2446C11.2444 10.3401 11.2444 10.4834 11.1489 10.5789L9.66854 12.0592L10.8146 13.2053L8.47472 15.5452C6.99438 17.0255 4.79775 17.2165 3.1264 16.166L1.98034 17.312C1.78933 17.5031 1.50281 17.5031 1.3118 17.312L0.643258 16.6435C0.452247 16.4525 0.452247 16.166 0.643258 15.975L1.78933 14.8289C0.786517 13.1575 0.977528 10.9132 2.41011 9.48058L4.75 7.14069L5.96766 8.35836L7.47182 6.8542C7.56732 6.75869 7.71058 6.75869 7.80609 6.8542L8.47463 7.52274C8.57013 7.61824 8.57013 7.7615 8.47463 7.85701L6.97047 9.36116L8.66573 11.0564L10.1461 9.57609C10.2416 9.48058 10.3848 9.48058 10.4803 9.57609ZM3.74719 14.9244C4.70225 15.8795 6.18258 15.8795 7.13764 14.9244L8.80899 13.2531L4.75 9.19406L3.07865 10.8654C2.1236 11.8205 2.1236 13.3008 3.07865 14.2559L3.74719 14.9244ZM16.6882 0.64631L17.3567 1.31485C17.5478 1.50586 17.5478 1.84013 17.3567 1.98339L16.2107 3.12946C17.2135 4.80081 17.0225 7.04519 15.5899 8.47777L13.25 10.8177L7.18539 4.75305L9.52528 2.41316C11.0056 0.932827 13.2022 0.741816 14.8736 1.79238L16.0197 0.64631C16.2107 0.455299 16.4972 0.455299 16.6882 0.64631ZM13.25 8.81204L14.9213 7.14069C15.8764 6.18564 15.8764 4.7053 14.9213 3.75024L14.2528 3.0817C13.2978 2.12665 11.8174 2.12665 10.8624 3.0817L9.19101 4.75305L13.25 8.81204Z" />
</svg>