<svg width="16" height="16" viewBox="0 0 16 16" fill="currentColor" xmlns="http://www.w3.org/2000/svg">
    <g id="icon_collection_outlined">
        <path id="Union"
            d="M7.99998 2.45772L9.62857 4.9797C9.89659 5.39475 10.3087 5.6959 10.7856 5.82512L13.6856 6.61097L11.7906 8.97344C11.4839 9.35578 11.3283 9.83744 11.3533 10.3269L11.5078 13.35L8.71978 12.2745C8.25655 12.0958 7.74341 12.0958 7.28017 12.2745L4.49213 13.35L4.64663 10.3269C4.67164 9.83744 4.51603 9.35578 4.20934 8.97344L2.3143 6.61097L5.21434 5.82512C5.69121 5.6959 6.10336 5.39475 6.37138 4.9797L7.99998 2.45772ZM8.84004 1.30078C8.44611 0.690756 7.55384 0.690755 7.15991 1.30078L5.25129 4.25639C5.16195 4.39474 5.02457 4.49513 4.86561 4.5382L1.47417 5.45721C0.778536 5.64572 0.504701 6.48591 0.955668 7.04812L3.16927 9.80772C3.2715 9.93517 3.32337 10.0957 3.31503 10.2589L3.13433 13.7948C3.09737 14.5179 3.81735 15.0394 4.49292 14.7788L7.76004 13.5185C7.91445 13.4589 8.0855 13.4589 8.23991 13.5185L11.507 14.7788C12.1826 15.0394 12.9026 14.5179 12.8656 13.7948L12.6849 10.2589C12.6766 10.0957 12.7285 9.93517 12.8307 9.80772L15.0443 7.04812C15.4953 6.48591 15.2214 5.64572 14.5258 5.45721L11.1343 4.5382C10.9754 4.49513 10.838 4.39474 10.7487 4.25639L8.84004 1.30078Z" />
    </g>
</svg>
