<svg width="24" height="24" viewBox="0 0 24 24" fill="none" xmlns="http://www.w3.org/2000/svg">
<g clip-path="url(#clip0_7786_1247)">
<path d="M23.8126 9.15651C24.0365 8.92192 23.913 8.52801 23.597 8.46881L16.2045 7.08411C16.0753 7.05991 15.9636 6.97764 15.9006 6.86025L12.3338 0.210854C12.2591 0.0711924 12.111 0.00122838 11.9633 0C11.8155 0.00120167 11.6675 0.0712191 11.5928 0.210854L8.02605 6.86025C7.96303 6.97764 7.85133 7.05991 7.72214 7.08411L0.329655 8.46881C0.0136682 8.52801 -0.109837 8.92192 0.114075 9.15651L5.49138 14.7873C5.58655 14.887 5.63037 15.0264 5.60975 15.1639L4.38098 22.6952C4.3324 23.019 4.65854 23.2669 4.94972 23.1273L11.7764 19.8275C11.8347 19.7995 11.8986 19.7851 11.9633 19.7853C12.028 19.7851 12.092 19.7995 12.1503 19.8275L18.9769 23.1273C19.2681 23.2669 19.5942 23.019 19.5457 22.6952L18.2938 15.0232L23.8126 9.15651Z" fill="#FFCD00"/>
<path d="M13.2398 10.8324C13.1192 10.7317 10.276 9.75542 5.92382 10.4052C5.83944 10.4177 5.76592 10.3947 5.70912 10.352C5.68998 10.4588 5.80491 10.543 5.94914 10.553C9.02178 10.7672 10.7403 12.0213 11.2763 12.4623C12.3653 11.69 13.1959 11.111 13.2274 11.0864C13.3254 11.0101 13.3261 10.9045 13.2398 10.8324ZM16.8622 10.032C15.7475 10.9712 12.5853 13.1536 11.4808 13.9967C11.3509 14.0958 11.396 14.2484 11.5369 14.3019C11.992 14.4752 12.5043 14.621 13.0435 14.7411L17.3104 10.676C17.6453 10.3239 17.4502 9.89754 17.0321 9.80383C17.0047 9.88424 16.945 9.96227 16.8622 10.032ZM20.4811 15.147L20.4784 15.1482C18.5969 15.9415 13.9309 17.1002 8.31717 16.9055C7.63927 16.882 6.96515 16.8063 6.58714 16.7366C6.53194 16.7264 6.48358 16.7095 6.44091 16.6873C6.15873 17.0137 6.49627 17.2604 7.69994 17.5039C11.2218 18.2162 15.386 18.7298 18.8376 18.509L18.6022 17.063C19.7699 16.2237 20.386 15.4829 20.4535 15.3754C20.5309 15.2522 20.4811 15.147 20.4811 15.147Z" fill="#F1A308"/>
<path d="M20.1582 14.9985C18.7346 15.1357 14.393 15.097 11.8312 14.1128C11.6949 14.0605 11.6487 13.9108 11.7744 13.8139C12.8432 12.9904 15.9033 10.8583 16.982 9.94093C17.1922 9.76212 17.2477 9.52871 16.992 9.33897C16.5017 8.97519 14.7711 8.37222 12.7675 8.35585C9.90026 8.33235 7.0834 9.14356 5.84768 9.80026C5.55439 9.95613 5.7304 10.3669 6.03007 10.3208C10.4155 9.64684 13.28 10.6615 13.4015 10.766C13.4885 10.8407 13.4836 10.9504 13.3882 11.0254C13.3071 11.0892 8.06709 14.8537 6.49245 16.1822C6.24447 16.3914 6.30966 16.8297 6.71542 16.9037C7.09334 16.9726 7.76771 17.0482 8.44541 17.0715C14.0578 17.2641 18.628 15.9435 20.509 15.1587C20.509 15.1587 20.4516 14.9703 20.1582 14.9985Z" fill="white"/>
</g>
<defs>
<clipPath id="clip0_7786_1247">
<rect width="24" height="24" fill="white"/>
</clipPath>
</defs>
</svg>
