<svg xmlns="http://www.w3.org/2000/svg" width="16" height="16" viewBox="0 0 16 16" fill="none">
<path d="M7.9974 13.9998C11.3111 13.9998 13.9974 11.3135 13.9974 7.99984C13.9974 4.68613 11.3111 1.99984 7.9974 1.99984C4.68369 1.99984 1.9974 4.68613 1.9974 7.99984C1.9974 11.3135 4.68369 13.9998 7.9974 13.9998ZM7.9974 15.3332C3.94731 15.3332 0.664062 12.0499 0.664062 7.99984C0.664062 3.94975 3.94731 0.666504 7.9974 0.666504C12.0475 0.666504 15.3307 3.94975 15.3307 7.99984C15.3307 12.0499 12.0475 15.3332 7.9974 15.3332ZM7.33073 11.3332C7.33073 10.965 7.62921 10.6665 7.9974 10.6665C8.36559 10.6665 8.66406 10.965 8.66406 11.3332C8.66406 11.7014 8.36559 11.9998 7.9974 11.9998C7.62921 11.9998 7.33073 11.7014 7.33073 11.3332ZM5.36397 6.18765C5.37244 6.11313 5.38112 6.05115 5.39 6.00168C5.51996 5.27796 5.84909 4.74573 6.37741 4.40498C6.79117 4.13488 7.29961 3.99984 7.90272 3.99984C8.69519 3.99984 9.35352 4.19175 9.87774 4.57557C10.402 4.95939 10.6641 5.528 10.6641 6.28143C10.6641 6.74344 10.5501 7.13258 10.3222 7.44888C10.1889 7.64079 9.93297 7.88601 9.55427 8.18453L9.18083 8.47773C8.97745 8.63766 8.84245 8.82423 8.77583 9.03747C8.7577 9.09566 8.74176 9.20384 8.72803 9.362C8.71308 9.53428 8.56887 9.6665 8.39594 9.6665H7.64967C7.46558 9.6665 7.31634 9.51726 7.31634 9.33317C7.31634 9.32292 7.31681 9.31267 7.31776 9.30246C7.36068 8.83853 7.40664 8.54496 7.45565 8.42176C7.54681 8.19253 7.78175 7.92866 8.16045 7.63013L8.5444 7.32627C8.67064 7.23032 9.32111 6.77227 9.32111 6.36672C9.32111 5.96118 9.25046 5.81201 9.04684 5.58944C8.84322 5.36687 8.38486 5.29523 7.9711 5.29523C7.56434 5.29523 7.21676 5.40325 7.0467 5.6769C6.96793 5.80364 6.90352 5.93885 6.85707 6.0768C6.83879 6.13107 6.8226 6.19935 6.80849 6.28164C6.78105 6.44166 6.64231 6.55863 6.47995 6.55863H5.69517C5.51108 6.55864 5.36183 6.4094 5.36183 6.2253C5.36183 6.21272 5.36255 6.20015 5.36397 6.18765Z" fill="white"/>
</svg>
