<svg width="14" height="14" viewBox="0 0 14 14" fill="currentColor" xmlns="http://www.w3.org/2000/svg">
  <g id="icon_chat_hashtag">
    <g id="Union">
      <path
        d="M5.86094 5.56652L5.99121 4.74406C6.02487 4.53151 6.20812 4.375 6.42332 4.375C6.69224 4.375 6.8975 4.61533 6.85544 4.88094L6.74685 5.56652H8.11803L8.2483 4.74406C8.28196 4.53151 8.46521 4.375 8.68041 4.375C8.94933 4.375 9.15459 4.61533 9.11252 4.88094L9.00394 5.56652H9.58695C9.85587 5.56652 10.0611 5.80685 10.0191 6.07246C9.9854 6.28501 9.80215 6.44152 9.58695 6.44152H8.86535L8.68057 7.60818H9.26358C9.53251 7.60818 9.73777 7.84851 9.6957 8.11412C9.66203 8.32668 9.47879 8.48318 9.26358 8.48318H8.54199L8.41455 9.28777C8.38089 9.50032 8.19764 9.65683 7.98244 9.65683C7.71352 9.65683 7.50826 9.4165 7.55032 9.15089L7.65608 8.48318H6.2849L6.15746 9.28777C6.1238 9.50032 5.94055 9.65683 5.72535 9.65683C5.45643 9.65683 5.25117 9.4165 5.29324 9.15089L5.39899 8.48318H4.8126C4.54368 8.48318 4.33842 8.24285 4.38049 7.97724C4.41415 7.76469 4.5974 7.60818 4.8126 7.60818H5.53758L5.72236 6.44152H5.13597C4.86705 6.44152 4.66179 6.20119 4.70385 5.93558C4.73752 5.72302 4.92076 5.56652 5.13597 5.56652H5.86094ZM7.79466 7.60818L7.97944 6.44152H6.60826L6.42348 7.60818H7.79466Z"
        fill="#060709" fill-opacity="0.3" />
      <path
        d="M1.97827 12.0939L2.59336 11.2137C1.6 10.1929 0.965169 8.83902 0.884685 7.34248C0.878257 7.22911 0.875 7.11492 0.875 6.99999C0.875 3.61725 3.69635 0.875 7.17665 0.875C7.21503 0.875 7.25329 0.875 7.29167 0.875C8.81477 0.875 10.208 1.43094 11.2796 2.35097C12.1114 3.04514 12.7548 3.94659 13.125 4.9729C13.1377 5.00817 13.4167 6.16408 13.4167 7C13.4167 10.1351 11.0612 12.7201 8.02337 13.0817L8.02192 13.0819C7.78247 13.1104 7.53878 13.125 7.29167 13.125C7.14878 13.1247 7 13.125 6.85745 13.125H2.54011C1.99497 13.125 1.67197 12.5322 1.97827 12.0939ZM7.29167 11.9583C10.0301 11.9583 12.25 9.73841 12.25 7C12.25 6.43801 12.1398 5.86507 12.0095 5.31948C11.7091 4.51442 11.1967 3.80135 10.5321 3.2467L10.5258 3.24146L10.5196 3.23613C9.65157 2.49086 8.52555 2.04167 7.29167 2.04167C7.25333 2.04167 7.21499 2.04167 7.17665 2.04167C4.30918 2.04167 2.04167 4.29263 2.04167 6.99999C2.04167 7.09288 2.0443 7.18504 2.04948 7.27643L2.04967 7.27983C2.11421 8.47996 2.62259 9.57088 3.4295 10.4001L4.10217 11.0914L3.49633 11.9583H6.83752C6.98883 11.955 7.14033 11.958 7.29167 11.9583Z"
        fill="#060709" fill-opacity="0.3" />
    </g>
  </g>
</svg>
