<svg xmlns="http://www.w3.org/2000/svg" width="12" height="12" viewBox="0 0 12 12" fill="none">
    <path
        d="M4 2C4 1.44772 4.44772 1 5 1H7C7.55228 1 8 1.44772 8 2H10.5C10.7761 2 11 2.22386 11 2.5C11 2.77614 10.7761 3 10.5 3H10C10 5.33333 10 7.66667 10 10C10 10.5523 9.55229 11 9 11H3C2.44772 11 2 10.5523 2 10C2 7.66667 2 5.33333 2 3H1.5C1.22386 3 1 2.77614 1 2.5C1 2.22386 1.22386 2 1.5 2H4ZM3 3V10H9V3H3ZM5 4.5C5.27614 4.5 5.5 4.72386 5.5 5V8C5.5 8.27614 5.27614 8.5 5 8.5C4.72386 8.5 4.5 8.27614 4.5 8V5C4.5 4.72386 4.72386 4.5 5 4.5ZM7 4.5C7.27614 4.5 7.5 4.72386 7.5 5V8C7.5 8.27614 7.27614 8.5 7 8.5C6.72386 8.5 6.5 8.27614 6.5 8V5C6.5 4.72386 6.72386 4.5 7 4.5Z"
        fill="currentColor" />
</svg>
