<svg width="13" height="13" viewBox="0 0 13 13" fill="none" xmlns="http://www.w3.org/2000/svg">
  <g id="icon_">
    <path id="Union"
      d="M4.59067 2.84082C4.59067 2.28854 5.03838 1.84082 5.59067 1.84082H7.59067C8.14295 1.84082 8.59067 2.28854 8.59067 2.84082C18.8953 2.84082 -4.05286 2.84082 4.59067 2.84082Z"
      fill="currentColor" />
    <path id="Vector 2581" d="M2.08984 3.34082L11.0898 3.34082" stroke="currentColor" stroke-linecap="round" />
    <path id="Union_2"
      d="M8.08936 5.84082C8.08936 5.56468 7.8655 5.34082 7.58936 5.34082C7.31321 5.34082 7.08936 5.56468 7.08936 5.84082V8.84082C7.08936 9.11696 7.31321 9.34082 7.58936 9.34082C7.8655 9.34082 8.08936 9.11696 8.08936 8.84082V5.84082Z"
      fill="currentColor" />
    <path id="Vector 2580"
      d="M3.0918 3.84082V10.3408C3.0918 10.8931 3.53951 11.3408 4.0918 11.3408H9.08789C9.64018 11.3408 10.0879 10.8931 10.0879 10.3408V3.84082"
      stroke="currentColor" />
    <path id="Union_3"
      d="M6.08984 5.84082C6.08984 5.56468 5.86599 5.34082 5.58984 5.34082C5.3137 5.34082 5.08984 5.56468 5.08984 5.84082V8.84082C5.08984 9.11696 5.3137 9.34082 5.58984 9.34082C5.86599 9.34082 6.08984 9.11696 6.08984 8.84082V5.84082Z"
      fill="currentColor" />
  </g>
</svg>
