<svg width="25" height="24" viewBox="0 0 25 24" fill="none" xmlns="http://www.w3.org/2000/svg">
    <path
        d="M6.93109 8.85484C6.93109 7.12564 8.33296 5.72412 10.0618 5.72412C11.7907 5.72412 13.1925 7.12564 13.1925 8.85484C13.1925 10.584 11.7907 11.9856 10.0618 11.9856C8.33296 11.9856 6.93109 10.584 6.93109 8.85484ZM4.49609 16.4381C4.49609 14.3632 6.15885 12.6813 8.20773 12.6813H11.9159C13.9648 12.6813 15.6275 14.3632 15.6275 16.4381V17.5513C15.6275 18.3166 15.0014 18.9427 14.2361 18.9427H5.88752C5.12224 18.9427 4.49609 18.3166 4.49609 17.5513V16.4381ZM19.8018 18.247H16.925V17.9624V16.8556V16.4381C16.925 15.741 16.925 16.2352 16.925 15.6469L16.8033 15.1163C16.6711 14.6021 16.4346 14.1304 16.118 13.7248H17.7147C19.2522 13.7248 20.4975 14.9396 20.4975 16.4381L20.4975 17.5513C20.5148 17.9237 20.1562 18.2602 19.8018 18.247ZM16.3232 8.50698C15.1718 8.50698 14.2361 9.44132 14.2361 10.5941C14.2361 11.7469 15.1718 12.6813 16.3232 12.6813C17.4746 12.6813 18.4104 11.7469 18.4104 10.5941C18.4104 9.44132 17.4746 8.50698 16.3232 8.50698Z"
        fill="#1D1C23" />
</svg>
