<svg xmlns="http://www.w3.org/2000/svg" width="61" height="36" viewBox="0 0 61 36" fill="none">
<path d="M11.6038 23.051C11.6992 23.2162 11.6624 23.427 11.5103 23.5422C10.3029 24.4563 8.78825 25.0003 7.14379 25.0003C3.19838 25.0003 0 21.8691 0 18.0067C0 14.1443 3.19838 11.0132 7.14379 11.0132C8.84868 11.0132 10.4141 11.5978 11.6422 12.5735C11.789 12.6902 11.8226 12.8971 11.7289 13.0594L10.6951 14.85C10.5528 15.0964 10.201 15.1146 10.004 14.9092C9.26725 14.1411 8.25759 13.6674 7.14379 13.6674C4.88819 13.6674 3.05967 15.6102 3.05967 18.0067C3.05967 20.4032 4.88819 22.346 7.14379 22.346C8.20691 22.346 9.17516 21.9144 9.9018 21.2071C10.101 21.0133 10.4412 21.0372 10.5801 21.2779L11.6038 23.051Z" fill="white"/>
<path d="M30.2067 11.8631C30.2067 11.6466 30.3822 11.4712 30.5986 11.4712H41.2046C41.4211 11.4712 41.5965 11.6466 41.5965 11.8631V13.6294C41.596 13.6294 41.5956 13.6296 41.5952 13.6299L33.7779 22.1186H41.1955C41.4119 22.1186 41.5874 22.294 41.5874 22.5105V24.1854C41.5874 24.4018 41.4119 24.5772 41.1955 24.5772H30.3587C30.1423 24.5772 29.9668 24.4018 29.9668 24.1854V22.5857C29.9668 22.4873 30.0038 22.3926 30.0704 22.3202L37.7969 13.9299H30.5986C30.3822 13.9299 30.2067 13.7544 30.2067 13.538V11.8631Z" fill="white"/>
<path fill-rule="evenodd" clip-rule="evenodd" d="M20.8176 24.9871C24.763 24.9871 27.9614 21.856 27.9614 17.9935C27.9614 14.1311 24.763 11 20.8176 11C16.8722 11 13.6738 14.1311 13.6738 17.9935C13.6738 21.856 16.8722 24.9871 20.8176 24.9871ZM16.7336 17.9935C16.7336 20.39 18.5621 22.3328 20.8177 22.3328C23.0733 22.3328 24.9018 20.39 24.9018 17.9935C24.9018 15.597 23.0733 13.6542 20.8177 13.6542C18.5621 13.6542 16.7336 15.597 16.7336 17.9935Z" fill="white"/>
<path fill-rule="evenodd" clip-rule="evenodd" d="M43.6562 18.0444C43.6562 22.1767 46.6477 24.9907 50.5265 24.9907C52.8279 24.9907 54.5075 24.1248 55.7525 22.7669C55.8956 22.6109 55.8766 22.3692 55.7183 22.2287L54.4753 21.1258C54.3216 20.9894 54.0892 20.996 53.9363 21.1333C52.9574 22.0122 51.9484 22.4809 50.5772 22.4809C48.5998 22.4809 47.0534 21.264 46.7238 19.0838H56.1996C56.4034 19.0838 56.5722 18.9274 56.5876 18.7241C56.5914 18.6733 56.5941 18.6379 56.5941 18.6379C56.6109 18.4722 56.6109 18.3322 56.6109 18.2218C56.6109 14.3684 54.456 11.022 50.197 11.022C46.3689 11.022 43.6562 14.1656 43.6562 17.9937V18.0444ZM46.7762 16.6096H53.5053C53.1823 14.8505 52.0445 13.5318 50.1716 13.5318C48.4329 13.5318 47.1733 14.773 46.7762 16.6096Z" fill="white"/>
</svg>
