<svg width="20" height="20" viewBox="0 0 20 20" fill="none" xmlns="http://www.w3.org/2000/svg">
<path d="M16.487 15.6211H11.6649C11.3913 15.6211 11.1519 15.8605 11.1519 16.1341C11.1519 16.4077 11.3913 16.6471 11.6649 16.6471H16.487C16.7606 16.6471 17 16.4077 17 16.1341C17 15.8605 16.7606 15.6211 16.487 15.6211ZM13.8879 9.60203C15.1532 8.02887 15.1532 7.99467 15.1532 7.99467C15.4268 7.55007 15.5294 7.03709 15.3926 6.5241C15.29 6.01111 14.9822 5.60072 14.5377 5.32712C14.3667 5.19033 13.4433 4.47214 13.4091 4.43794C12.5541 3.75396 11.3229 3.89075 10.6389 4.71154L4.34627 12.5774C4.03847 12.9536 3.93588 13.4666 4.03847 13.9453L4.58566 16.2367C4.65406 16.4761 4.85926 16.6471 5.09865 16.6471L7.5268 16.6129C8.03979 16.6129 8.48438 16.3735 8.79217 15.9973C11.4255 12.7142 12.9645 10.7648 13.8879 9.60203C13.8879 9.63623 13.8537 9.63623 13.8879 9.60203ZM11.4255 5.36132C11.7675 4.95093 12.3831 4.91673 12.7935 5.22452C12.8277 5.25872 13.9563 6.11371 13.9563 6.11371L13.9905 6.1479C14.1957 6.2847 14.3667 6.4899 14.4009 6.72929C14.4693 6.96869 14.4351 7.20808 14.2983 7.41328C14.2299 7.51588 13.8879 7.92627 13.3749 8.57605L10.5705 6.4215L11.4255 5.36132ZM7.97139 15.3475C7.86879 15.4843 7.6978 15.5869 7.4926 15.5869L5.47484 15.6211L5.03025 13.7059C4.99605 13.5349 5.03025 13.364 5.13285 13.2272L9.92075 7.24228L12.7251 9.39684C11.3229 11.141 9.30516 13.7059 7.97139 15.3475Z" fill="#888D92"/>
</svg>
