<svg width="24" height="24" viewBox="0 0 24 24" fill="none" xmlns="http://www.w3.org/2000/svg">
<path d="M11.9848 18.5C15.2228 18.5 18.2207 16.4404 21 11.987C18.2922 7.54956 15.3011 5.5 11.9848 5.5C8.66963 5.5 5.68923 7.54864 3.00001 11.987C5.76067 16.4413 8.74797 18.5 11.9848 18.5ZM1.50245 12.89C1.18045 12.3419 1.17827 11.6605 1.49283 11.1081C1.50404 11.0884 1.51478 11.0697 1.52496 11.052C4.42802 6.01734 7.91428 3.5 11.9837 3.5C16.0698 3.5 19.5776 6.03792 22.5072 11.1138C22.5159 11.129 22.5251 11.145 22.5347 11.1618C22.8311 11.6808 22.8288 12.3215 22.5257 12.8366C19.5189 17.9455 16.0049 20.5 11.9837 20.5C7.97664 20.5 4.48288 17.9633 1.50245 12.89ZM12 16C9.79087 16 8.00001 14.2091 8.00001 12C8.00001 9.79086 9.79087 8 12 8C14.2091 8 16 9.79086 16 12C16 14.2091 14.2091 16 12 16ZM12 14C13.1046 14 14 13.1046 14 12C14 10.8954 13.1046 10 12 10C10.8954 10 10 10.8954 10 12C10 13.1046 10.8954 14 12 14Z" fill="#2B2F36"/>
</svg>
