<svg xmlns="http://www.w3.org/2000/svg" width="18" height="18" viewBox="0 0 18 18" fill="none">
  <path
    d="M2.35599 15.5493L3.14682 14.4177C1.86965 13.1051 1.05343 11.3645 0.949953 9.44033C0.941687 9.29457 0.9375 9.14776 0.9375 8.99999C0.9375 4.65075 4.56494 1.125 9.03962 1.125C9.08897 1.125 9.13815 1.125 9.1875 1.125C11.1458 1.125 12.9371 1.83978 14.3148 3.02267C15.3843 3.91518 16.2115 5.07418 16.6875 6.39373C16.7039 6.43908 17.0625 7.92525 17.0625 9C17.0625 13.0309 14.034 16.3544 10.1283 16.8194L10.1264 16.8196C9.81853 16.8562 9.50521 16.875 9.1875 16.875C7.15115 16.8708 5.11473 16.875 3.07836 16.875C2.37747 16.875 1.96217 16.1129 2.35599 15.5493ZM8.87071 15.3743L9.1875 15.375C12.7083 15.375 15.5625 12.5208 15.5625 9C15.5625 8.27744 15.4209 7.5408 15.2532 6.83933C14.867 5.80426 14.2083 4.88745 13.3537 4.17433L13.3377 4.16074C12.2217 3.20254 10.7739 2.625 9.1875 2.625C9.13821 2.625 9.08892 2.625 9.03962 2.625C5.35288 2.625 2.4375 5.5191 2.4375 8.99999C2.4375 9.11942 2.44088 9.23791 2.44755 9.35541L2.44779 9.35978C2.53077 10.9028 3.1844 12.3054 4.22186 13.3716L5.08671 14.2604L4.30778 15.375C5.82875 15.375 7.34976 15.3715 8.87071 15.3743Z"
    fill="url(#paint0_linear_2614_129627)" />
  <path
    d="M7.32854 5.79787H8.31532C8.43612 5.79787 8.5444 5.8797 8.58754 6.00359L10.593 11.7636C10.6659 11.973 10.5249 12.1977 10.3204 12.1977H9.78086C9.65887 12.1977 9.54976 12.1145 9.50732 11.989L9.14468 10.9171H6.49605L6.13269 11.9882C6.09018 12.1135 5.98113 12.1966 5.85924 12.1966H5.32445C5.12 12.1966 4.97896 11.9719 5.05187 11.7624L7.05632 6.00359C7.09946 5.8797 7.32854 5.79787 7.32854 5.79787ZM11.6924 5.79787C11.4936 5.79787 11.3324 5.95905 11.3324 6.15788V11.8579C11.3324 12.0567 11.4936 12.2179 11.6924 12.2179H12.1724C12.3712 12.2179 12.5324 12.0567 12.5324 11.8579V6.15788C12.5324 5.95905 12.3712 5.79787 12.1724 5.79787H11.6924ZM8.72283 9.64173L7.84285 7.05045H7.802L6.94392 9.64173H8.72283Z"
    fill="url(#paint1_linear_2614_129627)" />
  <defs>
    <linearGradient id="paint0_linear_2614_129627" x1="0.9375" y1="9" x2="17.0625" y2="9"
      gradientUnits="userSpaceOnUse">
      <stop stop-color="#4752E6" />
      <stop offset="1" stop-color="#9F6FF1" />
    </linearGradient>
    <linearGradient id="paint1_linear_2614_129627" x1="0.9375" y1="9" x2="17.0625" y2="9"
      gradientUnits="userSpaceOnUse">
      <stop stop-color="#4752E6" />
      <stop offset="1" stop-color="#9F6FF1" />
    </linearGradient>
  </defs>
</svg>
