<svg width="80" height="80" viewBox="0 0 80 80" fill="none" xmlns="http://www.w3.org/2000/svg">
  <path
    d="M32.9987 39.1997L24.0854 30.3907C23.0979 29.4015 21.4972 29.4015 20.5097 30.3907L9.9987 40.9209V14.9997H46.9654L47.9048 13.3997L50.832 8.33301H9.9987C6.33203 8.33301 3.33203 11.333 3.33203 14.9997V64.9997C3.33203 68.6663 6.33203 71.6663 9.9987 71.6663H14.2654L32.9987 39.1997Z"
    fill="#2E2E38" fill-opacity="0.12"
    style="fill:#2E2E38;fill:color(display-p3 0.1804 0.1804 0.2196);fill-opacity:0.12;" />
  <path
    d="M66.5502 24.7995C66.5502 28.298 63.7206 31.1328 60.2284 31.1328C56.7362 31.1328 53.9066 28.298 53.9066 24.7995C53.9066 21.3009 56.7362 18.4661 60.2284 18.4661C63.7206 18.4661 66.5502 21.3009 66.5502 24.7995Z"
    fill="#2E2E38" fill-opacity="0.12"
    style="fill:#2E2E38;fill:color(display-p3 0.1804 0.1804 0.2196);fill-opacity:0.12;" />
  <path
    d="M61.0986 8.33301H69.9986C73.6652 8.33301 76.6653 11.333 76.6656 14.9997V64.9997C76.6657 68.6663 73.6653 71.6663 69.9986 71.6663H24.4986L39.532 45.6351L48.8495 55.1997L59.7054 44.3241C60.6929 43.3348 62.2936 43.3348 63.281 44.3241L67.4446 48.4952L69.9986 51.0997L69.9986 14.9997H57.232L58.1641 13.3997L61.0986 8.33301Z"
    fill="#2E2E38" fill-opacity="0.12"
    style="fill:#2E2E38;fill:color(display-p3 0.1804 0.1804 0.2196);fill-opacity:0.12;" />
</svg>
