<svg width="14" height="14" viewBox="0 0 14 14" fill="currentColor" xmlns="http://www.w3.org/2000/svg">
  <g id="icon_italic">
    <path id="Union"
      d="M8.64879 2.96154L6.52758 11.0385H8.89151C9.22607 11.0385 9.49728 11.3097 9.49728 11.6442C9.49728 11.9788 9.22607 12.25 8.89151 12.25H2.89092C2.55637 12.25 2.28516 11.9788 2.28516 11.6442C2.28516 11.3097 2.55637 11.0385 2.89093 11.0385H5.25485L7.37607 2.96154H5.01214C4.67758 2.96154 4.40637 2.69033 4.40637 2.35577C4.40637 2.02121 4.67758 1.75 5.01214 1.75H11.0127C11.3473 1.75 11.6185 2.02121 11.6185 2.35577C11.6185 2.69033 11.3473 2.96154 11.0127 2.96154H8.64879Z" />
  </g>
</svg>
