<svg xmlns="http://www.w3.org/2000/svg" width="10" height="10" viewBox="0 0 10 10" fill="currentColor">
  <g clip-path="url(#clip0_4939_134445)">
    <path fill-rule="evenodd" clip-rule="evenodd"
      d="M1.66699 0.833984C0.976636 0.833984 0.416992 1.39363 0.416992 2.08398V6.25065C0.416992 6.94101 0.976636 7.50065 1.66699 7.50065H8.33366C9.02402 7.50065 9.58366 6.94101 9.58366 6.25065V2.08398C9.58366 1.39363 9.02402 0.833984 8.33366 0.833984H1.66699ZM1.25033 2.08398C1.25033 1.85387 1.43687 1.66732 1.66699 1.66732H8.33366C8.56378 1.66732 8.75033 1.85387 8.75033 2.08398V6.25065C8.75033 6.48077 8.56378 6.66732 8.33366 6.66732H1.66699C1.43687 6.66732 1.25033 6.48077 1.25033 6.25065V2.08398ZM1.45817 8.3339C1.22805 8.3339 1.0415 8.52045 1.0415 8.75057C1.0415 8.98069 1.22805 9.16724 1.45817 9.16724H8.5415C8.77162 9.16724 8.95817 8.98069 8.95817 8.75057C8.95817 8.52045 8.77162 8.3339 8.5415 8.3339H1.45817Z"
      fill-opacity="0.96" />
  </g>
  <defs>
    <clipPath id="clip0_4939_134445">
      <rect width="10" height="10" fill="white" />
    </clipPath>
  </defs>
</svg>
