<svg width="49" height="48" viewBox="0 0 49 48" fill="none" xmlns="http://www.w3.org/2000/svg">
  <path
    d="M5.6713 4.38777C5.38861 4.38302 5.15822 4.61341 5.16297 4.8961L5.31024 13.6569C5.3146 13.9162 5.41957 14.1637 5.60299 14.3472L30.1918 38.9359L29.7206 39.4071C29.3301 39.7977 29.3301 40.4308 29.7206 40.8213L31.1348 42.2356C31.5253 42.6261 32.1585 42.6261 32.549 42.2356L36.3651 38.4194L38.2255 40.2799C38.0127 41.3985 38.3392 42.5995 39.2052 43.4654C40.5953 44.8556 42.8491 44.8556 44.2392 43.4654C45.6294 42.0753 45.6294 39.8215 44.2392 38.4314C43.3735 37.5656 42.1727 37.239 41.0542 37.4516L39.1936 35.591L43.0095 31.7751C43.4001 31.3845 43.4001 30.7514 43.0095 30.3608L41.5953 28.9466C41.2048 28.5561 40.5716 28.5561 40.1811 28.9466L39.7111 29.4166L15.1224 4.82778C14.9389 4.64436 14.6914 4.53939 14.4321 4.53503L5.6713 4.38777Z"
    fill="currentColor" />
  <path
    d="M45.198 4.97397C45.2027 4.69128 44.9723 4.46088 44.6896 4.46563L35.9289 4.6129C35.6695 4.61726 35.422 4.72223 35.2386 4.90565L28.0575 12.0867L37.5769 21.6061L44.7579 14.425C44.9414 14.2416 45.0463 13.9941 45.0507 13.7347L45.198 4.97397Z"
    fill="currentColor" />
  <path
    d="M10.6498 29.4944L12.8413 27.3029L22.3607 36.8223L20.1691 39.0138L20.6403 39.485C21.0309 39.8755 21.0309 40.5087 20.6403 40.8992L19.2261 42.3134C18.8356 42.7039 18.2024 42.7039 17.8119 42.3134L13.9958 38.4973L12.1354 40.3577C12.3482 41.4764 12.0217 42.6774 11.1558 43.5433C9.76565 44.9334 7.51182 44.9334 6.12169 43.5433C4.73157 42.1532 4.73157 39.8993 6.12169 38.5092C6.98746 37.6435 8.18823 37.3169 9.30673 37.5295L11.1674 35.6689L7.3514 31.8529C6.96087 31.4624 6.96087 30.8292 7.3514 30.4387L8.76561 29.0245C9.15613 28.634 9.7893 28.634 10.1798 29.0245L10.6498 29.4944Z"
    fill="currentColor" />
</svg>
