<svg xmlns="http://www.w3.org/2000/svg" width="1em" height="1em" viewBox="0 0 14 14" fill="none">
  <path
    d="M0.912354 7.04093C1.0118 6.92246 1.15423 6.84833 1.30832 6.83485C1.46241 6.82137 1.61554 6.86964 1.73405 6.96904L5.40572 10.0495L12.1183 2.05723C12.2177 1.93875 12.3602 1.86462 12.5142 1.85114C12.6683 1.83766 12.8215 1.88593 12.94 1.98534L13.3868 2.36024C13.4455 2.40948 13.4939 2.46981 13.5293 2.53777C13.5647 2.60573 13.5863 2.68 13.593 2.75634C13.5997 2.83267 13.5913 2.90957 13.5682 2.98265C13.5452 3.05572 13.5079 3.12354 13.4587 3.18223L5.99631 12.0681C5.94707 12.1268 5.88675 12.1752 5.81878 12.2106C5.75082 12.246 5.67655 12.2676 5.60022 12.2743C5.52389 12.281 5.44699 12.2726 5.37391 12.2495C5.30083 12.2265 5.23302 12.1893 5.17433 12.14L0.609366 8.30971C0.550658 8.26047 0.502227 8.20014 0.466839 8.13218C0.431451 8.06422 0.4098 7.98995 0.403121 7.91362C0.396443 7.83728 0.404869 7.76038 0.427918 7.68731C0.450967 7.61423 0.488186 7.54641 0.537451 7.48773L0.912354 7.04093Z"
    fill="currentColor" fill-opacity="0.8" />
</svg>
