<svg width="20" height="20" viewBox="0 0 20 20" fill="none" xmlns="http://www.w3.org/2000/svg">
  <path fill-rule="evenodd" clip-rule="evenodd"
    d="M10.7552 3.05124C10.7552 1.52616 8.81085 0.882713 7.9011 2.10674L6.0674 4.5739L7.1395 5.646L9.10499 3.00153C9.11679 2.98566 9.12588 2.97845 9.13044 2.97531C9.13522 2.97202 9.13961 2.97005 9.14439 2.96869C9.155 2.96568 9.17433 2.96427 9.19806 2.97212C9.22178 2.97998 9.23645 2.99264 9.24318 3.00139C9.2462 3.00533 9.24855 3.00953 9.25042 3.01502C9.25221 3.02026 9.25521 3.03147 9.25521 3.05124V7.76171L10.7552 9.26171V3.05124ZM10.7552 13.6758L9.25521 12.1758V17.3379C9.25521 17.3691 9.24739 17.3807 9.24344 17.3861C9.2367 17.3953 9.223 17.4076 9.20145 17.4158C9.1799 17.424 9.16149 17.4239 9.15033 17.4215C9.14378 17.42 9.13021 17.4165 9.10954 17.3932L5.98293 13.8687L5.75913 13.6164H5.42188H2.50521C2.45918 13.6164 2.42188 13.5791 2.42188 13.533V7.53304C2.42188 7.48702 2.45918 7.44971 2.50521 7.44971H4.52915L3.02915 5.94971H2.50521C1.63076 5.94971 0.921875 6.65859 0.921875 7.53304V13.533C0.921875 14.4075 1.63076 15.1164 2.50521 15.1164H5.08462L7.98742 18.3886C8.9541 19.4783 10.7552 18.7946 10.7552 17.3379V13.6758Z"
    fill="currentColor" />
  <path fill-rule="evenodd" clip-rule="evenodd"
    d="M16.9059 15.4122C17.1812 14.9704 17.4205 14.5057 17.6206 14.0225C18.0981 12.8699 18.3438 11.6346 18.3438 10.387C18.3438 9.13945 18.0981 7.9041 17.6206 6.75151C17.1432 5.59892 16.4434 4.55165 15.5613 3.66949L15.031 3.13916L13.9703 4.19982L14.5006 4.73015C15.2435 5.47302 15.8328 6.35493 16.2348 7.32554C16.6369 8.29614 16.8438 9.33643 16.8438 10.387C16.8438 11.4376 16.6369 12.4779 16.2348 13.4485C16.1111 13.7471 15.9697 14.0374 15.8115 14.3178L16.9059 15.4122ZM14.4498 12.9561C14.4815 12.887 14.5119 12.8173 14.541 12.7469C14.8509 11.9987 15.0104 11.1968 15.0104 10.387C15.0104 9.57719 14.8509 8.7753 14.541 8.02712C14.2311 7.27895 13.7769 6.59914 13.2043 6.02651L12.6739 5.49618L11.6133 6.55684L12.1436 7.08717C12.577 7.52051 12.9207 8.03496 13.1552 8.60115C13.3897 9.16733 13.5104 9.77417 13.5104 10.387C13.5104 10.8666 13.4365 11.3426 13.2919 11.7983L14.4498 12.9561Z"
    fill="currentColor" />
  <rect x="2.14844" y="3.01367" width="19.7727" height="1.5" rx="0.75" transform="rotate(45 2.14844 3.01367)"
    fill="currentColor" />
</svg>
