<svg width="33" height="33" viewBox="0 0 33 33" fill="none" xmlns="http://www.w3.org/2000/svg">
  <g id="icon_ImageOverlay">
    <path id="Vector" fill-rule="evenodd" clip-rule="evenodd"
      d="M4.50004 3.54869H13.1771H13.5643L13.9766 3.53711L12.8118 9.76719L16.8726 13.7151L16.378 22.3694L20.7422 13.8835L18.1389 9.94633L20.2344 3.54322L28.5 3.54869C29.9728 3.54869 31.1667 4.7426 31.1667 6.21535V27.5487C31.1667 29.0214 29.9728 30.2154 28.5 30.2154H4.50004C3.02728 30.2154 1.83337 29.0215 1.83337 27.5487V6.21536C1.83337 4.7426 3.02728 3.54869 4.50004 3.54869ZM11.0526 18.3705L14.8095 20.9929C15.08 21.1818 15.4017 21.2585 15.7134 21.2255L16.1259 14.0058L13.6608 11.6091C13.673 12.7968 12.8845 13.8881 11.6843 14.2097C10.2621 14.5908 8.80018 13.7468 8.4191 12.3245C8.03802 10.9023 8.88203 9.44045 10.3042 9.05937C10.9585 8.88407 11.6211 8.968 12.183 9.2482L12.8118 6.21535H4.50004L4.50004 22.357C4.51823 22.3409 4.53691 22.3252 4.55607 22.31L9.46084 18.4192C9.9224 18.0531 10.5695 18.0333 11.0526 18.3705ZM28.5 20.3755V6.21535H20.126L18.9412 9.83821L21.5855 13.8374L19.0416 18.7839L22.2302 16.1748C22.7435 15.7548 23.4874 15.7759 23.9761 16.2243L28.5 20.3755Z"
      fill="currentColor" />
  </g>
</svg>
