<svg xmlns="http://www.w3.org/2000/svg" width="16" height="16" viewBox="0 0 16 16" fill="currentColor">
  <mask id="mask0_2095_8344" style="mask-type:alpha" maskUnits="userSpaceOnUse" x="0" y="0" width="16" height="16">
    <rect width="16" height="16" fill="#D9D9D9" />
  </mask>
  <g mask="url(#mask0_2095_8344)">
    <path fill-rule="evenodd" clip-rule="evenodd"
      d="M4.74996 1.83594C3.27812 1.83594 2.08496 3.0291 2.08496 4.50094V6.00094H3.41496V4.50094C3.41496 3.76364 4.01266 3.16594 4.74996 3.16594H11.25C11.9873 3.16594 12.585 3.76364 12.585 4.50094V6.00094H13.915V4.50094C13.915 3.0291 12.7218 1.83594 11.25 1.83594H4.74996ZM13.915 10.0009H12.585V11.5009C12.585 12.2382 11.9873 12.8359 11.25 12.8359H4.74996C4.01266 12.8359 3.41496 12.2382 3.41496 11.5009V10.0009H2.08496V11.5009C2.08496 12.9728 3.27812 14.1659 4.74996 14.1659H11.25C12.7218 14.1659 13.915 12.9728 13.915 11.5009V10.0009Z"/>
    <path d="M7.48242 11.063V6.06299H7.45605L5.83887 7.16162V5.98389L7.47803 4.8457H9.02637V11.063H7.48242Z"/>
  </g>
</svg>
