<svg xmlns="http://www.w3.org/2000/svg" width="12" height="12" viewBox="0 0 12 12" fill="none">
<path d="M5.99945 1.84366L7.2209 3.73514C7.42191 4.04643 7.73103 4.27229 8.08868 4.36921L10.2637 4.9586L8.84243 6.73045C8.61241 7.0172 8.49571 7.37844 8.51447 7.74557L8.63034 10.0129L6.53931 9.20626C6.19188 9.07224 5.80703 9.07224 5.4596 9.20626L3.36857 10.0129L3.48444 7.74557C3.5032 7.37844 3.3865 7.0172 3.15648 6.73045L1.7352 4.9586L3.91023 4.36921C4.26788 4.27229 4.577 4.04643 4.77801 3.73514L5.99945 1.84366ZM6.62951 0.975952C6.33406 0.518433 5.66485 0.518433 5.3694 0.975951L3.93794 3.19266C3.87094 3.29642 3.7679 3.37171 3.64868 3.40402L1.1051 4.09328C0.583376 4.23466 0.377999 4.8648 0.716225 5.28645L2.37642 7.35616C2.4531 7.45175 2.492 7.57216 2.48575 7.69454L2.35022 10.3464C2.3225 10.8888 2.86249 11.2799 3.36917 11.0845L5.8195 10.1392C5.93531 10.0946 6.0636 10.0946 6.17941 10.1392L8.62974 11.0845C9.13642 11.2799 9.67641 10.8888 9.64869 10.3464L9.51316 7.69454C9.50691 7.57216 9.54581 7.45175 9.62249 7.35616L11.2827 5.28645C11.6209 4.8648 11.4155 4.23465 10.8938 4.09328L8.35023 3.40402C8.23101 3.37171 8.12797 3.29642 8.06097 3.19266L6.62951 0.975952Z" fill="#1D1C23" fill-opacity="0.35"/>
</svg>
