<svg width="24" height="24" viewBox="0 0 24 24" fill="none" xmlns="http://www.w3.org/2000/svg">
<path fill-rule="evenodd" clip-rule="evenodd" d="M2 20C2 21.1 2.9 22 4 22H20C21.1 22 22 21.1 22 20V4C22 2.9 21.1 2 20 2H4C2.9 2 2 2.9 2 4V20ZM6.00001 6H9.00001V9H6.00001V6ZM10.141 17.9883L5.86569 17.978C5.7 17.9776 5.56601 17.843 5.56641 17.6773C5.5666 17.598 5.59819 17.522 5.65427 17.4659L9.78708 13.3331C9.94329 13.1769 10.1966 13.1769 10.3528 13.3331L12.2598 15.2402L17.3172 10.1829C17.4734 10.0266 17.7266 10.0266 17.8829 10.1829C17.9579 10.2579 18 10.3596 18 10.4657V17.7C18 17.8657 17.8657 18 17.7 18H10.2243C10.1954 18 10.1674 17.9959 10.141 17.9883Z" fill="#555BFF"/>
</svg>
