<svg width="24" height="24" viewBox="0 0 24 24" fill="none" xmlns="http://www.w3.org/2000/svg">
<path d="M11.9998 23C18.0749 23 22.9998 18.0751 22.9998 12C22.9998 5.92487 18.0749 1 11.9998 1C5.92462 1 0.999756 5.92487 0.999756 12C0.999756 18.0751 5.92462 23 11.9998 23Z" fill="#FF9600"/>
<path d="M12.0002 7C11.448 7 11.0002 7.44772 11.0002 8V13C11.0002 13.5523 11.448 14 12.0002 14C12.5525 14 13.0002 13.5523 13.0002 13V8C13.0002 7.44772 12.5525 7 12.0002 7Z" fill="white"/>
<path d="M12.0002 17C12.5525 17 13.0002 16.5523 13.0002 16C13.0002 15.4477 12.5525 15 12.0002 15C11.448 15 11.0002 15.4477 11.0002 16C11.0002 16.5523 11.448 17 12.0002 17Z" fill="white"/>
</svg>
