<svg width="14" height="14" viewBox="0 0 26 26" fill="none" xmlns="http://www.w3.org/2000/svg">
<path d="M10.2923 8.66634C9.39486 8.66634 8.66732 9.39388 8.66732 10.2913V15.708C8.66732 16.6055 9.39486 17.333 10.2923 17.333H15.709C16.6064 17.333 17.334 16.6055 17.334 15.708V10.2913C17.334 9.39388 16.6064 8.66634 15.709 8.66634H10.2923Z" fill="currentColor"/>
<path d="M13.0007 24.9163C19.582 24.9163 24.9173 19.5811 24.9173 12.9997C24.9173 6.41828 19.582 1.08301 13.0007 1.08301C6.41926 1.08301 1.08398 6.41828 1.08398 12.9997C1.08398 19.5811 6.41926 24.9163 13.0007 24.9163ZM13.0007 22.7497C7.61587 22.7497 3.25065 18.3845 3.25065 12.9997C3.25065 7.6149 7.61587 3.24967 13.0007 3.24967C18.3854 3.24967 22.7507 7.6149 22.7507 12.9997C22.7507 18.3845 18.3854 22.7497 13.0007 22.7497Z" fill="currentColor"/>
</svg>
