<svg width="12" height="12" viewBox="0 0 12 12" fill="none" xmlns="http://www.w3.org/2000/svg">
<path d="M8.6802 4.6L8.90323 4.37698C9.0264 4.25381 9.0264 4.0541 8.90323 3.93093L6.44996 1.47767C6.20362 1.23132 5.80421 1.23132 5.55787 1.47767L3.1046 3.93093C2.98143 4.0541 2.98143 4.25381 3.1046 4.37698L3.32763 4.6C3.4508 4.72318 3.6505 4.72318 3.77367 4.6L6.00391 2.36976L8.23415 4.6C8.35733 4.72318 8.55703 4.72318 8.6802 4.6Z" fill="#2B2F36"/>
<path d="M3.3198 7.4L3.09677 7.62302C2.9736 7.74619 2.9736 7.9459 3.09677 8.06907L5.55004 10.5223C5.79638 10.7687 6.19579 10.7687 6.44213 10.5223L8.8954 8.06907C9.01857 7.9459 9.01857 7.74619 8.8954 7.62302L8.67237 7.4C8.5492 7.27682 8.3495 7.27682 8.22633 7.4L5.99609 9.63024L3.76585 7.4C3.64267 7.27682 3.44297 7.27682 3.3198 7.4Z" fill="#2B2F36"/>
</svg>
