<svg width="24" height="24" viewBox="0 0 24 24" fill="none" xmlns="http://www.w3.org/2000/svg">
    <path d="M3 3C2.44772 3 2 3.44772 2 4C2 4.55228 2.44772 5 3 5H5C5.55228 5 6 4.55228 6 4C6 3.44772 5.55228 3 5 3H3Z"
        fill="black" />
    <path
        d="M10 3C9.44772 3 9 3.44772 9 4C9 4.55228 9.44771 5 10 5H21C21.5523 5 22 4.55228 22 4C22 3.44772 21.5523 3 21 3H10Z"
        fill="currentColor" />
    <path
        d="M9 12C9 11.4477 9.44772 11 10 11H21C21.5523 11 22 11.4477 22 12C22 12.5523 21.5523 13 21 13H10C9.44771 13 9 12.5523 9 12Z"
        fill="currentColor" />
    <path
        d="M3 11C2.44772 11 2 11.4477 2 12C2 12.5523 2.44772 13 3 13H5C5.55228 13 6 12.5523 6 12C6 11.4477 5.55228 11 5 11H3Z"
        fill="currentColor" />
    <path
        d="M9 20C9 19.4477 9.44772 19 10 19H21C21.5523 19 22 19.4477 22 20C22 20.5523 21.5523 21 21 21H10C9.44771 21 9 20.5523 9 20Z"
        fill="currentColor" />
    <path
        d="M3 19C2.44772 19 2 19.4477 2 20C2 20.5523 2.44772 21 3 21H5C5.55228 21 6 20.5523 6 20C6 19.4477 5.55228 19 5 19H3Z"
        fill="currentColor" />
</svg>
