<svg width="14" height="14" viewBox="0 0 14 14" fill="none" xmlns="http://www.w3.org/2000/svg">
<path d="M7.00065 12.2502C9.90011 12.2502 12.2507 9.89962 12.2507 7.00016C12.2507 4.1007 9.90011 1.75016 7.00065 1.75016C4.10119 1.75016 1.75065 4.1007 1.75065 7.00016C1.75065 9.89962 4.10119 12.2502 7.00065 12.2502ZM7.00065 13.4168C3.4569 13.4168 0.583984 10.5439 0.583984 7.00016C0.583984 3.45641 3.4569 0.583496 7.00065 0.583496C10.5444 0.583496 13.4173 3.45641 13.4173 7.00016C13.4173 10.5439 10.5444 13.4168 7.00065 13.4168ZM6.41732 9.04183V6.7085C6.09515 6.7085 5.83399 6.44733 5.83399 6.12516C5.83399 5.803 6.09515 5.54183 6.41732 5.54183H7.00276C7.3241 5.54183 7.58496 5.80171 7.58545 6.12306C7.58692 7.09597 7.58399 8.06893 7.58399 9.04183H7.87565C8.19782 9.04183 8.45899 9.30299 8.45899 9.62516C8.45899 9.94733 8.19782 10.2085 7.87565 10.2085H6.12565C5.80349 10.2085 5.54232 9.94733 5.54232 9.62516C5.54232 9.30299 5.80349 9.04183 6.12565 9.04183H6.41732ZM7.00065 4.9585C6.67849 4.9585 6.41732 4.69733 6.41732 4.37516C6.41732 4.053 6.67849 3.79183 7.00065 3.79183C7.32282 3.79183 7.58399 4.053 7.58399 4.37516C7.58399 4.69733 7.32282 4.9585 7.00065 4.9585Z" fill="#A7A7B0"/>
</svg>
