<svg xmlns="http://www.w3.org/2000/svg" width="15" height="15" viewBox="0 0 15 15" fill="none">
  <path fill-rule="evenodd" clip-rule="evenodd" d="M2.10637 1.55078C1.78011 1.55078 1.51562 1.81527 1.51562 2.14153V11.0375C1.51562 11.8116 1.83523 12.5541 2.40413 13.1015C2.97304 13.6489 3.74463 13.9564 4.54918 13.9564H12.149C12.4753 13.9564 12.7398 13.6919 12.7398 13.3657V4.46976C12.7398 3.6956 12.4202 2.95314 11.8513 2.40573C11.2824 1.85832 10.5108 1.55078 9.70623 1.55078H2.10637ZM4.17188 5.80415C4.17188 5.57577 4.35701 5.39062 4.5854 5.39062H9.66581C9.89419 5.39062 10.0793 5.57577 10.0793 5.80415C10.0793 6.03253 9.89419 6.21767 9.66581 6.21767H4.5854C4.35701 6.21767 4.17188 6.03253 4.17188 5.80415ZM4.17188 7.81268C4.17188 7.5843 4.35701 7.39916 4.5854 7.39916H9.66581C9.89419 7.39916 10.0793 7.5843 10.0793 7.81268C10.0793 8.04106 9.89419 8.2262 9.66581 8.2262H4.5854C4.35701 8.2262 4.17188 8.04106 4.17188 7.81268ZM4.5854 9.40769C4.35701 9.40769 4.17188 9.59283 4.17188 9.82121C4.17188 10.0496 4.35702 10.2347 4.5854 10.2347H7.30282C7.53121 10.2347 7.71635 10.0496 7.71635 9.82121C7.71635 9.59283 7.53121 9.40769 7.30282 9.40769H4.5854Z" fill="white"/>
</svg>
