<svg xmlns="http://www.w3.org/2000/svg" width="14" height="14" viewBox="0 0 14 14" fill="none">
    <path
        d="M5.43107 7.9818C5.43107 8.30396 5.1699 8.56513 4.84774 8.56513C4.52557 8.56513 4.2644 8.30396 4.2644 7.9818C4.2644 7.65963 4.52557 7.39846 4.84774 7.39846C5.1699 7.39846 5.43107 7.65963 5.43107 7.9818Z"
        fill="currentColor" />
    <path
        d="M6.45732 7.39844C6.3365 7.39844 6.23857 7.49638 6.23857 7.61719V8.34635C6.23857 8.46717 6.3365 8.5651 6.45732 8.5651H8.89482C9.01564 8.5651 9.11357 8.46717 9.11357 8.34635V7.61719C9.11357 7.49638 9.01564 7.39844 8.89482 7.39844L6.45732 7.39844Z"
        fill="currentColor" />
    <path
        d="M5.43107 5.71468C5.43107 6.03685 5.1699 6.29802 4.84774 6.29802C4.52557 6.29802 4.2644 6.03685 4.2644 5.71468C4.2644 5.39252 4.52557 5.13135 4.84774 5.13135C5.1699 5.13135 5.43107 5.39252 5.43107 5.71468Z"
        fill="currentColor" />
    <path
        d="M6.45732 5.13135C6.3365 5.13135 6.23857 5.22929 6.23857 5.3501V6.07926C6.23857 6.20008 6.3365 6.29801 6.45732 6.29801H9.51679C9.6376 6.29801 9.73554 6.20008 9.73554 6.07926V5.3501C9.73554 5.22929 9.6376 5.13135 9.51679 5.13135H6.45732Z"
        fill="currentColor" />
    <path fill-rule="evenodd" clip-rule="evenodd"
        d="M11.0833 2.33329H2.91667L2.91667 11.6666H11.0833V2.33329ZM2.91667 1.16663C2.27233 1.16663 1.75 1.68896 1.75 2.33329V11.6666C1.75 12.311 2.27233 12.8333 2.91667 12.8333H11.0833C11.7277 12.8333 12.25 12.311 12.25 11.6666V2.33329C12.25 1.68896 11.7277 1.16663 11.0833 1.16663H2.91667Z"
        fill="currentColor" />
</svg>
