<svg width="16" height="16" viewBox="0 0 16 16" fill="none" xmlns="http://www.w3.org/2000/svg">
<g id="icon_add-entry_outlined">
<g id="Union">
<path d="M3.33333 2.00008H12.6667V8.66675H14V2.00008C14 1.2637 13.403 0.666748 12.6667 0.666748H3.33333C2.59695 0.666748 2 1.2637 2 2.00008V14.0001C2 14.7365 2.59695 15.3334 3.33333 15.3334H8V14.0001H3.33333V2.00008Z" fill="#1D1C23" fill-opacity="0.6" style="fill:#1D1C23;fill:color(display-p3 0.1137 0.1098 0.1373);fill-opacity:0.6;"/>
<path d="M4.66667 5.33342C4.66667 4.96523 4.96514 4.66675 5.33333 4.66675H7.33333C7.70152 4.66675 8 4.96523 8 5.33342C8 5.7016 7.70152 6.00008 7.33333 6.00008H5.33333C4.96514 6.00008 4.66667 5.7016 4.66667 5.33342Z" fill="#1D1C23" fill-opacity="0.6" style="fill:#1D1C23;fill:color(display-p3 0.1137 0.1098 0.1373);fill-opacity:0.6;"/>
<path d="M5.33333 7.33342C4.96514 7.33342 4.66667 7.63189 4.66667 8.00008C4.66667 8.36827 4.96514 8.66675 5.33333 8.66675H10.6667C11.0349 8.66675 11.3333 8.36827 11.3333 8.00008C11.3333 7.63189 11.0349 7.33342 10.6667 7.33342H5.33333Z" fill="#1D1C23" fill-opacity="0.6" style="fill:#1D1C23;fill:color(display-p3 0.1137 0.1098 0.1373);fill-opacity:0.6;"/>
<path d="M11.3333 10.6667C11.3333 10.2986 11.6318 10.0001 12 10.0001C12.3682 10.0001 12.6667 10.2986 12.6667 10.6667V12.0001H14C14.3682 12.0001 14.6667 12.2986 14.6667 12.6667C14.6667 13.0349 14.3682 13.3334 14 13.3334H12.6667V14.6667C12.6667 15.0349 12.3682 15.3334 12 15.3334C11.6318 15.3334 11.3333 15.0349 11.3333 14.6667V13.3334H10C9.63181 13.3334 9.33333 13.0349 9.33333 12.6667C9.33333 12.2986 9.63181 12.0001 10 12.0001H11.3333V10.6667Z" fill="#1D1C23" fill-opacity="0.6" style="fill:#1D1C23;fill:color(display-p3 0.1137 0.1098 0.1373);fill-opacity:0.6;"/>
</g>
</g>
</svg>
