<svg width="33" height="32" viewBox="0 0 33 32" fill="none" xmlns="http://www.w3.org/2000/svg">
<path d="M23.8047 9.35131C23.7989 9.34 23.7892 9.33114 23.7775 9.32631C22.4159 8.70162 20.9791 8.25616 19.5029 8.00109C19.4895 7.9986 19.4757 8.0004 19.4633 8.00623C19.451 8.01207 19.4408 8.02164 19.4343 8.03359C19.2386 8.3887 19.061 8.75345 18.9021 9.12645C17.3109 8.88491 15.6924 8.88491 14.1012 9.12645C13.9412 8.7525 13.7608 8.38766 13.5606 8.03359C13.5538 8.0219 13.5435 8.01255 13.5313 8.00675C13.519 8.00095 13.5053 7.99898 13.4919 8.00109C12.0156 8.25563 10.5787 8.70112 9.21733 9.32635C9.20567 9.33129 9.19584 9.33972 9.18918 9.35049C6.46671 13.4161 5.72092 17.3818 6.08678 21.2984C6.08781 21.308 6.09076 21.3173 6.09545 21.3257C6.10015 21.3342 6.10649 21.3416 6.1141 21.3475C7.69937 22.5213 9.47252 23.4172 11.3579 23.9971C11.3711 24.0011 11.3853 24.0009 11.3985 23.9966C11.4117 23.9923 11.4232 23.9841 11.4315 23.973C11.8365 23.422 12.1953 22.8386 12.5043 22.2286C12.5085 22.2203 12.511 22.2111 12.5114 22.2017C12.5119 22.1923 12.5103 22.183 12.5069 22.1742C12.5034 22.1655 12.4982 22.1576 12.4915 22.151C12.4848 22.1445 12.4767 22.1394 12.4679 22.1362C11.9021 21.9197 11.3543 21.6587 10.8298 21.3557C10.8202 21.3501 10.8122 21.3423 10.8065 21.3328C10.8007 21.3234 10.7973 21.3127 10.7967 21.3017C10.796 21.2906 10.7981 21.2796 10.8027 21.2696C10.8073 21.2595 10.8144 21.2508 10.8232 21.2441C10.9335 21.1616 11.042 21.0767 11.1485 20.9892C11.1578 20.9815 11.1691 20.9766 11.1811 20.975C11.1931 20.9733 11.2053 20.9751 11.2163 20.9801C14.6531 22.5485 18.3739 22.5485 21.7699 20.9801C21.781 20.9748 21.7933 20.9728 21.8055 20.9743C21.8177 20.9757 21.8292 20.9806 21.8387 20.9884C21.9452 21.0763 22.054 21.1616 22.1648 21.2441C22.1737 21.2507 22.1807 21.2594 22.1854 21.2694C22.1901 21.2794 22.1923 21.2904 22.1917 21.3015C22.1911 21.3125 22.1878 21.3232 22.1821 21.3327C22.1764 21.3422 22.1685 21.3501 22.159 21.3557C21.6356 21.6613 21.0874 21.9221 20.5201 22.1354C20.5113 22.1387 20.5033 22.1439 20.4966 22.1506C20.4899 22.1572 20.4847 22.1652 20.4814 22.174C20.478 22.1828 20.4765 22.1922 20.477 22.2016C20.4776 22.2111 20.4801 22.2203 20.4844 22.2286C20.7986 22.8352 21.1568 23.4179 21.5563 23.972C21.5644 23.9834 21.5759 23.9919 21.5891 23.9964C21.6023 24.0009 21.6166 24.0011 21.63 23.997C23.5187 23.4191 25.295 22.5231 26.8822 21.3475C26.8899 21.3419 26.8964 21.3347 26.9011 21.3263C26.9058 21.318 26.9087 21.3088 26.9095 21.2992C27.3475 16.7713 26.1762 12.8381 23.8047 9.35131ZM13.0176 18.9136C11.9828 18.9136 11.1303 17.9641 11.1303 16.7979C11.1303 15.6318 11.9663 14.6822 13.0176 14.6822C14.077 14.6822 14.9213 15.64 14.9048 16.7979C14.9048 17.9641 14.0687 18.9136 13.0176 18.9136ZM19.9954 18.9136C18.9608 18.9136 18.1082 17.9641 18.1082 16.7979C18.1082 15.6318 18.9442 14.6822 19.9954 14.6822C21.055 14.6822 21.8993 15.64 21.8827 16.7979C21.8827 17.9641 21.055 18.9136 19.9954 18.9136Z" fill="#6B6B75"/>
</svg>
