<svg width="13" height="13" viewBox="0 0 13 13" fill="none" xmlns="http://www.w3.org/2000/svg">
  <path
    d="M5.05457 2.93806C5.9051 2.71016 6.80707 2.76927 7.62058 3.10624C8.34243 3.40524 8.95884 3.90819 9.39617 4.55049L7.84111 4.55049C7.56497 4.55049 7.34111 4.77435 7.34111 5.05049C7.34111 5.32663 7.56497 5.55049 7.84111 5.55049L10.5894 5.55049C10.7595 5.55049 10.9103 5.46549 11.0006 5.33563C11.0569 5.25475 11.0898 5.15647 11.0898 5.05049V2.30176C11.0898 2.02562 10.866 1.80176 10.5898 1.80176C10.3137 1.80176 10.0898 2.02562 10.0898 2.30176V3.80175C9.55424 3.08761 8.83471 2.52676 8.00326 2.18236C6.98637 1.76115 5.85891 1.68726 4.79575 1.97213C3.73258 2.25701 2.79312 2.88473 2.12308 3.75795C1.45303 4.63117 1.08984 5.70109 1.08984 6.80176C1.08984 7.90243 1.45303 8.97235 2.12308 9.84557C2.79312 10.7188 3.73258 11.3465 4.79575 11.6314C5.85892 11.9163 6.98637 11.8424 8.00326 11.4212C9.02015 10.9999 9.86964 10.255 10.42 9.30176C10.558 9.06261 10.4761 8.75682 10.237 8.61875C9.99781 8.48068 9.69202 8.56261 9.55395 8.80176C9.11368 9.56433 8.43409 10.1603 7.62058 10.4973C6.80707 10.8342 5.9051 10.8934 5.05457 10.6655C4.20403 10.4376 3.45247 9.93538 2.91643 9.23681C2.38039 8.53823 2.08984 7.6823 2.08984 6.80176C2.08984 5.92122 2.38039 5.06529 2.91643 4.36671C3.45247 3.66814 4.20403 3.16596 5.05457 2.93806Z"
    fill="currentColor" />
</svg>
