<svg xmlns="http://www.w3.org/2000/svg" width="14" height="14" viewBox="0 0 14 14" fill="none">
  <g clip-path="url(#clip0_5758_12684)">
    <path fill-rule="evenodd" clip-rule="evenodd"
      d="M4.08398 1.75004C4.08398 1.10571 4.60632 0.583374 5.25065 0.583374H12.2507C12.895 0.583374 13.4173 1.10571 13.4173 1.75004V8.75004C13.4173 9.39437 12.895 9.91671 12.2507 9.91671H9.91732V12.25C9.91732 12.8944 9.39498 13.4167 8.75065 13.4167H1.75065C1.10632 13.4167 0.583984 12.8944 0.583984 12.25V5.25004C0.583984 4.60571 1.10632 4.08337 1.75065 4.08337H4.08398V1.75004ZM4.08398 5.25004H1.75065V12.25H8.75065V9.91671H5.25065C4.60632 9.91671 4.08398 9.39437 4.08398 8.75004V5.25004ZM8.75065 8.75004H5.25065V5.25004H8.75065V8.75004ZM9.91732 8.75004V5.25004C9.91732 4.60571 9.39498 4.08337 8.75065 4.08337H5.25065V1.75004H12.2507V8.75004H9.91732Z"
      fill="#4D53E8" />
  </g>
  <defs>
    <clipPath id="clip0_5758_12684">
      <rect width="14" height="14" fill="white" />
    </clipPath>
  </defs>
</svg>
