<svg width="14" height="14" viewBox="0 0 14 14" fill="none" xmlns="http://www.w3.org/2000/svg">
<g clip-path="url(#clip0_232_269)">
<path d="M12.5915 13.9125H1.37398C1.02428 13.9102 0.689541 13.7703 0.442254 13.523C0.194967 13.2757 0.0550276 12.941 0.0527344 12.5912V1.365C0.0550276 1.01529 0.194967 0.680553 0.442254 0.433266C0.689541 0.185979 1.02428 0.0460402 1.37398 0.0437469H12.5915C12.765 0.0437469 12.9368 0.0779221 13.0971 0.144321C13.2574 0.21072 13.4031 0.308043 13.5257 0.430732C13.6484 0.553421 13.7458 0.699075 13.8122 0.859376C13.8786 1.01968 13.9127 1.19149 13.9127 1.365V12.5912C13.9127 12.9417 13.7735 13.2777 13.5257 13.5255C13.278 13.7733 12.9419 13.9125 12.5915 13.9125ZM1.37398 0.927497C1.25865 0.929737 1.14867 0.97655 1.0671 1.05812C0.985537 1.13968 0.938724 1.24967 0.936484 1.365V12.5912C0.938724 12.7066 0.985537 12.8166 1.0671 12.8981C1.14867 12.9797 1.25865 13.0265 1.37398 13.0287H12.5915C12.7083 13.0288 12.8205 12.983 12.904 12.9012C12.9874 12.8193 13.0354 12.7081 13.0377 12.5912V1.365C13.0354 1.24817 12.9874 1.1369 12.904 1.05509C12.8205 0.973287 12.7083 0.927474 12.5915 0.927497H1.37398Z" fill="currentColor"/>
<path d="M13.2738 4.87375H0.577552C0.476485 4.85343 0.385568 4.79875 0.320249 4.719C0.25493 4.63925 0.219238 4.53934 0.219238 4.43625C0.219238 4.33316 0.25493 4.23325 0.320249 4.1535C0.385568 4.07374 0.476485 4.01906 0.577552 3.99875H13.2738C13.3749 4.01906 13.4658 4.07374 13.5311 4.1535C13.5964 4.23325 13.6321 4.33316 13.6321 4.43625C13.6321 4.53934 13.5964 4.63925 13.5311 4.719C13.4658 4.79875 13.3749 4.85343 13.2738 4.87375Z" fill="currentColor"/>
<path d="M4.57626 13.7463C4.51806 13.7463 4.46045 13.7347 4.40679 13.7121C4.35313 13.6896 4.30451 13.6566 4.26377 13.615C4.22302 13.5735 4.19098 13.5242 4.16952 13.4701C4.14805 13.416 4.1376 13.3582 4.13876 13.3V4.42751C4.13876 4.31147 4.18485 4.20019 4.2669 4.11815C4.34895 4.0361 4.46023 3.99001 4.57626 3.99001C4.69229 3.99001 4.80357 4.0361 4.88562 4.11815C4.96767 4.20019 5.01376 4.31147 5.01376 4.42751V13.3C5.01492 13.3582 5.00447 13.416 4.983 13.4701C4.96154 13.5242 4.9295 13.5735 4.88875 13.615C4.84801 13.6566 4.79939 13.6896 4.74573 13.7121C4.69207 13.7347 4.63446 13.7463 4.57626 13.7463Z" fill="currentColor"/>
</g>
<defs>
<clipPath id="clip0_232_269">
<rect width="14" height="14" fill="white"/>
</clipPath>
</defs>
</svg>
