<svg xmlns="http://www.w3.org/2000/svg" width="16" height="16" viewBox="0 0 16 16" fill="none">
  <path fill-rule="evenodd" clip-rule="evenodd"
    d="M5.80952 4.66667C5.80952 5.29785 5.29785 5.80952 4.66667 5.80952C4.03548 5.80952 3.52381 5.29785 3.52381 4.66667C3.52381 4.03548 4.03548 3.52381 4.66667 3.52381C5.29785 3.52381 5.80952 4.03548 5.80952 4.66667ZM7.33333 4.66667C7.33333 5.90923 6.48349 6.95329 5.33333 7.24932V10C5.33333 10.3682 5.63181 10.6667 6 10.6667H7.79483C7.68139 10.8628 7.61646 11.0905 7.61646 11.3333C7.61646 11.5762 7.68139 11.8039 7.79483 12H6C4.89543 12 4 11.1046 4 10V7.24932C2.84985 6.95329 2 5.90923 2 4.66667C2 3.19391 3.19391 2 4.66667 2C6.13943 2 7.33333 3.19391 7.33333 4.66667ZM9.33333 10.6667V10.668H10.6673V9.33203C10.6673 8.96384 10.9658 8.66536 11.334 8.66536C11.7022 8.66536 12.0007 8.96384 12.0007 9.33203V10.668H13.3327C13.7009 10.668 13.9993 10.9664 13.9993 11.3346C13.9993 11.7028 13.7009 12.0013 13.3327 12.0013H12.0007V13.332C12.0007 13.7002 11.7022 13.9987 11.334 13.9987C10.9658 13.9987 10.6673 13.7002 10.6673 13.332V12.0013H9.33268C8.96449 12.0013 8.66602 11.7028 8.66602 11.3346C8.66602 11.2272 8.69142 11.1258 8.73654 11.0359C8.84585 10.817 9.07203 10.6667 9.33333 10.6667Z"
    fill="#1D1C23" fill-opacity="0.6"
    style="fill:#1D1C23;fill:color(display-p3 0.1137 0.1098 0.1373);fill-opacity:0.6;" />
</svg>
