<svg xmlns="http://www.w3.org/2000/svg" width="24" height="24" viewBox="0 0 24 24" fill="currentColor">
  <path
    d="M18.3662 2.51698C17.6771 1.82782 16.5597 1.82782 15.8706 2.51698L2.51698 15.8705C1.82782 16.5597 1.82782 17.6771 2.51698 18.3662L5.67817 21.5274C6.36732 22.2166 7.48467 22.2166 8.17383 21.5274L21.5274 8.17383C22.2166 7.48467 22.2166 6.36732 21.5274 5.67817L18.3662 2.51698ZM15.0441 11.8287L6.97304 19.8998L4.14461 17.0713L12.2157 9.00029L15.0441 11.8287Z" />
  <path
    d="M4.48392 2.35931C4.6612 1.88023 5.3388 1.88023 5.51608 2.35931L6.00211 3.67278C6.05784 3.8234 6.1766 3.94216 6.32722 3.99789L7.64069 4.48392C8.11977 4.6612 8.11977 5.3388 7.64069 5.51608L6.32722 6.0021C6.1766 6.05784 6.05784 6.1766 6.00211 6.32722L5.51608 7.64069C5.3388 8.11977 4.6612 8.11977 4.48392 7.64069L3.9979 6.32722C3.94216 6.1766 3.8234 6.05784 3.67278 6.0021L2.35931 5.51608C1.88023 5.3388 1.88023 4.6612 2.35931 4.48392L3.67278 3.99789C3.8234 3.94216 3.94216 3.8234 3.9979 3.67278L4.48392 2.35931Z" />
  <path
    d="M21.3443 12.2398C21.2261 11.9204 20.7743 11.9204 20.6562 12.2398L20.3321 13.1154C20.295 13.2158 20.2158 13.295 20.1154 13.3321L19.2398 13.6562C18.9204 13.7743 18.9204 14.2261 19.2398 14.3443L20.1154 14.6683C20.2158 14.7054 20.295 14.7846 20.3321 14.885L20.6562 15.7607C20.7743 16.0801 21.2261 16.0801 21.3443 15.7607L21.6683 14.885C21.7054 14.7846 21.7846 14.7054 21.885 14.6683L22.7607 14.3443C23.0801 14.2261 23.0801 13.7743 22.7607 13.6562L21.885 13.3321C21.7846 13.295 21.7054 13.2158 21.6683 13.1154L21.3443 12.2398Z" />
  <path
    d="M17.5162 16.3593C17.3389 15.8802 16.6613 15.8802 16.484 16.3593L15.998 17.6728C15.9423 17.8234 15.8235 17.9422 15.6729 17.9979L14.3594 18.4839C13.8803 18.6612 13.8803 19.3388 14.3594 19.5161L15.6729 20.0021C15.8235 20.0578 15.9423 20.1766 15.998 20.3272L16.484 21.6407C16.6613 22.1198 17.3389 22.1198 17.5162 21.6407L18.0022 20.3272C18.058 20.1766 18.1767 20.0578 18.3273 20.0021L19.6408 19.5161C20.1199 19.3388 20.1199 18.6612 19.6408 18.4839L18.3273 17.9979C18.1767 17.9422 18.058 17.8234 18.0022 17.6728L17.5162 16.3593Z" />
</svg>
