<svg width="14" height="14" viewBox="0 0 24 24" fill="none" xmlns="http://www.w3.org/2000/svg">
<path d="M11.8231 1.51209C11.2665 1.17295 10.6262 0.995968 9.97448 1.00108C9.32272 1.0062 8.68533 1.19321 8.13412 1.54105C7.58291 1.88888 7.13978 2.38372 6.85464 2.96983C6.5695 3.55594 6.45369 4.21002 6.52025 4.8584L6.52198 4.87519L6.52427 4.89191C6.58269 5.3187 6.69031 5.68811 6.81317 6.00098H4.00195C2.89738 6.00098 2.00195 6.89641 2.00195 8.00098V12.001C2.00195 12.1434 2.00819 12.3465 2.06315 12.5448C2.1177 12.7417 2.29872 13.1885 2.82612 13.3431C3.23475 13.4628 3.57727 13.3064 3.66423 13.2667L3.66714 13.2654C3.79212 13.2084 3.91569 13.1321 3.99224 13.0848L4.03021 13.0613C4.35889 12.8578 4.75227 12.6144 5.3646 12.5269C5.63728 12.5019 5.91174 12.5519 6.15816 12.6718C6.40935 12.794 6.62142 12.9839 6.77049 13.2201C6.91957 13.4564 6.99971 13.7295 7.00191 14.0089C7.0041 14.2882 6.92825 14.5626 6.78291 14.8011C6.63756 15.0397 6.42849 15.2329 6.17925 15.359C5.93788 15.4812 5.66811 15.5357 5.39855 15.5171C4.65587 15.4051 4.18936 15.2024 3.87667 15.0652L3.85795 15.057C3.78414 15.0246 3.6917 14.984 3.60835 14.9524C3.53824 14.9258 3.35514 14.8568 3.138 14.8502C3.01427 14.8465 2.83552 14.861 2.64406 14.9485C2.44024 15.0417 2.28434 15.1893 2.17965 15.3563C2.01457 15.6197 2.00283 15.8904 2.00201 16.001L2.00195 16.0206V20.001C2.00195 21.1055 2.89738 22.001 4.00195 22.001H16.002C17.1065 22.001 18.002 21.1055 18.002 20.001V17.2481C18.318 17.3443 18.6959 17.4358 19.1415 17.5007L19.1703 17.5049L19.1992 17.5075C19.8486 17.5638 20.5008 17.4378 21.0823 17.1435C21.6639 16.8492 22.1517 16.3983 22.4908 15.8417C22.83 15.2851 23.007 14.6449 23.0018 13.9931C22.9967 13.3413 22.8097 12.7039 22.4619 12.1527C22.114 11.6015 21.6192 11.1584 21.0331 10.8733C20.447 10.5881 19.7929 10.4723 19.1445 10.5389L19.1277 10.5406L19.111 10.5429C18.6841 10.6013 18.3146 10.7083 18.002 10.8299V8.00098C18.002 6.89641 17.1065 6.00098 16.002 6.00098H13.2294C13.3257 5.68494 13.4172 5.30698 13.4821 4.86144L13.4863 4.83266L13.4888 4.80369C13.5452 4.15435 13.4191 3.50217 13.1248 2.92061C12.8305 2.33905 12.3797 1.85123 11.8231 1.51209Z" fill="currentColor"/>
</svg>
