<svg width="16" height="16" viewBox="0 0 16 16" fill="none" xmlns="http://www.w3.org/2000/svg">
<path d="M13.5438 9.30125C13.9373 9.56538 13.9373 10.1442 13.5438 10.4083L9.80788 12.9161C9.36499 13.2134 8.76965 12.896 8.76965 12.3626L8.76965 7.34698C8.76965 6.81356 9.36499 6.49616 9.80788 6.79346L13.5438 9.30125Z" fill="#1D1C23" fill-opacity="0.8"/>
<path fill-rule="evenodd" clip-rule="evenodd" d="M14.3684 4.2168C14.3684 4.40089 14.2191 4.55013 14.035 4.55013H1.9648C1.78071 4.55013 1.63147 4.40089 1.63147 4.2168V3.55013C1.63147 3.36604 1.78071 3.2168 1.9648 3.2168H14.035C14.2191 3.2168 14.3684 3.36604 14.3684 3.55013V4.2168Z" fill="#1D1C23" fill-opacity="0.8"/>
<path fill-rule="evenodd" clip-rule="evenodd" d="M6.46179 8.2168C6.46179 8.40089 6.31255 8.55013 6.12846 8.55013H1.9648C1.78071 8.55013 1.63147 8.40089 1.63147 8.2168V7.55013C1.63147 7.36604 1.78071 7.2168 1.9648 7.2168H6.12846C6.31255 7.2168 6.46179 7.36604 6.46179 7.55013V8.2168Z" fill="#1D1C23" fill-opacity="0.8"/>
<path fill-rule="evenodd" clip-rule="evenodd" d="M6.46179 12.2168C6.46179 12.4009 6.31255 12.5501 6.12846 12.5501H1.9648C1.78071 12.5501 1.63147 12.4009 1.63147 12.2168V11.5501C1.63147 11.366 1.78071 11.2168 1.9648 11.2168H6.12846C6.31255 11.2168 6.46179 11.366 6.46179 11.5501V12.2168Z" fill="#1D1C23" fill-opacity="0.8"/>
</svg>
