<svg width="12" height="12" viewBox="0 0 12 12" fill="none" xmlns="http://www.w3.org/2000/svg">
<path d="M1 11C1 8.79085 2.79086 7 5 7C7.20915 7 9 8.79085 9 11H8C8 9.34315 6.65685 8 5 8C3.34314 8 2 9.34315 2 11H1ZM5 6.5C3.3425 6.5 2 5.1575 2 3.5C2 1.8425 3.3425 0.5 5 0.5C6.6575 0.5 8 1.8425 8 3.5C8 5.1575 6.6575 6.5 5 6.5ZM5 5.5C6.105 5.5 7 4.605 7 3.5C7 2.395 6.105 1.5 5 1.5C3.895 1.5 3 2.395 3 3.5C3 4.605 3.895 5.5 5 5.5ZM9.14185 7.3514C10.5322 7.97805 11.5 9.376 11.5 11H10.5C10.5 9.782 9.77415 8.73355 8.7314 8.26355L9.14185 7.3514ZM8.7981 1.7066C9.7972 2.11852 10.5 3.1018 10.5 4.25C10.5 5.6851 9.4021 6.8626 8 6.9888V5.9823C8.84835 5.8611 9.5 5.132 9.5 4.25C9.5 3.55967 9.1008 2.96302 8.5205 2.67817L8.7981 1.7066Z" fill="#1D1C23" fill-opacity="0.35"/>
</svg>
