<svg width="48" height="48" viewBox="0 0 48 48" fill="currentColor" xmlns="http://www.w3.org/2000/svg">
  <g id="icon_empty">
    <path id="Vector"
      d="M22 11V5H26V11H22ZM14.414 6.586L18.414 10.586L15.586 13.414L11.586 9.414L14.414 6.586ZM36.414 9.414L32.414 13.414L29.586 10.586L33.586 6.586L36.414 9.414ZM10.694 17.984C11.0463 17.3802 11.5507 16.8793 12.1569 16.5312C12.7631 16.1831 13.45 16 14.149 16H33.85C34.5491 16.0001 35.236 16.1834 35.8423 16.5317C36.4485 16.88 36.9528 17.3811 37.305 17.985L43.455 28.525C43.812 29.1369 44.0001 29.8326 44 30.541V39C44 39.5253 43.8965 40.0454 43.6955 40.5307C43.4945 41.016 43.1999 41.457 42.8284 41.8284C42.457 42.1999 42.016 42.4945 41.5307 42.6955C41.0454 42.8965 40.5253 43 40 43H8C7.47471 43 6.95457 42.8965 6.46927 42.6955C5.98396 42.4945 5.54301 42.1999 5.17157 41.8284C4.80014 41.457 4.5055 41.016 4.30448 40.5307C4.10346 40.0454 4 39.5253 4 39V30.54C4.00012 29.8319 4.18819 29.1366 4.545 28.525L10.694 17.985V17.984ZM33.85 20H14.15L9.483 28H21.443L21.893 29.35C21.923 29.4261 21.9563 29.5009 21.993 29.574C22.083 29.754 22.223 29.991 22.413 30.22C22.78 30.661 23.263 31 24.001 31C24.739 31 25.221 30.661 25.59 30.22C25.8047 29.959 25.9793 29.6675 26.108 29.355L26.109 29.35L26.559 28H38.519L33.852 20H33.85ZM40 32H29.227C29.0558 32.2723 28.8668 32.5328 28.661 32.78C27.78 33.84 26.262 35 24 35C21.738 35 20.22 33.839 19.339 32.78C19.1332 32.5328 18.9442 32.2723 18.773 32H8V39H40V32Z"
      fill-opacity="0.3" />
  </g>
</svg>
