<svg xmlns="http://www.w3.org/2000/svg" width="16" height="16" viewBox="0 0 16 16" fill="none">
  <path
    d="M11.7002 8.46527C12.6639 8.46527 13.4557 7.6916 13.5433 6.70324C13.554 6.58208 13.5418 6.46031 13.5229 6.34016L13.1142 3.74692C13.0248 3.17971 12.536 2.76187 11.9618 2.76186L4.03833 2.76174C3.46464 2.76173 2.97607 3.17881 2.88609 3.7454L2.4742 6.3388C2.45497 6.45986 2.44258 6.58256 2.45349 6.70464C2.54172 7.69233 3.33316 8.46527 4.29645 8.46527C5.31881 8.46527 6.14759 7.59464 6.14759 6.52066C6.14759 7.59464 6.97637 8.46527 7.99873 8.46527C9.02108 8.46527 9.84905 7.59464 9.84905 6.52066C9.84905 7.59464 10.6778 8.46527 11.7002 8.46527Z"
    stroke="#1D1C23" stroke-opacity="0.35" stroke-width="1.22817" />
  <path fill-rule="evenodd" clip-rule="evenodd"
    d="M12.0833 9.9327V12.6726L3.91667 12.6726V9.93212C3.49911 9.88408 3.10527 9.75436 2.75 9.55859V12.6726C2.75 13.3169 3.27234 13.8393 3.91667 13.8393H12.0833C12.7277 13.8393 13.25 13.3169 13.25 12.6726V9.56136C12.8946 9.75637 12.5008 9.88535 12.0833 9.9327Z"
    fill="#1D1C23" fill-opacity="0.35" />
  <path d="M6.8335 10.9141H9.16683" stroke="#1D1C23" stroke-opacity="0.35" stroke-width="1.16667"
    stroke-linecap="round" />
</svg>
