<svg width="14" height="16" viewBox="0 0 14 16" fill="none" xmlns="http://www.w3.org/2000/svg">
<path fill-rule="evenodd" clip-rule="evenodd" d="M8.22999 2.6253V2.6836C8.22858 2.6966 8.22786 2.70981 8.22786 2.72318V7.26711C8.22786 7.46875 8.39133 7.63222 8.59297 7.63222C8.79462 7.63222 8.95808 7.46875 8.95808 7.26711V2.77221C9.04025 2.75001 9.12668 2.73817 9.21586 2.73817L9.22999 2.73826C9.62568 2.74382 9.96499 2.98251 10.1168 3.32316C10.1713 3.44562 10.2017 3.58124 10.2017 3.72396L10.2021 8.88353V4.99561C10.2021 4.98617 10.2022 4.97675 10.2025 4.96737V7.36774C10.2025 7.56939 10.3659 7.73285 10.5676 7.73285C10.7692 7.73285 10.9327 7.56939 10.9327 7.36774V4.04317C11.0141 4.02142 11.0996 4.00982 11.1879 4.00982L11.2017 4.00992C11.7397 4.01729 12.1737 4.45578 12.1737 4.99561L12.1738 8.88353V9.64333L12.1737 9.68396C12.1731 9.75065 12.1712 9.81718 12.1679 9.88353C12.1077 11.1042 11.5902 12.2612 10.7134 13.121V13.5469C10.7134 13.9151 10.4149 14.2135 10.0467 14.2135H5.53834C5.17015 14.2135 4.87167 13.9151 4.87167 13.5469V13.0281L1.7333 9.72088C1.33808 9.3044 1.44974 8.6257 1.95755 8.35779L2.03951 8.31455C2.43772 8.10446 2.90794 8.11222 3.29322 8.31946C3.38019 8.36624 3.46283 8.42319 3.53934 8.49009L4.29322 9.14928V3.86736C4.29322 3.24372 4.79878 2.73817 5.42242 2.73817C5.46545 2.73817 5.50792 2.74057 5.54971 2.74526C5.64366 2.7558 5.73413 2.77787 5.81966 2.81002V7.60729C5.81966 7.80894 5.98313 7.9724 6.18477 7.9724C6.38641 7.9724 6.54988 7.80894 6.54988 7.60729V2.72318L6.54971 2.71186V2.6253C6.54971 2.45222 6.60205 2.29137 6.69175 2.1577C6.84255 1.93302 7.09893 1.78516 7.38985 1.78516C7.66074 1.78516 7.90168 1.91336 8.05532 2.11241C8.16484 2.2543 8.22999 2.43219 8.22999 2.6253ZM7.38985 0.785156C8.08883 0.785156 8.69678 1.17488 9.00828 1.74889C9.0765 1.7418 9.14576 1.73817 9.21586 1.73817C10.0621 1.73817 10.7848 2.26755 11.0707 3.01322C11.1095 3.01097 11.1485 3.00982 11.1879 3.00982C12.2846 3.00982 13.1737 3.89889 13.1737 4.99561L13.1738 7.88353V9.64333C13.1738 11.0743 12.6514 12.4507 11.7134 13.5182V13.5469C11.7134 14.4673 10.9672 15.2135 10.0467 15.2135H5.53834C4.61787 15.2135 3.87167 14.4674 3.87167 13.5469V13.4271L1.00792 10.4092C0.156682 9.5122 0.397176 8.05037 1.49092 7.47333L1.57288 7.43009C2.11324 7.14501 2.72938 7.08915 3.29322 7.24752V3.86736C3.29322 2.69144 4.2465 1.73817 5.42242 1.73817C5.53823 1.73817 5.65188 1.74741 5.76267 1.76519C6.07144 1.18227 6.68426 0.785156 7.38985 0.785156Z" fill="currentColor" fill-opacity="0.8"/>
</svg>
