<svg xmlns="http://www.w3.org/2000/svg" width="16" height="17" viewBox="0 0 16 17" fill="none">
  <path
    d="M10.7245 11.4067L10.4902 12.0502L13.1407 14.7007C13.3831 14.9431 13.7762 14.9431 14.0186 14.7007C14.261 14.4583 14.261 14.0652 14.0186 13.8228L11.3681 11.1724L10.7245 11.4067Z"
    fill="#4D53E8" />
  <path
    d="M8.48532 13.9565L9.72153 10.744C9.78459 10.5802 9.91408 10.4507 10.0779 10.3876L13.2905 9.15139C13.3918 9.11238 13.4812 9.04746 13.5496 8.9631C13.7656 8.69685 13.7248 8.30592 13.4586 8.08995L10.7853 5.92151C10.6489 5.81091 10.5658 5.64774 10.5565 5.47241L10.3735 2.0351C10.3677 1.92663 10.3336 1.82158 10.2745 1.73044C10.088 1.44276 9.70363 1.36072 9.41595 1.54721L6.52755 3.41957C6.38023 3.51508 6.19935 3.54372 6.02972 3.49842L2.7041 2.61026C2.59916 2.58223 2.4887 2.58223 2.38376 2.61026C2.05253 2.69872 1.85573 3.03894 1.94419 3.37017L2.83235 6.69579C2.87765 6.86542 2.849 7.0463 2.7535 7.19362L0.881134 10.082C0.822051 10.1732 0.787918 10.2782 0.782144 10.3867C0.763919 10.729 1.02668 11.0213 1.36903 11.0396L4.80634 11.2225C4.98166 11.2319 5.14484 11.315 5.25544 11.4514L7.42388 14.1247C7.4923 14.209 7.58166 14.2739 7.68304 14.313C8.003 14.4361 8.3622 14.2765 8.48532 13.9565Z"
    fill="#4D53E8" />
</svg>
