<svg width="17" height="16" viewBox="0 0 17 16" fill="none" xmlns="http://www.w3.org/2000/svg">
<g id="icon_add-middle_outlined">
<path id="Union" d="M8.50012 1.99963C8.13193 1.99963 7.83346 2.29811 7.83346 2.6663V7.33297H3.16679C2.7986 7.33297 2.50012 7.63144 2.50012 7.99963C2.50012 8.36782 2.7986 8.6663 3.16679 8.6663H7.83346V13.333C7.83346 13.7012 8.13193 13.9996 8.50012 13.9996C8.86831 13.9996 9.16679 13.7012 9.16679 13.333V8.6663H13.8335C14.2016 8.6663 14.5001 8.36782 14.5001 7.99963C14.5001 7.63144 14.2016 7.33297 13.8335 7.33297H9.16679V2.6663C9.16679 2.29811 8.86831 1.99963 8.50012 1.99963Z" fill="#4D53E8"/>
</g>
</svg>
