<svg fill="currentColor" height="14" viewBox="0 0 14 14" width="14" xmlns="http://www.w3.org/2000/svg">
    <g>
        <path d="m3.2419 5.95845c-.29391-.15347-.40075-.52088-.23496-.80802.15613-.27044.49768-.36976.77449-.22521l3.19743 1.66962 3.19734-1.66956c.2768-.14454.6183-.04522.7745.22522.1657.28714.0589.65455-.235.80802l-3.43433 1.79332c-.09671.0505-.20132.07123-.30317.0653-.10147.0057-.20565-.01507-.30198-.06537z"/>
        <path d="m12.2547 1.75c.6443 0 1.1616.52233 1.1616 1.16667v8.16673c0 .6443-.5178 1.1667-1.1621 1.1667h-10.50953c-.64433 0-1.161662-.5224-1.161662-1.1667v-8.16668c0-.64433.517822-1.16667 1.162152-1.16667zm-.005 1.16667-10.50003.00005v8.16668h10.50003z"/>
    </g>
</svg>
