<svg xmlns="http://www.w3.org/2000/svg" width="16" height="16" viewBox="0 0 16 16" fill="none">
  <path d="M1.33325 3.33337C1.33325 2.2288 2.22868 1.33337 3.33325 1.33337H11.3333C11.7014 1.33337 11.9999 1.63185 11.9999 2.00004C11.9999 2.36823 11.7014 2.66671 11.3333 2.66671H3.33325C2.96506 2.66671 2.66659 2.96518 2.66659 3.33337V12.6667C2.66659 13.0349 2.96506 13.3334 3.33325 13.3334H11.3333C11.7014 13.3334 11.9999 13.6319 11.9999 14C11.9999 14.3682 11.7014 14.6667 11.3333 14.6667H3.33325C2.22868 14.6667 1.33325 13.7713 1.33325 12.6667V3.33337Z" fill="currentColor"/>
  <path d="M7.94273 7.33337L9.80466 5.47145C10.065 5.2111 10.065 4.78899 9.80466 4.52864C9.54431 4.26829 9.1222 4.26829 8.86185 4.52864L5.86185 7.52864C5.73202 7.65847 5.66148 7.83609 5.66687 8.01962C5.67227 8.20315 5.75311 8.37633 5.89034 8.49831L8.89034 11.165C9.16553 11.4096 9.58691 11.3848 9.83153 11.1096C10.0761 10.8344 10.0513 10.413 9.77616 10.1684L8.08672 8.66671H14.6666C15.0348 8.66671 15.3333 8.36823 15.3333 8.00004C15.3333 7.63185 15.0348 7.33337 14.6666 7.33337H7.94273Z" fill="currentColor"/>
</svg>
