<svg xmlns="http://www.w3.org/2000/svg" width="16" height="16" viewBox="0 0 16 16" fill="none">
  <path d="M2.26088 13.8216L2.96384 12.8157C1.82857 11.649 1.10305 10.1017 1.01107 8.39141C1.00372 8.26184 1 8.13134 1 7.99999C1 4.134 4.22439 1 8.20189 1C8.24575 1 8.28947 1 8.33333 1C10.074 1 11.6663 1.63536 12.891 2.68682C13.8416 3.48016 14.5769 4.51039 15 5.68331C15.0145 5.72362 15.3333 7.04467 15.3333 8C15.3333 11.583 12.6413 14.5373 9.16957 14.9506L9.16791 14.9508C8.89425 14.9833 8.61574 15 8.33333 15C8.17003 14.9997 8 15 7.83708 15H2.90299C2.27997 15 1.91082 14.3225 2.26088 13.8216ZM8.33333 13.6667C11.4629 13.6667 14 11.1296 14 8C14 7.35773 13.8741 6.70293 13.7251 6.07941C13.3818 5.15934 12.7962 4.3444 12.0367 3.71052L12.0295 3.70453L12.0224 3.69844C11.0304 2.8467 9.74349 2.33333 8.33333 2.33333C8.28952 2.33333 8.2457 2.33333 8.20189 2.33333C4.92478 2.33333 2.33333 4.90587 2.33333 7.99999C2.33333 8.10615 2.33634 8.21148 2.34226 8.31592L2.34248 8.3198C2.41624 9.69139 2.99725 10.9381 3.91943 11.8859L4.68819 12.6759L3.99581 13.6667H7.8143C7.98724 13.6629 8.16038 13.6663 8.33333 13.6667Z" fill="#1D1C23" fill-opacity="0.8"/>
  <path d="M11.0586 8.51386C11.4249 8.2729 11.4249 7.7258 11.0586 7.48484L6.92339 4.76447C6.52473 4.50222 6 4.7946 6 5.27898V10.7197C6 11.2041 6.52473 11.4965 6.92339 11.2342L11.0586 8.51386Z" fill="#1D1C23" fill-opacity="0.8"/>
</svg>
