<svg width="1em" height="1em" viewBox="0 0 12 12" fill="none" xmlns="http://www.w3.org/2000/svg">
<g id="icon_at_outlined">
<path id="Union" d="M9.375 8C8.86094 8 8.3952 7.77934 8.05649 7.42197C7.60522 8.07336 6.85244 8.5 6 8.5C4.61929 8.5 3.5 7.38071 3.5 6C3.5 4.61929 4.61929 3.5 6 3.5C7.38071 3.5 8.5 4.61929 8.5 6C8.5 6.55228 8.89175 7 9.375 7C10.1311 7 10.2628 6 10.2628 6C10.3029 5.72612 10.3322 5.54823 10.3322 5.21585C10.3322 3.49835 8.58193 1.5 6 1.5C3.41807 1.5 1.50981 3.41807 1.50981 6C1.50981 8.58193 3.41807 10.5055 6 10.5055C6.90361 10.5055 7.74363 10.1882 8.45805 9.73322C8.58751 9.65077 8.75146 9.64258 8.88453 9.71908C8.89183 9.72328 8.89874 9.72725 8.90514 9.73093C9.01653 9.79497 9.16702 9.8815 9.35661 9.99049C9.3581 9.99135 9.35962 9.99222 9.36117 9.99311C9.48686 10.0654 9.50416 10.2419 9.39005 10.3313C8.45589 11.0635 7.27892 11.5 6 11.5C2.96243 11.5 0.5 9.03757 0.5 6C0.5 2.96243 2.96243 0.5 6 0.5C9.03757 0.5 11.3284 2.63243 11.3284 5.21585C11.3284 5.34423 11.3355 5.47697 11.2603 6.11286C11.1479 7.16327 10.3749 8 9.375 8ZM6 7.5C6.82843 7.5 7.5 6.82843 7.5 6C7.5 5.17157 6.82843 4.5 6 4.5C5.17157 4.5 4.5 5.17157 4.5 6C4.5 6.82843 5.17157 7.5 6 7.5Z" fill="currentColor"/>
</g>
</svg>
