<svg width="16" height="16" viewBox="0 0 16 16" fill="none" xmlns="http://www.w3.org/2000/svg">
  <path
    d="M6.667 1.333c-.737 0-1.333.597-1.333 1.334H2A.667.667 0 1 0 2 4h.667v9.333c0 .737.597 1.334 1.333 1.334h8c.736 0 1.334-.597 1.334-1.334V4H14a.667.667 0 0 0 0-1.333h-3.333c0-.737-.597-1.334-1.333-1.334H6.667zM6.334 6c.368 0 .666.298.666.667v4a.667.667 0 1 1-1.333 0v-4c0-.369.298-.667.667-.667zm3.333 0c.368 0 .667.298.667.667v4a.667.667 0 0 1-1.334 0v-4C9 6.298 9.3 6 9.667 6z"
    fill="currentColor" />
</svg>
