<svg width="14" height="14" viewBox="0 0 14 14" fill="currentColor" xmlns="http://www.w3.org/2000/svg">
  <g id="icon_thumbsup_outlined">
    <g id="Union">
      <path
        d="M8.7506 4.66575H11.2543C12.9961 4.66575 13.3962 6.20233 12.9961 7.3537L11.2543 11.9363C11.1072 12.4693 10.617 12.8391 10.0576 12.8391H3.49132C3.1702 12.8391 2.90987 12.5789 2.90987 12.258C2.90987 12.0041 2.90987 11.7471 2.90987 11.6723V5.85893C2.90987 5.7827 2.90987 5.51147 2.90987 5.24684C2.90987 4.92591 3.1702 4.66575 3.49132 4.66575H3.80156C3.99163 4.66575 4.1698 4.57326 4.27911 4.41786L6.70238 0.9726C6.8664 0.711796 7.30915 0.511858 7.78104 0.726633C8.48889 1.0488 9.33625 1.75206 9.33625 2.91727C9.33625 3.35673 9.14103 3.93955 8.7506 4.66575ZM11.2543 5.83253H6.79798L7.7222 4.11348C8.02954 3.54183 8.16879 3.1261 8.16879 2.91727C8.16879 2.57873 8.09773 2.19582 7.48987 1.88189L4.88548 5.58464C4.77617 5.74005 4.598 5.83253 4.40793 5.83253H4.07733V11.6723H10.0576C10.0938 11.6723 10.122 11.651 10.1289 11.6259L10.1435 11.5731L11.8981 6.95676C12.1288 6.27761 11.8987 5.83253 11.2543 5.83253Z"
        fill="#060709" fill-opacity="0.5" />
      <path
        d="M2.03399 12.258V5.24776C2.03399 4.9572 1.80755 4.67589 1.45254 4.66665C1.1176 4.65793 0.871094 4.9572 0.871094 5.24776V12.258C0.871094 12.5485 1.10276 12.8391 1.45254 12.8391C1.80232 12.8391 2.03399 12.5485 2.03399 12.258Z"
        fill="#060709" fill-opacity="0.5" />
    </g>
  </g>
</svg>
