<svg width="24" height="24" viewBox="0 0 24 24" fill="none" xmlns="http://www.w3.org/2000/svg">
<path d="M2.03145 8.17225C2.48866 7.86244 3.11045 7.98194 3.42025 8.43915C5.26302 11.1588 8.6365 13.0001 12 13.0001C15.3635 13.0001 18.737 11.1588 20.5798 8.43915C20.8896 7.98194 21.5114 7.86244 21.9686 8.17225C22.4258 8.48205 22.5453 9.10383 22.2355 9.56104C21.674 10.3897 20.9973 11.1487 20.2339 11.8198L22.2426 13.8285C22.6331 14.219 22.6331 14.8522 22.2426 15.2427C21.8521 15.6333 21.2189 15.6333 20.8284 15.2427L18.7071 13.1214C18.6765 13.0908 18.6483 13.0587 18.6225 13.0254C17.8777 13.4968 17.0825 13.8943 16.255 14.2063L16.9671 16.8638C17.1101 17.3973 16.7935 17.9456 16.26 18.0886C15.7265 18.2315 15.1782 17.9149 15.0353 17.3815L14.3333 14.7618C13.5659 14.918 12.7839 15.0001 12 15.0001C11.2891 15.0001 10.5797 14.9325 9.8814 14.8035L9.19063 17.3815C9.04768 17.9149 8.49935 18.2315 7.96588 18.0886C7.43241 17.9456 7.11583 17.3973 7.25877 16.8638L7.95061 14.2819C7.03652 13.955 6.15948 13.5238 5.34351 13.0037C5.31341 13.0449 5.27978 13.0843 5.24261 13.1214L3.12129 15.2428C2.73077 15.6333 2.0976 15.6333 1.70708 15.2428C1.31655 14.8522 1.31655 14.2191 1.70708 13.8285L3.73936 11.7963C2.98692 11.131 2.31949 10.38 1.76454 9.56104C1.45474 9.10383 1.57424 8.48205 2.03145 8.17225Z" fill="#2B2F36"/>
</svg>
