<svg width="24" height="24" viewBox="0 0 24 24" fill="none" xmlns="http://www.w3.org/2000/svg">
<mask id="mask0_986_318" style="mask-type:alpha" maskUnits="userSpaceOnUse" x="0" y="0" width="24" height="24">
<rect width="24" height="24" fill="#D9D9D9"/>
</mask>
<g mask="url(#mask0_986_318)">
<mask id="path-2-inside-1_986_318" fill="white">
<path d="M3.8647 7.8642C4.25939 6.14206 5.65339 4.92033 7.37601 4.52772C8.60623 4.24733 10.2013 4 12.0003 4C13.7993 4 15.3943 4.24733 16.6245 4.52772C18.3471 4.92033 19.7411 6.14205 20.1358 7.86417C20.3501 8.79897 20.5171 9.98275 20.5171 11.4015C20.5171 13.0062 20.3034 14.2936 20.0494 15.257C19.6671 16.7072 18.5122 17.7582 17.0569 18.1209C15.8473 18.4223 14.1472 18.7016 12.0003 18.7016C9.85338 18.7016 8.15331 18.4223 6.94362 18.1209C5.48836 17.7582 4.33344 16.7072 3.95111 15.257C3.69713 14.2936 3.4834 13.0061 3.4834 11.4015C3.4834 9.98277 3.65046 8.799 3.8647 7.8642Z"/>
</mask>
<path d="M3.95111 15.257L2.50067 15.6394L3.95111 15.257ZM20.0494 15.257L18.599 14.8746L20.0494 15.257ZM20.1358 7.86417L18.6737 8.19926L20.1358 7.86417ZM7.37601 4.52772L7.04268 3.06523L7.37601 4.52772ZM5.40155 14.8746C5.17899 14.0304 4.9834 12.8714 4.9834 11.4015H1.9834C1.9834 13.1409 2.21526 14.5568 2.50067 15.6394L5.40155 14.8746ZM4.9834 11.4015C4.9834 10.1015 5.13638 9.03011 5.32679 8.19929L2.4026 7.52912C2.16453 8.56789 1.9834 9.86407 1.9834 11.4015H4.9834ZM16.6942 16.6654C15.5943 16.9395 14.0161 17.2016 12.0003 17.2016V20.2016C14.2784 20.2016 16.1003 19.9052 17.4197 19.5764L16.6942 16.6654ZM12.0003 17.2016C9.98453 17.2016 8.40633 16.9395 7.30634 16.6654L6.58091 19.5764C7.90029 19.9052 9.72222 20.2016 12.0003 20.2016V17.2016ZM18.6737 8.19926C18.8641 9.03008 19.0171 10.1014 19.0171 11.4015H22.0171C22.0171 9.86405 21.836 8.56786 21.5979 7.52908L18.6737 8.19926ZM19.0171 11.4015C19.0171 12.8714 18.8215 14.0304 18.599 14.8746L21.4998 15.6394C21.7852 14.5568 22.0171 13.1409 22.0171 11.4015H19.0171ZM7.70933 5.99022C8.85487 5.72913 10.3362 5.5 12.0003 5.5V2.5C10.0664 2.5 8.3576 2.76554 7.04268 3.06523L7.70933 5.99022ZM12.0003 5.5C13.6644 5.5 15.1457 5.72913 16.2912 5.99022L16.9579 3.06523C15.643 2.76554 13.9342 2.5 12.0003 2.5V5.5ZM2.50067 15.6394C3.03539 17.6676 4.64507 19.0939 6.58091 19.5764L7.30634 16.6654C6.33165 16.4225 5.63149 15.7468 5.40155 14.8746L2.50067 15.6394ZM17.4197 19.5764C19.3555 19.0939 20.9651 17.6676 21.4998 15.6394L18.599 14.8746C18.369 15.7468 17.6689 16.4225 16.6942 16.6654L17.4197 19.5764ZM21.5979 7.52908C21.0561 5.16504 19.1566 3.56634 16.9579 3.06523L16.2912 5.99022C17.5377 6.27432 18.4262 7.11906 18.6737 8.19926L21.5979 7.52908ZM5.32679 8.19929C5.57436 7.11907 6.4628 6.27432 7.70933 5.99022L7.04268 3.06523C4.84398 3.56634 2.94441 5.16504 2.4026 7.52912L5.32679 8.19929Z" fill="#1D1C23" mask="url(#path-2-inside-1_986_318)"/>
<rect x="7.7998" y="9.6001" width="1.8" height="3" rx="0.9" fill="#1D1C23"/>
<rect x="14.4004" y="9.6001" width="1.8" height="3" rx="0.9" fill="#1D1C23"/>
</g>
</svg>
