<svg width="16" height="16" viewBox="0 0 16 16" fill="none" xmlns="http://www.w3.org/2000/svg">
<path d="M5.16184 12.9173C5.18424 12.9506 5.21672 12.9757 5.2545 12.9892C5.29228 13.0026 5.33338 13.0036 5.37175 12.9919C5.41013 12.9803 5.44376 12.9567 5.46772 12.9246C5.49167 12.8924 5.50468 12.8535 5.50484 12.8134V3.18736C5.50484 3.13767 5.48509 3.09001 5.44993 3.05488C5.41476 3.01974 5.36707 3 5.31734 3H4.69235C4.64271 3 4.59509 3.01967 4.55994 3.0547C4.5248 3.08973 4.50498 3.13725 4.50485 3.18686V9.92957H3.22484C3.20416 9.92956 3.18387 9.93526 3.16621 9.94602C3.14855 9.95679 3.13421 9.97221 3.12475 9.99059C3.11529 10.009 3.11109 10.0296 3.11261 10.0502C3.11412 10.0708 3.1213 10.0906 3.13334 10.1074L5.12084 12.8659C5.12865 12.8767 5.13753 12.8867 5.14734 12.8958L5.16184 12.9173ZM6.69234 11.3262C6.64261 11.3262 6.59492 11.3065 6.55976 11.2713C6.52459 11.2362 6.50484 11.1885 6.50484 11.1388V10.5143C6.50484 10.4109 6.58884 10.327 6.69234 10.327H10.3173C10.3671 10.327 10.4148 10.3467 10.4499 10.3818C10.4851 10.417 10.5048 10.4646 10.5048 10.5143V11.1388C10.5048 11.1885 10.4851 11.2362 10.4499 11.2713C10.4148 11.3065 10.3671 11.3262 10.3173 11.3262H6.69234ZM6.50484 7.97473C6.50484 8.07815 6.58884 8.16209 6.69234 8.16209H11.6175C11.721 8.16209 11.805 8.07815 11.805 7.97473V7.35021C11.805 7.30052 11.7852 7.25286 11.7501 7.21773C11.7149 7.18259 11.6672 7.16285 11.6175 7.16285H6.69234C6.64261 7.16285 6.59492 7.18259 6.55976 7.21773C6.52459 7.25286 6.50484 7.30052 6.50484 7.35021V7.97473ZM6.69234 4.99798C6.64261 4.99798 6.59492 4.97825 6.55976 4.94311C6.52459 4.90797 6.50484 4.86032 6.50484 4.81063V4.18611C6.50484 4.08269 6.58884 3.99875 6.69234 3.99875L12.8126 3.99874C12.8623 3.99874 12.91 4.01848 12.9452 4.05362C12.9803 4.08876 13.0001 4.13641 13.0001 4.1861V4.81063C13.0001 4.86032 12.9803 4.90797 12.9452 4.9431C12.91 4.97824 12.8623 4.99798 12.8126 4.99798L6.69234 4.99798Z" fill="#060709" fill-opacity="0.5"/>
</svg>
