<svg xmlns="http://www.w3.org/2000/svg" width="68" height="36" viewBox="0 0 68 36" fill="currentColor">
    <path d="M15.2662 23.7803C15.3726 23.9646 15.3316 24.1997 15.1621 24.3283C13.781 25.3764 12.0472 26.0003 10.1645 26.0003C5.65535 26.0003 2 22.4218 2 18.0075C2 13.5932 5.65535 10.0148 10.1645 10.0148C12.1161 10.0148 13.9079 10.6852 15.3125 11.8036C15.4761 11.9338 15.5137 12.1646 15.4091 12.3457L14.2149 14.4142C14.0562 14.6891 13.6638 14.7094 13.4449 14.4795C12.6019 13.5946 11.4432 13.0482 10.1645 13.0482C7.5866 13.0482 5.49683 15.2686 5.49682 18.0075C5.49682 20.7464 7.5866 22.9668 10.1645 22.9668C11.3851 22.9668 12.4962 22.469 13.328 21.654C13.5494 21.4371 13.9288 21.4638 14.0838 21.7322L15.2662 23.7803Z" />
    <path d="M36.5232 10.9757C36.5232 10.7343 36.7189 10.5386 36.9604 10.5386H49.1033C49.3447 10.5386 49.5404 10.7343 49.5404 10.9757V13.0051C49.5398 13.0051 49.5393 13.0053 49.5389 13.0057L40.6046 22.7072H49.0928C49.3342 22.7072 49.5299 22.9029 49.5299 23.1443V25.0801C49.5299 25.3215 49.3342 25.5172 49.0928 25.5172H36.6861C36.4447 25.5172 36.249 25.3215 36.249 25.0801V23.2369C36.249 23.1272 36.2903 23.0215 36.3646 22.9408L45.1979 13.3485H36.9604C36.7189 13.3485 36.5232 13.1528 36.5232 12.9114V10.9757Z" />
    <path fill-rule="evenodd" clip-rule="evenodd" d="M25.7924 25.9855C30.3015 25.9855 33.9569 22.407 33.9569 17.9927C33.9569 13.5785 30.3015 10 25.7924 10C21.2833 10 17.6279 13.5785 17.6279 17.9927C17.6279 22.407 21.2833 25.9855 25.7924 25.9855ZM21.1257 17.9927C21.1257 20.7316 23.2154 22.952 25.7933 22.952C28.3712 22.952 30.4609 20.7316 30.4609 17.9927C30.4609 15.2538 28.3712 13.0334 25.7933 13.0334C23.2154 13.0334 21.1257 15.2538 21.1257 17.9927Z" />
    <path fill-rule="evenodd" clip-rule="evenodd" d="M51.8926 18.0507C51.8926 22.7735 55.3115 25.9895 59.7445 25.9895C62.3789 25.9895 64.3006 24.9966 65.7241 23.4404C65.8835 23.2661 65.8624 22.9966 65.6858 22.8399L64.25 21.5658C64.0785 21.4137 63.8192 21.421 63.6488 21.5743C62.5278 22.5831 61.373 23.1211 59.8024 23.1211C57.5424 23.1211 55.7751 21.7304 55.3984 19.2387H66.238C66.4653 19.2387 66.6536 19.0642 66.6707 18.8375C66.6755 18.7741 66.6789 18.729 66.6789 18.729C66.6981 18.5398 66.6981 18.3797 66.6981 18.2536C66.6981 13.8496 64.2354 10.025 59.3678 10.025C54.9928 10.025 51.8926 13.6178 51.8926 17.9928V18.0507ZM55.4583 16.411H63.1488C62.7797 14.4006 61.4793 12.8934 59.3388 12.8934C57.3517 12.8934 55.9121 14.312 55.4583 16.411Z" />
</svg>