<svg xmlns="http://www.w3.org/2000/svg" width="14" height="14" viewBox="0 0 14 14" fill="none">
    <path d="M5.25 1.74935C5.25 1.42718 5.51117 1.16602 5.83333 1.16602H11.6667C11.9888 1.16602 12.25 1.42718 12.25 1.74935V8.74935C12.25 9.07152 11.9888 9.33268 11.6667 9.33268C11.3445 9.33268 11.0833 9.07152 11.0833 8.74935V2.33268H5.83333C5.51117 2.33268 5.25 2.07152 5.25 1.74935Z" fill="#1D1C23" fill-opacity="0.6"/>
    <path d="M2.91667 3.49935C2.27233 3.49935 1.75 4.02168 1.75 4.66602V11.666C1.75 12.3103 2.27233 12.8327 2.91667 12.8327H8.75C9.39433 12.8327 9.91667 12.3103 9.91667 11.666V4.66602C9.91667 4.02168 9.39433 3.49935 8.75 3.49935H2.91667ZM2.91667 4.66602H8.75V11.666H2.91667L2.91667 4.66602Z" fill="#1D1C23" fill-opacity="0.6"/>
</svg>
