<svg width="33" height="32" viewBox="0 0 33 32" fill="none" xmlns="http://www.w3.org/2000/svg">
  <g clip-path="url(#clip0_5443_161744)">
    <path
      d="M20.0428 12.8776C20.2729 12.8776 20.4999 12.8944 20.7246 12.9189C20.1123 10.0971 17.063 8 13.5828 8C9.69156 8 6.50391 10.6247 6.50391 13.9573C6.50391 15.8807 7.56465 17.4604 9.33655 18.6856L8.62866 20.7933L11.103 19.5651C11.989 19.7382 12.699 19.9168 13.5828 19.9168C13.8048 19.9168 14.0246 19.906 14.2434 19.8886C14.105 19.4207 14.0246 18.93 14.0246 18.4213C14.0247 15.3612 16.6803 12.8776 20.0428 12.8776ZM16.2374 10.9781C16.7704 10.9781 17.1233 11.3256 17.1233 11.8527C17.1233 12.3776 16.7704 12.7294 16.2374 12.7294C15.7064 12.7294 15.1744 12.3776 15.1744 11.8527C15.1744 11.3256 15.7064 10.9781 16.2374 10.9781ZM11.2832 12.7294C10.7523 12.7294 10.217 12.3776 10.217 11.8527C10.217 11.3255 10.7523 10.9781 11.2832 10.9781C11.8136 10.9781 12.167 11.3255 12.167 11.8527C12.167 12.3776 11.8136 12.7294 11.2832 12.7294ZM26.5039 18.3371C26.5039 15.5365 23.6718 13.2538 20.4912 13.2538C17.1233 13.2538 14.4709 15.5365 14.4709 18.3371C14.4709 21.1418 17.1233 23.4197 20.4912 23.4197C21.1958 23.4197 21.907 23.2448 22.6148 23.069L24.5567 24.121L24.0241 22.3708C25.4454 21.3155 26.5039 19.9168 26.5039 18.3371ZM18.5391 17.4604C18.1868 17.4604 17.8312 17.1135 17.8312 16.7596C17.8312 16.4105 18.1868 16.0593 18.5391 16.0593C19.0743 16.0593 19.425 16.4105 19.425 16.7596C19.425 17.1135 19.0743 17.4604 18.5391 17.4604ZM22.4324 17.4604C22.0829 17.4604 21.7295 17.1135 21.7295 16.7596C21.7295 16.4105 22.0829 16.0593 22.4324 16.0593C22.9634 16.0593 23.3184 16.4105 23.3184 16.7596C23.3184 17.1135 22.9634 17.4604 22.4324 17.4604Z"
      fill="#6B6B75" />
  </g>
  <defs>
    <clipPath id="clip0_5443_161744">
      <rect width="20" height="20" fill="white" transform="translate(6.50195 5.99976)" />
    </clipPath>
  </defs>
</svg>
