<svg width="14" height="14" viewBox="0 0 24 24" fill="none" xmlns="http://www.w3.org/2000/svg">
<path d="M5 1C3.89543 1 3 1.88795 3 2.99252V21.0085C3 22.1131 3.89186 23 4.99643 23H19.0016C20.1062 23 21 22.1046 21 21V7.74383C21 7.21345 20.7893 6.7048 20.4143 6.32973L15.6713 1.58591C15.2962 1.21076 14.7875 1 14.257 1H5ZM8 11H16C16.5523 11 17 11.4477 17 12C17 12.5523 16.5523 13 16 13H8C7.44772 13 7 12.5523 7 12C7 11.4477 7.44772 11 8 11ZM7 17C7 16.4477 7.44772 16 8 16H12C12.5523 16 13 16.4477 13 17C13 17.5523 12.5523 18 12 18H8C7.44772 18 7 17.5523 7 17Z" fill="currentColor"/>
</svg>
