<svg width="16" height="16" viewBox="0 0 16 16" fill="none" xmlns="http://www.w3.org/2000/svg">
<g clip-path="url(#clip0_48_222142)">
<path d="M0.667969 7.99984C0.667969 12.0498 3.9513 15.3332 8.00131 15.3332C12.0513 15.3332 15.3346 12.0498 15.3346 7.99984C15.3346 3.94984 12.0513 0.666504 8.00131 0.666504C3.9513 0.666504 0.667969 3.94984 0.667969 7.99984ZM10.5309 6.21689C10.7891 5.95869 11.209 5.96529 11.4671 6.22357C11.7252 6.48184 11.7318 6.90169 11.4735 7.15983C10.2156 8.41714 8.95657 9.67342 7.70032 10.9324C7.43963 11.1937 7.01632 11.1937 6.75556 10.9325C6.09911 10.2749 5.44164 9.6184 4.78446 8.96157C4.5266 8.70384 4.53426 8.28443 4.79192 8.02649C5.04959 7.76855 5.46896 7.76084 5.72677 8.01865L7.22797 9.51986L10.5309 6.21689Z" fill="#4D53E8"/>
</g>
<defs>
<clipPath id="clip0_48_222142">
<rect width="16" height="16" fill="white"/>
</clipPath>
</defs>
</svg>
