<svg width="14" height="14" viewBox="0 0 14 14" fill="currentColor" xmlns="http://www.w3.org/2000/svg">
  <g id="icon_quotation">
    <g id="Union">
      <path
        d="M4.0058 12.25C2.49534 12.25 1.16797 11.0141 1.16797 8.77133C1.16797 6.14692 3.00146 3.09859 4.97018 1.52561C5.18229 1.35614 5.4863 1.38961 5.67193 1.58773C5.90404 1.83546 5.85877 2.23557 5.60647 2.4627C4.19958 3.72917 2.50312 6.46162 2.60055 7.74517C2.72578 7.67887 3.3456 7.44396 4.23466 7.44396C5.51626 7.44396 6.47746 8.45093 6.47746 9.77831C6.47746 11.1514 5.37894 12.25 4.0058 12.25Z" />
      <path
        d="M10.363 12.25C8.85255 12.25 7.52518 11.0141 7.52518 8.77133C7.52518 6.14692 9.35867 3.09859 11.3274 1.52561C11.5395 1.35614 11.8435 1.38961 12.0291 1.58773C12.2612 1.83546 12.216 2.23557 11.9637 2.4627C10.5568 3.72917 8.86032 6.46162 8.95775 7.74517C9.08298 7.67887 9.7028 7.44396 10.5919 7.44396C11.8735 7.44396 12.8347 8.45093 12.8347 9.77831C12.8347 11.1514 11.7361 12.25 10.363 12.25Z" />
    </g>
  </g>
</svg>
