<svg width="14" height="14" viewBox="0 0 14 14" fill="currentColor" xmlns="http://www.w3.org/2000/svg">
  <g id="icon_strikethrough">
    <path id="Union"
      d="M3.20326 4.2148C3.22024 3.47941 3.50758 2.78608 4.0256 2.23485C4.67638 1.53733 5.66829 1.1665 6.89378 1.1665C8.14327 1.1665 9.09844 1.49848 9.73295 2.15172C9.96653 2.3804 10.24 2.71062 10.4676 3.08193C10.7263 3.50378 10.3565 3.97443 9.86169 3.97443C9.50805 3.97443 9.25564 3.71369 9.088 3.40231C9.03154 3.29744 8.96317 3.20122 8.87683 3.10093C8.44808 2.55815 7.76343 2.27328 6.90134 2.27328C5.49953 2.27328 4.47831 3.087 4.4514 4.2525C4.44001 4.74563 4.64832 5.17409 5.03199 5.44428H3.42735C3.26973 5.08173 3.19282 4.66695 3.20326 4.2148ZM8.39766 7.729H2.35551C2.05347 7.729 1.80863 7.50787 1.80861 7.20583C1.80859 6.90382 2.05342 6.63525 2.35544 6.63525H11.7619C12.0639 6.63525 12.3088 6.88989 12.3088 7.19192C12.3088 7.49395 12.0639 7.729 11.7619 7.729H10.33C10.6462 8.19945 10.8898 8.86892 10.875 9.51141C10.8277 11.5613 9.25747 12.8332 6.75049 12.8332C5.0735 12.8332 3.81734 12.2706 3.17513 11.2318C3.0633 11.0479 2.95383 10.8046 2.8568 10.537C2.70453 10.1169 3.04245 9.70165 3.48922 9.70165C3.82383 9.70165 4.09239 9.94461 4.21221 10.257C4.31182 10.5167 4.44555 10.7206 4.63989 10.9232C5.1095 11.424 5.86718 11.6843 6.83687 11.6843C8.49618 11.6843 9.57592 10.8739 9.60582 9.57889C9.62026 8.95339 9.45667 8.63962 9.08281 8.167C8.80696 7.81828 8.39766 7.729 8.39766 7.729Z" />
  </g>
</svg>
