<svg width="24" height="24" viewBox="0 0 24 24" fill="none" xmlns="http://www.w3.org/2000/svg">
    <path
        d="M12 21C16.9706 21 21 16.9706 21 12C21 7.02944 16.9706 3 12 3C7.02944 3 3 7.02944 3 12C3 16.9706 7.02944 21 12 21ZM12 23C5.92487 23 1 18.0751 1 12C1 5.92487 5.92487 1 12 1C18.0751 1 23 5.92487 23 12C23 18.0751 18.0751 23 12 23ZM10.84 14.2799L15.7923 9.32766C16.181 8.93899 16.8121 8.94469 17.2008 9.33336C17.5895 9.72204 17.5951 10.3531 17.2082 10.7435C15.3203 12.6482 13.4555 14.5851 11.5228 16.4435C11.1411 16.8105 10.5388 16.8105 10.1589 16.4417C9.14897 15.4612 8.16583 14.4505 7.17608 13.4491C6.7887 13.0571 6.7914 12.4249 7.18106 12.0352C7.57072 11.6456 8.20295 11.6429 8.59261 12.0326L10.84 14.2799Z"
        fill="currentColor" />
</svg>
