<svg width="24" height="24" viewBox="0 0 24 24" fill="none" xmlns="http://www.w3.org/2000/svg">
<path d="M8 10.25C8 9.83579 8.33579 9.5 8.75 9.5H11.75C12.1642 9.5 12.5 9.83579 12.5 10.25C12.5 10.6642 12.1642 11 11.75 11H8.75C8.33579 11 8 10.6642 8 10.25Z" fill="#1D1C23"/>
<path d="M8 13.25C8 12.8358 8.33579 12.5 8.75 12.5H14.75C15.1642 12.5 15.5 12.8358 15.5 13.25C15.5 13.6642 15.1642 14 14.75 14H8.75C8.33579 14 8 13.6642 8 13.25Z" fill="#1D1C23"/>
<path d="M4 6.5C4 5.67157 4.67157 5 5.5 5H18.5C19.3284 5 20 5.67157 20 6.5V16.5C20 17.3284 19.3284 18 18.5 18H8.28887C8.09804 18 7.90897 18.0364 7.73179 18.1073L5.85762 18.857C5.62138 18.9514 5.36509 19.0156 5.11895 18.9512C4.47506 18.7826 4 18.1968 4 17.5V6.5ZM5.5 6.5V17.5L7.73179 16.6073C7.90897 16.5364 8.09804 16.5 8.28887 16.5H18.5V6.5H5.5Z" fill="#1D1C23"/>
</svg>
