<svg width="33" height="32" viewBox="0 0 33 32" fill="none" xmlns="http://www.w3.org/2000/svg">
  <path
    d="M11.6153 9.1721C13.8069 10.9898 15.6869 13.0784 17.1199 15.5272L18.534 14.1294C19.2057 13.4712 20.0103 12.9511 20.8826 12.6125C20.4844 11.2661 19.837 10.15 18.9511 9.04479C18.8455 8.91206 18.683 8.8362 18.5123 8.8362L11.7372 8.8335C11.5584 8.8335 11.4799 9.05833 11.6153 9.1721Z"
    fill="#6B6B75" />
  <path d="M23.6426 17.8269L23.6507 17.8161L23.6802 17.7622C23.6695 17.781 23.656 17.8026 23.6426 17.8269Z"
    fill="#6B6B75" />
  <path
    d="M15.6973 18.1305C16.7267 18.5694 17.6477 18.9405 18.7421 19.2358C20.6844 19.7613 22.5264 18.9757 23.4367 17.2393L24.5365 15.045C24.783 14.5087 25.0945 14.0129 25.4711 13.5605C24.8101 13.3167 24.2629 13.1921 23.545 13.1921C21.9603 13.1921 20.4677 13.8016 19.3353 14.9123L17.6531 16.5729C17.0544 17.1607 16.3988 17.6835 15.6973 18.1305Z"
    fill="#6B6B75" />
  <path d="M23.8281 17.4793L23.836 17.4638L23.8411 17.4561C23.836 17.4612 23.8333 17.4716 23.8281 17.4793Z"
    fill="#6B6B75" />
  <path
    d="M7.85436 14.124C7.73245 14.0076 7.5293 14.0915 7.5293 14.2622L7.53199 20.8937C7.53199 21.0833 7.6241 21.2593 7.77851 21.3623C9.55556 22.5434 11.6279 23.1665 13.768 23.1665C15.805 23.1665 17.7907 22.5976 19.5082 21.5222C20.1556 21.1158 20.665 20.7583 21.2094 20.2327C20.3345 20.49 19.3727 20.5063 18.403 20.2435C14.3152 19.1328 10.8342 17.0037 7.85436 14.124Z"
    fill="#6B6B75" />
</svg>
