<svg xmlns="http://www.w3.org/2000/svg" width="16" height="16" viewBox="0 0 16 16" fill="none">
    <path
        d="M14.4641 8.90294C14.7938 8.72325 15 8.37794 15 7.99982C15 7.62169 14.7938 7.27794 14.4641 7.09825L2.50781 0.624816C2.18906 0.451378 1.8125 0.459191 1.5 0.645128C1.1875 0.831066 1 1.16075 1 1.52638L2.31915 6.67877L7.9277 7.49981C8.2492 7.49981 8.50895 7.72325 8.50895 7.99981C8.50895 8.27637 8.2492 8.49981 7.9277 8.49981C4.76696 8.96317 2.89819 9.23498 2.32138 9.31523L1 14.4733C1 14.8389 1.1875 15.1686 1.5 15.3561C1.8125 15.542 2.18906 15.5498 2.50781 15.3764L14.4641 8.90294Z"
        fill="currentColor" />
</svg>
