<svg width="16" height="16" viewBox="0 0 16 16" fill="none" xmlns="http://www.w3.org/2000/svg">
  <circle cx="1.99935" cy="8.00008" r="1.33333" fill="currentColor" />
  <path fill-rule="evenodd" clip-rule="evenodd"
    d="M2.66732 2.32414C2.66732 1.95595 2.36884 1.65747 2.00065 1.65747C1.63246 1.65747 1.33398 1.95595 1.33398 2.32414L1.33398 5.73706C1.54539 5.67488 1.76912 5.64152 2.00065 5.64152C2.23218 5.64152 2.45592 5.67488 2.66732 5.73706L2.66732 2.32414ZM2.66732 10.2631C2.45592 10.3253 2.23218 10.3586 2.00065 10.3586C1.76912 10.3586 1.54539 10.3253 1.33398 10.2631L1.33398 13.676C1.33398 14.0442 1.63246 14.3427 2.00065 14.3427C2.36884 14.3427 2.66732 14.0442 2.66732 13.676L2.66732 10.2631Z"
    fill="currentColor" />
  <path
    d="M5.66407 9.32791V9.00774L5.41418 8.80758L4.40039 7.99556L5.41418 7.18355L5.66407 6.98339V6.66322V3.00985C5.66407 2.64166 5.96255 2.34318 6.33074 2.34318H14.0007C14.3688 2.34318 14.6673 2.64166 14.6673 3.00985V13.0098C14.6673 13.378 14.3688 13.6765 14.0007 13.6765H6.33074C5.96255 13.6765 5.66407 13.378 5.66407 13.0098V9.32791Z"
    stroke="currentColor" stroke-width="1.33333" />
  <path d="M7.8457 6.82861H12.5697" stroke="currentColor" stroke-width="1.33333" stroke-linecap="round" />
  <path d="M7.8457 9.17139H10.5798" stroke="currentColor" stroke-width="1.33333" stroke-linecap="round" />
</svg>
