<svg width="20" height="20" viewBox="0 0 20 20" fill="none" xmlns="http://www.w3.org/2000/svg">
  <path
    d="M9.99909 3.07227L12.0348 6.22475C12.3699 6.74356 12.8851 7.12 13.4811 7.28152L17.1062 8.26384L14.7374 11.2169C14.354 11.6948 14.1595 12.2969 14.1908 12.9088L14.3839 16.6876L10.8988 15.3433C10.3198 15.1199 9.67838 15.1199 9.09934 15.3433L5.61428 16.6876L5.8074 12.9088C5.83868 12.2969 5.64416 11.6948 5.26079 11.2169L2.892 8.26384L6.51705 7.28152C7.11313 7.12 7.62833 6.74356 7.96335 6.22475L9.99909 3.07227ZM11.0492 1.6261C10.5568 0.863567 9.44142 0.863566 8.94901 1.6261L6.56324 5.32061C6.45156 5.49355 6.27983 5.61903 6.08114 5.67287L1.84184 6.82164C0.972293 7.05727 0.629998 8.10752 1.19371 8.81027L3.96071 12.2598C4.0885 12.4191 4.15333 12.6198 4.14291 12.8237L3.91703 17.2436C3.87083 18.1475 4.77082 18.7994 5.61528 18.4736L9.69917 16.8983C9.89219 16.8238 10.106 16.8238 10.299 16.8983L14.3829 18.4736C15.2274 18.7994 16.1273 18.1475 16.0812 17.2436L15.8553 12.8237C15.8449 12.6198 15.9097 12.4191 16.0375 12.2598L18.8045 8.81027C19.3682 8.10752 19.0259 7.05727 18.1563 6.82164L13.917 5.67287C13.7184 5.61903 13.5466 5.49355 13.4349 5.32061L11.0492 1.6261Z"
    fill="currentColor" />
</svg>
