<svg width="14" height="14" viewBox="0 0 14 14" fill="none" xmlns="http://www.w3.org/2000/svg">
<g id="icon_loading" clip-path="url(#clip0_6767_2065)">
<path id="Union" d="M6.9987 0.583008C3.45487 0.583008 0.582031 3.45585 0.582031 6.99967C0.582031 10.5435 3.45487 13.4163 6.9987 13.4163C10.5425 13.4163 13.4154 10.5435 13.4154 6.99967C13.4154 5.22776 12.6972 3.62359 11.536 2.4624C11.3082 2.2346 10.9388 2.23462 10.711 2.46243C10.4832 2.69023 10.4832 3.05958 10.711 3.28738L10.7147 3.29107C11.6626 4.24084 12.2487 5.55181 12.2487 6.99967C12.2487 9.89917 9.89819 12.2497 6.9987 12.2497C4.0992 12.2497 1.7487 9.89917 1.7487 6.99967C1.7487 4.1005 4.09867 1.7502 6.99772 1.74967C6.99805 1.74967 6.99837 1.74967 6.9987 1.74967C7.32087 1.74967 7.58204 1.48851 7.58204 1.16634C7.58204 0.844175 7.32086 0.583008 6.9987 0.583008C6.9987 0.583008 6.9987 0.583008 6.9987 0.583008Z" fill="#060709" fill-opacity="0.3"/>
</g>
<defs>
<clipPath id="clip0_6767_2065">
<rect width="14" height="14" fill="white"/>
</clipPath>
</defs>
</svg>
