<svg xmlns="http://www.w3.org/2000/svg" width="17" height="16" viewBox="0 0 17 16" fill="none">
    <path
        d="M9.0819 9.35881L10.8532 7.58747C11.1135 7.32717 11.5356 7.32732 11.7959 7.58762C12.0562 7.84792 12.0564 8.26997 11.7961 8.53032C11.5552 8.77129 11.3144 9.01229 11.0735 9.25328C10.3716 9.9557 9.66957 10.6581 8.96691 11.3599C8.70681 11.6196 8.2855 11.6196 8.0254 11.3599C7.32217 10.6576 6.61962 9.95457 5.91707 9.25158C5.67558 9.00995 5.4341 8.76831 5.19258 8.5267C4.93501 8.26903 4.94335 7.8498 5.20097 7.59218C5.45859 7.33456 5.87782 7.32622 6.13544 7.58385L7.74857 9.19697L7.74857 2.335C7.74857 1.96681 8.04705 1.66833 8.41524 1.66833C8.78342 1.66833 9.0819 1.96681 9.0819 2.335L9.0819 9.35881Z"
        fill="#1C1D23" />
    <path
        d="M14.5 9.66667C14.5 9.29848 14.2015 9 13.8333 9C13.4651 9 13.1667 9.29848 13.1667 9.66667V13.3333H3.83333V9.66667C3.83333 9.29848 3.53486 9 3.16667 9C2.79848 9 2.5 9.29848 2.5 9.66667V14C2.5 14.3682 2.79848 14.6667 3.16667 14.6667H13.8333C14.2015 14.6667 14.5 14.3682 14.5 14V9.66667Z"
        fill="#1C1D23" />
</svg>
