<svg xmlns="http://www.w3.org/2000/svg" width="14" height="14" viewBox="0 0 14 14" fill="none">
    <path
        d="M8.88113 5.02965H11.383C13.1237 5.02965 13.5236 6.56615 13.1237 7.71736L11.383 12.2994C11.236 12.8323 10.7463 13.2021 10.1872 13.2021H3.62763C3.30546 13.2021 3.0443 12.941 3.0443 12.6188C3.0443 10.2835 3.0443 7.94826 3.0443 5.61298C3.0443 5.29081 3.30546 5.02965 3.62763 5.02965H3.93534C4.02898 5.02968 4.12125 5.00717 4.20436 4.96402C4.28746 4.92087 4.35896 4.85834 4.4128 4.78173L6.83422 1.33686C6.99813 1.07611 7.44088 0.876023 7.91222 1.09098C8.61951 1.41298 9.46651 2.11619 9.46651 3.2814C9.46651 3.72065 9.27109 4.3034 8.88113 5.02965Z"
        fill="#4E40E5" />
    <path
        d="M2.16667 12.6139V5.57685C2.16667 5.28518 1.9395 5.00279 1.58333 4.99351C1.24731 4.98476 1 5.28518 1 5.57685V12.6139C1 12.9055 1.23242 13.1972 1.58333 13.1972C1.93424 13.1972 2.16667 12.9055 2.16667 12.6139Z"
        fill="#4E40E5" />
</svg>
