<svg width="24" height="24" viewBox="0 0 24 24" fill="none" xmlns="http://www.w3.org/2000/svg">
    <path fill-rule="evenodd" clip-rule="evenodd"
        d="M21.9044 2.10735C22.2949 2.49787 22.2949 3.13104 21.9044 3.52156L20.4315 4.99444C22.1014 7.33764 21.8853 10.6117 19.783 12.7139L18.3688 14.1282C17.9783 14.5187 17.3451 14.5187 16.9546 14.1282L9.88355 7.05709C9.49303 6.66657 9.49303 6.0334 9.88355 5.64288L11.2978 4.22867C13.4 2.12644 16.6741 1.91029 19.0173 3.58022L20.4902 2.10735C20.8807 1.71682 21.5138 1.71682 21.9044 2.10735ZM12.712 5.64288C14.2741 4.08078 16.8067 4.08078 18.3688 5.64288C19.9309 7.20498 19.9309 9.73764 18.3688 11.2997L17.6617 12.0068L12.0049 6.34999L12.712 5.64288Z"
        fill="currentColor" />
    <path fill-rule="evenodd" clip-rule="evenodd"
        d="M4.99248 20.4334C7.33569 22.1034 10.6098 21.8872 12.712 19.785L14.1262 18.3708C14.5167 17.9803 14.5167 17.3471 14.1262 16.9566L13.4191 16.2495L14.4798 15.1888C14.8703 14.7983 14.8703 14.1651 14.4798 13.7746C14.0893 13.3841 13.4561 13.3841 13.0656 13.7746L12.0049 14.8353L9.17648 12.0068L10.2371 10.9462C10.6277 10.5557 10.6277 9.92249 10.2371 9.53197C9.84661 9.14144 9.21345 9.14144 8.82292 9.53197L7.76226 10.5926L7.05515 9.88551C6.66462 9.49499 6.03146 9.49499 5.64093 9.88551L4.22672 11.2997C2.1245 13.4019 1.90835 16.676 3.57827 19.0192L2.10539 20.4921C1.71487 20.8826 1.71487 21.5158 2.10539 21.9063C2.49592 22.2968 3.12908 22.2968 3.51961 21.9063L4.99248 20.4334ZM5.64093 18.3708C7.20303 19.9329 9.73569 19.9329 11.2978 18.3708L12.0049 17.6637L7.05515 12.7139L7.05375 12.7125L6.34804 12.0068L5.64093 12.7139C4.07884 14.276 4.07884 16.8087 5.64093 18.3708Z"
        fill="currentColor" />
</svg>
