<svg width="16" height="16" viewBox="0 0 16 16" fill="none" xmlns="http://www.w3.org/2000/svg">
    <path d="M6 6H10.6667C11 6 11.3333 6.26562 11.3333 6.66667C11.3333 7 11.0755 7.33333 10.6667 7.33333H6.01302C5.59865 7.33333 5.33333 7 5.33333 6.66667C5.33333 6.26562 5.66667 6 6 6Z" fill="currentColor" fill-opacity="0.8"/>
    <path d="M6 8.66667H8.65885C9.07031 8.66667 9.33333 9 9.33333 9.33333C9.33333 9.66667 9.07031 10 8.66667 10H6C5.66667 10 5.33333 9.73452 5.33333 9.33333C5.33333 8.93215 5.66667 8.66667 6 8.66667Z" fill="currentColor" fill-opacity="0.8"/>
    <path d="M2.26088 13.8216L2.96384 12.8157C1.82857 11.649 1.10305 10.1017 1.01107 8.39141C1.00372 8.26184 1 8.13134 1 7.99999C1 4.134 4.22439 1 8.20189 1C8.22413 1 8.24635 1.0001 8.26854 1.00029C8.29012 1.0001 8.31171 1 8.33333 1C10.074 1 11.6663 1.63536 12.891 2.68682C13.8416 3.48016 14.5769 4.51039 15 5.68331C15.0145 5.72362 15.3333 7.04467 15.3333 8C15.3333 11.583 12.6413 14.5373 9.16957 14.9506L9.16791 14.9508C8.89425 14.9833 8.61574 15 8.33333 15L8.19835 14.9997C8.06267 14.9994 7.88169 14.9989 7.8441 14.9997C7.83953 14.9998 7.83708 15 7.83708 15H2.90299C2.27997 15 1.91082 14.3225 2.26088 13.8216ZM7.8408 13.6663C7.85765 13.6661 7.87817 13.666 7.89845 13.666C7.94025 13.6659 7.99549 13.6659 8.05174 13.666L8.33333 13.6667C11.4629 13.6667 14 11.1296 14 8C14 7.64226 13.9372 7.16581 13.8597 6.7338C13.8225 6.52651 13.785 6.34543 13.7563 6.21576C13.7435 6.1579 13.7328 6.11173 13.7251 6.07941C13.3818 5.15934 12.7962 4.3444 12.0367 3.71052L12.0295 3.70453L12.0224 3.69844C11.0304 2.8467 9.74349 2.33333 8.33333 2.33333C8.31574 2.33333 8.29817 2.33341 8.28063 2.33357L8.26871 2.33368L8.25679 2.33358C8.23852 2.33341 8.22021 2.33333 8.20189 2.33333C4.92478 2.33333 2.33333 4.90587 2.33333 7.99999C2.33333 8.10615 2.33634 8.21148 2.34226 8.31592L2.34248 8.3198C2.41624 9.69139 2.99725 10.9381 3.91943 11.8859L4.68819 12.6759L3.99581 13.6667H7.8143C7.82535 13.6664 7.83506 13.6663 7.8408 13.6663ZM13.7152 6.03915L13.716 6.04203C13.7116 6.02618 13.7109 6.02226 13.7152 6.03915Z" fill="currentColor" fill-opacity="0.8"/>
</svg>
