<svg width="16" height="16" viewBox="0 0 16 16" fill="none" xmlns="http://www.w3.org/2000/svg">
<g clip-path="url(#clip0_5795_188159)">
<path d="M6.41306 14.3965C6.09967 13.3744 5.62687 12.6125 4.99468 12.1107C4.04637 11.358 2.53962 11.8258 1.98305 11.0494C1.42647 10.273 2.37299 8.84528 2.70513 8.00283C3.03728 7.16042 1.43206 6.86253 1.61946 6.62337C1.74441 6.46393 2.55557 6.00384 4.05299 5.2431C4.47845 2.81671 6.05 1.60352 8.76767 1.60352C12.8441 1.60352 14.3972 5.05952 14.3972 7.25764C14.3972 9.45579 12.5166 11.8239 9.83777 12.3345C9.59823 12.6833 9.94373 13.3707 10.8742 14.3965" stroke="currentColor" stroke-width="1.2793" stroke-linecap="round" stroke-linejoin="round"/>
<path d="M6.56109 4.96215L5.94839 4.77846C5.946 4.78642 5.94377 4.79443 5.94169 4.80248L6.56109 4.96215ZM6.74761 6.66953L7.19611 6.21346L7.19609 6.21344L6.74761 6.66953ZM8.45173 7.3125L9.08189 7.42229C9.11191 7.24998 9.07006 7.07289 8.96608 6.93224C8.86209 6.79159 8.70505 6.69966 8.5315 6.67785L8.45173 7.3125ZM11.8382 7.3125L11.2025 7.24146L11.2025 7.24149L11.8382 7.3125ZM7.66241 4.16259L7.78418 4.79054L7.78421 4.79053L7.66241 4.16259ZM7.24967 10.1852C7.15861 10.5265 7.36149 10.877 7.70282 10.9681C8.04414 11.0592 8.39467 10.8563 8.48573 10.515L7.24967 10.1852ZM5.94169 4.80248C5.72097 5.6587 5.70582 6.54221 6.29914 7.12562L7.19609 6.21344C7.12283 6.1414 6.98333 5.88665 7.18049 5.12182L5.94169 4.80248ZM6.29911 7.1256C6.78253 7.60099 7.52126 7.84023 8.37196 7.94716L8.5315 6.67785C7.77662 6.58297 7.37927 6.39358 7.19611 6.21346L6.29911 7.1256ZM7.82158 7.20271C7.72868 7.73592 7.71253 8.32702 8.09566 8.7292C8.4806 9.13329 9.03778 9.09823 9.33772 9.06732L9.20657 7.79477C9.07119 7.80872 8.99665 7.80582 8.95972 7.79964C8.93084 7.7948 8.97394 7.79643 9.02193 7.84681C9.06879 7.896 9.05811 7.92655 9.04993 7.85967C9.04107 7.78736 9.04196 7.65149 9.08189 7.42229L7.82158 7.20271ZM9.97658 8.95434C10.5522 9.0342 11.1225 8.95899 11.586 8.69968C12.0641 8.43222 12.4078 7.97539 12.4739 7.38352L11.2025 7.24149C11.1865 7.38512 11.1142 7.49775 10.9614 7.58322C10.7941 7.67683 10.5187 7.738 10.1524 7.68718L9.97658 8.95434ZM12.4739 7.38354C12.55 6.70221 12.4054 6.0902 12.1997 5.64091C12.0974 5.41738 11.9721 5.21662 11.834 5.06033C11.7655 4.98285 11.6818 4.9025 11.583 4.83674C11.4951 4.77813 11.3333 4.6895 11.1226 4.6895V5.96879C10.973 5.96879 10.8832 5.90766 10.8739 5.9015C10.8539 5.88818 10.8557 5.8852 10.8754 5.90747C10.9136 5.95068 10.975 6.03888 11.0365 6.17329C11.1585 6.43987 11.2497 6.81954 11.2025 7.24146L12.4739 7.38354ZM11.1226 4.6895C11.0738 4.6895 11.0078 4.68797 10.9378 4.68195C10.8656 4.67573 10.8028 4.66585 10.756 4.65354C10.7008 4.63903 10.7115 4.63248 10.7479 4.66145C10.7704 4.67938 10.8072 4.71473 10.8381 4.77236C10.8707 4.83317 10.8865 4.89983 10.8865 4.96215H9.60716C9.60716 5.28043 9.76893 5.51725 9.95086 5.66215C10.1133 5.79155 10.2972 5.85567 10.4305 5.89074C10.7018 5.96211 10.9886 5.96879 11.1226 5.96879V4.6895ZM10.8865 4.96215C10.8865 4.61846 10.6926 4.37883 10.5267 4.2428C10.3635 4.10889 10.1696 4.02283 9.99784 3.96522C9.64861 3.8481 9.2257 3.79457 8.84246 3.79457V5.07386C9.12542 5.07386 9.40469 5.11562 9.59108 5.17813C9.68711 5.21033 9.71939 5.23517 9.71538 5.23188C9.70877 5.22646 9.60716 5.13716 9.60716 4.96215H10.8865ZM8.84246 3.79457C8.74768 3.79457 8.7646 3.77878 8.81766 3.80842C8.83589 3.8186 8.90215 3.87528 8.78001 3.7623C8.66468 3.65562 8.49905 3.5423 8.24562 3.49947C8.03276 3.46349 7.79819 3.48468 7.54061 3.53464L7.78421 4.79053C7.98402 4.75178 8.04238 4.76256 8.03245 4.76088C8.02014 4.7588 7.99269 4.7519 7.95967 4.73417C7.92802 4.71719 7.90983 4.70006 7.91131 4.70143C7.91384 4.70376 7.91749 4.70731 7.9308 4.72051C7.9416 4.73122 7.96133 4.75088 7.98359 4.77142C8.03164 4.81579 8.10042 4.87312 8.19369 4.92522C8.38752 5.03352 8.60415 5.07386 8.84246 5.07386V3.79457ZM7.54063 3.53464C6.81165 3.67601 6.16904 4.04245 5.94839 4.77846L7.1738 5.14583C7.20184 5.05229 7.29342 4.88571 7.78418 4.79054L7.54063 3.53464ZM10.1524 7.68718C9.44127 7.58853 8.86177 7.88825 8.46173 8.22481C8.06525 8.55837 7.78918 8.97087 7.64074 9.24795L8.76841 9.85207C8.86584 9.6702 9.04878 9.40274 9.28531 9.20375C9.51828 9.00775 9.74581 8.92233 9.97658 8.95434L10.1524 7.68718ZM7.64074 9.24795C7.50237 9.50624 7.40683 9.73271 7.34501 9.89758C7.31404 9.98018 7.29135 10.0478 7.27585 10.0968C7.2681 10.1214 7.26213 10.1413 7.25782 10.1562C7.25566 10.1636 7.25391 10.1698 7.25256 10.1746C7.25189 10.177 7.25131 10.1791 7.25083 10.1809C7.25059 10.1818 7.25037 10.1826 7.25018 10.1833C7.25008 10.1837 7.24999 10.184 7.24991 10.1843C7.24987 10.1845 7.24983 10.1846 7.24979 10.1848C7.24977 10.1848 7.24974 10.1849 7.24973 10.185C7.2497 10.1851 7.24967 10.1852 7.8677 10.3501C8.48573 10.515 8.48571 10.5151 8.48568 10.5152C8.48567 10.5152 8.48565 10.5153 8.48563 10.5154C8.4856 10.5155 8.48556 10.5156 8.48553 10.5157C8.48547 10.5159 8.48541 10.5162 8.48536 10.5163C8.48526 10.5167 8.48518 10.517 8.48512 10.5173C8.48499 10.5177 8.48496 10.5178 8.48501 10.5176C8.48511 10.5173 8.48556 10.5157 8.48637 10.5129C8.48799 10.5073 8.49106 10.497 8.49568 10.4824C8.50493 10.4531 8.52036 10.4068 8.54287 10.3467C8.58802 10.2263 8.66091 10.0527 8.76841 9.85207L7.64074 9.24795Z" fill="currentColor"/>
</g>
<defs>
<clipPath id="clip0_5795_188159">
<rect width="16" height="16" fill="white"/>
</clipPath>
</defs>
</svg>
