<svg xmlns="http://www.w3.org/2000/svg" width="112" height="112" viewBox="0 0 112 112" fill="none">
    <path d="M4.66667 18.6667C4.66667 13.5334 8.86667 9.33337 14 9.33337H98C103.133 9.33337 107.333 13.5334 107.333 18.6667V74.6667C107.333 79.8 103.133 84 98 84H60.6667V93.3334H74.6667C77.244 93.3334 79.3333 95.4227 79.3333 98C79.3333 100.577 77.244 102.667 74.6667 102.667H37.3333C34.756 102.667 32.6667 100.577 32.6667 98C32.6667 95.4227 34.756 93.3334 37.3333 93.3334H51.3333V84H14C8.86667 84 4.66667 79.8 4.66667 74.6667V18.6667ZM64.1826 27.6892V27.6954C63.0509 27.1711 61.7577 27.1163 60.5858 27.5431C59.4138 27.9699 58.4587 28.8435 57.9292 29.9727L45.5532 56.3798C45.293 56.937 45.1451 57.5401 45.1181 58.1545C45.0911 58.7689 45.1855 59.3826 45.3958 59.9605C45.6062 60.5384 45.9284 61.0691 46.344 61.5224C46.7597 61.9757 47.2606 62.3425 47.8181 62.6021C48.949 63.1268 50.2417 63.1825 51.4135 62.7569C52.5853 62.3314 53.5409 61.4591 54.0715 60.3309L66.4475 33.9239C66.7097 33.366 66.8591 32.7619 66.8871 32.1461C66.9151 31.5304 66.8212 30.9152 66.6107 30.3358C66.4002 29.7565 66.0774 29.2245 65.6607 28.7703C65.244 28.3161 64.7417 27.9487 64.1826 27.6892ZM24.491 48.739V48.7452L33.1897 57.3941C34.0724 58.2725 35.267 58.7657 36.5124 58.7657C37.7577 58.7657 38.9523 58.2725 39.835 57.3941C40.2698 56.96 40.6147 56.4445 40.8501 55.8771C41.0854 55.3096 41.2066 54.7013 41.2066 54.087C41.2066 53.4726 41.0854 52.8643 40.8501 52.2968C40.6147 51.7294 40.2698 51.2139 39.835 50.7799L34.1728 45.1487L39.835 39.5176C40.2696 39.0841 40.6144 38.5692 40.8497 38.0022C41.0849 37.4353 41.206 36.8275 41.206 36.2136C41.206 35.5998 41.0849 34.992 40.8497 34.4251C40.6144 33.8581 40.2696 33.3431 39.835 32.9096C38.9523 32.0312 37.7577 31.538 36.5124 31.538C35.267 31.538 34.0724 32.0312 33.1897 32.9096L24.491 41.5585C23.9648 41.9967 23.5419 42.5458 23.2525 43.1664C22.9632 43.787 22.8145 44.464 22.8173 45.1487C22.8145 45.8335 22.9632 46.5104 23.2525 47.1311C23.5419 47.7517 23.9648 48.3008 24.491 48.739ZM87.5097 48.739C88.0359 48.3008 88.4588 47.7517 88.7482 47.1311C89.0375 46.5104 89.1862 45.8335 89.1835 45.1487C89.1862 44.464 89.0375 43.787 88.7482 43.1664C88.4588 42.5458 88.0359 41.9967 87.5097 41.5585L78.811 32.9096C77.9283 32.0312 76.7337 31.538 75.4884 31.538C74.243 31.538 73.0484 32.0312 72.1657 32.9096C71.2893 33.7822 70.7951 34.9669 70.7916 36.2036C70.7881 37.4402 71.2756 38.6277 72.147 39.5052L72.1657 39.5176L77.8279 45.1487L72.1657 50.7799C71.7302 51.2135 71.3846 51.7288 71.1488 52.2963C70.9129 52.8639 70.7916 53.4724 70.7916 54.087C70.7916 54.7015 70.9129 55.31 71.1488 55.8776C71.3846 56.4451 71.7302 56.9605 72.1657 57.3941C73.0484 58.2725 74.243 58.7657 75.4884 58.7657C76.7337 58.7657 77.9283 58.2725 78.811 57.3941L87.5097 48.739Z" fill="#1D1C23" fill-opacity="0.35"/>
</svg>
