<svg xmlns="http://www.w3.org/2000/svg" width="16" height="16" viewBox="0 0 16 16" fill="none">
    <path d="M3.66659 7.83268C3.66659 8.47701 3.14425 8.99935 2.49992 8.99935C1.85559 8.99935 1.33325 8.47701 1.33325 7.83268C1.33325 7.18835 1.85559 6.66602 2.49992 6.66602C3.14425 6.66602 3.66659 7.18835 3.66659 7.83268Z" fill="#1C1D23" fill-opacity="0.8"/>
    <path d="M9.15018 7.83268C9.15018 8.47701 8.62784 8.99935 7.98351 8.99935C7.33918 8.99935 6.81684 8.47701 6.81684 7.83268C6.81684 7.18835 7.33918 6.66602 7.98351 6.66602C8.62784 6.66602 9.15018 7.18835 9.15018 7.83268Z" fill="#1C1D23" fill-opacity="0.8"/>
    <path d="M14.6666 7.83268C14.6666 8.47701 14.1443 8.99935 13.4999 8.99935C12.8556 8.99935 12.3333 8.47701 12.3333 7.83268C12.3333 7.18835 12.8556 6.66602 13.4999 6.66602C14.1443 6.66602 14.6666 7.18835 14.6666 7.83268Z" fill="#1C1D23" fill-opacity="0.8"/>
</svg>
