<svg width="16" height="16" viewBox="0 0 16 16" fill="none" xmlns="http://www.w3.org/2000/svg">
<path d="M5.80466 1.52925C6.06501 1.7896 6.06501 2.21171 5.80466 2.47206L3.60939 4.66732H9.66659C12.428 4.66732 14.6666 6.90589 14.6666 9.66732C14.6666 12.4287 12.428 14.6673 9.66659 14.6673H7.33325C6.96506 14.6673 6.66659 14.3688 6.66659 14.0007C6.66659 13.6325 6.96506 13.334 7.33325 13.334H9.66659C11.6916 13.334 13.3333 11.6924 13.3333 9.66732C13.3333 7.64227 11.6916 6.00065 9.66659 6.00065H3.60939L5.80466 8.19591C6.06501 8.45626 6.06501 8.87837 5.80466 9.13872C5.54431 9.39907 5.1222 9.39907 4.86185 9.13872L1.52851 5.80539C1.26816 5.54504 1.26816 5.12293 1.52851 4.86258L4.86185 1.52925C5.1222 1.2689 5.54431 1.2689 5.80466 1.52925Z" fill="#2B2F36"/>
</svg>
