<svg width="1em" height="1em" viewBox="0 0 24 24" fill="currentColor" xmlns="http://www.w3.org/2000/svg">
  <path fill-rule="evenodd" clip-rule="evenodd"
    d="M5 15V19H9V15H5ZM4 13C3.44772 13 3 13.4477 3 14V20C3 20.5523 3.44772 21 4 21H10C10.5523 21 11 20.5523 11 20V14C11 13.4477 10.5523 13 10 13H4Z" />
  <path fill-rule="evenodd" clip-rule="evenodd"
    d="M5 5V9H9V5H5ZM4 3C3.44772 3 3 3.44772 3 4V10C3 10.5523 3.44772 11 4 11H10C10.5523 11 11 10.5523 11 10V4C11 3.44772 10.5523 3 10 3H4Z" />
  <path fill-rule="evenodd" clip-rule="evenodd"
    d="M14.8787 7L17 9.12132L19.1214 7L17 4.87868L14.8787 7ZM12.7574 6.29289C12.3669 6.68342 12.3669 7.31658 12.7574 7.70711L16.2929 11.2426C16.6835 11.6332 17.3166 11.6332 17.7071 11.2426L21.2427 7.70711C21.6332 7.31658 21.6332 6.68342 21.2427 6.29289L17.7071 2.75736C17.3166 2.36684 16.6835 2.36684 16.2929 2.75736L12.7574 6.29289Z" />
  <path fill-rule="evenodd" clip-rule="evenodd"
    d="M15 15V19H19V15H15ZM14 13C13.4477 13 13 13.4477 13 14V20C13 20.5523 13.4477 21 14 21H20C20.5523 21 21 20.5523 21 20V14C21 13.4477 20.5523 13 20 13H14Z" />
</svg>
