<svg xmlns="http://www.w3.org/2000/svg" width="24" height="24" viewBox="0 0 24 24" fill="none">
  <path
    d="M11.119 5.79528L8.46198 8.45229C8.07153 8.84274 7.43844 8.84251 7.04799 8.45206C6.65754 8.06162 6.65731 7.42853 7.04769 7.03801C7.409 6.67656 7.77026 6.31507 8.13153 5.95357C9.18451 4.89995 10.2375 3.84632 11.2915 2.7937C11.6816 2.40405 12.3136 2.40405 12.7037 2.7937C13.7586 3.84717 14.8124 4.90164 15.8662 5.95612C16.2285 6.31858 16.5907 6.68103 16.953 7.04344C17.3393 7.42995 17.3268 8.05879 16.9404 8.44522C16.554 8.83165 15.9251 8.84416 15.5387 8.45773L13.119 6.03804L13.119 16.331C13.119 16.8833 12.6713 17.331 12.119 17.331C11.5667 17.331 11.119 16.8833 11.119 16.331L11.119 5.79528Z"
    fill="white" />
  <path
    d="M21 18.9999C21 18.4477 20.5523 17.9999 20 17.9999C19.4477 17.9999 19 18.4477 19 18.9999V19.9999H5V18.9999C5 18.4477 4.55228 17.9999 4 17.9999C3.44772 17.9999 3 18.4477 3 18.9999V20.9999C3 21.5522 3.44772 21.9999 4 21.9999H20C20.5523 21.9999 21 21.5522 21 20.9999V18.9999Z"
    fill="white" />
</svg>
