<svg xmlns="http://www.w3.org/2000/svg" width="10" height="10" viewBox="0 0 10 10" fill="currentColor">
  <path fill-rule="evenodd" clip-rule="evenodd"
    d="M2.5 0.625C1.80964 0.625 1.25 1.18464 1.25 1.875V8.125C1.25 8.81536 1.80964 9.375 2.5 9.375H7.5C8.19036 9.375 8.75 8.81536 8.75 8.125V1.875C8.75 1.18464 8.19036 0.625 7.5 0.625H2.5ZM2.08333 1.875C2.08333 1.64488 2.26988 1.45833 2.5 1.45833H7.5C7.73012 1.45833 7.91667 1.64488 7.91667 1.875V8.125C7.91667 8.35512 7.73012 8.54167 7.5 8.54167H2.5C2.26988 8.54167 2.08333 8.35512 2.08333 8.125V1.875ZM4.37467 6.87467C4.14456 6.87467 3.95801 7.06122 3.95801 7.29134C3.95801 7.52146 4.14456 7.70801 4.37467 7.70801H5.62467C5.85479 7.70801 6.04134 7.52146 6.04134 7.29134C6.04134 7.06122 5.85479 6.87467 5.62467 6.87467H4.37467Z"
    fill-opacity="0.96" />
</svg>
