<svg width="24" height="24" viewBox="0 0 24 24" fill="currentColor" xmlns="http://www.w3.org/2000/svg">
<path opacity="0.5" fill-rule="evenodd" clip-rule="evenodd" d="M11.9999 21.1666C17.0625 21.1666 21.1666 17.0626 21.1666 12C21.1666 6.93737 17.0625 2.83331 11.9999 2.83331C6.93731 2.83331 2.83325 6.93737 2.83325 12C2.83325 17.0626 6.93731 21.1666 11.9999 21.1666ZM15.3166 16.0731C14.7435 16.4811 14.0881 16.7654 13.392 16.9039C12.4221 17.0968 11.4168 16.9978 10.5032 16.6194C9.58954 16.2409 8.80864 15.6001 8.25924 14.7778C7.70983 13.9556 7.41658 12.9889 7.41658 12C7.41658 11.0111 7.70983 10.0444 8.25924 9.22213C8.80864 8.39989 9.58954 7.75902 10.5032 7.38058C11.4168 7.00215 12.4221 6.90313 13.392 7.09606C14.0881 7.23452 14.7435 7.51888 15.3166 7.9269C15.6915 8.19383 15.6883 8.72827 15.3629 9.0537C15.0374 9.37914 14.5131 9.36786 14.1175 9.13267C13.6195 8.83665 13.0379 8.66665 12.4166 8.66665C10.5756 8.66665 9.08325 10.159 9.08325 12C9.08325 13.8409 10.5756 15.3333 12.4166 15.3333C13.0379 15.3333 13.6195 15.1633 14.1175 14.8673C14.5131 14.6321 15.0374 14.6208 15.3629 14.9463C15.6883 15.2717 15.6915 15.8061 15.3166 16.0731Z" />
</svg>
