<svg width="16" height="16" viewBox="0 0 16 16" fill="none" xmlns="http://www.w3.org/2000/svg">
<g id="icon_refresh_outlined">
<path id="Union" d="M6.62028 2.84832C7.75433 2.54445 8.95695 2.62327 10.0416 3.07256C11.0041 3.47123 11.826 4.14182 12.4091 4.99823L10.3357 4.99823C9.96749 4.99823 9.66901 5.2967 9.66901 5.66489C9.66901 6.03308 9.96749 6.33156 10.3357 6.33156L14 6.33156C14.2269 6.33156 14.4279 6.21823 14.5484 6.04509C14.6234 5.93725 14.6673 5.80621 14.6673 5.66489V1.99992C14.6673 1.63173 14.3688 1.33325 14.0007 1.33325C13.6325 1.33325 13.334 1.63173 13.334 1.99992V3.99991C12.6198 3.04772 11.6605 2.29992 10.5519 1.84072C9.19602 1.27911 7.69275 1.18058 6.27519 1.56042C4.85763 1.94025 3.60502 2.77722 2.71163 3.94151C1.81823 5.10581 1.33398 6.53236 1.33398 7.99992C1.33398 9.46748 1.81823 10.894 2.71163 12.0583C3.60502 13.2226 4.85764 14.0596 6.27519 14.4394C7.69275 14.8193 9.19602 14.7207 10.5519 14.1591C11.9077 13.5975 13.0404 12.6042 13.7742 11.3333C13.9583 11.0144 13.849 10.6067 13.5301 10.4226C13.2113 10.2385 12.8035 10.3477 12.6195 10.6666C12.0324 11.6833 11.1263 12.478 10.0416 12.9273C8.95695 13.3766 7.75433 13.4554 6.62028 13.1515C5.48624 12.8477 4.48415 12.1781 3.76943 11.2466C3.05472 10.3152 2.66732 9.17397 2.66732 7.99992C2.66732 6.82587 3.05472 5.68463 3.76943 4.75319C4.48415 3.82176 5.48624 3.15218 6.62028 2.84832Z" fill="#1D1C23" fill-opacity="0.6" style="fill:#1D1C23;fill:color(display-p3 0.1137 0.1098 0.1373);fill-opacity:0.6;"/>
</g>
</svg>
