<svg width="40" height="40" viewBox="0 0 40 40" fill="none" xmlns="http://www.w3.org/2000/svg">
  <path
    d="M26.8047 13.3513C26.7989 13.34 26.7892 13.3311 26.7775 13.3263C25.4159 12.7016 23.9791 12.2562 22.5029 12.0011C22.4895 11.9986 22.4757 12.0004 22.4633 12.0062C22.451 12.0121 22.4408 12.0216 22.4343 12.0336C22.2386 12.3887 22.061 12.7534 21.9021 13.1265C20.3109 12.8849 18.6924 12.8849 17.1012 13.1265C16.9412 12.7525 16.7608 12.3877 16.5606 12.0336C16.5538 12.0219 16.5435 12.0125 16.5313 12.0068C16.519 12.001 16.5053 11.999 16.4919 12.0011C15.0156 12.2556 13.5787 12.7011 12.2173 13.3263C12.2057 13.3313 12.1958 13.3397 12.1892 13.3505C9.46671 17.4161 8.72092 21.3818 9.08678 25.2984C9.08781 25.308 9.09076 25.3173 9.09545 25.3257C9.10015 25.3342 9.10649 25.3416 9.1141 25.3475C10.6994 26.5213 12.4725 27.4172 14.3579 27.9971C14.3711 28.0011 14.3853 28.0009 14.3985 27.9966C14.4117 27.9923 14.4232 27.9841 14.4315 27.973C14.8365 27.422 15.1953 26.8386 15.5043 26.2286C15.5085 26.2203 15.511 26.2111 15.5114 26.2017C15.5119 26.1923 15.5103 26.183 15.5069 26.1742C15.5034 26.1655 15.4982 26.1576 15.4915 26.151C15.4848 26.1445 15.4767 26.1394 15.4679 26.1362C14.9021 25.9197 14.3543 25.6587 13.8298 25.3557C13.8202 25.3501 13.8122 25.3423 13.8065 25.3328C13.8007 25.3234 13.7973 25.3127 13.7967 25.3017C13.796 25.2906 13.7981 25.2796 13.8027 25.2696C13.8073 25.2595 13.8144 25.2508 13.8232 25.2441C13.9335 25.1616 14.042 25.0767 14.1485 24.9892C14.1578 24.9815 14.1691 24.9766 14.1811 24.975C14.1931 24.9733 14.2053 24.9751 14.2163 24.9801C17.6531 26.5485 21.3739 26.5485 24.7699 24.9801C24.781 24.9748 24.7933 24.9728 24.8055 24.9743C24.8177 24.9757 24.8292 24.9806 24.8387 24.9884C24.9452 25.0763 25.054 25.1616 25.1648 25.2441C25.1737 25.2507 25.1807 25.2594 25.1854 25.2694C25.1901 25.2794 25.1923 25.2904 25.1917 25.3015C25.1911 25.3125 25.1878 25.3232 25.1821 25.3327C25.1764 25.3422 25.1685 25.3501 25.159 25.3557C24.6356 25.6613 24.0874 25.9221 23.5201 26.1354C23.5113 26.1387 23.5033 26.1439 23.4966 26.1506C23.4899 26.1572 23.4847 26.1652 23.4814 26.174C23.478 26.1828 23.4765 26.1922 23.477 26.2016C23.4776 26.2111 23.4801 26.2203 23.4844 26.2286C23.7986 26.8352 24.1568 27.4179 24.5563 27.972C24.5644 27.9834 24.5759 27.9919 24.5891 27.9964C24.6023 28.0009 24.6166 28.0011 24.63 27.997C26.5187 27.4191 28.295 26.5231 29.8822 25.3475C29.8899 25.3419 29.8964 25.3347 29.9011 25.3263C29.9058 25.318 29.9087 25.3088 29.9095 25.2992C30.3475 20.7713 29.1762 16.8381 26.8047 13.3513ZM16.0176 22.9136C14.9828 22.9136 14.1303 21.9641 14.1303 20.7979C14.1303 19.6318 14.9663 18.6822 16.0176 18.6822C17.077 18.6822 17.9213 19.64 17.9048 20.7979C17.9048 21.9641 17.0687 22.9136 16.0176 22.9136ZM22.9954 22.9136C21.9608 22.9136 21.1082 21.9641 21.1082 20.7979C21.1082 19.6318 21.9442 18.6822 22.9954 18.6822C24.055 18.6822 24.8993 19.64 24.8827 20.7979C24.8827 21.9641 24.055 22.9136 22.9954 22.9136Z"
    fill="#6B6B75" fill-opacity="0.8" />
</svg>
