<svg width="25" height="25" viewBox="0 0 25 25" fill="none" xmlns="http://www.w3.org/2000/svg">
    <path
        d="M5.22754 4.72727C5.22754 4.32561 5.55315 4 5.95481 4H15.8418C16.8844 4 17.8843 4.39664 18.6216 5.10266C19.3588 5.80868 19.773 6.76624 19.773 7.76471V19.2727C19.773 19.6744 19.4474 20 19.0457 20H9.15874C8.11612 20 7.11621 19.6034 6.37896 18.8973C5.64172 18.1913 5.22754 17.2338 5.22754 16.2353V4.72727ZM8.68208 9.09091C8.68208 9.49257 9.0077 9.81818 9.40936 9.81818H15.5912C15.9928 9.81818 16.3184 9.49257 16.3184 9.09091C16.3184 8.68925 15.9928 8.36364 15.5912 8.36364H9.40936C9.0077 8.36364 8.68208 8.68925 8.68208 9.09091ZM8.68208 12C8.68208 12.4017 9.0077 12.7273 9.40936 12.7273H15.5912C15.9928 12.7273 16.3184 12.4017 16.3184 12C16.3184 11.5983 15.9928 11.2727 15.5912 11.2727H9.40936C9.0077 11.2727 8.68208 11.5983 8.68208 12ZM9.40936 14.1818C9.0077 14.1818 8.68208 14.5074 8.68208 14.9091C8.68208 15.3108 9.0077 15.6364 9.40936 15.6364H12.6821C13.0837 15.6364 13.4094 15.3108 13.4094 14.9091C13.4094 14.5074 13.0837 14.1818 12.6821 14.1818H9.40936Z"
        fill="currentColor" />
</svg>
