<svg width="24" height="24" viewBox="0 0 24 24" fill="none" xmlns="http://www.w3.org/2000/svg">
<path d="M2.75936 19.3166L3.74024 17.8796C2.15615 16.2129 1.14379 14.0025 1.01544 11.5592C1.00519 11.3741 1 11.1876 1 11C1 5.47715 5.49916 1 11.0491 1H11.2326C13.6614 1 15.8832 1.90766 17.592 3.40974C18.9185 4.54309 19.9445 6.01484 20.5349 7.69044C20.5522 7.73947 20.877 9.11417 20.9733 10.3639L19.0018 9.54242C18.9835 9.42412 18.964 9.30652 18.9438 9.19114C18.8919 8.89502 18.8395 8.63633 18.7995 8.45109C18.7817 8.36843 18.7667 8.30247 18.756 8.25629C18.2769 6.94191 17.4599 5.77771 16.4 4.87217L16.3801 4.85491C14.9959 3.63814 13.2002 2.90476 11.2326 2.90476H11.0491C6.47644 2.90476 2.86047 6.57981 2.86047 11C2.86047 11.1516 2.86466 11.3021 2.87293 11.4513L2.87323 11.4569C2.97615 13.4163 3.78686 15.1973 5.07362 16.5512L6.14631 17.6798L5.18019 19H9.5V21H3.65533C2.78601 21 2.27091 20.0322 2.75936 19.3166Z" fill="#32A247"/>
<path d="M7 8C7 7.44771 7.44772 7 8 7H13C13.5523 7 14 7.44771 14 8C14 8.55229 13.5523 9 13 9H8C7.44772 9 7 8.55229 7 8Z" fill="#32A247"/>
<path d="M7 12C7 11.4477 7.44772 11 8 11H10C10.5523 11 11 11.4477 11 12C11 12.5523 10.5523 13 10 13H8C7.44772 13 7 12.5523 7 12Z" fill="#32A247"/>
<path d="M19.1903 17.7301C20.7584 18.2753 22 19.7294 22 21.4375V22H20.3949V21.7386C20.3949 20.2952 19.0539 19.125 17.7119 19.125H15.7801C14.4382 19.125 13.1055 20.2952 13.1055 21.7386V22H11.5V21.4375C11.5 19.5987 12.9432 18.0543 14.6806 17.6212C13.9565 16.9799 13.5 16.0433 13.5 15C13.5 13.067 15.067 11.5 17 11.5C18.933 11.5 20.5 13.067 20.5 15C20.5 16.104 19.9889 17.0886 19.1903 17.7301ZM16.9998 13.1665C15.9873 13.1665 15.1665 13.9873 15.1665 14.9998C15.1665 16.0124 15.9873 16.8332 16.9998 16.8332C18.0124 16.8332 18.8332 16.0124 18.8332 14.9998C18.8332 13.9873 18.0124 13.1665 16.9998 13.1665Z" fill="#32A247"/>
</svg>
