<svg width="16" height="16" viewBox="0 0 16 16" fill="currentColor" xmlns="http://www.w3.org/2000/svg">
<g clip-path="url(#clip0_5025_2737)">
<path fill-rule="evenodd" clip-rule="evenodd" d="M8 12.2242C6.63839 12.2251 5.28058 11.9419 3.98481 11.3747C3.97637 11.3709 3.96698 11.3694 3.95771 11.3705C3.94844 11.3715 3.93968 11.3751 3.93245 11.3807C3.85124 11.4442 3.76839 11.5057 3.68396 11.5654C3.67722 11.5701 3.67182 11.5764 3.66825 11.5836C3.66468 11.5909 3.66303 11.5988 3.66347 11.6068C3.6639 11.6148 3.6664 11.6225 3.67075 11.6293C3.67509 11.6362 3.68114 11.6419 3.68837 11.646C4.08714 11.8667 4.50487 12.055 4.93708 12.2091C4.94379 12.2115 4.94989 12.2152 4.95497 12.22C4.96006 12.2248 4.96401 12.2306 4.96658 12.237C4.96915 12.2433 4.97027 12.2501 4.96988 12.2569C4.96949 12.2637 4.96758 12.2704 4.96429 12.2764C4.72491 12.7145 4.45194 13.1353 4.14758 13.5355C4.14141 13.5437 4.13266 13.5499 4.12259 13.5532C4.11251 13.5564 4.10162 13.5565 4.09145 13.5536C2.65241 13.1362 1.29908 12.4891 0.0897436 11.6401C0.0838554 11.636 0.0789531 11.6308 0.075363 11.6247C0.071773 11.6187 0.0695791 11.6121 0.0689272 11.6052C-0.264788 8.33497 0.627625 5.49432 2.43449 2.97609C2.43894 2.96793 2.4463 2.96153 2.45528 2.95804C3.49265 2.50687 4.58737 2.18515 5.71205 2.00093C5.72227 1.99913 5.73283 2.00043 5.74222 2.00465C5.75161 2.00886 5.75937 2.01577 5.76438 2.02441C5.91344 2.28087 6.04876 2.5443 6.16982 2.8137C6.77641 2.72641 7.3882 2.6828 8 2.68286C8.6118 2.6828 9.2236 2.72641 9.83018 2.81369C9.95124 2.5443 10.0866 2.28087 10.2356 2.02441C10.2406 2.01577 10.2484 2.00886 10.2578 2.00465C10.2672 2.00043 10.2777 1.99913 10.2879 2.00093C11.4126 2.18515 12.5074 2.50687 13.5447 2.95804C13.5537 2.96152 13.5611 2.96792 13.5655 2.97609C15.3724 5.49431 16.2648 8.33494 15.9311 11.6052C15.9304 11.612 15.9282 11.6187 15.9246 11.6247C15.921 11.6307 15.9161 11.6359 15.9103 11.64C14.7009 12.489 13.3476 13.1362 11.9086 13.5536C11.8984 13.5565 11.8875 13.5564 11.8774 13.5531C11.8673 13.5499 11.8586 13.5437 11.8524 13.5355C11.5481 13.1353 11.2751 12.7145 11.0357 12.2764C11.0324 12.2703 11.0305 12.2637 11.0301 12.2569C11.0297 12.2501 11.0309 12.2433 11.0334 12.2369C11.036 12.2306 11.0399 12.2248 11.045 12.22C11.0501 12.2152 11.0562 12.2115 11.0629 12.209C11.4951 12.055 11.9129 11.8666 12.3116 11.646C12.3189 11.6419 12.3249 11.6361 12.3293 11.6293C12.3336 11.6225 12.3361 11.6147 12.3365 11.6068C12.337 11.5988 12.3353 11.5908 12.3317 11.5836C12.3282 11.5764 12.3228 11.5701 12.316 11.5653C12.2316 11.5057 12.1488 11.4441 12.0675 11.3806C12.0603 11.375 12.0516 11.3715 12.0423 11.3704C12.033 11.3694 12.0236 11.3708 12.0152 11.3746C10.7194 11.9419 9.36161 12.2251 8 12.2242ZM6.22224 7.77819C6.22224 8.51457 5.62529 9.11152 4.88891 9.11152C4.15253 9.11152 3.55558 8.51457 3.55558 7.77819C3.55558 7.04181 4.15253 6.44486 4.88891 6.44486C5.62529 6.44486 6.22224 7.04181 6.22224 7.77819ZM12.4444 7.77827C12.4444 8.51465 11.8474 9.1116 11.1111 9.1116C10.3747 9.1116 9.77774 8.51465 9.77774 7.77827C9.77774 7.04189 10.3747 6.44493 11.1111 6.44493C11.8474 6.44493 12.4444 7.04189 12.4444 7.77827Z" fill="#1D1C23"/>
</g>
<defs>
<clipPath id="clip0_5025_2737">
<rect width="16" height="16" fill="white"/>
</clipPath>
</defs>
</svg>
