<svg width="24" height="24" viewBox="0 0 24 24" fill="none" xmlns="http://www.w3.org/2000/svg">
  <path
    d="M20.4621 21.5861C20.462 22.192 20.2213 22.7731 19.7928 23.2015C19.3643 23.6299 18.7832 23.8706 18.1773 23.8705C17.5714 23.8705 16.9903 23.6297 16.5619 23.2012C16.1335 22.7727 15.8928 22.1916 15.8929 21.5857L15.8927 19.6236C14.2005 18.7828 13.0379 17.0361 13.0372 15.0179C13.0372 12.9986 14.2014 11.2517 15.8949 10.4111C16.0035 10.357 16.1417 10.2997 16.3084 10.2391C16.3902 10.2093 16.478 10.1997 16.5643 10.211C16.6506 10.2224 16.7329 10.2543 16.8042 10.3043C16.8755 10.3542 16.9338 10.4205 16.974 10.4977C17.0142 10.5749 17.0352 10.6607 17.0352 10.7477L17.0352 13.0188C17.0352 13.6497 17.5466 14.1611 18.1775 14.1611C18.8083 14.1611 19.3198 13.6497 19.3198 13.0188V10.7918C19.3198 10.6996 19.3421 10.6088 19.3848 10.5271C19.4276 10.4454 19.4894 10.3753 19.5651 10.3227C19.6408 10.2702 19.7282 10.2367 19.8196 10.2252C19.9111 10.2137 20.0039 10.2245 20.0903 10.2567C20.2547 10.3176 20.3906 10.3756 20.4984 10.4305C22.1714 11.2784 23.3177 13.0144 23.3177 15.0179C23.3175 17.0361 22.1544 18.7828 20.4621 19.6238V21.5861Z"
    fill="currentColor" />
  <path
    d="M11.6984 11.9403H6.42549C3.24716 11.9403 0.672852 14.5112 0.672852 17.6821V19.1509C0.672852 20.2055 1.53575 21.0684 2.5904 21.0684H14.1139C12.1962 19.7993 10.9314 17.623 10.9314 15.1512C10.9314 13.9954 11.2079 12.9043 11.6984 11.9403Z"
    fill="currentColor" />
  <path
    d="M4.0002 6C4.0002 8.7615 6.2402 11 9.0002 11C11.7602 11 14.0002 8.7615 14.0002 6C14.0002 3.2385 11.7602 1 9.0002 1C6.2402 1 4.0002 3.2385 4.0002 6Z"
    fill="currentColor" />
</svg>
