<svg width="16" height="16" viewBox="0 0 16 16" fill="none" xmlns="http://www.w3.org/2000/svg">
<g id="icon_group_outlined">
<path id="Union" d="M2.43109 4.85484C2.43109 3.12564 3.83296 1.72412 5.56181 1.72412C7.29066 1.72412 8.69252 3.12564 8.69252 4.85484C8.69252 6.58403 7.29066 7.98555 5.56181 7.98555C3.83296 7.98555 2.43109 6.58403 2.43109 4.85484ZM-0.00390625 12.4381C-0.00390625 10.3632 1.65885 8.68127 3.70773 8.68127H7.41589C9.46477 8.68127 11.1275 10.3632 11.1275 12.4381V13.5513C11.1275 14.3166 10.5014 14.9427 9.7361 14.9427H1.38752C0.622237 14.9427 -0.00390625 14.3166 -0.00390625 13.5513V12.4381ZM15.3018 14.247H12.425V13.9624V12.8556V12.4381C12.425 11.741 12.425 12.2352 12.425 11.6469L12.3033 11.1163C12.1711 10.6021 11.9346 10.1304 11.618 9.72484H13.2147C14.7522 9.72484 15.9975 10.9396 15.9975 12.4381L15.9975 13.5513C16.0148 13.9237 15.6562 14.2602 15.3018 14.247ZM11.8232 4.50698C10.6718 4.50698 9.7361 5.44132 9.7361 6.59412C9.7361 7.74692 10.6718 8.68127 11.8232 8.68127C12.9746 8.68127 13.9104 7.74692 13.9104 6.59412C13.9104 5.44132 12.9746 4.50698 11.8232 4.50698Z" fill="currentColor"/>
</g>
</svg>
