<svg width="20" height="20" viewBox="0 0 14 14" fill="none" xmlns="http://www.w3.org/2000/svg">
  <path
    d="M7.00004 13.4166C10.5439 13.4166 13.4167 10.5437 13.4167 6.99992C13.4167 3.45609 10.5439 0.583252 7.00004 0.583252C3.45621 0.583252 0.583374 3.45609 0.583374 6.99992C0.583374 10.5437 3.45621 13.4166 7.00004 13.4166Z"
    fill="currentColor" />
  <path
    d="M6.99996 4.08325C6.67779 4.08325 6.41663 4.34442 6.41663 4.66659V7.58325C6.41663 7.90542 6.67779 8.16659 6.99996 8.16659C7.32213 8.16659 7.58329 7.90542 7.58329 7.58325V4.66659C7.58329 4.34442 7.32213 4.08325 6.99996 4.08325Z"
    fill="white" />
  <path
    d="M6.99996 9.91659C7.32213 9.91659 7.58329 9.65542 7.58329 9.33325C7.58329 9.01109 7.32213 8.74992 6.99996 8.74992C6.67779 8.74992 6.41663 9.01109 6.41663 9.33325C6.41663 9.65542 6.67779 9.91659 6.99996 9.91659Z"
    fill="white" />
</svg>
