<svg xmlns="http://www.w3.org/2000/svg" width="24" height="24" viewBox="0 0 24 24" fill="none">
  <path
    d="M5 16.9999L11.6218 21.7823C12.6138 22.4988 14 21.79 14 20.5663V3.43357C14 2.20992 12.6138 1.50111 11.6218 2.21755L5 6.99994V16.9999ZM7 8.02256L12 4.41145V19.5884L7 15.9773V8.02256Z"
    fill="rgba(6, 7, 9, 0.5)" />
  <path d="M1 8C1 7.44772 1.44772 7 2 7H3V17H2C1.44772 17 1 16.5523 1 16V8Z" fill="rgba(6, 7, 9, 0.5)" />
  <path
    d="M16.207 15.4247C15.8164 15.0342 15.8164 14.401 16.207 14.0105L18.1944 12.0231L16.2927 10.1214C15.9022 9.73089 15.9022 9.09773 16.2927 8.7072C16.6833 8.31668 17.3164 8.31668 17.707 8.7072L19.6086 10.6089L21.5103 8.7072C21.9008 8.31668 22.5339 8.31668 22.9245 8.7072C23.315 9.09772 23.315 9.73089 22.9245 10.1214L21.0228 12.0231L23.0103 14.0105C23.4008 14.401 23.4008 15.0342 23.0103 15.4247C22.6197 15.8152 21.9866 15.8152 21.596 15.4247L19.6086 13.4373L17.6212 15.4247C17.2306 15.8152 16.5975 15.8152 16.207 15.4247Z"
    fill="rgba(6, 7, 9, 0.5)" />
</svg>
