<svg xmlns="http://www.w3.org/2000/svg" width="18" height="18" viewBox="0 0 18 18" fill="none">
  <path
    d="M7.93936 9L6.34837 7.40901C6.05547 7.11612 6.05547 6.64124 6.34837 6.34835C6.64126 6.05546 7.11613 6.05546 7.40903 6.34835L9.00002 7.93934L10.591 6.34835C10.8839 6.05546 11.3588 6.05546 11.6517 6.34835C11.9446 6.64124 11.9446 7.11612 11.6517 7.40901L10.0607 9L11.6517 10.591C11.9446 10.8839 11.9446 11.3588 11.6517 11.6517C11.3588 11.9445 10.8839 11.9445 10.591 11.6517L9.00002 10.0607L7.40903 11.6517C7.11613 11.9445 6.64126 11.9445 6.34837 11.6517C6.05547 11.3588 6.05547 10.8839 6.34837 10.591L7.93936 9Z"
    fill="white" />
  <path
    d="M0.75 9C0.75 13.5563 4.44365 17.25 9 17.25C13.5563 17.25 17.25 13.5563 17.25 9C17.25 4.44365 13.5563 0.75 9 0.75C4.44365 0.75 0.75 4.44365 0.75 9ZM15.75 9C15.75 12.7279 12.7279 15.75 9 15.75C5.27208 15.75 2.25 12.7279 2.25 9C2.25 5.27208 5.27208 2.25 9 2.25C12.7279 2.25 15.75 5.27208 15.75 9Z"
    fill="white" />
</svg>
