<svg width="16" height="16" viewBox="0 0 16 16" fill="none" xmlns="http://www.w3.org/2000/svg">
<circle cx="8.00016" cy="7.99992" r="6" stroke="currentColor" stroke-opacity="0.8" stroke-width="1.33333"/>
<path d="M8.01966 5.46378C8.32905 5.46378 8.55636 5.5451 8.71169 5.69971C8.86157 5.85856 8.94993 6.07979 8.94993 6.37458C8.94993 6.58636 8.87443 6.79314 8.71531 6.98803L8.60464 7.11715C8.28935 7.39871 8.03493 7.64333 7.84252 7.85178C7.65127 8.05896 7.5148 8.23723 7.44317 8.38522C7.37615 8.51491 7.3303 8.65784 7.3 8.80904C7.21851 9.21565 7.57199 9.52895 7.94736 9.52895C8.32258 9.52895 8.57773 9.21715 8.68911 8.91593C8.70178 8.88167 8.7162 8.84822 8.73251 8.8156C8.81272 8.6552 8.92886 8.50296 9.09122 8.36766L9.09343 8.36573C9.55936 7.95805 9.84796 7.68993 9.94149 7.586L9.94513 7.58195L9.9484 7.5776C10.2005 7.24141 10.3332 6.8152 10.3332 6.30639C10.3332 5.68313 10.1274 5.18014 9.70776 4.81259C9.29024 4.43715 8.74227 4.26562 8.08784 4.26562C7.34299 4.26562 6.74499 4.47772 6.29857 4.91348C5.96571 5.23142 5.76161 5.63648 5.67572 6.12209C5.60639 6.51402 5.93933 6.8178 6.30522 6.8178C6.68624 6.8178 6.95493 6.50615 7.03909 6.17554C7.0762 6.0298 7.13098 5.90991 7.20199 5.81384L7.20475 5.80977C7.35959 5.58159 7.61572 5.46378 8.01966 5.46378Z" fill="currentColor" fill-opacity="0.8"/>
<path d="M8.79408 10.8718C8.79408 10.6248 8.70306 10.4186 8.54411 10.2597L8.54109 10.2568C8.37016 10.0972 8.15441 10.0194 7.9125 10.0194C7.66898 10.0194 7.46349 10.0983 7.29366 10.2568C7.11948 10.4193 7.04068 10.6287 7.04068 10.8718C7.04068 11.1149 7.11948 11.3243 7.29366 11.4868C7.46045 11.6425 7.66488 11.7339 7.9125 11.7339C8.15603 11.7339 8.36152 11.6551 8.53135 11.4966C8.70382 11.3356 8.79408 11.1175 8.79408 10.8718Z" fill="currentColor" fill-opacity="0.8"/>
</svg>
