<svg xmlns="http://www.w3.org/2000/svg" width="15" height="14" viewBox="0 0 15 14" fill="none">
    <path
        d="M12.8073 1.16675C13.1295 1.16675 13.3906 1.42792 13.3906 1.75008V8.75008C13.3906 9.07225 13.1295 9.33342 12.8073 9.33342C12.4851 9.33342 12.224 9.07225 12.224 8.75008V1.75008C12.224 1.42792 12.4851 1.16675 12.8073 1.16675Z"
        fill="#060709" fill-opacity="0.5" />
    <path
        d="M2.97371 9.37133H5.48557C5.09387 10.1003 4.89802 10.6854 4.89802 11.1265C4.89802 12.2962 5.74814 13.0021 6.45827 13.3255C6.9317 13.5411 7.37589 13.3404 7.54044 13.0786L9.97158 9.62017C10.0812 9.46417 10.26 9.37133 10.4507 9.37133H11.0524C11.2142 9.37133 11.3453 9.24023 11.3453 9.07852V1.45956C11.3453 1.29784 11.2142 1.16675 11.0524 1.16675H4.17431C3.61312 1.16675 3.12137 1.53793 2.97371 2.07297L1.22627 6.6731C0.824929 7.82888 1.22627 9.37133 2.97371 9.37133Z"
        fill="#060709" fill-opacity="0.5" />
</svg>
