<svg width="14" height="14" viewBox="0 0 14 14" fill="none" xmlns="http://www.w3.org/2000/svg">
<g id="icon_hn">
<g id="Union">
<path d="M1.16536 1.75C0.843198 1.75 0.582031 2.01117 0.582031 2.33333V11.6667C0.582031 11.9888 0.843198 12.25 1.16536 12.25C1.48753 12.25 1.7487 11.9888 1.7487 11.6667V7.58333H6.9987V11.6667C6.9987 11.9888 7.25986 12.25 7.58203 12.25C7.9042 12.25 8.16536 11.9888 8.16536 11.6667V2.33333C8.16536 2.01117 7.9042 1.75 7.58203 1.75C7.25986 1.75 6.9987 2.01117 6.9987 2.33333V6.41667H1.7487V2.33333C1.7487 2.01117 1.48753 1.75 1.16536 1.75Z" fill="#060709" fill-opacity="0.5"/>
<path d="M9.33203 7C9.33203 6.67783 9.5932 6.41667 9.91536 6.41667C10.2023 6.41667 10.4409 6.62386 10.4896 6.8968C10.7925 6.71332 11.1402 6.59458 11.5145 6.56055C12.6919 6.45352 13.707 7.38056 13.707 8.5628V11.6667C13.707 11.9888 13.4459 12.25 13.1237 12.25C12.8015 12.25 12.5404 11.9888 12.5404 11.6667V8.5628C12.5404 8.0666 12.1143 7.6775 11.6201 7.72243C10.985 7.78017 10.4987 8.31268 10.4987 8.95043V11.6667C10.4987 11.9888 10.2375 12.25 9.91536 12.25C9.5932 12.25 9.33203 11.9888 9.33203 11.6667V7Z" fill="#060709" fill-opacity="0.5"/>
</g>
</g>
</svg>
