<svg width="25" height="24" viewBox="0 0 25 24" fill="none" xmlns="http://www.w3.org/2000/svg">
<path d="M21.5 9V20C21.5 21.1046 20.6046 22 19.5 22H5.5C4.39543 22 3.5 21.1046 3.5 20V9C2.39543 9 1.5 8.10457 1.5 7V4C1.5 2.89543 2.39543 2 3.5 2H21.5C22.6046 2 23.5 2.89543 23.5 4V7C23.5 8.10457 22.6046 9 21.5 9ZM19.5 9H5.5V20H19.5V9ZM3.5 7H21.5V4H3.5V7ZM8.5 12C8.5 11.4477 8.94772 11 9.5 11H15.5C16.0523 11 16.5 11.4477 16.5 12C16.5 12.5523 16.0523 13 15.5 13H9.5C8.94772 13 8.5 12.5523 8.5 12Z" fill="#1D1C23" fill-opacity="0.35"/>
</svg>
