<svg width="24" height="24" viewBox="0 0 24 24" fill="none" xmlns="http://www.w3.org/2000/svg">
  <path fill-rule="evenodd" clip-rule="evenodd"
    d="M12 23C18.0751 23 23 18.0751 23 12C23 5.92487 18.0751 1 12 1C5.92487 1 1 5.92487 1 12C1 18.0751 5.92487 23 12 23ZM17.4975 10.1534C17.888 9.76287 17.888 9.12971 17.4975 8.73918C17.107 8.34866 16.4738 8.34866 16.0833 8.73918L11.0273 13.7952L8.70412 11.4724C8.31356 11.0819 7.6804 11.082 7.28991 11.4725C6.89941 11.8631 6.89946 12.4962 7.29002 12.8867L10.3203 15.9165C10.7108 16.307 11.3439 16.307 11.7345 15.9165L17.4975 10.1534Z"
    fill="currentColor" />
</svg>
