<svg xmlns="http://www.w3.org/2000/svg" width="20" height="20" viewBox="0 0 20 20" fill="none">
    <g clip-path="url(#clip0_574_37040)">
        <path d="M0.833374 10.0007C0.833374 15.0638 4.93689 19.1673 10 19.1673C15.0632 19.1673 19.1667 15.0638 19.1667 10.0007C19.1667 4.9375 15.0632 0.833984 10 0.833984C4.93689 0.833984 0.833374 4.9375 0.833374 10.0007Z" fill="#3EC254"/>
        <path d="M6.07745 9.7554C5.75201 10.0808 5.75201 10.6085 6.07745 10.9339L8.43447 13.2909C8.75991 13.6164 9.28755 13.6164 9.61299 13.2909L14.327 8.57689C14.6525 8.25145 14.6525 7.72381 14.327 7.39837C14.0016 7.07294 13.474 7.07294 13.1485 7.39837L9.02373 11.5232L7.25596 9.7554C6.93053 9.42996 6.40289 9.42996 6.07745 9.7554Z" fill="white"/>
    </g>
    <defs>
        <clipPath id="clip0_574_37040">
            <rect width="20" height="20" fill="white"/>
        </clipPath>
    </defs>
</svg>
