<svg xmlns="http://www.w3.org/2000/svg" width="14" height="14" viewBox="0 0 14 14" fill="none">
    <path
        d="M12.2502 1.75C12.8945 1.75 13.4168 2.27233 13.4168 2.91667V11.0833C13.4168 11.7277 12.8945 12.25 12.2502 12.25H1.75016C1.10583 12.25 0.583496 11.7277 0.583496 11.0833V2.91667C0.583496 2.27233 1.10583 1.75 1.75016 1.75H12.2502ZM1.75016 2.91667V11.0833H12.2502V2.91667H1.75016ZM2.91683 7C2.91683 6.67783 3.178 6.41667 3.50016 6.41667H5.25016C5.57233 6.41667 5.8335 6.67783 5.8335 7C5.8335 7.32217 5.57233 7.58333 5.25016 7.58333H3.50016C3.178 7.58333 2.91683 7.32217 2.91683 7ZM2.91683 9.33333C2.91683 9.01117 3.178 8.75 3.50016 8.75H7.00016C7.32233 8.75 7.5835 9.01117 7.5835 9.33333C7.5835 9.6555 7.32233 9.91667 7.00016 9.91667L3.50016 9.91667C3.178 9.91667 2.91683 9.6555 2.91683 9.33333ZM10.5002 4.08333C10.8223 4.08333 11.0835 4.3445 11.0835 4.66667V7C11.0835 7.32217 10.8223 7.58333 10.5002 7.58333H8.16683C7.84466 7.58333 7.5835 7.32217 7.5835 7V4.66667C7.5835 4.3445 7.84466 4.08333 8.16683 4.08333H10.5002ZM8.75016 5.25V6.41667H9.91683V5.25H8.75016Z"
        fill="currentColor" />
</svg>
