<svg width="49" height="48" viewBox="0 0 49 48" fill="none" xmlns="http://www.w3.org/2000/svg">
<path d="M2.5 24C2.5 36.15 12.35 46 24.5 46C36.65 46 46.5 36.15 46.5 24C46.5 11.85 36.65 2 24.5 2C12.35 2 2.5 11.85 2.5 24ZM32.0889 18.6512C32.8635 17.8765 34.123 17.8964 34.8974 18.6712C35.6718 19.446 35.6915 20.7056 34.9167 21.48C31.1429 25.2519 27.3658 29.0208 23.597 32.7978C22.815 33.5816 21.545 33.5816 20.7628 32.798C18.7934 30.8253 16.821 28.8557 14.8495 26.8852C14.0759 26.112 14.0989 24.8538 14.8719 24.08C15.6449 23.3061 16.903 23.283 17.6764 24.0564L22.18 28.5601L32.0889 18.6512Z" fill="#1D1C23" fill-opacity="0.35"/>
</svg>
