<svg width="16" height="16" viewBox="0 0 16 16" fill="none" xmlns="http://www.w3.org/2000/svg">
<path fill-rule="evenodd" clip-rule="evenodd" d="M5.33447 2.66634C5.33447 1.92996 5.93142 1.33301 6.6678 1.33301H9.33447C10.0708 1.33301 10.6678 1.92996 10.6678 2.66634L14 2.66634C14.3682 2.66634 14.6667 2.96482 14.6667 3.33301C14.6667 3.7012 14.3682 3.99968 14 3.99968H13.3308V12.999C13.3308 13.9195 12.5846 14.6657 11.6641 14.6657H4.33598C3.4155 14.6657 2.66931 13.9195 2.66931 12.999V3.99967H2.00004C1.63185 3.99967 1.33337 3.7012 1.33337 3.33301C1.33337 2.96482 1.63185 2.66634 2.00004 2.66634H5.33447ZM4.00265 3.99967L11.9974 3.99968V12.999C11.9974 13.1831 11.8482 13.3324 11.6641 13.3324H4.33598C4.15188 13.3324 4.00265 13.1831 4.00265 12.999V3.99967ZM9.33272 5.99902C9.70091 5.99902 9.99939 6.2975 9.99939 6.66569V10.6657C9.99939 11.0339 9.70091 11.3324 9.33272 11.3324C8.96453 11.3324 8.66606 11.0339 8.66606 10.6657V6.66569C8.66606 6.2975 8.96453 5.99902 9.33272 5.99902ZM6.66671 5.99902C7.0349 5.99902 7.33337 6.2975 7.33337 6.66569V10.6657C7.33337 11.0339 7.0349 11.3324 6.66671 11.3324C6.29852 11.3324 6.00004 11.0339 6.00004 10.6657V6.66569C6.00004 6.2975 6.29852 5.99902 6.66671 5.99902Z" fill="#1D1C23" fill-opacity="0.6"/>
</svg>
