<svg width="20" height="20" viewBox="0 0 20 20" fill="none" xmlns="http://www.w3.org/2000/svg">
  <path
    d="M6.66634 3.33337C7.03453 3.33337 7.33301 3.63185 7.33301 4.00004H12.6663C12.6663 3.63185 12.9648 3.33337 13.333 3.33337C13.7012 3.33337 13.9997 3.63185 13.9997 4.00004C14.2758 4.00004 14.8128 4.00004 15.333 4.00004C16.0694 4.00004 16.6663 4.59699 16.6663 5.33337V15.3334C16.6663 16.0698 16.0694 16.6667 15.333 16.6667H4.66634C3.92996 16.6667 3.33301 16.0698 3.33301 15.3334L3.33301 5.33337C3.33301 4.59699 3.92994 4.00004 4.66632 4.00004C5.18652 4.00004 5.72355 4.00004 5.99967 4.00004C5.99967 3.63185 6.29815 3.33337 6.66634 3.33337ZM12.6663 5.33337H7.33301C7.33301 5.70156 7.03453 6.00004 6.66634 6.00004C6.29815 6.00004 5.99967 5.70156 5.99967 5.33337H4.66634V15.3334H15.333V5.33337H13.9997C13.9997 5.70156 13.7012 6.00004 13.333 6.00004C12.9648 6.00004 12.6663 5.70156 12.6663 5.33337ZM7.99967 12C7.99967 11.6319 7.7012 11.3334 7.33301 11.3334H6.66634C6.29815 11.3334 5.99967 11.6319 5.99967 12V12.6667C5.99967 13.0349 6.29815 13.3334 6.66634 13.3334H7.33301C7.7012 13.3334 7.99967 13.0349 7.99967 12.6667V12ZM8.99967 8.66671C8.99967 8.29852 9.29815 8.00004 9.66634 8.00004H10.333C10.7012 8.00004 10.9997 8.29852 10.9997 8.66671V9.33337C10.9997 9.70156 10.7012 10 10.333 10H9.66634C9.29815 10 8.99967 9.70156 8.99967 9.33337V8.66671ZM10.9997 12C10.9997 11.6319 10.7012 11.3334 10.333 11.3334H9.66634C9.29815 11.3334 8.99967 11.6319 8.99967 12V12.6667C8.99967 13.0349 9.29815 13.3334 9.66634 13.3334H10.333C10.7012 13.3334 10.9997 13.0349 10.9997 12.6667V12ZM11.9997 12C11.9997 11.6319 12.2982 11.3334 12.6663 11.3334H13.333C13.7012 11.3334 13.9997 11.6319 13.9997 12V12.6667C13.9997 13.0349 13.7012 13.3334 13.333 13.3334H12.6663C12.2982 13.3334 11.9997 13.0349 11.9997 12.6667V12ZM13.9997 8.66671C13.9997 8.29852 13.7012 8.00004 13.333 8.00004H12.6663C12.2982 8.00004 11.9997 8.29852 11.9997 8.66671V9.33337C11.9997 9.70156 12.2982 10 12.6663 10H13.333C13.7012 10 13.9997 9.70156 13.9997 9.33337V8.66671Z"
    fill="currentColor" />
</svg>
