<svg width="14" height="14" viewBox="0 0 14 14" fill="currentColor" xmlns="http://www.w3.org/2000/svg">
  <g id="icon_thumbdown_outlined">
    <g id="Union">
      <path
        d="M1.7487 8.73574V1.69871C1.7487 1.40705 1.52153 1.12465 1.16536 1.11538C0.772583 1.11538 0.582031 1.40705 0.582031 1.69871V8.73574C0.582031 9.02741 0.814453 9.31907 1.16536 9.31907C1.51628 9.31907 1.7487 9.02741 1.7487 8.73574Z" />
      <path
        d="M8.48263 9.3195H10.9945C12.7419 9.3195 13.1433 7.77736 12.7419 6.62158L10.9945 2.021C10.8468 1.48595 10.3551 1.11523 9.79388 1.11523H3.20627C2.88411 1.11523 2.62294 1.37583 2.62294 1.698C2.62294 1.9528 2.62294 2.21135 2.62294 2.28646V8.1215C2.62294 8.19802 2.62294 8.47053 2.62294 8.73617C2.62294 9.05833 2.88411 9.3195 3.20627 9.3195H3.51752C3.70821 9.3195 3.88696 9.41244 3.99662 9.56844L6.42776 13.0269C6.59232 13.2887 7.0365 13.4891 7.50992 13.2735C8.22006 12.9501 9.07017 12.2443 9.07017 11.0746C9.07017 10.6335 8.87433 10.0485 8.48263 9.3195ZM10.9945 8.14828H6.52367L7.45089 9.87378C7.75923 10.4476 7.89893 10.865 7.89893 11.0746C7.89893 11.4145 7.82764 11.7991 7.21779 12.1143L4.60496 8.39722C4.4953 8.24122 4.31655 8.14828 4.12587 8.14828H3.79419V2.28646H9.79388C9.8302 2.28646 9.85849 2.30738 9.86545 2.3326L9.88006 2.38558L11.6404 7.01978C11.8718 7.70152 11.641 8.14828 10.9945 8.14828Z" />
    </g>
  </g>
</svg>
