<svg width="14" height="14" viewBox="0 0 14 14" fill="none" xmlns="http://www.w3.org/2000/svg">
  <path
    d="M11.2311 1.54376C11.5728 1.20205 12.1268 1.20205 12.4685 1.54376C12.8102 1.88547 12.8102 2.43949 12.4685 2.78119L11.8498 3.39991L10.6123 2.16248L11.2311 1.54376Z"
    fill="#1D1C23" fill-opacity="0.6" />
  <path
    d="M9.99793 2.77689L11.2354 4.01433L6.67495 8.57474C6.55308 8.69662 6.39615 8.77734 6.22612 8.80561L5.12309 8.98903C5.09158 8.99427 5.05948 8.98398 5.03689 8.96139C5.01401 8.93851 5.00376 8.90589 5.00944 8.87404L5.20526 7.77621C5.23446 7.61248 5.31317 7.46165 5.43077 7.34405L9.99793 2.77689Z"
    fill="#1D1C23" fill-opacity="0.6" />
  <path
    d="M7.87508 1.74997H2.33341C1.68908 1.74997 1.16675 2.2723 1.16675 2.91664V11.6666C1.16675 12.311 1.68908 12.8333 2.33341 12.8333H11.0834C11.7277 12.8333 12.2501 12.311 12.2501 11.6666V5.8333L11.0834 6.99997V11.6666H2.33341V2.91664H6.70841L7.87508 1.74997Z"
    fill="#1D1C23" fill-opacity="0.6" />
</svg>
