<svg xmlns="http://www.w3.org/2000/svg" width="12" height="12" viewBox="0 0 12 12" fill="none">
<g clip-path="url(#clip0_1845_19035)">
<path d="M9.05796 3.98186C9.51179 4.39862 9.86847 4.89464 10.1178 5.45458C10.3722 6.02603 10.5 6.632 10.5 7.25586C10.5 7.85927 10.3811 8.4435 10.1459 8.9945C9.9196 9.52504 9.59489 10.0032 9.18068 10.4123C8.76776 10.8226 8.2858 11.1435 7.75014 11.3672C7.36325 11.5286 6.9602 11.6346 6.54575 11.684C7.09111 11.5171 7.63636 10.9107 7.63636 10.0925C7.63636 8.72887 6.40073 8.89095 6.67346 7.25458C5.0371 7.52731 3.24503 10.0925 5.45455 11.684C5.03999 11.6345 4.63684 11.5282 4.24986 11.3659C3.7142 11.1422 3.23352 10.8201 2.81932 10.411C2.40639 10.0019 2.08168 9.52376 1.85412 8.99322C1.61889 8.44223 1.5 7.85799 1.5 7.25458C1.5 6.57191 1.6598 5.89052 1.96278 5.282C2.26321 4.67987 2.70682 4.14166 3.24503 3.72873C3.46747 3.55743 3.67074 3.35927 3.85227 3.13938C4.11051 2.8249 4.3125 2.47461 4.45312 2.09748C4.56818 1.78938 4.61676 1.41865 4.59759 0.999328L4.56946 0.385691C4.56563 0.305152 4.65384 0.251459 4.72287 0.292368L5.25085 0.603021C5.97443 1.03001 6.55355 1.64237 6.97031 2.42731C7.47401 3.37206 7.70412 4.24009 7.65682 5.0097C7.65554 5.03271 7.66449 5.05572 7.68239 5.07106C7.70156 5.08896 7.7233 5.09152 7.73736 5.09024C7.75142 5.08896 7.77188 5.08385 7.78977 5.06467C8.05952 4.76424 8.25 4.4587 8.35355 4.15956L8.51974 3.68271C8.54403 3.61367 8.63097 3.59194 8.68594 3.64052L9.05796 3.98186Z" stroke="#1D1C23" stroke-opacity="0.35"/>
</g>
<defs>
<clipPath id="clip0_1845_19035">
<rect width="12" height="12" fill="white"/>
</clipPath>
</defs>
</svg>
