<svg width="14" height="14" viewBox="0 0 14 14" fill="none" xmlns="http://www.w3.org/2000/svg">
<g id="icon_thumbsup_filled">
<g id="Union">
<path d="M8.74832 4.66588H11.2502C12.9909 4.66588 13.3908 6.20238 12.9909 7.35359L11.2502 11.9357C11.1032 12.4685 10.6135 12.8384 10.0544 12.8384H3.49482C3.17265 12.8384 2.91148 12.5772 2.91148 12.255C2.91148 9.91977 2.91148 7.58449 2.91148 5.24921C2.91148 4.92704 3.17265 4.66588 3.49482 4.66588H3.80253C3.89617 4.66591 3.98844 4.6434 4.07154 4.60025C4.15465 4.5571 4.22614 4.49457 4.27999 4.41796L6.7014 0.973086C6.86532 0.712336 7.30807 0.512253 7.7794 0.727211C8.4867 1.04921 9.3337 1.75242 9.3337 2.91763C9.3337 3.35688 9.13828 3.93963 8.74832 4.66588Z" fill="#4E40E5"/>
<path d="M2.03385 12.2501V5.21308C2.03385 4.92141 1.80669 4.63902 1.45052 4.62974C1.1145 4.62099 0.867188 4.92141 0.867188 5.21308V12.2501C0.867187 12.5418 1.09961 12.8334 1.45052 12.8334C1.80143 12.8334 2.03385 12.5418 2.03385 12.2501Z" fill="#4E40E5"/>
</g>
</g>
</svg>
