<svg xmlns="http://www.w3.org/2000/svg" width="1em" height="1em" viewBox="0 0 16 16" fill="currentColor">
  <path
    d="M4.63946 12.2001H6.19961C6.53098 12.2001 6.79961 12.4687 6.79961 12.8001C6.79961 13.1315 6.53098 13.4001 6.19961 13.4001H3.19961C3.03392 13.4001 2.88392 13.3329 2.77535 13.2244C2.66677 13.1158 2.59961 12.9658 2.59961 12.8001V9.8001C2.59961 9.46873 2.86824 9.2001 3.19961 9.2001C3.53098 9.2001 3.79961 9.46873 3.79961 9.8001V11.3429L6.4913 8.65121C6.72204 8.42046 7.0944 8.4195 7.32441 8.65097C7.5605 8.88855 7.56448 9.27508 7.32764 9.51192L4.63946 12.2001ZM12.1907 4.70013L9.53364 7.35723C9.30059 7.59028 8.92331 7.59037 8.6905 7.35707C8.45565 7.12174 8.45408 6.73973 8.68917 6.50464L11.3937 3.8001H9.79074C9.45937 3.8001 9.19074 3.53147 9.19074 3.2001C9.19074 2.86873 9.45937 2.6001 9.79074 2.6001H12.7907C12.9564 2.6001 13.1064 2.66725 13.215 2.77583C13.3236 2.88441 13.3907 3.03441 13.3907 3.2001V6.2001C13.3907 6.53147 13.1221 6.8001 12.7907 6.8001C12.4594 6.8001 12.1907 6.53147 12.1907 6.2001V4.70013Z"
    fill="currentColor" />
</svg>
