<svg width="24" height="24" viewBox="0 0 24 24" fill="none" xmlns="http://www.w3.org/2000/svg">
<g id="icon_info_colorful-dm">
<path id="Union" d="M11.9998 23C18.0749 23 22.9998 18.0751 22.9998 12C22.9998 5.92487 18.0749 1 11.9998 1C5.92462 1 0.999756 5.92487 0.999756 12C0.999756 18.0751 5.92462 23 11.9998 23Z" fill="#888892"/>
<path id="Union_2" d="M12 16.3438C11.4477 16.3437 11 16.7915 11 17.3437C11 17.896 11.4477 18.3437 12 18.3437C12.5523 18.3437 13 17.896 13 17.3438C13 16.7915 12.5523 16.3438 12 16.3438Z" fill="white"/>
<path id="Vector 2757" d="M8.82812 8.76562C8.82812 8.76562 9.45312 7 12 7C13.7656 7 14.9962 7.96841 14.875 9.32813C14.7314 10.94 12.9406 11.2437 12.1562 12.8125C11.8625 13.4 12 14.3125 12 14.3125" stroke="white" stroke-width="2" stroke-linecap="round"/>
</g>
</svg>
