<svg width="16" height="16" viewBox="0 0 16 16" fill="none" xmlns="http://www.w3.org/2000/svg">
<g id="icon_h2">
<g id="Union">
<path d="M1.33464 2C0.966446 2 0.667969 2.29848 0.667969 2.66667V13.3333C0.667969 13.7015 0.966446 14 1.33464 14C1.70283 14 2.0013 13.7015 2.0013 13.3333V8.66667H8.0013V13.3333C8.0013 13.7015 8.29978 14 8.66797 14C9.03616 14 9.33463 13.7015 9.33463 13.3333V2.66667C9.33463 2.29848 9.03616 2 8.66797 2C8.29978 2 8.0013 2.29848 8.0013 2.66667V7.33333H2.0013V2.66667C2.0013 2.29848 1.70283 2 1.33464 2Z" fill="#060709" fill-opacity="0.8"/>
<path d="M15.3302 13.2482C15.3302 12.8738 15.0267 12.571 14.6522 12.571H12.5713L14.8425 9.72355C15.1673 9.31013 15.3302 8.83642 15.3302 8.30636C15.3228 7.64503 15.0989 7.0953 14.6598 6.66358C14.2289 6.22902 13.6654 6.00731 12.9783 6C12.3569 6.00736 11.8318 6.22631 11.4075 6.65437C11.1609 6.91173 10.7799 7.35064 10.7799 7.72268C10.7799 8.11686 11.0995 8.4364 11.4937 8.4364C11.8686 8.4364 12.0058 8.2045 12.1552 7.95196C12.1951 7.88458 12.2358 7.81572 12.2822 7.74942C12.3188 7.69709 12.3601 7.64954 12.4061 7.60666C12.5803 7.43858 12.7953 7.35588 13.0603 7.35588C13.3586 7.36206 13.5832 7.45639 13.7412 7.63827C13.8965 7.82405 13.9743 8.0421 13.9743 8.29594C13.9743 8.39324 13.9616 8.49797 13.936 8.61014C13.9026 8.71141 13.8317 8.83739 13.7257 8.97552L10.7915 12.6459C10.7537 12.6932 10.7331 12.752 10.7331 12.8125V13.4939C10.7331 13.6413 10.9111 13.9269 11.1373 13.9269H14.6522C15.0267 13.9269 15.3302 13.6226 15.3302 13.2482Z" fill="#060709" fill-opacity="0.8"/>
</g>
</g>
</svg>
