<svg width="24" height="24" viewBox="0 0 24 24" fill="none" xmlns="http://www.w3.org/2000/svg">
<g opacity="0.3">
<path d="M9.75 3.25C9.17896 3.25 8.69497 3.63375 8.54671 4.15936C8.53833 4.18906 8.53101 4.21928 8.5248 4.25H13.9752C13.969 4.21928 13.9617 4.18906 13.9533 4.15936C13.805 3.63375 13.321 3.25 12.75 3.25H9.75ZM6.89814 2.94067C7.44988 1.93357 8.51923 1.25 9.75 1.25H12.75C13.9808 1.25 15.0501 1.93357 15.6019 2.94067C16.0559 2.98064 16.5082 3.0268 16.9586 3.07908C18.5883 3.2682 19.75 4.66663 19.75 6.25699V7.65625C19.75 8.20853 19.3023 8.65625 18.75 8.65625C18.1977 8.65625 17.75 8.20853 17.75 7.65625V6.25699C17.75 5.63137 17.2996 5.13207 16.728 5.06574C16.4638 5.03507 16.1988 5.0066 15.9333 4.98033C15.7245 5.71329 15.0499 6.25 14.25 6.25H8.25C7.45007 6.25 6.7755 5.71329 6.56674 4.98033C6.30115 5.0066 6.03622 5.03507 5.77196 5.06574C5.20041 5.13207 4.75 5.63137 4.75 6.25699V19.5C4.75 20.1904 5.30964 20.75 6 20.75H7.875C8.42728 20.75 8.875 21.1977 8.875 21.75C8.875 22.3023 8.42728 22.75 7.875 22.75H6C4.20507 22.75 2.75 21.2949 2.75 19.5V6.25699C2.75 4.66663 3.91175 3.2682 5.5414 3.07908C5.99183 3.0268 6.4441 2.98064 6.89814 2.94067ZM18.06 10.707C18.4505 10.3164 19.0837 10.3164 19.4742 10.707L21.9491 13.1818C22.1366 13.3694 22.242 13.6237 22.242 13.8889C22.242 14.1542 22.1366 14.4085 21.9491 14.596L14.0878 22.4573C13.6973 22.8478 13.0642 22.8478 12.6736 22.4573L12.3859 22.1696C12.3607 22.1489 12.3363 22.1268 12.3128 22.1032L7.31999 17.1104C6.92947 16.7199 6.92947 16.0867 7.31999 15.6962L9.79487 13.2213C10.1854 12.8308 10.8186 12.8308 11.2091 13.2213L13.3773 15.3896L18.06 10.707ZM11.9631 16.8038L10.502 15.3427L9.44131 16.4033L10.9025 17.8645L11.9631 16.8038ZM13.3807 20.336L19.8277 13.8889L18.7671 12.8283L12.3201 19.2753L13.3807 20.336Z" fill="#2B2F36"/>
</g>
</svg>
