<svg width="16" height="16" viewBox="0 0 16 16" fill="none" xmlns="http://www.w3.org/2000/svg">
<path d="M12.5 9.51562C12.5 10.9497 12.5 12.1997 12.5 13.0159C12.5 13.5682 12.0523 14.0156 11.5 14.0156H3C2.44772 14.0156 2 13.5679 2 13.0156V4.51562C2 3.96334 2.44772 3.51562 3 3.51562H8" stroke="#4D53E8" stroke-width="1.33" stroke-linecap="round"/>
<path fill-rule="evenodd" clip-rule="evenodd" d="M11.9741 3.19719L7.29286 7.87894C7.10535 8.06647 7.00001 8.3208 7.00001 8.586L7 9.58586H7.99981C8.26503 9.58586 8.5194 9.48049 8.70694 9.29294L13.3882 4.61136L11.9741 3.19719ZM13.7814 4.21816L14.2925 3.70706C14.683 3.31654 14.683 2.6834 14.2924 2.29289C13.9019 1.90235 13.2687 1.90237 12.8782 2.29293L12.3672 2.80398L13.7814 4.21816Z" fill="#4D53E8"/>
</svg>
