<svg xmlns="http://www.w3.org/2000/svg" width="14" height="14" viewBox="0 0 14 14" fill="currentColor">
    <path d="M4.08333 4.95825C4.08333 4.63609 4.3445 4.37492 4.66667 4.37492H7C7.32217 4.37492 7.58333 4.63609 7.58333 4.95825C7.58333 5.28042 7.32217 5.54159 7 5.54159H4.66667C4.3445 5.54159 4.08333 5.28042 4.08333 4.95825Z" />
    <path d="M4.08333 7.29159C4.08333 6.96942 4.3445 6.70825 4.66667 6.70825H9.33333C9.6555 6.70825 9.91667 6.96942 9.91667 7.29159C9.91667 7.61375 9.6555 7.87492 9.33333 7.87492H4.66667C4.3445 7.87492 4.08333 7.61375 4.08333 7.29159Z" />
    <path d="M4.08333 9.62492C4.08333 9.30275 4.3445 9.04159 4.66667 9.04159H9.33333C9.6555 9.04159 9.91667 9.30275 9.91667 9.62492C9.91667 9.94709 9.6555 10.2083 9.33333 10.2083H4.66667C4.3445 10.2083 4.08333 9.94709 4.08333 9.62492Z" />
    <path d="M1.75 1.74992C1.75 1.10559 2.27233 0.583252 2.91667 0.583252H11.0833C11.7277 0.583252 12.25 1.10559 12.25 1.74992V12.2499C12.25 12.8943 11.7277 13.4166 11.0833 13.4166H2.91667C2.27233 13.4166 1.75 12.8943 1.75 12.2499V1.74992ZM2.91667 1.74992V12.2499H11.0833V1.74992H2.91667Z"/>
</svg>
