<svg width="24" height="24" viewBox="0 0 24 24" fill="none" xmlns="http://www.w3.org/2000/svg">
<path d="M4.99971 17.0671C4.99971 13.7164 7.81262 11.0005 11.0679 11.0005L12.9406 11C16.1964 11 19.0001 13.7164 19.0001 17.0665V20.4996C19.0001 20.7649 18.8947 21.0194 18.7071 21.207C18.5195 21.3946 18.265 21.5 17.9997 21.5H6.00008C5.73477 21.5 5.48032 21.3946 5.29271 21.207C5.10511 21.0194 4.99971 20.7649 4.99971 20.4996V17.0671ZM11.0679 13.0005C8.89606 13.0005 6.99971 14.842 6.99971 17.0671V19.5H17.0001V17.0665C17.0001 14.8382 15.1088 13.0003 12.9406 13L11.0679 13.0005Z" fill="#4D53E8"/>
<path d="M14.4749 7.97518C13.8247 8.62543 12.9449 8.99341 12.0261 9.00027L11.9999 9.00036L11.9758 9.00028C11.0562 8.99395 10.1756 8.62591 9.52489 7.97518C8.86848 7.31877 8.49971 6.42849 8.49971 5.50018C8.49971 4.57188 8.86848 3.68159 9.52489 3.02518C10.1813 2.36877 11.0716 2 11.9999 2C12.9282 2 13.8185 2.36877 14.4749 3.02518C15.1313 3.68159 15.5001 4.57188 15.5001 5.50018C15.5001 6.42849 15.1313 7.31877 14.4749 7.97518ZM11.9999 4C11.602 4 11.2204 4.15805 10.9391 4.43939C10.6578 4.72073 10.4997 5.10231 10.4997 5.50018C10.4997 5.89805 10.6578 6.27963 10.9391 6.56097C11.2204 6.84231 11.602 7.00036 11.9999 7.00036C12.3978 7.00036 12.7793 6.84231 13.0607 6.56097C13.342 6.27963 13.5001 5.89806 13.5001 5.50018C13.5001 5.10231 13.342 4.72073 13.0607 4.43939C12.7793 4.15805 12.3978 4 11.9999 4Z" fill="#4D53E8"/>
<path d="M7.49971 8.75C7.49971 9.99264 6.49235 11 5.24971 11C4.00707 11 2.99971 9.99264 2.99971 8.75C2.99971 7.50736 4.00707 6.5 5.24971 6.5C6.49235 6.5 7.49971 7.50736 7.49971 8.75ZM5.99971 8.75C5.99971 8.33579 5.66393 8 5.24971 8C4.8355 8 4.49971 8.33579 4.49971 8.75C4.49971 9.16421 4.8355 9.5 5.24971 9.5C5.66393 9.5 5.99971 9.16421 5.99971 8.75Z" fill="#4D53E8"/>
<path d="M5.04418 12C2.60273 12 1.5 14.0373 1.5 16.5502V19.2502C1.5 19.6647 1.836 20.0002 2.25 20.0002H3.5V17.0002C3.5 13.3712 5.20884 12.5517 6.22556 12.0641L6.32491 12.0164C6.20055 12.0055 6.07509 12 5.94855 12H5.04418Z" fill="#4D53E8"/>
<path d="M18.9538 12C21.3952 12 22.498 14.0373 22.498 16.5502V19.2502C22.498 19.6647 22.162 20.0002 21.748 20.0002H20.498V17.0002C20.498 13.3712 18.7891 12.5517 17.7724 12.0641L17.6731 12.0164C17.7974 12.0055 17.9229 12 18.0494 12H18.9538Z" fill="#4D53E8"/>
<path d="M18.7497 11C19.9924 11 20.9997 9.99264 20.9997 8.75C20.9997 7.50736 19.9924 6.5 18.7497 6.5C17.5071 6.5 16.4997 7.50736 16.4997 8.75C16.4997 9.99264 17.5071 11 18.7497 11ZM18.7497 9.5C18.3355 9.5 17.9997 9.16421 17.9997 8.75C17.9997 8.33579 18.3355 8 18.7497 8C19.1639 8 19.4997 8.33579 19.4997 8.75C19.4997 9.16421 19.1639 9.5 18.7497 9.5Z" fill="#4D53E8"/>
</svg>
