<svg width="16" height="17" viewBox="0 0 16 17" fill="none" xmlns="http://www.w3.org/2000/svg">
<path d="M12.9974 8.93466C12.9974 10.4338 12.9974 12.0765 12.9974 13.1895C12.9974 13.924 12.4019 14.5184 11.6674 14.5184L3.65812 14.5184C2.92358 14.5184 2.32812 13.9229 2.32812 13.1884L2.32812 5.17912C2.32812 4.44458 2.92359 3.84912 3.65813 3.84912L7.91186 3.84912" stroke="#4D53E8" stroke-width="1.33" stroke-linecap="round"/>
<path fill-rule="evenodd" clip-rule="evenodd" d="M11.8173 3.85425L7.21123 8.46166C6.91827 8.75463 6.94862 9.55702 6.96574 9.80541C6.96879 9.84959 7.00187 9.88271 7.04604 9.8858C7.29444 9.90321 8.09706 9.93442 8.39053 9.64095L12.9966 5.03354L11.8173 3.85425ZM13.3898 4.6403L13.9446 4.08532C14.2961 3.73384 14.317 3.18492 13.9913 2.85927C13.6657 2.53362 13.1168 2.55455 12.7653 2.90603L12.2105 3.46101L13.3898 4.6403Z" fill="#4D53E8"/>
</svg>
