<svg width="24" height="24" viewBox="0 0 24 24" fill="none" xmlns="http://www.w3.org/2000/svg">
    <path d="M11.1018 16.7529L12.3121 15.139L13.2645 16.0914L12.1684 17.5529C11.0461 19.0493 8.91748 19.3401 7.43489 18.1997C5.94515 17.0537 5.68606 14.9082 6.86017 13.4406L7.81336 12.2491C8.04336 11.9616 8.46289 11.9149 8.7504 12.145C9.03791 12.375 9.08452 12.7945 8.85452 13.082L7.90133 14.2735C7.19343 15.1583 7.34965 16.4519 8.24783 17.1428C9.14171 17.8304 10.4251 17.6551 11.1018 16.7529Z" fill="#1D1C23" fill-opacity="0.8"/>
    <path d="M14.0719 15.013L13.1052 14.0464L12.3311 13.2722L9.38241 10.3237L6.14839 7.08986C5.88804 6.82951 5.88804 6.4074 6.14839 6.14705C6.40874 5.8867 6.83085 5.8867 7.0912 6.14705L17.8197 16.8752C18.08 17.1356 18.08 17.5577 17.8197 17.818C17.5594 18.0784 17.1372 18.0784 16.8769 17.818L14.0719 15.013Z" fill="#1D1C23" fill-opacity="0.8"/>
    <path d="M12.8993 7.24488L11.6888 8.85884L10.7364 7.90646L11.8326 6.44488C12.9549 4.94849 15.0836 4.65763 16.5662 5.79808C18.0559 6.94403 18.315 9.08954 17.1409 10.5572L16.1877 11.7487C15.9577 12.0362 15.5382 12.0828 15.2507 11.8528C14.9632 11.6228 14.9165 11.2033 15.1465 10.9157L16.0997 9.72426C16.8076 8.83939 16.6514 7.54583 15.7532 6.85491C14.8594 6.16732 13.5759 6.34268 12.8993 7.24488Z" fill="#1D1C23" fill-opacity="0.8"/>
</svg>