<svg xmlns="http://www.w3.org/2000/svg" width="12" height="12" viewBox="0 0 12 12" fill="none">
<path d="M4.5 6.5H7.5C8.88071 6.5 10.5 7.46428 10.5 9.2V10C10.5 10.55 10.05 11 9.5 11H2.5C1.95 11 1.5 10.55 1.5 10V9.2C1.5 7.46574 3.11929 6.5 4.5 6.5ZM9.5 10V9.16667C9.5 8.11592 8.4355 7.5 7.5 7.5H4.5C3.58499 7.5 2.5 8.08585 2.5 9.16667V10H9.5ZM6 6C4.61929 6 3.5 4.88071 3.5 3.5C3.5 2.11929 4.61929 1 6 1C7.38071 1 8.5 2.11929 8.5 3.5C8.5 4.88071 7.38071 6 6 6ZM6 5C6.82843 5 7.5 4.32843 7.5 3.5C7.5 2.67157 6.82843 2 6 2C5.17157 2 4.5 2.67157 4.5 3.5C4.5 4.32843 5.17157 5 6 5Z" fill="#1D1C23" fill-opacity="0.35"/>
</svg>
