<svg width="12" height="12" viewBox="0 0 12 12" fill="currentColor" xmlns="http://www.w3.org/2000/svg">
  <g id="icon_emoji_outlined">
    <path id="Union"
      d="M0.5 6C0.5 9.03757 2.96243 11.5 6 11.5C9.03757 11.5 11.5 9.03757 11.5 6C11.5 2.96243 9.03757 0.5 6 0.5C2.96243 0.5 0.5 2.96243 0.5 6ZM10.5 6C10.5 8.48528 8.48528 10.5 6 10.5C3.51472 10.5 1.5 8.48528 1.5 6C1.5 3.51472 3.51472 1.5 6 1.5C8.48528 1.5 10.5 3.51472 10.5 6ZM7 4.75C7 4.47386 7.22386 4.25 7.5 4.25C7.77614 4.25 8 4.47386 8 4.75V5.25C8 5.52614 7.77614 5.75 7.5 5.75C7.22386 5.75 7 5.52614 7 5.25V4.75ZM5 4.75C5 4.47386 4.77614 4.25 4.5 4.25C4.22386 4.25 4 4.47386 4 4.75V5.25C4 5.52614 4.22386 5.75 4.5 5.75C4.77614 5.75 5 5.52614 5 5.25V4.75ZM7.72735 6.99999C7.86379 6.99999 8.05037 6.99999 8.28711 6.99999C8.41774 6.99999 8.5071 7.13394 8.44925 7.25106C8.44357 7.26255 8.43813 7.27327 8.43305 7.28288C7.97205 8.15539 7.05546 8.74999 6 8.74999C4.93411 8.74999 4.00985 8.14357 3.55341 7.25693C3.49213 7.13788 3.58553 6.99999 3.71943 6.99999C3.73136 6.99999 3.74259 6.99999 3.75283 6.99999C3.88474 6.99999 4.06493 6.99999 4.29342 6.99999C4.30091 6.99999 4.30923 6.99999 4.31818 6.99999C4.473 6.99999 4.61712 7.0735 4.71949 7.18965C4.74313 7.21647 4.76617 7.24133 4.7859 7.26033C5.10057 7.56353 5.52851 7.74999 6 7.74999C6.47468 7.74999 6.90522 7.561 7.22048 7.25416C7.23836 7.23676 7.25908 7.21437 7.28047 7.19011C7.383 7.07381 7.52719 6.99999 7.68223 6.99999C7.69862 6.99999 7.71392 6.99999 7.72735 6.99999Z"
      fill="currentColor" />
  </g>
</svg>
