<svg width="16" height="16" viewBox="0 0 16 16" fill="none" xmlns="http://www.w3.org/2000/svg">
<path d="M4.66658 1.33325C5.03477 1.33325 5.33325 1.63173 5.33325 1.99992H10.6666C10.6666 1.63173 10.9651 1.33325 11.3333 1.33325C11.7014 1.33325 11.9999 1.63173 11.9999 1.99992C12.276 1.99992 12.8131 1.99992 13.3333 1.99992C14.0697 1.99992 14.6666 2.59687 14.6666 3.33325V13.3333C14.6666 14.0696 14.0696 14.6666 13.3333 14.6666H2.66659C1.93021 14.6666 1.33325 14.0696 1.33325 13.3333L1.33325 3.33325C1.33325 2.59687 1.93018 1.99992 2.66656 1.99992C3.18676 1.99992 3.72379 1.99992 3.99992 1.99992C3.99992 1.63173 4.2984 1.33325 4.66658 1.33325ZM10.6666 3.33325H5.33325C5.33325 3.70144 5.03477 3.99992 4.66658 3.99992C4.2984 3.99992 3.99992 3.70144 3.99992 3.33325H2.66659V13.3333H13.3333V3.33325H11.9999C11.9999 3.70144 11.7014 3.99992 11.3333 3.99992C10.9651 3.99992 10.6666 3.70144 10.6666 3.33325ZM5.99992 9.99992C5.99992 9.63173 5.70144 9.33325 5.33325 9.33325H4.66658C4.2984 9.33325 3.99992 9.63173 3.99992 9.99992V10.6666C3.99992 11.0348 4.2984 11.3333 4.66658 11.3333H5.33325C5.70144 11.3333 5.99992 11.0348 5.99992 10.6666V9.99992ZM6.99992 6.66658C6.99992 6.2984 7.2984 5.99992 7.66658 5.99992H8.33325C8.70144 5.99992 8.99992 6.2984 8.99992 6.66658V7.33325C8.99992 7.70144 8.70144 7.99992 8.33325 7.99992H7.66658C7.29839 7.99992 6.99992 7.70144 6.99992 7.33325V6.66658ZM8.99992 9.99992C8.99992 9.63173 8.70144 9.33325 8.33325 9.33325H7.66658C7.29839 9.33325 6.99992 9.63173 6.99992 9.99992V10.6666C6.99992 11.0348 7.2984 11.3333 7.66658 11.3333H8.33325C8.70144 11.3333 8.99992 11.0348 8.99992 10.6666V9.99992ZM9.99992 9.99992C9.99992 9.63173 10.2984 9.33325 10.6666 9.33325H11.3333C11.7014 9.33325 11.9999 9.63173 11.9999 9.99992V10.6666C11.9999 11.0348 11.7014 11.3333 11.3333 11.3333H10.6666C10.2984 11.3333 9.99992 11.0348 9.99992 10.6666V9.99992ZM11.9999 6.66658C11.9999 6.2984 11.7014 5.99992 11.3333 5.99992H10.6666C10.2984 5.99992 9.99992 6.2984 9.99992 6.66658V7.33325C9.99992 7.70144 10.2984 7.99992 10.6666 7.99992H11.3333C11.7014 7.99992 11.9999 7.70144 11.9999 7.33325V6.66658Z" fill="#1D1C23"/>
</svg>
