<svg xmlns="http://www.w3.org/2000/svg" width="16" height="16" viewBox="0 0 16 16" fill="none">
    <path
        d="M8.00008 14.0003C11.3138 14.0003 14.0001 11.314 14.0001 8.00033C14.0001 4.68666 11.3138 2.00033 8.00008 2.00033C4.68642 2.00033 2.00008 4.68666 2.00008 8.00033C2.00008 11.314 4.68642 14.0003 8.00008 14.0003ZM8.00008 15.3337C3.95008 15.3337 0.666748 12.0503 0.666748 8.00033C0.666748 3.95033 3.95008 0.666992 8.00008 0.666992C12.0501 0.666992 15.3334 3.95033 15.3334 8.00033C15.3334 12.0503 12.0501 15.3337 8.00008 15.3337Z"
        fill="#4062FF" />
    <path
        d="M5.66675 8.00033C5.66675 8.55261 5.21903 9.00033 4.66675 9.00033C4.11446 9.00033 3.66675 8.55261 3.66675 8.00033C3.66675 7.44804 4.11446 7.00033 4.66675 7.00033C5.21903 7.00033 5.66675 7.44804 5.66675 8.00033Z"
        fill="#4062FF" />
    <path
        d="M12.3334 8.00033C12.3334 8.55261 11.8857 9.00033 11.3334 9.00033C10.7811 9.00033 10.3334 8.55261 10.3334 8.00033C10.3334 7.44804 10.7811 7.00033 11.3334 7.00033C11.8857 7.00033 12.3334 7.44804 12.3334 8.00033Z"
        fill="#4062FF" />
    <path
        d="M9.00008 8.00033C9.00008 8.55261 8.55237 9.00033 8.00008 9.00033C7.4478 9.00033 7.00008 8.55261 7.00008 8.00033C7.00008 7.44804 7.4478 7.00033 8.00008 7.00033C8.55237 7.00033 9.00008 7.44804 9.00008 8.00033Z"
        fill="#4062FF" />
</svg>
