<svg xmlns="http://www.w3.org/2000/svg" width="14" height="14" viewBox="0 0 14 14" fill="none">
  <path
    d="M6.77952 12.7065L2.91683 9.91673V4.0834L6.77953 1.29367C7.35819 0.875752 8.16683 1.28922 8.16683 2.00302V11.9971C8.16683 12.7109 7.35819 13.1244 6.77952 12.7065ZM4.0835 9.3202L7.00016 11.4267V2.57345L4.0835 4.67993V9.3202Z"
    fill="currentColor" />
  <path
    d="M1.16683 4.08344C0.844663 4.08344 0.583496 4.3446 0.583496 4.66677V9.33344C0.583496 9.6556 0.844663 9.91677 1.16683 9.91677H1.75016V4.08344H1.16683Z"
    fill="currentColor" />
  <path
    d="M9.54991 4.79666C9.80035 4.594 10.1677 4.63274 10.3703 4.88318C10.8442 5.46876 11.1483 6.14921 11.1483 7.00012C11.1483 7.85104 10.8442 8.53148 10.3703 9.11706C10.1677 9.36751 9.80035 9.40624 9.54991 9.20359C9.29946 9.00093 9.26073 8.63362 9.46338 8.38318C9.80024 7.9669 9.98166 7.53838 9.98166 7.00012C9.98166 6.46187 9.80024 6.03334 9.46338 5.61706C9.26073 5.36662 9.29946 4.99931 9.54991 4.79666Z"
    fill="currentColor" />
  <path
    d="M11.4725 2.6523C11.2325 2.43744 10.8637 2.45787 10.6488 2.69793C10.434 2.93798 10.4544 3.30677 10.6945 3.52162C11.6501 4.37696 12.2502 5.61809 12.2502 7.00015C12.2502 8.3822 11.6501 9.62334 10.6945 10.4787C10.4544 10.6935 10.434 11.0623 10.6488 11.3024C10.8637 11.5424 11.2325 11.5629 11.4725 11.348C12.665 10.2807 13.4168 8.72784 13.4168 7.00015C13.4168 5.27245 12.665 3.71959 11.4725 2.6523Z"
    fill="currentColor" />
</svg>
