<svg width="24" height="24" viewBox="0 0 24 24" fill="none" xmlns="http://www.w3.org/2000/svg">
<path d="M9.90967 6.31042C8.88957 6.31042 8.06167 7.13795 8.06167 8.15842C8.06167 9.17888 8.88957 10.0064 9.90967 10.0064C10.9298 10.0064 11.7577 9.17888 11.7577 8.15842C11.7577 7.13795 10.9298 6.31042 9.90967 6.31042ZM6.58328 8.15842C6.58328 6.32114 8.07276 4.83203 9.90967 4.83203C11.7466 4.83203 13.2361 6.32114 13.2361 8.15842C13.2361 9.99569 11.7466 11.4848 9.90967 11.4848C8.07276 11.4848 6.58328 9.99569 6.58328 8.15842ZM7.93971 13.7024C6.59437 13.7024 5.47449 14.8101 5.47449 16.2157V17.3984H14.3448V16.2157C14.3448 14.8101 13.225 13.7024 11.8796 13.7024H7.93971ZM3.99609 16.2157C3.99609 14.011 5.76277 12.224 7.93971 12.224H11.8796C14.0566 12.224 15.8232 14.011 15.8232 16.2157V17.3984C15.8232 18.2115 15.158 18.8768 14.3448 18.8768H5.47449C4.66137 18.8768 3.99609 18.2115 3.99609 17.3984V16.2157ZM20.2584 18.1376H17.2018V17.8352V16.6592H19.5192V16.2157C19.5192 15.475 18.8946 14.8112 18.0408 14.8112H17.0725C16.932 14.2649 16.6807 13.7637 16.3444 13.3328H18.0408C19.6745 13.3328 20.9976 14.6234 20.9976 16.2157L20.9976 17.3984C21.0159 17.7941 20.635 18.1517 20.2584 18.1376ZM15.8232 10.0064C15.8232 9.598 16.1559 9.26721 16.5624 9.26721C16.969 9.26721 17.3016 9.598 17.3016 10.0064C17.3016 10.4148 16.969 10.7456 16.5624 10.7456C16.1559 10.7456 15.8232 10.4148 15.8232 10.0064ZM16.5624 7.78882C15.3391 7.78882 14.3448 8.78156 14.3448 10.0064C14.3448 11.2313 15.3391 12.224 16.5624 12.224C17.7858 12.224 18.78 11.2313 18.78 10.0064C18.78 8.78156 17.7858 7.78882 16.5624 7.78882Z" fill="#1D1C23"/>
</svg>
