<svg width="20" height="20" viewBox="0 0 20 20" fill="none" xmlns="http://www.w3.org/2000/svg">
<path d="M8.94901 1.6261C9.44142 0.863566 10.5568 0.863567 11.0492 1.6261L13.4349 5.32061C13.5466 5.49355 13.7184 5.61903 13.917 5.67287L18.1563 6.82164C19.0259 7.05727 19.3682 8.10752 18.8045 8.81027L16.0375 12.2598C15.9097 12.4191 15.8449 12.6198 15.8553 12.8237L16.0812 17.2436C16.1274 18.1475 15.2274 18.7994 14.3829 18.4736L10.299 16.8983C10.106 16.8238 9.89219 16.8238 9.69917 16.8983L5.61528 18.4736C4.77082 18.7994 3.87083 18.1475 3.91703 17.2436L4.14291 12.8237C4.15333 12.6198 4.0885 12.4191 3.96071 12.2598L1.19371 8.81027C0.629998 8.10752 0.972293 7.05727 1.84184 6.82164L6.08114 5.67287C6.27983 5.61903 6.45156 5.49355 6.56324 5.32061L8.94901 1.6261Z" fill="#FFCC12"/>
</svg>
