<svg width="24" height="24" viewBox="0 0 24 24" fill="none" xmlns="http://www.w3.org/2000/svg">
<path fill-rule="evenodd" clip-rule="evenodd" d="M7 10.8885C9.00399 10.4338 10.5 8.64159 10.5 6.5C10.5 4.01472 8.48528 2 6 2C3.51472 2 1.5 4.01472 1.5 6.5C1.5 8.64159 2.99601 10.4338 5 10.8885V16C5 17.6569 6.34315 19 8 19H11.5643C11.413 18.6883 11.3281 18.3379 11.3281 17.9675C11.3281 17.6226 11.4017 17.2951 11.534 17H8C7.44772 17 7 16.5523 7 16V10.8885ZM8.5 6.5C8.5 7.88071 7.38071 9 6 9C4.61929 9 3.5 7.88071 3.5 6.5C3.5 5.11929 4.61929 4 6 4C7.38071 4 8.5 5.11929 8.5 6.5Z" fill="currentColor"/>
<path d="M18.8345 14.4336C18.8345 13.8813 18.3868 13.4336 17.8345 13.4336C17.2822 13.4336 16.8345 13.8813 16.8345 14.4336V16.9629H14.306C13.7537 16.9629 13.306 17.4106 13.306 17.9629C13.306 18.5152 13.7537 18.9629 14.306 18.9629H16.8345V21.4904C16.8345 22.0427 17.2822 22.4904 17.8345 22.4904C18.3868 22.4904 18.8345 22.0427 18.8345 21.4904V18.9629H21.3628C21.9151 18.9629 22.3628 18.5152 22.3628 17.9629C22.3628 17.4106 21.9151 16.9629 21.3628 16.9629H18.8345V14.4336Z" fill="currentColor"/>
</svg>
