<svg xmlns="http://www.w3.org/2000/svg" width="14" height="14" viewBox="0 0 14 14" fill="currentColor">
    <path
        d="M6.85384 10.7916C7.41763 10.7916 7.87467 11.2486 7.87467 11.8124C7.87467 12.3762 7.41763 12.8333 6.85384 12.8333C6.29005 12.8333 5.83301 12.3762 5.83301 11.8124C5.83301 11.2486 6.29005 10.7916 6.85384 10.7916Z" />
    <path
        d="M6.85384 5.99344C7.41763 5.99344 7.87467 6.45049 7.87467 7.01428C7.87467 7.57807 7.41763 8.03511 6.85384 8.03511C6.29005 8.03511 5.83301 7.57807 5.83301 7.01428C5.83301 6.45049 6.29005 5.99344 6.85384 5.99344Z" />
    <path
        d="M6.85384 1.16659C7.41763 1.16659 7.87467 1.62363 7.87467 2.18742C7.87467 2.75121 7.41763 3.20825 6.85384 3.20825C6.29005 3.20825 5.83301 2.75121 5.83301 2.18742C5.83301 1.62363 6.29005 1.16659 6.85384 1.16659Z" />
</svg>
