<svg width="17" height="16" viewBox="0 0 17 16" fill="none" xmlns="http://www.w3.org/2000/svg">
    <g id="icon_file-link-blue_colorful">
        <path id="Rectangle 2526" opacity="0.9"
            d="M2.5 1.99935C2.5 1.26297 3.09695 0.666016 3.83333 0.666016H10.2239C10.4007 0.666016 10.5702 0.736254 10.6953 0.861278L14.3047 4.47075C14.4298 4.59578 14.5 4.76535 14.5 4.94216V13.9993C14.5 14.7357 13.903 15.3327 13.1667 15.3327H3.83333C3.09695 15.3327 2.5 14.7357 2.5 13.9993V1.99935Z"
            fill="#336DF4" />
        <path id="Rectangle 2527" opacity="0.6"
            d="M10.5 1.14886C10.5 0.970678 10.7154 0.881444 10.8414 1.00744L14.1586 4.32459C14.2846 4.45059 14.1953 4.66602 14.0172 4.66602H11.8333C11.097 4.66602 10.5 4.06906 10.5 3.33268V1.14886Z"
            fill="#fff" />
        <path id="icon_global_link_nor"
            d="M8.68264 8.29254C8.82219 8.351 8.95588 8.43002 9.0794 8.53004C9.77945 9.09693 9.8874 10.124 9.32051 10.824L8.3967 11.9648C7.82981 12.6649 6.80275 12.7728 6.1027 12.206C5.40264 11.6391 5.29469 10.612 5.86159 9.91195L6.74514 8.82085L6.7733 9.08877C6.79311 9.2772 6.85768 9.45008 6.95535 9.59796L6.36861 10.3225C6.02847 10.7426 6.09324 11.3588 6.51328 11.6989C6.93331 12.0391 7.54954 11.9743 7.88968 11.5543L8.81348 10.4135C9.15362 9.99343 9.08885 9.37719 8.66882 9.03706C8.54029 8.93298 8.39338 8.86681 8.24164 8.83713L8.68264 8.29254ZM8.19081 10.3492C8.05126 10.2908 7.91757 10.2117 7.79405 10.1117C7.094 9.54483 6.98605 8.51777 7.55294 7.81772L8.47675 6.67691C9.04364 5.97686 10.0707 5.86891 10.7708 6.4358C11.4708 7.0027 11.5788 8.02976 11.0119 8.72981L10.1283 9.82091L10.1002 9.55299C10.0803 9.36456 10.0158 9.19168 9.9181 9.0438L10.5048 8.31923C10.845 7.8992 10.7802 7.28296 10.3602 6.94283C9.94014 6.60269 9.32391 6.66746 8.98377 7.08749L8.05997 8.2283C7.71983 8.64833 7.7846 9.26457 8.20463 9.6047C8.33316 9.70878 8.48007 9.77495 8.63181 9.80463L8.19081 10.3492Z"
            fill="white" />
    </g>
</svg>
