<svg width="16" height="16" viewBox="0 0 16 16" fill="none" xmlns="http://www.w3.org/2000/svg">
<path d="M7.74817 14.5216L3.33366 11.3333V4.66665L7.74817 1.47839C8.4095 1.00076 9.33366 1.4733 9.33366 2.28907V13.7109C9.33366 14.5267 8.40949 14.9992 7.74817 14.5216ZM4.66699 10.6516L8.00033 13.059V2.94099L4.66699 5.34839V10.6516Z" fill="#0075FF"/>
<path d="M1.33366 4.66669C0.965469 4.66669 0.666992 4.96516 0.666992 5.33335V10.6667C0.666992 11.0349 0.965469 11.3334 1.33366 11.3334H2.00033V4.66669H1.33366Z" fill="#0075FF"/>
<path d="M10.9143 5.4818C11.2005 5.25019 11.6203 5.29446 11.8519 5.58068C12.3935 6.24991 12.7411 7.02757 12.7411 8.00004C12.7411 8.97252 12.3935 9.75017 11.8519 10.4194C11.6203 10.7056 11.2005 10.7499 10.9143 10.5183C10.6281 10.2867 10.5838 9.8669 10.8154 9.58068C11.2004 9.10493 11.4078 8.61519 11.4078 8.00004C11.4078 7.38489 11.2004 6.89515 10.8154 6.41941C10.5838 6.13319 10.6281 5.71341 10.9143 5.4818Z" fill="#0075FF"/>
<path d="M13.1116 3.0311C12.8373 2.78555 12.4158 2.8089 12.1702 3.08325C11.9247 3.3576 11.948 3.77906 12.2224 4.02462C13.3146 5.00214 14.0003 6.42058 14.0003 8.00007C14.0003 9.57956 13.3146 10.998 12.2224 11.9755C11.948 12.2211 11.9247 12.6425 12.1702 12.9169C12.4158 13.1912 12.8373 13.2146 13.1116 12.969C14.4744 11.7493 15.3337 9.97458 15.3337 8.00007C15.3337 6.02556 14.4744 4.25086 13.1116 3.0311Z" fill="#0075FF"/>
</svg>
