<svg xmlns="http://www.w3.org/2000/svg" width="16" height="16" viewBox="0 0 16 16" fill="none">
    <path
        d="M13.9892 7.01409H15.325C15.159 3.84882 12.5399 1.33337 9.33332 1.33337C6.67032 1.33337 4.41252 3.06824 3.62849 5.46942C1.92266 5.92659 0.666656 7.48331 0.666656 9.33337C0.666656 11.5425 2.45752 13.3334 4.66666 13.3334C6.29205 13.3334 9.5516 13.3295 9.5516 13.3295L8.27239 12H4.66666C3.1939 12 1.99999 10.8061 1.99999 9.33337C1.99999 8.11923 2.8189 7.06678 3.97365 6.7573L4.67166 6.57023L4.89597 5.88328C5.5173 3.9804 7.29904 2.66671 9.33332 2.66671C11.8033 2.66671 13.8252 4.58568 13.9892 7.01409Z"
        fill="currentColor" />
    <path
        d="M14.0952 11.0379L13.3193 10.2619L13.3192 14.0427C13.3192 14.4109 13.0207 14.7094 12.6526 14.7094C12.2844 14.7094 11.9859 14.4109 11.9859 14.0427L11.986 10.3186L11.2666 11.0379C11.0063 11.2983 10.5842 11.2983 10.3238 11.0379C10.0635 10.7776 10.0635 10.3555 10.3238 10.0951L12.2096 8.20941C12.4699 7.94907 12.892 7.94907 13.1524 8.20942L15.038 10.095C15.2984 10.3554 15.2984 10.7775 15.038 11.0379C14.7777 11.2982 14.3556 11.2982 14.0952 11.0379Z"
        fill="currentColor" />
</svg>
