<svg width="24" height="24" viewBox="0 0 24 24" fill="none" xmlns="http://www.w3.org/2000/svg">
    <path
        d="M23 12C23 18.0751 18.0751 23 12 23C5.92487 23 1 18.0751 1 12C1 5.92487 5.92487 1 12 1C18.0751 1 23 5.92487 23 12ZM9.75897 20.7188C9.63105 20.274 9.5 19.756 9.5 19.5C9.5 19 8.5 18 8.5 18C8.5 18 6.5 17.5 6 16.5C5.5 15.5 6.5 14 6.5 14L3.10713 10.6071C3.0366 11.0611 3 11.5263 3 12C3 16.1969 5.87266 19.7228 9.75897 20.7188ZM21 12C21 7.71252 18.002 4.12528 13.9879 3.22029C13.9582 4.27269 13.8555 6.14452 13.5 6.5C13 7 10.5 7.5 10.5 7.5L9.5 9.5L6.5 10L7 12H12L16 13.5C16 13.5 16.8 13.7 16.5 14.5C16.1126 15.2748 14.8247 19.0512 14.2643 20.7128C18.1388 19.7087 21 16.1885 21 12Z"
        fill="currentColor" />
</svg>
