<svg width="24" height="24" viewBox="0 0 24 24" fill="none" xmlns="http://www.w3.org/2000/svg">
<path d="M6.58328 8.15842C6.58328 6.32114 8.07276 4.83203 9.90967 4.83203C11.7466 4.83203 13.2361 6.32114 13.2361 8.15842C13.2361 9.99569 11.7466 11.4848 9.90967 11.4848C8.07276 11.4848 6.58328 9.99569 6.58328 8.15842ZM3.99609 16.2157C3.99609 14.011 5.76277 12.224 7.93971 12.224H11.8796C14.0566 12.224 15.8232 14.011 15.8232 16.2157V17.3984C15.8232 18.2115 15.158 18.8768 14.3448 18.8768H5.47449C4.66137 18.8768 3.99609 18.2115 3.99609 17.3984V16.2157ZM20.2584 18.1376H17.2018V17.8352V16.6592V16.2157C17.2018 15.475 17.2018 16 17.2018 15.375L17.0725 14.8112C16.932 14.2649 16.6807 13.7637 16.3444 13.3328H18.0408C19.6745 13.3328 20.9976 14.6234 20.9976 16.2157L20.9976 17.3984C21.0159 17.7941 20.635 18.1517 20.2584 18.1376ZM16.5624 7.78882C15.3391 7.78882 14.3448 8.78156 14.3448 10.0064C14.3448 11.2313 15.3391 12.224 16.5624 12.224C17.7858 12.224 18.78 11.2313 18.78 10.0064C18.78 8.78156 17.7858 7.78882 16.5624 7.78882Z" fill="#E07058"/>
</svg>
