<svg width="14" height="14" viewBox="0 0 14 14" fill="currentColor" xmlns="http://www.w3.org/2000/svg">
  <g id="icon_brace">
    <g id="Union">
      <path
        d="M4.58367 1.02246C4.86997 1.02246 5.10206 1.28315 5.10206 1.56944C5.10206 1.85574 4.86997 2.05923 4.58367 2.05923H4.20827C3.71589 2.05923 3.48265 2.32803 3.48265 2.89121V5.39994C3.48265 6.03312 3.24344 6.50333 2.77159 6.80407C2.63709 6.8898 2.63235 7.12054 2.7652 7.20879C3.24128 7.52505 3.48265 7.98435 3.48265 8.59986V11.1214C3.48265 11.659 3.71589 11.9406 4.20827 11.9406H4.58368C4.86997 11.9406 5.10206 12.1875 5.10206 12.4737C5.10206 12.76 4.86997 12.9773 4.58368 12.9773H3.97504C3.40491 12.9773 2.96435 12.7853 2.65337 12.427C2.36831 12.0942 2.22578 11.6334 2.22578 11.0702V8.66386C2.22578 8.29267 2.14803 8.02387 1.99254 7.85748C1.89675 7.74933 1.49252 7.66886 1.12096 7.61342C0.810959 7.56716 0.576284 7.30842 0.582138 6.99504C0.587941 6.68442 0.817198 6.42393 1.12437 6.37743C1.49392 6.32148 1.89754 6.24287 1.99254 6.14232C2.14803 5.96313 2.22578 5.69433 2.22578 5.33594V2.94241C2.22578 2.36642 2.36831 1.90564 2.65337 1.57285C2.96435 1.20166 3.40491 1.02246 3.97504 1.02246H4.58367Z" />
      <path
        d="M9.50387 12.9774C9.21758 12.9774 8.98549 12.7167 8.98549 12.4304C8.98549 12.1441 9.21758 11.9406 9.50387 11.9406H9.87928C10.3717 11.9406 10.6049 11.6718 10.6049 11.1086V8.5999C10.6049 7.96672 10.8441 7.49651 11.316 7.19577C11.4505 7.11004 11.4552 6.8793 11.3223 6.79105C10.8463 6.47479 10.6049 6.01549 10.6049 5.39998V2.87845C10.6049 2.34086 10.3717 2.05927 9.87928 2.05927L9.50387 2.05927C9.21758 2.05927 8.98549 1.81238 8.98549 1.52609C8.98549 1.23979 9.21758 1.0225 9.50387 1.0225L10.1125 1.0225C10.6826 1.0225 11.1232 1.21449 11.4342 1.57289C11.7192 1.90568 11.8618 2.36646 11.8618 2.92965V5.33598C11.8618 5.70717 11.9395 5.97597 12.095 6.14236C12.1884 6.24779 12.5408 6.32941 12.8784 6.38659C13.1874 6.43894 13.4222 6.69795 13.4163 7.01132C13.4105 7.32195 13.1811 7.58206 12.8744 7.63119C12.5389 7.68492 12.1876 7.75955 12.095 7.85752C11.9395 8.03671 11.8618 8.3055 11.8618 8.66389V11.0574C11.8618 11.6334 11.7192 12.0942 11.4342 12.427C11.1232 12.7982 10.6826 12.9774 10.1125 12.9774H9.50387Z" />
    </g>
  </g>
</svg>
