<svg width="16" height="16" viewBox="0 0 16 16" fill="currentColor" xmlns="http://www.w3.org/2000/svg">
<path fill-rule="evenodd" clip-rule="evenodd" d="M13.7314 3.14187C14.3626 3.31164 14.8596 3.81188 15.0283 4.44708C15.3349 5.5984 15.3348 8.00067 15.3348 8.00067C15.3348 8.00067 15.3348 10.4028 15.0283 11.5542C14.8596 12.1894 14.3626 12.6896 13.7314 12.8595C12.5875 13.1679 8.00059 13.1679 8.00059 13.1679C8.00059 13.1679 3.41369 13.1679 2.26981 12.8595C1.63868 12.6895 1.14156 12.1894 0.972976 11.5541C0.666504 10.4027 0.666504 8.00061 0.666504 8.00061C0.666504 8.00061 0.666504 5.5984 0.972976 4.44708C1.14156 3.81188 1.63868 3.31164 2.26987 3.14187C3.41375 2.83334 8.00065 2.83334 8.00065 2.83334C8.00065 2.83334 12.5876 2.83334 13.7314 3.14187ZM10.334 8.00073L6.50028 10.1816V5.81961L10.334 8.00073Z" fill="#1D1C23"/>
</svg>
