<svg width="16" height="16" viewBox="0 0 16 16" fill="none" xmlns="http://www.w3.org/2000/svg">
<path d="M7.33334 7.33329V5.33329C7.33334 4.9651 7.63181 4.66663 8 4.66663C8.36819 4.66663 8.66667 4.9651 8.66667 5.33329V7.33329H10.6667C11.0349 7.33329 11.3333 7.63177 11.3333 7.99996C11.3333 8.36815 11.0349 8.66663 10.6667 8.66663H8.66667V10.6666C8.66667 11.0348 8.36819 11.3333 8 11.3333C7.63181 11.3333 7.33334 11.0348 7.33334 10.6666V8.66663H5.33334C4.96515 8.66663 4.66667 8.36815 4.66667 7.99996C4.66667 7.63177 4.96515 7.33329 5.33334 7.33329H7.33334ZM8 14C11.3137 14 14 11.3137 14 7.99996C14 4.68625 11.3137 1.99996 8 1.99996C4.6863 1.99996 2.00001 4.68625 2.00001 7.99996C2.00001 11.3137 4.6863 14 8 14ZM8 15.3333C3.94992 15.3333 0.666672 12.05 0.666672 7.99996C0.666672 3.94987 3.94992 0.666626 8 0.666626C12.0501 0.666626 15.3333 3.94987 15.3333 7.99996C15.3333 12.05 12.0501 15.3333 8 15.3333Z" fill="currentColor"/>
</svg>
