<svg width="16" height="16" viewBox="0 0 16 16" fill="none" xmlns="http://www.w3.org/2000/svg">
<g clip-path="url(#clip0_1947_29643)">
<path d="M3.5 6.5H6.5L6.5 3.75C6.5 3.19772 6.94771 2.75 7.5 2.75H8.5C9.05228 2.75 9.5 3.19772 9.5 3.75L9.5 6.5H12.5C13.0523 6.5 13.5 6.94772 13.5 7.5V12.5C13.5 13.0523 13.0523 13.5 12.5 13.5H3.5C2.94772 13.5 2.5 13.0523 2.5 12.5V7.5C2.5 6.94771 2.94772 6.5 3.5 6.5ZM7.5 3.75L7.5 6C7.5 6.82843 6.82843 7.5 6 7.5H3.5V8.5H12.5V7.5H10C9.17157 7.5 8.5 6.82843 8.5 6V3.75H7.5ZM3.5 9.5V12.5H5.5V11.25C5.5 10.9739 5.72386 10.75 6 10.75C6.27614 10.75 6.5 10.9739 6.5 11.25V12.5H7.5V11C7.5 10.7239 7.72386 10.5 8 10.5C8.27614 10.5 8.5 10.7239 8.5 11V12.5H9.5L9.5 11.25C9.5 10.9739 9.72386 10.75 10 10.75C10.2761 10.75 10.5 10.9739 10.5 11.25L10.5 12.5H12.5V9.5H3.5Z" fill="#1D1C23"/>
</g>
<defs>
<clipPath id="clip0_1947_29643">
<rect width="12" height="12" fill="white" transform="translate(2 2)"/>
</clipPath>
</defs>
</svg>
