<svg width="16" height="16" viewBox="0 0 16 16" fill="none" xmlns="http://www.w3.org/2000/svg">
<g id="icon_h1">
<g id="Union">
<path d="M1.33464 2C0.966446 2 0.667969 2.29848 0.667969 2.66667V13.3333C0.667969 13.7015 0.966446 14 1.33464 14C1.70283 14 2.0013 13.7015 2.0013 13.3333V8.66667H8.0013V13.3333C8.0013 13.7015 8.29978 14 8.66797 14C9.03616 14 9.33464 13.7015 9.33464 13.3333V2.66667C9.33464 2.29848 9.03616 2 8.66797 2C8.29978 2 8.0013 2.29848 8.0013 2.66667V7.33333H2.0013V2.66667C2.0013 2.29848 1.70283 2 1.33464 2Z" fill="#060709" fill-opacity="0.8"/>
<path d="M11.7372 8.60672C11.5597 8.69954 11.347 8.57046 11.347 8.37011C11.3472 8.01449 11.3477 7.85404 11.3497 7.3153C11.3501 7.21961 11.4017 7.13142 11.485 7.08425L13.331 6.03838C13.3725 6.0132 13.419 6 13.4662 6H14.4023C14.5577 6 14.6837 6.1398 14.6837 6.31226V13.2995C14.6837 13.6944 14.362 14.0146 13.9671 14.0146C13.5721 14.0146 13.2535 13.6944 13.2535 13.2995V7.81404L11.7372 8.60672Z" fill="#060709" fill-opacity="0.8"/>
</g>
</g>
</svg>
