<svg width="13" height="13" viewBox="0 0 13 13" fill="none" xmlns="http://www.w3.org/2000/svg">
<g id="icon_more-round_outlined">
<path id="Union" fill-rule="evenodd" clip-rule="evenodd" d="M5.43195 6.6488L8.92176 3.15801L9.80622 4.04248L6.31642 7.53326C6.09632 7.75337 5.49436 7.72996 5.30805 7.7169C5.27493 7.71458 5.25012 7.68974 5.24783 7.65661C5.23499 7.47032 5.21223 6.86852 5.43195 6.6488ZM10.482 3.36654L10.1011 3.74754L9.21661 2.86307L9.5975 2.48207C9.8611 2.21847 10.2728 2.20277 10.517 2.44701C10.7613 2.69124 10.7456 3.10293 10.482 3.36654ZM2.2602 3.67157C2.2602 3.53512 2.37082 3.4245 2.50728 3.4245H6.09094C6.36181 3.4245 6.5814 3.20491 6.5814 2.93404C6.5814 2.66317 6.36181 2.44359 6.09094 2.44359L2.50728 2.44359C1.82908 2.44359 1.2793 2.99338 1.2793 3.67157L1.2793 10.4534C1.2793 11.1315 1.82908 11.6813 2.50728 11.6813H9.28906C9.96676 11.6813 10.517 11.1326 10.517 10.4539V6.86969C10.517 6.59882 10.2975 6.37924 10.0266 6.37924C9.75572 6.37924 9.53613 6.59882 9.53613 6.86969V10.4539C9.53613 10.5899 9.42601 10.7004 9.28906 10.7004H2.50728C2.37082 10.7004 2.2602 10.5898 2.2602 10.4534L2.2602 3.67157Z" fill="white"/>
</g>
</svg>
