<svg width="16" height="17" viewBox="0 0 16 17" fill="none" xmlns="http://www.w3.org/2000/svg">
<path d="M8.73791 14.7039L10.0655 11.2538C10.1333 11.0778 10.2723 10.9387 10.4483 10.871L13.8984 9.5434C14.0073 9.5015 14.1033 9.43178 14.1767 9.34118C14.4087 9.05523 14.3649 8.6354 14.079 8.40345L11.208 6.07466C11.0615 5.95587 10.9723 5.78064 10.9622 5.59235L10.7657 1.90084C10.7595 1.78435 10.7229 1.67153 10.6594 1.57364C10.4591 1.26469 10.0463 1.17659 9.73736 1.37686L6.63536 3.3877C6.47714 3.49026 6.28289 3.52103 6.10072 3.47238L2.52916 2.51853C2.41646 2.48843 2.29783 2.48843 2.18513 2.51853C1.8294 2.61353 1.61805 2.97892 1.71305 3.33464L2.66689 6.9062C2.71555 7.08837 2.68478 7.28262 2.58221 7.44085L0.571382 10.5428C0.50793 10.6407 0.471272 10.7536 0.465071 10.87C0.445499 11.2377 0.727686 11.5516 1.09536 11.5712L4.78686 11.7677C4.97515 11.7777 5.15039 11.867 5.26918 12.0135L7.59797 14.8845C7.67146 14.975 7.76743 15.0448 7.8763 15.0867C8.21993 15.2189 8.60568 15.0475 8.73791 14.7039Z" fill="white"/>
<path d="M11.1426 11.9653L10.8909 12.6565L13.7374 15.5029C13.9978 15.7633 14.4199 15.7633 14.6802 15.5029C14.9406 15.2426 14.9406 14.8205 14.6802 14.5601L11.8338 11.7137L11.1426 11.9653Z" fill="white"/>
<path d="M8.73791 14.7039L10.0655 11.2538C10.1333 11.0778 10.2723 10.9387 10.4483 10.871L13.8984 9.5434C14.0073 9.5015 14.1033 9.43178 14.1767 9.34118C14.4087 9.05523 14.3649 8.6354 14.079 8.40345L11.208 6.07466C11.0615 5.95587 10.9723 5.78064 10.9622 5.59235L10.7657 1.90084C10.7595 1.78435 10.7229 1.67153 10.6594 1.57364C10.4591 1.26469 10.0463 1.17659 9.73736 1.37686L6.63536 3.3877C6.47714 3.49026 6.28289 3.52103 6.10072 3.47238L2.52916 2.51853C2.41646 2.48843 2.29783 2.48843 2.18513 2.51853C1.8294 2.61353 1.61805 2.97892 1.71305 3.33464L2.66689 6.9062C2.71555 7.08837 2.68478 7.28262 2.58221 7.44085L0.571382 10.5428C0.50793 10.6407 0.471272 10.7536 0.465071 10.87C0.445499 11.2377 0.727686 11.5516 1.09536 11.5712L4.78686 11.7677C4.97515 11.7777 5.15039 11.867 5.26918 12.0135L7.59797 14.8845C7.67146 14.975 7.76743 15.0448 7.8763 15.0867C8.21993 15.2189 8.60568 15.0475 8.73791 14.7039Z" stroke="white"/>
<path d="M11.1426 11.9653L10.8909 12.6565L13.7374 15.5029C13.9978 15.7633 14.4199 15.7633 14.6802 15.5029C14.9406 15.2426 14.9406 14.8205 14.6802 14.5601L11.8338 11.7137L11.1426 11.9653Z" stroke="white"/>
</svg>
