<svg width="17" height="16" viewBox="0 0 17 16" fill="none" xmlns="http://www.w3.org/2000/svg">
  <g id="icon_more-round_outlined">
    <path id="Rectangle 3473978"
      d="M13.0911 7.9996C13.0911 9.49873 13.0911 11.1414 13.0911 12.2544C13.0911 12.989 12.4957 13.5833 11.7611 13.5833L3.75187 13.5833C3.01733 13.5833 2.42187 12.9879 2.42187 12.2533L2.42187 4.24406C2.42187 3.50952 3.01734 2.91406 3.75188 2.91406L8.00561 2.91406"
      stroke="#1D1C23" stroke-opacity="0.6" stroke-width="1.33" stroke-linecap="round" />
    <path id="Subtract" fill-rule="evenodd" clip-rule="evenodd"
      d="M11.9111 2.91828L7.30498 7.52569C7.01202 7.81865 7.04237 8.62105 7.05949 8.86944C7.06254 8.91361 7.09562 8.94674 7.13979 8.94983C7.38819 8.96724 8.19081 8.99845 8.48428 8.70498L13.0904 4.09757L11.9111 2.91828ZM13.4835 3.70433L14.0383 3.14934C14.3898 2.79787 14.4107 2.24895 14.0851 1.9233C13.7594 1.59765 13.2105 1.61858 12.859 1.97005L12.3042 2.52503L13.4835 3.70433Z"
      fill="#1D1C23" fill-opacity="0.6" />
  </g>
</svg>
