<svg width="16" height="16" viewBox="0 0 16 16" fill="none" xmlns="http://www.w3.org/2000/svg">
<path d="M13.5013 13.5042C13.7617 13.2439 13.7636 12.8237 13.5032 12.5633L8.94005 8.00013L13.5032 3.43697C13.7636 3.17662 13.7617 2.7564 13.5013 2.49605C13.241 2.2357 12.8207 2.23382 12.5604 2.49416C12.3 2.75451 7.99724 7.05732 7.99724 7.05732L3.43404 2.49413C3.17369 2.23378 2.75347 2.23566 2.49312 2.49601C2.23277 2.75636 2.23088 3.17658 2.49123 3.43693L7.05443 8.00013L2.4912 12.5634C2.23085 12.8237 2.23273 13.2439 2.49308 13.5043C2.75343 13.7646 3.17366 13.7665 3.43401 13.5062L7.99724 8.94294L12.5604 13.5061C12.8208 13.7665 13.241 13.7646 13.5013 13.5042Z" fill="#747479" style="fill:#747479;fill:color(display-p3 0.4549 0.4549 0.4745);fill-opacity:1;"/>
</svg>
