<svg width="1em" height="1em" viewBox="0 0 16 16" fill="none" xmlns="http://www.w3.org/2000/svg">
  <path
    d="M6.5 5H6.95C7.11569 5 7.25 4.86569 7.25 4.7V4.3C7.25 4.13431 7.11569 4 6.95 4L6.5 4C4.29086 4 2.5 5.79086 2.5 8C2.5 10.2091 4.29086 12 6.5 12H6.95C7.11569 12 7.25 11.8657 7.25 11.7V11.3C7.25 11.1343 7.11569 11 6.95 11H6.5C4.84315 11 3.5 9.65685 3.5 8C3.5 6.34315 4.84315 5 6.5 5Z"
    fill="currentColor" />
  <path
    d="M9.5 5H9.05C8.88431 5 8.75 4.86569 8.75 4.7V4.3C8.75 4.13431 8.88431 4 9.05 4H9.5C11.7091 4 13.5 5.79086 13.5 8C13.5 10.2091 11.7091 12 9.5 12H9.05C8.88431 12 8.75 11.8657 8.75 11.7V11.3C8.75 11.1343 8.88431 11 9.05 11H9.5C11.1569 11 12.5 9.65685 12.5 8C12.5 6.34315 11.1569 5 9.5 5Z"
    fill="currentColor" />
  <path
    d="M6 7.5C5.72386 7.5 5.5 7.72386 5.5 8C5.5 8.27614 5.72386 8.5 6 8.5H10C10.2761 8.5 10.5 8.27614 10.5 8C10.5 7.72386 10.2761 7.5 10 7.5H6Z"
    fill="currentColor" />
</svg>
