<svg xmlns="http://www.w3.org/2000/svg" width="17" height="17" viewBox="0 0 17 17" fill="none">
  <g clip-path="url(#clip0_1095_46233)">
    <path d="M2.88802 2.81185V14.8118H8.22135V12.8118H9.55469C9.55469 13.4785 9.55469 14.1452 9.55469 14.8118C9.55469 15.5482 8.95773 16.1452 8.22135 16.1452H2.88802C2.15164 16.1452 1.55469 15.5482 1.55469 14.8118C1.55469 10.8118 1.55469 6.81185 1.55469 2.81185C1.55469 2.07547 2.15164 1.47852 2.88802 1.47852H8.22135C8.95773 1.47852 9.55469 2.07547 9.55469 2.81185C9.55469 3.47852 9.55469 4.14518 9.55469 4.81185H8.22135V2.81185H2.88802Z" fill="#1D1C23" fill-opacity="0.6"/>
    <path d="M12.4696 9.50644L7.55469 9.50644C7.1865 9.50644 6.88802 9.20797 6.88802 8.83978C6.88802 8.47159 7.1865 8.17311 7.55469 8.17311L12.4783 8.17311L11.0597 6.75453C10.7993 6.49418 10.7994 6.07207 11.0598 5.81179C11.3202 5.55152 11.7423 5.55151 12.002 5.81253C12.8467 6.66156 13.6874 7.51523 14.5408 8.35543C14.8085 8.61903 14.8085 9.05152 14.5408 9.31513C13.6872 10.1556 12.8463 11.0095 12.0015 11.8588C11.7421 12.1196 11.3197 12.1193 11.0596 11.8593C10.7994 11.5992 10.7991 11.177 11.0592 10.9169L12.4696 9.50644Z" fill="#1D1C23" fill-opacity="0.6"/>
  </g>
  <defs>
    <clipPath id="clip0_1095_46233">
      <rect width="16" height="16" fill="white" transform="translate(0.222656 0.8125)"/>
    </clipPath>
  </defs>
</svg>
