<svg xmlns="http://www.w3.org/2000/svg" width="20" height="20" viewBox="0 0 20 20" fill="none">
  <path d="M0.833496 10.0002C0.833496 15.0633 4.93701 19.1668 10.0002 19.1668C15.0633 19.1668 19.1668 15.0633 19.1668 10.0002C19.1668 4.93701 15.0633 0.833496 10.0002 0.833496C4.93701 0.833496 0.833496 4.93701 0.833496 10.0002Z" fill="#3EC254"/>
  <path d="M6.07757 9.75589C5.75214 10.0813 5.75214 10.609 6.07757 10.9344L8.4346 13.2914C8.76003 13.6169 9.28767 13.6169 9.61311 13.2914L14.3272 8.57737C14.6526 8.25194 14.6526 7.7243 14.3272 7.39886C14.0017 7.07343 13.4741 7.07343 13.1486 7.39886L9.02385 11.5237L7.25609 9.75589C6.93065 9.43045 6.40301 9.43045 6.07757 9.75589Z" fill="white"/>
</svg>
