<svg width="1em" height="1em" viewBox="0 0 12 12" fill="none" xmlns="http://www.w3.org/2000/svg">
<path d="M5.60355 8.35355L7.60355 6.35355C7.79882 6.15829 7.79882 5.84171 7.60355 5.64645L5.60355 3.64645C5.40829 3.45118 5.09171 3.45118 4.89645 3.64645C4.70118 3.84171 4.70118 4.15829 4.89645 4.35355L6.54289 6L4.89645 7.64645C4.70118 7.84171 4.70118 8.15829 4.89645 8.35355C5.09171 8.54882 5.40829 8.54882 5.60355 8.35355Z" fill="currentColor"/>
<path d="M11.5 6C11.5 9.03757 9.03757 11.5 6 11.5C2.96243 11.5 0.5 9.03757 0.5 6C0.5 2.96243 2.96243 0.5 6 0.5C9.03757 0.5 11.5 2.96243 11.5 6ZM10.5 6C10.5 3.51472 8.48528 1.5 6 1.5C3.51472 1.5 1.5 3.51472 1.5 6C1.5 8.48528 3.51472 10.5 6 10.5C8.48528 10.5 10.5 8.48528 10.5 6Z" fill="currentColor"/>
</svg>
