<svg width="16" height="16" viewBox="0 0 16 16" fill="none" xmlns="http://www.w3.org/2000/svg">
<path d="M3.33333 13.9999L12.6667 13.9999L12.6667 7.33325L14 7.33325L14 13.9999C14 14.7363 13.403 15.3333 12.6667 15.3333L3.33333 15.3333C2.59695 15.3333 2 14.7363 2 13.9999L2 1.99992C2 1.26354 2.59695 0.666588 3.33333 0.666588L8 0.666587L8 1.99992L3.33333 1.99992L3.33333 13.9999Z" fill="#1D1C23" fill-opacity="0.6" style="fill:#1D1C23;fill:color(display-p3 0.1137 0.1098 0.1373);fill-opacity:0.6;"/>
<path d="M4.66667 10.6666C4.66667 11.0348 4.96514 11.3333 5.33333 11.3333L7.33333 11.3333C7.70152 11.3333 8 11.0348 8 10.6666C8 10.2984 7.70152 9.99992 7.33333 9.99992L5.33333 9.99992C4.96514 9.99992 4.66667 10.2984 4.66667 10.6666Z" fill="#1D1C23" fill-opacity="0.6" style="fill:#1D1C23;fill:color(display-p3 0.1137 0.1098 0.1373);fill-opacity:0.6;"/>
<path d="M5.33333 8.66659C4.96514 8.66659 4.66667 8.36811 4.66667 7.99992C4.66667 7.63173 4.96514 7.33325 5.33333 7.33325L10.6667 7.33325C11.0349 7.33325 11.3333 7.63173 11.3333 7.99992C11.3333 8.36811 11.0349 8.66659 10.6667 8.66659L5.33333 8.66659Z" fill="#1D1C23" fill-opacity="0.6" style="fill:#1D1C23;fill:color(display-p3 0.1137 0.1098 0.1373);fill-opacity:0.6;"/>
<path d="M11.3333 5.33325C11.3333 5.70144 11.6318 5.99992 12 5.99992C12.3682 5.99992 12.6667 5.70144 12.6667 5.33325L12.6667 3.99992L14 3.99992C14.3682 3.99992 14.6667 3.70144 14.6667 3.33325C14.6667 2.96506 14.3682 2.66659 14 2.66659L12.6667 2.66659L12.6667 1.33325C12.6667 0.965064 12.3682 0.666587 12 0.666587C11.6318 0.666587 11.3333 0.965064 11.3333 1.33325L11.3333 2.66659L10 2.66659C9.63181 2.66659 9.33333 2.96506 9.33333 3.33325C9.33333 3.70144 9.63181 3.99992 10 3.99992L11.3333 3.99992L11.3333 5.33325Z" fill="#1D1C23" fill-opacity="0.6" style="fill:#1D1C23;fill:color(display-p3 0.1137 0.1098 0.1373);fill-opacity:0.6;"/>
</svg>
