<svg xmlns="http://www.w3.org/2000/svg" width="25" height="25" viewBox="0 0 25 25" fill="none">
    <path fill-rule="evenodd" clip-rule="evenodd"
        d="M13.4998 1.87488C12.881 1.51762 12.1186 1.51762 11.4998 1.87488L3.95581 6.23039C3.91128 6.2561 3.86798 6.28338 3.82597 6.31213L12.4966 11.4746L21.1733 6.31196C21.1314 6.28327 21.0882 6.25605 21.0437 6.23039L13.4998 1.87488ZM22.0437 8.12132L13.4964 13.207V22.763C13.4975 22.7623 13.4986 22.7617 13.4998 22.761L21.0437 18.4055C21.6625 18.0483 22.0437 17.388 22.0437 16.6735V8.12132ZM11.4964 22.7591V13.2068L2.95581 8.1217V16.6735C2.95581 17.388 3.33701 18.0483 3.95581 18.4055L11.4964 22.7591Z"
        fill="#8264E5" />
</svg>
