<svg xmlns="http://www.w3.org/2000/svg" width="16" height="16" viewBox="0 0 16 16" fill="inherit">
    <path
        d="M12.3337 8.16683C12.3337 7.5225 12.856 7.00016 13.5003 7.00016C14.1447 7.00016 14.667 7.5225 14.667 8.16683C14.667 8.81116 14.1447 9.3335 13.5003 9.3335C12.856 9.3335 12.3337 8.81116 12.3337 8.16683Z"
        fill="inherit" />
    <path
        d="M6.85007 8.16683C6.85007 7.5225 7.3724 7.00016 8.01673 7.00016C8.66107 7.00016 9.1834 7.5225 9.1834 8.16683C9.1834 8.81116 8.66107 9.3335 8.01674 9.3335C7.3724 9.3335 6.85007 8.81116 6.85007 8.16683Z"
        fill="inherit" />
    <path
        d="M1.33366 8.16683C1.33366 7.5225 1.85599 7.00016 2.50032 7.00016C3.14466 7.00016 3.66699 7.5225 3.66699 8.16683C3.66699 8.81116 3.14466 9.3335 2.50033 9.3335C1.85599 9.3335 1.33366 8.81116 1.33366 8.16683Z"
        fill="inherit" />
</svg>
