<svg xmlns="http://www.w3.org/2000/svg" width="20" height="20" viewBox="0 0 20 20" fill="none">
    <path
        d="M9.99992 19.1663C15.0625 19.1663 19.1666 15.0623 19.1666 9.99967C19.1666 4.93706 15.0625 0.833008 9.99992 0.833008C4.93731 0.833008 0.833252 4.93706 0.833252 9.99967C0.833252 15.0623 4.93731 19.1663 9.99992 19.1663ZM14.9025 8.18497L9.73774 14.509C9.50233 14.8169 9.13745 14.9981 8.74992 14.9997C8.36238 15.0013 7.99603 14.823 7.7581 14.5171L4.84662 11.1838C4.42278 10.6388 4.52095 9.8535 5.06588 9.42966C5.61082 9.00583 6.39616 9.10399 6.82 9.64893L8.73641 11.7029L12.9166 6.66634C13.3359 6.11795 14.1205 6.01335 14.6688 6.43271C15.2172 6.85206 15.3218 7.63658 14.9025 8.18497Z"
        fill="#3BB346" />
</svg>
