<svg width="16" height="16" viewBox="0 0 16 16" fill="none" xmlns="http://www.w3.org/2000/svg">
<g id="icon_minimize_outlined">
<g id="Union">
<path d="M12.431 6.27803H10.6975L13.6843 3.29116C13.9475 3.02801 13.9431 2.59853 13.6807 2.33455C13.4252 2.07736 13.0115 2.07843 12.7551 2.33481L9.76431 5.32558V3.61137C9.76431 3.24318 9.46584 2.9447 9.09765 2.9447C8.72946 2.9447 8.43098 3.24318 8.43098 3.61137V6.9447C8.43098 7.12879 8.5056 7.29546 8.62624 7.4161C8.74689 7.53675 8.91355 7.61136 9.09765 7.61136H12.431C12.7992 7.61136 13.0976 7.31289 13.0976 6.9447C13.0976 6.57651 12.7992 6.27803 12.431 6.27803Z" fill="#060709" fill-opacity="0.8"/>
<path d="M3.58536 9.73074H5.31886L2.33199 12.7176C2.06883 12.9808 2.07326 13.4102 2.33558 13.6742C2.59115 13.9314 3.00488 13.9303 3.26126 13.674L6.25202 10.6832L6.25202 12.3974C6.25202 12.7656 6.5505 13.0641 6.91869 13.0641C7.28688 13.0641 7.58535 12.7656 7.58535 12.3974V9.06408C7.58535 8.87998 7.51074 8.71332 7.39009 8.59267C7.26945 8.47203 7.10278 8.39741 6.91869 8.39741L3.58535 8.39741C3.21717 8.39741 2.91869 8.69589 2.91869 9.06408C2.91869 9.43227 3.21717 9.73074 3.58536 9.73074Z" fill="#060709" fill-opacity="0.8"/>
</g>
</g>
</svg>
