<svg xmlns="http://www.w3.org/2000/svg" width="1em" height="1em" viewBox="0 0 24 24" fill="currentColor">
  <path fill-rule="evenodd" clip-rule="evenodd"
    d="M10.717 1.19388C11.511 0.735504 12.4891 0.735505 13.283 1.19388L20.7171 5.48592C21.511 5.94429 22.0001 6.7914 22.0001 7.70815V16.2922C22.0001 17.209 21.511 18.0561 20.7171 18.5145L13.283 22.8065C12.4891 23.2649 11.511 23.2649 10.717 22.8065L3.283 18.5145C2.48908 18.0561 2 17.209 2 16.2922V7.70815C2 6.7914 2.48908 5.94429 3.28301 5.48592L10.717 1.19388ZM19.289 6.97084L12.283 2.92593C12.1079 2.82482 11.8922 2.82482 11.717 2.92593L4.70752 6.97287L11.9965 11.1812L19.289 6.97084ZM4 8.87379V16.2922C4 16.4944 4.10788 16.6813 4.283 16.7824L10.9965 20.6585V12.9132L4 8.87379ZM12.9965 20.6625L19.7171 16.7824C19.8922 16.6813 20.0001 16.4944 20.0001 16.2922V8.86972L12.9965 12.9132V20.6625Z"
    fill="currentColor" />
</svg>
