<svg xmlns="http://www.w3.org/2000/svg" width="1em" height="1em" viewBox="0 0 24 24" fill="currentColor">
  <path fill-rule="evenodd" clip-rule="evenodd"
    d="M1.49258 7.49648C2.00237 5.27213 3.80288 3.69414 6.02785 3.18703C7.61682 2.82488 9.67702 2.50542 12.0006 2.50542C14.3243 2.50542 16.3844 2.82488 17.9734 3.18703C20.1983 3.69413 21.9988 5.27212 22.5086 7.49644C22.7853 8.70384 23.0011 10.2328 23.0011 12.0653C23.0011 14.1379 22.725 15.8008 22.397 17.0451C21.9032 18.9182 20.4115 20.2757 18.5319 20.7441C16.9695 21.1335 14.7736 21.4943 12.0006 21.4943C9.22765 21.4943 7.03182 21.1335 5.46937 20.7442C3.58973 20.2757 2.09802 18.9182 1.6042 17.0451C1.27614 15.8007 1.00009 14.1379 1.00009 12.0653C1.00009 10.2329 1.21587 8.70388 1.49258 7.49648ZM6.57517 10.9013C6.57517 10.2593 7.09562 9.73881 7.73762 9.73881C8.37963 9.73881 8.90008 10.2593 8.90008 10.9013V12.4512C8.90008 13.0932 8.37963 13.6137 7.73762 13.6137C7.09562 13.6137 6.57517 13.0932 6.57517 12.4512V10.9013ZM16.262 9.73881C15.62 9.73881 15.0996 10.2593 15.0996 10.9013V12.4512C15.0996 13.0932 15.62 13.6137 16.262 13.6137C16.9041 13.6137 17.4245 13.0932 17.4245 12.4512V10.9013C17.4245 10.2593 16.9041 9.73881 16.262 9.73881Z"
    fill="currentColor" />
</svg>
