<svg width="12" height="12" viewBox="0 0 12 12" fill="currentColor" xmlns="http://www.w3.org/2000/svg">
  <g id="icon_reply_outlined">
    <path id="Union"
      d="M5.99246 3.75536L5.99745 1.70856C5.99854 1.26294 5.462 1.03692 5.14646 1.35158C4.06301 2.43201 2.21212 4.27879 1.18476 5.30967C0.802086 5.69366 0.803408 6.30688 1.18626 6.69069C2.2082 7.71519 4.06141 9.56533 5.14618 10.6479C5.46168 10.9627 5.99853 10.7368 5.99744 10.291L5.99246 8.2577H6.50628C8.50087 8.2577 10.0118 8.65829 10.9287 9.83628C11.1148 10.0754 11.5004 9.92689 11.5004 9.6239C11.5004 9.53571 11.5004 9.46371 11.5004 9.42307C11.5004 6.34288 9.03449 3.75536 5.99246 3.75536ZM5.9923 4.75807C7.96509 4.75807 9.79331 6.21968 10.2492 7.93179C9.22536 7.3194 7.45874 7.25196 6.00554 7.25196H5.00085V9.00067L2.13003 6.35557C1.92101 6.16299 1.91435 5.83512 2.11538 5.63421L5.00085 2.75039V4.75084L5.9923 4.75807Z"
      fill="currentColor" />
  </g>
</svg>
