<svg width="18" height="19" viewBox="0 0 18 19" fill="none" xmlns="http://www.w3.org/2000/svg">
  <g id="Random">
    <path id="Vector"
      d="M14.9292 4.9645L10.264 2.27153C9.58545 1.87954 8.41299 1.87954 7.73623 2.27153L3.071 4.9645C2.37314 5.36528 1.80713 6.3479 1.80713 7.15298V12.5407C1.80713 13.3458 2.37314 14.3284 3.071 14.7291L7.73623 17.4221C8.07549 17.6172 8.52373 17.7262 9.0001 17.7262C9.47471 17.7262 9.92471 17.619 10.264 17.4221L14.9292 14.7291C15.6271 14.3284 16.1931 13.3458 16.1931 12.5407V7.15298C16.1931 6.3479 15.6271 5.36528 14.9292 4.9645ZM8.63271 16.0616C8.63271 16.2233 8.59756 16.3569 8.53428 16.436C8.48682 16.494 8.42705 16.5221 8.34268 16.5221C8.24951 16.5221 8.13701 16.4852 8.01748 16.4166L3.71611 13.9346C3.21338 13.6446 2.78623 12.9063 2.78623 12.3262V7.79634C2.78623 7.65747 2.81436 7.33579 3.07627 7.33579C3.16943 7.33579 3.28193 7.3727 3.40146 7.44126L7.70107 9.92329C8.20381 10.2133 8.63096 10.9516 8.63096 11.5317L8.63271 16.0616ZM8.99834 9.15864C8.64678 9.15864 8.30752 9.07954 8.06846 8.94243L3.76885 6.4604C3.58428 6.35317 3.47705 6.22485 3.47705 6.10532C3.47705 5.98579 3.58252 5.85747 3.76885 5.75024L8.06846 3.26645C8.30576 3.12935 8.64678 3.05024 8.99834 3.05024C9.3499 3.05024 9.68916 3.12935 9.92822 3.26645L14.2278 5.74849C14.4124 5.85571 14.5179 5.98403 14.5179 6.10356C14.5179 6.2231 14.4124 6.35142 14.2278 6.45864L9.92822 8.94243C9.68916 9.07954 9.3499 9.15864 8.99834 9.15864ZM15.1542 12.3227C15.1542 12.9045 14.7288 13.6411 14.2243 13.9311L10.4028 16.1459L10.0776 16.2514C9.81572 16.2514 9.7876 15.9297 9.7876 15.7909V11.2645C9.7876 10.6827 10.213 9.94614 10.7175 9.6561L14.539 7.44126C14.6585 7.3727 14.771 7.33579 14.8642 7.33579C15.1261 7.33579 15.1542 7.65747 15.1542 7.79634V12.3227Z"
      fill="currentColor" />
    <path id="Vector_2"
      d="M4.21016 9.12344C3.87793 9.12344 3.60547 9.48555 3.60547 9.93203C3.60547 10.3768 3.87617 10.7406 4.21016 10.7406C4.54414 10.7406 4.81484 10.3785 4.81484 9.93203C4.81484 9.48555 4.54238 9.12344 4.21016 9.12344ZM4.21016 11.8709C3.87793 11.8709 3.60547 12.233 3.60547 12.6795C3.60547 13.1242 3.87617 13.4881 4.21016 13.4881C4.54414 13.4881 4.81484 13.126 4.81484 12.6795C4.81309 12.233 4.54238 11.8709 4.21016 11.8709ZM6.53223 13.0398C6.2 13.0398 5.92754 13.402 5.92754 13.8484C5.92754 14.2932 6.19824 14.657 6.53223 14.657C6.86445 14.657 7.13691 14.2949 7.13691 13.8484C7.13516 13.402 6.86445 13.0398 6.53223 13.0398ZM11.7371 10.5895C11.4049 10.5895 11.1324 10.9516 11.1324 11.398C11.1324 11.8428 11.4031 12.2066 11.7371 12.2066C12.0711 12.2066 12.3418 11.8445 12.3418 11.398C12.3418 10.9516 12.0729 10.5895 11.7371 10.5895ZM13.6777 11.4543C13.3455 11.4543 13.073 11.8164 13.073 12.2629C13.073 12.7094 13.3438 13.0715 13.6777 13.0715C14.01 13.0715 14.2824 12.7094 14.2824 12.2629C14.2824 11.8164 14.0117 11.4543 13.6777 11.4543ZM8.97383 5.46191C8.48516 5.46191 8.08613 5.73262 8.08613 6.0666C8.08613 6.39883 8.4834 6.67129 8.97383 6.67129C9.46426 6.67129 9.86152 6.40059 9.86152 6.0666C9.86152 5.73438 9.4625 5.46191 8.97383 5.46191ZM6.73789 10.3469C6.40566 10.3469 6.1332 10.709 6.1332 11.1555C6.1332 11.6002 6.40391 11.9641 6.73789 11.9641C6.90664 11.9641 7.06836 11.8691 7.18262 11.7021C7.28457 11.5527 7.34082 11.3594 7.34082 11.159C7.34258 10.709 7.07012 10.3469 6.73789 10.3469Z"
      fill="currentColor" />
  </g>
</svg>
