<svg xmlns="http://www.w3.org/2000/svg" width="12" height="12" viewBox="0 0 12 12" fill="none">
<path d="M5.5 4C5.5 3.72386 5.72386 3.5 6 3.5C6.27614 3.5 6.5 3.72386 6.5 4V5.5H8C8.27614 5.5 8.5 5.72386 8.5 6C8.5 6.27614 8.27614 6.5 8 6.5C7.33333 6.5 6.66667 6.5 6 6.5C5.72386 6.5 5.5 6.27614 5.5 6V4Z" fill="#1D1C23" fill-opacity="0.35"/>
<path d="M6 11.5C9.03757 11.5 11.5 9.03757 11.5 6C11.5 2.96243 9.03757 0.5 6 0.5C2.96243 0.5 0.5 2.96243 0.5 6C0.5 9.03757 2.96243 11.5 6 11.5ZM6 10.5C3.51472 10.5 1.5 8.48528 1.5 6C1.5 3.51472 3.51472 1.5 6 1.5C8.48528 1.5 10.5 3.51472 10.5 6C10.5 8.48528 8.48528 10.5 6 10.5Z" fill="#1D1C23" fill-opacity="0.35"/>
</svg>
