<svg width="1em" height="1em"  viewBox="0 0 14 14" fill="none" xmlns="http://www.w3.org/2000/svg">
    <path d="M10.3999 4.6667C8.65902 4.67091 7.28031 4.98927 6.12282 5.61956C5.0154 6.22259 4.15314 7.10052 3.56089 8.22807C3.46568 8.40935 3.37771 8.59595 3.29699 8.78841C3.26152 8.87299 3.21646 8.99058 3.16181 9.14116C3.11995 9.25652 3.01036 9.33333 2.88764 9.33333H2.26859C2.1075 9.33334 1.97691 9.20275 1.97691 9.04166C1.97691 9.01098 1.98176 8.98049 1.99126 8.95132C2.0026 8.9165 2.01297 8.88549 2.02235 8.8583C2.16601 8.44209 2.33625 8.04985 2.53208 7.67787C3.23272 6.34701 4.26087 5.30254 5.57094 4.59078C6.87341 3.88315 8.42823 3.50439 10.4 3.50003L8.91989 2.01997C8.69278 1.79286 8.69494 1.42427 8.92205 1.19717C9.14915 0.970065 9.51774 0.967904 9.74485 1.19501L12.4269 3.87708C12.5408 3.99099 12.5408 4.17566 12.4269 4.28956L9.74266 6.97383C9.51718 7.19931 9.1503 7.19219 8.92482 6.96671C8.69934 6.74124 8.69223 6.37435 8.91771 6.14887L10.3999 4.6667ZM11.6667 10.5C11.9888 10.5 12.25 10.7612 12.25 11.0833V12.25C12.25 12.5722 11.9888 12.8333 11.6667 12.8333H2.33333C2.01117 12.8333 1.75 12.5722 1.75 12.25V11.0833C1.75 10.7612 2.01117 10.5 2.33333 10.5C2.6555 10.5 2.91667 10.7612 2.91667 11.0833V11.6667H11.0833V11.0833C11.0833 10.7612 11.3445 10.5 11.6667 10.5Z" fill="currentColor" fill-opacity="0.8"/>
</svg>
