<svg width="14" height="14" viewBox="0 0 14 14" fill="currentColor" xmlns="http://www.w3.org/2000/svg">
  <g id="icon_image">
    <path id="Union"
      d="M5.91688 10.493L3.42294 10.487C3.32629 10.4868 3.24813 10.4083 3.24836 10.3116C3.24848 10.2653 3.2669 10.221 3.29962 10.1883L5.71042 7.77748C5.80154 7.68636 5.94928 7.68636 6.04041 7.77748L7.15287 8.88994L10.103 5.93984C10.1941 5.84871 10.3418 5.84871 10.433 5.93984C10.4767 5.98359 10.5013 6.04294 10.5013 6.10483V10.3248C10.5013 10.4215 10.423 10.4998 10.3263 10.4998H5.96546C5.9486 10.4998 5.9323 10.4975 5.91688 10.493ZM2.33464 12.8332C1.69297 12.8332 1.16797 12.3082 1.16797 11.6665V2.33317C1.16797 1.6915 1.69297 1.1665 2.33464 1.1665H11.668C12.3096 1.1665 12.8346 1.6915 12.8346 2.33317V11.6665C12.8346 12.3082 12.3096 12.8332 11.668 12.8332H2.33464ZM2.33464 11.6665H11.668V2.33317H2.33464V11.6665ZM3.5013 3.49984H5.2513V5.24984H3.5013V3.49984Z" />
  </g>
</svg>
