<svg width="16" height="16" viewBox="0 0 16 16" fill="none" xmlns="http://www.w3.org/2000/svg">
    <path
        d="M2.00033 6H6.00032L6.00032 2.33333C6.00032 1.59695 6.59728 1 7.33366 1H8.66699C9.40337 1 10.0003 1.59695 10.0003 2.33333L10.0003 6H14.0003C14.7367 6 15.3337 6.59695 15.3337 7.33333V14C15.3337 14.7364 14.7367 15.3333 14.0003 15.3333H2.00033C1.26395 15.3333 0.666992 14.7364 0.666992 14V7.33333C0.666992 6.59695 1.26395 6 2.00033 6ZM7.33366 2.33333L7.33366 6.33333C7.33366 6.88562 6.88594 7.33333 6.33366 7.33333H2.00033V8.66667H14.0003V7.33333H9.66699C9.11471 7.33333 8.66699 6.88562 8.66699 6.33333V2.33333H7.33366ZM2.00033 10V14H4.66699V12.3333C4.66699 11.9651 4.96547 11.6667 5.33366 11.6667C5.70185 11.6667 6.00032 11.9651 6.00032 12.3333V14H7.33366V12C7.33366 11.6318 7.63214 11.3333 8.00033 11.3333C8.36852 11.3333 8.66699 11.6318 8.66699 12V14H10.0003L10.0003 12.3333C10.0003 11.9651 10.2988 11.6667 10.667 11.6667C11.0352 11.6667 11.3337 11.9651 11.3337 12.3333L11.3337 14H14.0003V10H2.00033Z"
        fill="currentColor" />
</svg>
