<svg width="14" height="14" viewBox="0 0 24 24" fill="none" xmlns="http://www.w3.org/2000/svg">
<path d="M12 21C16.9705 21 21 16.9705 21 12C21 7.0295 16.9705 3 12 3C7.0295 3 3 7.0295 3 12C3 16.9705 7.0295 21 12 21ZM12 23C5.925 23 1 18.075 1 12C1 5.925 5.925 1 12 1C18.075 1 23 5.925 23 12C23 18.075 18.075 23 12 23ZM11 15.5V11.5C10.4477 11.5 10 11.0523 10 10.5C10 9.94771 10.4477 9.5 11 9.5H12.0036C12.5545 9.5 13.0017 9.94552 13.0025 10.4964C13.005 12.1642 13 13.8322 13 15.5H13.5C14.0523 15.5 14.5 15.9477 14.5 16.5C14.5 17.0523 14.0523 17.5 13.5 17.5H10.5C9.94772 17.5 9.5 17.0523 9.5 16.5C9.5 15.9477 9.94772 15.5 10.5 15.5H11ZM12 8.5C11.4477 8.5 11 8.05228 11 7.5C11 6.94771 11.4477 6.5 12 6.5C12.5523 6.5 13 6.94771 13 7.5C13 8.05228 12.5523 8.5 12 8.5Z" fill="currentColor"/>
</svg>
