<svg width="16" height="16" viewBox="0 0 16 16" fill="none" xmlns="http://www.w3.org/2000/svg">
<path d="M7.99992 1.33398C7.63173 1.33398 7.33325 1.63246 7.33325 2.00065V7.33398H1.99992C1.63173 7.33398 1.33325 7.63246 1.33325 8.00065C1.33325 8.36884 1.63173 8.66732 1.99992 8.66732H7.33325V14.0007C7.33325 14.3688 7.63173 14.6673 7.99992 14.6673C8.36811 14.6673 8.66659 14.3688 8.66659 14.0007V8.66732H13.9999C14.3681 8.66732 14.6666 8.36884 14.6666 8.00065C14.6666 7.63246 14.3681 7.33398 13.9999 7.33398H8.66659V2.00065C8.66659 1.63246 8.36811 1.33398 7.99992 1.33398Z" fill="#1D1C23" fill-opacity="0.8"/>
</svg>
