<svg width="14" height="14" viewBox="0 0 16 16" fill="none" xmlns="http://www.w3.org/2000/svg">
<g clip-path="url(#clip0_1511_416171)">
<path d="M8 16C5.87827 16 3.84344 15.1571 2.34315 13.6569C0.842855 12.1566 0 10.1217 0 8C0 5.87827 0.842855 3.84344 2.34315 2.34315C3.84344 0.842855 5.87827 0 8 0C10.1217 0 12.1566 0.842855 13.6569 2.34315C15.1571 3.84344 16 5.87827 16 8C16 10.1217 15.1571 12.1566 13.6569 13.6569C12.1566 15.1571 10.1217 16 8 16ZM8 7.05733L6.11467 5.172C6.05317 5.10833 5.97961 5.05754 5.89827 5.0226C5.81693 4.98766 5.72945 4.96927 5.64093 4.9685C5.55241 4.96773 5.46463 4.9846 5.3827 5.01812C5.30077 5.05164 5.22633 5.10114 5.16374 5.16374C5.10114 5.22633 5.05164 5.30077 5.01812 5.3827C4.9846 5.46463 4.96773 5.55241 4.9685 5.64093C4.96927 5.72945 4.98766 5.81693 5.0226 5.89827C5.05754 5.97961 5.10833 6.05317 5.172 6.11467L7.05733 8L5.172 9.88533C5.10833 9.94683 5.05754 10.0204 5.0226 10.1017C4.98766 10.1831 4.96927 10.2705 4.9685 10.3591C4.96773 10.4476 4.9846 10.5354 5.01812 10.6173C5.05164 10.6992 5.10114 10.7737 5.16374 10.8363C5.22633 10.8989 5.30077 10.9484 5.3827 10.9819C5.46463 11.0154 5.55241 11.0323 5.64093 11.0315C5.72945 11.0307 5.81693 11.0123 5.89827 10.9774C5.97961 10.9425 6.05317 10.8917 6.11467 10.828L8 8.94267L9.88533 10.828C9.94683 10.8917 10.0204 10.9425 10.1017 10.9774C10.1831 11.0123 10.2705 11.0307 10.3591 11.0315C10.4476 11.0323 10.5354 11.0154 10.6173 10.9819C10.6992 10.9484 10.7737 10.8989 10.8363 10.8363C10.8989 10.7737 10.9484 10.6992 10.9819 10.6173C11.0154 10.5354 11.0323 10.4476 11.0315 10.3591C11.0307 10.2705 11.0123 10.1831 10.9774 10.1017C10.9425 10.0204 10.8917 9.94683 10.828 9.88533L8.94267 8L10.828 6.11467C10.8917 6.05317 10.9425 5.97961 10.9774 5.89827C11.0123 5.81693 11.0307 5.72945 11.0315 5.64093C11.0323 5.55241 11.0154 5.46463 10.9819 5.3827C10.9484 5.30077 10.8989 5.22633 10.8363 5.16374C10.7737 5.10114 10.6992 5.05164 10.6173 5.01812C10.5354 4.9846 10.4476 4.96773 10.3591 4.9685C10.2705 4.96927 10.1831 4.98766 10.1017 5.0226C10.0204 5.05754 9.94683 5.10833 9.88533 5.172L8 7.05733Z" fill="currentColor"/>
</g>
<defs>
<clipPath id="clip0_1511_416171">
<rect width="16" height="16" fill="white"/>
</clipPath>
</defs>
</svg>
