<svg width="20" height="20" viewBox="0 0 20 20" fill="none" xmlns="http://www.w3.org/2000/svg">
  <path fill-rule="evenodd" clip-rule="evenodd"
    d="M14.7125 5.67851C17.316 8.28201 17.316 12.5031 14.7125 15.1066L15.8911 16.2851C19.1454 13.0307 19.1454 7.75437 15.8911 4.5L14.7125 5.67851ZM12.3555 8.17851C13.6572 9.48026 13.6572 11.5908 12.3555 12.8926L13.534 14.0711C15.4866 12.1184 15.4866 8.95262 13.534 7L12.3555 8.17851Z"
    fill="currentColor" />
  <path
    d="M2 7.5C2 7.03976 2.3731 6.66667 2.83333 6.66667H5.75L8.83117 2.52109C9.30999 1.87687 10.3333 2.21552 10.3333 3.0182V17.3049C10.3333 18.0715 9.38538 18.4314 8.8766 17.8579L5.75 14.3333H2.83333C2.3731 14.3333 2 13.9602 2 13.5V7.5Z"
    fill="currentColor" stroke="currentColor" stroke-width="2" />
</svg>
