<svg width="24" height="24" viewBox="0 0 24 24" fill="none" xmlns="http://www.w3.org/2000/svg">
<mask id="mask0_986_144" style="mask-type:alpha" maskUnits="userSpaceOnUse" x="0" y="0" width="24" height="24">
<rect width="24" height="24" fill="#D9D9D9"/>
</mask>
<g mask="url(#mask0_986_144)">
</g>
<path fill-rule="evenodd" clip-rule="evenodd" d="M12.9998 3.57752C12.381 3.22025 11.6186 3.22025 10.9998 3.57752L5.20557 6.92282C5.08971 6.98971 4.98219 7.06722 4.88393 7.15371L11.9972 11.389L19.1155 7.15359C19.0173 7.06714 18.9098 6.98968 18.794 6.92282L12.9998 3.57752ZM19.788 8.49893L12.7471 12.6882V20.546C12.8334 20.5112 12.9178 20.4701 12.9998 20.4228L18.794 17.0775C19.4128 16.7203 19.794 16.06 19.794 15.3455V8.65487C19.794 8.60257 19.792 8.55056 19.788 8.49893ZM11.2471 20.5438V12.6881L4.21162 8.49916C4.2076 8.55071 4.20557 8.60265 4.20557 8.65487V15.3455C4.20557 16.06 4.58676 16.7203 5.20557 17.0775L10.9998 20.4228C11.08 20.4691 11.1626 20.5094 11.2471 20.5438Z" fill="#8264E5"/>
</svg>
