<svg width="49" height="48" viewBox="0 0 49 48" fill="none" xmlns="http://www.w3.org/2000/svg">
  <path fill-rule="evenodd" clip-rule="evenodd"
    d="M5.34757 4.38777C5.06488 4.38302 4.83449 4.61341 4.83924 4.8961L4.98651 13.6569C4.99087 13.9162 5.09584 14.1637 5.27926 14.3472L29.868 38.9359L29.3969 39.4071C29.0063 39.7977 29.0063 40.4308 29.3969 40.8213L30.8111 42.2356C31.2016 42.6261 31.8348 42.6261 32.2253 42.2356L36.0414 38.4194L37.9018 40.2799C37.689 41.3985 38.0155 42.5995 38.8814 43.4654C40.2715 44.8556 42.5254 44.8556 43.9155 43.4654C45.3056 42.0753 45.3056 39.8215 43.9155 38.4314C43.0497 37.5656 41.849 37.239 40.7305 37.4516L38.8698 35.591L42.6858 31.775C43.0763 31.3845 43.0763 30.7514 42.6858 30.3608L41.2716 28.9466C40.8811 28.5561 40.2479 28.5561 39.8574 28.9466L39.3874 29.4166L14.7986 4.82778C14.6152 4.64436 14.3677 4.53939 14.1083 4.53503L5.34757 4.38777ZM12.4237 8.50728C12.6831 8.51164 12.9306 8.61661 13.114 8.80003L36.5585 32.2445L32.696 36.107L9.25151 12.6625C9.06808 12.4791 8.96311 12.2316 8.95875 11.9722L8.9082 8.96506C8.90345 8.68237 9.13385 8.45198 9.41654 8.45673L12.4237 8.50728Z"
    fill="currentColor" />
  <path
    d="M44.8742 4.97397C44.879 4.69128 44.6486 4.46088 44.3659 4.46563L35.6051 4.6129C35.3458 4.61726 35.0983 4.72223 34.9148 4.90565L27.7338 12.0867L30.5622 14.9151L36.5994 8.8779C36.7829 8.69448 37.0304 8.58951 37.2897 8.58515L40.2969 8.5346C40.5796 8.52985 40.81 8.76024 40.8053 9.04293L40.7547 12.0501C40.7504 12.3095 40.6454 12.557 40.462 12.7404L34.4247 18.7776L37.2532 21.6061L44.4342 14.425C44.6176 14.2416 44.7226 13.9941 44.727 13.7347L44.8742 4.97397Z"
    fill="currentColor" />
  <path
    d="M10.326 29.4944L12.5176 27.3029L15.346 30.1313L13.155 32.3224L17.0175 36.1849L19.2085 33.9938L22.037 36.8223L19.8454 39.0138L20.3166 39.485C20.7071 39.8755 20.7071 40.5087 20.3166 40.8992L18.9024 42.3134C18.5119 42.704 17.8787 42.704 17.4882 42.3134L13.6721 38.4973L11.8116 40.3577C12.0245 41.4764 11.6979 42.6774 10.832 43.5433C9.44192 44.9334 7.18809 44.9334 5.79796 43.5433C4.40784 42.1532 4.40784 39.8993 5.79796 38.5092C6.66373 37.6435 7.8645 37.3169 8.983 37.5295L10.8436 35.6689L7.02767 31.8529C6.63714 31.4624 6.63714 30.8292 7.02767 30.4387L8.44188 29.0245C8.8324 28.634 9.46557 28.634 9.85609 29.0245L10.326 29.4944Z"
    fill="currentColor" />
</svg>
