<svg xmlns="http://www.w3.org/2000/svg" width="20" height="20" viewBox="0 0 20 20" fill="none">
  <path d="M10.0002 19.1668C15.0628 19.1668 19.1668 15.0628 19.1668 10.0002C19.1668 4.93755 15.0628 0.833496 10.0002 0.833496C4.93755 0.833496 0.833496 4.93755 0.833496 10.0002C0.833496 15.0628 4.93755 19.1668 10.0002 19.1668Z" fill="#FF441E"/>
  <path d="M9.99984 5.8335C9.5396 5.8335 9.1665 6.20659 9.1665 6.66683V10.8335C9.1665 11.2937 9.5396 11.6668 9.99984 11.6668C10.4601 11.6668 10.8332 11.2937 10.8332 10.8335V6.66683C10.8332 6.20659 10.4601 5.8335 9.99984 5.8335Z" fill="white"/>
  <path d="M9.99984 14.1668C10.4601 14.1668 10.8332 13.7937 10.8332 13.3335C10.8332 12.8733 10.4601 12.5002 9.99984 12.5002C9.5396 12.5002 9.1665 12.8733 9.1665 13.3335C9.1665 13.7937 9.5396 14.1668 9.99984 14.1668Z" fill="white"/>
</svg>
