<svg width="14" height="14" viewBox="0 0 16 16" fill="none" xmlns="http://www.w3.org/2000/svg">
<path d="M11.2472 15H5.8265C5.57631 15 5.40953 14.8575 5.40953 14.6437V12.1496H3.32463C3.07445 12.1496 2.90766 12.0071 2.90766 11.7933V9.26365L1.23976 8.5867C1.15636 8.55107 1.07296 8.47981 1.03127 8.37292C0.989577 8.30165 0.989577 8.19477 1.03127 8.08788L2.0737 6.16389V6.057C2.0737 2.70783 4.99256 0 8.53685 0C12.0811 0 15 2.70783 15 6.057C15 8.26603 13.7074 10.2969 11.6642 11.3658V14.6081C11.6642 14.8575 11.4974 15 11.2472 15ZM6.24349 14.2874H10.8302V11.1876C10.8302 11.0808 10.9136 10.9382 11.0387 10.867L11.2472 10.7601C13.0402 9.83373 14.166 8.01663 14.166 6.057C14.166 3.09976 11.6225 0.712578 8.53685 0.712578C5.45122 0.712578 2.90766 3.09976 2.90766 6.057V6.23515C2.90766 6.30642 2.90766 6.34204 2.86597 6.37766L1.94861 8.05225L3.49144 8.65796C3.65822 8.72921 3.74162 8.8361 3.74162 8.97863V11.3658H5.8265C6.07668 11.3658 6.24349 11.5083 6.24349 11.7221V14.2874Z" fill="#3370FF"/>
<path d="M11.1003 6.23328C10.8003 5.89995 10.4003 5.56662 9.96694 5.26662C9.86694 3.93328 9.43359 2.69995 8.66694 2.69995C8.13359 2.69995 7.76694 3.29995 7.56694 4.09995C6.76694 3.86662 6.06694 3.89995 5.80027 4.36662C5.40027 5.03328 6.26694 5.99995 7.40027 6.79995C7.50027 8.13328 7.93359 9.36662 8.70027 9.36662C9.23359 9.36662 9.60027 8.76662 9.80027 7.96662C9.90027 7.99995 10.0003 8.03328 10.1003 8.03328C10.3336 8.06662 10.5336 8.09995 10.7003 8.09995C11.2336 8.09995 11.4669 7.89995 11.6003 7.69995C11.7003 7.39995 11.7336 6.93328 11.1003 6.23328ZM9.33359 5.99995C9.33359 6.39995 9.30027 6.73328 9.26694 7.03328C8.96694 6.89995 8.63359 6.76662 8.33359 6.56662C8.23359 6.49995 8.10027 6.43328 8.00027 6.36662V5.99995C8.00027 5.59995 8.0336 5.26662 8.06694 4.96662C8.36694 5.09995 8.66694 5.23328 9.00027 5.43328C9.10027 5.49995 9.23359 5.56662 9.33359 5.63328V5.99995ZM8.66694 3.33328C8.80027 3.33328 9.10027 3.83328 9.23359 4.79995C8.90027 4.59995 8.53359 4.43328 8.16694 4.29995C8.33359 3.66662 8.56694 3.33328 8.66694 3.33328ZM6.36694 4.66662C6.40027 4.63328 6.50027 4.59995 6.63359 4.59995C6.80027 4.59995 7.10027 4.63328 7.43359 4.73328C7.36694 5.09995 7.33359 5.49995 7.33359 5.89995C6.56694 5.29995 6.30027 4.76662 6.36694 4.66662ZM8.66694 8.66662C8.53359 8.66662 8.2336 8.16662 8.10027 7.19995C8.46694 7.39995 8.80027 7.56662 9.16694 7.69995C9.00027 8.33328 8.76694 8.66662 8.66694 8.66662ZM10.9669 7.33328C10.9669 7.36662 10.7669 7.46662 10.2003 7.33328C10.1003 7.29995 10.0003 7.26662 9.90027 7.26662C9.96694 6.89995 10.0003 6.49995 10.0003 6.09995C10.2336 6.29995 10.4336 6.46662 10.6003 6.66662C11.0003 7.09995 11.0003 7.29995 10.9669 7.33328Z" fill="currentColor"/>
<path d="M5.86679 6.70008C5.93345 6.56676 6.06679 6.40008 6.20012 6.23341C6.63345 5.76676 7.23345 5.26676 7.96679 4.86676C9.36679 4.06676 11.0668 3.56676 11.5334 4.36676C12.0001 5.16676 10.7001 6.40008 9.30012 7.20008C8.56679 7.63341 7.83345 7.93341 7.20012 8.03341C6.26679 8.23341 5.86679 7.96676 5.73345 7.70008C5.66679 7.46676 5.60012 7.16676 5.86679 6.70008ZM10.9001 4.93341C10.9668 4.80008 11.0001 4.70008 10.9668 4.66676C10.8668 4.53341 9.83345 4.53341 8.33345 5.43341C7.66679 5.80008 7.10012 6.26676 6.73345 6.66676C6.36679 7.10008 6.36679 7.30008 6.36679 7.33341C6.36679 7.36676 6.56679 7.46676 7.13345 7.33341C7.70012 7.23341 8.36679 6.93341 9.03345 6.56676C10.1001 5.93341 10.7001 5.30008 10.9001 4.93341ZM11.0001 7.33341C11.0001 7.42182 11.0352 7.5066 11.0978 7.56912C11.1603 7.63163 11.2451 7.66675 11.3335 7.66675C11.4219 7.66675 11.5066 7.63163 11.5692 7.56912C11.6317 7.5066 11.6668 7.42182 11.6668 7.33341C11.6668 7.24501 11.6317 7.16022 11.5692 7.09771C11.5066 7.0352 11.4219 7.00008 11.3335 7.00008C11.2451 7.00008 11.1603 7.0352 11.0978 7.09771C11.0352 7.16022 11.0001 7.24501 11.0001 7.33341ZM8.33345 3.00008C8.33345 3.08849 8.36857 3.17328 8.43108 3.23579C8.49359 3.2983 8.57838 3.33342 8.66679 3.33342C8.75519 3.33342 8.83998 3.2983 8.90249 3.23579C8.965 3.17328 9.00012 3.08849 9.00012 3.00008C9.00012 2.91168 8.965 2.82689 8.90249 2.76438C8.83998 2.70187 8.75519 2.66675 8.66679 2.66675C8.57838 2.66675 8.49359 2.70187 8.43108 2.76438C8.36857 2.82689 8.33345 2.91168 8.33345 3.00008Z" fill="#3370FF"/>
<path d="M5.66699 7.33333C5.66699 7.42173 5.70211 7.50652 5.76462 7.56903C5.82713 7.63154 5.91192 7.66666 6.00032 7.66666C6.08872 7.66666 6.17351 7.63154 6.23602 7.56903C6.29853 7.50652 6.33365 7.42173 6.33365 7.33333C6.33365 7.24492 6.29853 7.16014 6.23602 7.09763C6.17351 7.03512 6.08872 7 6.00032 7C5.91192 7 5.82713 7.03512 5.76462 7.09763C5.70211 7.16014 5.66699 7.24492 5.66699 7.33333Z" fill="#3370FF"/>
</svg>
