<svg width="12" height="12" viewBox="0 0 12 12" fill="none" xmlns="http://www.w3.org/2000/svg">
  <path
    d="M2.16416 9.86677L2.0086 9.69733C1.46397 9.10411 1.05537 8.39656 0.815821 7.62384L0.748291 7.406L1.77232 5.99996L0.748291 4.59391L0.815821 4.37607C1.05537 3.60335 1.46397 2.8958 2.0086 2.30258L2.16416 2.13314L3.88507 2.32123L4.58405 0.727817L4.80818 0.677358C5.19656 0.589922 5.59555 0.54541 5.99998 0.54541C6.40441 0.54541 6.80341 0.589922 7.19178 0.677358L7.41591 0.727817L8.1149 2.32123L9.8358 2.13314L9.99137 2.30258C10.536 2.8958 10.9446 3.60335 11.1841 4.37607L11.2517 4.59391L10.2276 5.99996L11.2517 7.406L11.1841 7.62384C10.9446 8.39656 10.536 9.10411 9.99137 9.69733L9.8358 9.86677L8.1149 9.67868L7.41591 11.2721L7.19178 11.3226C6.80341 11.41 6.40441 11.4545 5.99998 11.4545C5.59555 11.4545 5.19656 11.41 4.80818 11.3226L4.58405 11.2721L3.88507 9.67868L2.16416 9.86677ZM3.90671 8.76178C4.22977 8.72647 4.53837 8.90492 4.66892 9.20253L5.22914 10.4796C5.48182 10.5232 5.73937 10.5454 5.99998 10.5454C6.26059 10.5454 6.51815 10.5232 6.77083 10.4796L7.33105 9.20253C7.4616 8.90492 7.7702 8.72647 8.09326 8.76178L9.47037 8.9123C9.80297 8.51197 10.0652 8.05708 10.2442 7.56687L9.42203 6.43796C9.23189 6.17689 9.23189 5.82297 9.42203 5.5619L10.2442 4.43298C10.0652 3.94278 9.80297 3.48789 9.47037 3.08756L8.09326 3.23808C7.7702 3.27339 7.4616 3.09494 7.33105 2.79733L6.77083 1.52024C6.51815 1.47661 6.26059 1.45447 5.99998 1.45447C5.73937 1.45447 5.48182 1.47661 5.22914 1.52024L4.66892 2.79733C4.53837 3.09494 4.22977 3.27339 3.90671 3.23808L2.5296 3.08756C2.197 3.48789 1.93477 3.94278 1.75575 4.43298L2.57794 5.5619C2.76808 5.82297 2.76808 6.17689 2.57794 6.43796L1.75575 7.56687C1.93477 8.05708 2.197 8.51197 2.5296 8.9123L3.90671 8.76178ZM5.99999 8.27268C4.74909 8.27268 3.73592 7.25466 3.73592 5.99995C3.73592 4.74524 4.74909 3.72722 5.99999 3.72722C7.25088 3.72722 8.26405 4.74524 8.26405 5.99995C8.26405 7.25466 7.25088 8.27268 5.99999 8.27268ZM5.99998 7.36362C6.74783 7.36362 7.35496 6.75358 7.35496 5.99998C7.35496 5.24638 6.74783 4.63635 5.99998 4.63635C5.25214 4.63635 4.64501 5.24638 4.64501 5.99998C4.64501 6.75358 5.25214 7.36362 5.99998 7.36362Z"
    fill="currentColor" />
</svg>
