<svg xmlns="http://www.w3.org/2000/svg" width="1em" height="1em" viewBox="0 0 16 16" fill="none">
  <path
    d="M4.15605 10.7027C3.65157 10.2023 3.25116 9.60702 2.9779 8.95114C2.70465 8.29525 2.56396 7.59175 2.56396 6.88121C2.56396 6.17068 2.70465 5.46718 2.9779 4.81129C3.25116 4.1554 3.65157 3.56011 4.15605 3.05975C6.27909 0.948672 9.72161 0.948672 11.8447 3.05975C12.3492 3.56012 12.7497 4.15544 13.023 4.81138C13.2963 5.46732 13.437 6.17089 13.437 6.88148C13.437 7.59208 13.2963 8.29565 13.023 8.95159C12.7497 9.60752 12.3492 10.2029 11.8447 10.7032L8.00035 14.5247L4.15605 10.7027Z"
    fill="currentColor" stroke="currentColor" stroke-width="0.727273" stroke-linejoin="round" />
  <circle cx="8.00033" cy="6.8182" r="1.83431" fill="#EDF9EE" />
</svg>
