<svg width="16" height="16" viewBox="0 0 16 16" fill="none" xmlns="http://www.w3.org/2000/svg">
  <path fill-rule="evenodd" clip-rule="evenodd"
    d="M12.3789 2.01173L14.4519 4.08467C15.0243 4.65709 15.0243 5.58518 14.4519 6.15761L6.16011 14.4494C5.58768 15.0218 4.6596 15.0218 4.08717 14.4494L2.01423 12.3764C1.44181 11.804 1.44181 10.8759 2.01423 10.3035L10.306 2.01173C10.8784 1.43931 11.8065 1.43931 12.3789 2.01173ZM6.11791 0.840858C6.1827 0.636162 6.47236 0.636162 6.53714 0.840858L6.7512 1.51715C6.77279 1.58538 6.82624 1.63883 6.89447 1.66043L7.57077 1.87448C7.77546 1.93927 7.77546 2.22893 7.57077 2.29372L6.89447 2.50777C6.82624 2.52937 6.77279 2.58282 6.7512 2.65105L6.53714 3.32734C6.47236 3.53204 6.1827 3.53204 6.11791 3.32734L5.90385 2.65105C5.88226 2.58282 5.82881 2.52937 5.76058 2.50777L5.08428 2.29372C4.87959 2.22893 4.87959 1.93927 5.08428 1.87448L5.76058 1.66043C5.82881 1.63883 5.88226 1.58538 5.90385 1.51715L6.11791 0.840858ZM1.86144 3.23283L2.22713 2.16193C2.30393 1.93706 2.62197 1.93706 2.69876 2.16193L3.06446 3.23283C3.08939 3.30584 3.14673 3.36319 3.21975 3.38812L4.29064 3.75382C4.51552 3.83061 4.51552 4.14865 4.29064 4.22545L3.21975 4.59114C3.14673 4.61607 3.08939 4.67342 3.06446 4.74643L2.69876 5.81733C2.62197 6.0422 2.30393 6.0422 2.22713 5.81733L1.86144 4.74643C1.83651 4.67342 1.77916 4.61607 1.70615 4.59114L0.63525 4.22545C0.410375 4.14865 0.410375 3.83061 0.63525 3.75382L1.70615 3.38812C1.77916 3.36319 1.83651 3.30584 1.86144 3.23283ZM13.4851 9.68406C13.5619 9.45919 13.88 9.45919 13.9568 9.68406L14.3225 10.755C14.3474 10.828 14.4047 10.8853 14.4777 10.9102L15.5486 11.2759C15.7735 11.3527 15.7735 11.6708 15.5486 11.7476L14.4777 12.1133C14.4047 12.1382 14.3474 12.1955 14.3225 12.2686L13.9568 13.3395C13.88 13.5643 13.5619 13.5643 13.4851 13.3395L13.1194 12.2686C13.0945 12.1955 13.0372 12.1382 12.9642 12.1133L11.8933 11.7476C11.6684 11.6708 11.6684 11.3527 11.8933 11.2759L12.9642 10.9102C13.0372 10.8853 13.0945 10.828 13.1194 10.755L13.4851 9.68406ZM10.5643 4.34343C10.9936 3.91411 11.6897 3.91411 12.119 4.34343C12.5483 4.77275 12.5483 5.46882 12.119 5.89813L10.0461 7.97107C9.61677 8.40039 8.9207 8.40039 8.49138 7.97107C8.06206 7.54175 8.06206 6.84569 8.49138 6.41637L10.5643 4.34343Z"
    fill="currentColor" />
</svg>
