<svg xmlns="http://www.w3.org/2000/svg" width="20" height="20" viewBox="0 0 20 20" fill="none">
  <rect x="2.49935" y="2.50033" width="5.83333" height="5.83333" rx="0.833333" stroke="#080D1E" stroke-opacity="0.9" stroke-width="1.66667"/>
  <rect x="2.49935" y="11.6663" width="5.83333" height="5.83333" rx="0.833333" stroke="#080D1E" stroke-opacity="0.9" stroke-width="1.66667"/>
  <rect x="11.6673" y="11.6663" width="5.83333" height="5.83333" rx="0.833333" stroke="#080D1E" stroke-opacity="0.9" stroke-width="1.66667"/>
  <path fill-rule="evenodd" clip-rule="evenodd" d="M12.3211 2.67839C12.3211 2.21815 12.6942 1.84505 13.1544 1.84505H17.3202C17.3205 1.84505 17.3208 1.84505 17.3211 1.84505C17.3786 1.84505 17.4348 1.85088 17.489 1.86198C17.8688 1.93969 18.1544 2.27568 18.1544 2.67839L18.1544 6.84505C18.1544 7.30529 17.7813 7.67839 17.3211 7.67839C16.8609 7.67839 16.4878 7.30529 16.4878 6.84505V4.86276L13.1756 8.17487C12.8502 8.5003 12.3226 8.5003 11.9971 8.17487C11.6717 7.84943 11.6717 7.32179 11.9971 6.99636L15.4818 3.51172L13.1544 3.51172C12.6942 3.51172 12.3211 3.13862 12.3211 2.67839Z" fill="#0F1528" fill-opacity="0.82"/>
</svg>
