<svg xmlns="http://www.w3.org/2000/svg" width="20" height="20" viewBox="0 0 20 20" fill="none">
    <path d="M4.35051 4.2932C4.44335 4.20029 4.55359 4.12658 4.67492 4.07627C4.79625 4.02596 4.9263 4.00005 5.05765 4C5.189 3.99995 5.31907 4.02578 5.44043 4.076C5.5618 4.12622 5.67209 4.19985 5.765 4.2927C5.85791 4.38554 5.93162 4.49577 5.98193 4.61711C6.03224 4.73844 6.05816 4.86849 6.0582 4.99984C6.05825 5.13119 6.03243 5.26126 5.98221 5.38262C5.93199 5.50399 5.85835 5.61428 5.76551 5.70719C5.20453 6.26718 4.75976 6.93253 4.45677 7.66498C4.15378 8.39743 3.99855 9.18255 4 9.9752C4 13.3037 6.68699 16.0002 10 16.0002C13.313 16.0002 16 13.3037 16 9.9752C16 9.70998 16.1054 9.45563 16.2929 9.26809C16.4804 9.08055 16.7348 8.9752 17 8.9752C17.2652 8.9752 17.5196 9.08055 17.7071 9.26809C17.8946 9.45563 18 9.70998 18 9.9752C18 14.4067 14.419 18.0002 10 18.0002C5.581 18.0002 2 14.4067 2 9.9752C2 7.8152 2.856 5.78869 4.35051 4.2932Z" fill="#03B6D0"/>
</svg>
