<svg width="17" height="16" viewBox="0 0 17 16" fill="none" xmlns="http://www.w3.org/2000/svg">
  <g id="icon">
    <path id="Union" fill-rule="evenodd" clip-rule="evenodd"
      d="M5.42883 2.66634C5.42883 1.92996 6.02578 1.33301 6.76216 1.33301H9.42883C10.1652 1.33301 10.7622 1.92996 10.7622 2.66634L14.0944 2.66634C14.4626 2.66634 14.7611 2.96482 14.7611 3.33301C14.7611 3.7012 14.4626 3.99968 14.0944 3.99968L2.0944 3.99967C1.72621 3.99967 1.42773 3.7012 1.42773 3.33301C1.42773 2.96482 1.72621 2.66634 2.0944 2.66634H5.42883ZM9.42708 5.99976C9.79527 5.99976 10.0938 6.29823 10.0938 6.66642V10.6664C10.0938 11.0346 9.79527 11.3331 9.42708 11.3331C9.05889 11.3331 8.76042 11.0346 8.76042 10.6664V6.66642C8.76042 6.29823 9.05889 5.99976 9.42708 5.99976ZM2.76367 12.6664V3.99976H4.09701V12.6664C4.09701 13.0346 4.39548 13.3331 4.76367 13.3331H11.4251C11.7933 13.3331 12.0918 13.0346 12.0918 12.6664V3.99976H13.4251V12.6664C13.4251 13.771 12.5297 14.6664 11.4251 14.6664H4.76367C3.6591 14.6664 2.76367 13.771 2.76367 12.6664ZM6.76107 5.99976C7.12926 5.99976 7.42773 6.29823 7.42773 6.66642V10.6664C7.42773 11.0346 7.12926 11.3331 6.76107 11.3331C6.39288 11.3331 6.0944 11.0346 6.0944 10.6664V6.66642C6.0944 6.29823 6.39288 5.99976 6.76107 5.99976Z"
      fill="#1D1C23" fill-opacity="0.6" />
  </g>
</svg>
