<svg xmlns="http://www.w3.org/2000/svg" width="14" height="14" viewBox="0 0 20 20" fill="none">
    <path d="M9.99992 19.1673C15.0625 19.1673 19.1666 15.0633 19.1666 10.0007C19.1666 4.93804 15.0625 0.833984 9.99992 0.833984C4.93731 0.833984 0.833252 4.93804 0.833252 10.0007C0.833252 15.0633 4.93731 19.1673 9.99992 19.1673Z" fill="#F05B56"/>
    <path d="M10.0001 5.83398C9.53984 5.83398 9.16675 6.20708 9.16675 6.66732V10.834C9.16675 11.2942 9.53984 11.6673 10.0001 11.6673C10.4603 11.6673 10.8334 11.2942 10.8334 10.834V6.66732C10.8334 6.20708 10.4603 5.83398 10.0001 5.83398Z" fill="white"/>
    <path d="M10.0001 14.1673C10.4603 14.1673 10.8334 13.7942 10.8334 13.334C10.8334 12.8737 10.4603 12.5007 10.0001 12.5007C9.53984 12.5007 9.16675 12.8737 9.16675 13.334C9.16675 13.7942 9.53984 14.1673 10.0001 14.1673Z" fill="white"/>
</svg>
