<svg width="14" height="14" viewBox="0 0 14 14" fill="none" xmlns="http://www.w3.org/2000/svg">
<g id="icon_thumbdown_filled">
<g id="Union">
<path d="M1.16536 1.1665C0.843198 1.1665 0.582031 1.42767 0.582031 1.74984V8.74984C0.582031 9.072 0.843198 9.33317 1.16536 9.33317C1.48753 9.33317 1.7487 9.072 1.7487 8.74984V1.74984C1.7487 1.42767 1.48753 1.1665 1.16536 1.1665Z" fill="#4E40E5"/>
<path d="M10.9989 9.37109H8.48709C8.87878 10.1001 9.07463 10.6851 9.07463 11.1262C9.07463 12.2959 8.22452 13.0019 7.51438 13.3253C7.04096 13.5409 6.59677 13.3402 6.43221 13.0784L4.00108 9.61992C3.89142 9.46393 3.71267 9.37109 3.52198 9.37109H2.92021C2.7585 9.37109 2.6274 9.23999 2.6274 9.07827V1.45932C2.6274 1.2976 2.7585 1.1665 2.92021 1.1665H9.79834C10.3595 1.1665 10.8513 1.53769 10.9989 2.07273L12.7464 6.67286C13.1477 7.82863 12.7464 9.37109 10.9989 9.37109Z" fill="#4E40E5"/>
</g>
</g>
</svg>
