<svg width="16" height="16" viewBox="0 0 16 16" fill="none" xmlns="http://www.w3.org/2000/svg">
    <path
        d="M7.99999 15.3334C12.0501 15.3334 15.3333 12.0501 15.3333 8.00002C15.3333 3.94993 12.0501 0.666687 7.99999 0.666687C3.9499 0.666687 0.666656 3.94993 0.666656 8.00002C0.666656 12.0501 3.9499 15.3334 7.99999 15.3334Z"
        fill="currentColor" />
    <path
        d="M8 5.33333C8.36819 5.33333 8.66667 5.03486 8.66667 4.66667C8.66667 4.29848 8.36819 4 8 4C7.63181 4 7.33333 4.29848 7.33333 4.66667C7.33333 5.03486 7.63181 5.33333 8 5.33333Z"
        fill="white" />
    <path
        d="M7.33333 6C6.96514 6 6.66667 6.29848 6.66667 6.66667C6.66667 7.03486 6.96514 7.33333 7.33333 7.33333V10H6.66667C6.29848 10 6 10.2985 6 10.6667C6 11.0349 6.29848 11.3333 6.66667 11.3333H9.33333C9.70152 11.3333 10 11.0349 10 10.6667C10 10.2985 9.70152 10 9.33333 10H8.66667V6.66667C8.66667 6.29848 8.36819 6 8 6H7.33333Z"
        fill="white" />
</svg>
