<svg width="24" height="24" viewBox="0 0 24 24" fill="none" xmlns="http://www.w3.org/2000/svg">
<g id="icon_succeed_colorful-dm">
<path id="Union" d="M0.999756 12C0.999756 18.0758 5.92397 23 11.9998 23C18.0755 23 22.9998 18.0758 22.9998 12C22.9998 5.92422 18.0755 1 11.9998 1C5.92397 1 0.999756 5.92422 0.999756 12Z" fill="#3EC254"/>
<path id="Union_2" d="M7.29265 11.7073C6.90212 12.0978 6.90212 12.7309 7.29265 13.1215L10.1211 15.9499C10.5116 16.3404 11.1448 16.3404 11.5353 15.9499L17.1921 10.293C17.5827 9.90252 17.5827 9.26935 17.1921 8.87883C16.8016 8.48831 16.1685 8.48831 15.7779 8.87883L10.8282 13.8286L8.70686 11.7073C8.31634 11.3167 7.68317 11.3167 7.29265 11.7073Z" fill="white"/>
</g>
</svg>
