<svg xmlns="http://www.w3.org/2000/svg" width="16" height="16" viewBox="0 0 16 16" fill="none">
  <path
    d="M1.19445 7.78162L1.00352 8.00065L1.19445 8.21968L4.24 11.7136C4.36444 11.8563 4.36444 12.1043 4.24 12.2471C4.13899 12.363 3.99667 12.363 3.89566 12.2471L0.426667 8.2674C0.302222 8.12463 0.302222 7.87667 0.426667 7.7339L3.89566 3.75423C3.99667 3.63835 4.13899 3.63835 4.24 3.75423C4.36444 3.89699 4.36444 4.14496 4.24 4.28772L4.48195 4.49863L4.24 4.28773L1.19445 7.78162Z"
    fill="white" stroke="#1C1D23" stroke-width="0.666667" />
  <path
    d="M14.8056 8.21838L14.9965 7.99935L14.8056 7.78032L11.76 4.28642C11.6356 4.14366 11.6356 3.89569 11.76 3.75292C11.861 3.63705 12.0033 3.63705 12.1043 3.75293L15.5733 7.7326C15.6978 7.87537 15.6978 8.12333 15.5733 8.2661L12.1043 12.2458C12.0033 12.3617 11.861 12.3617 11.76 12.2458C11.6356 12.103 11.6356 11.855 11.76 11.7123L11.5181 11.5014L11.76 11.7123L14.8056 8.21838Z"
    fill="white" stroke="#1C1D23" stroke-width="0.666667" />
  <path d="M9.33464 3.33398L6.66797 12.6673" stroke="#1C1D23" stroke-width="1.33333" stroke-linecap="round" />
</svg>
