<svg xmlns="http://www.w3.org/2000/svg" width="14" height="14" viewBox="0 0 14 14" fill="none">
    <path
        d="M11.7161 8.73598V1.69896C11.7161 1.40729 11.9433 1.1249 12.2995 1.11562C12.6923 1.11562 12.8828 1.40729 12.8828 1.69896V8.73598C12.8828 9.02765 12.6504 9.31932 12.2995 9.31932C11.9486 9.31932 11.7161 9.02765 11.7161 8.73598Z"
        fill="#060709" fill-opacity="0.5" />
    <path
        d="M4.98221 9.31974H2.47036C0.722921 9.31974 0.321577 7.7776 0.722917 6.62183L2.47036 2.02124C2.61802 1.4862 3.10977 1.11548 3.67096 1.11548H10.2586C10.5807 1.11548 10.8419 1.37608 10.8419 1.69824C10.8419 1.95304 10.8419 2.21159 10.8419 2.2867V8.12175C10.8419 8.19826 10.8419 8.47077 10.8419 8.73641C10.8419 9.05858 10.5807 9.31974 10.2586 9.31974H9.94732C9.75663 9.31974 9.57789 9.41269 9.46823 9.56869L7.03708 13.0271C6.87253 13.2889 6.42834 13.4894 5.95492 13.2738C5.24478 12.9504 4.39467 12.2445 4.39467 11.0749C4.39467 10.6337 4.59052 10.0487 4.98221 9.31974ZM2.47036 8.14852H6.94117L6.01395 9.87402C5.70562 10.4479 5.56591 10.8652 5.56591 11.0749C5.56591 11.4147 5.63721 11.7994 6.24705 12.1145L8.85988 8.39746C8.96954 8.24146 9.14829 8.14852 9.33898 8.14852H9.67065V2.2867H3.67096C3.63464 2.2867 3.60636 2.30763 3.5994 2.33285L3.58478 2.38582L1.82446 7.02002C1.59303 7.70176 1.82388 8.14852 2.47036 8.14852Z"
        fill="#060709" fill-opacity="0.5" />
</svg>
