<svg width="24" height="24" viewBox="0 0 24 24" fill="none" xmlns="http://www.w3.org/2000/svg">
<path d="M16.9974 11.9996C16.9974 13.4987 16.9974 15.1414 16.9974 16.2544C16.9974 16.989 16.4019 17.5833 15.6674 17.5833L7.65812 17.5833C6.92358 17.5833 6.32812 16.9879 6.32812 16.2533L6.32812 8.24406C6.32812 7.50952 6.92359 6.91406 7.65813 6.91406L11.9119 6.91406" stroke="#1D1C23" stroke-opacity="0.6" stroke-width="1.33" stroke-linecap="round"/>
<path fill-rule="evenodd" clip-rule="evenodd" d="M15.8173 6.91828L11.2112 11.5257C10.9183 11.8187 10.9486 12.621 10.9657 12.8694C10.9688 12.9136 11.0019 12.9467 11.046 12.9498C11.2944 12.9672 12.0971 12.9984 12.3905 12.705L16.9966 8.09757L15.8173 6.91828ZM17.3898 7.70433L17.9446 7.14934C18.2961 6.79787 18.317 6.24895 17.9913 5.9233C17.6657 5.59765 17.1168 5.61858 16.7653 5.97005L16.2105 6.52503L17.3898 7.70433Z" fill="#1D1C23" fill-opacity="0.6"/>
</svg>
