<svg width="20" height="20" viewBox="0 0 20 20" fill="none" xmlns="http://www.w3.org/2000/svg">
<path d="M4.58073 9.79134C4.58073 10.5968 3.92781 11.2497 3.1224 11.2497C2.31698 11.2497 1.66406 10.5968 1.66406 9.79134C1.66406 8.98593 2.31698 8.33301 3.1224 8.33301C3.92781 8.33301 4.58073 8.98593 4.58073 9.79134Z" fill="#2E2E38"/>
<path d="M11.4352 9.79134C11.4352 10.5968 10.7823 11.2497 9.97688 11.2497C9.17147 11.2497 8.51855 10.5968 8.51855 9.79134C8.51855 8.98593 9.17147 8.33301 9.97688 8.33301C10.7823 8.33301 11.4352 8.98593 11.4352 9.79134Z" fill="#2E2E38"/>
<path d="M18.3307 9.79134C18.3307 10.5968 17.6778 11.2497 16.8724 11.2497C16.067 11.2497 15.4141 10.5968 15.4141 9.79134C15.4141 8.98593 16.067 8.33301 16.8724 8.33301C17.6778 8.33301 18.3307 8.98593 18.3307 9.79134Z" fill="#2E2E38"/>
</svg>
