<svg width="24" height="24" viewBox="0 0 24 24" fill="none" xmlns="http://www.w3.org/2000/svg">
    <g id="icon_up-top_outlined">
        <g id="Union">
            <path
                d="M6.3636 10.7576L12 5.12124L17.943 11.0643C18.04 11.1613 18.4224 11.5416 18.7827 11.8998C19.1734 12.2882 19.8046 12.2871 20.1942 11.8976C20.5856 11.5062 20.5844 10.8713 20.1918 10.4812C19.9015 10.1927 19.6131 9.906 19.5252 9.81806L12.7071 2.99992C12.3165 2.6094 11.6834 2.6094 11.2929 2.99992L4.82048 9.47233C4.71645 9.57636 4.23444 10.0572 3.80675 10.4837C3.41569 10.8738 3.41528 11.5071 3.80582 11.8976C4.19528 12.2871 4.82637 12.288 5.21678 11.8995C5.69351 11.4251 6.25495 10.8663 6.3636 10.7576Z"
                fill="currentColor" fill-opacity="0.8" />
            <path
                d="M6.3636 19.6653L12 14.0289L17.943 19.972C18.04 20.069 18.4224 20.4493 18.7827 20.8074C19.1734 21.1958 19.8046 21.1948 20.1942 20.8053C20.5856 20.4139 20.5844 19.779 20.1918 19.3889C19.9015 19.1003 19.6131 18.8137 19.5252 18.7257L12.7071 11.9076C12.3165 11.5171 11.6834 11.5171 11.2929 11.9076L4.82048 18.38C4.71645 18.484 4.23444 18.9648 3.80675 19.3914C3.41569 19.7814 3.41528 20.4148 3.80582 20.8053C4.19528 21.1948 4.82637 21.1957 5.21678 20.8072C5.69351 20.3328 6.25495 19.774 6.3636 19.6653Z"
                fill="currentColor" fill-opacity="0.8" />
        </g>
    </g>
</svg>
