<svg width="70" height="28" viewBox="0 0 70 28" fill="none" xmlns="http://www.w3.org/2000/svg">
  <g clip-path="url(#clip0_6959_15960)">
    <path
      d="M39.7708 6.45944H37.3962V8.65323H35.5649V10.8561H37.4004V14.3139H35.5649V16.5168H37.4004V18.9014C37.4004 19.0731 37.261 19.2124 37.0893 19.2124H35.4902V21.5829H37.0893C38.5673 21.5829 39.7758 20.3794 39.7758 18.9014V14.9418H41.6071V12.7389H39.7758V10.8611H41.6071V8.6582H39.7758V6.46442L39.7708 6.45944Z"
      fill="currentColor" />
    <path
      d="M49.1218 6.38562H44.92C43.5216 6.38562 42.3828 7.5244 42.3828 8.91863V19.0324C42.3828 20.4317 43.5216 21.5655 44.92 21.5655H49.1218C50.521 21.5655 51.6597 20.4267 51.6597 19.0324V8.91863C51.6597 7.51942 50.521 6.38562 49.1218 6.38562ZM49.2843 19.0316C49.2843 19.1245 49.2105 19.1942 49.1218 19.1942H44.92C44.8271 19.1942 44.7574 19.1195 44.7574 19.0316V8.91863C44.7574 8.82574 44.8321 8.75607 44.92 8.75607H49.1218C49.2147 8.75607 49.2843 8.83072 49.2843 8.91863V19.0316Z"
      fill="currentColor" />
    <path
      d="M64.2095 12.5664L67.2451 8.70877L67.226 6.57968H55.7362V8.95013H64.037L61.1921 12.5664H54.1836V14.9368H61.0851V18.8873C61.0851 19.059 60.9458 19.1983 60.7732 19.1983H57.3387V21.5688H60.7732C62.2562 21.5688 63.4597 20.3653 63.4597 18.8873V14.9368H69.5343V12.5664H64.2095Z"
      fill="currentColor" />
    <path
      d="M3.52913 0H24.4709C26.42 0 28 1.58002 28 3.52913V24.4709C28 26.42 26.42 28 24.4709 28H3.52913C1.58002 28 0 26.42 0 24.4709V3.52913C0 1.58002 1.58002 0 3.52913 0Z"
      fill="#4C53F0" />
    <path fill-rule="evenodd" clip-rule="evenodd"
      d="M14.1185 4.4108C10.0701 4.4108 6.78899 7.6936 6.78899 11.7436V14.8182H5.02899C3.00855 14.8182 2.55154 17.6523 4.46997 18.2876L6.78816 19.0557V20.3835C6.78816 21.6957 8.16913 22.5491 9.34191 21.9619L10.6267 21.3191C10.6864 21.2893 10.7577 21.3199 10.7784 21.383C11.8194 24.6334 16.4159 24.6334 17.4577 21.383C17.4776 21.3199 17.5497 21.2893 17.6095 21.3191L18.8934 21.9619C20.067 22.5491 21.4471 21.6957 21.4471 20.3835V19.0557L23.7653 18.2876C25.6837 17.6523 25.2267 14.8182 23.2063 14.8182H21.4471V11.7428C21.448 7.6936 18.1668 4.4108 14.1185 4.4108Z"
      fill="white" />
    <path
      d="M16.5996 15.5274C16.5996 15.135 16.9173 14.8174 17.3088 14.8174C17.7011 14.8174 18.0187 15.135 18.0187 15.5274C18.0187 15.9197 17.7011 16.2365 17.3088 16.2365C16.9173 16.2365 16.5996 15.9188 16.5996 15.5274Z"
      fill="url(#paint0_linear_6959_15960)" />
    <path
      d="M11.8601 18.14C11.5831 17.863 11.5831 17.4134 11.8601 17.1364C12.1371 16.8594 12.5858 16.8594 12.8629 17.1364C13.5563 17.829 14.6776 17.829 15.371 17.1364C15.648 16.8594 16.0967 16.8594 16.3738 17.1364C16.6508 17.4134 16.6508 17.863 16.3738 18.14C15.1272 19.3874 13.1059 19.3874 11.8601 18.14Z"
      fill="url(#paint1_linear_6959_15960)" />
    <path
      d="M10.9259 14.1091C10.5345 14.1091 10.2168 14.4267 10.2168 14.8182V16.2373C10.2168 16.6296 10.5345 16.9473 10.9259 16.9473C11.3183 16.9473 11.6359 16.6296 11.6359 16.2373V14.8182C11.6359 14.4267 11.3183 14.1091 10.9259 14.1091Z"
      fill="url(#paint2_linear_6959_15960)" />
  </g>
  <defs>
    <linearGradient id="paint0_linear_6959_15960" x1="17.3205" y1="15.054" x2="17.2093" y2="19.6014"
      gradientUnits="userSpaceOnUse">
      <stop stop-color="#262DD3" />
      <stop offset="1" stop-color="#989CF7" />
    </linearGradient>
    <linearGradient id="paint1_linear_6959_15960" x1="14.1066" y1="17.676" x2="13.64" y2="19.426"
      gradientUnits="userSpaceOnUse">
      <stop stop-color="#2933EE" />
      <stop offset="1" stop-color="#A299F7" />
    </linearGradient>
    <linearGradient id="paint2_linear_6959_15960" x1="10.9726" y1="14.5837" x2="10.5288" y2="23.6621"
      gradientUnits="userSpaceOnUse">
      <stop stop-color="#262DD3" />
      <stop offset="1" stop-color="#989CF7" />
    </linearGradient>
    <clipPath id="clip0_6959_15960">
      <rect width="69.5335" height="28" fill="white" />
    </clipPath>
  </defs>
</svg>
