<svg xmlns="http://www.w3.org/2000/svg" width="16" height="16" viewBox="0 0 16 16" fill="none">
    <rect width="16" height="16" rx="2.66667" fill="#33B0FF" />
    <path
        d="M10.4343 6.25781C10.1742 6.25781 9.96332 6.46869 9.96332 6.72883V6.83664C9.00784 7.13674 8.31476 8.02938 8.31476 9.0839V10.7325C8.05463 10.7325 7.84375 10.9433 7.84375 11.2035C7.84375 11.4636 8.05463 11.6745 8.31476 11.6745H13.0249C13.285 11.6745 13.4959 11.4636 13.4959 11.2035C13.4959 10.9433 13.285 10.7325 13.0249 10.7325V9.0839C13.0249 8.02938 12.3318 7.13674 11.3764 6.83664V6.72883C11.3764 6.46869 11.1655 6.25781 10.9053 6.25781H10.4343Z"
        fill="white" fill-opacity="0.8" />
    <path
        d="M2.67188 4.60609C2.67188 4.08582 3.09364 3.66406 3.6139 3.66406H12.0922C12.6124 3.66406 13.0342 4.08582 13.0342 4.60609V6.77343C12.7941 6.52852 12.5162 6.32093 12.2099 6.16009C11.9918 5.66122 11.4939 5.31261 10.9146 5.31261H10.4436C9.86431 5.31261 9.36643 5.66122 9.1483 6.16009C8.09884 6.71123 7.38202 7.81136 7.38202 9.08073V10.1471C7.09294 10.4058 6.91101 10.7818 6.91101 11.2003C6.91101 11.3654 6.93934 11.524 6.99141 11.6713H3.6139C3.09364 11.6713 2.67188 11.2495 2.67188 10.7293V4.60609ZM4.55593 6.01914C4.2958 6.01914 4.08492 6.23002 4.08492 6.49015C4.08492 6.75028 4.2958 6.96116 4.55593 6.96116H6.6755C6.93563 6.96116 7.14651 6.75028 7.14651 6.49015C7.14651 6.23002 6.93563 6.01914 6.6755 6.01914H4.55593ZM4.08492 8.37421C4.08492 8.63434 4.2958 8.84522 4.55593 8.84522H5.73347C5.9936 8.84522 6.20448 8.63434 6.20448 8.37421C6.20448 8.11407 5.9936 7.90319 5.73347 7.90319H4.55593C4.2958 7.90319 4.08492 8.11407 4.08492 8.37421Z"
        fill="white" />
    <path
        d="M9.5 12.6195C9.5 12.3593 9.71088 12.1484 9.97101 12.1484H11.3841C11.6442 12.1484 11.8551 12.3593 11.8551 12.6195C11.8551 12.8796 11.6442 13.0905 11.3841 13.0905H9.97101C9.71088 13.0905 9.5 12.8796 9.5 12.6195Z"
        fill="white" fill-opacity="0.6" />
</svg>
