<svg width="17" height="16" viewBox="0 0 17 16" fill="none" xmlns="http://www.w3.org/2000/svg">
<path d="M1.83203 1.33366C1.83203 0.965469 2.13051 0.666992 2.4987 0.666992H11.5618C12.5175 0.666992 13.4341 1.03058 14.1099 1.67776C14.7857 2.32495 15.1654 3.20272 15.1654 4.11797V14.667C15.1654 15.0352 14.8669 15.3337 14.4987 15.3337H5.43563C4.4799 15.3337 3.56331 14.9701 2.8875 14.3229C2.2117 13.6757 1.83203 12.7979 1.83203 11.8827V1.33366ZM4.9987 5.33366C4.9987 5.70185 5.29717 6.00033 5.66536 6.00033H11.332C11.7002 6.00033 11.9987 5.70185 11.9987 5.33366C11.9987 4.96547 11.7002 4.66699 11.332 4.66699H5.66536C5.29717 4.66699 4.9987 4.96547 4.9987 5.33366ZM4.9987 8.00033C4.9987 8.36852 5.29717 8.66699 5.66536 8.66699H11.332C11.7002 8.66699 11.9987 8.36852 11.9987 8.00033C11.9987 7.63213 11.7002 7.33366 11.332 7.33366H5.66536C5.29717 7.33366 4.9987 7.63213 4.9987 8.00033ZM5.66536 10.0003C5.29717 10.0003 4.9987 10.2988 4.9987 10.667C4.9987 11.0352 5.29717 11.3337 5.66536 11.3337H8.66536C9.03355 11.3337 9.33203 11.0352 9.33203 10.667C9.33203 10.2988 9.03355 10.0003 8.66536 10.0003H5.66536Z" fill="#4D53E8"/>
</svg>
