<svg width="16" height="16" viewBox="0 0 16 16" fill="none" xmlns="http://www.w3.org/2000/svg">
<g id="icon_trash_can">
<path id="Union" d="M5.33203 2.66683C5.33203 1.93045 5.92899 1.3335 6.66536 1.3335H9.33203C10.0684 1.3335 10.6654 1.93045 10.6654 2.66683H13.9987C14.3669 2.66683 14.6654 2.96531 14.6654 3.3335C14.6654 3.70169 14.3669 4.00016 13.9987 4.00016H13.332C13.332 7.11127 13.332 10.2224 13.332 13.3335C13.332 14.0699 12.7351 14.6668 11.9987 14.6668H3.9987C3.26232 14.6668 2.66536 14.0699 2.66536 13.3335C2.66536 10.2224 2.66536 7.11127 2.66536 4.00016H1.9987C1.63051 4.00016 1.33203 3.70169 1.33203 3.3335C1.33203 2.96531 1.63051 2.66683 1.9987 2.66683H5.33203ZM3.9987 4.00016V13.3335H11.9987V4.00016H3.9987ZM6.66536 6.00016C7.03356 6.00016 7.33203 6.29864 7.33203 6.66683V10.6668C7.33203 11.035 7.03356 11.3335 6.66536 11.3335C6.29717 11.3335 5.9987 11.035 5.9987 10.6668V6.66683C5.9987 6.29864 6.29717 6.00016 6.66536 6.00016ZM9.33203 6.00016C9.70022 6.00016 9.9987 6.29864 9.9987 6.66683V10.6668C9.9987 11.035 9.70022 11.3335 9.33203 11.3335C8.96384 11.3335 8.66536 11.035 8.66536 10.6668V6.66683C8.66536 6.29864 8.96384 6.00016 9.33203 6.00016Z" fill="#060709" fill-opacity="0.8"/>
</g>
</svg>
