<svg width="14" height="14" viewBox="0 0 14 14" fill="currentColor" xmlns="http://www.w3.org/2000/svg">
  <g id="icon_list_disorder">
    <g id="Union">
      <path
        d="M2.04297 3.2085C2.52622 3.2085 2.91797 2.81675 2.91797 2.3335C2.91797 1.85025 2.52622 1.4585 2.04297 1.4585C1.55972 1.4585 1.16797 1.85025 1.16797 2.3335C1.16797 2.81675 1.55972 3.2085 2.04297 3.2085Z" />
      <path
        d="M5.2513 1.75016C4.92914 1.75016 4.66797 2.01133 4.66797 2.3335C4.66797 2.65566 4.92914 2.91683 5.2513 2.91683H12.8346C13.1568 2.91683 13.418 2.65566 13.418 2.3335C13.418 2.01133 13.1568 1.75016 12.8346 1.75016H5.2513Z" />
      <path
        d="M5.2513 6.41683C4.92914 6.41683 4.66797 6.678 4.66797 7.00016C4.66797 7.32233 4.92914 7.5835 5.2513 7.5835H12.8346C13.1568 7.5835 13.418 7.32233 13.418 7.00016C13.418 6.678 13.1568 6.41683 12.8346 6.41683H5.2513Z" />
      <path
        d="M4.66797 11.6668C4.66797 11.3447 4.92914 11.0835 5.2513 11.0835H12.8346C13.1568 11.0835 13.418 11.3447 13.418 11.6668C13.418 11.989 13.1568 12.2502 12.8346 12.2502H5.2513C4.92914 12.2502 4.66797 11.989 4.66797 11.6668Z" />
      <path
        d="M2.91797 7.00016C2.91797 7.48341 2.52622 7.87516 2.04297 7.87516C1.55972 7.87516 1.16797 7.48341 1.16797 7.00016C1.16797 6.51691 1.55972 6.12516 2.04297 6.12516C2.52622 6.12516 2.91797 6.51691 2.91797 7.00016Z" />
      <path
        d="M2.04297 12.5418C2.52622 12.5418 2.91797 12.1501 2.91797 11.6668C2.91797 11.1836 2.52622 10.7918 2.04297 10.7918C1.55972 10.7918 1.16797 11.1836 1.16797 11.6668C1.16797 12.1501 1.55972 12.5418 2.04297 12.5418Z" />
    </g>
  </g>
</svg>
