<svg width="15" height="14" viewBox="0 0 15 14" fill="none" xmlns="http://www.w3.org/2000/svg">
    <g id="icon_global_link_outlined">
        <g id="Union">
            <path
                d="M11.9336 1.5743C10.6363 0.576401 8.77374 0.830907 7.79174 2.14024L6.17151 4.30054C5.24667 5.53367 5.49658 7.28306 6.72971 8.20791L7.29693 8.63333C7.55466 8.82662 7.92029 8.77439 8.11359 8.51666C8.30689 8.25893 8.25466 7.89329 7.99693 7.69999L7.42971 7.27458C6.71204 6.73633 6.5666 5.71821 7.10485 5.00054L8.72507 2.84025C9.31714 2.05082 10.4401 1.89738 11.2223 2.49903C12.0082 3.10357 12.1449 4.23545 11.5255 5.0097L10.6914 6.05225C10.4902 6.30382 10.531 6.67091 10.7825 6.87217C11.0341 7.07342 11.4012 7.03263 11.6024 6.78106L12.4365 5.73851C13.4638 4.45433 13.2371 2.577 11.9336 1.5743Z"
                fill="currentColor" />
            <path
                d="M3.94371 12.4257C5.24098 13.4236 7.10357 13.1691 8.08557 11.8597L9.7058 9.69944C10.6306 8.4663 10.3807 6.71691 9.1476 5.79206L8.58038 5.36665C8.32265 5.17335 7.95702 5.22559 7.76372 5.48332C7.57042 5.74105 7.62265 6.10669 7.88038 6.29999L8.4476 6.7254C9.16527 7.26365 9.31071 8.28177 8.77246 8.99944L7.15224 11.1597C6.56017 11.9492 5.43719 12.1026 4.65504 11.501C3.86913 10.8964 3.73244 9.76453 4.35185 8.99028L5.18589 7.94772C5.38715 7.69615 5.34636 7.32907 5.09479 7.12781C4.84322 6.92656 4.47613 6.96734 4.27488 7.21891L3.44084 8.26147C2.41349 9.54565 2.6402 11.423 3.94371 12.4257Z"
                fill="currentColor" />
        </g>
    </g>
</svg>
