<svg xmlns="http://www.w3.org/2000/svg" width="20" height="20" viewBox="0 0 20 20" fill="none">
  <path d="M9.9987 19.1673C15.0613 19.1673 19.1654 15.0633 19.1654 10.0007C19.1654 4.93804 15.0613 0.833984 9.9987 0.833984C4.93609 0.833984 0.832031 4.93804 0.832031 10.0007C0.832031 15.0633 4.93609 19.1673 9.9987 19.1673Z" fill="#FF9600"/>
  <path d="M10.0013 5.83398C9.54106 5.83398 9.16797 6.20708 9.16797 6.66732V10.834C9.16797 11.2942 9.54106 11.6673 10.0013 11.6673C10.4615 11.6673 10.8346 11.2942 10.8346 10.834V6.66732C10.8346 6.20708 10.4615 5.83398 10.0013 5.83398Z" fill="white"/>
  <path d="M10.0013 14.1673C10.4615 14.1673 10.8346 13.7942 10.8346 13.334C10.8346 12.8737 10.4615 12.5007 10.0013 12.5007C9.54106 12.5007 9.16797 12.8737 9.16797 13.334C9.16797 13.7942 9.54106 14.1673 10.0013 14.1673Z" fill="white"/>
</svg>
