<svg width="14" height="14" viewBox="0 0 14 14" fill="currentColor" xmlns="http://www.w3.org/2000/svg">
  <g id="icon_list_order">
    <g id="Union">
      <path
        d="M2.66983 1.05506C2.66983 0.810035 2.40358 0.657774 2.1924 0.782029L1.89926 0.954478L1.897 0.955877C1.86619 0.974962 1.80037 1.01476 1.71685 1.06527C1.51716 1.18601 1.21626 1.36795 1.05057 1.47437C0.952508 1.53735 0.898438 1.64514 0.898438 1.75692C0.898438 2.0383 1.21596 2.20843 1.45154 2.06178C1.58393 1.97935 1.72265 1.89395 1.82582 1.83128V3.86007C1.82582 4.09314 2.01476 4.28207 2.24783 4.28207C2.48089 4.28207 2.66983 4.09314 2.66983 3.86007V1.05506Z" />
      <path
        d="M2.14533 5.21308C1.42646 5.21308 0.946303 5.68993 0.946303 6.28677C0.946303 6.36757 1.0118 6.43306 1.09259 6.43306H1.61212C1.69543 6.43306 1.76297 6.36553 1.76297 6.28222C1.76297 6.09523 1.89603 5.9386 2.11798 5.9386C2.22508 5.9386 2.31056 5.97299 2.36809 6.02612C2.42469 6.0784 2.4616 6.15541 2.4616 6.25715C2.4616 6.44065 2.3516 6.59451 2.14719 6.8104L1.08882 7.95839C1.02209 8.03077 0.98504 8.12561 0.98504 8.22406C0.98504 8.44052 1.16052 8.616 1.37699 8.616H3.12832C3.33119 8.616 3.49564 8.45155 3.49564 8.24869C3.49564 8.04582 3.33119 7.88137 3.12832 7.88137H2.18407L2.72828 7.27002C3.08364 6.88969 3.30561 6.613 3.30561 6.20018C3.30561 5.91187 3.1863 5.66159 2.97737 5.48525C2.76984 5.3101 2.4806 5.21308 2.14533 5.21308Z" />
      <path
        d="M2.15444 9.54712C1.56761 9.54712 1.16743 9.82578 1.01939 10.2342C0.975237 10.3561 1.00878 10.4738 1.08182 10.5565C1.15284 10.6369 1.26071 10.6851 1.37508 10.6851C1.4868 10.6851 1.58014 10.6374 1.65371 10.5798C1.72663 10.5228 1.78747 10.4503 1.83604 10.3875C1.89195 10.3152 1.98577 10.2567 2.13393 10.2567C2.25664 10.2567 2.34929 10.2934 2.40945 10.3457C2.46859 10.3971 2.50262 10.4686 2.50262 10.5547L2.50262 10.5558C2.50348 10.6522 2.4672 10.7296 2.40618 10.7843C2.34415 10.8398 2.24921 10.8778 2.12482 10.8778H2.04279C1.84747 10.8778 1.68914 11.0362 1.68914 11.2315C1.68914 11.4268 1.84747 11.5851 2.04279 11.5851H2.14077C2.30153 11.5851 2.41417 11.6285 2.4849 11.6888C2.55412 11.7479 2.59289 11.8311 2.59377 11.9343C2.59464 12.0393 2.55569 12.1259 2.4857 12.1876C2.41459 12.2504 2.30228 12.2952 2.14533 12.2952C1.95869 12.2952 1.83733 12.2286 1.76999 12.1413C1.72207 12.0792 1.66223 12.0084 1.5903 11.9528C1.51762 11.8967 1.42585 11.8508 1.31619 11.8508C1.20171 11.8508 1.09378 11.8988 1.02225 11.979C0.948805 12.0612 0.914094 12.1784 0.955696 12.3007C1.09788 12.7184 1.49592 13.0116 2.12938 13.0116C2.48023 13.0116 2.80679 12.9137 3.04779 12.7334C3.29083 12.5515 3.44625 12.2849 3.44232 11.9613C3.43681 11.5593 3.2229 11.3067 2.97962 11.184C3.17787 11.0494 3.34731 10.8088 3.34205 10.4705C3.3312 9.90921 2.80584 9.54712 2.15444 9.54712Z" />
      <path
        d="M4.66668 2.33339C4.66668 2.01122 4.92784 1.75005 5.25001 1.75005H12.8333C13.1555 1.75005 13.4167 2.01122 13.4167 2.33339C13.4167 2.65555 13.1555 2.91672 12.8333 2.91672H5.25001C4.92784 2.91672 4.66668 2.65555 4.66668 2.33339Z" />
      <path
        d="M4.66668 7.00005C4.66668 6.67789 4.92784 6.41672 5.25001 6.41672H12.8333C13.1555 6.41672 13.4167 6.67789 13.4167 7.00005C13.4167 7.32222 13.1555 7.58339 12.8333 7.58339H5.25001C4.92784 7.58339 4.66668 7.32222 4.66668 7.00005Z" />
      <path
        d="M4.66668 11.6667C4.66668 11.3446 4.92784 11.0834 5.25001 11.0834H12.8333C13.1555 11.0834 13.4167 11.3446 13.4167 11.6667C13.4167 11.9889 13.1555 12.2501 12.8333 12.2501H5.25001C4.92784 12.2501 4.66668 11.9889 4.66668 11.6667Z" />
    </g>
  </g>
</svg>
