<svg width="16" height="16" viewBox="0 0 16 16" fill="none" xmlns="http://www.w3.org/2000/svg">
<rect width="16" height="16" rx="3.2" fill="#5C61F5"/>
<mask id="mask0_2473_613" style="mask-type:alpha" maskUnits="userSpaceOnUse" x="3" y="3" width="10" height="10">
<rect x="3" y="3" width="10" height="10" fill="#D9D9D9"/>
</mask>
<g mask="url(#mask0_2473_613)">
<path d="M5.08496 12.1644C4.85579 12.1644 4.65961 12.0828 4.49642 11.9196C4.33322 11.7564 4.25163 11.5602 4.25163 11.3311V6.63314C4.12663 6.55675 4.02593 6.45779 3.94954 6.33626C3.87316 6.21474 3.83496 6.07411 3.83496 5.91439V4.66439C3.83496 4.43522 3.91656 4.23904 4.07975 4.07585C4.24295 3.91265 4.43913 3.83105 4.66829 3.83105H11.335C11.5641 3.83105 11.7603 3.91265 11.9235 4.07585C12.0867 4.23904 12.1683 4.43522 12.1683 4.66439V5.91439C12.1683 6.07411 12.1301 6.21474 12.0537 6.33626C11.9773 6.45779 11.8766 6.55675 11.7516 6.63314V11.3311C11.7516 11.5602 11.67 11.7564 11.5068 11.9196C11.3436 12.0828 11.1475 12.1644 10.9183 12.1644H5.08496ZM4.66829 5.91439H11.335V4.66439H4.66829V5.91439ZM6.75163 8.83105H9.25163V7.99772H6.75163V8.83105Z" fill="white"/>
</g>
</svg>
