<svg width="39" height="36" viewBox="0 0 39 18" fill="none" xmlns="http://www.w3.org/2000/svg">
  <path
    d="M4.98073 0.282471H2.26985V2.78645H0.179666V5.30104H2.27516V9.24799H0.179666V11.7626H2.27516V14.4841C2.27516 14.6804 2.11601 14.8395 1.91972 14.8395H0.0947876V17.5451H1.91972C3.60673 17.5451 4.98604 16.1711 4.98604 14.4841V9.96417H7.07622V7.44958H4.98604V5.30635H7.07622V2.79175H4.98604V0.287776L4.98073 0.282471Z"
    fill="white" />
  <path
    d="M15.6545 0.197754H10.8588C9.26195 0.197754 7.96222 1.49749 7.96222 3.089V14.6328C7.96222 16.2296 9.26195 17.524 10.8588 17.524H15.6545C17.2513 17.524 18.5511 16.2243 18.5511 14.6328V3.089C18.5511 1.49218 17.2513 0.197754 15.6545 0.197754ZM15.8402 14.6328C15.8402 14.7389 15.7553 14.8184 15.6545 14.8184H10.8588C10.7527 14.8184 10.6731 14.7336 10.6731 14.6328V3.089C10.6731 2.9829 10.758 2.90332 10.8588 2.90332H15.6545C15.7606 2.90332 15.8402 2.98821 15.8402 3.089V14.6328Z"
    fill="white" />
  <path
    d="M32.8747 7.25306L36.3389 2.84987L36.3176 0.420166H23.2036V3.12574H32.6784L29.4317 7.25306H21.4317V9.95863H29.3097V14.4679C29.3097 14.6642 29.1505 14.8234 28.9542 14.8234H25.0338V17.5289H28.9542C30.6466 17.5289 32.0206 16.1549 32.0206 14.4679V9.95863H38.9543V7.25306H32.8747Z"
    fill="white" />
</svg>
