<svg width="16" height="16" viewBox="0 0 16 16" fill="none" xmlns="http://www.w3.org/2000/svg">
<path d="M0.666992 7.99984C0.666992 12.0498 3.95033 15.3332 8.00033 15.3332C12.0503 15.3332 15.3337 12.0498 15.3337 7.99984C15.3337 3.94984 12.0503 0.666504 8.00033 0.666504C3.95033 0.666504 0.666992 3.94984 0.666992 7.99984ZM10.53 6.21689C10.7882 5.95869 11.208 5.96529 11.4661 6.22357C11.7243 6.48184 11.7308 6.90169 11.4726 7.15983C10.2146 8.41714 8.9556 9.67342 7.69934 10.9324C7.43866 11.1937 7.01534 11.1937 6.75459 10.9325C6.09813 10.2749 5.44066 9.6184 4.78349 8.96157C4.52562 8.70384 4.53328 8.28443 4.79094 8.02649C5.04861 7.76855 5.46798 7.76084 5.72579 8.01865L7.227 9.51986L10.53 6.21689Z" fill="#4062FF"/>
</svg>
