<svg xmlns="http://www.w3.org/2000/svg" width="16" height="16" viewBox="0 0 16 16" fill="none">
    <path
        d="M7.0124 11.0337L10.642 8.31144C10.8494 8.15588 10.8494 7.84477 10.642 7.68922L7.0124 4.96699C6.75603 4.77472 6.39018 4.95764 6.39018 5.2781V10.7225C6.39018 11.043 6.75603 11.2259 7.0124 11.0337Z"
        fill="#1D1C23" fill-opacity="0.6" />
    <path
        d="M15.3346 8.00033C15.3346 12.0504 12.0514 15.3337 8.0013 15.3337C3.95121 15.3337 0.667969 12.0504 0.667969 8.00033C0.667969 3.95024 3.95121 0.666992 8.0013 0.666992C12.0514 0.666992 15.3346 3.95024 15.3346 8.00033ZM14.0013 8.00033C14.0013 4.68662 11.315 2.00033 8.0013 2.00033C4.68759 2.00033 2.0013 4.68662 2.0013 8.00033C2.0013 11.314 4.68759 14.0003 8.0013 14.0003C11.315 14.0003 14.0013 11.314 14.0013 8.00033Z"
        fill="#1D1C23" fill-opacity="0.6" />
</svg>
