<svg width="14" height="14" viewBox="0 0 14 14" fill="none" xmlns="http://www.w3.org/2000/svg">
    <g id="icon_setting_outlined">
        <path id="Union"
            d="M2.52685 11.5155L2.34536 11.3179C1.70996 10.6258 1.23326 9.8003 0.953785 8.89879L0.875 8.64465L2.0697 7.00426L0.875 5.36387L0.953785 5.10973C1.23326 4.20822 1.70996 3.38274 2.34536 2.69066L2.52685 2.49297L4.53457 2.71242L5.35005 0.853433L5.61154 0.794564C6.06465 0.692556 6.53014 0.640625 7.00197 0.640625C7.47381 0.640625 7.9393 0.692556 8.39241 0.794564L8.65389 0.853433L9.46937 2.71242L11.4771 2.49297L11.6586 2.69066C12.294 3.38274 12.7707 4.20822 13.0502 5.10973L13.1289 5.36387L11.9342 7.00426L13.1289 8.64465L13.0502 8.89879C12.7707 9.8003 12.294 10.6258 11.6586 11.3179L11.4771 11.5155L9.46937 11.2961L8.65389 13.1551L8.39241 13.214C7.9393 13.316 7.47381 13.3679 7.00197 13.3679C6.53014 13.3679 6.06465 13.316 5.61154 13.214L5.35005 13.1551L4.53457 11.2961L2.52685 11.5155ZM4.55982 10.2264C4.93672 10.1852 5.29676 10.3934 5.44907 10.7406L6.10266 12.2305C6.39745 12.2814 6.69793 12.3073 7.00198 12.3073C7.30602 12.3073 7.6065 12.2814 7.90129 12.2305L8.55488 10.7406C8.70719 10.3934 9.06723 10.1852 9.44413 10.2264L11.0508 10.402C11.4388 9.93494 11.7447 9.40423 11.9536 8.83233L10.9944 7.51527C10.7725 7.21068 10.7725 6.79778 10.9944 6.49319L11.9536 5.17613C11.7447 4.60422 11.4388 4.07352 11.0508 3.60646L9.44413 3.78207C9.06723 3.82327 8.70719 3.61508 8.55488 3.26787L7.90129 1.77792C7.6065 1.72702 7.30602 1.7012 7.00198 1.7012C6.69793 1.7012 6.39745 1.72702 6.10266 1.77792L5.44907 3.26787C5.29676 3.61508 4.93672 3.82327 4.55982 3.78207L2.95319 3.60646C2.56516 4.07352 2.25922 4.60422 2.05037 5.17613L3.00959 6.49319C3.23142 6.79778 3.23142 7.21068 3.00959 7.51527L2.05037 8.83233C2.25922 9.40423 2.56516 9.93494 2.95319 10.402L4.55982 10.2264ZM7.00198 9.65577C5.54259 9.65577 4.36056 8.46808 4.36056 7.00426C4.36056 5.54043 5.54259 4.35274 7.00198 4.35274C8.46136 4.35274 9.64339 5.54043 9.64339 7.00426C9.64339 8.46808 8.46136 9.65577 7.00198 9.65577ZM7.00198 8.5952C7.87446 8.5952 8.58278 7.88349 8.58278 7.00429C8.58278 6.12509 7.87446 5.41338 7.00198 5.41338C6.12949 5.41338 5.42117 6.12509 5.42117 7.00429C5.42117 7.88349 6.12949 8.5952 7.00198 8.5952Z"
            fill="currentColor" />
    </g>
</svg>
