<svg xmlns="http://www.w3.org/2000/svg" width="14" height="14" viewBox="0 0 14 14" fill="none">
    <path
        d="M8.87951 5.03001H11.3832C13.125 5.03001 13.5251 6.56658 13.125 7.71796L11.3832 12.3006C11.2361 12.8336 10.7459 13.2033 10.1865 13.2033H3.62023C3.2991 13.2033 3.03878 12.9432 3.03878 12.6222C3.03878 12.3684 3.03878 12.1114 3.03878 12.0365V6.22319C3.03878 6.14696 3.03878 5.87573 3.03878 5.6111C3.03878 5.29016 3.2991 5.03001 3.62023 5.03001H3.93047C4.12054 5.03001 4.29871 4.93752 4.40801 4.78212L6.83129 1.33686C6.99531 1.07605 7.43806 0.876115 7.90995 1.09089C8.61779 1.41305 9.46515 2.11632 9.46515 3.28153C9.46515 3.72098 9.26994 4.30381 8.87951 5.03001ZM11.3832 6.19679H6.92689L7.85111 4.47774C8.15845 3.90609 8.2977 3.49036 8.2977 3.28153C8.2977 2.94299 8.22664 2.56008 7.61877 2.24615L5.01439 5.9489C4.90508 6.10431 4.72691 6.19679 4.53684 6.19679H4.20624V12.0365H10.1865C10.2227 12.0365 10.2509 12.0153 10.2579 11.9902L10.2724 11.9374L12.027 7.32102C12.2577 6.64187 12.0276 6.19679 11.3832 6.19679Z"
        fill="#060709" fill-opacity="0.5" />
    <path
        d="M2.16289 12.6222V5.61202C2.16289 5.32146 1.93646 5.04015 1.58145 5.03091C1.24651 5.02219 1 5.32146 1 5.61202V12.6222C1 12.9128 1.23167 13.2033 1.58145 13.2033C1.93122 13.2033 2.16289 12.9128 2.16289 12.6222Z"
        fill="#060709" fill-opacity="0.5" />
</svg>
