<svg width="16" height="16" viewBox="0 0 16 16" fill="currentColor" xmlns="http://www.w3.org/2000/svg">
<g clip-path="url(#clip0_5025_1480)">
<path d="M7.43768 8.06336C5.96104 6.08844 4.72933 4.436 4.70987 4.40177C4.67546 4.3433 4.77832 4.33333 5.28168 4.33333H5.8877L8.59654 7.95111C10.0827 9.94108 11.3099 11.5933 11.3144 11.6178C11.3243 11.6471 11.0994 11.6667 10.7277 11.6667L10.1266 11.6617L7.43768 8.06336Z" fill="#1D1C23"/>
<path fill-rule="evenodd" clip-rule="evenodd" d="M1.29215 5.08622C2.33876 2.68567 4.64104 0.989328 7.21768 0.720439C8.08321 0.632341 8.84548 0.686217 9.71101 0.89155C13.6515 1.82992 16.086 5.84888 15.0938 9.77945C14.4582 12.2876 12.5221 14.3066 10.0632 15.0155C8.42034 15.4944 6.6359 15.3821 5.08612 14.7076C3.10612 13.8421 1.5759 12.1115 0.984344 10.0632C0.505429 8.42044 0.617677 6.63599 1.29215 5.08622ZM8.48879 6.77777C8.46923 6.77777 7.94104 6.09333 7.31546 5.26222L6.18104 3.74666H4.84168C4.10326 3.74666 3.50212 3.75165 3.50212 3.76113C3.50212 3.77111 4.28434 4.82222 5.23768 6.09333C6.19101 7.36933 6.96834 8.43002 6.96326 8.44997C6.95378 8.46444 6.17155 9.31999 5.2277 10.3418C4.27946 11.3634 3.50212 12.2144 3.50212 12.2289C3.50212 12.2434 3.67323 12.2533 3.88326 12.2533H4.2599L5.75101 10.6351C6.57215 9.74552 7.26657 8.99733 7.2959 8.97288C7.33501 8.94326 7.7359 9.43733 8.59146 10.5862L9.83323 12.2484L11.1677 12.2533C11.8965 12.2533 12.4977 12.2389 12.4977 12.2144C12.4977 12.1945 11.6715 11.08 10.6643 9.73555L8.83101 7.29599L9.06548 7.04666C9.19768 6.91446 9.86257 6.19599 10.5421 5.45777C11.2217 4.71945 11.8572 4.03002 11.955 3.92775L12.1261 3.74666H11.3292L9.92612 5.26222C9.15876 6.09333 8.50834 6.77777 8.48879 6.77777Z" fill="#1D1C23"/>
</g>
<defs>
<clipPath id="clip0_5025_1480">
<rect width="16" height="16" fill="white"/>
</clipPath>
</defs>
</svg>
