<svg width="16" height="16" viewBox="0 0 16 16" fill="none" xmlns="http://www.w3.org/2000/svg">
    <rect width="16" height="16" rx="2.66667" fill="#28CAC8" />
    <path
        d="M3.26562 8.00174C3.26562 10.6174 5.38605 12.7378 8.00174 12.7378C10.6174 12.7378 12.7378 10.6174 12.7378 8.00174C12.7378 5.38605 10.6174 3.26562 8.00174 3.26562C5.38605 3.26562 3.26562 5.38605 3.26562 8.00174ZM9.72396 7.57118C9.96175 7.57118 10.1545 7.76395 10.1545 8.00174C10.1545 8.23953 9.96175 8.43229 9.72396 8.43229H8.00174C7.76395 8.43229 7.57118 8.23953 7.57118 8.00174V5.84896C7.57118 5.61117 7.76395 5.4184 8.00174 5.4184C8.23953 5.4184 8.43229 5.61117 8.43229 5.84896V7.57118H9.72396Z"
        fill="white" />
</svg>
