<svg xmlns="http://www.w3.org/2000/svg" width="20" height="20" viewBox="0 0 20 20" fill="none">
  <path d="M10.0002 19.1668C15.0628 19.1668 19.1668 15.0628 19.1668 10.0002C19.1668 4.93755 15.0628 0.833496 10.0002 0.833496C4.93755 0.833496 0.833496 4.93755 0.833496 10.0002C0.833496 15.0628 4.93755 19.1668 10.0002 19.1668Z" fill="#4D53E8"/>
  <path d="M10 6.66667C10.4602 6.66667 10.8333 6.29357 10.8333 5.83333C10.8333 5.3731 10.4602 5 10 5C9.53976 5 9.16667 5.3731 9.16667 5.83333C9.16667 6.29357 9.53976 6.66667 10 6.66667Z" fill="white"/>
  <path d="M9.16667 7.5C8.70643 7.5 8.33333 7.8731 8.33333 8.33333C8.33333 8.79357 8.70643 9.16667 9.16667 9.16667V12.5H8.33333C7.8731 12.5 7.5 12.8731 7.5 13.3333C7.5 13.7936 7.8731 14.1667 8.33333 14.1667H11.6667C12.1269 14.1667 12.5 13.7936 12.5 13.3333C12.5 12.8731 12.1269 12.5 11.6667 12.5H10.8333V8.33333C10.8333 7.8731 10.4602 7.5 10 7.5H9.16667Z" fill="white"/>
</svg>
