<svg width="20" height="20" viewBox="0 0 20 20" fill="none" xmlns="http://www.w3.org/2000/svg">
<path d="M3.60978 16.4443L3.35051 16.1619C2.44281 15.1732 1.76179 13.9939 1.36255 12.7061L1.25 12.343L2.95671 9.9996L1.25 7.65619L1.36255 7.29313C1.76179 6.00525 2.44281 4.82601 3.35051 3.83731L3.60978 3.5549L6.47796 3.8684L7.64293 1.2127L8.01649 1.1286C8.66378 0.982878 9.32877 0.908691 10.0028 0.908691C10.6769 0.908691 11.3419 0.982878 11.9892 1.1286L12.3627 1.2127L13.5277 3.8684L16.3959 3.5549L16.6551 3.83731C17.5628 4.82601 18.2438 6.00525 18.6431 7.29313L18.7556 7.65619L17.0489 9.9996L18.7556 12.343L18.6431 12.7061C18.2438 13.9939 17.5628 15.1732 16.6551 16.1619L16.3959 16.4443L13.5277 16.1308L12.3627 18.7865L11.9892 18.8706C11.3419 19.0163 10.6769 19.0905 10.0028 19.0905C9.32877 19.0905 8.66378 19.0163 8.01649 18.8706L7.64293 18.7865L6.47796 16.1308L3.60978 16.4443ZM6.51403 14.6026C7.05246 14.5438 7.5668 14.8412 7.78438 15.3372L8.71809 17.4657C9.13921 17.5384 9.56847 17.5753 10.0028 17.5753C10.4372 17.5753 10.8664 17.5384 11.2876 17.4657L12.2213 15.3372C12.4388 14.8412 12.9532 14.5438 13.4916 14.6026L15.7868 14.8535C16.3411 14.1863 16.7782 13.4281 17.0765 12.6111L15.7062 10.7296C15.3893 10.2945 15.3893 9.70462 15.7062 9.2695L17.0765 7.38798C16.7782 6.57098 16.3411 5.81282 15.7868 5.1456L13.4916 5.39647C12.9532 5.45532 12.4388 5.15791 12.2213 4.66189L11.2876 2.53341C10.8664 2.46069 10.4372 2.4238 10.0028 2.4238C9.56847 2.4238 9.13921 2.46069 8.71809 2.53341L7.78438 4.66189C7.5668 5.15791 7.05246 5.45532 6.51403 5.39647L4.21885 5.1456C3.66452 5.81282 3.22746 6.57098 2.9291 7.38798L4.29941 9.2695C4.61631 9.70462 4.61631 10.2945 4.29941 10.7296L2.9291 12.6111C3.22746 13.4281 3.66452 14.1863 4.21885 14.8535L6.51403 14.6026ZM10.0028 13.7875C7.91799 13.7875 6.22937 12.0908 6.22937 9.99959C6.22937 7.90841 7.91799 6.21171 10.0028 6.21171C12.0877 6.21171 13.7763 7.90841 13.7763 9.99959C13.7763 12.0908 12.0877 13.7875 10.0028 13.7875ZM10.0028 12.2724C11.2492 12.2724 12.2611 11.2556 12.2611 9.99965C12.2611 8.74365 11.2492 7.72692 10.0028 7.72692C8.75641 7.72692 7.74452 8.74365 7.74452 9.99965C7.74452 11.2556 8.75641 12.2724 10.0028 12.2724Z" fill="#2E2E38"/>
</svg>
