<svg width="20" height="20" viewBox="0 0 20 20" fill="none" xmlns="http://www.w3.org/2000/svg">
<path fill-rule="evenodd" clip-rule="evenodd" d="M10.7552 3.05075C10.7552 1.52567 8.81085 0.882225 7.9011 2.10625L6.06733 4.5735L7.13944 5.64561L9.10499 3.00104C9.11679 2.98517 9.12588 2.97797 9.13044 2.97482C9.13522 2.97153 9.13961 2.96956 9.14439 2.96821C9.155 2.9652 9.17433 2.96378 9.19805 2.97164C9.22178 2.97949 9.23645 2.99215 9.24318 3.0009C9.2462 3.00484 9.24855 3.00904 9.25042 3.01453C9.25221 3.01977 9.25521 3.03098 9.25521 3.05075V7.76138L10.7552 9.26138V3.05075ZM10.7552 13.6754L9.25521 12.1754V17.3374C9.25521 17.3686 9.24739 17.3802 9.24344 17.3856C9.2367 17.3948 9.223 17.4071 9.20145 17.4153C9.1799 17.4235 9.16149 17.4234 9.15033 17.421C9.14378 17.4195 9.13021 17.416 9.10953 17.3927L5.98293 13.8682L5.75913 13.6159H5.42188H2.50521C2.45918 13.6159 2.42187 13.5786 2.42187 13.5326V7.53256C2.42187 7.48653 2.45918 7.44922 2.50521 7.44922H4.52899L3.02899 5.94922H2.50521C1.63076 5.94922 0.921875 6.6581 0.921875 7.53256V13.5326C0.921875 14.407 1.63076 15.1159 2.50521 15.1159H5.08462L7.98742 18.3881C8.9541 19.4778 10.7552 18.7941 10.7552 17.3374V13.6754Z" fill="#C6C6CD"/>
<path fill-rule="evenodd" clip-rule="evenodd" d="M16.9083 15.4146C17.1843 14.9721 17.424 14.5066 17.6245 14.0225C18.102 12.8699 18.3477 11.6346 18.3477 10.387C18.3477 9.13945 18.102 7.9041 17.6245 6.75151C17.1471 5.59892 16.4474 4.55165 15.5652 3.66949L15.0349 3.13916L13.9742 4.19982L14.5045 4.73015C15.2474 5.47302 15.8367 6.35493 16.2387 7.32554C16.6408 8.29614 16.8477 9.33643 16.8477 10.387C16.8477 11.4376 16.6408 12.4779 16.2387 13.4485C16.1146 13.748 15.9727 14.0391 15.814 14.3203L16.9083 15.4146ZM14.4525 12.9588C14.4846 12.8888 14.5154 12.8182 14.5449 12.7469C14.8548 11.9987 15.0144 11.1968 15.0144 10.387C15.0144 9.57719 14.8548 8.7753 14.5449 8.02712C14.235 7.27895 13.7808 6.59914 13.2082 6.02651L12.6778 5.49618L11.6172 6.55684L12.1475 7.08717C12.5809 7.52051 12.9246 8.03496 13.1591 8.60115C13.3936 9.16733 13.5144 9.77417 13.5144 10.387C13.5144 10.8677 13.4401 11.3447 13.2949 11.8012L14.4525 12.9588Z" fill="#C6C6CD"/>
<rect x="2.14844" y="3.01318" width="19.7727" height="1.5" rx="0.75" transform="rotate(45 2.14844 3.01318)" fill="#C6C6CD"/>
</svg>
