<svg xmlns="http://www.w3.org/2000/svg" width="20" height="20" viewBox="0 0 20 20" fill="none">
<path d="M11.4609 4.94445C11.5607 4.99079 11.6504 5.05639 11.7248 5.1375C11.7992 5.21861 11.8569 5.31361 11.8944 5.41707C11.932 5.52052 11.9488 5.63038 11.9438 5.74033C11.9388 5.85029 11.9121 5.95817 11.8653 6.05778L9.6553 10.7733C9.56055 10.9748 9.3899 11.1306 9.18065 11.2065C8.9714 11.2825 8.74057 11.2726 8.53863 11.1789C8.43907 11.1325 8.34962 11.067 8.2754 10.9861C8.20117 10.9052 8.14364 10.8104 8.10607 10.7072C8.06851 10.604 8.05166 10.4944 8.05648 10.3847C8.0613 10.275 8.08771 10.1673 8.13418 10.0678L10.3442 5.35223C10.4387 5.15057 10.6093 4.99457 10.8186 4.91836C11.0278 4.84215 11.2588 4.85193 11.4609 4.94556V4.94445Z" fill="#1D1C23" fill-opacity="0.6"/>
<path d="M4.37307 8.70334C4.2791 8.62509 4.20358 8.52705 4.15191 8.41622C4.10024 8.30539 4.0737 8.18451 4.07418 8.06223C4.0737 7.93995 4.10024 7.81907 4.15191 7.70824C4.20358 7.59741 4.2791 7.49936 4.37307 7.42112L5.92641 5.87667C6.08403 5.7198 6.29736 5.63174 6.51974 5.63174C6.74212 5.63174 6.95545 5.7198 7.11307 5.87667C7.19068 5.95408 7.25225 6.04604 7.29426 6.14728C7.33627 6.24853 7.35789 6.35706 7.35789 6.46667C7.35789 6.57628 7.33627 6.68482 7.29426 6.78606C7.25225 6.8873 7.19068 6.97926 7.11307 7.05667L6.10196 8.06223L7.11307 9.06778C7.19071 9.14529 7.25231 9.23734 7.29433 9.33867C7.33636 9.44001 7.35799 9.54863 7.35799 9.65834C7.35799 9.76804 7.33636 9.87667 7.29433 9.978C7.25231 10.0793 7.19071 10.1714 7.11307 10.2489C6.95545 10.4058 6.74212 10.4938 6.51974 10.4938C6.29736 10.4938 6.08403 10.4058 5.92641 10.2489L4.37307 8.70445V8.70334Z" fill="#1D1C23" fill-opacity="0.6"/>
<path d="M14.0731 10.2489L15.6264 8.70334C15.7204 8.62509 15.7959 8.52705 15.8476 8.41622C15.8992 8.30539 15.9258 8.18451 15.9253 8.06223C15.9258 7.93995 15.8992 7.81907 15.8476 7.70824C15.7959 7.59741 15.7204 7.49936 15.6264 7.42112L14.0731 5.87667C13.9155 5.7198 13.7021 5.63174 13.4797 5.63174C13.2574 5.63174 13.044 5.7198 12.8864 5.87667C12.7299 6.03248 12.6417 6.24404 12.641 6.46487C12.6404 6.68571 12.7275 6.89776 12.8831 7.05445L12.8864 7.05667L13.8975 8.06223L12.8864 9.06778C12.8086 9.14521 12.7469 9.23724 12.7048 9.33858C12.6627 9.43993 12.641 9.54859 12.641 9.65834C12.641 9.76808 12.6627 9.87675 12.7048 9.97809C12.7469 10.0794 12.8086 10.1715 12.8864 10.2489C13.044 10.4058 13.2574 10.4938 13.4797 10.4938C13.7021 10.4938 13.9155 10.4058 14.0731 10.2489Z" fill="#1D1C23" fill-opacity="0.6"/>
<path d="M2.49967 1.66663C1.58301 1.66663 0.833008 2.41663 0.833008 3.33329V13.3333C0.833008 14.25 1.58301 15 2.49967 15H9.16634V16.6666H6.66634C6.2061 16.6666 5.83301 17.0397 5.83301 17.5C5.83301 17.9602 6.2061 18.3333 6.66634 18.3333H13.333C13.7932 18.3333 14.1663 17.9602 14.1663 17.5C14.1663 17.0397 13.7932 16.6666 13.333 16.6666H10.833V15H17.4997C18.4163 15 19.1663 14.25 19.1663 13.3333V3.33329C19.1663 2.41663 18.4163 1.66663 17.4997 1.66663H2.49967ZM2.49967 3.33329H17.4997V13.3333H2.49967V3.33329Z" fill="#1D1C23" fill-opacity="0.6"/>
</svg>
