<svg width="16" height="16" viewBox="0 0 16 16" fill="none" xmlns="http://www.w3.org/2000/svg">
<path d="M8.00001 15C11.6432 15 14.6667 13.6566 14.6667 11.6851V4.31486C14.6667 2.34344 11.6432 1 8.00001 1C4.35684 1 1.33334 2.34344 1.33334 4.31486V11.6851C1.33334 13.6566 4.35684 15 8.00001 15ZM2.60318 4.31486C2.60318 3.32593 4.9807 2.26952 8.00001 2.26952C11.0193 2.26952 13.3968 3.32593 13.3968 4.31486V4.34546L13.396 4.34634C13.3463 5.32608 10.9873 6.3602 8.00001 6.3602C4.9807 6.3602 2.60318 5.3038 2.60318 4.31486ZM2.60318 6.31483C3.82158 7.13873 5.79756 7.62972 8.00001 7.62972C10.2025 7.62972 12.1784 7.13873 13.3968 6.31483V8.02752L13.3962 8.02822C13.3516 9.00892 10.9906 10.0453 8.00001 10.0453C5.03797 10.0453 2.69361 9.02863 2.60574 8.05634C2.60566 8.05542 2.60478 8.0545 2.60318 8.05358V6.31483ZM13.3968 11.6851C13.3968 12.6741 11.0193 13.7305 8.00001 13.7305C4.9807 13.7305 2.60318 12.6741 2.60318 11.6851V9.99997C3.82158 10.8239 5.79756 11.3149 8.00001 11.3149C10.2025 11.3149 12.1784 10.8239 13.3968 9.99997V11.6851Z" fill="#040A1A"/>
</svg>
