<svg xmlns="http://www.w3.org/2000/svg" width="15" height="15" viewBox="0 0 15 15" fill="none">
  <path fill-rule="evenodd" clip-rule="evenodd" d="M2.10622 1.55078C1.78004 1.55078 1.51562 1.8152 1.51562 2.14138V11.035C1.51562 11.809 1.83515 12.5513 2.40391 13.0985C2.97266 13.6458 3.74407 13.9533 4.54841 13.9533H12.1463C12.4725 13.9533 12.7369 13.6889 12.7369 13.3627V4.46901C12.7369 3.69505 12.4174 2.95279 11.8486 2.40551C11.2799 1.85824 10.5085 1.55078 9.70414 1.55078H2.10622ZM8.82117 4.65088H4.0293V9.44275C4.0293 10.2211 4.6603 10.8521 5.43867 10.8521H10.2305V6.06025C10.2305 5.28188 9.59954 4.65088 8.82117 4.65088ZM7.52952 7.32871V5.4965H8.82117C9.13252 5.4965 9.38492 5.7489 9.38492 6.06025V7.32871H7.52952ZM4.87492 5.4965H6.6839V7.32871H4.87492V5.4965ZM4.87492 9.44275V8.17433H6.6839V10.0065H5.43867C5.12732 10.0065 4.87492 9.7541 4.87492 9.44275ZM9.38492 10.0065H7.52952V8.17433H9.38492V10.0065Z" fill="white"/>
</svg>
