<svg xmlns="http://www.w3.org/2000/svg" width="16" height="16" viewBox="0 0 16 16" fill="none">
  <mask id="mask0_2095_7390" style="mask-type:alpha" maskUnits="userSpaceOnUse" x="0" y="0" width="16" height="16">
    <rect width="16" height="16" fill="#D9D9D9" />
  </mask>
  <g mask="url(#mask0_2095_7390)">
    <path
      d="M7.01149 2.86613C7.62447 2.51759 8.37569 2.51759 8.98866 2.86614L12.9713 5.13073C13.6455 5.51413 13.6455 6.48589 12.9713 6.8693L8.98856 9.13406C8.37556 9.48264 7.62429 9.48264 7.01129 9.13405L3.02871 6.86932C2.35446 6.4859 2.35448 5.51414 3.02875 5.13074L7.01149 2.86613Z"
      stroke="#6B6B75" stroke-width="1.33" />
    <path
      d="M7.01149 6.86613C7.62447 6.51759 8.37569 6.51759 8.98866 6.86614L12.9713 9.13073C13.6455 9.51413 13.6455 10.4859 12.9713 10.8693L8.98856 13.1341C8.37556 13.4826 7.62429 13.4826 7.01129 13.134L3.02871 10.8693C2.35446 10.4859 2.35448 9.51414 3.02875 9.13074L7.01149 6.86613Z"
      stroke="#6B6B75" stroke-width="1.33" />
  </g>
</svg>
