<svg width="16" height="17" viewBox="0 0 16 17" fill="none" xmlns="http://www.w3.org/2000/svg">
<path d="M2.26088 14.3216L2.96384 13.3157C1.82857 12.149 1.10305 10.6017 1.01107 8.89141C1.00372 8.76184 1 8.63134 1 8.49999C1 4.634 4.22439 1.5 8.20189 1.5C8.24575 1.5 8.28947 1.5 8.33333 1.5C10.074 1.5 11.6663 2.13536 12.891 3.18682C13.8416 3.98016 14.5769 5.01039 15 6.18331C15.0145 6.22362 15.3333 7.54467 15.3333 8.5C15.3333 12.083 12.6413 15.0373 9.16957 15.4506L9.16791 15.4508C8.89425 15.4833 8.61574 15.5 8.33333 15.5C8.17003 15.4997 8 15.5 7.83708 15.5H2.90299C2.27997 15.5 1.91082 14.8225 2.26088 14.3216ZM8.33333 14.1667C11.4629 14.1667 14 11.6296 14 8.5C14 7.85773 13.8741 7.20293 13.7251 6.57941C13.3818 5.65934 12.7962 4.8444 12.0367 4.21052L12.0295 4.20453L12.0224 4.19844C11.0304 3.3467 9.74349 2.83333 8.33333 2.83333C8.28952 2.83333 8.2457 2.83333 8.20189 2.83333C4.92478 2.83333 2.33333 5.40587 2.33333 8.49999C2.33333 8.60615 2.33634 8.71148 2.34226 8.81592L2.34248 8.8198C2.41624 10.1914 2.99725 11.4381 3.91943 12.3859L4.68819 13.1759L3.99581 14.1667H7.8143C7.98724 14.1629 8.16038 14.1663 8.33333 14.1667Z" fill="#1D1C23" fill-opacity="0.2"/>
<path d="M11.0586 9.01435C11.4249 8.77339 11.4249 8.22629 11.0586 7.98533L6.92339 5.26496C6.52473 5.00271 6 5.29509 6 5.77947V11.2202C6 11.7046 6.52473 11.997 6.92339 11.7347L11.0586 9.01435Z" fill="#1D1C23" fill-opacity="0.2"/>
</svg>
