<svg width="16" height="16" viewBox="0 0 16 16" fill="none" xmlns="http://www.w3.org/2000/svg">
<g clip-path="url(#clip0_48_222178)">
<path d="M8.00131 15.3332C3.9513 15.3332 0.667969 12.0498 0.667969 7.99984C0.667969 3.94984 3.9513 0.666504 8.00131 0.666504C12.0513 0.666504 15.3346 3.94984 15.3346 7.99984C15.3346 12.0498 12.0513 15.3332 8.00131 15.3332ZM4.97765 5.91891L7.05853 7.99979L4.97765 10.0807C4.7173 10.341 4.7173 10.7631 4.97765 11.0235C5.238 11.2838 5.66011 11.2838 5.92046 11.0235L8.00134 8.9426L10.0822 11.0235C10.3426 11.2838 10.7647 11.2838 11.025 11.0235C11.2854 10.7631 11.2854 10.341 11.025 10.0807L8.94415 7.99979L11.025 5.91891C11.2854 5.65857 11.2854 5.23645 11.025 4.97611C10.7647 4.71576 10.3426 4.71576 10.0822 4.97611L8.00134 7.05699L5.92046 4.97611C5.66011 4.71576 5.238 4.71576 4.97765 4.97611C4.7173 5.23645 4.7173 5.65857 4.97765 5.91891Z" fill="#FF2710"/>
</g>
<defs>
<clipPath id="clip0_48_222178">
<rect width="16" height="16" fill="white"/>
</clipPath>
</defs>
</svg>
