<svg xmlns="http://www.w3.org/2000/svg" width="9" height="9" viewBox="0 0 9 9" fill="none">
  <path d="M6.40913 1.8131C5.66784 1.24288 4.6035 1.38831 4.04236 2.1365L3.11652 3.37096C2.58803 4.0756 2.73084 5.07526 3.43549 5.60374L3.75961 5.84683C3.90689 5.95729 4.11582 5.92744 4.22628 5.78017C4.33673 5.63289 4.30688 5.42396 4.15961 5.3135L3.83549 5.07041C3.42539 4.76284 3.34228 4.18105 3.64985 3.77096L4.57569 2.5365C4.91401 2.0854 5.55572 1.99772 6.00266 2.34152C6.45175 2.68698 6.52986 3.33376 6.17591 3.77619L5.69932 4.37193C5.58432 4.51569 5.60762 4.72545 5.75138 4.84046C5.89513 4.95546 6.1049 4.93215 6.2199 4.7884L6.69649 4.19265C7.28355 3.45883 7.154 2.38608 6.40913 1.8131Z" fill="white"/>
  <path d="M1.84349 8.01389C2.58478 8.58412 3.64912 8.43869 4.21026 7.69049L5.13611 6.45604C5.66459 5.75139 5.52178 4.75174 4.81714 4.22326L4.49301 3.98016C4.34574 3.86971 4.1368 3.89955 4.02635 4.04683C3.91589 4.19411 3.94574 4.40304 4.09301 4.5135L4.41714 4.75659C4.82723 5.06416 4.91034 5.64594 4.60277 6.05604L3.67693 7.29049C3.33861 7.74159 2.6969 7.82928 2.24996 7.48548C1.80087 7.14002 1.72276 6.49324 2.07671 6.0508L2.5533 5.45506C2.66831 5.31131 2.645 5.10154 2.50125 4.98654C2.35749 4.87154 2.14773 4.89484 2.03272 5.0386L1.55613 5.63434C0.969073 6.36816 1.09862 7.44092 1.84349 8.01389Z" fill="white"/>
  <path d="M0.292969 4.91349C0.292969 4.7294 0.442207 4.58016 0.626302 4.58016H1.29297C1.47706 4.58016 1.6263 4.7294 1.6263 4.91349C1.6263 5.09759 1.47706 5.24683 1.29297 5.24683H0.626302C0.442207 5.24683 0.292969 5.09759 0.292969 4.91349Z" fill="white"/>
  <path d="M6.62632 5.95813C6.46689 5.86608 6.26303 5.92071 6.17098 6.08014C6.07893 6.23957 6.13356 6.44343 6.29299 6.53548L6.87034 6.86882C7.02977 6.96086 7.23363 6.90624 7.32568 6.74681C7.41773 6.58738 7.3631 6.38351 7.20367 6.29146L6.62632 5.95813Z" fill="white"/>
  <path d="M6.6263 4.91349C6.6263 4.7294 6.77554 4.58016 6.95964 4.58016H7.6263C7.8104 4.58016 7.95964 4.7294 7.95964 4.91349C7.95964 5.09759 7.8104 5.24683 7.6263 5.24683H6.95964C6.77554 5.24683 6.6263 5.09759 6.6263 4.91349Z" fill="white"/>
  <path d="M1.29299 2.95813C1.13356 2.86608 0.929694 2.92071 0.837646 3.08014C0.745599 3.23957 0.800224 3.44343 0.959655 3.53548L1.53701 3.86882C1.69644 3.96086 1.9003 3.90624 1.99235 3.74681C2.08439 3.58738 2.02977 3.38351 1.87034 3.29146L1.29299 2.95813Z" fill="white"/>
  <path d="M2.6263 1.58016C2.8104 1.58016 2.95964 1.7294 2.95964 1.91349V2.58016C2.95964 2.76425 2.8104 2.91349 2.6263 2.91349C2.44221 2.91349 2.29297 2.76425 2.29297 2.58016V1.91349C2.29297 1.7294 2.44221 1.58016 2.6263 1.58016Z" fill="white"/>
  <path d="M5.89771 7.25395C5.89771 7.06985 5.74847 6.92061 5.56437 6.92061C5.38028 6.92061 5.23104 7.06985 5.23104 7.25395V7.92061C5.23104 8.10471 5.38028 8.25395 5.56437 8.25395C5.74847 8.25395 5.89771 8.10471 5.89771 7.92061V7.25395Z" fill="white"/>
</svg>
