<svg width="24" height="24" viewBox="0 0 24 24" fill="none" xmlns="http://www.w3.org/2000/svg">
    <path
        d="M2.5 2.5C2.5 1.94772 2.94772 1.5 3.5 1.5H16.5C19.2614 1.5 21.5 3.73858 21.5 6.5V21.5C21.5 22.0523 21.0523 22.5 20.5 22.5H7.5C4.73858 22.5 2.5 20.2614 2.5 17.5V2.5ZM4.5 3.5V7H13.5C15.1569 7 16.5 8.34315 16.5 10V20.5H19.5V6.5C19.5 4.84315 18.1569 3.5 16.5 3.5H4.5ZM4.5 12.5H9.5C10.6046 12.5 11.5 13.3954 11.5 14.5V20.5H14.5V10C14.5 9.44772 14.0523 9 13.5 9H4.5V12.5ZM4.5 14.5V17.5C4.5 19.1569 5.84315 20.5 7.5 20.5H9.5V14.5H4.5Z"
        fill="currentColor" />
</svg>
