<svg width="25" height="25" viewBox="0 0 25 25" fill="none" xmlns="http://www.w3.org/2000/svg">
    <path
        d="M18.554 6.96208C18.5491 6.95339 18.5411 6.94659 18.5314 6.94288C17.403 6.46325 16.2123 6.12124 14.989 5.9254C14.9779 5.92349 14.9664 5.92487 14.9562 5.92935C14.9459 5.93383 14.9375 5.94118 14.9321 5.95035C14.7699 6.223 14.6227 6.50305 14.4911 6.78943C13.1724 6.60398 11.8311 6.60398 10.5124 6.78943C10.3799 6.50232 10.2303 6.2222 10.0645 5.95035C10.0588 5.94138 10.0503 5.93419 10.0402 5.92974C10.03 5.92529 10.0186 5.92378 10.0075 5.9254C8.78409 6.12083 7.59329 6.46287 6.46509 6.94291C6.45543 6.9467 6.44728 6.95318 6.44177 6.96145C4.1856 10.083 3.56755 13.1278 3.87075 16.1349C3.8716 16.1422 3.87404 16.1494 3.87793 16.1559C3.88182 16.1623 3.88708 16.168 3.89339 16.1726C5.20713 17.0738 6.67657 17.7617 8.239 18.2069C8.25001 18.21 8.26175 18.2098 8.27267 18.2065C8.28359 18.2032 8.29315 18.1969 8.30006 18.1884C8.63564 17.7653 8.93298 17.3174 9.18907 16.8491C9.19259 16.8427 9.1946 16.8356 9.19497 16.8284C9.19534 16.8212 9.19405 16.814 9.1912 16.8073C9.18835 16.8006 9.184 16.7945 9.17844 16.7895C9.17287 16.7845 9.16622 16.7806 9.15891 16.7781C8.69002 16.6119 8.23608 16.4115 7.80135 16.1789C7.79345 16.1746 7.78682 16.1686 7.78204 16.1613C7.77725 16.1541 7.77447 16.1459 7.77393 16.1374C7.77339 16.1289 7.77511 16.1204 7.77893 16.1127C7.78276 16.105 7.78858 16.0983 7.79587 16.0932C7.88735 16.0299 7.97724 15.9646 8.06547 15.8975C8.07321 15.8916 8.08258 15.8878 8.09251 15.8865C8.10245 15.8853 8.11256 15.8867 8.12171 15.8904C10.9698 17.0947 14.0533 17.0947 16.8677 15.8904C16.8769 15.8864 16.8871 15.8849 16.8972 15.886C16.9072 15.8871 16.9168 15.8909 16.9246 15.8968C17.013 15.9643 17.1031 16.0298 17.1949 16.0932C17.2023 16.0983 17.2081 16.1049 17.212 16.1126C17.2159 16.1203 17.2177 16.1287 17.2172 16.1372C17.2167 16.1457 17.214 16.1539 17.2093 16.1612C17.2046 16.1685 17.198 16.1745 17.1901 16.1789C16.7564 16.4135 16.302 16.6137 15.8319 16.7775C15.8246 16.7801 15.818 16.784 15.8124 16.7891C15.8069 16.7943 15.8026 16.8004 15.7998 16.8072C15.797 16.8139 15.7958 16.8211 15.7962 16.8284C15.7967 16.8356 15.7987 16.8426 15.8023 16.8491C16.0627 17.3148 16.3596 17.7622 16.6906 18.1876C16.6974 18.1964 16.7069 18.2029 16.7178 18.2064C16.7288 18.2098 16.7406 18.21 16.7517 18.2068C18.3169 17.7631 19.7889 17.0751 21.1043 16.1726C21.1107 16.1683 21.1161 16.1627 21.12 16.1563C21.1239 16.1499 21.1263 16.1428 21.127 16.1355C21.49 12.659 20.5193 9.63916 18.554 6.96208ZM9.61442 14.3039C8.75692 14.3039 8.05038 13.5748 8.05038 12.6795C8.05038 11.7841 8.74322 11.055 9.61442 11.055C10.4924 11.055 11.1921 11.7905 11.1784 12.6794C11.1784 13.5748 10.4856 14.3039 9.61442 14.3039ZM15.3971 14.3039C14.5397 14.3039 13.8331 13.5748 13.8331 12.6795C13.8331 11.7841 14.526 11.055 15.3971 11.055C16.2752 11.055 16.9749 11.7905 16.9612 12.6794C16.9612 13.5748 16.2752 14.3039 15.3971 14.3039Z"
        fill="currentColor" />
</svg>
