<svg xmlns="http://www.w3.org/2000/svg" width="14" height="14" viewBox="0 0 14 14" fill="currentColor">
    <path d="M1.6093 11.2682L2.18148 10.4299C1.25743 9.45767 0.666886 8.16828 0.592017 6.743C0.586037 6.63503 0.583008 6.52628 0.583008 6.41682C0.583008 3.19517 3.20751 0.583496 6.44501 0.583496H6.552C7.96884 0.583496 9.26489 1.11296 10.2617 1.98918C11.0355 2.6503 11.634 3.50882 11.9784 4.48626C11.9884 4.51485 12.1779 5.31676 12.2341 6.04576L11.0841 5.56658C11.0734 5.49757 11.062 5.42897 11.0502 5.36166C11.02 5.18892 10.9894 5.03802 10.9661 4.92997C10.9556 4.88174 10.9469 4.84327 10.9407 4.81633C10.6612 4.04961 10.1846 3.3705 9.56633 2.84226L9.55472 2.8322C8.74726 2.12241 7.6998 1.69461 6.552 1.69461H6.44501C3.7776 1.69461 1.66828 3.83839 1.66828 6.41682C1.66828 6.50529 1.67073 6.59306 1.67555 6.6801L1.67573 6.68333C1.73576 7.82632 2.20867 8.86528 2.95929 9.65504L3.58502 10.3134L3.02145 11.0835H5.54134V12.2502H2.13195C1.62484 12.2502 1.32437 11.6856 1.6093 11.2682Z" />
    <path d="M4.08301 4.66683C4.08301 4.34466 4.34417 4.0835 4.66634 4.0835H7.58301C7.90517 4.0835 8.16634 4.34466 8.16634 4.66683C8.16634 4.989 7.90517 5.25016 7.58301 5.25016H4.66634C4.34417 5.25016 4.08301 4.989 4.08301 4.66683Z" />
    <path d="M4.08301 7.00016C4.08301 6.678 4.34417 6.41683 4.66634 6.41683H5.83301C6.15517 6.41683 6.41634 6.678 6.41634 7.00016C6.41634 7.32233 6.15517 7.5835 5.83301 7.5835H4.66634C4.34417 7.5835 4.08301 7.32233 4.08301 7.00016Z" />
    <path d="M11.194 10.3427C12.1087 10.6608 12.833 11.509 12.833 12.5054V12.8335H11.8967V12.681C11.8967 11.839 11.1144 11.1564 10.3316 11.1564H9.20475C8.42195 11.1564 7.64453 11.839 7.64453 12.681V12.8335H6.70801V12.5054C6.70801 11.4327 7.54986 10.5318 8.56333 10.2792C8.14094 9.90512 7.87467 9.35874 7.87467 8.75016C7.87467 7.62258 8.78876 6.7085 9.91634 6.7085C11.0439 6.7085 11.958 7.62258 11.958 8.75016C11.958 9.39415 11.6598 9.96851 11.194 10.3427ZM9.91625 7.68062C9.32561 7.68062 8.8468 8.15943 8.8468 8.75007C8.8468 9.3407 9.32561 9.81951 9.91625 9.81951C10.5069 9.81951 10.9857 9.3407 10.9857 8.75007C10.9857 8.15943 10.5069 7.68062 9.91625 7.68062Z" />
</svg>
