<svg width="140" height="140" viewBox="0 0 140 140" fill="none" xmlns="http://www.w3.org/2000/svg">
<g clip-path="url(#clip0_799_62888)">
<path d="M122.796 110.228C129.199 110.228 134.39 89.2271 134.39 63.3207C134.39 37.4143 129.199 16.4131 122.796 16.4131C116.394 16.4131 111.203 37.4143 111.203 63.3207C111.203 89.2271 116.394 110.228 122.796 110.228Z" fill="#F1F2FD"/>
<path fill-rule="evenodd" clip-rule="evenodd" d="M125.307 17.5141C120.111 22.1555 116.224 40.9006 116.224 63.3188C116.224 85.7368 120.111 104.482 125.307 109.124C124.498 109.846 123.658 110.226 122.797 110.226C116.394 110.226 111.203 89.2249 111.203 63.3188C111.203 37.4125 116.394 16.4111 122.797 16.4111C123.658 16.4111 124.498 16.7919 125.307 17.5141Z" fill="#4D53E8"/>
<path fill-rule="evenodd" clip-rule="evenodd" d="M8.86482 25.6459C10.0319 21.508 13.942 18.92 17.7554 17.14C19.0491 19.2235 20.7631 21.3028 22.7126 22.0439C24.9244 22.8848 26.9793 20.912 27.2467 19.0403C27.378 18.1214 26.4681 16.1364 25.815 15.3468C25.1662 14.5623 24.1365 14.0012 22.7126 13.8207C21.1254 13.6195 19.4202 13.9198 17.7554 14.5854C16.62 12.4842 15.9726 9.97357 16.0919 7.49004L15.1293 7.42676C15.001 10.0962 15.6718 12.7579 16.8362 14.9918C12.8964 16.8999 9.20663 20.8341 7.94922 25.2922L8.86482 25.6459Z" fill="#F1F2FD"/>
<path fill-rule="evenodd" clip-rule="evenodd" d="M14.4935 16.7518C11.8902 18.4715 9.75928 20.9068 8.90388 23.4985L7.98828 23.1963C8.93006 20.343 11.2339 17.7494 13.9621 15.9473C14.8872 15.3362 15.8698 14.8103 16.8753 14.3943C15.711 12.4856 15.0401 10.2111 15.1683 7.92969L16.131 7.98387C16.0117 10.1058 16.6589 12.2512 17.7946 14.0471C19.465 13.4761 21.1687 13.222 22.7517 13.3935C24.1756 13.5477 25.2053 14.0272 25.854 14.6976C26.5071 15.3724 26.7451 16.2142 26.6137 16.9994C26.3463 18.5988 24.6318 19.7421 22.42 19.0236C20.4707 18.3903 18.715 16.9938 17.4211 15.213C16.4203 15.6123 15.4312 16.1324 14.4935 16.7518ZM18.3697 14.8723C19.5451 16.407 21.0751 17.573 22.7179 18.1066C24.4655 18.6743 25.5085 17.763 25.6627 16.8405C25.7423 16.3648 25.607 15.8288 25.1612 15.3681C24.711 14.9029 23.9161 14.4895 22.6479 14.352C21.3068 14.2068 19.8391 14.4028 18.3697 14.8723Z" fill="#4D53E8"/>
<path d="M122.013 37.632C124.512 41.1441 123.655 46.0521 120.085 48.592C116.515 51.1319 111.598 50.3325 109.099 46.8204C106.6 43.3083 107.457 38.4003 111.027 35.8604C114.597 33.3204 119.514 34.1199 122.013 37.632Z" fill="white" stroke="#515151" stroke-width="0.7"/>
<path fill-rule="evenodd" clip-rule="evenodd" d="M107.926 45.4129C110.271 45.3367 112.777 44.4113 114.496 41.8656C114.839 41.3587 115.143 40.9025 115.416 40.4927C117.062 38.0181 117.581 37.2375 118.739 37.2375C119.087 37.2375 119.492 37.3142 119.929 37.3969C120.689 37.541 121.545 37.7031 122.356 37.5079C122.337 37.4813 122.319 37.4548 122.3 37.4284C119.686 33.7552 114.549 32.9251 110.826 35.5745C107.621 37.8547 106.508 41.9688 107.926 45.4129Z" fill="#515151"/>
<path d="M122.207 41.9622C122.527 41.9622 122.786 41.66 122.786 41.2872C122.786 40.9145 122.527 40.6123 122.207 40.6123C121.888 40.6123 121.629 40.9145 121.629 41.2872C121.629 41.66 121.888 41.9622 122.207 41.9622Z" fill="#515151"/>
<path d="M116.533 40.3337C117.066 41.0819 116.891 42.12 116.142 42.6524C115.394 43.1848 114.356 43.0098 113.824 42.2616C113.291 41.5133 113.466 40.4752 114.215 39.9428C114.963 39.4105 116.001 39.5855 116.533 40.3337Z" fill="white" stroke="#515151" stroke-width="0.7"/>
<path fill-rule="evenodd" clip-rule="evenodd" d="M46.401 19.5423C47.969 19.5423 49.1971 18.3101 49.1971 16.8426C49.1971 15.375 47.969 14.1429 46.401 14.1429C44.8329 14.1429 43.6048 15.375 43.6048 16.8426C43.6048 18.3101 44.8329 19.5423 46.401 19.5423ZM46.401 20.5065C48.4777 20.5065 50.1613 18.8661 50.1613 16.8426C50.1613 14.8191 48.4777 13.1787 46.401 13.1787C44.3242 13.1787 42.6406 14.8191 42.6406 16.8426C42.6406 18.8661 44.3242 20.5065 46.401 20.5065Z" fill="#4D53E8"/>
<path fill-rule="evenodd" clip-rule="evenodd" d="M89.7877 31.7826C91.3557 31.7826 92.5842 30.5504 92.5842 29.0829C92.5842 27.6153 91.3557 26.3831 89.7877 26.3831C88.2197 26.3831 86.9919 27.6153 86.9919 29.0829C86.9919 30.5504 88.2197 31.7826 89.7877 31.7826ZM89.7877 32.7468C91.8646 32.7468 93.5481 31.1064 93.5481 29.0829C93.5481 27.0593 91.8646 25.4189 89.7877 25.4189C87.7115 25.4189 86.0273 27.0593 86.0273 29.0829C86.0273 31.1064 87.7115 32.7468 89.7877 32.7468Z" fill="#4D53E8"/>
<path d="M45.2213 46.1674L38.4961 33.8652L55.2512 38.8518L45.2213 46.1674Z" fill="#F1F2FD"/>
<path fill-rule="evenodd" clip-rule="evenodd" d="M40.6591 33.8652L53.3717 37.7268L46.0764 42.821L45.5244 42.0304L51.1925 38.0725L40.3789 34.7878L40.6591 33.8652Z" fill="#4D53E8"/>
<path fill-rule="evenodd" clip-rule="evenodd" d="M72.5527 26.0036C71.5664 27.104 67.9717 30.9794 67.0781 31.8656C69.1878 29.644 68.0774 27.1091 66.562 26.6575C66.4315 26.6186 66.288 26.5779 66.1354 26.5346C64.4463 26.0556 61.6406 25.2598 63.0355 23.1073C64.5565 20.7603 63.6131 18.9435 60.8164 17.9293C61.819 16.7088 66.2467 11.7311 66.6482 11.8855C66.6529 11.8873 66.6577 11.8891 66.6625 11.8911L66.8171 11.4648C68.2685 11.9912 69.3477 12.7623 69.8207 13.8087C70.3064 14.8829 70.0908 16.1011 69.2764 17.3582C68.9489 17.8635 68.9411 18.1959 69.0168 18.4216C69.1008 18.6717 69.3298 18.9217 69.726 19.1641C70.3932 19.5725 71.3102 19.8336 72.0809 20.0528C72.2398 20.0981 72.3931 20.1416 72.5359 20.1842C74.5421 20.7821 75.2246 23.5251 72.5527 26.0036ZM66.8171 32.1233C66.8997 32.0422 66.9869 31.9561 67.0781 31.8656C66.996 31.9521 66.9091 32.038 66.8171 32.1233Z" fill="#F1F2FD"/>
<path fill-rule="evenodd" clip-rule="evenodd" d="M72.3021 25.7342C74.5435 23.6547 73.3801 21.4243 72.237 21.0838C72.1187 21.0484 71.9843 21.0105 71.838 20.9692C71.0743 20.7534 69.9924 20.4475 69.199 19.962C68.7203 19.669 68.2678 19.2661 68.0792 18.7038C67.8823 18.1171 68.0107 17.4776 68.4437 16.8094C69.15 15.7195 69.2235 14.8557 68.9186 14.1813C68.601 13.479 67.8102 12.8347 66.4648 12.3469L66.7935 11.4404C68.2449 11.9667 69.3241 12.7378 69.7971 13.7842C70.2826 14.8585 70.0677 16.0766 69.2528 17.3338C68.9253 17.8391 68.9175 18.1715 68.9932 18.3971C69.0772 18.6473 69.3062 18.8972 69.7024 19.1397C70.3694 19.548 71.2871 19.8091 72.0571 20.0283C72.2167 20.0736 72.3693 20.1171 72.5128 20.1598C74.5183 20.7576 75.6292 23.9626 72.958 26.4411L72.3021 25.7342Z" fill="#4D53E8"/>
<path fill-rule="evenodd" clip-rule="evenodd" d="M28.3982 42.2771C28.3639 43.4024 27.5598 47.8922 27.4743 48.8472C27.6126 46.5172 25.7212 45.5858 24.6167 46.0668C24.5216 46.1082 24.418 46.155 24.3079 46.2047C23.0887 46.7549 21.0637 47.6689 20.8195 45.7301C20.5531 43.6162 19.1116 43.0211 16.9846 43.8035C16.9693 42.6002 17.7176 37.0593 18.0273 36.9521C18.0309 36.9509 18.0345 36.9496 18.0383 36.9484L17.9191 36.6242C19.0229 36.2182 20.0302 36.1376 20.8195 36.5148C21.6299 36.9021 22.1025 37.7174 22.2451 38.8497C22.3025 39.3048 22.4611 39.5023 22.616 39.5965C22.7877 39.701 23.0438 39.7342 23.3937 39.681C23.9828 39.5912 24.6453 39.2929 25.2018 39.0423C25.3167 38.9906 25.4271 38.9409 25.5313 38.8955C26.9933 38.2588 28.7376 39.5218 28.3982 42.2771ZM27.4488 49.1255C27.4571 49.0376 27.4656 48.9447 27.4743 48.8472C27.469 48.9378 27.4605 49.0306 27.4488 49.1255Z" fill="#F1F2FD"/>
<path fill-rule="evenodd" clip-rule="evenodd" d="M28.1249 42.2441C28.4097 39.9322 26.6368 39.2043 25.804 39.567C25.7176 39.6046 25.6206 39.6485 25.5153 39.6962C24.9644 39.9454 24.184 40.2985 23.4835 40.4051C23.0608 40.4695 22.5994 40.4569 22.2134 40.2221C21.8107 39.9769 21.5715 39.5414 21.4957 38.9396C21.372 37.9579 20.9908 37.4187 20.4821 37.1755C19.9522 36.9223 19.1752 36.9353 18.152 37.3116L17.8984 36.6222C19.0023 36.2162 20.0095 36.1356 20.7988 36.5128C21.6092 36.9001 22.0818 37.7154 22.2245 38.8478C22.2818 39.3029 22.4405 39.5004 22.5953 39.5946C22.7671 39.6991 23.0231 39.7323 23.373 39.679C23.9621 39.5893 24.6247 39.291 25.1811 39.0404C25.296 38.9887 25.4064 38.939 25.5107 38.8935C26.9727 38.2569 29.1934 39.5785 28.854 42.3339L28.1249 42.2441Z" fill="#4D53E8"/>
<path d="M116.078 23.5708C115.63 26.0678 117.056 27.2566 119.751 27.1236C118.582 27.8515 113.582 30.8032 112.734 30.9161C111.673 31.0573 109.017 30.2591 109.192 28.2347C109.368 26.2103 109.154 25.3175 107.309 25.42C105.465 25.5224 104.685 26.2852 103.448 24.7503C102.212 23.2155 101.942 22.7987 102.815 21.1262C103.514 19.7881 108.546 17.5655 109.751 17.3555C108.496 20.1239 110.401 21.9983 111.883 21.8383C113.364 21.6784 116.527 21.0737 116.078 23.5708Z" fill="#F1F2FD"/>
<path fill-rule="evenodd" clip-rule="evenodd" d="M103.134 21.4079C102 23.9092 103.74 25.324 104.774 25.2124C104.884 25.2005 105.01 25.1851 105.145 25.1685C105.859 25.081 106.88 24.9562 107.721 25.085C108.228 25.1628 108.76 25.3436 109.126 25.7592C109.508 26.1942 109.625 26.7896 109.496 27.5093C109.289 28.6598 109.53 29.3904 110.007 29.8337C110.507 30.2979 111.38 30.5592 112.671 30.4955L112.719 31.4585C111.315 31.5278 110.127 31.2611 109.351 30.5398C108.552 29.7977 108.305 28.6855 108.547 27.3388C108.642 26.81 108.532 26.5446 108.401 26.3957C108.253 26.2274 107.987 26.1011 107.574 26.038C106.88 25.9316 106.029 26.0341 105.307 26.121C105.157 26.1389 105.013 26.1563 104.877 26.171C102.948 26.3793 100.879 24.0452 102.255 21.0098L103.134 21.4079Z" fill="#4D53E8"/>
<path d="M22.677 69.7861C22.8003 71.6342 22.0016 72.6268 20.283 72.3489C18.5643 72.0703 19.0169 74.2333 19.1442 75.2483C19.2716 76.2626 18.0082 77.5919 16.0938 76.7638L16.4232 69.1195C17.3578 69.4639 17.407 69.677 18.8991 68.7752C20.3913 67.8733 19.4239 65.3974 19.7682 64.8398C20.1125 64.2823 20.5061 64.8563 21.929 64.5939C22.4692 64.4943 22.7567 64.0953 22.8953 63.6241L22.9493 62.1016C23.0198 62.4921 23.0488 63.1023 22.8953 63.6241L22.677 69.7861Z" fill="#F1F2FD"/>
<path fill-rule="evenodd" clip-rule="evenodd" d="M16.5509 68.6082C18.1961 69.3201 19.0028 68.1629 18.9315 67.5951C18.9225 67.5232 18.9108 67.4406 18.8981 67.3497C18.8296 66.863 18.7277 66.1375 18.8093 65.5358C18.8586 65.1714 18.9843 64.7623 19.3033 64.472C19.6414 64.1644 20.1002 64.0747 20.6256 64.1598C21.3865 64.283 21.8252 64.1107 22.0776 63.8296C22.3506 63.5256 22.5195 62.9729 22.4616 62.1052L23.4236 62.041C23.4891 63.0212 23.3202 63.8889 22.795 64.4737C22.2493 65.0815 21.4292 65.2666 20.4716 65.1116C20.1377 65.0575 20.0086 65.1339 19.9522 65.1852C19.8766 65.2539 19.8011 65.3968 19.7647 65.6653C19.703 66.1205 19.7795 66.6772 19.8476 67.1714C19.8619 67.2759 19.8759 67.3776 19.8882 67.475C20.0716 68.9366 18.3515 70.4378 16.168 69.4931L16.5509 68.6082Z" fill="#4D53E8"/>
<path d="M104.723 43.5283C107.199 46.0047 109.431 49.5109 109.529 53.385C109.529 55.548 109.423 58.556 108.403 62.7379C107.946 67.451 106.988 77.041 106.813 77.6983C110.649 77.7529 115.003 77.8439 115.339 77.8439C115.579 77.0193 117.317 69.7024 118.021 67.9606C118.43 66.9488 118.777 66.39 119.15 65.9647C119.585 65.4704 120.129 65.2779 120.629 65.0434C121.196 64.8066 121.847 64.719 122.656 64.8064C122.788 64.8207 122.92 64.8391 123.052 64.8617C123.775 64.9863 124.48 65.2403 125.083 65.6559C126.002 66.2895 126.684 67.2986 126.833 68.7975C127.296 73.4283 126.968 78.4158 126.636 83.0617L126.635 83.0792C126.537 84.454 126.053 91.2307 123.366 93.5064C121.804 94.8294 113.042 95.1507 104.871 95.1654C104.595 97.6952 103.607 106.895 103.147 111.178C106.281 111.021 112.048 112.18 113.74 117.164C115.433 122.147 110.794 122.492 105.999 122.68C102.163 122.83 92.3536 122.743 88.1165 122.68C84.3575 125.915 78.8947 127.89 71.2675 127.671C57.5826 127.279 28.6007 124.587 27.9427 124.807C28.6951 125.374 30.1955 126.729 30.1776 127.615C30.1554 128.721 28.4925 129.578 22.3593 129.647C16.226 129.717 12.3178 127.885 12.4483 124.738C12.4763 124.063 12.6704 123.068 12.9902 121.865C9.29334 121.408 4.95198 121.504 5.69271 116.194C6.89428 107.582 16.8072 95.4671 19.5737 93.785C22.3401 92.1029 27.6213 92.5236 31.3132 93.0073C29.012 89.4667 27.3859 84.7004 28.2815 78.5908C28.7361 75.4898 30.2057 71.7203 33.1976 67.7979C33.9821 66.7694 34.8433 65.7282 35.7646 64.682C42.9627 56.5082 53.8389 48.0292 60.6086 42.934C64.7338 39.8291 70.9651 37.4394 74.5232 36.5127C87.5502 33.12 97.633 35.8413 104.723 43.5283Z" fill="white"/>
<path d="M102.565 77.6591C99.9661 82.3673 99.1324 82.7985 98.1517 82.6515C97.1703 82.5045 96.6544 79.3874 98.7404 78.2478C99.5034 77.8306 100.8 77.6591 102.565 77.6591ZM102.565 77.6591C105.726 71.5019 107.457 66.6152 108.403 62.7379M102.565 77.6591C103.659 77.6591 105.189 77.6759 106.813 77.6983M108.403 62.7379C109.423 58.556 109.529 55.548 109.529 53.385C109.431 49.5109 107.199 46.0047 104.723 43.5283C97.633 35.8413 87.5502 33.12 74.5232 36.5127C70.9651 37.4394 64.7338 39.8291 60.6086 42.934C53.8389 48.0292 42.9627 56.5082 35.7646 64.682M108.403 62.7379C107.946 67.451 106.988 77.041 106.813 77.6983M106.813 77.6983C110.649 77.7529 115.003 77.8439 115.339 77.8439C115.579 77.0193 117.317 69.7024 118.021 67.9606C118.43 66.9488 118.777 66.3899 119.15 65.9647C119.585 65.4704 120.129 65.2779 120.629 65.0434M90.9746 94.9778C85.4642 94.8672 75.7559 95.2515 71.5643 88.4293C70.7061 87.0321 70.1993 85.6055 69.9758 84.1208M90.9746 94.9778C93.4876 98.1922 96.3926 104.94 93.9895 113.279C92.9255 116.97 91.102 120.111 88.1165 122.68M90.9746 94.9778C93.2951 95.024 98.9266 95.1759 104.871 95.1654M69.9758 84.1208C69.1086 78.3563 72.5142 71.7252 76.2018 62.6128M69.9758 84.1208C69.0634 83.705 61.7743 83.4341 57.5574 85.0602C54.1194 84.1208 35.6873 75.8055 35.7646 64.682M88.1165 122.68C84.3575 125.915 78.8947 127.89 71.2675 127.671C57.5826 127.279 28.6007 124.587 27.9427 124.807M88.1165 122.68C92.3536 122.743 102.163 122.83 105.999 122.68C110.794 122.492 115.433 122.147 113.74 117.164C112.048 112.18 106.281 111.021 103.147 111.178C103.607 106.895 104.595 97.6952 104.871 95.1654M104.871 95.1654C113.042 95.1507 121.804 94.8294 123.366 93.5064C126.065 91.2209 126.541 84.3952 126.636 83.0617C126.968 78.4158 127.296 73.4283 126.833 68.7975C126.684 67.2986 126.002 66.2895 125.083 65.6559M35.7646 64.682C34.8433 65.7282 33.9821 66.7694 33.1976 67.7979C30.2057 71.7203 28.7361 75.4898 28.2815 78.5908C27.3859 84.7004 29.012 89.4667 31.3132 93.0073M27.9427 124.807C26.9545 124.629 25.8925 124.421 23.1299 123.708M27.9427 124.807C28.6951 125.374 30.1955 126.729 30.1776 127.615C30.1554 128.721 28.4925 129.578 22.3593 129.647C16.226 129.717 12.3178 127.885 12.4483 124.738C12.4763 124.063 12.6704 123.068 12.9902 121.865M12.9902 121.865C14.1616 117.458 17.0193 110.247 19.5737 105.656C22.8253 99.8127 25.747 99.0357 26.666 98.9412C30.1787 98.5807 35.3606 99.0826 37.0806 99.1295M12.9902 121.865C9.29334 121.408 4.95198 121.504 5.69271 116.194C6.89428 107.582 16.8072 95.4671 19.5737 93.785C22.3401 92.1029 27.6213 92.5236 31.3132 93.0073M37.0806 99.1295C38.8007 99.1771 52.8205 100.237 55.2709 102.216C57.7214 104.195 53.221 104.785 49.7808 104.243C46.3407 103.7 41.746 103.041 37.0806 99.1295ZM37.0806 99.1295C35.3363 97.8051 33.1173 95.7828 31.3132 93.0073M120.629 65.0434C121.196 64.8066 121.847 64.719 122.656 64.8064C122.788 64.8207 122.92 64.8391 123.052 64.8617M120.629 65.0434C119.445 66.4223 118.391 69.5198 117.485 74.2186M125.083 65.6559C124.186 66.0431 123.638 67.5391 123.448 68.6769C123.259 69.8148 122.584 74.2396 122.521 75.3141M125.083 65.6559C124.48 65.2403 123.775 64.9863 123.052 64.8617M104.462 116.207C105.997 116.274 108.412 116.694 109.948 118.919C110.77 120.11 110.313 121.214 109.515 121.682C108.821 122.087 107.853 121.946 107.443 121.781C106.435 121.376 104.032 121.013 103.092 121.17C102.151 121.326 100.859 122.272 99.6056 122.272C98.3519 122.272 96.9246 121.809 96.1721 120.806M123.052 64.8617C122.247 65.137 121.552 66.5909 121.257 67.5391C120.962 68.4873 120.582 69.7305 119.698 74.703" stroke="#515151" stroke-width="0.7"/>
<path d="M31.1731 98.9014C30.6752 98.3834 29.3605 94.0014 29.3008 92.7666L31.1731 92.9262C32.4957 95.428 35.6548 98.0845 37.0691 99.1009C35.5353 99.0344 32.2089 98.9014 31.1731 98.9014Z" fill="#515151"/>
<path d="M94.714 122.805C92.9136 122.076 92.4684 119.473 92.6105 116.717C91.9924 118.668 89.7419 121.541 88.0703 122.805H94.714Z" fill="#515151"/>
<path d="M85.1991 98.5595C78.9047 97.1329 74.7495 93.7974 72.8945 90.3926C73.2207 90.6607 75.1898 92.1909 77.0511 93.0526C81.8482 95.2723 89.7582 95.0168 91.0854 95.0168C91.9429 96.0374 93.0972 98.4027 93.548 99.4233C92.7829 99.4233 89.1982 99.466 85.1991 98.5595Z" fill="#515151"/>
</g>
<defs>
<clipPath id="clip0_799_62888">
<rect width="140" height="140" fill="white"/>
</clipPath>
</defs>
</svg>
