<svg xmlns="http://www.w3.org/2000/svg" width="20" height="20" viewBox="0 0 20 20" fill="none">
  <path
    d="M2.46406 3C2.02224 3 1.66406 3.3731 1.66406 3.83333C1.66406 4.29357 2.02223 4.66667 2.46406 4.66667H16.8641C17.3059 4.66667 17.6641 4.29357 17.6641 3.83333C17.6641 3.3731 17.3059 3 16.8641 3H2.46406Z"
    fill="currentColor" />
  <path
    d="M2.46406 9.16614C2.02223 9.16614 1.66406 9.53923 1.66406 9.99947C1.66406 10.4597 2.02223 10.8328 2.46406 10.8328H16.8641C17.3059 10.8328 17.6641 10.4597 17.6641 9.99947C17.6641 9.53923 17.3059 9.16614 16.8641 9.16614H2.46406Z"
    fill="currentColor" />
  <path
    d="M1.66406 16.1667C1.66406 15.7064 2.02224 15.3333 2.46406 15.3333H16.8641C17.3059 15.3333 17.6641 15.7064 17.6641 16.1667C17.6641 16.6269 17.3059 17 16.8641 17H2.46406C2.02223 17 1.66406 16.6269 1.66406 16.1667Z"
    fill="currentColor" />
</svg>
