<svg width="17" height="16" viewBox="0 0 17 16" fill="none" xmlns="http://www.w3.org/2000/svg">
<path d="M2.4987 0.666992C2.13051 0.666992 1.83203 0.965469 1.83203 1.33366V11.8827C1.83203 12.7979 2.2117 13.6757 2.8875 14.3229C3.56331 14.9701 4.4799 15.3337 5.43563 15.3337H14.4987C14.8669 15.3337 15.1654 15.0352 15.1654 14.667V4.11797C15.1654 3.20272 14.7857 2.32495 14.1099 1.67776C13.4341 1.03058 12.5175 0.666992 11.5618 0.666992H2.4987Z" fill="#1D1C23" fill-opacity="0.6"/>
<path d="M4.83203 4.33301H10.7654C11.5386 4.33301 12.1654 4.95981 12.1654 5.73301V11.6663H6.23203C5.45883 11.6663 4.83203 11.0395 4.83203 10.2663V4.33301ZM6.16536 5.66634V7.39966H7.89867V5.66634H6.16536ZM9.09867 5.66634V7.39966H10.832V5.73301C10.832 5.69619 10.8022 5.66634 10.7654 5.66634H9.09867ZM7.89867 8.59966H6.16536V10.2663C6.16536 10.3032 6.19521 10.333 6.23203 10.333H7.89867V8.59966ZM9.09867 10.333H10.832V8.59966H9.09867V10.333Z" fill="white"/>
</svg>
