<svg xmlns="http://www.w3.org/2000/svg" width="16" height="16" viewBox="0 0 16 16" fill="currentColor">
    <path d="M7.99967 1.33301C7.63148 1.33301 7.33301 1.63148 7.33301 1.99967V7.33301H1.99967C1.63148 7.33301 1.33301 7.63148 1.33301 7.99967C1.33301 8.36786 1.63148 8.66634 1.99967 8.66634H7.33301V13.9997C7.33301 14.3679 7.63148 14.6663 7.99967 14.6663C8.36786 14.6663 8.66634 14.3679 8.66634 13.9997V8.66634H13.9997C14.3679 8.66634 14.6663 8.36786 14.6663 7.99967C14.6663 7.63148 14.3679 7.33301 13.9997 7.33301H8.66634V1.99967C8.66634 1.63148 8.36786 1.33301 7.99967 1.33301Z" />
</svg>