<svg width="16" height="16" viewBox="0 0 16 16" fill="none" xmlns="http://www.w3.org/2000/svg">
<g id="icon_setting_outlined">
<path id="Union" d="M2.88587 13.1555L2.67846 12.9296C1.95229 12.1387 1.40748 11.1953 1.08809 10.165L0.998047 9.87451L2.36342 7.99978L0.998047 6.12505L1.08809 5.8346C1.40748 4.8043 1.95229 3.8609 2.67846 3.06994L2.88587 2.84402L5.18042 3.09482L6.11239 0.97026L6.41124 0.902981C6.92907 0.7864 7.46106 0.727051 8.0003 0.727051C8.53954 0.727051 9.07153 0.7864 9.58937 0.902981L9.88821 0.97026L10.8202 3.09482L13.1147 2.84402L13.3221 3.06994C14.0483 3.8609 14.5931 4.8043 14.9125 5.8346L15.0026 6.12505L13.6372 7.99978L15.0026 9.87451L14.9125 10.165C14.5931 11.1953 14.0483 12.1387 13.3221 12.9296L13.1147 13.1555L10.8202 12.9047L9.88821 15.0293L9.58937 15.0966C9.07153 15.2132 8.53954 15.2725 8.0003 15.2725C7.46106 15.2725 6.92907 15.2132 6.41124 15.0966L6.11239 15.0293L5.18042 12.9047L2.88587 13.1555ZM5.20927 11.6822C5.64002 11.6351 6.05149 11.8731 6.22555 12.2699L6.97252 13.9727C7.30941 14.0308 7.65282 14.0603 8.0003 14.0603C8.34778 14.0603 8.69119 14.0308 9.02809 13.9727L9.77505 12.2699C9.94912 11.8731 10.3606 11.6351 10.7913 11.6822L12.6275 11.8829C13.0709 11.3491 13.4206 10.7426 13.6593 10.089L12.563 8.58378C12.3095 8.23569 12.3095 7.76379 12.563 7.4157L13.6593 5.91048C13.4206 5.25688 13.0709 4.65035 12.6275 4.11658L10.7913 4.31727C10.3606 4.36435 9.94912 4.12643 9.77505 3.72961L9.02809 2.02682C8.69119 1.96865 8.34778 1.93914 8.0003 1.93914C7.65282 1.93914 7.30941 1.96865 6.97252 2.02682L6.22555 3.72961C6.05149 4.12643 5.64002 4.36435 5.20927 4.31727L3.37313 4.11658C2.92966 4.65035 2.58001 5.25688 2.34133 5.91048L3.43758 7.4157C3.6911 7.76379 3.6911 8.23569 3.43758 8.58378L2.34133 10.089C2.58001 10.7426 2.92966 11.3491 3.37313 11.8829L5.20927 11.6822ZM8.00031 11.0301C6.33244 11.0301 4.98155 9.67272 4.98155 7.99977C4.98155 6.32683 6.33244 4.96947 8.00031 4.96947C9.66817 4.96947 11.0191 6.32683 11.0191 7.99977C11.0191 9.67272 9.66817 11.0301 8.00031 11.0301ZM8.0003 9.818C8.99743 9.818 9.80694 9.00462 9.80694 7.99981C9.80694 6.99502 8.99743 6.18163 8.0003 6.18163C7.00317 6.18163 6.19367 6.99502 6.19367 7.99981C6.19367 9.00462 7.00317 9.818 8.0003 9.818Z" fill="#1D1C23" fill-opacity="0.8" style="fill:#1D1C23;fill:color(display-p3 0.1137 0.1098 0.1373);fill-opacity:0.8;"/>
</g>
</svg>
