<svg xmlns="http://www.w3.org/2000/svg" width="14" height="14" viewBox="0 0 14 14" fill="none">
  <path
    d="M6.74006 1.45097L3.50016 4.08339V9.91672L6.74006 12.5491C7.31189 13.0137 8.16683 12.6068 8.16683 11.87V2.13007C8.16683 1.39329 7.31189 0.986364 6.74006 1.45097Z"
    fill="#1D1C23" />
  <path
    d="M1.16683 4.08339C0.844663 4.08339 0.583496 4.34456 0.583496 4.66672V9.33339C0.583496 9.65556 0.844663 9.91672 1.16683 9.91672H2.3335V4.08339H1.16683Z"
    fill="#1D1C23" />
  <path
    d="M9.54991 4.79661C9.80035 4.59395 10.1677 4.63269 10.3703 4.88313C10.8442 5.46872 11.1483 6.14916 11.1483 7.00008C11.1483 7.851 10.8442 8.53144 10.3703 9.11702C10.1677 9.36746 9.80035 9.4062 9.54991 9.20354C9.29946 9.00088 9.26073 8.63357 9.46338 8.38313C9.80024 7.96685 9.98166 7.53834 9.98166 7.00008C9.98166 6.46182 9.80024 6.0333 9.46338 5.61702C9.26073 5.36658 9.29946 4.99927 9.54991 4.79661Z"
    fill="#1D1C23" />
  <path
    d="M11.4725 2.65225C11.2325 2.4374 10.8637 2.45783 10.6488 2.69788C10.434 2.93794 10.4544 3.30672 10.6945 3.52158C11.6501 4.37691 12.2502 5.61805 12.2502 7.0001C12.2502 8.38216 11.6501 9.62329 10.6945 10.4786C10.4544 10.6935 10.434 11.0623 10.6488 11.3023C10.8637 11.5424 11.2325 11.5628 11.4725 11.3479C12.665 10.2807 13.4168 8.7278 13.4168 7.0001C13.4168 5.27241 12.665 3.71954 11.4725 2.65225Z"
    fill="#1D1C23" />
</svg>
