<svg width="16" height="16" viewBox="0 0 16 16" fill="none" xmlns="http://www.w3.org/2000/svg">
  <path
    d="M13.0002 2.83333V13.1667H2.66683L2.66683 2.83333H13.0002ZM2.66683 1.5C1.93045 1.5 1.3335 2.09695 1.3335 2.83333V13.1667C1.3335 13.903 1.93045 14.5 2.66683 14.5H13.0002C13.7365 14.5 14.3335 13.903 14.3335 13.1667V2.83333C14.3335 2.09695 13.7365 1.5 13.0002 1.5H2.66683Z"
    fill="currentColor" />
  <path
    d="M6.66489 2.83333V5.38997H13.0002V6.72331H6.66489V9.27669H13.0002V10.61H6.66489V13.1667H5.33155L5.33155 10.61H2.66683V9.27669H5.33155L5.33155 6.72331H2.66683V5.38997H5.33155V2.83333H6.66489Z"
    fill="currentColor" />
</svg>
