<svg width="17" height="16" viewBox="0 0 17 16" fill="none" xmlns="http://www.w3.org/2000/svg">
<path d="M2.4987 0.666504C2.13051 0.666504 1.83203 0.964981 1.83203 1.33317V11.8822C1.83203 12.7974 2.2117 13.6752 2.8875 14.3224C3.56331 14.9696 4.4799 15.3332 5.43563 15.3332H14.4987C14.8669 15.3332 15.1654 15.0347 15.1654 14.6665V4.11748C15.1654 3.20223 14.7857 2.32446 14.1099 1.67727C13.4341 1.03009 12.5175 0.666504 11.5618 0.666504H2.4987Z" fill="#4D53E8"/>
<path d="M4.83203 4.3335H10.7654C11.5386 4.3335 12.1654 4.9603 12.1654 5.7335V11.6668H6.23203C5.45883 11.6668 4.83203 11.04 4.83203 10.2668V4.3335ZM6.16536 5.66683V7.40015H7.89867V5.66683H6.16536ZM9.09867 5.66683V7.40015H10.832V5.7335C10.832 5.69668 10.8022 5.66683 10.7654 5.66683H9.09867ZM7.89867 8.60015H6.16536V10.2668C6.16536 10.3036 6.19521 10.3335 6.23203 10.3335H7.89867V8.60015ZM9.09867 10.3335H10.832V8.60015H9.09867V10.3335Z" fill="white"/>
</svg>
