<svg width="10" height="15" viewBox="0 0 10 15" fill="none" xmlns="http://www.w3.org/2000/svg">
<path d="M0.90625 7.35938C0.911458 7.16146 0.950521 6.98177 1.02344 6.82031C1.09635 6.65365 1.21094 6.49219 1.36719 6.33594L7.27344 0.554688C7.51302 0.320312 7.80208 0.203125 8.14062 0.203125C8.36979 0.203125 8.57812 0.260417 8.76562 0.375C8.95833 0.484375 9.11198 0.632812 9.22656 0.820312C9.34115 1.00781 9.39844 1.21615 9.39844 1.44531C9.39844 1.79427 9.26302 2.09896 8.99219 2.35938L3.84375 7.35156L8.99219 12.3516C9.26302 12.6224 9.39844 12.9297 9.39844 13.2734C9.39844 13.5026 9.34115 13.7109 9.22656 13.8984C9.11198 14.0859 8.95833 14.2344 8.76562 14.3438C8.57812 14.4583 8.36979 14.5156 8.14062 14.5156C7.80208 14.5156 7.51302 14.3958 7.27344 14.1562L1.36719 8.375C1.20573 8.21875 1.08854 8.0599 1.01562 7.89844C0.942708 7.73177 0.90625 7.55208 0.90625 7.35938Z" fill="#1D1C23"/>
</svg>
