<svg xmlns="http://www.w3.org/2000/svg" width="16" height="16" viewBox="0 0 16 16" fill="none">
    <path
        d="M2.66669 7.52853C2.79171 7.40354 2.96125 7.33333 3.13802 7.33333C3.3148 7.33333 3.48434 7.40354 3.60936 7.52853L6.32369 10.2425L12.371 4.19519C12.496 4.07021 12.6656 4 12.8424 4C13.0191 4 13.1887 4.07021 13.3137 4.19519L13.785 4.66652C13.847 4.72843 13.8961 4.80194 13.9296 4.88284C13.9631 4.96374 13.9804 5.05045 13.9804 5.13802C13.9804 5.2256 13.9631 5.31231 13.9296 5.39321C13.8961 5.47411 13.847 5.54762 13.785 5.60952L6.79502 12.5995C6.73312 12.6615 6.65961 12.7106 6.57871 12.7441C6.49781 12.7776 6.4111 12.7949 6.32352 12.7949C6.23595 12.7949 6.14924 12.7776 6.06834 12.7441C5.98744 12.7106 5.91393 12.6615 5.85202 12.5995L2.19536 8.94286C2.13342 8.88095 2.08429 8.80745 2.05077 8.72654C2.01725 8.64564 2 8.55893 2 8.47136C2 8.38379 2.01725 8.29708 2.05077 8.21617C2.08429 8.13527 2.13342 8.06177 2.19536 7.99986L2.66669 7.52853Z"
        fill="currentColor" />
</svg>
