<svg width="14" height="14" viewBox="0 0 14 14" fill="none" xmlns="http://www.w3.org/2000/svg">
<path d="M5.25 1.74984C5.25 1.42767 5.51117 1.1665 5.83333 1.1665H11.6667C11.9888 1.1665 12.25 1.42767 12.25 1.74984V8.74984C12.25 9.072 11.9888 9.33317 11.6667 9.33317C11.3445 9.33317 11.0833 9.072 11.0833 8.74984V2.33317H5.83333C5.51117 2.33317 5.25 2.072 5.25 1.74984Z" fill="#4D53E8"/>
<path d="M2.91667 3.49984C2.27233 3.49984 1.75 4.02217 1.75 4.6665V11.6665C1.75 12.3108 2.27233 12.8332 2.91667 12.8332H8.75C9.39433 12.8332 9.91667 12.3108 9.91667 11.6665V4.6665C9.91667 4.02217 9.39433 3.49984 8.75 3.49984H2.91667ZM2.91667 4.6665H8.75V11.6665H2.91667L2.91667 4.6665Z" fill="#4D53E8"/>
</svg>
