<svg width="40" height="40" viewBox="0 0 40 40" fill="none" xmlns="http://www.w3.org/2000/svg">
  <path
    d="M15.1153 13.1721C17.3069 14.9898 19.1869 17.0784 20.6199 19.5272L22.034 18.1294C22.7057 17.4712 23.5103 16.9511 24.3826 16.6125C23.9844 15.2661 23.337 14.15 22.4511 13.0448C22.3455 12.9121 22.183 12.8362 22.0123 12.8362L15.2372 12.8335C15.0584 12.8335 14.9799 13.0583 15.1153 13.1721Z"
    fill="#6B6B75" />
  <path d="M27.1406 21.8269L27.1487 21.8161L27.1783 21.7622C27.1675 21.781 27.154 21.8026 27.1406 21.8269Z"
    fill="#6B6B75" />
  <path
    d="M19.1953 22.1308C20.2247 22.5696 21.1457 22.9408 22.2401 23.236C24.1825 23.7615 26.0245 22.9759 26.9347 21.2395L28.0346 19.0453C28.2811 18.5089 28.5926 18.0132 28.9691 17.5608C28.3081 17.317 27.761 17.1924 27.0431 17.1924C25.4584 17.1924 23.9657 17.8019 22.8334 18.9125L21.1511 20.5731C20.5525 21.1609 19.8969 21.6838 19.1953 22.1308Z"
    fill="#6B6B75" />
  <path d="M27.3281 21.4793L27.336 21.4638L27.3411 21.4561C27.336 21.4612 27.3333 21.4716 27.3281 21.4793Z"
    fill="#6B6B75" />
  <path
    d="M11.3524 18.1238C11.2305 18.0073 11.0273 18.0913 11.0273 18.262L11.03 24.8934C11.03 25.0831 11.1221 25.2591 11.2766 25.3621C13.0536 26.5432 15.1259 27.1663 17.266 27.1663C19.3031 27.1663 21.2888 26.5973 23.0063 25.5219C23.6537 25.1156 24.163 24.758 24.7074 24.2324C23.8325 24.4898 22.8708 24.506 21.901 24.2433C17.8132 23.1326 14.3322 21.0034 11.3524 18.1238Z"
    fill="#6B6B75" />
</svg>
