<svg width="20" height="20" viewBox="0 0 20 20" fill="currentColor" xmlns="http://www.w3.org/2000/svg">
  <path
    d="M7.5 10.8333H12.5C14.8012 10.8333 17.5 12.4405 17.5 15.3333V16.6667C17.5 17.5833 16.75 18.3333 15.8333 18.3333H4.16667C3.25 18.3333 2.5 17.5833 2.5 16.6667V15.3333C2.5 12.4429 5.19881 10.8333 7.5 10.8333ZM15.8333 16.6667V15.2778C15.8333 13.5265 14.0592 12.5 12.5 12.5H7.5C5.97498 12.5 4.16667 13.4764 4.16667 15.2778V16.6667H15.8333ZM10 10C7.69881 10 5.83333 8.13452 5.83333 5.83333C5.83333 3.53214 7.69881 1.66666 10 1.66666C12.3012 1.66666 14.1667 3.53214 14.1667 5.83333C14.1667 8.13452 12.3012 10 10 10ZM10 8.33333C11.3807 8.33333 12.5 7.21404 12.5 5.83333C12.5 4.45262 11.3807 3.33333 10 3.33333C8.61929 3.33333 7.5 4.45262 7.5 5.83333C7.5 7.21404 8.61929 8.33333 10 8.33333Z"
    fill="currentColor" />
</svg>
