<svg width="24" height="24" viewBox="0 0 24 24" fill="none" xmlns="http://www.w3.org/2000/svg">
<path d="M17.25 5.5H6.75V18.503H10.5V20.003H6.75C5.92157 20.003 5.25 19.3314 5.25 18.503V5.5C5.25 4.67157 5.92157 4 6.75 4H17.25C18.0784 4 18.75 4.67157 18.75 5.5V11.5H17.25V5.5Z" fill="#1D1C23"/>
<path d="M9 8.25C8.58579 8.25 8.25 8.58579 8.25 9C8.25 9.41421 8.58579 9.75 9 9.75H15C15.4142 9.75 15.75 9.41421 15.75 9C15.75 8.58579 15.4142 8.25 15 8.25H9Z" fill="#1D1C23"/>
<path d="M8.25 12.375C8.25 11.9608 8.58579 11.625 9 11.625H12C12.4142 11.625 12.75 11.9608 12.75 12.375C12.75 12.7892 12.4142 13.125 12 13.125H9C8.58579 13.125 8.25 12.7892 8.25 12.375Z" fill="#1D1C23"/>
<path d="M18.2463 12.7877C18.6857 12.3483 19.398 12.3483 19.8373 12.7877C20.2767 13.227 20.2767 13.9393 19.8373 14.3787L19.0418 15.1742L17.4508 13.5832L18.2463 12.7877Z" fill="#1D1C23"/>
<path d="M16.6553 14.3787L18.2463 15.9696L14.5098 19.7062C14.3531 19.8629 14.1513 19.9667 13.9327 20.003L12.5145 20.2388C12.474 20.2456 12.4328 20.2323 12.4037 20.2033C12.3743 20.1739 12.3611 20.1319 12.3684 20.091L12.6202 18.6795C12.6577 18.469 12.7589 18.2751 12.9101 18.1239L16.6553 14.3787Z" fill="#1D1C23"/>
</svg>
