<svg width="16" height="16" viewBox="0 0 16 16" fill="none" xmlns="http://www.w3.org/2000/svg">
    <g id="icon_collect_filled">
        <path id="Union"
            d="M7.15994 1.30078C7.55387 0.690755 8.44614 0.690756 8.84007 1.30078L10.7487 4.25639C10.838 4.39474 10.9754 4.49512 11.1344 4.5382L14.5258 5.45721C15.2214 5.64572 15.4953 6.48591 15.0443 7.04812L12.8307 9.80772C12.7285 9.93517 12.6766 10.0957 12.685 10.2589L12.8657 13.7948C12.9026 14.5179 12.1826 15.0394 11.5071 14.7788L8.23994 13.5185C8.08553 13.4589 7.91448 13.4589 7.76007 13.5185L4.49295 14.7788C3.81739 15.0394 3.0974 14.5179 3.13436 13.7948L3.31506 10.2589C3.3234 10.0957 3.27153 9.93517 3.1693 9.80772L0.955699 7.04812C0.504731 6.48591 0.778566 5.64572 1.4742 5.45721L4.86564 4.5382C5.0246 4.49512 5.16198 4.39474 5.25132 4.25639L7.15994 1.30078Z"
            fill="currentColor" />
    </g>
</svg>
