<svg xmlns="http://www.w3.org/2000/svg" width="32" height="32" viewBox="0 0 32 32" fill="none">
  <path
    d="M10.332 11.6667C10.8843 11.6667 11.332 11.219 11.332 10.6667C11.332 10.1145 10.8843 9.66675 10.332 9.66675C9.77975 9.66675 9.33203 10.1145 9.33203 10.6667C9.33203 11.219 9.77975 11.6667 10.332 11.6667Z"
    fill="currentColor" />
  <path
    d="M13.9987 10.0001C13.6305 10.0001 13.332 10.2986 13.332 10.6667C13.332 11.0349 13.6305 11.3334 13.9987 11.3334H22.6654C23.0336 11.3334 23.332 11.0349 23.332 10.6667C23.332 10.2986 23.0336 10.0001 22.6654 10.0001H13.9987Z"
    fill="currentColor" />
  <path
    d="M13.9987 15.3334C13.6305 15.3334 13.332 15.6319 13.332 16.0001C13.332 16.3683 13.6305 16.6667 13.9987 16.6667H22.6654C23.0336 16.6667 23.332 16.3683 23.332 16.0001C23.332 15.6319 23.0336 15.3334 22.6654 15.3334H13.9987Z"
    fill="currentColor" />
  <path
    d="M13.332 21.3334C13.332 20.9652 13.6305 20.6667 13.9987 20.6667H22.6654C23.0336 20.6667 23.332 20.9652 23.332 21.3334C23.332 21.7016 23.0336 22.0001 22.6654 22.0001H13.9987C13.6305 22.0001 13.332 21.7016 13.332 21.3334Z"
    fill="currentColor" />
  <path
    d="M11.332 16.0001C11.332 16.5524 10.8843 17.0001 10.332 17.0001C9.77975 17.0001 9.33203 16.5524 9.33203 16.0001C9.33203 15.4478 9.77975 15.0001 10.332 15.0001C10.8843 15.0001 11.332 15.4478 11.332 16.0001Z"
    fill="currentColor" />
  <path
    d="M10.332 22.3334C10.8843 22.3334 11.332 21.8857 11.332 21.3334C11.332 20.7811 10.8843 20.3334 10.332 20.3334C9.77975 20.3334 9.33203 20.7811 9.33203 21.3334C9.33203 21.8857 9.77975 22.3334 10.332 22.3334Z"
    fill="currentColor" />
</svg>
