<svg width="32" height="32" viewBox="0 0 32 32" fill="none" xmlns="http://www.w3.org/2000/svg">
<path d="M18.5013 8.50049C19.4218 8.50049 20.168 9.24668 20.168 10.1672C20.168 10.8563 20.168 11.2689 20.168 11.9581C20.168 12.2981 20.0196 12.6212 19.7618 12.8428L16.0007 15.8267L16.0008 23.3962C16.0008 23.8777 15.6405 24.275 15.1748 24.3333L15.0563 24.3407C14.8924 24.3407 14.7313 24.298 14.5888 24.2169L11.5194 22.1532C11.1899 21.9655 11.0007 21.7959 11.0007 21.4166V15.8242L7.24193 12.8439C7.02001 12.6539 6.87881 12.3889 6.843 12.1024L6.83398 11.9577C6.83398 11.2686 6.83398 10.8562 6.83398 10.1672C6.83398 9.24668 7.58018 8.50049 8.50065 8.50049L18.5013 8.50049ZM22.6673 20.1666C23.1276 20.1666 23.5007 20.5397 23.5007 21C23.5007 21.4602 23.1276 21.8333 22.6673 21.8333H19.334C18.8737 21.8333 18.5006 21.4602 18.5006 21C18.5006 20.5397 18.8737 20.1666 19.334 20.1666H22.6673ZM18.5007 10.1666L8.49971 10.1666L8.50065 11.8333L12.2451 14.7116C12.467 14.9016 12.6225 15.1521 12.6583 15.4385L12.6673 15.5833V21L14.334 22.1541L14.3341 15.5975C14.3341 15.306 14.4431 15.027 14.6366 14.8136L14.7403 14.7127L18.5013 11.8333L18.5007 10.1666ZM24.334 16.8333C24.7942 16.8333 25.1673 17.2064 25.1673 17.6667C25.1673 18.1269 24.7942 18.5 24.334 18.5H19.334C18.8737 18.5 18.5006 18.1269 18.5006 17.6667C18.5006 17.2064 18.8737 16.8333 19.334 16.8333H24.334Z" fill="#1D1C23"/>
</svg>
