<svg width="24" height="24" viewBox="0 0 24 24" fill="none" xmlns="http://www.w3.org/2000/svg">
<g id="icon_code">
<g id="Union">
<path d="M13.3094 1.08202C12.7612 1.01471 12.2622 1.40453 12.1949 1.9527L9.75756 21.8036C9.69025 22.3518 10.0801 22.8507 10.6282 22.918C11.1764 22.9853 11.6753 22.5955 11.7426 22.0474L14.18 2.19643C14.2473 1.64827 13.8575 1.14933 13.3094 1.08202Z" fill="white"/>
<path d="M8.20711 5.29289C8.59763 5.68342 8.59763 6.31658 8.20711 6.70711L2.41421 12.5L8.20711 18.2929C8.59763 18.6834 8.59763 19.3166 8.20711 19.7071C7.81658 20.0976 7.18342 20.0976 6.79289 19.7071L0.292893 13.2071C-0.0976311 12.8166 -0.0976311 12.1834 0.292893 11.7929L6.79289 5.29289C7.18342 4.90237 7.81658 4.90237 8.20711 5.29289Z" fill="white"/>
<path d="M15.7929 5.29289C15.4024 5.68342 15.4024 6.31658 15.7929 6.70711L21.5858 12.5L15.7929 18.2929C15.4024 18.6834 15.4024 19.3166 15.7929 19.7071C16.1834 20.0976 16.8166 20.0976 17.2071 19.7071L23.7071 13.2071C24.0976 12.8166 24.0976 12.1834 23.7071 11.7929L17.2071 5.29289C16.8166 4.90237 16.1834 4.90237 15.7929 5.29289Z" fill="white"/>
</g>
</g>
</svg>
