<svg xmlns="http://www.w3.org/2000/svg" width="1em" height="1em" viewBox="0 0 20 20" fill="currentColor">
  <path
    d="M7.91675 18.3334C8.37699 18.3334 8.75008 17.9603 8.75008 17.5V14.1667C8.75008 13.7064 9.12318 13.3333 9.58342 13.3333H10.4167C10.877 13.3333 11.2501 13.7064 11.2501 14.1667V17.5C11.2501 17.9603 11.6232 18.3334 12.0834 18.3334H16.6667C17.5872 18.3334 18.3334 17.5872 18.3334 16.6667V8.33334C18.3334 7.82704 18.1033 7.34818 17.7079 7.0319L11.0412 2.08296C10.4325 1.596 9.56762 1.596 8.95892 2.08296L2.29226 7.0319C1.8969 7.34818 1.66675 7.82704 1.66675 8.33334V16.6667C1.66675 17.5872 2.41294 18.3334 3.33341 18.3334H7.91675Z"
    fill="currentColor" />
</svg>
