<svg width="14" height="14" viewBox="0 0 14 14" fill="currentColor" xmlns="http://www.w3.org/2000/svg">
    <path d="M11.1082 5.40278C12.728 5.97396 13.8889 7.51805 13.8889 9.33333C13.8889 10.0285 13.7181 10.7002 13.3964 11.3002C13.3672 11.3545 13.3151 11.4455 13.2385 11.5762L13.4764 12.4479C13.5823 12.8368 13.2257 13.1936 12.8368 13.0875L11.9637 12.8493L11.8623 12.909C11.2159 13.2968 10.476 13.5011 9.72222 13.5C8.45278 13.5 7.31597 12.9323 6.55156 12.037C6.24677 12.0864 5.93847 12.1112 5.62969 12.1111C4.59879 12.1111 3.60712 11.8368 2.74115 11.325C2.71129 11.3073 2.63681 11.2642 2.51927 11.1965L1.20834 11.549C0.8191 11.6536 0.463545 11.2955 0.571184 10.9071L0.925871 9.62534C0.837155 9.47857 0.750859 9.33034 0.667017 9.18073C0.228318 8.37535 -0.00103804 7.47267 3.53174e-06 6.55555C3.53174e-06 3.48559 2.52223 1 5.62969 1C8.23247 1 10.4797 2.75799 11.0955 5.22031C11.1109 5.2816 11.1146 5.34323 11.1082 5.4026V5.40278ZM9.99965 5.17569C9.40017 3.33351 7.64722 2.04167 5.62969 2.04167C3.0941 2.04167 1.04167 4.06423 1.04167 6.55555C1.04167 7.30868 1.22882 8.03403 1.58195 8.68281C1.62882 8.76892 1.74757 8.971 1.93386 9.2809C1.97024 9.34145 1.99393 9.40876 2.00348 9.47875C2.01303 9.54874 2.00824 9.61994 1.98941 9.68802L1.81823 10.3064L2.45677 10.1347C2.58985 10.0989 2.73169 10.1174 2.85122 10.1859C3.08351 10.3193 3.22188 10.3991 3.27118 10.4283C3.98555 10.8498 4.80022 11.0713 5.62969 11.0694C5.72986 11.0694 5.82969 11.0663 5.92899 11.0601C5.68207 10.5179 5.55471 9.92904 5.55556 9.33333C5.55556 7.03212 7.42101 5.16667 9.72222 5.16667C9.81545 5.16667 9.90799 5.16979 9.99965 5.17569ZM12.1759 11.6382C12.1575 11.5709 12.1529 11.5006 12.1622 11.4315C12.1715 11.3623 12.1947 11.2958 12.2302 11.2358C12.3151 11.0944 12.3978 10.9517 12.4783 10.8078C12.7214 10.3544 12.8481 9.84778 12.8472 9.33333C12.8472 7.60746 11.4481 6.20833 9.72222 6.20833C7.99636 6.20833 6.59722 7.60746 6.59722 9.33333C6.59722 11.0592 7.99636 12.4583 9.72222 12.4583C10.2873 12.4594 10.842 12.3063 11.3266 12.0156C11.3625 11.9941 11.4615 11.9363 11.628 11.8392C11.6877 11.8045 11.7537 11.782 11.8223 11.773C11.8908 11.764 11.9604 11.7688 12.0271 11.787L12.2316 11.8427L12.1759 11.6382ZM3.99306 5.6875C3.80888 5.6875 3.63225 5.61433 3.50201 5.4841C3.37178 5.35387 3.29861 5.17723 3.29861 4.99305C3.29861 4.80888 3.37178 4.63224 3.50201 4.50201C3.63225 4.37177 3.80888 4.29861 3.99306 4.29861C4.17724 4.29861 4.35387 4.37177 4.4841 4.50201C4.61434 4.63224 4.6875 4.80888 4.6875 4.99305C4.6875 5.17723 4.61434 5.35387 4.4841 5.4841C4.35387 5.61433 4.17724 5.6875 3.99306 5.6875ZM7.11806 5.6875C6.93388 5.6875 6.75724 5.61433 6.62701 5.4841C6.49678 5.35387 6.42361 5.17723 6.42361 4.99305C6.42361 4.80888 6.49678 4.63224 6.62701 4.50201C6.75724 4.37177 6.93388 4.29861 7.11806 4.29861C7.30224 4.29861 7.47887 4.37177 7.6091 4.50201C7.73934 4.63224 7.8125 4.80888 7.8125 4.99305C7.8125 5.17723 7.73934 5.35387 7.6091 5.4841C7.47887 5.61433 7.30224 5.6875 7.11806 5.6875ZM8.50695 8.98611C8.36881 8.98611 8.23634 8.93124 8.13866 8.83356C8.04099 8.73589 7.98611 8.60341 7.98611 8.46528C7.98611 8.32714 8.04099 8.19467 8.13866 8.09699C8.23634 7.99932 8.36881 7.94444 8.50695 7.94444C8.64508 7.94444 8.77756 7.99932 8.87523 8.09699C8.97291 8.19467 9.02778 8.32714 9.02778 8.46528C9.02778 8.60341 8.97291 8.73589 8.87523 8.83356C8.77756 8.93124 8.64508 8.98611 8.50695 8.98611ZM10.9375 8.98611C10.7994 8.98611 10.6669 8.93124 10.5692 8.83356C10.4715 8.73589 10.4167 8.60341 10.4167 8.46528C10.4167 8.32714 10.4715 8.19467 10.5692 8.09699C10.6669 7.99932 10.7994 7.94444 10.9375 7.94444C11.0756 7.94444 11.2081 7.99932 11.3058 8.09699C11.4035 8.19467 11.4583 8.32714 11.4583 8.46528C11.4583 8.60341 11.4035 8.73589 11.3058 8.83356C11.2081 8.93124 11.0756 8.98611 10.9375 8.98611Z" />
</svg>
