<svg width="1em" height="1em" viewBox="0 0 1em 1em" fill="none" xmlns="http://www.w3.org/2000/svg">
  <path
    d="M10.167 1.667a3 3 0 1 1 0 6 3 3 0 0 1 0-6zm1.667 3a1.667 1.667 0 1 0-3.334 0 1.667 1.667 0 0 0 3.334 0zM8.39 8.333h1.444v1.334H8.39c-1.213 0-2.223.999-2.223 2.266V13h3.667v1.333H6.167c-.733 0-1.333-.6-1.333-1.333v-1.067c0-1.988 1.593-3.6 3.556-3.6zM.834 13.667H3.59v-1.334H1.5v-.4c0-.668.564-1.266 1.334-1.266h.873a3.64 3.64 0 0 1 .657-1.334h-1.53c-1.474 0-2.667 1.164-2.667 2.6V13c0 .367.3.667.667.667zM6.167 6.333a2 2 0 1 0-4.001.002 2 2 0 0 0 4.001-.002zm-2-.666a.668.668 0 1 1-.002 1.335.668.668 0 0 1 .002-1.335zM13.167 14.333a.667.667 0 0 1-.667-.666v-1.334h-1.333a.667.667 0 0 1 0-1.333H12.5V9.667a.667.667 0 0 1 1.334 0V11h1.333a.667.667 0 1 1 0 1.333h-1.333v1.334a.667.667 0 0 1-.667.666z"
    fill="currentColor" />
</svg>
