<svg width="24" height="24" viewBox="0 0 24 24" fill="none" xmlns="http://www.w3.org/2000/svg">
<path fill-rule="evenodd" clip-rule="evenodd" d="M21.9063 2.10539C22.2969 2.49592 22.2969 3.12908 21.9063 3.51961L20.4334 4.99248C22.1034 7.33569 21.8872 10.6098 19.785 12.712L18.3708 14.1262C17.9803 14.5167 17.3471 14.5167 16.9566 14.1262L9.8855 7.05514C9.49498 6.66461 9.49498 6.03145 9.8855 5.64093L11.2997 4.22671C13.4019 2.12448 16.676 1.90834 19.0192 3.57827L20.4921 2.10539C20.8826 1.71487 21.5158 1.71487 21.9063 2.10539ZM12.7139 5.64093C14.276 4.07883 16.8087 4.07883 18.3708 5.64093C19.9329 7.20302 19.9329 9.73568 18.3708 11.2978L17.6637 12.0049L12.0068 6.34803L12.7139 5.64093Z" fill="#FF6F4B"/>
<path fill-rule="evenodd" clip-rule="evenodd" d="M4.99444 20.4315C7.33764 22.1014 10.6117 21.8853 12.714 19.7831L14.1282 18.3688C14.5187 17.9783 14.5187 17.3452 14.1282 16.9546L13.4211 16.2475L14.4818 15.1869C14.8723 14.7964 14.8723 14.1632 14.4818 13.7727C14.0912 13.3821 13.4581 13.3821 13.0676 13.7727L12.0069 14.8333L9.17843 12.0049L10.2391 10.9442C10.6296 10.5537 10.6296 9.92054 10.2391 9.53001C9.84857 9.13949 9.2154 9.13949 8.82487 9.53001L7.76422 10.5907L7.0571 9.88356C6.66658 9.49303 6.03341 9.49303 5.64289 9.88356L4.22867 11.2978C2.12645 13.4 1.9103 16.6741 3.58022 19.0173L2.10735 20.4902C1.71682 20.8807 1.71682 21.5138 2.10735 21.9044C2.49787 22.2949 3.13104 22.2949 3.52156 21.9044L4.99444 20.4315ZM5.64289 18.3688C7.20498 19.9309 9.73764 19.9309 11.2997 18.3688L12.0068 17.6617L7.05711 12.712L7.0557 12.7106L6.34999 12.0049L5.64289 12.712C4.08079 14.2741 4.08079 16.8067 5.64289 18.3688Z" fill="#FF6F4B"/>
</svg>
