<svg width="15" height="14" viewBox="0 0 15 14" fill="none" xmlns="http://www.w3.org/2000/svg">
<path d="M3.15171 2.33268H12.485V6.41602H13.6517V2.33268C13.6517 1.68835 13.1294 1.16602 12.485 1.16602H3.15171C2.50738 1.16602 1.98505 1.68835 1.98505 2.33268V11.666C1.98505 12.3103 2.50738 12.8327 3.15171 12.8327H7.81838V11.666H3.15171V2.33268Z" fill="#060709" fill-opacity="0.8"/>
<path d="M9.86046 12.4975C9.74654 12.51 9.6326 12.4661 9.56436 12.374C9.39419 12.1444 9.26118 11.8894 9.17026 11.6184C9.13702 11.5193 9.15822 11.411 9.21972 11.3265L9.4577 10.9995C9.60107 10.8024 9.60107 10.5354 9.4577 10.3384L9.2564 10.0618C9.19189 9.97322 9.1719 9.85874 9.21138 9.7565C9.32392 9.46505 9.48574 9.19509 9.68975 8.95844C9.75914 8.87795 9.86527 8.84114 9.97091 8.85269L10.285 8.88702C10.4039 8.90006 10.5238 8.87479 10.6273 8.81492C10.7309 8.75504 10.8126 8.66368 10.8605 8.55414L10.989 8.26085C11.0316 8.16352 11.1164 8.08983 11.2208 8.0699C11.3866 8.03824 11.5551 8.02231 11.7241 8.0224C11.8682 8.0224 12.0096 8.03386 12.1475 8.05579C12.2559 8.07303 12.3449 8.14809 12.389 8.2486L12.5229 8.55414C12.5709 8.66368 12.6526 8.75504 12.7561 8.81492C12.8597 8.87479 12.9796 8.90006 13.0985 8.88702L13.4718 8.84616C13.5771 8.83464 13.6829 8.87113 13.7523 8.95111C13.9438 9.17176 14.0986 9.42175 14.2108 9.69149C14.254 9.79532 14.2349 9.91335 14.1687 10.0043L13.9255 10.3386C13.8556 10.4346 13.818 10.5503 13.818 10.669C13.818 10.7878 13.8556 10.9035 13.9255 10.9995L14.2073 11.3868C14.2706 11.4738 14.2911 11.5857 14.2542 11.6866C14.1634 11.9353 14.0368 12.1693 13.8785 12.3814C13.8102 12.4729 13.6966 12.5165 13.5831 12.5041L13.0982 12.4511C12.9793 12.438 12.8594 12.4633 12.7559 12.5232C12.6523 12.583 12.5706 12.6744 12.5227 12.7839L12.3182 13.2507C12.2728 13.3543 12.1798 13.4306 12.0676 13.4451C11.8131 13.4779 11.5552 13.474 11.3018 13.4335C11.1936 13.4162 11.1047 13.3412 11.0607 13.2408L10.8603 12.7839C10.8123 12.6744 10.7306 12.583 10.6271 12.5232C10.5235 12.4633 10.4036 12.438 10.2847 12.4511L9.86046 12.4975ZM11.7241 11.652C12.2204 11.652 12.6227 11.2458 12.6227 10.7446C12.6227 10.2435 12.2206 9.83721 11.7241 9.83721C11.2279 9.83721 10.8255 10.2435 10.8255 10.7446C10.8255 11.2458 11.2279 11.652 11.7241 11.652Z" fill="#060709" fill-opacity="0.8"/>
<path d="M4.61005 6.41602C4.28788 6.41602 4.02671 6.67718 4.02671 6.99935C4.02671 7.32152 4.28788 7.58268 4.61005 7.58268H8.98505C9.30721 7.58268 9.56838 7.32152 9.56838 6.99935C9.56838 6.67718 9.30721 6.41602 8.98505 6.41602H4.61005Z" fill="#060709" fill-opacity="0.8"/>
<path d="M6.06838 4.66602C6.06838 4.34385 6.32955 4.08268 6.65171 4.08268H10.735C11.0572 4.08268 11.3184 4.34385 11.3184 4.66602C11.3184 4.98818 11.0572 5.24935 10.735 5.24935H6.65171C6.32955 5.24935 6.06838 4.98818 6.06838 4.66602Z" fill="#060709" fill-opacity="0.8"/>
<path d="M5.48505 8.74935C5.16288 8.74935 4.90171 9.01052 4.90171 9.33268C4.90171 9.65485 5.16288 9.91602 5.48505 9.91602H7.23505C7.55721 9.91602 7.81838 9.65485 7.81838 9.33268C7.81838 9.01052 7.55721 8.74935 7.23505 8.74935H5.48505Z" fill="#060709" fill-opacity="0.8"/>
</svg>
