<svg width="24" height="24" viewBox="0 0 24 24" fill="none" xmlns="http://www.w3.org/2000/svg">
<path d="M0 9.21214C0 11.3758 1.17956 13.3525 3.00258 14.6613C3.16347 14.7681 3.24384 14.9285 3.24384 15.1422C3.24384 15.1955 3.21705 15.2757 3.21705 15.3291C3.08302 15.8633 2.8417 16.7449 2.81491 16.7716C2.78812 16.8517 2.76133 16.9051 2.76133 16.9852C2.76133 17.1455 2.89535 17.2791 3.05623 17.2791C3.10981 17.2791 3.16347 17.2523 3.21705 17.2256L5.12051 16.1305C5.25447 16.0503 5.41535 15.9969 5.57623 15.9969C5.65667 15.9969 5.76391 15.9969 5.84435 16.0236C6.729 16.2907 7.69409 16.4243 8.68605 16.4243C13.4848 16.4243 17.3721 13.1922 17.3721 9.21214C17.3721 5.23212 13.4848 2 8.68605 2C3.8873 2 0 5.23212 0 9.21214Z" fill="url(#paint0_linear_7625_5984)"/>
<path d="M16.7795 20.6687C17.6086 20.6687 18.4109 20.561 19.133 20.3457C19.1865 20.3188 19.2667 20.3188 19.347 20.3188C19.4807 20.3188 19.6144 20.3727 19.7214 20.4265L21.2993 21.3415C21.3528 21.3684 21.3795 21.3953 21.433 21.3953C21.4648 21.3953 21.4962 21.3891 21.5255 21.3769C21.5548 21.3647 21.5814 21.3469 21.6038 21.3243C21.6262 21.3018 21.6439 21.2751 21.6559 21.2457C21.6679 21.2163 21.6739 21.1848 21.6737 21.1531C21.6737 21.0993 21.647 21.0454 21.647 20.9647C21.647 20.9378 21.433 20.2112 21.3261 19.7537C21.2993 19.6998 21.2993 19.646 21.2993 19.5922C21.2993 19.4307 21.3795 19.2962 21.5132 19.1885C23.0377 18.0851 24.0005 16.4434 24.0005 14.6134C24.0005 11.2762 20.7644 8.55811 16.7795 8.55811C12.7946 8.55811 9.55859 11.2493 9.55859 14.6134C9.55859 17.9505 12.7946 20.6687 16.7795 20.6687Z" fill="url(#paint1_linear_7625_5984)"/>
<path d="M6.90639 6.88386C6.90639 7.50688 6.41313 8.00014 5.79011 8.00014C5.16708 8.00014 4.67383 7.50688 4.67383 6.88386C4.67383 6.26083 5.16708 5.76758 5.79011 5.76758C6.41313 5.76758 6.90639 6.26083 6.90639 6.88386ZM12.6971 6.88386C12.6971 7.50688 12.2038 8.00014 11.5808 8.00014C10.9578 8.00014 10.4645 7.50688 10.4645 6.88386C10.4645 6.26083 10.9578 5.76758 11.5808 5.76758C12.2038 5.76758 12.6971 6.26083 12.6971 6.88386Z" fill="#187E28"/>
<path d="M18.2788 12.7443C18.2788 13.287 18.7129 13.7211 19.2555 13.7211C19.7982 13.7211 20.2323 13.287 20.2323 12.7443C20.2323 12.2017 19.7982 11.7676 19.2555 11.7676C18.7129 11.7676 18.2788 12.2017 18.2788 12.7443ZM13.4648 12.7443C13.4648 13.287 13.8989 13.7211 14.4416 13.7211C14.9842 13.7211 15.4183 13.287 15.4183 12.7443C15.4183 12.2017 14.9842 11.7676 14.4416 11.7676C13.8989 11.7676 13.4648 12.2017 13.4648 12.7443Z" fill="#858C8C"/>
<defs>
<linearGradient id="paint0_linear_7625_5984" x1="8.69573" y1="16.3854" x2="8.69573" y2="2.06667" gradientUnits="userSpaceOnUse">
<stop stop-color="#78D431"/>
<stop offset="1" stop-color="#9EEE69"/>
</linearGradient>
<linearGradient id="paint1_linear_7625_5984" x1="16.7924" y1="20.5653" x2="16.7924" y2="8.55343" gradientUnits="userSpaceOnUse">
<stop stop-color="#E4E6E6"/>
<stop offset="1" stop-color="#F5F5FF"/>
</linearGradient>
</defs>
</svg>
