<svg xmlns="http://www.w3.org/2000/svg" width="14" height="14" viewBox="0 0 14 14" fill="currentColor">
  <path
    d="M2.91797 1.58003C2.91797 1.35164 3.10311 1.1665 3.33149 1.1665H7.25996C8.97282 1.1665 10.3614 2.55506 10.3614 4.26792C10.3614 5.14596 9.99651 5.93877 9.41012 6.50301C10.467 7.05526 11.1884 8.16186 11.1884 9.43696C11.1884 11.264 9.7073 12.7451 7.88024 12.7451H3.33149C3.10311 12.7451 2.91797 12.56 2.91797 12.3316V1.58003ZM4.08464 6.12878H7.25996C8.28768 6.12878 9.12081 5.29564 9.12081 4.26792C9.12081 3.2402 8.28768 2.33317 7.25996 2.33317H4.08464V6.12878ZM4.08464 7.36934V11.5046H7.88024C9.02215 11.5046 9.94785 10.5789 9.94785 9.43696C9.94785 8.29504 9.02215 7.36934 7.88024 7.36934H4.08464Z" />
</svg>
