<svg xmlns="http://www.w3.org/2000/svg" width="17" height="16" viewBox="0 0 17 16" fill="none">
<path d="M9.15784 7.33204L7.73687 5.91107C7.47787 5.65207 7.48204 5.23142 7.74104 4.97242C8.00003 4.71343 8.42068 4.70926 8.67968 4.96826L11.4839 7.77248C11.6141 7.90266 11.6141 8.11371 11.4839 8.24389L8.69234 11.0354C8.4338 11.294 8.01037 11.2917 7.75182 11.0332C7.49328 10.7746 7.49099 10.3512 7.74953 10.0926L9.17679 8.66537H2.50065C2.13246 8.66537 1.83398 8.3669 1.83398 7.99871C1.83398 7.63052 2.13246 7.33204 2.50065 7.33204H9.15784ZM3.16732 2.66536V5.9987H1.83398C1.83398 5.52016 1.83398 3.86763 1.83398 2.6646C1.83398 1.92822 2.43094 1.33203 3.16732 1.33203L13.834 1.33203C14.5704 1.33203 15.1673 1.92898 15.1673 2.66536V13.332C15.1673 14.0684 14.5704 14.6654 13.834 14.6654H3.16732C2.43094 14.6654 1.83398 14.0684 1.83398 13.332V9.9987H3.16732V13.332H13.834V2.66536H3.16732Z" fill="#4D53E8"/>
</svg>
