<svg width="10" height="10" viewBox="0 0 10 10" fill="currentColor" xmlns="http://www.w3.org/2000/svg">
  <g id="icon_reply-cn_outlined">
    <g id="Union">
      <path
        d="M2.70964 3.75016C2.47952 3.75016 2.29297 3.93671 2.29297 4.16683V4.5835C2.29297 4.81361 2.47952 5.00016 2.70964 5.00016H3.1263C3.35642 5.00016 3.54297 4.81361 3.54297 4.5835V4.16683C3.54297 3.93671 3.35642 3.75016 3.1263 3.75016H2.70964Z"
        fill="#060709" fill-opacity="0.8" />
      <path
        d="M4.79297 3.75016C4.56285 3.75016 4.3763 3.93671 4.3763 4.16683V4.5835C4.3763 4.81361 4.56285 5.00016 4.79297 5.00016H5.20963C5.43975 5.00016 5.6263 4.81361 5.6263 4.5835V4.16683C5.6263 3.93671 5.43975 3.75016 5.20963 3.75016H4.79297Z"
        fill="#060709" fill-opacity="0.8" />
      <path
        d="M6.45963 4.16683C6.45963 3.93671 6.64618 3.75016 6.8763 3.75016H7.29297C7.52309 3.75016 7.70963 3.93671 7.70963 4.16683V4.5835C7.70963 4.81361 7.52309 5.00016 7.29297 5.00016H6.8763C6.64618 5.00016 6.45963 4.81361 6.45963 4.5835V4.16683Z"
        fill="#060709" fill-opacity="0.8" />
      <path
        d="M9.58463 1.66683C9.58463 1.2085 9.20963 0.833496 8.7513 0.833496H1.2513C0.792969 0.833496 0.417969 1.2085 0.417969 1.66683V7.08812C0.417969 7.50898 0.792969 7.92145 1.2513 7.92145H3.23405L4.36689 9.16683C4.57721 9.37589 4.71655 9.42981 5.0013 9.45888C5.1738 9.46141 5.43888 9.37902 5.6263 9.16683L6.76855 7.92145H8.7513C9.20963 7.92145 9.58463 7.54645 9.58463 7.08812V1.66683ZM1.2513 1.66683H8.7513V7.08812H6.45963L5.0013 8.61326L3.54297 7.08812H1.2513V1.66683Z"
        fill="#060709" fill-opacity="0.8" />
    </g>
  </g>
</svg>
