<svg width="1em" height="1em" viewBox="0 0 20 20" fill="currentColor" xmlns="http://www.w3.org/2000/svg">
  <path
    d="M16.6667 8.33334L10 3.38441L3.33335 8.33334L3.33335 16.6667H7.50002V13.5C7.50002 12.4875 8.32083 11.6667 9.33335 11.6667H10.6667C11.6792 11.6667 12.5 12.4875 12.5 13.5V16.6667H16.6667V8.33334ZM9.16669 17.5C9.16669 17.9603 8.79359 18.3334 8.33335 18.3334H3.33335C2.41288 18.3334 1.66669 17.5872 1.66669 16.6667V8.33334C1.66669 7.82704 1.89684 7.34818 2.2922 7.0319L8.95886 2.08296C9.56756 1.596 10.4325 1.596 11.0412 2.08296L17.7078 7.0319C18.1032 7.34818 18.3334 7.82704 18.3334 8.33334V16.6667C18.3334 17.5872 17.5872 18.3334 16.6667 18.3334H11.6667C11.2064 18.3334 10.8334 17.9603 10.8334 17.5V13.5C10.8334 13.408 10.7587 13.3334 10.6667 13.3334H9.33335C9.24131 13.3334 9.16669 13.408 9.16669 13.5V17.5Z"
    fill="currentColor" />
</svg>
