<svg width="16" height="16" viewBox="0 0 16 16" fill="none" xmlns="http://www.w3.org/2000/svg">
    <g id="icon_space-discover_filled">
        <path id="Union"
            d="M7.99999 15.3332C12.0501 15.3332 15.3333 12.0499 15.3333 7.99984C15.3333 3.94975 12.0501 0.666504 7.99999 0.666504C3.9499 0.666504 0.666656 3.94975 0.666656 7.99984C0.666656 12.0499 3.9499 15.3332 7.99999 15.3332ZM5.04263 5.82192C4.85784 5.37314 5.30662 4.92435 5.75541 5.10915L11.3285 7.66289C11.7818 7.84954 11.7786 8.49267 11.3234 8.67473L9.9133 9.27035C9.59346 9.40545 9.33893 9.65997 9.20384 9.97981L8.60822 11.3899C8.42616 11.8451 7.78302 11.8483 7.59637 11.3951L5.04263 5.82192Z"
            fill="currentColor" />
    </g>
</svg>
