<svg width="24" height="24" viewBox="0 0 24 24" fill="none" xmlns="http://www.w3.org/2000/svg">
<g id="Frame">
<path id="Vector" d="M9.61957 21.5947C9.14947 20.0617 8.44028 18.9188 7.49198 18.1661C6.06952 17.037 3.8094 17.7388 2.97454 16.5742C2.13968 15.4096 3.55945 13.268 4.05767 12.0043C4.55588 10.7407 2.14805 10.2938 2.42916 9.93508C2.61658 9.69593 3.83333 9.00578 6.07945 7.86468C6.71764 4.2251 9.07497 2.4053 13.1515 2.4053C19.2661 2.4053 21.5957 7.58931 21.5957 10.8865C21.5957 14.1837 18.7749 17.7358 14.7566 18.5017C14.3973 19.025 14.9156 20.056 16.3113 21.5947" stroke="#1D1C23" stroke-width="1.91894" stroke-linecap="round" stroke-linejoin="round"/>
<path id="Vector_2" d="M9.84162 7.44356L8.92255 7.16803C8.91897 7.17997 8.91563 7.19198 8.91252 7.20405L9.84162 7.44356ZM10.1214 10.0046L10.7941 9.32053L10.7941 9.32049L10.1214 10.0046ZM12.6776 10.9691L13.6228 11.1338C13.6678 10.8753 13.6051 10.6097 13.4491 10.3987C13.2931 10.1877 13.0576 10.0498 12.7972 10.0171L12.6776 10.9691ZM17.7573 10.9691L16.8037 10.8625L16.8037 10.8626L17.7573 10.9691ZM11.4936 6.24422L11.6763 7.18614L11.6763 7.18613L11.4936 6.24422ZM10.8745 15.2781C10.7379 15.7901 11.0422 16.3159 11.5542 16.4525C12.0662 16.5891 12.592 16.2848 12.7286 15.7728L10.8745 15.2781ZM8.91252 7.20405C8.58144 8.48839 8.55871 9.81365 9.44868 10.6888L10.7941 9.32049C10.6842 9.21244 10.475 8.83031 10.7707 7.68306L8.91252 7.20405ZM9.44865 10.6887C10.1738 11.4018 11.2819 11.7607 12.5579 11.9211L12.7972 10.0171C11.6649 9.87479 11.0689 9.59071 10.7941 9.32053L9.44865 10.6887ZM11.7323 10.8044C11.593 11.6042 11.5688 12.4909 12.1435 13.0941C12.7209 13.7003 13.5566 13.6477 14.0066 13.6013L13.8098 11.6925C13.6068 11.7134 13.495 11.7091 13.4396 11.6998C13.3962 11.6925 13.4609 11.695 13.5329 11.7705C13.6032 11.8443 13.5871 11.8902 13.5749 11.7898C13.5616 11.6814 13.5629 11.4776 13.6228 11.1338L11.7323 10.8044ZM14.9648 13.4319C15.8282 13.5516 16.6837 13.4388 17.379 13.0499C18.0961 12.6487 18.6116 11.9634 18.7108 11.0756L16.8037 10.8626C16.7797 11.078 16.6713 11.247 16.4421 11.3752C16.1911 11.5156 15.778 11.6073 15.2286 11.5311L14.9648 13.4319ZM18.7108 11.0757C18.825 10.0536 18.608 9.13563 18.2996 8.46171C18.1461 8.12641 17.9581 7.82526 17.751 7.59083C17.6483 7.47461 17.5227 7.35408 17.3745 7.25544C17.2426 7.16754 17 7.03458 16.6839 7.03458V8.95353C16.4594 8.95353 16.3247 8.86183 16.3108 8.85259C16.2808 8.8326 16.2835 8.82813 16.313 8.86154C16.3703 8.92635 16.4624 9.05866 16.5547 9.26027C16.7377 9.66014 16.8745 10.2296 16.8037 10.8625L18.7108 11.0757ZM16.6839 7.03458C16.6106 7.03458 16.5116 7.0323 16.4066 7.02326C16.2984 7.01394 16.2041 6.99911 16.134 6.98065C16.0512 6.95888 16.0672 6.94906 16.1218 6.99251C16.1555 7.0194 16.2107 7.07243 16.2571 7.15888C16.306 7.25009 16.3297 7.35007 16.3297 7.44356H14.4107C14.4107 7.92098 14.6534 8.27622 14.9263 8.49356C15.17 8.68766 15.4458 8.78384 15.6457 8.83644C16.0526 8.94349 16.4829 8.95353 16.6839 8.95353V7.03458ZM16.3297 7.44356C16.3297 6.92802 16.0388 6.56858 15.7901 6.36453C15.5452 6.16367 15.2544 6.03458 14.9967 5.94817C14.4729 5.77249 13.8385 5.69218 13.2637 5.69218V7.61113C13.6881 7.61113 14.107 7.67377 14.3866 7.76753C14.5306 7.81584 14.5791 7.85309 14.573 7.84815C14.5631 7.84002 14.4107 7.70608 14.4107 7.44356H16.3297ZM13.2637 5.69218C13.1215 5.69218 13.1469 5.6685 13.2265 5.71296C13.2538 5.72824 13.3532 5.81325 13.17 5.64378C12.997 5.48377 12.7485 5.31378 12.3684 5.24954C12.0491 5.19558 11.6973 5.22736 11.3109 5.3023L11.6763 7.18613C11.976 7.128 12.0635 7.14417 12.0486 7.14165C12.0302 7.13853 11.989 7.12818 11.9395 7.10159C11.892 7.07612 11.8647 7.05043 11.8669 7.05248C11.8707 7.05598 11.8762 7.0613 11.8962 7.0811C11.9124 7.09717 11.942 7.12665 11.9754 7.15747C12.0474 7.22403 12.1506 7.31001 12.2905 7.38817C12.5813 7.55061 12.9062 7.61113 13.2637 7.61113V5.69218ZM11.3109 5.30229C10.2175 5.51435 9.25353 6.06401 8.92255 7.16803L10.7607 7.71908C10.8027 7.57877 10.9401 7.3289 11.6763 7.18614L11.3109 5.30229ZM15.2286 11.5311C14.1619 11.3831 13.2926 11.8327 12.6926 12.3376C12.0979 12.8379 11.6837 13.4566 11.4611 13.8723L13.1526 14.7784C13.2987 14.5056 13.5731 14.1044 13.9279 13.806C14.2774 13.512 14.6187 13.3838 14.9648 13.4319L15.2286 11.5311ZM11.4611 13.8723C11.2535 14.2597 11.1102 14.5994 11.0175 14.8467C10.971 14.9706 10.937 15.0721 10.9138 15.1456C10.9021 15.1824 10.8932 15.2123 10.8867 15.2346C10.8835 15.2457 10.8808 15.255 10.8788 15.2623C10.8778 15.2659 10.8769 15.269 10.8762 15.2717C10.8759 15.273 10.8755 15.2742 10.8752 15.2753C10.8751 15.2758 10.875 15.2763 10.8748 15.2768C10.8748 15.277 10.8747 15.2773 10.8747 15.2775C10.8746 15.2776 10.8746 15.2777 10.8746 15.2778C10.8745 15.278 10.8745 15.2781 11.8015 15.5254C12.7286 15.7728 12.7285 15.7729 12.7285 15.7731C12.7285 15.7731 12.7284 15.7733 12.7284 15.7734C12.7284 15.7736 12.7283 15.7737 12.7283 15.7739C12.7282 15.7743 12.7281 15.7746 12.728 15.7749C12.7279 15.7754 12.7277 15.7759 12.7277 15.7762C12.7275 15.7769 12.7274 15.7771 12.7275 15.7768C12.7276 15.7763 12.7283 15.7739 12.7295 15.7697C12.732 15.7613 12.7366 15.7458 12.7435 15.7239C12.7574 15.68 12.7805 15.6105 12.8143 15.5204C12.882 15.3398 12.9913 15.0794 13.1526 14.7784L11.4611 13.8723Z" fill="#1D1C23"/>
</g>
</svg>
