<svg width="24" height="24" viewBox="0 0 24 24" fill="none" xmlns="http://www.w3.org/2000/svg">
<path d="M17.075 18.1851C15.6943 19.3192 13.927 20 12.0008 20C7.58249 20 4.00077 16.4183 4.00077 12C4.00077 11.5883 4.03187 11.1839 4.09185 10.7889L5.03311 11.3456C5.40837 11.5675 5.86808 11.2364 5.77646 10.8101L5.0575 7.46523C4.99619 7.18 4.70471 7.00763 4.42523 7.09132L1.1477 8.07274C0.730059 8.1978 0.661357 8.76017 1.03661 8.9821L2.26459 9.70831C2.09204 10.4442 2.00077 11.2115 2.00077 12C2.00077 17.5228 6.47792 22 12.0008 22C14.6758 22 17.1056 20.9496 18.9001 19.2388L17.075 18.1851Z" fill="currentColor"/>
<path d="M7.23354 5.57493C8.56494 4.58545 10.2145 4 12.0008 4C16.4191 4 20.0008 7.58172 20.0008 12C20.0008 12.2832 19.9861 12.5629 19.9574 12.8385L18.8608 12.2146C18.4819 11.999 18.0278 12.3378 18.1265 12.7624L18.9015 16.0948C18.9676 16.379 19.2619 16.5464 19.54 16.4581L22.8006 15.4218C23.216 15.2897 23.2753 14.7263 22.8964 14.5107L21.8208 13.8987C21.9389 13.284 22.0008 12.6492 22.0008 12C22.0008 6.47715 17.5236 2 12.0008 2C9.4619 2 7.14402 2.94614 5.38047 4.50507L7.23354 5.57493Z" fill="currentColor"/>
</svg>
