<svg xmlns="http://www.w3.org/2000/svg" width="16" height="16" viewBox="0 0 16 16" fill="none">
  <path d="M6.33366 5.33342C5.78137 5.33342 5.33366 5.78113 5.33366 6.33342V9.66675C5.33366 10.219 5.78137 10.6667 6.33366 10.6667H9.66699C10.2193 10.6667 10.667 10.219 10.667 9.66675V6.33342C10.667 5.78113 10.2193 5.33342 9.66699 5.33342H6.33366Z" fill="#4D53E8"/>
  <path d="M8.00033 15.3334C12.0504 15.3334 15.3337 12.0502 15.3337 8.00008C15.3337 3.94999 12.0504 0.666748 8.00033 0.666748C3.95024 0.666748 0.666992 3.94999 0.666992 8.00008C0.666992 12.0502 3.95024 15.3334 8.00033 15.3334ZM8.00033 14.0001C4.68662 14.0001 2.00033 11.3138 2.00033 8.00008C2.00033 4.68637 4.68662 2.00008 8.00033 2.00008C11.314 2.00008 14.0003 4.68637 14.0003 8.00008C14.0003 11.3138 11.314 14.0001 8.00033 14.0001Z" fill="#4D53E8"/>
</svg>
