<svg width="16" height="16" viewBox="0 0 16 16" fill="none" xmlns="http://www.w3.org/2000/svg">
<path d="M13 2.83333V13.1667H2.66671L2.66671 2.83333H13ZM2.66671 1.5C1.93033 1.5 1.33337 2.09695 1.33337 2.83333V13.1667C1.33337 13.903 1.93033 14.5 2.66671 14.5H13C13.7364 14.5 14.3334 13.903 14.3334 13.1667V2.83333C14.3334 2.09695 13.7364 1.5 13 1.5H2.66671Z" fill="#040A1A"/>
<path d="M6.66476 2.83333V5.38997H13V6.72331H6.66476V9.27669H13V10.61H6.66476V13.1667H5.33143L5.33143 10.61H2.66671V9.27669H5.33143L5.33143 6.72331H2.66671V5.38997H5.33143V2.83333H6.66476Z" fill="#040A1A"/>
</svg>
