<svg width="24" height="24" viewBox="0 0 24 24" fill="none" xmlns="http://www.w3.org/2000/svg">
    <path
        d="M22.3206 20.6888L17.4812 15.8494C18.677 14.3019 19.3382 12.3886 19.3382 10.4191C19.3382 5.4953 15.3429 1.5 10.4191 1.5C5.49529 1.5 1.5 5.4953 1.5 10.4191C1.5 15.3429 5.49529 19.3382 10.4191 19.3382C12.459 19.3382 14.3441 18.6348 15.8494 17.4813L20.6888 22.3206C20.9279 22.5598 21.3077 22.5598 21.5469 22.3206L22.3206 21.5469C22.5598 21.3218 22.5598 20.9279 22.3206 20.6888ZM10.4191 17.5234C6.50821 17.5234 3.31475 14.3441 3.31475 10.4191C3.31475 6.50818 6.50821 3.31475 10.4191 3.31475C14.33 3.31475 17.5235 6.49412 17.5235 10.4191C17.5235 14.33 14.33 17.5234 10.4191 17.5234Z"
        fill="currentColor" />
</svg>
