<svg width="13" height="13" viewBox="0 0 13 13" fill="none" xmlns="http://www.w3.org/2000/svg">
  <path
    d="M6.0595 3.69964L4.73099 5.02815C4.53576 5.22337 4.21922 5.22326 4.02399 5.02803C3.82877 4.83281 3.82866 4.51627 4.02384 4.32101C4.2045 4.14028 4.38513 3.95954 4.56577 3.77879C5.09226 3.25197 5.61874 2.72516 6.14574 2.19885C6.34082 2.00403 6.6568 2.00403 6.85187 2.19885C7.37929 2.72558 7.90621 3.25282 8.43312 3.78006C8.61424 3.96129 8.79535 4.14252 8.97649 4.32372C9.16966 4.51698 9.16341 4.8314 8.9702 5.02461C8.77698 5.21783 8.46256 5.22408 8.26934 5.03087L7.0595 3.82102L7.0595 8.9675C7.0595 9.24364 6.83564 9.4675 6.5595 9.4675C6.28335 9.4675 6.0595 9.24364 6.0595 8.9675L6.0595 3.69964Z"
    fill="currentColor" />
  <path
    d="M11 10.302C11 10.0258 10.7761 9.80197 10.5 9.80197C10.2239 9.80197 10 10.0258 10 10.302V10.802H3V10.302C3 10.0258 2.77614 9.80197 2.5 9.80197C2.22386 9.80197 2 10.0258 2 10.302V11.302C2 11.5781 2.22386 11.802 2.5 11.802H10.5C10.7761 11.802 11 11.5781 11 11.302V10.302Z"
    fill="currentColor" />
</svg>
