<svg width="16" height="16" viewBox="0 0 16 16" fill="none" xmlns="http://www.w3.org/2000/svg">
<path d="M5.43333 2.5H10.5667C11.3446 2.5 12.0907 2.80905 12.6408 3.35915C13.191 3.90926 13.5 4.65536 13.5 5.43333V10.5667C13.5 11.3446 13.191 12.0907 12.6408 12.6408C12.0907 13.191 11.3446 13.5 10.5667 13.5H5.43333C4.65536 13.5 3.90926 13.191 3.35915 12.6408C2.80905 12.0907 2.5 11.3446 2.5 10.5667V5.43333C2.5 4.65536 2.80905 3.90926 3.35915 3.35915C3.90926 2.80905 4.65536 2.5 5.43333 2.5ZM5.10333 3.63667C4.91073 3.63667 4.72001 3.6746 4.54206 3.74831C4.36412 3.82202 4.20244 3.93005 4.06624 4.06624C3.93005 4.20244 3.82202 4.36412 3.74831 4.54206C3.6746 4.72001 3.63667 4.91073 3.63667 5.10333V10.8967C3.63667 11.0893 3.6746 11.28 3.74831 11.4579C3.82202 11.6359 3.93005 11.7976 4.06624 11.9338C4.20244 12.0699 4.36412 12.178 4.54206 12.2517C4.72001 12.3254 4.91073 12.3633 5.10333 12.3633H10.8967C11.0893 12.3633 11.28 12.3254 11.4579 12.2517C11.6359 12.178 11.7976 12.0699 11.9338 11.9338C12.0699 11.7976 12.178 11.6359 12.2517 11.4579C12.3254 11.28 12.3633 11.0893 12.3633 10.8967V5.10333C12.3633 4.91073 12.3254 4.72001 12.2517 4.54206C12.178 4.36412 12.0699 4.20244 11.9338 4.06624C11.7976 3.93005 11.6359 3.82202 11.4579 3.74831C11.28 3.6746 11.0893 3.63667 10.8967 3.63667H5.10333ZM7.50867 7.50867V5.558C7.50867 5.42769 7.56043 5.30272 7.65257 5.21057C7.74472 5.11843 7.86969 5.06667 8 5.06667C8.13031 5.06667 8.25528 5.11843 8.34742 5.21057C8.43957 5.30272 8.49133 5.42769 8.49133 5.558V7.50867H10.442C10.5723 7.50867 10.6973 7.56043 10.7894 7.65257C10.8816 7.74472 10.9333 7.86969 10.9333 8C10.9333 8.13031 10.8816 8.25528 10.7894 8.34742C10.6973 8.43957 10.5723 8.49133 10.442 8.49133H8.49133V10.442C8.49133 10.5723 8.43957 10.6973 8.34742 10.7894C8.25528 10.8816 8.13031 10.9333 8 10.9333C7.86969 10.9333 7.74472 10.8816 7.65257 10.7894C7.56043 10.6973 7.50867 10.5723 7.50867 10.442V8.49133H5.558C5.42769 8.49133 5.30272 8.43957 5.21057 8.34742C5.11843 8.25528 5.06667 8.13031 5.06667 8C5.06667 7.86969 5.11843 7.74472 5.21057 7.65257C5.30272 7.56043 5.42769 7.50867 5.558 7.50867H7.50867Z" fill="#1D1C23"/>
</svg>
