<svg width="15" height="15" viewBox="0 0 15 15" fill="none" xmlns="http://www.w3.org/2000/svg">
<path d="M6.18568 6.90661L10.6361 6.90661V6.04724C10.6361 5.80103 10.9187 5.66195 11.1138 5.81214L13.001 7.26489C13.1553 7.38366 13.1553 7.61634 13.001 7.73511L11.1138 9.18786C10.9187 9.33805 10.6361 9.19897 10.6361 8.95276V8.0934L6.18568 8.09339C5.85796 8.09339 5.59229 7.82772 5.59229 7.5C5.59229 7.17228 5.85796 6.90661 6.18568 6.90661Z" fill="#1D1C23"/>
<path fill-rule="evenodd" clip-rule="evenodd" d="M3.41667 3.99992H10.4167V4.58321H11.5833V3.99992C11.5833 3.35559 11.061 2.83325 10.4167 2.83325H3.41667C2.77233 2.83325 2.25 3.35559 2.25 3.99992V11.5833C2.25 12.2276 2.77233 12.7499 3.41667 12.7499H10.4167C11.061 12.7499 11.5833 12.2276 11.5833 11.5833V10.4165H10.4167V11.5833L3.41667 11.5833L3.41667 3.99992V3.99992Z" fill="#1D1C23"/>
</svg>
