<svg width="20" height="20" viewBox="0 0 20 20" fill="none" xmlns="http://www.w3.org/2000/svg">
<g id="icon_arrange_filled">
<path id="Union" fill-rule="evenodd" clip-rule="evenodd" d="M9.97512 6.86878C10.3721 5.28073 11.799 4.16667 13.4359 4.16667H15.8333C16.2936 4.16667 16.6667 3.79357 16.6667 3.33333C16.6667 2.8731 16.2936 2.5 15.8333 2.5H13.4359C11.0342 2.5 8.94071 4.13456 8.35821 6.46455C7.9612 8.0526 6.53434 9.16667 4.89741 9.16667H3.33333C2.8731 9.16667 2.5 9.53976 2.5 10C2.5 10.4602 2.8731 10.8333 3.33333 10.8333H4.89741C6.53434 10.8333 7.9612 11.9474 8.35821 13.5354C8.94071 15.8654 11.0342 17.5 13.4359 17.5H15.8333C16.2936 17.5 16.6667 17.1269 16.6667 16.6667C16.6667 16.2064 16.2936 15.8333 15.8333 15.8333H13.4359C11.799 15.8333 10.3721 14.7193 9.97512 13.1312C9.6433 11.8039 8.82117 10.7023 7.73105 10C8.82117 9.29766 9.6433 8.19605 9.97512 6.86878Z" fill="#1D1C23" fill-opacity="0.8"/>
</g>
</svg>
