<svg width="16" height="16" viewBox="0 0 16 16" fill="none" xmlns="http://www.w3.org/2000/svg">
<path d="M8.64648 5.66837C8.94724 5.79436 9.23537 5.96464 9.50156 6.1802C11.0103 7.40194 11.2429 9.61543 10.0212 11.1242L8.03024 13.5828C6.80849 15.0915 4.59501 15.3242 3.08628 14.1024C1.57755 12.8807 1.3449 10.6672 2.56665 9.15845L4.47085 6.80695L4.53154 7.38435C4.57422 7.79045 4.7134 8.16305 4.92388 8.48176L3.65936 10.0433C2.92632 10.9486 3.06591 12.2766 3.97114 13.0097C4.87638 13.7427 6.20447 13.6032 6.93752 12.6979L8.92847 10.2393C9.66152 9.33406 9.52193 8.00596 8.61669 7.27292C8.33969 7.0486 8.02309 6.906 7.69606 6.84204L8.64648 5.66837ZM7.5865 10.1008C7.28575 9.97484 6.99762 9.80456 6.73143 9.589C5.2227 8.36725 4.99005 6.15377 6.2118 4.64504L8.20275 2.18642C9.42449 0.677688 11.638 0.445041 13.1467 1.66679C14.6554 2.88853 14.8881 5.10202 13.6663 6.61075L11.7621 8.96225L11.7014 8.38484C11.6588 7.97874 11.5196 7.60615 11.3091 7.28744L12.5736 5.72588C13.3067 4.82065 13.1671 3.49255 12.2618 2.75951C11.3566 2.02646 10.0285 2.16605 9.29547 3.07128L7.30452 5.5299C6.57147 6.43514 6.71106 7.76323 7.6163 8.49628C7.8933 8.72059 8.2099 8.8632 8.53693 8.92715L7.5865 10.1008Z" fill="#1D1C23" fill-opacity="0.6" style="fill:#1D1C23;fill:color(display-p3 0.1137 0.1098 0.1373);fill-opacity:0.6;"/>
</svg>
