<svg width="33" height="32" viewBox="0 0 33 32" fill="none" xmlns="http://www.w3.org/2000/svg">
<path d="M9.22852 8.66013C9.22852 8.25847 9.55413 7.93286 9.95579 7.93286H19.8428C20.8854 7.93286 21.8853 8.3295 22.6225 9.03552C23.3598 9.74154 23.774 10.6991 23.774 11.6976V23.2056C23.774 23.6073 23.4484 23.9329 23.0467 23.9329H13.1597C12.1171 23.9329 11.1172 23.5362 10.3799 22.8302C9.64269 22.1242 9.22852 21.1666 9.22852 20.1682V8.66013ZM12.6831 13.0238C12.6831 13.4254 13.0087 13.751 13.4103 13.751H19.5921C19.9938 13.751 20.3194 13.4254 20.3194 13.0238C20.3194 12.6221 19.9938 12.2965 19.5921 12.2965H13.4103C13.0087 12.2965 12.6831 12.6221 12.6831 13.0238ZM12.6831 15.9329C12.6831 16.3345 13.0087 16.6601 13.4103 16.6601H19.5921C19.9938 16.6601 20.3194 16.3345 20.3194 15.9329C20.3194 15.5312 19.9938 15.2056 19.5921 15.2056H13.4103C13.0087 15.2056 12.6831 15.5312 12.6831 15.9329ZM13.4103 18.1147C13.0087 18.1147 12.6831 18.4403 12.6831 18.842C12.6831 19.2436 13.0087 19.5692 13.4103 19.5692H16.6831C17.0847 19.5692 17.4103 19.2436 17.4103 18.842C17.4103 18.4403 17.0847 18.1147 16.6831 18.1147H13.4103Z" fill="#6B6B75"/>
</svg>
