<svg width="14" height="14" viewBox="0 0 14 14" fill="none" xmlns="http://www.w3.org/2000/svg">
  <path
    d="M6.89575 0.881156C6.57106 0.683325 6.19759 0.580086 5.81739 0.583071C5.43719 0.586055 5.06538 0.695144 4.74384 0.898048C4.42231 1.10095 4.16381 1.38961 3.99748 1.73151C3.83115 2.0734 3.7636 2.45495 3.80242 2.83317L3.80343 2.84296L3.80476 2.85272C3.83885 3.10168 3.90162 3.31717 3.97329 3.49967H2.33341C1.68908 3.49967 1.16675 4.02201 1.16675 4.66634V6.99967H2.32509C2.32509 6.99967 2.32509 6.99968 2.32509 6.99967H1.16675C1.16675 7.08275 1.17039 7.20121 1.20245 7.31692C1.23427 7.43178 1.33986 7.69242 1.64751 7.78258C1.88588 7.85243 2.08568 7.7612 2.13641 7.73804L2.13811 7.73726C2.21101 7.70401 2.2831 7.65947 2.32775 7.63188L2.3499 7.61818C2.54163 7.49951 2.7711 7.35748 3.12829 7.30648C3.28736 7.29185 3.44746 7.32105 3.5912 7.39098C3.73773 7.46226 3.86144 7.57304 3.9484 7.71085C4.03536 7.84865 4.08211 8.008 4.08339 8.17094C4.08467 8.33388 4.04042 8.49394 3.95564 8.63309C3.87085 8.77224 3.74889 8.88495 3.60351 8.95853C3.4627 9.02978 3.30534 9.06159 3.1481 9.05072C2.71487 8.98542 2.44274 8.86716 2.26033 8.78714L2.24942 8.78234C2.20635 8.76343 2.15243 8.73974 2.10381 8.72133C2.06292 8.70585 1.95611 8.66556 1.82944 8.66175C1.75727 8.65958 1.653 8.668 1.54131 8.71906C1.42241 8.77342 1.33148 8.85955 1.27041 8.95696C1.17411 9.11057 1.16726 9.26849 1.16678 9.33301L1.16675 9.34447V11.6663C1.16675 12.3107 1.68908 12.833 2.33342 12.833H9.33342C9.97775 12.833 10.5001 12.3107 10.5001 11.6663V10.0605C10.6844 10.1166 10.9049 10.17 11.1648 10.2079L11.1816 10.2103L11.1985 10.2118C11.5773 10.2447 11.9577 10.1711 12.297 9.99946C12.6362 9.82778 12.9208 9.56479 13.1186 9.2401C13.3164 8.91542 13.4197 8.54194 13.4167 8.16174C13.4137 7.78155 13.3046 7.40974 13.1017 7.0882C12.8988 6.76666 12.6101 6.50817 12.2682 6.34184C11.9264 6.17551 11.5448 6.10795 11.1666 6.14678L11.1568 6.14778L11.147 6.14912C10.898 6.18321 10.6825 6.24561 10.5001 6.31653V4.66634C10.5001 4.02201 9.97775 3.49967 9.33342 3.49967H7.71612C7.77229 3.31532 7.82564 3.09484 7.86352 2.83494L7.86596 2.81816L7.86743 2.80126C7.90032 2.42248 7.82678 2.04204 7.6551 1.70279C7.48343 1.36355 7.22043 1.07899 6.89575 0.881156ZM2.33341 10.0605C2.51777 10.1167 2.73824 10.17 2.99815 10.2079L3.01493 10.2104L3.03183 10.2118C3.41061 10.2447 3.79105 10.1712 4.13029 9.99949C4.46954 9.82782 4.7541 9.56482 4.95193 9.24014C5.14976 8.91545 5.253 8.54198 5.25002 8.16178C5.24703 7.78158 5.13794 7.40977 4.93504 7.08824C4.73214 6.7667 4.44348 6.5082 4.10158 6.34187C3.75969 6.17554 3.37814 6.10799 2.99992 6.14681L2.99013 6.14782L2.98037 6.14915C2.73132 6.18325 2.51579 6.24565 2.33341 6.31656V4.66634H4.66675C4.74941 4.66634 4.8685 4.66278 4.98476 4.63029C5.10084 4.59785 5.36674 4.48854 5.45147 4.17266C5.51519 3.9351 5.42136 3.73818 5.39795 3.68904L5.39682 3.68665C5.36322 3.61597 5.31863 3.54545 5.29068 3.50123L5.27933 3.48328C5.15846 3.29226 5.01325 3.06279 4.96209 2.70478C4.94747 2.54572 4.97666 2.38563 5.04659 2.24189C5.11787 2.09536 5.22865 1.97165 5.36646 1.88469C5.50426 1.79773 5.66361 1.75098 5.82655 1.7497C5.98949 1.74842 6.14955 1.79267 6.2887 1.87745C6.42785 1.96224 6.54056 2.08419 6.61414 2.22958C6.68539 2.37039 6.7172 2.52775 6.70633 2.68499C6.64103 3.11822 6.52277 3.39035 6.44275 3.57275L6.43795 3.58367C6.41904 3.62674 6.39536 3.68064 6.37694 3.72928C6.36146 3.77017 6.32116 3.87698 6.31736 4.00365C6.31519 4.07582 6.32361 4.18009 6.37467 4.29178C6.42903 4.41068 6.51516 4.50161 6.61257 4.56268C6.77626 4.6653 6.94483 4.66634 7.00008 4.66634H8.05485H9.33342L9.33341 6.99966C9.33341 7.08273 9.33705 7.20118 9.36911 7.31689C9.40093 7.43174 9.50653 7.69239 9.81418 7.78254C10.0525 7.85239 10.2523 7.76116 10.3031 7.738L10.3048 7.73723C10.3777 7.70397 10.4498 7.65943 10.4944 7.63184L10.5166 7.61814C10.7083 7.49947 10.9378 7.35744 11.295 7.30645C11.454 7.29182 11.6141 7.32101 11.7579 7.39094C11.9044 7.46223 12.0281 7.57301 12.1151 7.71081C12.202 7.84861 12.2488 8.00796 12.2501 8.1709C12.2513 8.33384 12.2071 8.4939 12.1223 8.63306C12.0375 8.77221 11.9156 8.88492 11.7702 8.95849C11.6294 9.02975 11.472 9.06156 11.3148 9.05069C10.8815 8.98538 10.6094 8.86712 10.427 8.7871L10.4161 8.7823C10.373 8.76339 10.3191 8.73971 10.2705 8.7213C10.2296 8.70581 10.1228 8.66552 9.99611 8.66171C9.92393 8.65954 9.81966 8.66797 9.70797 8.71903C9.58908 8.77339 9.49814 8.85952 9.43707 8.95693C9.34075 9.11057 9.33389 9.26851 9.33342 9.33301V11.6663H2.33341V10.0605Z"
    fill="currentColor" />
</svg>
