<svg width="140" height="140" viewBox="0 0 140 140" fill="none" xmlns="http://www.w3.org/2000/svg">
<g clip-path="url(#clip0_7238_16159)">
<path d="M70.5242 134.391C74.8747 134 76.6149 127.952 77.7755 123.854L81.2559 134.391H70.5242Z" fill="black" stroke="black" stroke-width="0.7"/>
<path d="M72.7815 44.0821C70.0228 40.5607 71.4172 34.4091 77.923 27.9583C87.009 19.6407 95.7933 21.4799 96.2049 21.6721C96.6165 21.8642 105.308 28.0137 113.582 36.5854C121.858 45.1571 130.517 52.498 130.624 64.26C130.731 76.0222 118.543 80.2796 109.601 80.3328C100.66 80.386 80.7076 80.1354 76.8751 79.497C74.4706 82.6519 70.6465 86.0616 69.2364 86.8008C72.1949 89.3432 82.7586 100.084 84.0291 102.352C85.2996 104.621 90.8345 112.515 88.2935 124.947C87.1294 130.644 82.5752 133.561 77.8698 134.476C77.8698 134.476 71.4256 134.439 69.2364 134.476C63.793 134.567 7.62254 134.476 5.98917 134.476C4.35578 134.476 3.88482 133.011 5.98917 128.737C8.0935 124.464 15.852 110.98 19.9179 108.573C21.536 107.66 25.191 110.022 25.9592 110.569C26.6775 111.081 27.3741 111.685 28.3698 111.603C29.3655 111.519 34.5569 111.496 36.2156 111.55C33.2159 109.45 22.1923 99.1705 20.8453 94.169C19.7748 90.1944 21.0558 87.8984 21.6246 87.3685C15.6546 83.8769 9.57995 76.9441 11.957 66.6434C12.6238 63.754 14.4289 60.744 15.7745 59.8769C18.3052 58.2462 26.8918 57.422 32.0987 56.9465C54.9871 54.8563 107.128 55.6137 108.712 55.6288C106.529 53.9662 98.0725 44.4766 97.8758 44.157C97.3347 45.7058 95.1962 47.6726 93.5981 47.4513C92.1799 47.255 91.391 45.034 93.0318 41.5153C92.4669 42.0923 91.8796 42.64 91.2881 43.1206C90.4173 43.8288 89.3253 43.9739 88.9291 43.1206C88.5798 42.3701 88.696 40.939 89.5024 39.0322C88.64 39.8457 87.7811 40.5212 87.0097 40.9118C84.4274 42.2185 83.789 37.2487 87.2484 33.0194C82.2763 35.45 80.8665 37.4354 79.6317 40.3473C78.8708 42.1421 78.602 43.7874 76.5083 44.7179C74.9025 45.4317 73.5578 45.0735 72.7815 44.0821Z" fill="white"/>
<path d="M87.2484 33.0194C82.2763 35.45 80.8665 37.4354 79.6317 40.3473C78.8708 42.1421 78.602 43.7874 76.5083 44.7179C74.9025 45.4317 73.5578 45.0735 72.7815 44.0821C70.0228 40.5607 71.4172 34.4091 77.923 27.9583C87.009 19.6407 95.7933 21.4799 96.2049 21.6721C96.6165 21.8642 105.308 28.0137 113.582 36.5854C121.858 45.1571 130.517 52.498 130.624 64.26C130.731 76.0222 118.543 80.2796 109.601 80.3328C100.66 80.386 80.7076 80.1354 76.8751 79.497M87.2484 33.0194C92.1477 31.2009 91.895 29.5389 91.6066 29.2097C91.3182 28.8803 88.36 31.1257 87.2484 33.0194ZM87.2484 33.0194C83.789 37.2487 84.4274 42.2185 87.0097 40.9118C90.4033 39.1943 95.4706 31.971 95.1591 31.7289C94.9379 31.5568 93.7073 32.2518 91.4344 35.577C88.9557 39.2039 88.3929 41.9667 88.9291 43.1206C89.3253 43.9739 90.4173 43.8288 91.2881 43.1206C94.6432 40.3925 97.8751 35.5015 97.7029 35.3786C97.5307 35.2557 96.4128 35.692 93.7766 40.116C91.2013 44.4384 92 47.23 93.5981 47.4513C95.1962 47.6726 97.3347 45.7058 97.8758 44.157C98.0725 44.4766 106.529 53.9662 108.712 55.6288M76.8751 79.497C74.4706 82.6519 70.6465 86.0616 69.2364 86.8008M76.8751 79.497C79.3839 76.0572 81.6078 72.5404 82.6942 68.7906M108.712 55.6288C107.128 55.6137 54.9871 54.8563 32.0987 56.9465C26.8918 57.422 18.3052 58.2462 15.7745 59.8769C14.4289 60.744 12.6238 63.754 11.957 66.6434C9.57995 76.9441 15.6546 83.8769 21.6246 87.3685M108.712 55.6288C110.294 55.6438 113.007 56.1152 112.775 57.7998C112.623 58.8927 109.473 56.3147 108.712 55.6288ZM69.2364 86.8008C72.1949 89.3432 82.7586 100.084 84.0291 102.352C85.2996 104.621 90.8345 112.515 88.2935 124.947C87.1294 130.644 82.5752 133.561 77.8698 134.476C77.8698 134.476 71.4256 134.439 69.2364 134.476C63.793 134.567 7.62254 134.476 5.98917 134.476C4.35578 134.476 3.88482 133.011 5.98917 128.737C8.0935 124.464 15.852 110.98 19.9179 108.573C21.536 107.66 25.191 110.022 25.9592 110.569C26.6775 111.081 27.3741 111.685 28.3698 111.603C29.3655 111.519 34.5569 111.496 36.2156 111.55M69.2364 86.8008C67.6321 86.8008 63.5223 86.8008 61.668 86.8008M36.2156 111.55C38.3567 111.619 42.932 111.206 44.5086 112.63C45.9401 113.923 44.8999 115.845 42.7352 115.32C40.1891 114.701 37.0454 112.13 36.2156 111.55ZM36.2156 111.55C33.2159 109.45 22.1923 99.1705 20.8453 94.169C19.7748 90.1944 21.0558 87.8984 21.6246 87.3685M61.668 86.8008C56.0066 80.8515 49.2753 75.4755 45.7 72.8778M61.668 86.8008C62.2552 87.4182 62.8308 88.0412 63.3902 88.6684C64.7507 90.193 69.3229 95.3863 69.7777 98.5713C70.0361 100.382 69.8196 103.326 69.1434 106.243M21.6246 87.3685C23.959 88.6201 29.9392 91.621 35.185 93.6069M35.185 93.6069C41.7424 96.0898 48.6204 97.9875 50.8486 100.534C53.0768 103.081 50.3156 106.605 49.5094 109.46C49.306 110.18 49.0737 111.273 49.3236 111.905C49.6397 112.703 50.5664 112.859 51.9442 111.786C54.4118 109.864 56.601 105.09 57.0565 103.686C57.5121 102.281 53.9524 109.47 53.5727 112.645C53.1931 115.819 56.0145 115.299 57.9106 112.645C60.1314 109.535 61.2705 105.963 61.4224 105.28C61.5743 104.597 59.5096 109.092 58.9025 111.786C58.7389 112.513 58.3123 114.216 58.9025 114.895C59.5738 115.667 60.9124 115.465 62.4558 112.987C64.2175 110.158 65.5225 106.192 65.6743 105.28C65.8261 104.369 63.5365 110.394 63.1912 113.329C62.9487 115.388 63.655 116.393 66.1155 113.329C67.5066 111.596 68.5201 108.931 69.1434 106.243M35.185 93.6069C33.8036 95.5088 32.2093 97.3106 27.6204 98.0316M69.1434 106.243C71.3717 108.288 74.2837 112.017 74.9123 116.167C75.5409 120.317 74.9123 125.591 68.3322 131.109M45.7 72.8778C41.7065 69.9758 39.4237 69.6836 37.6804 69.6836C35.1317 69.6836 34.5462 71.0529 36.8688 71.9237C39.1912 72.7952 43.4131 72.8778 45.7 72.8778ZM45.7 72.8778C47.4859 72.8778 49.6871 72.8778 50.5401 72.8778" stroke="#515151" stroke-width="0.7"/>
<path fill-rule="evenodd" clip-rule="evenodd" d="M81.1592 134.488L77.5367 123.521L77.4499 123.827C76.8696 125.878 76.1472 128.404 75.0293 130.466C73.91 132.53 72.4099 134.103 70.284 134.294L70.2924 134.488H81.1592Z" fill="#515151"/>
<path fill-rule="evenodd" clip-rule="evenodd" d="M85.6903 96.1465L89.2561 102.78H84.0411L80.4753 96.1465H85.6903Z" fill="#C6CACD"/>
<path d="M72.8672 99.0332H96.6323L107.01 118.236H83.2454L72.8672 99.0332Z" fill="white" stroke="#515151" stroke-width="0.7"/>
<path d="M128.181 108.594H97.6644V135.797H128.181V108.594Z" fill="#E6E8EA" stroke="#515151" stroke-width="0.7"/>
<path d="M97.908 108.284L104.408 96.4963H134.826L128.326 108.284H97.908Z" fill="#E6E8EA" stroke="#515151" stroke-width="0.7"/>
<path d="M97.5854 108.594H77.8565V135.797H97.5854V108.594Z" fill="#E6E8EA" stroke="#515151" stroke-width="0.7"/>
<path fill-rule="evenodd" clip-rule="evenodd" d="M116.589 108.439L119.321 103.561H115.028L112.515 108.049H112.296V108.439V117.414H116.589V108.439Z" fill="#515151"/>
<path d="M31.9053 50.2923C44.7292 50.2923 55.125 39.8965 55.125 27.0726C55.125 14.2486 44.7292 3.85278 31.9053 3.85278C19.0813 3.85278 8.68549 14.2486 8.68549 27.0726C8.68549 39.8965 19.0813 50.2923 31.9053 50.2923Z" fill="#F1F2FD"/>
<path fill-rule="evenodd" clip-rule="evenodd" d="M34.1923 33.3655C35.4325 33.0505 36.2043 31.8969 35.9178 30.6497C35.7226 29.8002 36.1078 28.9633 36.7149 28.3378C38.8341 26.1539 40.2744 22.8935 39.2793 19.3937C38.7552 17.4919 37.3404 15.8267 35.4783 14.7761C33.4454 13.6563 30.9471 13.4422 28.5653 14.1699L28.4453 14.2208C24.4017 15.5983 22.6346 19.1591 22.6664 22.5953C22.6797 24.0284 24.1499 24.8388 25.5284 24.4468C26.931 24.048 27.6093 22.4823 28.0724 21.0995C28.3462 20.2822 28.9522 19.5377 30.1226 19.1734C31.4934 18.7332 32.468 19.0276 33.0318 19.3548C33.6464 19.802 34.141 20.3001 34.2757 20.951C34.8687 22.6819 33.6981 24.5948 32.36 25.446C30.4817 26.6237 30.2415 29.2808 30.64 31.5992C30.8927 33.0696 32.4216 33.8153 33.8676 33.448L34.1923 33.3655ZM34.2102 35.5731C35.717 35.085 37.3341 35.9109 37.8222 37.4176C38.3102 38.9244 37.4845 40.5415 35.9777 41.0296C34.471 41.5177 32.8538 40.6919 32.3657 39.1851C31.8777 37.6784 32.7035 36.0612 34.2102 35.5731Z" fill="#4D53E8"/>
<path fill-rule="evenodd" clip-rule="evenodd" d="M69.0429 57.8049L68.9656 57.7981L68.9416 57.8719C68.3913 59.5669 67.782 61.5344 67.8786 63.4966C67.9756 65.4665 68.7836 67.426 71.0516 69.1026C73.2671 70.7398 75.6562 70.3457 77.4811 68.9911C79.3018 67.6401 80.5737 65.3267 80.5737 63.0957C80.5737 62.221 80.0039 61.4722 79.1408 60.8422C78.2763 60.2108 77.0989 59.6845 75.8403 59.2565C73.3224 58.4001 70.4545 57.9289 69.0429 57.8049ZM81.0693 72.9861C80.1383 75.1582 77.8297 78.3628 76.7888 79.6956L76.8693 79.5934L80.538 79.8538L80.5639 79.7978C80.7263 79.4534 80.8502 78.962 80.9468 78.3985C81.0434 77.8336 81.1127 77.1882 81.161 76.5337C81.2576 75.2247 81.2723 73.8702 81.2562 73.0225L81.0693 72.9861ZM21.6005 86.991L21.4881 86.9196L20.5545 90.4462L20.6316 90.4798C23.7077 91.8077 30.5096 93.3162 35.3944 93.7068L35.4377 93.5192C29.9941 91.3898 24.1018 88.5723 21.6005 86.991Z" fill="#515151"/>
<path d="M49.7209 34.2922C53.395 35.1575 61.0045 38.7707 62.0497 46.301" stroke="#515151" stroke-width="0.7"/>
<path d="M75.6586 67.6042C71.6504 67.6042 68.4017 64.3552 68.4017 60.3474C68.4017 56.3396 71.6504 53.0906 75.6586 53.0906C79.6661 53.0906 82.9155 56.3396 82.9155 60.3474C82.9155 64.3552 79.6661 67.6042 75.6586 67.6042Z" fill="white" stroke="#515151" stroke-width="0.7" stroke-miterlimit="10"/>
<path fill-rule="evenodd" clip-rule="evenodd" d="M77.5579 60.1035C77.4858 59.9589 77.3101 59.9003 77.1652 59.9726C76.1747 60.4677 75.096 60.5915 74.697 60.5915C74.5353 60.5915 74.4044 60.7225 74.4044 60.8842C74.4044 61.0458 74.5353 61.1768 74.697 61.1768C75.1653 61.1768 76.3385 61.0406 77.427 60.4962C77.5719 60.4239 77.63 60.2481 77.5579 60.1035ZM75.6945 62.5644C75.67 62.2242 75.9255 61.9284 76.2657 61.9036C76.6059 61.8789 76.902 62.1346 76.9265 62.4748C76.951 62.815 76.6955 63.1109 76.3553 63.1356C76.0151 63.1604 75.719 62.9046 75.6945 62.5644ZM80.6666 61.9034C80.3264 61.9281 80.0709 62.224 80.0954 62.5642C80.1199 62.9044 80.416 63.1601 80.7562 63.1354C81.0964 63.1107 81.3519 62.8148 81.3274 62.4746C81.3029 62.1344 81.0068 61.8787 80.6666 61.9034Z" fill="#515151"/>
<path d="M70.4084 61.1193C70.4084 61.1193 66.3942 56.4873 69.9453 53.3993C74.5776 49.2305 84.7675 53.0905 84.7675 53.0905C84.7675 53.0905 84.6135 58.0313 81.3711 58.6489C78.2827 59.1121 72.57 56.9505 72.57 56.9505L70.4084 61.1193Z" fill="#515151"/>
<path d="M68.8652 62.0459C67.8419 62.0459 67.0124 61.2164 67.0124 60.1932C67.0124 59.1698 67.8419 58.3403 68.8652 58.3403C69.8885 58.3403 70.7179 59.1698 70.7179 60.1932C70.7179 61.2164 69.8885 62.0459 68.8652 62.0459Z" fill="white" stroke="#515151" stroke-width="0.7" stroke-miterlimit="10"/>
</g>
<defs>
<clipPath id="clip0_7238_16159">
<rect width="140" height="140" fill="white"/>
</clipPath>
</defs>
</svg>
