<svg width="24" height="24" viewBox="0 0 24 24" fill="currentColor" xmlns="http://www.w3.org/2000/svg">
    <path d="M10.0473 9.5426L10.2706 8.13267C10.3284 7.7683 10.6425 7.5 11.0114 7.5C11.4724 7.5 11.8243 7.912 11.7522 8.36733L11.566 9.5426H13.9166L14.1399 8.13267C14.1976 7.7683 14.5118 7.5 14.8807 7.5C15.3417 7.5 15.6936 7.912 15.6215 8.36733L15.4353 9.5426H16.4348C16.8958 9.5426 17.2477 9.9546 17.1755 10.4099C17.1178 10.7743 16.8037 11.0426 16.4348 11.0426H15.1977L14.881 13.0426H15.8804C16.3414 13.0426 16.6933 13.4546 16.6212 13.9099C16.5635 14.2743 16.2493 14.5426 15.8804 14.5426H14.6434L14.4249 15.9219C14.3672 16.2863 14.0531 16.5546 13.6842 16.5546C13.2232 16.5546 12.8713 16.1426 12.9434 15.6872L13.1247 14.5426H10.7741L10.5557 15.9219C10.4979 16.2863 10.1838 16.5546 9.81488 16.5546C9.35388 16.5546 9.002 16.1426 9.07412 15.6872L9.25541 14.5426H8.25017C7.78916 14.5426 7.43729 14.1306 7.5094 13.6753C7.56712 13.3109 7.88125 13.0426 8.25017 13.0426H9.49299L9.80976 11.0426H8.80452C8.34351 11.0426 7.99163 10.6306 8.06375 10.1753C8.12146 9.8109 8.4356 9.5426 8.80452 9.5426H10.0473ZM13.3623 13.0426L13.679 11.0426H11.3284L11.0117 13.0426H13.3623Z" />
    <path d="M3.39131 20.7324L4.44576 19.2236C2.74286 17.4735 1.65458 15.1526 1.5166 12.5871C1.50558 12.3928 1.5 12.197 1.5 12C1.5 6.20101 6.33659 1.5 12.3028 1.5C12.3686 1.5 12.4342 1.5 12.5 1.5C15.111 1.5 17.4995 2.45304 19.3364 4.03023C20.7624 5.22024 21.8654 6.76558 22.5 8.52497C22.5218 8.58544 23 10.567 23 12C23 17.3745 18.962 21.8059 13.7544 22.4258L13.7519 22.4261C13.3414 22.4749 12.9236 22.5 12.5 22.5C12.255 22.4995 12 22.5 11.7556 22.5H4.35448C3.41996 22.5 2.86623 21.4838 3.39131 20.7324ZM12.5 20.5C17.1944 20.5 21 16.6944 21 12C21 11.0366 20.8112 10.0544 20.5877 9.11911C20.0727 7.73901 19.1943 6.5166 18.055 5.56578L18.0442 5.55679L18.0336 5.54766C16.5455 4.27005 14.6152 3.5 12.5 3.5C12.4343 3.5 12.3686 3.5 12.3028 3.5C7.38717 3.5 3.5 7.3588 3.5 12C3.5 12.1592 3.50451 12.3172 3.5134 12.4739L3.51373 12.4797C3.62436 14.5371 4.49587 16.4072 5.87914 17.8288L7.03228 19.0138L5.99371 20.5H11.7215C11.9809 20.4944 12.2406 20.4994 12.5 20.5Z" />
</svg>
