<svg width="14" height="14" viewBox="0 0 14 14" fill="none" xmlns="http://www.w3.org/2000/svg">
  <mask id="mask0_708_108038" style="mask-type:alpha" maskUnits="userSpaceOnUse" x="0" y="0" width="14" height="14">
    <rect width="14" height="14" fill="#D9D9D9" />
  </mask>
  <g mask="url(#mask0_708_108038)">
    <rect x="9.32129" y="5.60742" width="1.85714" height="2.7857" rx="0.928571" fill="currentColor" />
    <rect x="2.82129" y="5.60742" width="1.85714" height="2.7857" rx="0.928571" fill="currentColor" />
    <mask id="path-4-inside-1_708_108038" fill="white">
      <path
        d="M0.72438 4.65118C1.02611 3.12487 2.25852 2.04052 3.78198 1.7247C4.67231 1.54014 5.77412 1.38965 7.00003 1.38965C8.22593 1.38965 9.32774 1.54014 10.2181 1.7247C11.7415 2.04051 12.9739 3.12486 13.2756 4.65115C13.4059 5.30997 13.5 6.10799 13.5 7.0384C13.5 8.12408 13.3718 9.01948 13.2077 9.721C12.9068 11.007 11.8857 11.936 10.5979 12.2289C9.69704 12.4337 8.48943 12.6098 7.00003 12.6098C5.51063 12.6098 4.30302 12.4337 3.40214 12.2289C2.11431 11.936 1.09322 11.0069 0.792326 9.72096C0.628185 9.01945 0.5 8.12406 0.5 7.0384C0.5 6.10801 0.594143 5.31 0.72438 4.65118Z" />
    </mask>
    <path
      d="M13.2756 4.65115L11.9709 4.90908L13.2756 4.65115ZM3.78198 1.7247L3.51201 0.422389L3.78198 1.7247ZM2.08735 9.41795C1.9456 8.81214 1.83 8.01839 1.83 7.0384H-0.83C-0.83 8.22973 -0.68923 9.22676 -0.502697 10.024L2.08735 9.41795ZM1.83 7.0384C1.83 6.19827 1.91496 5.48666 2.02913 4.90911L-0.58037 4.39326C-0.726672 5.13334 -0.83 6.01774 -0.83 7.0384H1.83ZM10.303 10.932C9.49249 11.1163 8.38385 11.2798 7.00003 11.2798V13.9398C8.59501 13.9398 9.90159 13.7512 10.8928 13.5258L10.303 10.932ZM7.00003 11.2798C5.61621 11.2798 4.50756 11.1163 3.69706 10.932L3.10723 13.5258C4.09847 13.7512 5.40505 13.9398 7.00003 13.9398V11.2798ZM11.9709 4.90908C12.085 5.48664 12.17 6.19826 12.17 7.0384H14.83C14.83 6.01772 14.7267 5.13331 14.5804 4.39322L11.9709 4.90908ZM12.17 7.0384C12.17 8.01841 12.0544 8.81217 11.9126 9.41799L14.5027 10.024C14.6892 9.2268 14.83 8.22975 14.83 7.0384H12.17ZM4.05195 3.02701C4.87124 2.85717 5.88133 2.71965 7.00003 2.71965V0.0596484C5.66691 0.0596484 4.47337 0.223099 3.51201 0.422389L4.05195 3.02701ZM7.00003 2.71965C8.11872 2.71965 9.1288 2.85717 9.94808 3.02701L10.488 0.422389C9.52668 0.223099 8.33315 0.0596484 7.00003 0.0596484V2.71965ZM-0.502697 10.024C-0.0745612 11.8538 1.37393 13.1316 3.10723 13.5258L3.69706 10.932C2.8547 10.7404 2.261 10.1601 2.08735 9.41795L-0.502697 10.024ZM10.8928 13.5258C12.6261 13.1316 14.0746 11.8538 14.5027 10.024L11.9126 9.41799C11.739 10.1601 11.1453 10.7404 10.303 10.932L10.8928 13.5258ZM14.5804 4.39322C14.1596 2.26497 12.453 0.829734 10.488 0.422389L9.94808 3.02701C11.03 3.25129 11.7881 3.98474 11.9709 4.90908L14.5804 4.39322ZM2.02913 4.90911C2.21186 3.98476 2.97002 3.2513 4.05195 3.02701L3.51201 0.422389C1.54702 0.829732 -0.159643 2.26498 -0.58037 4.39326L2.02913 4.90911Z"
      fill="currentColor" mask="url(#path-4-inside-1_708_108038)" />
  </g>
</svg>
