<svg width="16" height="16" viewBox="0 0 16 16" fill="currentColor" xmlns="http://www.w3.org/2000/svg">
<g clip-path="url(#clip0_5025_2750)">
<path fill-rule="evenodd" clip-rule="evenodd" d="M15.3332 8C15.3332 12.0501 12.0499 15.3333 7.99984 15.3333C3.94975 15.3333 0.666504 12.0501 0.666504 8C0.666504 3.94992 3.94975 0.666672 7.99984 0.666672C12.0499 0.666672 15.3332 3.94992 15.3332 8ZM10.9485 4.37629C11.3236 4.21158 11.7247 4.5446 11.6595 4.96652L10.6932 11.2089C10.6344 11.5884 10.2305 11.7862 9.91645 11.5893L7.11668 9.8336C6.82487 9.65063 6.77673 9.22682 7.01931 8.9767L9.51997 6.39851C9.60949 6.30627 9.4953 6.15729 9.39054 6.22969L5.91653 8.62978C5.65971 8.80719 5.34128 8.85565 5.04716 8.76199L3.50631 8.27129C3.22729 8.18245 3.20761 7.77492 3.47664 7.6568L10.9485 4.37629Z" fill="#1D1C23"/>
</g>
<defs>
<clipPath id="clip0_5025_2750">
<rect width="16" height="16" fill="white"/>
</clipPath>
</defs>
</svg>
