<svg xmlns="http://www.w3.org/2000/svg" width="1em" height="1em" viewBox="0 0 14 14" fill="none">
    <path
        d="M3.21354 6.85433C3.21354 7.41812 2.7565 7.87516 2.19271 7.87516C1.62892 7.87516 1.17188 7.41812 1.17188 6.85433C1.17188 6.29054 1.62892 5.8335 2.19271 5.8335C2.7565 5.8335 3.21354 6.29054 3.21354 6.85433Z"
        fill="currentColor" fill-opacity="0.5" />
    <path
        d="M8.01168 6.85433C8.01168 7.41812 7.55464 7.87516 6.99085 7.87516C6.42706 7.87516 5.97002 7.41812 5.97002 6.85433C5.97002 6.29054 6.42706 5.8335 6.99085 5.8335C7.55464 5.8335 8.01168 6.29054 8.01168 6.85433Z"
        fill="currentColor" fill-opacity="0.5" />
    <path
        d="M12.8385 6.85433C12.8385 7.41812 12.3815 7.87516 11.8177 7.87516C11.2539 7.87516 10.7969 7.41812 10.7969 6.85433C10.7969 6.29054 11.2539 5.8335 11.8177 5.8335C12.3815 5.8335 12.8385 6.29054 12.8385 6.85433Z"
        fill="currentColor" fill-opacity="0.5" />
</svg>
