<svg width="14" height="14" viewBox="0 0 24 24" fill="none" xmlns="http://www.w3.org/2000/svg">
<path d="M21.957 18.5C21.957 19.0523 21.5093 19.5 20.957 19.5L2.95704 19.5C2.40476 19.5 1.95704 19.0523 1.95704 18.5C1.95704 17.9477 2.40476 17.5 2.95704 17.5L20.957 17.5C21.5093 17.5 21.957 17.9477 21.957 18.5ZM21.3809 12.0458C21.0715 12.5019 20.4504 12.6202 19.9981 12.3053L11.9575 6.709L3.92192 12.309C3.47348 12.6215 2.85837 12.5015 2.55239 12.0486C2.24508 11.5937 2.34786 10.9691 2.79776 10.6546C5.66076 8.65279 8.50639 6.61986 11.4003 4.66379C11.7366 4.43654 12.177 4.43655 12.5133 4.66376C15.4111 6.62184 18.2624 8.65366 21.1306 10.6556C21.5808 10.9698 21.6891 11.5914 21.3809 12.0458Z" fill="currentColor"/>
</svg>
