<svg xmlns="http://www.w3.org/2000/svg" width="48" height="48" viewBox="0 0 48 48" fill="none">
    <path d="M24 46C36.1503 46 46 36.1503 46 24C46 11.8497 36.1503 2 24 2C11.8497 2 2 11.8497 2 24C2 36.1503 11.8497 46 24 46Z" fill="#FF2710"/>
    <path d="M24 14C22.8954 14 22 14.8954 22 16V26C22 27.1046 22.8954 28 24 28C25.1046 28 26 27.1046 26 26V16C26 14.8954 25.1046 14 24 14Z" fill="white"/>
    <path d="M24 34C25.1046 34 26 33.1046 26 32C26 30.8954 25.1046 30 24 30C22.8954 30 22 30.8954 22 32C22 33.1046 22.8954 34 24 34Z" fill="white"/>
</svg>
