<svg xmlns="http://www.w3.org/2000/svg" width="24" height="25" viewBox="0 0 24 25" fill="none">
    <path
        d="M11.6622 20.3975L11.7076 22.5332C11.7175 22.9981 10.8584 23.2491 10.3449 22.9297C8.58177 21.8328 5.56977 19.958 3.89783 18.9112C3.27505 18.5213 3.26596 17.8814 3.87498 17.4701C5.5006 16.3722 8.44869 14.3894 10.1743 13.2292C10.6763 12.8917 11.5442 13.1123 11.5506 13.5775L11.5798 15.6994L12.4066 15.6849C15.616 15.6286 18.1159 14.0532 19.5698 12.7981C19.8649 12.5434 20.488 12.6875 20.4935 13.0036C20.4951 13.0957 20.4964 13.1708 20.4972 13.2132C20.5535 16.4273 16.557 20.3117 11.6622 20.3975Z"
        fill="#FF9600" />
    <path
        d="M12.3378 4.60226L12.2924 2.46658C12.2825 2.00161 13.1416 1.75063 13.6551 2.07008C15.4182 3.16693 18.4302 5.0418 20.1022 6.08852C20.7249 6.47842 20.734 7.11834 20.125 7.52965C18.4994 8.62752 15.5513 10.6104 13.8257 11.7706C13.3237 12.108 12.4558 11.8874 12.4494 11.4223L12.4202 9.30038L11.5934 9.31488C8.38401 9.37115 5.88407 10.9465 4.43023 12.2016C4.13514 12.4564 3.51205 12.3123 3.5065 11.9961C3.50489 11.9041 3.50357 11.829 3.50283 11.7866C3.44648 8.57242 7.443 4.68807 12.3378 4.60226Z"
        fill="#FF9600" />
</svg>
