<svg width="24" height="24" viewBox="0 0 24 24" fill="none" xmlns="http://www.w3.org/2000/svg">
<mask id="mask0_986_759" style="mask-type:alpha" maskUnits="userSpaceOnUse" x="0" y="0" width="24" height="24">
<rect width="24" height="24" fill="#D9D9D9"/>
</mask>
<g mask="url(#mask0_986_759)">
<rect x="4.9202" y="4.9202" width="14.16" height="14.16" rx="1.68" stroke="#1D1C23" stroke-width="1.44"/>
<path fill-rule="evenodd" clip-rule="evenodd" d="M8.16211 15.4797C8.16211 15.8774 8.48446 16.1997 8.88211 16.1997C9.27975 16.1997 9.60211 15.8774 9.60211 15.4797V12.8054C9.60211 12.4078 9.27975 12.0854 8.88211 12.0854C8.48446 12.0854 8.16211 12.4078 8.16211 12.8054V15.4797ZM11.2793 15.4797C11.2793 15.8774 11.6017 16.1997 11.9993 16.1997C12.3969 16.1997 12.7193 15.8774 12.7193 15.4797V11.2626C12.7193 10.8649 12.3969 10.5426 11.9993 10.5426C11.6017 10.5426 11.2793 10.8649 11.2793 11.2626V15.4797ZM15.1212 16.1997C14.7235 16.1997 14.4012 15.8774 14.4012 15.4797V9.71971C14.4012 9.32206 14.7235 8.99971 15.1212 8.99971C15.5188 8.99971 15.8412 9.32206 15.8412 9.71971V15.4797C15.8412 15.8774 15.5188 16.1997 15.1212 16.1997Z" fill="#1D1C23"/>
</g>
</svg>
