<svg width="16" height="16" viewBox="0 0 16 16" fill="none" xmlns="http://www.w3.org/2000/svg">
<g id="icon_h3">
<g id="Union">
<path d="M1.33464 2C0.966446 2 0.667969 2.29848 0.667969 2.66667V13.3333C0.667969 13.7015 0.966446 14 1.33464 14C1.70283 14 2.0013 13.7015 2.0013 13.3333V8.66667H8.0013V13.3333C8.0013 13.7015 8.29978 14 8.66797 14C9.03616 14 9.33463 13.7015 9.33463 13.3333V2.66667C9.33463 2.29848 9.03616 2 8.66797 2C8.29978 2 8.0013 2.29848 8.0013 2.66667V7.33333H2.0013V2.66667C2.0013 2.29848 1.70283 2 1.33464 2Z" fill="#060709" fill-opacity="0.8"/>
<path d="M15.3344 11.5305C15.3344 11.1903 15.2625 10.8656 15.1189 10.5563C14.9891 10.2904 14.7938 10.0589 14.5339 9.8606C14.7851 9.66268 14.9671 9.44025 15.078 9.19312C15.1908 8.90027 15.2459 8.6028 15.2459 8.29478C15.2386 7.68397 15.0282 7.15244 14.617 6.70462C14.1839 6.24184 13.6003 6.0073 12.8743 6C12.292 6.00738 11.7905 6.21538 11.3737 6.62112C11.1415 6.84531 10.8084 7.20713 10.8084 7.54377C10.8084 7.91196 11.1069 8.21044 11.4751 8.21044C11.7965 8.21044 11.9866 7.97621 12.1705 7.74945C12.1905 7.72483 12.2104 7.70029 12.2304 7.67615C12.2688 7.62975 12.3115 7.58792 12.3586 7.55294C12.5291 7.41969 12.7121 7.3552 12.9147 7.3552C13.2022 7.36142 13.4339 7.45132 13.6137 7.62505C13.7919 7.80331 13.8845 8.03253 13.8907 8.31852C13.8907 8.59643 13.8022 8.81854 13.6241 8.99056C13.4009 9.21376 13.1131 9.2487 12.8163 9.2487C12.4635 9.2487 12.1775 9.53472 12.1775 9.88754C12.1775 10.2404 12.4635 10.5264 12.8163 10.5264C12.836 10.5264 12.8555 10.5263 12.8747 10.5263C13.176 10.5253 13.4242 10.5245 13.6777 10.7619C13.8714 10.9466 13.9729 11.211 13.9793 11.5628C13.9729 11.9021 13.872 12.1589 13.6784 12.3374C13.481 12.5346 13.2459 12.6302 12.9615 12.6302C12.6943 12.6302 12.4867 12.5595 12.3322 12.4198L12.3269 12.415C12.2783 12.3701 12.2311 12.3231 12.1845 12.2767C12.1182 12.2107 12.0657 12.139 12.0152 12.0699C11.8867 11.8943 11.7712 11.7364 11.4751 11.7364C11.1069 11.7364 10.8084 12.0349 10.8084 12.4031C10.8084 12.7861 11.1709 13.1966 11.4446 13.4251C11.8679 13.7784 12.3452 13.9854 12.8938 13.9854C13.5988 13.9781 14.1807 13.7516 14.6332 13.3065C15.093 12.8725 15.3272 12.2769 15.3344 11.5305Z" fill="#060709" fill-opacity="0.8"/>
</g>
</g>
</svg>
