<svg width="24" height="24" viewBox="0 0 24 24" fill="none" xmlns="http://www.w3.org/2000/svg">
  <path
    d="M2.85352 15.2601C2.85352 17.7578 6.10594 19.7821 10.116 19.7821C14.126 19.7821 17.3785 17.7578 17.3785 15.2601C17.3785 12.7623 14.126 10.738 10.116 10.738C6.10594 10.738 2.85352 12.7623 2.85352 15.2601Z"
    fill="white" />
  <path
    d="M10.2869 19.4154C6.73556 19.7675 3.66958 18.1606 3.43874 15.8315C3.20791 13.4994 5.901 11.3272 9.44937 10.975C13.0007 10.6229 16.0667 12.2298 16.2946 14.5589C16.5284 16.891 13.8353 19.0661 10.2869 19.4154ZM17.3866 11.6764C17.0847 11.5847 16.8776 11.5255 17.0344 11.1289C17.3777 10.2677 17.4132 9.52491 17.0403 8.99221C16.3449 7.99784 14.439 8.05111 12.2549 8.96557C12.2549 8.96557 11.5683 9.26448 11.7459 8.7229C12.0803 7.6427 12.03 6.74007 11.5091 6.21625C10.3254 5.02952 7.17356 6.26064 4.47159 8.96262C2.45029 10.9839 1.27539 13.1295 1.27539 14.9851C1.27539 18.5305 5.82405 20.6879 10.2721 20.6879C16.1052 20.6879 19.985 17.2994 19.985 14.6092C19.9879 12.9815 18.6177 12.0582 17.3866 11.6764Z"
    fill="#E6162D" />
  <path
    d="M21.2616 5.18591C19.8529 3.62333 17.7754 3.02848 15.8577 3.43688C15.4138 3.53158 15.1326 3.96958 15.2273 4.41054C15.322 4.85445 15.7571 5.1356 16.201 5.0409C17.5653 4.75087 19.0421 5.17407 20.0423 6.28386C21.0426 7.39365 21.3149 8.90593 20.8858 10.2318C20.7467 10.6638 20.9834 11.1255 21.4155 11.2646C21.8476 11.4037 22.3093 11.1669 22.4484 10.7378V10.7349C23.0521 8.87338 22.6703 6.74554 21.2616 5.18591Z"
    fill="#FF9933" />
  <path
    d="M19.0969 7.13939C18.4104 6.37882 17.3982 6.08879 16.466 6.29003C16.0842 6.36994 15.8416 6.74875 15.9215 7.13052C16.0043 7.51228 16.3802 7.75496 16.759 7.67209C17.2147 7.57443 17.7119 7.71649 18.0463 8.08642C18.3808 8.45931 18.4725 8.96537 18.3275 9.40929C18.2091 9.77922 18.4104 10.1787 18.7832 10.3001C19.1561 10.4185 19.5527 10.2172 19.674 9.84432C19.967 8.93578 19.7835 7.89997 19.0969 7.13939Z"
    fill="#FF9933" />
  <path
    d="M10.4834 15.195C10.3591 15.4081 10.0839 15.5087 9.87079 15.4199C9.65771 15.3341 9.59261 15.0944 9.71394 14.8872C9.83824 14.68 10.1016 14.5794 10.3118 14.6623C10.5248 14.7392 10.6018 14.9789 10.4834 15.195ZM9.34993 16.6451C9.00664 17.1926 8.26974 17.4323 7.71632 17.1808C7.17178 16.9322 7.00901 16.2959 7.35231 15.7602C7.69265 15.2275 8.40291 14.9908 8.95337 15.2216C9.50974 15.4613 9.68731 16.0917 9.34993 16.6451ZM10.6402 12.7682C8.95041 12.3273 7.04157 13.1707 6.30763 14.6593C5.55889 16.1775 6.28395 17.8644 7.98859 18.4149C9.75834 18.986 11.8418 18.11 12.5668 16.4735C13.283 14.8695 12.3893 13.221 10.6402 12.7682Z"
    fill="black" />
</svg>
