<svg xmlns="http://www.w3.org/2000/svg" width="20" height="21" viewBox="0 0 20 21" fill="none">
<path d="M10.0026 19.6663C15.0652 19.6663 19.1693 15.5623 19.1693 10.4997C19.1693 5.43706 15.0652 1.33301 10.0026 1.33301C4.93999 1.33301 0.835938 5.43706 0.835938 10.4997C0.835938 15.5623 4.93999 19.6663 10.0026 19.6663Z" fill="#FF9600"/>
<path d="M9.9974 6.33301C9.53716 6.33301 9.16406 6.7061 9.16406 7.16634V11.333C9.16406 11.7932 9.53716 12.1663 9.9974 12.1663C10.4576 12.1663 10.8307 11.7932 10.8307 11.333V7.16634C10.8307 6.7061 10.4576 6.33301 9.9974 6.33301Z" fill="white"/>
<path d="M9.9974 14.6663C10.4576 14.6663 10.8307 14.2932 10.8307 13.833C10.8307 13.3728 10.4576 12.9997 9.9974 12.9997C9.53716 12.9997 9.16406 13.3728 9.16406 13.833C9.16406 14.2932 9.53716 14.6663 9.9974 14.6663Z" fill="white"/>
</svg>
