<svg xmlns="http://www.w3.org/2000/svg" width="24" height="24" viewBox="0 0 24 24" fill="none">
  <path d="M12.0938 23C18.1689 23 23.0938 18.0751 23.0938 12C23.0938 5.92487 18.1689 1 12.0938 1C6.01862 1 1.09375 5.92487 1.09375 12C1.09375 18.0751 6.01862 23 12.0938 23Z" fill="#FF441E"/>
  <path d="M12.0938 7C11.5415 7 11.0938 7.44772 11.0938 8V13C11.0938 13.5523 11.5415 14 12.0938 14C12.646 14 13.0938 13.5523 13.0938 13V8C13.0938 7.44772 12.646 7 12.0938 7Z" fill="white"/>
  <path d="M12.0938 17C12.646 17 13.0938 16.5523 13.0938 16C13.0938 15.4477 12.646 15 12.0938 15C11.5415 15 11.0938 15.4477 11.0938 16C11.0938 16.5523 11.5415 17 12.0938 17Z" fill="white"/>
</svg>
