<svg width="68" height="40" viewBox="0 0 68 40" fill="none" xmlns="http://www.w3.org/2000/svg">
<path d="M15.2662 25.7802C15.3726 25.9645 15.3316 26.1996 15.1621 26.3282C13.781 27.3763 12.0472 28.0001 10.1645 28.0001C5.65535 28.0001 2 24.4217 2 20.0074C2 15.5931 5.65535 12.0146 10.1645 12.0146C12.1161 12.0146 13.9079 12.6851 15.3125 13.8035C15.4761 13.9337 15.5137 14.1645 15.4091 14.3456L14.2149 16.4141C14.0562 16.6889 13.6638 16.7092 13.4449 16.4794C12.6019 15.5944 11.4432 15.0481 10.1645 15.0481C7.5866 15.0481 5.49683 17.2684 5.49682 20.0074C5.49682 22.7463 7.5866 24.9666 10.1645 24.9666C11.3851 24.9666 12.4962 24.4688 13.328 23.6539C13.5494 23.4369 13.9288 23.4636 14.0838 23.7321L15.2662 25.7802Z" fill="#00004B"/>
<path d="M36.5237 12.9757C36.5237 12.7343 36.7194 12.5386 36.9608 12.5386H49.1037C49.3452 12.5386 49.5409 12.7343 49.5409 12.9757V15.0051C49.5403 15.0051 49.5397 15.0053 49.5394 15.0057L40.6051 24.7072H49.0933C49.3347 24.7072 49.5304 24.9029 49.5304 25.1443V27.0801C49.5304 27.3215 49.3347 27.5172 49.0933 27.5172H36.6866C36.4452 27.5172 36.2495 27.3215 36.2495 27.0801V25.2369C36.2495 25.1272 36.2908 25.0215 36.3651 24.9408L45.1984 15.3485H36.9608C36.7194 15.3485 36.5237 15.1528 36.5237 14.9114V12.9757Z" fill="#00004B"/>
<path fill-rule="evenodd" clip-rule="evenodd" d="M25.7924 27.9855C30.3015 27.9855 33.9569 24.407 33.9569 19.9927C33.9569 15.5785 30.3015 12 25.7924 12C21.2833 12 17.6279 15.5785 17.6279 19.9927C17.6279 24.407 21.2833 27.9855 25.7924 27.9855ZM21.1252 19.9927C21.1252 22.7316 23.2149 24.952 25.7928 24.952C28.3707 24.952 30.4605 22.7316 30.4605 19.9927C30.4605 17.2538 28.3707 15.0334 25.7928 15.0334C23.2149 15.0334 21.1252 17.2538 21.1252 19.9927Z" fill="#00004B"/>
<path fill-rule="evenodd" clip-rule="evenodd" d="M51.8931 20.0506C51.8931 24.7733 55.312 27.9894 59.7449 27.9894C62.3794 27.9894 64.3011 26.9965 65.7246 25.4402C65.884 25.266 65.8629 24.9965 65.6863 24.8398L64.2504 23.5657C64.079 23.4135 63.8197 23.4209 63.6493 23.5742C62.5283 24.5829 61.3735 25.121 59.8029 25.121C57.5429 25.121 55.7755 23.7303 55.3989 21.2385H66.2385C66.4658 21.2385 66.654 21.0641 66.6712 20.8374C66.676 20.774 66.6794 20.7289 66.6794 20.7289C66.6986 20.5396 66.6986 20.3796 66.6986 20.2534C66.6986 15.8494 64.2359 12.0249 59.3683 12.0249C54.9933 12.0249 51.8931 15.6176 51.8931 19.9927V20.0506ZM55.4588 18.4109H63.1493C62.7802 16.4005 61.4798 14.8933 59.3393 14.8933C57.3522 14.8933 55.9126 16.3119 55.4588 18.4109Z" fill="#00004B"/>
</svg>
