<svg width="20" height="20" viewBox="0 0 20 20" fill="none" xmlns="http://www.w3.org/2000/svg">
<g id="icon_arrange_filled">
<path id="Union" fill-rule="evenodd" clip-rule="evenodd" d="M12.5 2.5C10.6591 2.5 9.16669 3.99238 9.16669 5.83333V9.16667H3.75002C3.28978 9.16667 2.91669 9.53976 2.91669 10C2.91669 10.4602 3.28978 10.8333 3.75002 10.8333H9.16669V14.1667C9.16669 16.0076 10.6591 17.5 12.5 17.5H15C15.4603 17.5 15.8334 17.1269 15.8334 16.6667C15.8334 16.2064 15.4603 15.8333 15 15.8333H12.5C11.5795 15.8333 10.8334 15.0871 10.8334 14.1667V10V5.83333C10.8334 4.91286 11.5795 4.16667 12.5 4.16667H15C15.4603 4.16667 15.8334 3.79357 15.8334 3.33333C15.8334 2.8731 15.4603 2.5 15 2.5H12.5Z" fill="#1D1C23" fill-opacity="0.8"/>
</g>
</svg>
