<svg width="17" height="16" viewBox="0 0 17 16" fill="none" xmlns="http://www.w3.org/2000/svg">
<path d="M1.83203 1.33317C1.83203 0.964981 2.13051 0.666504 2.4987 0.666504H11.5618C12.5175 0.666504 13.4341 1.03009 14.1099 1.67727C14.7857 2.32446 15.1654 3.20223 15.1654 4.11748V14.6665C15.1654 15.0347 14.8669 15.3332 14.4987 15.3332H5.43563C4.4799 15.3332 3.56331 14.9696 2.8875 14.3224C2.2117 13.6752 1.83203 12.7974 1.83203 11.8822V1.33317ZM4.9987 5.33317C4.9987 5.70136 5.29717 5.99984 5.66536 5.99984H11.332C11.7002 5.99984 11.9987 5.70136 11.9987 5.33317C11.9987 4.96498 11.7002 4.6665 11.332 4.6665H5.66536C5.29717 4.6665 4.9987 4.96498 4.9987 5.33317ZM4.9987 7.99984C4.9987 8.36803 5.29717 8.6665 5.66536 8.6665H11.332C11.7002 8.6665 11.9987 8.36803 11.9987 7.99984C11.9987 7.63165 11.7002 7.33317 11.332 7.33317H5.66536C5.29717 7.33317 4.9987 7.63165 4.9987 7.99984ZM5.66536 9.99984C5.29717 9.99984 4.9987 10.2983 4.9987 10.6665C4.9987 11.0347 5.29717 11.3332 5.66536 11.3332H8.66536C9.03355 11.3332 9.33203 11.0347 9.33203 10.6665C9.33203 10.2983 9.03355 9.99984 8.66536 9.99984H5.66536Z" fill="#747479" fill-opacity="0.6"/>
</svg>
