<svg width="24" height="24" viewBox="0 0 24 24" fill="none" xmlns="http://www.w3.org/2000/svg">
<path d="M9.5 15.75C9.83152 15.75 10.1495 15.8817 10.3839 16.1161C10.6183 16.3505 10.75 16.6685 10.75 17C10.75 17.3315 10.6183 17.6495 10.3839 17.8839C10.1495 18.1183 9.83152 18.25 9.5 18.25C9.16848 18.25 8.85054 18.1183 8.61612 17.8839C8.3817 17.6495 8.25 17.3315 8.25 17C8.25 16.6685 8.3817 16.3505 8.61612 16.1161C8.85054 15.8817 9.16848 15.75 9.5 15.75ZM14.5 15.75C14.8315 15.75 15.1495 15.8817 15.3839 16.1161C15.6183 16.3505 15.75 16.6685 15.75 17C15.75 17.3315 15.6183 17.6495 15.3839 17.8839C15.1495 18.1183 14.8315 18.25 14.5 18.25C14.1685 18.25 13.8505 18.1183 13.6161 17.8839C13.3817 17.6495 13.25 17.3315 13.25 17C13.25 16.6685 13.3817 16.3505 13.6161 16.1161C13.8505 15.8817 14.1685 15.75 14.5 15.75ZM9.5 10.75C9.83152 10.75 10.1495 10.8817 10.3839 11.1161C10.6183 11.3505 10.75 11.6685 10.75 12C10.75 12.3315 10.6183 12.6495 10.3839 12.8839C10.1495 13.1183 9.83152 13.25 9.5 13.25C9.16848 13.25 8.85054 13.1183 8.61612 12.8839C8.3817 12.6495 8.25 12.3315 8.25 12C8.25 11.6685 8.3817 11.3505 8.61612 11.1161C8.85054 10.8817 9.16848 10.75 9.5 10.75ZM14.5 10.75C14.8315 10.75 15.1495 10.8817 15.3839 11.1161C15.6183 11.3505 15.75 11.6685 15.75 12C15.75 12.3315 15.6183 12.6495 15.3839 12.8839C15.1495 13.1183 14.8315 13.25 14.5 13.25C14.1685 13.25 13.8505 13.1183 13.6161 12.8839C13.3817 12.6495 13.25 12.3315 13.25 12C13.25 11.6685 13.3817 11.3505 13.6161 11.1161C13.8505 10.8817 14.1685 10.75 14.5 10.75ZM9.5 5.75C9.83152 5.75 10.1495 5.8817 10.3839 6.11612C10.6183 6.35054 10.75 6.66848 10.75 7C10.75 7.33152 10.6183 7.64946 10.3839 7.88388C10.1495 8.1183 9.83152 8.25 9.5 8.25C9.16848 8.25 8.85054 8.1183 8.61612 7.88388C8.3817 7.64946 8.25 7.33152 8.25 7C8.25 6.66848 8.3817 6.35054 8.61612 6.11612C8.85054 5.8817 9.16848 5.75 9.5 5.75ZM14.5 5.75C14.8315 5.75 15.1495 5.8817 15.3839 6.11612C15.6183 6.35054 15.75 6.66848 15.75 7C15.75 7.33152 15.6183 7.64946 15.3839 7.88388C15.1495 8.1183 14.8315 8.25 14.5 8.25C14.1685 8.25 13.8505 8.1183 13.6161 7.88388C13.3817 7.64946 13.25 7.33152 13.25 7C13.25 6.66848 13.3817 6.35054 13.6161 6.11612C13.8505 5.8817 14.1685 5.75 14.5 5.75Z" fill="black"/>
</svg>
