<svg width="14" height="14" viewBox="0 0 24 24" fill="none" xmlns="http://www.w3.org/2000/svg">
<path d="M3.99805 2.00098C2.89805 2.00098 1.99805 2.90098 1.99805 4.00098V9.00098C1.99805 10.101 2.89805 11.001 3.99805 11.001H8.99805C10.098 11.001 10.998 10.101 10.998 9.00098V4.00098C10.998 2.90098 10.098 2.00098 8.99805 2.00098H3.99805Z" fill="currentColor"/>
<path d="M12.998 4.00098C12.998 2.90098 13.898 2.00098 14.998 2.00098H19.998C21.098 2.00098 21.998 2.90098 21.998 4.00098V9.00098C21.998 10.101 21.098 11.001 19.998 11.001H14.998C13.898 11.001 12.998 10.101 12.998 9.00098V4.00098Z" fill="currentColor"/>
<path d="M12.998 15.001C12.998 13.901 13.898 13.001 14.998 13.001H19.998C21.098 13.001 21.998 13.901 21.998 15.001V20.001C21.998 21.101 21.098 22.001 19.998 22.001H14.998C13.898 22.001 12.998 21.101 12.998 20.001V15.001Z" fill="currentColor"/>
<path d="M1.99805 15.001C1.99805 13.901 2.89805 13.001 3.99805 13.001H8.99805C10.098 13.001 10.998 13.901 10.998 15.001V20.001C10.998 21.101 10.098 22.001 8.99805 22.001H3.99805C2.89805 22.001 1.99805 21.101 1.99805 20.001V15.001Z" fill="currentColor"/>
</svg>
