<svg xmlns="http://www.w3.org/2000/svg" width="1em" height="1em" viewBox="0 0 24 24" fill="currentColor">
  <path
    d="M13.283 1.19388C12.4891 0.735504 11.511 0.735504 10.717 1.19388L3.28301 5.48592C3.14609 5.56497 3.01823 5.65558 2.90039 5.75612L11.9967 11.1721L21.0995 5.75596C20.9817 5.65549 20.8539 5.56493 20.7171 5.48592L13.283 1.19388Z"
    fill="currentColor" />
  <path
    d="M21.9952 7.55025L12.9965 12.9045V22.9489C13.0942 22.9078 13.1899 22.8603 13.283 22.8065L20.7171 18.5145C21.511 18.0561 22.0001 17.209 22.0001 16.2922V7.70815C22.0001 7.65526 21.9985 7.60261 21.9952 7.55025Z"
    fill="currentColor" />
  <path
    d="M10.9965 22.946V12.9043L2.00483 7.55056C2.00162 7.60282 2 7.65537 2 7.70815V16.2922C2 17.209 2.48908 18.0561 3.283 18.5145L10.717 22.8065C10.808 22.859 10.9013 22.9055 10.9965 22.946Z"
    fill="currentColor" />
</svg>
