<svg width="16" height="16" viewBox="0 0 16 16" fill="currentColor" xmlns="http://www.w3.org/2000/svg">
  <path
    d="M6.20687 9.12202C6.20687 9.49021 5.90839 9.78868 5.5402 9.78868C5.17201 9.78868 4.87354 9.49021 4.87354 9.12202C4.87354 8.75383 5.17201 8.45535 5.5402 8.45535C5.90839 8.45535 6.20687 8.75383 6.20687 9.12202Z" />
  <path
    d="M7.37972 8.45532C7.24165 8.45532 7.12972 8.56725 7.12972 8.70532V9.53866C7.12972 9.67673 7.24165 9.78866 7.37972 9.78866H10.1654C10.3035 9.78866 10.4154 9.67673 10.4154 9.53866V8.70532C10.4154 8.56725 10.3035 8.45532 10.1654 8.45532L7.37972 8.45532Z" />
  <path
    d="M6.20687 6.53105C6.20687 6.89924 5.90839 7.19771 5.5402 7.19771C5.17201 7.19771 4.87354 6.89924 4.87354 6.53105C4.87354 6.16286 5.17201 5.86438 5.5402 5.86438C5.90839 5.86438 6.20687 6.16286 6.20687 6.53105Z" />
  <path
    d="M7.37972 5.86438C7.24165 5.86438 7.12972 5.97631 7.12972 6.11438V6.94771C7.12972 7.08578 7.24165 7.19771 7.37972 7.19771H10.8763C11.0143 7.19771 11.1263 7.08578 11.1263 6.94771V6.11438C11.1263 5.97631 11.0143 5.86438 10.8763 5.86438H7.37972Z" />
  <path fill-rule="evenodd" clip-rule="evenodd"
    d="M12.6667 2.66671H3.33333L3.33333 13.3334H12.6667V2.66671ZM3.33333 1.33337C2.59695 1.33337 2 1.93033 2 2.66671V13.3334C2 14.0698 2.59695 14.6667 3.33333 14.6667H12.6667C13.403 14.6667 14 14.0698 14 13.3334V2.66671C14 1.93033 13.403 1.33337 12.6667 1.33337H3.33333Z" />
</svg>
