<svg width="16" height="16" viewBox="0 0 16 16" fill="none" xmlns="http://www.w3.org/2000/svg">
<path d="M0 6.4C0 4.15979 0 3.03969 0.435974 2.18404C0.819467 1.43139 1.43139 0.819467 2.18404 0.435974C3.03969 0 4.15979 0 6.4 0H9.6C11.8402 0 12.9603 0 13.816 0.435974C14.5686 0.819467 15.1805 1.43139 15.564 2.18404C16 3.03969 16 4.15979 16 6.4V9.6C16 11.8402 16 12.9603 15.564 13.816C15.1805 14.5686 14.5686 15.1805 13.816 15.564C12.9603 16 11.8402 16 9.6 16H6.4C4.15979 16 3.03969 16 2.18404 15.564C1.43139 15.1805 0.819467 14.5686 0.435974 13.816C0 12.9603 0 11.8402 0 9.6V6.4Z" fill="#BAC0FF" fill-opacity="0.2"/>
<path d="M5.16184 3.08268C5.18424 3.04945 5.21672 3.02427 5.2545 3.01084C5.29228 2.99741 5.33338 2.99643 5.37175 3.00806C5.41013 3.01969 5.44376 3.0433 5.46772 3.07544C5.49167 3.10758 5.50468 3.14654 5.50484 3.18661V12.8126C5.50484 12.8623 5.48509 12.91 5.44993 12.9451C5.41476 12.9803 5.36707 13 5.31734 13H4.69235C4.64271 13 4.59509 12.9803 4.55994 12.9453C4.5248 12.9103 4.50498 12.8627 4.50485 12.8131V6.07043H3.22484C3.20416 6.07044 3.18387 6.06475 3.16621 6.05398C3.14855 6.04321 3.13421 6.02779 3.12475 6.00941C3.11529 5.99102 3.11109 5.97039 3.11261 5.94977C3.11412 5.92916 3.1213 5.90936 3.13334 5.89256L5.12084 3.13415C5.12865 3.1233 5.13753 3.11325 5.14734 3.10417L5.16184 3.08268ZM6.69234 4.6738C6.64261 4.6738 6.59492 4.69354 6.55976 4.72868C6.52459 4.76381 6.50484 4.81147 6.50484 4.86116V5.48568C6.50484 5.58911 6.58884 5.67304 6.69234 5.67304H10.3173C10.3671 5.67304 10.4148 5.6533 10.4499 5.61817C10.4851 5.58303 10.5048 5.53537 10.5048 5.48568V4.86116C10.5048 4.81147 10.4851 4.76381 10.4499 4.72868C10.4148 4.69354 10.3671 4.6738 10.3173 4.6738H6.69234ZM6.50484 8.02527C6.50484 7.92185 6.58884 7.83791 6.69234 7.83791H11.6175C11.721 7.83791 11.805 7.92185 11.805 8.02527V8.64979C11.805 8.69948 11.7852 8.74714 11.7501 8.78227C11.7149 8.81741 11.6672 8.83715 11.6175 8.83715H6.69234C6.64261 8.83715 6.59492 8.81741 6.55976 8.78227C6.52459 8.74714 6.50484 8.69948 6.50484 8.64979V8.02527ZM6.69234 11.002C6.64261 11.002 6.59492 11.0218 6.55976 11.0569C6.52459 11.092 6.50484 11.1397 6.50484 11.1894V11.8139C6.50484 11.9173 6.58884 12.0013 6.69234 12.0013L12.8126 12.0013C12.8623 12.0013 12.91 11.9815 12.9452 11.9464C12.9803 11.9112 13.0001 11.8636 13.0001 11.8139V11.1894C13.0001 11.1397 12.9803 11.092 12.9452 11.0569C12.91 11.0218 12.8623 11.002 12.8126 11.002L6.69234 11.002Z" fill="#4E40E5"/>
</svg>
