<svg width="68" height="40" viewBox="0 0 68 40" fill="currentColor" xmlns="http://www.w3.org/2000/svg">
    <path d="M7.84597 9.67965H4.61274V12.6661H2.11979V15.6653H4.61906V20.3728H2.11979V23.3719H4.61906V26.6178C4.61906 26.8519 4.42925 27.0417 4.19514 27.0417H2.01855V30.2686H4.19514C6.20721 30.2686 7.8523 28.6298 7.8523 26.6178V21.2269H10.3452V18.2278H7.8523V15.6716H10.3452V12.6725H7.8523V9.68598L7.84597 9.67965Z" />
    <path d="M20.5765 9.57861H14.8567C12.9521 9.57861 11.402 11.1288 11.402 13.027V26.7951C11.402 28.6996 12.9521 30.2435 14.8567 30.2435H20.5765C22.481 30.2435 24.0312 28.6933 24.0312 26.7951V13.027C24.0312 11.1225 22.481 9.57861 20.5765 9.57861ZM20.798 26.7951C20.798 26.9217 20.6967 27.0166 20.5765 27.0166H14.8567C14.7301 27.0166 14.6352 26.9154 14.6352 26.7951V13.027C14.6352 12.9004 14.7364 12.8055 14.8567 12.8055H20.5765C20.7031 12.8055 20.798 12.9068 20.798 13.027V26.7951Z" />
    <path d="M41.1148 17.9934L45.2465 12.7418L45.2212 9.84388H29.5802V13.0708H40.8807L37.0084 17.9934H27.4669V21.2203H36.8629V26.5985C36.8629 26.8326 36.6731 27.0224 36.439 27.0224H31.7631V30.2494H36.439C38.4574 30.2494 40.0961 28.6106 40.0961 26.5985V21.2203H48.3659V17.9934H41.1148Z" />
</svg>
