<svg xmlns="http://www.w3.org/2000/svg" width="22" height="22" viewBox="0 0 22 22" fill="none">
    <path
        d="M11.0001 21.0837C5.43133 21.0837 0.916748 16.5691 0.916748 11.0003C0.916748 5.43157 5.43133 0.916992 11.0001 0.916992C16.5688 0.916992 21.0834 5.43157 21.0834 11.0003C21.0834 16.5691 16.5688 21.0837 11.0001 21.0837Z"
        fill="#F54A45" />
    <path
        d="M7.11101 7.11126C6.75303 7.46924 6.75303 8.04964 7.11101 8.40762L9.70374 11.0003L7.11101 13.5931C6.75303 13.9511 6.75303 14.5315 7.11101 14.8894C7.469 15.2474 8.0494 15.2474 8.40738 14.8894L11.0001 12.2967L13.5928 14.8894C13.9508 15.2474 14.5312 15.2474 14.8892 14.8894C15.2472 14.5315 15.2472 13.9511 14.8892 13.5931L12.2965 11.0003L14.8892 8.40762C15.2472 8.04964 15.2472 7.46924 14.8892 7.11126C14.5312 6.75328 13.9508 6.75328 13.5928 7.11126L11.0001 9.70398L8.40738 7.11126C8.0494 6.75328 7.469 6.75328 7.11101 7.11126Z"
        fill="white" />
</svg>
