<svg xmlns="http://www.w3.org/2000/svg" width="72" height="72" viewBox="0 0 72 72" fill="none">
    <rect width="72" height="72" rx="8" fill="#0B0C17"/>
    <path d="M30.4692 29.8908V27.6469C29.7117 27.5432 28.9435 27.4777 28.1564 27.4777C18.6958 27.4777 11 35.2985 11 44.9127C11 50.8118 13.901 56.0311 18.3251 59.1867C15.4698 56.0721 13.7184 51.8982 13.7184 47.3149C13.7184 37.8399 21.1966 30.1119 30.4692 29.8908Z" fill="#00FAF0"/>
    <path d="M30.8749 55.2777C35.0949 55.2777 38.5385 51.8654 38.6943 47.6152L38.7104 9.65493H45.5332C45.3909 8.87422 45.313 8.07166 45.313 7.25H35.992L35.9759 45.2103C35.8201 49.4605 32.3765 52.8727 28.1565 52.8727C26.8457 52.8727 25.6101 52.5397 24.5222 51.9583C25.9458 53.9646 28.2586 55.2777 30.8722 55.2777H30.8749Z" fill="#00FAF0"/>
    <path d="M58.2816 22.5368C55.4907 21.928 53.0302 20.4048 51.2197 18.2919C53.2531 19.6405 55.6787 20.4266 58.2816 20.4266V22.5368Z" fill="#00FAF0"/>
    <path d="M51.2197 18.2947C49.2374 15.9798 48.0313 12.958 48.0313 9.65494L45.5332 9.65493C46.1913 13.2637 48.2972 16.3593 51.2197 18.2947Z" fill="#FF0050"/>
    <path d="M28.1565 36.9499C23.8372 36.9499 20.321 40.5232 20.321 44.9127C20.321 47.97 22.0267 50.6261 24.5221 51.961C23.5927 50.6534 23.0394 49.051 23.0394 47.3176C23.0394 42.9281 26.5556 39.3549 30.8749 39.3549C31.6807 39.3549 32.4543 39.4913 33.1877 39.7234V30.0545C32.4302 29.9508 31.6619 29.8853 30.8749 29.8853C30.7379 29.8853 30.6063 29.8935 30.4693 29.8962V37.3212C29.7386 37.0891 28.965 36.9527 28.1565 36.9527V36.9499Z" fill="#FF0050"/>
    <path d="M58.2816 22.5368L58.2843 22.5368C59.16 22.7251 60.0679 22.8288 61 22.8288V32.3012C56.1649 32.3012 51.6871 30.7315 48.0313 28.0645V47.3149C48.0313 56.9292 40.3355 64.75 30.8748 64.75C25.9243 64.75 21.4599 62.6071 18.3251 59.1867C21.1107 61.1767 24.5006 62.3478 28.1565 62.3478C37.6171 62.3478 45.3129 54.527 45.3129 44.9127V25.6623C48.9687 28.3266 53.4492 29.899 58.2816 29.899L58.2816 22.5368Z" fill="#FF0050"/>
    <path d="M45.3129 44.9127V25.6623C48.9687 28.3293 53.4466 29.899 58.2816 29.899L58.2816 22.5368C55.4907 21.9307 53.0302 20.4048 51.2197 18.2919C48.2999 16.3565 46.1913 13.261 45.5332 9.65222H38.7104L38.6943 47.6125C38.6164 49.739 37.7165 51.6525 36.309 53.0393C34.9015 54.4233 32.9862 55.2777 30.8749 55.2777C28.2613 55.2777 25.9485 53.9647 24.5249 51.9583C22.0321 50.6234 20.3237 47.9674 20.3237 44.91C20.3237 40.5205 23.8399 36.9472 28.1592 36.9472C28.9651 36.9472 29.7387 37.0837 30.472 37.3158V29.8908C21.1994 30.1119 13.7212 37.8399 13.7212 47.3149C13.7212 51.8982 15.4725 56.0721 18.3279 59.1867C21.1135 61.174 24.5034 62.3478 28.1592 62.3478C37.6198 62.3478 45.3157 54.527 45.3157 44.9127L45.3129 44.9127Z" fill="white"/>
</svg>
