<svg width="16" height="16" viewBox="0 0 16 16" fill="none" xmlns="http://www.w3.org/2000/svg">
  <path
    d="M13.835 4.5C13.835 5.10464 13.3697 5.80311 12.2809 6.38936C11.2192 6.96103 9.7069 7.335 8 7.335C6.2931 7.335 4.78075 6.96103 3.71908 6.38936C2.63032 5.80311 2.165 5.10464 2.165 4.5C2.165 3.89536 2.63032 3.19689 3.71908 2.61064C4.78075 2.03897 6.2931 1.665 8 1.665C9.7069 1.665 11.2192 2.03897 12.2809 2.61064C13.3697 3.19689 13.835 3.89536 13.835 4.5Z"
    stroke="currentColor" stroke-width="1.33" />
  <path fill-rule="evenodd" clip-rule="evenodd"
    d="M14.4342 6.5C13.9836 8.19615 11.2746 9.5 8 9.5C4.72542 9.5 2.0164 8.19615 1.56583 6.5H1.5V7.5C1.5 9.433 4.41015 11 8 11C11.5899 11 14.5 9.433 14.5 7.5V6.5H14.4342Z"
    fill="currentColor" />
  <path fill-rule="evenodd" clip-rule="evenodd"
    d="M14.4342 9.5C13.9836 11.1961 11.2746 12.5 8 12.5C4.72542 12.5 2.0164 11.1961 1.56583 9.5H1.5V10.5C1.5 12.433 4.41015 14 8 14C11.5899 14 14.5 12.433 14.5 10.5V9.5H14.4342Z"
    fill="currentColor" />
</svg>
