<svg width="14" height="14" viewBox="0 0 14 14" fill="currentColor" xmlns="http://www.w3.org/2000/svg">
  <g id="icon_link">
    <g id="Union">
      <path
        d="M10.9961 1.5743C9.69883 0.576401 7.83624 0.830907 6.85424 2.14024L5.23401 4.30054C4.30917 5.53367 4.55908 7.28306 5.79221 8.20791L6.35943 8.63332C6.61716 8.82662 6.98279 8.77439 7.17609 8.51666C7.36939 8.25892 7.31716 7.89329 7.05943 7.69999L6.49221 7.27458C5.77454 6.73633 5.6291 5.71821 6.16735 5.00054L7.78757 2.84024C8.37964 2.05082 9.50262 1.89738 10.2848 2.49903C11.0707 3.10357 11.2074 4.23544 10.588 5.0097L9.75392 6.05225C9.55266 6.30382 9.59345 6.67091 9.84502 6.87216C10.0966 7.07342 10.4637 7.03263 10.6649 6.78106L11.499 5.73851C12.5263 4.45433 12.2996 2.577 10.9961 1.5743Z" />
      <path
        d="M3.00621 12.4257C4.30348 13.4236 6.16607 13.1691 7.14807 11.8597L8.7683 9.69944C9.69314 8.4663 9.44323 6.71691 8.2101 5.79206L7.64288 5.36665C7.38515 5.17335 7.01952 5.22559 6.82622 5.48332C6.63292 5.74105 6.68515 6.10669 6.94288 6.29999L7.5101 6.7254C8.22777 7.26365 8.37321 8.28177 7.83496 8.99944L6.21474 11.1597C5.62267 11.9492 4.49969 12.1026 3.71754 11.5009C2.93163 10.8964 2.79494 9.76453 3.41435 8.99027L4.24839 7.94772C4.44965 7.69615 4.40886 7.32907 4.15729 7.12781C3.90572 6.92656 3.53863 6.96734 3.33738 7.21891L2.50334 8.26146C1.47599 9.54565 1.7027 11.423 3.00621 12.4257Z" />
    </g>
  </g>
</svg>
