<svg width="94" height="11" viewBox="0 0 94 11" fill="none" xmlns="http://www.w3.org/2000/svg">
<path d="M3.74605 4.42L5.30605 0.688H6.86605L5.90605 4.42H3.74605ZM0.626055 4.42L2.18605 0.688H3.74605L2.78605 4.42H0.626055ZM7.90537 10V1.24H9.93337L10.7374 4C10.8254 4.288 10.8894 4.54 10.9294 4.756C10.9774 4.972 11.0054 5.124 11.0134 5.212C11.0214 5.124 11.0454 4.972 11.0854 4.756C11.1334 4.54 11.1974 4.288 11.2774 4L12.0694 1.24H14.0974V10H12.4534V7.6C12.4534 7.16 12.4614 6.7 12.4774 6.22C12.5014 5.732 12.5294 5.248 12.5614 4.768C12.5934 4.288 12.6294 3.84 12.6694 3.424C12.7094 3 12.7454 2.632 12.7774 2.32L11.7694 6.28H10.2454L9.18937 2.32C9.22937 2.616 9.26937 2.972 9.30937 3.388C9.34937 3.796 9.38537 4.24 9.41737 4.72C9.45737 5.192 9.48937 5.676 9.51337 6.172C9.53737 6.668 9.54937 7.144 9.54937 7.6V10H7.90537ZM18.1967 10.12C17.6127 10.12 17.1047 10.012 16.6727 9.796C16.2407 9.572 15.9047 9.264 15.6647 8.872C15.4327 8.472 15.3167 8.008 15.3167 7.48V5.92C15.3167 5.392 15.4327 4.932 15.6647 4.54C15.9047 4.14 16.2407 3.832 16.6727 3.616C17.1047 3.392 17.6127 3.28 18.1967 3.28C18.7887 3.28 19.2967 3.392 19.7207 3.616C20.1527 3.832 20.4847 4.14 20.7167 4.54C20.9567 4.932 21.0767 5.392 21.0767 5.92V7.48C21.0767 8.008 20.9567 8.472 20.7167 8.872C20.4847 9.264 20.1527 9.572 19.7207 9.796C19.2967 10.012 18.7887 10.12 18.1967 10.12ZM18.1967 8.56C18.5487 8.56 18.8167 8.468 19.0007 8.284C19.1847 8.092 19.2767 7.824 19.2767 7.48V5.92C19.2767 5.568 19.1847 5.3 19.0007 5.116C18.8167 4.932 18.5487 4.84 18.1967 4.84C17.8527 4.84 17.5847 4.932 17.3927 5.116C17.2087 5.3 17.1167 5.568 17.1167 5.92V7.48C17.1167 7.824 17.2087 8.092 17.3927 8.284C17.5847 8.468 17.8527 8.56 18.1967 8.56ZM24.708 10.12C24.044 10.12 23.512 9.888 23.112 9.424C22.712 8.96 22.512 8.332 22.512 7.54V5.86C22.512 5.076 22.712 4.452 23.112 3.988C23.512 3.516 24.044 3.28 24.708 3.28C25.252 3.28 25.68 3.44 25.992 3.76C26.304 4.072 26.46 4.512 26.46 5.08L26.04 4.66H26.46L26.4 3.04V1.24H28.2V10H26.46V8.74H26.04L26.46 8.32C26.46 8.888 26.304 9.332 25.992 9.652C25.68 9.964 25.252 10.12 24.708 10.12ZM25.356 8.56C25.684 8.56 25.94 8.468 26.124 8.284C26.308 8.092 26.4 7.824 26.4 7.48V5.92C26.4 5.576 26.308 5.312 26.124 5.128C25.94 4.936 25.684 4.84 25.356 4.84C25.02 4.84 24.76 4.936 24.576 5.128C24.4 5.312 24.312 5.576 24.312 5.92V7.48C24.312 7.824 24.4 8.092 24.576 8.284C24.76 8.468 25.02 8.56 25.356 8.56ZM32.5993 10.12C32.0153 10.12 31.5033 10.012 31.0633 9.796C30.6313 9.572 30.2953 9.264 30.0553 8.872C29.8233 8.472 29.7073 8.008 29.7073 7.48V5.92C29.7073 5.392 29.8233 4.932 30.0553 4.54C30.2953 4.14 30.6313 3.832 31.0633 3.616C31.5033 3.392 32.0153 3.28 32.5993 3.28C33.1833 3.28 33.6873 3.392 34.1113 3.616C34.5433 3.832 34.8753 4.14 35.1073 4.54C35.3473 4.932 35.4673 5.392 35.4673 5.92V7.12H31.4233V7.48C31.4233 7.896 31.5233 8.212 31.7233 8.428C31.9233 8.636 32.2233 8.74 32.6233 8.74C32.9033 8.74 33.1273 8.692 33.2953 8.596C33.4713 8.5 33.5873 8.368 33.6433 8.2H35.4073C35.2633 8.776 34.9353 9.24 34.4233 9.592C33.9193 9.944 33.3113 10.12 32.5993 10.12ZM33.7513 6.196V5.896C33.7513 5.488 33.6553 5.176 33.4633 4.96C33.2793 4.744 32.9913 4.636 32.5993 4.636C32.2073 4.636 31.9113 4.748 31.7113 4.972C31.5193 5.196 31.4233 5.512 31.4233 5.92V6.1L33.8713 6.076L33.7513 6.196ZM40.8626 10C40.3986 10 39.9906 9.904 39.6386 9.712C39.2866 9.512 39.0106 9.236 38.8106 8.884C38.6186 8.532 38.5226 8.124 38.5226 7.66V2.86H36.4826V1.24H40.3226V7.66C40.3226 7.876 40.3866 8.052 40.5146 8.188C40.6506 8.316 40.8266 8.38 41.0426 8.38H42.9626V10H40.8626ZM50.8732 10L53.0212 1.24H55.3012L57.4732 10H55.6372L55.2172 8.02H53.1292L52.7092 10H50.8732ZM53.4292 6.58H54.9052L54.4852 4.468C54.4292 4.164 54.3692 3.864 54.3052 3.568C54.2492 3.264 54.2052 3.028 54.1732 2.86C54.1412 3.028 54.0972 3.26 54.0412 3.556C53.9932 3.852 53.9372 4.152 53.8732 4.456L53.4292 6.58ZM58.7526 10V3.4H60.4326V4.66H60.8886L60.3726 5.428C60.3726 4.716 60.5366 4.18 60.8646 3.82C61.1926 3.46 61.6726 3.28 62.3046 3.28C63.0326 3.28 63.5966 3.5 63.9966 3.94C64.4046 4.38 64.6086 5 64.6086 5.8V6.34H62.6886V5.92C62.6886 5.56 62.5886 5.28 62.3886 5.08C62.1966 4.88 61.9366 4.78 61.6086 4.78C61.2646 4.78 61.0006 4.88 60.8166 5.08C60.6406 5.28 60.5526 5.56 60.5526 5.92V10H58.7526ZM68.5759 10.12C67.9919 10.12 67.4799 10.012 67.0399 9.796C66.6079 9.572 66.2719 9.264 66.0319 8.872C65.7999 8.472 65.6839 8.008 65.6839 7.48V5.92C65.6839 5.392 65.7999 4.932 66.0319 4.54C66.2719 4.14 66.6079 3.832 67.0399 3.616C67.4799 3.392 67.9919 3.28 68.5759 3.28C69.1599 3.28 69.6639 3.392 70.0879 3.616C70.5199 3.832 70.8519 4.14 71.0839 4.54C71.3239 4.932 71.4439 5.392 71.4439 5.92V7.12H67.3999V7.48C67.3999 7.896 67.4999 8.212 67.6999 8.428C67.8999 8.636 68.1999 8.74 68.5999 8.74C68.8799 8.74 69.1039 8.692 69.2719 8.596C69.4479 8.5 69.5639 8.368 69.6199 8.2H71.3839C71.2399 8.776 70.9119 9.24 70.3999 9.592C69.8959 9.944 69.2879 10.12 68.5759 10.12ZM69.7279 6.196V5.896C69.7279 5.488 69.6319 5.176 69.4399 4.96C69.2559 4.744 68.9679 4.636 68.5759 4.636C68.1839 4.636 67.8879 4.748 67.6879 4.972C67.4959 5.196 67.3999 5.512 67.3999 5.92V6.1L69.8479 6.076L69.7279 6.196ZM72.9512 10V3.4H74.6912V4.66H75.2192L74.6912 5.08C74.6912 4.52 74.8512 4.08 75.1712 3.76C75.4912 3.44 75.9232 3.28 76.4672 3.28C77.1072 3.28 77.6192 3.504 78.0032 3.952C78.3952 4.4 78.5912 4.996 78.5912 5.74V10H76.7912V5.92C76.7912 5.576 76.6992 5.312 76.5152 5.128C76.3392 4.936 76.0872 4.84 75.7592 4.84C75.4392 4.84 75.1912 4.936 75.0152 5.128C74.8392 5.312 74.7512 5.576 74.7512 5.92V10H72.9512ZM82.1025 10.12C81.4385 10.12 80.9105 9.94 80.5185 9.58C80.1345 9.22 79.9425 8.732 79.9425 8.116C79.9425 7.452 80.1705 6.944 80.6265 6.592C81.0905 6.232 81.7545 6.052 82.6185 6.052H83.9865V5.56C83.9865 5.304 83.8945 5.1 83.7105 4.948C83.5345 4.796 83.2945 4.72 82.9905 4.72C82.7105 4.72 82.4785 4.784 82.2945 4.912C82.1105 5.04 81.9985 5.216 81.9585 5.44H80.2185C80.2905 4.776 80.5785 4.252 81.0825 3.868C81.5945 3.476 82.2505 3.28 83.0505 3.28C83.8905 3.28 84.5545 3.488 85.0425 3.904C85.5385 4.312 85.7865 4.864 85.7865 5.56V10H84.0465V8.92H83.7585L84.0585 8.5C84.0585 8.996 83.8785 9.392 83.5185 9.688C83.1665 9.976 82.6945 10.12 82.1025 10.12ZM82.7745 8.8C83.1265 8.8 83.4145 8.708 83.6385 8.524C83.8705 8.332 83.9865 8.084 83.9865 7.78V7.072H82.6545C82.3825 7.072 82.1625 7.152 81.9945 7.312C81.8265 7.464 81.7425 7.668 81.7425 7.924C81.7425 8.196 81.8345 8.412 82.0185 8.572C82.2025 8.724 82.4545 8.8 82.7745 8.8ZM90.2098 4.42L91.1698 0.688H93.3298L91.7698 4.42H90.2098ZM87.0898 4.42L88.0498 0.688H90.2098L88.6498 4.42H87.0898Z" fill="#A6A6FF"/>
</svg>
