<svg xmlns="http://www.w3.org/2000/svg" width="16" height="16" viewBox="0 0 16 16" fill="none">
    <path
        d="M12.6667 2.0013H3.33333V14.0013H6.66667V15.3346H3.33333C2.59695 15.3346 2 14.7377 2 14.0013V2.0013C2 1.26492 2.59695 0.667969 3.33333 0.667969H12.6667C13.403 0.667969 14 1.26492 14 2.0013V6.66797H12.6667V2.0013Z"
        fill="#1D1C23" fill-opacity="0.6" />
    <path
        d="M14.6667 11.3346C14.6667 12.1092 14.4025 12.8221 13.9593 13.388L15.0828 14.6805C15.3244 14.9584 15.2949 15.3795 15.0171 15.621C14.7392 15.8626 14.3181 15.8331 14.0765 15.5553L12.9447 14.2533C12.4671 14.5175 11.9178 14.668 11.3333 14.668C9.49238 14.668 8 13.1756 8 11.3346C8 9.49369 9.49238 8.0013 11.3333 8.0013C13.1743 8.0013 14.6667 9.49369 14.6667 11.3346ZM13.3333 11.3346C13.3333 10.2301 12.4379 9.33463 11.3333 9.33463C10.2288 9.33463 9.33333 10.2301 9.33333 11.3346C9.33333 12.4392 10.2288 13.3346 11.3333 13.3346C12.4379 13.3346 13.3333 12.4392 13.3333 11.3346Z"
        fill="#1D1C23" fill-opacity="0.6" />
    <path
        d="M4.66667 5.33464C4.66667 4.96645 4.96514 4.66797 5.33333 4.66797H10.6667C11.0349 4.66797 11.3333 4.96645 11.3333 5.33464C11.3333 5.70282 11.0349 6.0013 10.6667 6.0013H5.33333C4.96514 6.0013 4.66667 5.70282 4.66667 5.33464Z"
        fill="#1D1C23" fill-opacity="0.6" />
    <path
        d="M5.33333 7.66797C4.96514 7.66797 4.66667 7.96644 4.66667 8.33463C4.66667 8.70282 4.96514 9.0013 5.33333 9.0013H7.33333C7.70152 9.0013 8 8.70282 8 8.33463C8 7.96644 7.70152 7.66797 7.33333 7.66797H5.33333Z"
        fill="#1D1C23" fill-opacity="0.6" />
</svg>
