<svg xmlns="http://www.w3.org/2000/svg" width="20" height="20" viewBox="0 0 20 20" fill="none">
  <path
    d="M14.857 6.66668C12.37 6.6727 10.4004 7.1275 8.74688 8.02792C7.16486 8.88937 5.93306 10.1436 5.08699 11.7544C4.95097 12.0133 4.8253 12.2799 4.70999 12.5548C4.65932 12.6757 4.59494 12.8436 4.51687 13.0588C4.45707 13.2236 4.30051 13.3333 4.1252 13.3333H3.24084C3.01072 13.3333 2.82416 13.1468 2.82416 12.9166C2.82416 12.8728 2.83108 12.8292 2.84466 12.7876C2.86086 12.7378 2.87567 12.6935 2.88907 12.6547C3.0943 12.0601 3.33751 11.4998 3.61726 10.9684C4.61817 9.06712 6.08695 7.57502 7.95848 6.55823C9.81916 5.54733 12.0403 5.00624 14.8571 5.00001L12.7427 2.88563C12.4183 2.5612 12.4213 2.03464 12.7458 1.71021C13.0702 1.38577 13.5968 1.38269 13.9212 1.70712L17.7528 5.53866C17.9155 5.70138 17.9155 5.9652 17.7528 6.12791L13.9181 9.96258C13.596 10.2847 13.0719 10.2745 12.7497 9.95241C12.4276 9.6303 12.4175 9.10618 12.7396 8.78406L14.857 6.66668ZM16.6667 15C17.1269 15 17.5 15.3731 17.5 15.8333V17.5C17.5 17.9602 17.1269 18.3333 16.6667 18.3333H3.33333C2.8731 18.3333 2.5 17.9602 2.5 17.5V15.8333C2.5 15.3731 2.8731 15 3.33333 15C3.79357 15 4.16667 15.3731 4.16667 15.8333V16.6666H15.8333V15.8333C15.8333 15.3731 16.2064 15 16.6667 15Z"
    fill="currentColor" />
</svg>
