<svg xmlns="http://www.w3.org/2000/svg" width="14" height="14" viewBox="0 0 14 14" fill="none">
    <path
        d="M4.66406 2.33341C4.66406 1.68908 5.1864 1.16675 5.83073 1.16675H8.16406C8.8084 1.16675 9.33073 1.68908 9.33073 2.33341H12.2474C12.5696 2.33341 12.8307 2.59458 12.8307 2.91675C12.8307 3.23891 12.5696 3.50008 12.2474 3.50008H11.6641C11.6641 6.2223 11.6641 8.94453 11.6641 11.6667C11.6641 12.3111 11.1417 12.8334 10.4974 12.8334H3.4974C2.85306 12.8334 2.33073 12.3111 2.33073 11.6667C2.33073 8.94453 2.33073 6.2223 2.33073 3.50008H1.7474C1.42523 3.50008 1.16406 3.23891 1.16406 2.91675C1.16406 2.59458 1.42523 2.33341 1.7474 2.33341H4.66406ZM3.4974 3.50008V11.6667H10.4974V3.50008H3.4974ZM5.83073 5.25008C6.1529 5.25008 6.41406 5.51125 6.41406 5.83342V9.33342C6.41406 9.65558 6.1529 9.91675 5.83073 9.91675C5.50856 9.91675 5.2474 9.65558 5.2474 9.33342V5.83342C5.2474 5.51125 5.50856 5.25008 5.83073 5.25008ZM8.16406 5.25008C8.48623 5.25008 8.7474 5.51125 8.7474 5.83342V9.33342C8.7474 9.65558 8.48623 9.91675 8.16406 9.91675C7.8419 9.91675 7.58073 9.65558 7.58073 9.33342V5.83342C7.58073 5.51125 7.8419 5.25008 8.16406 5.25008Z"
        fill="currentColor" />
</svg>
