<svg xmlns="http://www.w3.org/2000/svg" width="1em" height="1em" viewBox="0 0 14 14" fill="none">
  <path
    d="M5.78957 2.49243C6.78186 2.22655 7.83416 2.29552 8.78325 2.68865C9.62541 3.03748 10.3446 3.62425 10.8548 4.3736L9.04054 4.3736C8.71838 4.3736 8.45721 4.63477 8.45721 4.95693C8.45721 5.2791 8.71838 5.54027 9.04054 5.54027L12.2468 5.54027C12.4453 5.54027 12.6213 5.4411 12.7266 5.2896C12.7923 5.19524 12.8307 5.08058 12.8307 4.95693V1.75008C12.8307 1.42792 12.5696 1.16675 12.2474 1.16675C11.9252 1.16675 11.6641 1.42792 11.6641 1.75008V3.50007C11.0392 2.66691 10.1997 2.01258 9.22971 1.61079C8.04335 1.11938 6.72798 1.03316 5.48762 1.36552C4.24726 1.69787 3.15122 2.43022 2.3695 3.44898C1.58778 4.46773 1.16406 5.71597 1.16406 7.00008C1.16406 8.2842 1.58778 9.53243 2.3695 10.5512C3.15122 11.57 4.24726 12.3023 5.48762 12.6347C6.72798 12.967 8.04335 12.8808 9.22972 12.3894C10.4161 11.898 11.4072 11.0288 12.0492 9.91675C12.2103 9.63775 12.1147 9.28098 11.8357 9.1199C11.5567 8.95882 11.1999 9.05441 11.0388 9.33342C10.5252 10.2231 9.73235 10.9184 8.78325 11.3115C7.83416 11.7046 6.78186 11.7736 5.78957 11.5077C4.79729 11.2419 3.92046 10.656 3.29508 9.84097C2.6697 9.02596 2.33073 8.02738 2.33073 7.00008C2.33073 5.97279 2.6697 4.9742 3.29508 4.1592C3.92046 3.34419 4.79728 2.75831 5.78957 2.49243Z"
    fill="currentColor" />
</svg>
