<svg width="14" height="14" viewBox="0 0 14 14" fill="none" xmlns="http://www.w3.org/2000/svg">
<path d="M5.68568 6.40661L10.1361 6.40661V5.54724C10.1361 5.30103 10.4187 5.16195 10.6138 5.31214L12.501 6.76489C12.6553 6.88366 12.6553 7.11634 12.501 7.23511L10.6138 8.68786C10.4187 8.83805 10.1361 8.69897 10.1361 8.45276V7.5934L5.68568 7.59339C5.35796 7.59339 5.09229 7.32772 5.09229 7C5.09229 6.67228 5.35796 6.40661 5.68568 6.40661Z" fill="currentColor"/>
<path fill-rule="evenodd" clip-rule="evenodd" d="M2.91667 3.49992H9.91667V4.08321H11.0833V3.49992C11.0833 2.85559 10.561 2.33325 9.91667 2.33325H2.91667C2.27233 2.33325 1.75 2.85559 1.75 3.49992V11.0833C1.75 11.7276 2.27233 12.2499 2.91667 12.2499H9.91667C10.561 12.2499 11.0833 11.7276 11.0833 11.0833V9.91654H9.91667V11.0833L2.91667 11.0833L2.91667 3.49992V3.49992Z" fill="currentColor"/>
</svg>
