<svg width="16" height="16" viewBox="0 0 16 16" fill="none"
  xmlns="http://www.w3.org/2000/svg">
  <path d="M3.33325 10.6668V11.3335C3.33315 11.6699 3.46019 11.9939 3.68892 12.2405C3.91764 12.4872 4.23115 12.6383 4.56659 12.6635L4.66658 12.6668H5.99992C6.17671 12.6669 6.34625 12.7371 6.47126 12.8621C6.59626 12.9872 6.66648 13.1567 6.66648 13.3335C6.66648 13.5103 6.59626 13.6798 6.47126 13.8049C6.34625 13.9299 6.17671 14.0001 5.99992 14.0002H4.66658C3.95934 14.0002 3.28106 13.7192 2.78097 13.2191C2.28087 12.719 1.99992 12.0407 1.99992 11.3335V10.6668C1.99995 10.49 2.0702 10.3205 2.19522 10.1955C2.32024 10.0705 2.48979 10.0003 2.66659 10.0003C2.84338 10.0003 3.01293 10.0705 3.13795 10.1955C3.26297 10.3205 3.33322 10.49 3.33325 10.6668ZM12.0839 6.87616L14.7506 13.5428C14.7709 13.5935 14.7784 13.6483 14.7726 13.7025C14.7668 13.7567 14.7477 13.8087 14.7171 13.8539C14.6865 13.899 14.6453 13.936 14.5971 13.9615C14.5489 13.987 14.4951 14.0003 14.4406 14.0002H13.7219C13.6553 14.0001 13.5903 13.9802 13.5352 13.9429C13.48 13.9056 13.4373 13.8526 13.4126 13.7908L12.6959 12.0002H9.96925L9.25392 13.7908C9.22911 13.8527 9.18631 13.9058 9.13105 13.9431C9.07579 13.9804 9.0106 14.0003 8.94392 14.0002H8.22658C8.1721 14.0002 8.11845 13.9868 8.07033 13.9612C8.02221 13.9357 7.98108 13.8987 7.95056 13.8536C7.92003 13.8085 7.90103 13.7565 7.89523 13.7024C7.88942 13.6482 7.89698 13.5934 7.91725 13.5428L10.5839 6.87616C10.6087 6.81437 10.6514 6.76141 10.7065 6.7241C10.7616 6.68679 10.8267 6.66685 10.8933 6.66683H11.7746C11.8413 6.66671 11.9065 6.6866 11.9617 6.72391C12.017 6.76123 12.0598 6.81427 12.0846 6.87616H12.0839ZM11.3333 8.59016L10.5019 10.6668H12.1633L11.3333 8.59016ZM5.33325 1.66683V2.66683H7.66658C7.75499 2.66683 7.83978 2.70195 7.90229 2.76446C7.9648 2.82697 7.99992 2.91176 7.99992 3.00016V7.00016C7.99992 7.08857 7.9648 7.17335 7.90229 7.23587C7.83978 7.29838 7.75499 7.3335 7.66658 7.3335H5.33325V9.00016C5.33325 9.08857 5.29813 9.17335 5.23562 9.23587C5.17311 9.29838 5.08832 9.3335 4.99992 9.3335H4.33325C4.24485 9.3335 4.16006 9.29838 4.09755 9.23587C4.03504 9.17335 3.99992 9.08857 3.99992 9.00016V7.3335H1.66659C1.62281 7.3335 1.57947 7.32487 1.53902 7.30812C1.49858 7.29137 1.46184 7.26682 1.43088 7.23587C1.39993 7.20491 1.37538 7.16817 1.35863 7.12772C1.34187 7.08728 1.33325 7.04394 1.33325 7.00016V3.00016C1.33325 2.95639 1.34187 2.91304 1.35863 2.8726C1.37538 2.83216 1.39993 2.79541 1.43088 2.76446C1.46184 2.73351 1.49858 2.70895 1.53902 2.6922C1.57947 2.67545 1.62281 2.66683 1.66659 2.66683H3.99992V1.66683C3.99992 1.62306 4.00854 1.57971 4.02529 1.53927C4.04204 1.49883 4.0666 1.46208 4.09755 1.43113C4.1285 1.40017 4.16525 1.37562 4.20569 1.35887C4.24613 1.34212 4.28948 1.3335 4.33325 1.3335H4.99992C5.04369 1.3335 5.08704 1.34212 5.12748 1.35887C5.16792 1.37562 5.20467 1.40017 5.23562 1.43113C5.26657 1.46208 5.29113 1.49883 5.30788 1.53927C5.32463 1.57971 5.33325 1.62306 5.33325 1.66683ZM11.3333 2.00016C12.0405 2.00016 12.7188 2.28111 13.2189 2.78121C13.719 3.28131 13.9999 3.95959 13.9999 4.66683V5.3335C13.9999 5.51029 13.9296 5.67983 13.8046 5.80483C13.6796 5.92984 13.51 6.00006 13.3333 6.00006C13.1565 6.00006 12.9869 5.92984 12.8619 5.80483C12.7369 5.67983 12.6666 5.51029 12.6666 5.3335V4.66683C12.6666 4.49173 12.6321 4.31835 12.5651 4.15658C12.4981 3.99482 12.3999 3.84783 12.2761 3.72402C12.1522 3.60021 12.0053 3.502 11.8435 3.43499C11.6817 3.36798 11.5083 3.3335 11.3333 3.3335H9.99992C9.82313 3.33347 9.65358 3.26322 9.52858 3.1382C9.40358 3.01318 9.33335 2.84362 9.33335 2.66683C9.33335 2.49004 9.40358 2.32048 9.52858 2.19546C9.65358 2.07044 9.82313 2.00019 9.99992 2.00016H11.3333ZM3.99992 4.00016H2.66659V6.00016H3.99992V4.00016ZM6.66658 4.00016H5.33325V6.00016H6.66658V4.00016Z" fill="#1D1C23"/>
</svg>
