<svg xmlns="http://www.w3.org/2000/svg" width="20" height="20" viewBox="0 0 20 20" fill="none">
    <g clip-path="url(#clip0_814_161748)">
        <mask id="mask0_814_161748" style="mask-type:alpha" maskUnits="userSpaceOnUse" x="0" y="0" width="20"
            height="20">
            <rect width="20" height="20" fill="currentColor" />
        </mask>
        <g mask="url(#mask0_814_161748)">
            <path fill-rule="evenodd" clip-rule="evenodd"
                d="M9.61163 1.80078C10.253 1.80078 10.8449 2.04663 11.3209 2.46146C11.3482 2.48528 11.3812 2.50175 11.4166 2.50976C12.4537 2.74461 13.2352 3.78234 13.2352 5.02695C13.2352 5.3375 13.1865 5.63518 13.0974 5.91071C13.0642 6.01326 13.1121 6.12513 13.196 6.19278C13.4984 6.43651 13.6025 6.90751 13.4232 7.33785C13.2768 7.6891 12.9802 7.92042 12.6685 7.9648C12.5689 7.979 12.4772 8.04354 12.4513 8.14083C12.2925 8.73733 12.0035 9.25718 11.6274 9.64538C11.6063 9.66715 11.5897 9.69308 11.5807 9.72199C11.3307 10.5193 11.7481 11.4159 12.5881 11.7015L12.7212 11.7468C14.8996 12.4874 16.3847 14.496 16.4669 16.7815C16.4708 16.8919 16.3809 16.9815 16.2704 16.9815H3.7293C3.61884 16.9815 3.5293 16.892 3.5293 16.7815V16.5157C3.5293 14.4027 4.8081 12.4998 6.76458 11.7015L7.06076 11.626C7.99153 11.3887 8.5003 10.4515 8.28723 9.58492C8.28002 9.55557 8.2652 9.52867 8.24562 9.50565C7.93131 9.13604 7.68899 8.66841 7.5485 8.14081C7.52259 8.04351 7.43096 7.979 7.33127 7.96481C7.01955 7.92045 6.72298 7.68912 6.57659 7.33785C6.40268 6.92056 6.49533 6.46505 6.77678 6.21558C6.84572 6.15448 6.88612 6.06227 6.86499 5.97261C6.79952 5.69489 6.76457 5.40257 6.76457 5.10078C6.76457 3.27824 8.03924 1.80078 9.61163 1.80078Z"
                fill="currentColor" />
            <path fill-rule="evenodd" clip-rule="evenodd"
                d="M17.6241 16.0313C17.6241 13.5001 15.2491 11.3438 13.435 10.5855L13.261 10.5276C13.1303 10.484 13.0448 10.3682 13.0312 10.2417C13.294 9.92624 13.5059 9.56289 13.6607 9.16981C14.0858 8.96967 14.4244 8.60872 14.6107 8.17063C14.8513 7.60464 14.8243 6.92114 14.4764 6.38987C14.5106 6.19467 14.5284 5.99398 14.5284 5.78973C14.5284 5.16536 14.3589 4.56384 14.0556 4.05273C14.2972 4.15054 14.5218 4.29035 14.7228 4.46461C14.7502 4.48835 14.7832 4.50481 14.8185 4.51295C15.7207 4.72105 16.3997 5.62542 16.3997 6.70954C16.3997 6.97196 16.3599 7.22385 16.2868 7.45788C16.2547 7.56075 16.303 7.67252 16.3843 7.74324C16.6338 7.96016 16.7167 8.3607 16.5639 8.72745C16.4396 9.02562 16.1914 9.22483 15.9276 9.27131C15.8285 9.28879 15.7368 9.35314 15.7103 9.45028C15.6307 9.74284 15.5151 10.014 15.3704 10.2551C15.3366 10.3113 15.3297 10.3801 15.3544 10.4408L15.4146 10.5882C15.5509 10.9221 15.7749 11.2129 16.0629 11.4299L16.7689 11.9618L17.5276 12.4959C18.5917 13.2451 19.2249 14.4652 19.2249 15.7666V15.9011C19.2249 16.0115 19.1354 16.1011 19.0249 16.1011H17.6244C17.6252 16.0783 17.6251 16.055 17.6241 16.0313Z"
                fill="currentColor" fill-opacity="0.6" />
            <path fill-rule="evenodd" clip-rule="evenodd"
                d="M2.18672 16.0314C2.18672 13.5001 4.56172 11.3439 6.37587 10.5856L6.54983 10.5276C6.68056 10.484 6.76601 10.3683 6.77958 10.2418C6.51686 9.92629 6.30495 9.56295 6.15012 9.16987C5.725 8.96973 5.38639 8.60878 5.20016 8.17069C4.95956 7.60469 4.98651 6.9212 5.33443 6.38992C5.3002 6.19473 5.28244 5.99404 5.28244 5.78979C5.28244 5.20248 5.43245 4.63539 5.70266 4.14475C5.69251 4.14461 5.68234 4.14453 5.67216 4.14453C4.3573 4.14453 3.29139 5.38002 3.29139 6.90407C3.29139 7.14747 3.31857 7.38351 3.36962 7.60833C3.39002 7.69819 3.34919 7.79018 3.28274 7.85402C3.06217 8.06593 2.99269 8.43565 3.13417 8.77512C3.25213 9.05816 3.4867 9.24808 3.73685 9.29472C3.83583 9.31318 3.92775 9.37734 3.95452 9.4744C4.0303 9.74911 4.13921 10.0039 4.27513 10.231C4.3088 10.2873 4.31578 10.356 4.29101 10.4168L4.24349 10.5332C4.10723 10.8671 3.88322 11.158 3.59518 11.375L2.93775 11.8702L2.28327 12.331C1.2191 13.0802 0.585938 14.3003 0.585938 15.6017V15.9247C0.585938 16.0351 0.67548 16.1247 0.785937 16.1247H2.18767C2.18568 16.0944 2.18533 16.0633 2.18672 16.0314Z"
                fill="currentColor" fill-opacity="0.6" />
        </g>
    </g>
    <defs>
        <clipPath id="clip0_814_161748">
            <rect width="20" height="20" fill="white" />
        </clipPath>
    </defs>
</svg>
