<svg width="16" height="16" viewBox="0 0 16 16" fill="none" xmlns="http://www.w3.org/2000/svg">
<g id="Frame">
<path id="Vector" d="M11.7738 5.27311C11.0571 5.27311 9.26976 7.05201 7.96461 8.31293C5.98584 10.2249 4.1167 12.0827 2.6207 12.0827H1.70051C1.32444 12.0827 1.01955 11.7776 1.01955 11.4017C1.01955 11.0259 1.32444 10.7208 1.70051 10.7208H2.6207C3.56608 10.7208 5.48012 8.8195 7.01809 7.33352C8.88991 5.52502 10.5064 3.91118 11.7738 3.91118H12.6521L11.7202 3.00762C11.4541 2.7421 11.4536 2.33727 11.7193 2.07124C11.985 1.80514 12.4161 1.80461 12.6823 2.07022L14.7793 4.162C14.9073 4.28969 14.9792 4.4626 14.9792 4.64331C14.9792 4.824 14.9073 4.99651 14.7793 5.1242L12.6823 7.21459C12.5494 7.34719 12.3753 7.41025 12.2012 7.41025C12.0268 7.41025 11.8523 7.33718 11.7193 7.204C11.4536 6.93798 11.4541 6.49412 11.7202 6.2286L12.6521 5.27311H11.7738ZM12.6823 8.77608C12.4161 8.51046 11.985 8.51088 11.7193 8.77699C11.4536 9.043 11.4541 9.49976 11.7202 9.76528L12.6521 10.7208H11.7738C11.2146 10.7208 10.2802 9.89346 9.35388 9.02742C9.07925 8.77062 8.64823 8.77208 8.39146 9.0466C8.13452 9.3211 8.14891 9.7715 8.42355 10.0282C9.83483 11.3479 10.7868 12.0827 11.7738 12.0827H12.6521L11.7202 12.9862C11.454 13.2517 11.4536 13.6696 11.7193 13.9356C11.8523 14.0688 12.0268 14.1289 12.2012 14.1289C12.3753 14.1289 12.5494 14.0593 12.6823 13.9267L14.7793 11.8331C14.9073 11.7054 14.9792 11.5313 14.9792 11.3506C14.9792 11.1699 14.9073 10.9962 14.7793 10.8685L12.6823 8.77608ZM1.70049 5.27311H2.62069C3.33838 5.27311 4.40821 6.18647 5.25998 6.95971C5.39049 7.07809 5.55425 7.1494 5.71767 7.1494C5.90288 7.1494 6.08757 7.08074 6.22191 6.93288C6.47476 6.65463 6.45409 6.20126 6.17568 5.94852C4.84369 4.73944 3.72941 3.9112 2.62069 3.9112H1.70049C1.32443 3.9112 1.01953 4.2163 1.01953 4.59216C1.01953 4.96802 1.32444 5.27311 1.70049 5.27311Z" fill="#0077FA"/>
</g>
</svg>
