<svg xmlns="http://www.w3.org/2000/svg" width="1em" height="1em" viewBox="0 0 14 14" fill="none">
  <path
    d="M5.25 1.75008C5.25 1.42792 5.51117 1.16675 5.83333 1.16675H11.6667C11.9888 1.16675 12.25 1.42792 12.25 1.75008V8.75008C12.25 9.07225 11.9888 9.33342 11.6667 9.33342C11.3445 9.33342 11.0833 9.07225 11.0833 8.75008V2.33341H5.83333C5.51117 2.33341 5.25 2.07225 5.25 1.75008Z"
    fill="currentColor" />
  <path
    d="M2.91667 3.50008C2.27233 3.50008 1.75 4.02242 1.75 4.66675V11.6667C1.75 12.3111 2.27233 12.8334 2.91667 12.8334H8.75C9.39433 12.8334 9.91667 12.3111 9.91667 11.6667V4.66675C9.91667 4.02242 9.39433 3.50008 8.75 3.50008H2.91667ZM2.91667 4.66675H8.75V11.6667H2.91667L2.91667 4.66675Z"
    fill="currentColor" />
</svg>
