<svg width="1em" height="1em" viewBox="0 0 64 64" fill="none" xmlns="http://www.w3.org/2000/svg">
  <g clip-path="url(#clip0_2372_914)">
    <path
      d="M52.5 28.95l-8.27 32.64c-.1.38.19.74.58.74h16.54c.39 0 .67-.36.58-.74l-8.27-32.64c-.15-.6-1-.6-1.15 0h-.01zM6.97 36.35L.58 61.59c-.1.38.19.74.58.74h12.78c.39 0 .67-.36.58-.74L8.13 36.35c-.15-.6-1-.6-1.15 0h-.01z"
      fill="#00E5E5" />
    <path d="M18.27 15.45L6.59 61.6c-.1.38.19.74.58.74h23.36c.39 0 .67-.36.58-.74L19.43 15.45c-.15-.6-1-.6-1.15 0h-.01z"
      fill="#006EFF" />
    <path d="M38.41.78c-.16-.59-.99-.59-1.15 0L21.3 61.6c-.1.38.19.74.58.74h31.93c.39 0 .67-.36.58-.74L38.42.78h-.01z"
      fill="#006EFF" />
    <path d="M26.69 22.16L16.57 61.59c-.1.38.19.74.58.74H37.4a.6.6 0 0 0 .58-.74L27.86 22.16c-.15-.6-1-.6-1.15 0h-.02z"
      fill="#00E5E5" />
  </g>
  <defs>
    <clipPath id="clip0_2372_914">
      <path fill="#fff" d="M0 0h62v63H0z" />
    </clipPath>
  </defs>
</svg>
