<svg width="24" height="24" viewBox="0 0 24 24" fill="none" xmlns="http://www.w3.org/2000/svg">
<rect x="0.5" y="0.5" width="23" height="23" rx="7.5" fill="white"/>
<path fill-rule="evenodd" clip-rule="evenodd" d="M12.4123 8.20728C12.7514 7.8548 12.7514 7.28333 12.4123 6.93086C12.0731 6.57839 11.5233 6.57839 11.1841 6.93086L6.92098 11.3616C6.58184 11.7141 6.58184 12.2856 6.92098 12.638L11.1841 17.0688C11.5233 17.4213 12.0731 17.4213 12.4123 17.0688C12.7514 16.7163 12.7514 16.1449 12.4123 15.7924L8.76318 11.9998L12.4123 8.20728ZM17.0789 8.20728C17.4181 7.8548 17.4181 7.28333 17.0789 6.93086C16.7398 6.57839 16.1899 6.57839 15.8508 6.93086L11.5876 11.3616C11.2485 11.7141 11.2485 12.2856 11.5876 12.638L15.8508 17.0688C16.1899 17.4213 16.7398 17.4213 17.0789 17.0688C17.4181 16.7163 17.4181 16.1449 17.0789 15.7924L13.4298 11.9998L17.0789 8.20728Z" fill="#888D92"/>
<rect x="0.5" y="0.5" width="23" height="23" rx="7.5" stroke="#E6E8EA"/>
</svg>
