<svg width="366" height="201" viewBox="0 0 366 201" fill="none" xmlns="http://www.w3.org/2000/svg">
    <g opacity="0.4">
        <mask id="mask0_508_54784" style="mask-type:alpha" maskUnits="userSpaceOnUse" x="0" y="0" width="366" height="184">
            <rect y="0.953125" width="365.09" height="182.545" fill="url(#paint0_linear_508_54784)"/>
        </mask>
        <g mask="url(#mask0_508_54784)">
            <mask id="mask1_508_54784" style="mask-type:alpha" maskUnits="userSpaceOnUse" x="0" y="0" width="366" height="184">
                <rect y="0.953125" width="365.09" height="182.545" fill="url(#paint1_linear_508_54784)"/>
            </mask>
            <g mask="url(#mask1_508_54784)">
                <rect y="0.953125" width="30.4242" height="30.4242" stroke="#3C445C" stroke-width="0.633837"/>
                <rect x="30.4238" y="0.953125" width="30.4242" height="30.4242" fill="url(#paint2_linear_508_54784)" stroke="#3C445C" stroke-width="0.633837"/>
                <rect x="60.8486" y="0.953125" width="30.4242" height="30.4242" stroke="#3C445C" stroke-width="0.633837"/>
                <rect x="91.2725" y="0.953125" width="30.4242" height="30.4242" stroke="#3C445C" stroke-width="0.633837"/>
                <rect x="121.696" y="0.953125" width="30.4242" height="30.4242" stroke="#3C445C" stroke-width="0.633837"/>
                <rect x="152.121" y="0.953125" width="30.4242" height="30.4242" stroke="#3C445C" stroke-width="0.633837"/>
                <rect x="182.545" y="0.953125" width="30.4242" height="30.4242" stroke="#3C445C" stroke-width="0.633837"/>
                <rect x="212.969" y="0.953125" width="30.4242" height="30.4242" stroke="#3C445C" stroke-width="0.633837"/>
                <rect x="243.394" y="0.953125" width="30.4242" height="30.4242" stroke="#3C445C" stroke-width="0.633837"/>
                <rect x="273.817" y="0.953125" width="30.4242" height="30.4242" stroke="#3C445C" stroke-width="0.633837"/>
                <rect x="304.241" y="0.953125" width="30.4242" height="30.4242" stroke="#3C445C" stroke-width="0.633837"/>
                <rect x="334.666" y="0.953125" width="30.4242" height="30.4242" stroke="#3C445C" stroke-width="0.633837"/>
                <rect y="31.377" width="30.4242" height="30.4242" stroke="#3C445C" stroke-width="0.633837"/>
                <rect x="30.4238" y="31.377" width="30.4242" height="30.4242" stroke="#3C445C" stroke-width="0.633837"/>
                <rect x="60.8486" y="31.377" width="30.4242" height="30.4242" stroke="#3C445C" stroke-width="0.633837"/>
                <rect x="91.2725" y="31.377" width="30.4242" height="30.4242" stroke="#3C445C" stroke-width="0.633837"/>
                <rect x="121.696" y="31.377" width="30.4242" height="30.4242" fill="url(#paint3_linear_508_54784)" fill-opacity="0.59" stroke="#3C445C" stroke-width="0.633837"/>
                <rect x="152.121" y="31.377" width="30.4242" height="30.4242" stroke="#3C445C" stroke-width="0.633837"/>
                <rect x="182.545" y="31.377" width="30.4242" height="30.4242" stroke="#3C445C" stroke-width="0.633837"/>
                <rect x="212.969" y="31.377" width="30.4242" height="30.4242" stroke="#3C445C" stroke-width="0.633837"/>
                <rect x="243.394" y="31.377" width="30.4242" height="30.4242" stroke="#3C445C" stroke-width="0.633837"/>
                <rect x="273.817" y="31.377" width="30.4242" height="30.4242" stroke="#3C445C" stroke-width="0.633837"/>
                <rect x="304.241" y="31.377" width="30.4242" height="30.4242" stroke="#3C445C" stroke-width="0.633837"/>
                <rect x="334.666" y="31.377" width="30.4242" height="30.4242" stroke="#3C445C" stroke-width="0.633837"/>
                <rect y="61.8008" width="30.4242" height="30.4242" stroke="#3C445C" stroke-width="0.633837"/>
                <rect x="30.4238" y="61.8008" width="30.4242" height="30.4242" stroke="#3C445C" stroke-width="0.633837"/>
                <rect x="60.8486" y="61.8008" width="30.4242" height="30.4242" stroke="#3C445C" stroke-width="0.633837"/>
                <rect x="91.2725" y="61.8008" width="30.4242" height="30.4242" stroke="#3C445C" stroke-width="0.633837"/>
                <rect x="121.696" y="61.8008" width="30.4242" height="30.4242" stroke="#3C445C" stroke-width="0.633837"/>
                <rect x="152.121" y="61.8008" width="30.4242" height="30.4242" stroke="#3C445C" stroke-width="0.633837"/>
                <rect x="182.545" y="61.8008" width="30.4242" height="30.4242" stroke="#3C445C" stroke-width="0.633837"/>
                <rect x="212.969" y="61.8008" width="30.4242" height="30.4242" fill="url(#paint4_linear_508_54784)" fill-opacity="0.59" stroke="#3C445C" stroke-width="0.633837"/>
                <rect x="243.394" y="61.8008" width="30.4242" height="30.4242" stroke="#3C445C" stroke-width="0.633837"/>
                <rect x="273.817" y="61.8008" width="30.4242" height="30.4242" stroke="#3C445C" stroke-width="0.633837"/>
                <rect x="304.241" y="61.8008" width="30.4242" height="30.4242" stroke="#3C445C" stroke-width="0.633837"/>
                <rect x="334.666" y="61.8008" width="30.4242" height="30.4242" stroke="#3C445C" stroke-width="0.633837"/>
                <rect y="92.2266" width="30.4242" height="30.4242" stroke="#3C445C" stroke-width="0.633837"/>
                <rect x="30.4238" y="92.2266" width="30.4242" height="30.4242" stroke="#3C445C" stroke-width="0.633837"/>
                <rect x="60.8486" y="92.2266" width="30.4242" height="30.4242" stroke="#3C445C" stroke-width="0.633837"/>
                <rect x="91.2725" y="92.2266" width="30.4242" height="30.4242" stroke="#3C445C" stroke-width="0.633837"/>
                <rect x="121.696" y="92.2266" width="30.4242" height="30.4242" stroke="#3C445C" stroke-width="0.633837"/>
                <rect x="152.121" y="92.2266" width="30.4242" height="30.4242" stroke="#3C445C" stroke-width="0.633837"/>
                <rect x="182.545" y="92.2266" width="30.4242" height="30.4242" stroke="#3C445C" stroke-width="0.633837"/>
                <rect x="212.969" y="92.2266" width="30.4242" height="30.4242" stroke="#3C445C" stroke-width="0.633837"/>
                <rect x="243.394" y="92.2266" width="30.4242" height="30.4242" stroke="#3C445C" stroke-width="0.633837"/>
                <rect x="273.817" y="92.2266" width="30.4242" height="30.4242" stroke="#3C445C" stroke-width="0.633837"/>
                <rect x="304.241" y="92.2266" width="30.4242" height="30.4242" stroke="#3C445C" stroke-width="0.633837"/>
                <rect x="334.666" y="92.2266" width="30.4242" height="30.4242" stroke="#3C445C" stroke-width="0.633837"/>
                <rect y="122.65" width="30.4242" height="30.4242" stroke="#3C445C" stroke-width="0.633837"/>
                <rect x="30.4238" y="122.65" width="30.4242" height="30.4242" stroke="#3C445C" stroke-width="0.633837"/>
                <rect x="60.8486" y="122.65" width="30.4242" height="30.4242" stroke="#3C445C" stroke-width="0.633837"/>
                <rect x="91.2725" y="122.65" width="30.4242" height="30.4242" stroke="#3C445C" stroke-width="0.633837"/>
                <rect x="121.696" y="122.65" width="30.4242" height="30.4242" stroke="#3C445C" stroke-width="0.633837"/>
                <rect x="152.121" y="122.65" width="30.4242" height="30.4242" fill="url(#paint5_linear_508_54784)" stroke="#3C445C" stroke-width="0.633837"/>
                <rect x="182.545" y="122.65" width="30.4242" height="30.4242" stroke="#3C445C" stroke-width="0.633837"/>
                <rect x="212.969" y="122.65" width="30.4242" height="30.4242" stroke="#3C445C" stroke-width="0.633837"/>
                <rect x="243.394" y="122.65" width="30.4242" height="30.4242" stroke="#3C445C" stroke-width="0.633837"/>
                <rect x="273.817" y="122.65" width="30.4242" height="30.4242" stroke="#3C445C" stroke-width="0.633837"/>
                <rect x="304.241" y="122.65" width="30.4242" height="30.4242" stroke="#3C445C" stroke-width="0.633837"/>
                <rect x="334.666" y="122.65" width="30.4242" height="30.4242" stroke="#3C445C" stroke-width="0.633837"/>
                <rect y="153.074" width="30.4242" height="30.4242" stroke="#3C445C" stroke-width="0.633837"/>
                <rect x="30.4238" y="153.074" width="30.4242" height="30.4242" stroke="#3C445C" stroke-width="0.633837"/>
                <rect x="60.8486" y="153.074" width="30.4242" height="30.4242" stroke="#3C445C" stroke-width="0.633837"/>
                <rect x="91.2725" y="153.074" width="30.4242" height="30.4242" stroke="#3C445C" stroke-width="0.633837"/>
                <rect x="121.696" y="153.074" width="30.4242" height="30.4242" stroke="#3C445C" stroke-width="0.633837"/>
                <rect x="152.121" y="153.074" width="30.4242" height="30.4242" stroke="#3C445C" stroke-width="0.633837"/>
                <rect x="182.545" y="153.074" width="30.4242" height="30.4242" stroke="#3C445C" stroke-width="0.633837"/>
                <rect x="212.969" y="153.074" width="30.4242" height="30.4242" stroke="#3C445C" stroke-width="0.633837"/>
                <rect x="243.394" y="153.074" width="30.4242" height="30.4242" stroke="#3C445C" stroke-width="0.633837"/>
                <rect x="273.817" y="153.074" width="30.4242" height="30.4242" stroke="#3C445C" stroke-width="0.633837"/>
                <rect x="304.241" y="153.074" width="30.4242" height="30.4242" fill="url(#paint6_linear_508_54784)" stroke="#3C445C" stroke-width="0.633837"/>
                <rect x="334.666" y="153.074" width="30.4242" height="30.4242" stroke="#3C445C" stroke-width="0.633837"/>
            </g>
        </g>
    </g>
    <rect x="83.001" y="75.4766" width="200" height="113.071" rx="6" fill="white"/>
    <rect x="83.3179" y="75.7935" width="199.366" height="112.437" rx="5.68308" stroke="#060709" stroke-opacity="0.1" stroke-width="0.633837"/>
    <g filter="url(#filter0_d_508_54784)">
        <path d="M157.001 91.8766C157.001 89.6364 157.001 88.5162 157.437 87.6606C157.82 86.908 158.432 86.296 159.185 85.9125C160.041 85.4766 161.161 85.4766 163.401 85.4766H202.601C204.841 85.4766 205.961 85.4766 206.817 85.9125C207.57 86.296 208.182 86.908 208.565 87.6606C209.001 88.5162 209.001 89.6364 209.001 91.8766V123.077C209.001 125.317 209.001 126.437 208.565 127.293C208.182 128.045 207.57 128.657 206.817 129.041C205.961 129.477 204.841 129.477 202.601 129.477H163.401C161.161 129.477 160.041 129.477 159.185 129.041C158.432 128.657 157.82 128.045 157.437 127.293C157.001 126.437 157.001 125.317 157.001 123.077V91.8766Z" fill="url(#paint7_linear_508_54784)"/>
        <path d="M157.064 91.8766C157.064 90.7554 157.064 89.9184 157.119 89.2545C157.173 88.5914 157.281 88.1068 157.493 87.6894C157.871 86.9487 158.473 86.3464 159.214 85.969C159.631 85.7563 160.116 85.6484 160.779 85.5942C161.443 85.54 162.28 85.5399 163.401 85.5399H202.601C203.722 85.5399 204.559 85.54 205.223 85.5942C205.886 85.6484 206.371 85.7563 206.788 85.969C207.529 86.3464 208.131 86.9487 208.509 87.6894C208.721 88.1068 208.829 88.5914 208.883 89.2545C208.938 89.9184 208.938 90.7554 208.938 91.8766V123.077C208.938 124.198 208.938 125.035 208.883 125.699C208.829 126.362 208.721 126.846 208.509 127.264C208.131 128.004 207.529 128.607 206.788 128.984C206.371 129.197 205.886 129.305 205.223 129.359C204.559 129.413 203.722 129.413 202.601 129.413H163.401C162.28 129.413 161.443 129.413 160.779 129.359C160.116 129.305 159.631 129.197 159.214 128.984C158.473 128.607 157.871 128.004 157.493 127.264C157.281 126.846 157.173 126.362 157.119 125.699C157.064 125.035 157.064 124.198 157.064 123.077V91.8766Z" stroke="black" stroke-opacity="0.08" stroke-width="0.126767"/>
    </g>
    <rect x="93.001" y="139.477" width="127" height="8" rx="4" fill="#060709" fill-opacity="0.3"/>
    <rect x="93.001" y="152.547" width="84" height="8" rx="4" fill="#060709" fill-opacity="0.3"/>
    <rect x="93.001" y="170.547" width="180" height="8" rx="4" fill="#060709" fill-opacity="0.3"/>
    <defs>
        <filter id="filter0_d_508_54784" x="151.568" y="81.8546" width="62.8658" height="54.8658" filterUnits="userSpaceOnUse" color-interpolation-filters="sRGB">
            <feFlood flood-opacity="0" result="BackgroundImageFix"/>
            <feColorMatrix in="SourceAlpha" type="matrix" values="0 0 0 0 0 0 0 0 0 0 0 0 0 0 0 0 0 0 127 0" result="hardAlpha"/>
            <feOffset dy="1.81096"/>
            <feGaussianBlur stdDeviation="2.71644"/>
            <feComposite in2="hardAlpha" operator="out"/>
            <feColorMatrix type="matrix" values="0 0 0 0 0 0 0 0 0 0 0 0 0 0 0 0 0 0 0.09 0"/>
            <feBlend mode="normal" in2="BackgroundImageFix" result="effect1_dropShadow_508_54784"/>
            <feBlend mode="normal" in="SourceGraphic" in2="effect1_dropShadow_508_54784" result="shape"/>
        </filter>
        <linearGradient id="paint0_linear_508_54784" x1="365.09" y1="92.2256" x2="-2.38012e-06" y2="92.2256" gradientUnits="userSpaceOnUse">
            <stop stop-color="#D9D9D9" stop-opacity="0"/>
            <stop offset="0.500048" stop-color="#D9D9D9"/>
            <stop offset="1" stop-color="#D9D9D9" stop-opacity="0"/>
        </linearGradient>
        <linearGradient id="paint1_linear_508_54784" x1="182.545" y1="0.953125" x2="182.545" y2="183.498" gradientUnits="userSpaceOnUse">
            <stop stop-color="#D9D9D9" stop-opacity="0"/>
            <stop offset="0.493585" stop-color="#D9D9D9"/>
            <stop offset="1" stop-color="#D9D9D9" stop-opacity="0"/>
        </linearGradient>
        <linearGradient id="paint2_linear_508_54784" x1="45.6359" y1="0.953125" x2="45.6359" y2="31.3773" gradientUnits="userSpaceOnUse">
            <stop stop-color="#3C445C" stop-opacity="0"/>
            <stop offset="1" stop-color="#3C445C"/>
        </linearGradient>
        <linearGradient id="paint3_linear_508_54784" x1="136.908" y1="31.377" x2="136.908" y2="61.8011" gradientUnits="userSpaceOnUse">
            <stop stop-color="#3C445C" stop-opacity="0"/>
            <stop offset="1" stop-color="#3C445C"/>
        </linearGradient>
        <linearGradient id="paint4_linear_508_54784" x1="228.181" y1="61.8008" x2="228.181" y2="92.2249" gradientUnits="userSpaceOnUse">
            <stop stop-color="#3C445C" stop-opacity="0"/>
            <stop offset="1" stop-color="#3C445C"/>
        </linearGradient>
        <linearGradient id="paint5_linear_508_54784" x1="167.333" y1="122.65" x2="167.333" y2="153.075" gradientUnits="userSpaceOnUse">
            <stop stop-color="#3C445C" stop-opacity="0"/>
            <stop offset="1" stop-color="#3C445C"/>
        </linearGradient>
        <linearGradient id="paint6_linear_508_54784" x1="319.453" y1="153.074" x2="319.453" y2="183.498" gradientUnits="userSpaceOnUse">
            <stop stop-color="#3C445C" stop-opacity="0"/>
            <stop offset="1" stop-color="#3C445C"/>
        </linearGradient>
        <linearGradient id="paint7_linear_508_54784" x1="183.001" y1="85.4766" x2="183.001" y2="129.477" gradientUnits="userSpaceOnUse">
            <stop stop-color="#F45D68"/>
            <stop offset="1" stop-color="#FFCA00"/>
        </linearGradient>
    </defs>
</svg>
