<svg width="32" height="32" viewBox="0 0 32 32" fill="none" xmlns="http://www.w3.org/2000/svg">
<g clip-path="url(#clip0_6505_29999)">
<path d="M0 8C0 3.58172 3.58172 0 8 0H24C28.4183 0 32 3.58172 32 8V24C32 28.4183 28.4183 32 24 32H8C3.58172 32 0 28.4183 0 24V8Z" fill="white"/>
<path d="M0.5 8C0.5 3.85786 3.85786 0.5 8 0.5H24C28.1421 0.5 31.5 3.85786 31.5 8V24C31.5 28.1421 28.1421 31.5 24 31.5H8C3.85786 31.5 0.5 28.1421 0.5 24V8Z" stroke="#1D1C23" stroke-opacity="0.08"/>
<mask id="mask0_6505_29999" style="mask-type:alpha" maskUnits="userSpaceOnUse" x="8" y="8" width="16" height="16">
<rect x="8" y="8" width="16" height="16" fill="#D9D9D9"/>
</mask>
<g mask="url(#mask0_6505_29999)">
<path fill-rule="evenodd" clip-rule="evenodd" d="M18.6667 11.3333L21.6667 11.3333V20.6667H18.6667V11.3333ZM17.3333 11.3333H14.6667V20.6667H17.3333V11.3333ZM13.3333 20.6667V11.3333L10.3333 11.3333L10.3333 20.6667H13.3333ZM14.6667 10H17.3333H21.6667C22.403 10 23 10.597 23 11.3333V20.6667C23 21.403 22.403 22 21.6667 22H17.3333H14.6667H10.3333C9.59695 22 9 21.403 9 20.6667V11.3333C9 10.597 9.59695 10 10.3333 10H14.6667Z" fill="#1D1C23"/>
</g>
</g>
<defs>
<clipPath id="clip0_6505_29999">
<rect width="32" height="32" fill="white"/>
</clipPath>
</defs>
</svg>
