<svg xmlns="http://www.w3.org/2000/svg" width="16" height="16" viewBox="0 0 16 16" fill="none">
  <path
    d="M2.5 8V13.72C2.5 14.168 2.5 14.3921 2.58719 14.5632C2.66389 14.7137 2.78628 14.8361 2.93681 14.9128C3.10794 15 3.33196 15 3.78 15H12.22C12.668 15 12.8921 15 13.0632 14.9128C13.2137 14.8361 13.3361 14.7137 13.4128 14.5632C13.5 14.3921 13.5 14.168 13.5 13.72V8"
    stroke="currentColor" stroke-width="1.4" />
  <path
    d="M8.00015 8.5C6.61944 8.5 5.5 7.88071 5.5 6.5C5.5 7.60457 4.60472 8.5 3.50015 8.5C2.77798 8.5 2.1452 8.11724 1.79363 7.54352C1.4124 6.92141 1.58 6.14067 1.73828 5.42842L2.36094 2.62646C2.44228 2.26043 2.76693 2 3.14189 2H12.8598C13.2347 2 13.5594 2.26043 13.6407 2.62646L14.2634 5.42842C14.4217 6.14067 14.5893 6.92141 14.208 7.54352C13.8565 8.11724 13.2237 8.5 12.5015 8.5C11.397 8.5 10.5017 7.60457 10.5017 6.5C10.5017 7.88071 9.38224 8.5 8.00152 8.5"
    stroke="currentColor" stroke-width="1.4" />
  <rect x="4.7998" y="5.7998" width="1.4" height="1.4" rx="0.7" fill="currentColor" />
  <rect x="9.7998" y="5.7998" width="1.4" height="1.4" rx="0.7" fill="currentColor" />
</svg>
