<svg xmlns="http://www.w3.org/2000/svg" width="16" height="16" viewBox="0 0 16 16" fill="currentColor">
  <path
    d="M9.33333 4.79165L9.31727 4.76554L6.66667 6.39668V6C6.66667 5.26362 6.06971 4.66667 5.33333 4.66667L2.33333 4.66667C1.59695 4.66667 1 5.26362 1 6V10C1 10.7364 1.59695 11.3333 2.33333 11.3333H5.33333C6.06971 11.3333 6.66667 10.7364 6.66667 10V9.55469L9.33333 11.1184V13.6667C9.33333 14.403 9.93029 15 10.6667 15H13.6667C14.403 15 15 14.403 15 13.6667V10.6667C15 9.93029 14.403 9.33333 13.6667 9.33333H10.6667C10.2737 9.33333 9.92038 9.50336 9.67635 9.77387L6.66667 8.00902V7.96226L9.61229 6.14957C9.85619 6.46417 10.2378 6.66667 10.6667 6.66667H13.6667C14.403 6.66667 15 6.06971 15 5.33333V2.33333C15 1.59695 14.403 1 13.6667 1H10.6667C9.93029 1 9.33333 1.59695 9.33333 2.33333V4.79165Z"
    fill="currentColor" />
</svg>
