<svg width="16" height="16" viewBox="0 0 16 16" fill="none" xmlns="http://www.w3.org/2000/svg">
<g clip-path="url(#clip0_6630_28180)">
<rect width="16" height="16" fill="#4D53E8"/>
<path fill-rule="evenodd" clip-rule="evenodd" d="M3.08308 6.73795C3.2876 5.19559 4.53161 4.09102 6.0675 3.84254C6.63905 3.75007 7.29268 3.68494 8.00002 3.68494C8.70736 3.68494 9.36099 3.75007 9.93254 3.84254C11.4684 4.09102 12.7124 5.19558 12.9169 6.73791C12.9679 7.12251 13 7.55376 13 8.03013C13 8.64596 12.9464 9.18219 12.8676 9.63774C12.6425 10.9391 11.611 11.8792 10.3117 12.116C9.68458 12.2302 8.9108 12.3159 8.00002 12.3159C7.08925 12.3159 6.31547 12.2302 5.6883 12.116C4.38898 11.8792 3.35747 10.9391 3.1324 9.63769C3.05361 9.18216 3 8.64594 3 8.03013C3 7.55377 3.03208 7.12253 3.08308 6.73795ZM9.7832 8.3875C9.7832 7.99301 10.103 7.67322 10.4975 7.67322C10.892 7.67322 11.2118 7.99301 11.2118 8.3875V9.10178C11.2118 9.49626 10.892 9.81606 10.4975 9.81606C10.103 9.81606 9.7832 9.49626 9.7832 9.10178V8.3875ZM5.49749 7.67322C5.103 7.67322 4.7832 7.99301 4.7832 8.3875V9.10178C4.7832 9.49626 5.103 9.81606 5.49749 9.81606C5.89198 9.81606 6.21177 9.49626 6.21177 9.10177V8.3875C6.21177 7.99301 5.89198 7.67322 5.49749 7.67322Z" fill="white"/>
</g>
<defs>
<clipPath id="clip0_6630_28180">
<rect width="16" height="16" rx="4" fill="white"/>
</clipPath>
</defs>
</svg>
