<svg width="16" height="16" viewBox="0 0 1024 1024" fill="none" xmlns="http://www.w3.org/2000/svg">
  <rect width="1024" height="1024" rx="256" fill="#28CAC8" />
  <path
    d="M466.35008 752.82432l-209.6128-260.44416 64.99328-52.3264 209.6128 260.4544c45.78304 56.87296 130.78528 61.45024 182.40512 9.8304 47.93344-47.93344 47.93344-125.6448 0-173.57824l-47.4624-47.4624 59.00288-59.00288 47.4624 47.4624c80.51712 80.51712 80.51712 211.05664 0 291.57376-86.71232 86.72256-229.50912 79.02208-306.40128-16.50688z"
    fill="white" />
  <path d="M603.88352 564.55168l9.8304-245.82144 117.99552 117.99552-127.82592 127.82592z" fill="white" />
  <path
    d="M269.55776 426.88512a41.71776 41.71776 0 1 0-58.99264-58.99264 41.71776 41.71776 0 0 0 58.99264 58.99264z m39.33184 39.33184a97.34144 97.34144 0 1 0-137.65632-137.66656A97.34144 97.34144 0 0 0 308.8896 466.2272z"
    fill="white" />
</svg>
