<svg width="16" height="16" viewBox="0 0 16 16" fill="none" xmlns="http://www.w3.org/2000/svg">
<rect width="16" height="16" rx="4" fill="#33B0FF"/>
<path d="M4.64248 11.2101L4.17384 11.8808C3.94046 12.2147 4.18657 12.6663 4.60191 12.6663H7.89131C7.89131 12.6663 7.89294 12.6662 7.89598 12.6661C7.92105 12.6656 8.0417 12.6659 8.13215 12.6662L8.22214 12.6663C8.41041 12.6663 8.59608 12.6552 8.77852 12.6335L8.77963 12.6334C11.0941 12.3579 12.8888 10.3883 12.8888 7.99967C12.8888 7.36279 12.6763 6.48209 12.6666 6.45522C12.3845 5.67326 11.8943 4.98645 11.2606 4.45756C10.4441 3.75658 9.3826 3.33301 8.22214 3.33301C8.20773 3.33301 8.19333 3.33307 8.17895 3.3332C8.16415 3.33307 8.14934 3.33301 8.13451 3.33301C5.48285 3.33301 3.33325 5.42234 3.33325 7.99967C3.33325 8.08724 3.33573 8.17424 3.34063 8.26061C3.40195 9.40084 3.88564 10.4324 4.64248 11.2101ZM10.2221 7.11079C10.2221 7.33301 10.0503 7.55523 9.7777 7.55523H6.67527C6.39902 7.55523 6.22214 7.33301 6.22214 7.11079C6.22214 6.84342 6.44436 6.66634 6.66659 6.66634H9.7777C9.99992 6.66634 10.2221 6.84342 10.2221 7.11079ZM8.43915 8.44412C8.71346 8.44412 8.88881 8.66634 8.88881 8.88856C8.88881 9.11079 8.71346 9.33301 8.44436 9.33301H6.66659C6.44436 9.33301 6.22214 9.15602 6.22214 8.88856C6.22214 8.62111 6.44436 8.44412 6.66659 8.44412H8.43915Z" fill="white"/>
</svg>
