<svg xmlns="http://www.w3.org/2000/svg" width="16" height="16" viewBox="0 0 24 24" fill="none">
  <script xmlns="" />
  <g id="Frame 1321318260">
    <path id="Subtract" fill-rule="evenodd" clip-rule="evenodd"
      d="M2 4.81818C2 3.81403 2.81403 3 3.81818 3H20.1818C21.186 3 22 3.81403 22 4.81818V11.1581C20.8418 10.0467 19.2693 9.36359 17.5373 9.36359C15.793 9.36359 14.2105 10.0564 13.05 11.1818H5.63636C5.13429 11.1818 4.72727 11.5888 4.72727 12.0909C4.72727 12.593 5.13429 13 5.63636 13H11.734C11.3221 13.8493 11.091 14.8026 11.091 15.8098C11.091 17.1232 11.4838 18.3448 12.1583 19.3636H3.81818C2.81403 19.3636 2 18.5496 2 17.5455V4.81818ZM5.63636 6.63636C5.13429 6.63636 4.72727 7.04338 4.72727 7.54545C4.72727 8.04753 5.13429 8.45455 5.63636 8.45455H18.3636C18.8657 8.45455 19.2727 8.04753 19.2727 7.54545C19.2727 7.04338 18.8657 6.63636 18.3636 6.63636H5.63636Z"
      fill="url(#paint0_linear_701_40823)" />
    <path id="Union" fill-rule="evenodd" clip-rule="evenodd"
      d="M15.1818 16C15.1818 14.3432 16.525 13 18.1818 13C19.8386 13 21.1818 14.3432 21.1818 16C21.1818 17.6569 19.8386 19 18.1818 19C16.525 19 15.1818 17.6569 15.1818 16ZM18.1818 10.8182C15.32 10.8182 13 13.1382 13 16C13 18.8619 15.32 21.1818 18.1818 21.1818C19.2666 21.1818 20.2735 20.8485 21.1058 20.2787L21.9255 21.091C22.3954 21.5568 23.1574 21.5568 23.6273 21.091C24.0972 20.6253 24.0972 19.8702 23.6273 19.4045L22.7192 18.5046C23.1299 17.7622 23.3636 16.9084 23.3636 16C23.3636 13.1382 21.0436 10.8182 18.1818 10.8182Z"
      fill="url(#paint1_linear_701_40823)" />
  </g>
  <defs>
    <linearGradient id="paint0_linear_701_40823" x1="21.3565" y1="19.7821" x2="9.32245" y2="-0.0335543"
      gradientUnits="userSpaceOnUse">
      <stop stop-color="#3370FF" />
      <stop offset="0.997908" stop-color="#33A9FF" />
    </linearGradient>
    <linearGradient id="paint1_linear_701_40823" x1="23.6265" y1="21.712" x2="15.2847" y2="10.0951"
      gradientUnits="userSpaceOnUse">
      <stop stop-color="#3370FF" />
      <stop offset="0.997908" stop-color="#33A9FF" />
    </linearGradient>
  </defs>
  <script xmlns="" />
</svg>
