<svg width="16" height="16" viewBox="0 0 16 16" fill="none" xmlns="http://www.w3.org/2000/svg">
<rect width="16" height="16" rx="4" fill="#0075FF"/>
<path d="M11.7058 10.666V6.6268H12.6546V7.32413H12.6737C12.7994 6.83638 13.1348 6.54297 13.5997 6.54297C13.7178 6.54297 13.8283 6.56202 13.9007 6.58107V7.43845C13.8207 7.40796 13.6759 7.3851 13.5158 7.3851C12.9785 7.3851 12.6546 7.72424 12.6546 8.32249V10.666H11.7058Z" fill="#EBF5FF"/>
<path d="M8.75289 10.7346C7.94505 10.7346 7.40015 10.2354 7.40015 9.5152V9.50757C7.40015 8.79119 7.95649 8.3606 8.9358 8.29963L9.99132 8.23485V7.95668C9.99132 7.54895 9.72458 7.30127 9.24445 7.30127C8.79481 7.30127 8.52045 7.51085 8.45948 7.80807L8.45186 7.84237H7.57162L7.57543 7.79664C7.63259 7.08026 8.25371 6.54297 9.27875 6.54297C10.2885 6.54297 10.9401 7.07645 10.9401 7.88809V10.666H9.99132V10.0449H9.96846C9.73601 10.4678 9.28637 10.7346 8.75289 10.7346ZM8.34516 9.47709C8.34516 9.80861 8.61952 10.0106 9.03487 10.0106C9.57978 10.0106 9.99132 9.64856 9.99132 9.16844V8.86359L9.06917 8.92075C8.60047 8.95123 8.34516 9.15319 8.34516 9.47328V9.47709Z" fill="#EBF5FF"/>
<path d="M4.5686 10.6666L2.66333 5.16797H3.73409L5.12875 9.61869H5.14781L6.54628 5.16797H7.61704L5.70796 10.6666H4.5686Z" fill="#EBF5FF"/>
</svg>
