<svg width="20" height="20" viewBox="0 0 20 20" fill="none" xmlns="http://www.w3.org/2000/svg">
  <path
    d="M2.5 2.50004C2.5 1.57957 3.24619 0.833374 4.16667 0.833374H12.1548C12.3758 0.833374 12.5878 0.921171 12.7441 1.07745L17.2559 5.5893C17.4122 5.74558 17.5 5.95754 17.5 6.17855V17.5C17.5 18.4205 16.7538 19.1667 15.8333 19.1667H4.16667C3.24619 19.1667 2.5 18.4205 2.5 17.5V2.50004Z"
    fill="#336DF4" />
  <path
    d="M2.5 2.50004C2.5 1.57957 3.24619 0.833374 4.16667 0.833374H12.1548C12.3758 0.833374 12.5878 0.921171 12.7441 1.07745L17.2559 5.5893C17.4122 5.74558 17.5 5.95754 17.5 6.17855V17.5C17.5 18.4205 16.7538 19.1667 15.8333 19.1667H4.16667C3.24619 19.1667 2.5 18.4205 2.5 17.5V2.50004Z"
    fill="#35BD4B" />
  <path
    d="M5.625 7.43201H12.3864C13.4847 7.43201 14.375 8.32235 14.375 9.42064V16.182H7.61364C6.51534 16.182 5.625 15.2917 5.625 14.1934V7.43201ZM10.5638 8.62519V11.2104H13.1818V9.42064C13.1818 8.98133 12.8257 8.62519 12.3864 8.62519H10.5638ZM9.37066 8.62519H6.81818V11.2104H9.37066V8.62519ZM6.81818 12.4036V14.1934C6.81818 14.6327 7.17432 14.9888 7.61364 14.9888H9.37066V12.4036H6.81818ZM10.5638 14.9888H13.1818V12.4036H10.5638V14.9888Z"
    fill="white" />
  <path opacity="0.7"
    d="M12.5 1.23574C12.5 1.08726 12.6795 1.0129 12.7845 1.11789L17.2155 5.54886C17.3205 5.65385 17.2461 5.83337 17.0976 5.83337H14.1667C13.2462 5.83337 12.5 5.08718 12.5 4.16671V1.23574Z"
    fill="#298C38" />
</svg>
