<svg width="20" height="20" viewBox="0 0 20 20" fill="none" xmlns="http://www.w3.org/2000/svg">
  <path
    d="M2.5 2.50004C2.5 1.57957 3.24619 0.833374 4.16667 0.833374H12.1548C12.3758 0.833374 12.5878 0.921171 12.7441 1.07745L17.2559 5.5893C17.4122 5.74558 17.5 5.95754 17.5 6.17855V17.5C17.5 18.4205 16.7538 19.1667 15.8333 19.1667H4.16667C3.24619 19.1667 2.5 18.4205 2.5 17.5V2.50004Z"
    fill="#336DF4" />
  <path
    d="M2.5 2.50004C2.5 1.57957 3.24619 0.833374 4.16667 0.833374H12.1548C12.3758 0.833374 12.5878 0.921171 12.7441 1.07745L17.2559 5.5893C17.4122 5.74558 17.5 5.95754 17.5 6.17855V17.5C17.5 18.4205 16.7538 19.1667 15.8333 19.1667H4.16667C3.24619 19.1667 2.5 18.4205 2.5 17.5V2.50004Z"
    fill="#336DF4" />
  <path
    d="M5.83203 13.5773C5.83203 13.2321 6.11185 12.9523 6.45703 12.9523H11.0404C11.3855 12.9523 11.6654 13.2321 11.6654 13.5773C11.6654 13.9224 11.3855 14.2023 11.0404 14.2023H6.45703C6.11185 14.2023 5.83203 13.9224 5.83203 13.5773Z"
    fill="white" />
  <path
    d="M6.45703 9.20227C6.11185 9.20227 5.83203 9.48209 5.83203 9.82727C5.83203 10.1724 6.11185 10.4523 6.45703 10.4523H13.5404C13.8855 10.4523 14.1654 10.1724 14.1654 9.82727C14.1654 9.48209 13.8855 9.20227 13.5404 9.20227H6.45703Z"
    fill="white" />
  <path opacity="0.7"
    d="M12.5 1.23574C12.5 1.08726 12.6795 1.0129 12.7845 1.11789L17.2155 5.54886C17.3205 5.65385 17.2461 5.83337 17.0976 5.83337H14.1667C13.2462 5.83337 12.5 5.08718 12.5 4.16671V1.23574Z"
    fill="#0442D2" />
</svg>
