<svg width="14" height="14" viewBox="0 0 14 14" fill="none" xmlns="http://www.w3.org/2000/svg">
<g id="icon_cross">
<path id="Union" d="M11.8161 11.8161C12.0439 11.5883 12.0456 11.2206 11.8178 10.9928L7.82498 6.99999L11.8177 3.00723C12.0456 2.77942 12.0439 2.41173 11.8161 2.18392C11.5883 1.95612 11.2206 1.95447 10.9928 2.18227C10.765 2.41008 7.00002 6.17504 7.00002 6.17504L3.00723 2.18224C2.77942 1.95443 2.41172 1.95608 2.18392 2.18389C1.95611 2.4117 1.95446 2.77939 2.18227 3.0072L6.17507 7L2.18224 10.9928C1.95443 11.2206 1.95608 11.5883 2.18389 11.8161C2.41169 12.0439 2.77939 12.0456 3.0072 11.8178L7.00002 7.82495L10.9928 11.8177C11.2206 12.0456 11.5883 12.0439 11.8161 11.8161Z" fill="#060709" fill-opacity="0.5"/>
</g>
</svg>
