<svg width="14" height="14" viewBox="0 0 14 14" fill="none" xmlns="http://www.w3.org/2000/svg">
<path d="M1.70833 1.75C1.38617 1.75 1.125 2.01117 1.125 2.33333C1.125 2.6555 1.38617 2.91667 1.70833 2.91667H12.2917C12.6138 2.91667 12.875 2.6555 12.875 2.33333C12.875 2.01117 12.6138 1.75 12.2917 1.75H1.70833Z" fill="#060709" fill-opacity="0.5"/>
<path d="M1.70833 6.41667C1.38617 6.41667 1.125 6.67783 1.125 7C1.125 7.32217 1.38617 7.58333 1.70833 7.58333H12.2917C12.6138 7.58333 12.875 7.32217 12.875 7C12.875 6.67783 12.6138 6.41667 12.2917 6.41667H1.70833Z" fill="#060709" fill-opacity="0.5"/>
<path d="M1.125 11.6667C1.125 11.3445 1.38617 11.0833 1.70833 11.0833H12.2917C12.6138 11.0833 12.875 11.3445 12.875 11.6667C12.875 11.9888 12.6138 12.25 12.2917 12.25H1.70833C1.38617 12.25 1.125 11.9888 1.125 11.6667Z" fill="#060709" fill-opacity="0.5"/>
</svg>
