<svg width="14" height="15" viewBox="0 0 14 15" fill="none" xmlns="http://www.w3.org/2000/svg">
<g id="icon_more">
<g id="Union">
<path d="M3.20841 7.35482C3.20841 7.91861 2.75137 8.37565 2.18758 8.37565C1.62379 8.37565 1.16675 7.91861 1.16675 7.35482C1.16675 6.79103 1.62379 6.33398 2.18758 6.33398C2.75137 6.33398 3.20841 6.79103 3.20841 7.35482Z" fill="currentColor" fill-opacity="0.5"/>
<path d="M8.00656 7.35482C8.00656 7.91861 7.54951 8.37565 6.98572 8.37565C6.42193 8.37565 5.96489 7.91861 5.96489 7.35482C5.96489 6.79103 6.42193 6.33398 6.98572 6.33398C7.54951 6.33398 8.00656 6.79103 8.00656 7.35482Z" fill="currentColor" fill-opacity="0.5"/>
<path d="M12.8334 7.35482C12.8334 7.91861 12.3764 8.37565 11.8126 8.37565C11.2488 8.37565 10.7917 7.91861 10.7917 7.35482C10.7917 6.79103 11.2488 6.33398 11.8126 6.33398C12.3764 6.33398 12.8334 6.79103 12.8334 7.35482Z" fill="currentColor" fill-opacity="0.5"/>
</g>
</g>
</svg>
