<svg width="14" height="14" viewBox="0 0 14 14" fill="none" xmlns="http://www.w3.org/2000/svg">
<path d="M11.2311 1.54339C11.5728 1.20168 12.1268 1.20168 12.4685 1.54339C12.8102 1.8851 12.8102 2.43912 12.4685 2.78083L11.8498 3.39955L10.6123 2.16211L11.2311 1.54339Z" fill="#060709" fill-opacity="0.5"/>
<path d="M9.99793 2.77652L11.2354 4.01396L6.67495 8.57437C6.55308 8.69625 6.39615 8.77697 6.22612 8.80524L5.12309 8.98866C5.09158 8.99391 5.05948 8.98361 5.03689 8.96102C5.01401 8.93814 5.00376 8.90553 5.00944 8.87367L5.20526 7.77585C5.23446 7.61212 5.31317 7.46128 5.43077 7.34368L9.99793 2.77652Z" fill="#060709" fill-opacity="0.5"/>
<path d="M7.87508 1.7496H2.33341C1.68908 1.7496 1.16675 2.27194 1.16675 2.91627V11.6663C1.16675 12.3106 1.68908 12.8329 2.33341 12.8329H11.0834C11.7277 12.8329 12.2501 12.3106 12.2501 11.6663V5.83294L11.0834 6.9996V11.6663H2.33341V2.91627H6.70841L7.87508 1.7496Z" fill="#060709" fill-opacity="0.5"/>
</svg>
