<svg width="14" height="14" viewBox="0 0 14 14" fill="none" xmlns="http://www.w3.org/2000/svg">
<g id="top_panel_close">
<mask id="mask0_6574_47635" style="mask-type:alpha" maskUnits="userSpaceOnUse" x="0" y="0" width="14" height="14">
<rect id="Bounding box" width="14" height="14" fill="#D9D9D9"/>
</mask>
<g mask="url(#mask0_6574_47635)">
<path id="top_panel_close_2" d="M7 7.29167L4.66667 9.625H9.33333L7 7.29167ZM2.91667 12.25C2.59583 12.25 2.32118 12.1358 2.09271 11.9073C1.86424 11.6788 1.75 11.4042 1.75 11.0833V2.91667C1.75 2.59583 1.86424 2.32118 2.09271 2.09271C2.32118 1.86424 2.59583 1.75 2.91667 1.75H11.0833C11.4042 1.75 11.6788 1.86424 11.9073 2.09271C12.1358 2.32118 12.25 2.59583 12.25 2.91667V11.0833C12.25 11.4042 12.1358 11.6788 11.9073 11.9073C11.6788 12.1358 11.4042 12.25 11.0833 12.25H2.91667ZM11.0833 4.66667V2.91667H2.91667V4.66667H11.0833ZM2.91667 5.83333V11.0833H11.0833V5.83333H2.91667Z" fill="#060709" fill-opacity="0.5"/>
</g>
</g>
</svg>
