<svg width="12" height="12" viewBox="0 0 12 12" fill="none" xmlns="http://www.w3.org/2000/svg">
    <path d="M4.375 3.25C4.85825 3.25 5.25 2.85825 5.25 2.375C5.25 1.89175 4.85825 1.5 4.375 1.5C3.89175 1.5 3.5 1.89175 3.5 2.375C3.5 2.85825 3.89175 3.25 4.375 3.25Z" fill="#060709" fill-opacity="0.3"/>
    <path d="M4.375 6.875C4.85825 6.875 5.25 6.48325 5.25 6C5.25 5.51675 4.85825 5.125 4.375 5.125C3.89175 5.125 3.5 5.51675 3.5 6C3.5 6.48325 3.89175 6.875 4.375 6.875Z" fill="#060709" fill-opacity="0.3"/>
    <path d="M5.25 9.625C5.25 10.1082 4.85825 10.5 4.375 10.5C3.89175 10.5 3.5 10.1082 3.5 9.625C3.5 9.14175 3.89175 8.75 4.375 8.75C4.85825 8.75 5.25 9.14175 5.25 9.625Z" fill="#060709" fill-opacity="0.3"/>
    <path d="M7.62671 3.25C8.10996 3.25 8.50171 2.85825 8.50171 2.375C8.50171 1.89175 8.10996 1.5 7.62671 1.5C7.14346 1.5 6.75171 1.89175 6.75171 2.375C6.75171 2.85825 7.14346 3.25 7.62671 3.25Z" fill="#060709" fill-opacity="0.3"/>
    <path d="M8.5 6C8.5 6.48325 8.10825 6.875 7.625 6.875C7.14175 6.875 6.75 6.48325 6.75 6C6.75 5.51675 7.14175 5.125 7.625 5.125C8.10825 5.125 8.5 5.51675 8.5 6Z" fill="#060709" fill-opacity="0.3"/>
    <path d="M7.62671 10.5C8.10996 10.5 8.50171 10.1082 8.50171 9.625C8.50171 9.14175 8.10996 8.75 7.62671 8.75C7.14346 8.75 6.75171 9.14175 6.75171 9.625C6.75171 10.1082 7.14346 10.5 7.62671 10.5Z" fill="#060709" fill-opacity="0.3"/>
</svg>
