<svg width="14" height="14" viewBox="0 0 14 14" fill="none" xmlns="http://www.w3.org/2000/svg">
<path d="M4.66675 2.33366C4.66675 1.68933 5.18908 1.16699 5.83341 1.16699H8.16675C8.81108 1.16699 9.33341 1.68933 9.33341 2.33366H12.2501C12.5722 2.33366 12.8334 2.59483 12.8334 2.91699C12.8334 3.23916 12.5722 3.50033 12.2501 3.50033H11.6667C11.6667 6.22255 11.6667 8.94477 11.6667 11.667C11.6667 12.3113 11.1444 12.8337 10.5001 12.8337H3.50008C2.85575 12.8337 2.33341 12.3113 2.33341 11.667C2.33341 8.94477 2.33341 6.22255 2.33341 3.50033H1.75008C1.42792 3.50033 1.16675 3.23916 1.16675 2.91699C1.16675 2.59483 1.42792 2.33366 1.75008 2.33366H4.66675ZM3.50008 3.50033V11.667H10.5001V3.50033H3.50008ZM5.83341 5.25033C6.15558 5.25033 6.41675 5.51149 6.41675 5.83366V9.33366C6.41675 9.65582 6.15558 9.91699 5.83341 9.91699C5.51125 9.91699 5.25008 9.65582 5.25008 9.33366V5.83366C5.25008 5.51149 5.51125 5.25033 5.83341 5.25033ZM8.16675 5.25033C8.48891 5.25033 8.75008 5.51149 8.75008 5.83366V9.33366C8.75008 9.65582 8.48891 9.91699 8.16675 9.91699C7.84458 9.91699 7.58341 9.65582 7.58341 9.33366V5.83366C7.58341 5.51149 7.84458 5.25033 8.16675 5.25033Z" fill="#060709" fill-opacity="0.5"/>
</svg>
