<svg width="12" height="12" viewBox="0 0 12 12" fill="none" xmlns="http://www.w3.org/2000/svg">
    <path d="M8.99805 10.4023V9.40234H10.998V8.40234H8.99805V7.40234L7.49805 8.90234L8.99805 10.4023Z" fill="#060709" fill-opacity="0.3"/>
    <path d="M1.94727 1.5H8.94727C9.49727 1.5 9.94727 1.95 9.94727 2.5V6.80859H8.94727V6.5H5.94727V8.5H6.24727V9.5H1.94727C1.39727 9.5 0.947266 9.05 0.947266 8.5V2.5C0.947266 1.95 1.39727 1.5 1.94727 1.5ZM5.94727 5.5H8.94727V3.5H5.94727V5.5ZM1.94727 8.5H4.94727V6.5H1.94727V8.5ZM1.94727 5.5H4.94727V3.5H1.94727V5.5Z" fill="#060709" fill-opacity="0.3"/>
</svg>
