<svg width="32" height="40" viewBox="0 0 32 40" fill="none" xmlns="http://www.w3.org/2000/svg">
<g id="icon">
<path id="Rectangle 2528" d="M1 4.99984C1 3.15889 2.49238 1.6665 4.33333 1.6665H20.3096C20.7517 1.6665 21.1756 1.8421 21.4882 2.15466L30.5118 11.1783C30.8244 11.4909 31 11.9148 31 12.3569V34.9998C31 36.8408 29.5076 38.3332 27.6667 38.3332H4.33333C2.49238 38.3332 1 36.8408 1 34.9998V4.99984Z" fill="#C6C6CD"/>
<path id="Rectangle 2529" opacity="0.7" d="M21 2.27006C21 2.04733 21.2693 1.93579 21.4268 2.09328L30.5732 11.2397C30.7307 11.3972 30.6192 11.6665 30.3964 11.6665H24.3333C22.4924 11.6665 21 10.1741 21 8.33317V2.27006Z" fill="#A7A7B0"/>
<path id="&#229;&#144;&#136;&#229;&#185;&#182;&#229;&#189;&#162;&#231;&#138;&#182;" d="M21.7169 15.8335C22.2429 15.8335 22.6693 16.2532 22.6693 16.771V29.896C22.6693 30.4138 22.2429 30.8335 21.7169 30.8335H10.2883C9.76233 30.8335 9.33594 30.4138 9.33594 29.896V16.771C9.33594 16.2532 9.76233 15.8335 10.2883 15.8335H21.7169ZM17.9074 26.146H14.0978V29.4272H17.9074V26.146ZM16.955 27.0835V28.1683H15.0502V27.0835H16.955ZM17.9513 19.5835H16.0026V21.4585H14.0978V23.3335H16.0026V25.2085H17.9513V23.3335H16.0465V21.4585H17.9513V19.5835ZM16.0026 17.7085H14.0978V19.5835H16.0026V17.7085Z" fill="white"/>
</g>
</svg>
