<svg width="32" height="40" viewBox="0 0 32 40" fill="none" xmlns="http://www.w3.org/2000/svg">
<g id="icon">
<path id="Rectangle 2528" d="M1 5.00008C1 3.15913 2.49238 1.66675 4.33333 1.66675H20.3096C20.7517 1.66675 21.1756 1.84234 21.4882 2.1549L30.5118 11.1786C30.8244 11.4912 31 11.9151 31 12.3571V35.0001C31 36.841 29.5076 38.3334 27.6667 38.3334H4.33333C2.49238 38.3334 1 36.841 1 35.0001V5.00008Z" fill="#336DF4"/>
<path id="Rectangle 2529" opacity="0.7" d="M21 2.2703C21 2.04757 21.2693 1.93603 21.4268 2.09352L30.5732 11.24C30.7307 11.3975 30.6192 11.6667 30.3964 11.6667H24.3333C22.4924 11.6667 21 10.1744 21 8.33341V2.2703Z" fill="#0442D2"/>
<path id="&#229;&#144;&#136;&#229;&#185;&#182;&#229;&#189;&#162;&#231;&#138;&#182;" d="M21.7169 15.8335C22.2429 15.8335 22.6693 16.2532 22.6693 16.771V29.896C22.6693 30.4138 22.2429 30.8335 21.7169 30.8335H10.2883C9.76233 30.8335 9.33594 30.4138 9.33594 29.896V16.771C9.33594 16.2532 9.76233 15.8335 10.2883 15.8335H21.7169ZM17.9074 26.146H14.0978V29.4272H17.9074V26.146ZM16.955 27.0835V28.1683H15.0502V27.0835H16.955ZM17.9513 19.5835H16.0026V21.4585H14.0978V23.3335H16.0026V25.2085H17.9513V23.3335H16.0465V21.4585H17.9513V19.5835ZM16.0026 17.7085H14.0978V19.5835H16.0026V17.7085Z" fill="white"/>
</g>
</svg>
