<svg width="32" height="40" viewBox="0 0 32 40" fill="none" xmlns="http://www.w3.org/2000/svg">
<g id="icon">
<path id="Rectangle 2526" d="M1 4.99996C1 3.15901 2.49238 1.66663 4.33333 1.66663H20.3096C20.7517 1.66663 21.1756 1.84222 21.4882 2.15478L30.5118 11.1785C30.8244 11.491 31 11.915 31 12.357V35C31 36.8409 29.5076 38.3333 27.6667 38.3333H4.33333C2.49238 38.3333 1 36.8409 1 35V4.99996Z" fill="#32A645"/>
<path id="Rectangle 2527" opacity="0.9" d="M21 2.27018C21 2.04745 21.2693 1.93591 21.4268 2.0934L30.5732 11.2398C30.7307 11.3973 30.6192 11.6666 30.3964 11.6666H24.3333C22.4924 11.6666 21 10.1742 21 8.33329V2.27018Z" fill="#258832"/>
<path id="music_note" d="M13.0833 31.25C12.1667 31.25 11.3819 30.9236 10.7292 30.2708C10.0764 29.6181 9.75 28.8333 9.75 27.9167C9.75 27 10.0764 26.2153 10.7292 25.5625C11.3819 24.9097 12.1667 24.5833 13.0833 24.5833C13.4028 24.5833 13.6979 24.6215 13.9688 24.6979C14.2396 24.7743 14.5 24.8889 14.75 25.0417V17.5C14.75 16.8096 15.3096 16.25 16 16.25H21V18.75H17.0417C16.6965 18.75 16.4167 19.0298 16.4167 19.375V27.9167C16.4167 28.8333 16.0903 29.6181 15.4375 30.2708C14.7847 30.9236 14 31.25 13.0833 31.25Z" fill="white"/>
</g>
</svg>
