<svg width="32" height="40" viewBox="0 0 32 40" fill="none" xmlns="http://www.w3.org/2000/svg">
<g id="icon">
<path id="Rectangle 2528" d="M1 4.99984C1 3.15889 2.49238 1.6665 4.33333 1.6665H20.3096C20.7517 1.6665 21.1756 1.8421 21.4882 2.15466L30.5118 11.1783C30.8244 11.4909 31 11.9148 31 12.3569V34.9998C31 36.8408 29.5076 38.3332 27.6667 38.3332H4.33333C2.49238 38.3332 1 36.8408 1 34.9998V4.99984Z" fill="#C6C6CD"/>
<path id="Rectangle 2529" opacity="0.7" d="M21 2.27006C21 2.04733 21.2693 1.93579 21.4268 2.09328L30.5732 11.2397C30.7307 11.3972 30.6192 11.6665 30.3964 11.6665H24.3333C22.4924 11.6665 21 10.1741 21 8.33317V2.27006Z" fill="#A7A7B0"/>
<path id="icon_file_code_nor" d="M13.1583 19.1273L8.94653 23.5605L13.1583 27.9936C13.3094 28.1527 13.3067 28.4078 13.1523 28.5635L13.1506 28.5652L12.5848 29.1289C12.4301 29.2831 12.1836 29.2796 12.033 29.1211L7.01788 23.8423C6.86904 23.6857 6.86904 23.4352 7.01788 23.2786L12.033 17.9998C12.1836 17.8414 12.4301 17.8379 12.5848 17.992L13.1506 18.5558C13.306 18.7105 13.3101 18.9657 13.1598 19.1257L13.1583 19.1273ZM23.1935 23.5605L19.2826 19.1273C19.1423 18.9683 19.1448 18.7131 19.2882 18.5574L19.2897 18.5558L19.8152 17.992C19.9588 17.8379 20.1877 17.8414 20.3275 17.9998L24.9844 23.2786C25.1226 23.4352 25.1226 23.6857 24.9844 23.8423L20.3275 29.1211C20.1877 29.2796 19.9588 29.2831 19.8152 29.1289L19.2897 28.5652C19.1455 28.4104 19.1416 28.1552 19.2812 27.9952L19.2826 27.9936L23.1935 23.5605ZM17.0448 15.1539L17.8645 15.2418C18.0882 15.2658 18.2487 15.4536 18.2228 15.6611L16.2662 31.1805C16.2401 31.3879 16.0378 31.5364 15.8143 31.5125L14.9946 31.4246C14.7708 31.4006 14.6104 31.2128 14.6363 31.0052L16.5928 15.4858C16.619 15.2785 16.8212 15.1299 17.0448 15.1539Z" fill="white"/>
</g>
</svg>
