<svg width="32" height="40" viewBox="0 0 32 40" fill="none" xmlns="http://www.w3.org/2000/svg">
<g id="icon">
<path id="Rectangle 2526" d="M1 4.99997C1 3.15902 2.49238 1.66664 4.33333 1.66664H20.3096C20.7517 1.66664 21.1756 1.84224 21.4882 2.1548L30.5118 11.1785C30.8244 11.491 31 11.915 31 12.357V35C31 36.8409 29.5076 38.3333 27.6667 38.3333H4.33333C2.49238 38.3333 1 36.8409 1 35V4.99997Z" fill="#C6C6CD"/>
<path id="Rectangle 2527" opacity="0.9" d="M21 2.27019C21 2.04747 21.2693 1.93593 21.4268 2.09342L30.5732 11.2399C30.7307 11.3974 30.6192 11.6666 30.3964 11.6666H24.3333C22.4924 11.6666 21 10.1743 21 8.33331V2.27019Z" fill="#A7A7B0"/>
<path id="C" d="M16.1282 17.4213C17.6321 17.4213 18.8674 17.9108 19.8342 18.7523C20.3043 19.1577 20.7116 19.8654 20.9997 20.4667C21.247 20.9829 20.8541 21.544 20.2818 21.544H19.9622C19.6618 21.544 19.3856 21.3818 19.2195 21.1315C18.9874 20.7818 18.6288 20.2981 18.2766 20.0474C17.7037 19.6267 16.9696 19.4047 16.0744 19.4047C14.7317 19.4047 13.729 19.9135 13.0487 20.9079C12.4221 21.7875 12.0357 22.9957 12.0357 24.5638C12.0357 26.1701 12.4221 27.4288 13.0308 28.2893C13.6932 29.2072 14.7317 29.7673 16.1282 29.7673C17.0412 29.7673 17.7932 29.4367 18.3661 28.9777C18.7224 28.6756 19.0418 28.1042 19.2455 27.6822C19.3954 27.3717 19.7036 27.159 20.0483 27.159H20.4217C20.9677 27.159 21.3582 27.6737 21.1626 28.1835C20.8809 28.9174 20.4299 29.8634 19.8342 30.3767C18.7694 31.2941 17.9221 31.6579 16.1282 31.7062C14.0681 31.7617 12.4221 30.9283 11.3836 29.5132C10.4705 28.2893 10.0229 26.6448 10.0229 24.5795C10.0229 22.5525 10.4884 20.8888 11.4374 19.6267C12.5116 18.1733 14.0871 17.4213 16.1282 17.4213Z" fill="white"/>
</g>
</svg>
