<svg width="32" height="40" viewBox="0 0 32 40" fill="none" xmlns="http://www.w3.org/2000/svg">
<g id="icon">
<path id="Rectangle 2530" opacity="0.9" d="M1 4.99984C1 3.15889 2.49238 1.6665 4.33333 1.6665H20.3096C20.7517 1.6665 21.1756 1.8421 21.4882 2.15466L30.5118 11.1783C30.8244 11.4909 31 11.9148 31 12.3569V34.9998C31 36.8408 29.5076 38.3332 27.6667 38.3332H4.33333C2.49238 38.3332 1 36.8408 1 34.9998V4.99984Z" fill="#C6C6CD"/>
<path id="Rectangle 2531" opacity="0.6" d="M21 2.27006C21 2.04733 21.2693 1.93579 21.4268 2.09328L30.5732 11.2397C30.7307 11.3972 30.6192 11.6665 30.3964 11.6665H24.3333C22.4924 11.6665 21 10.1741 21 8.33317V2.27006Z" fill="#A7A7B0"/>
<path id="&#239;&#188;&#159;" d="M19.817 16.4407C18.9075 15.579 17.7137 15.1514 16.2292 15.1514C14.5615 15.1514 13.2546 15.686 12.3077 16.775C11.5055 17.7108 11.0734 18.6077 11.0116 20.0217C11.0101 20.055 11.0089 20.1162 11.0079 20.187C11.0045 20.4179 11.1919 20.6059 11.4229 20.6059H12.408C12.6371 20.6059 12.8227 20.4209 12.8264 20.1918C12.8276 20.1228 12.8289 20.0633 12.8305 20.0315C12.8789 19.0547 13.1337 18.5436 13.5885 17.9752C14.1626 17.2098 15.0048 16.8332 16.161 16.8332C17.1928 16.8332 17.9663 17.0963 18.5003 17.6303C19.0092 18.1605 19.2746 18.8823 19.2746 19.7877C19.2746 20.4058 19.0506 20.9945 18.5952 21.58C18.4502 21.7613 18.2412 21.977 17.5685 22.6498C16.5057 23.579 15.8493 24.3349 15.5025 25.078C15.2174 25.648 15.0721 26.2959 15.0721 26.9923V27.462C15.0721 27.6921 15.2586 27.8786 15.4888 27.8786H16.4963C16.7264 27.8786 16.913 27.6921 16.913 27.462V26.9923C16.913 26.4021 17.0583 25.8728 17.3593 25.3568C17.5847 24.9736 17.8742 24.673 18.3788 24.2315C19.3906 23.3161 19.9519 22.7708 20.2033 22.4509C20.8072 21.6538 21.1155 20.7409 21.1155 19.7423C21.1155 18.3641 20.6829 17.2584 19.817 16.4407ZM15.5115 29.6968C15.2814 29.6968 15.0948 29.8834 15.0948 30.1135V31.0983C15.0948 31.3285 15.2814 31.515 15.5115 31.515H16.4963C16.7265 31.515 16.913 31.3285 16.913 31.0983V30.1135C16.913 29.8834 16.7265 29.6968 16.4963 29.6968H15.5115Z" fill="white"/>
</g>
</svg>
