<svg width="32" height="40" viewBox="0 0 32 40" fill="none" xmlns="http://www.w3.org/2000/svg">
<g id="icon">
<path id="Rectangle 2528" d="M4 4.99997C4 3.15902 5.19391 1.66664 6.66667 1.66664H19.4477C19.8013 1.66664 20.1405 1.84224 20.3905 2.1548L27.6095 11.1785C27.8595 11.491 28 11.915 28 12.357V35C28 36.8409 26.8061 38.3333 25.3333 38.3333H6.66667C5.19391 38.3333 4 36.8409 4 35V4.99997Z" fill="#336DF4"/>
<path id="Rectangle 2530" d="M1 4.99997C1 3.15902 2.49238 1.66664 4.33333 1.66664H20.3096C20.7517 1.66664 21.1756 1.84224 21.4882 2.1548L30.5118 11.1785C30.8244 11.491 31 11.915 31 12.357V35C31 36.8409 29.5076 38.3333 27.6667 38.3333H4.33333C2.49238 38.3333 1 36.8409 1 35V4.99997Z" fill="#C6C6CD"/>
<path id="Rectangle 2531" opacity="0.7" d="M21 2.27019C21 2.04747 21.2693 1.93593 21.4268 2.09342L30.5732 11.2399C30.7307 11.3974 30.6192 11.6666 30.3964 11.6666H24.3333C22.4924 11.6666 21 10.1743 21 8.33331V2.27019Z" fill="#A7A7B0"/>
<path id="icon_file_word_nor" d="M16.0074 20.4158L13.5499 29.51C13.52 29.6204 13.4199 29.697 13.3056 29.697H11.8581C11.7449 29.697 11.6455 29.6219 11.6147 29.513L8.2821 17.7463C8.24402 17.6119 8.32215 17.472 8.45662 17.4339C8.47905 17.4275 8.50226 17.4243 8.52557 17.4243H9.97719C10.0926 17.4243 10.1933 17.5023 10.2222 17.614L12.5937 26.7863L15.0564 17.6118C15.086 17.5012 15.1863 17.4243 15.3008 17.4243H16.7153C16.8299 17.4243 16.9302 17.5014 16.9598 17.6121L19.4067 26.784L21.7776 17.614C21.8064 17.5023 21.9072 17.4243 22.0226 17.4243H23.4742C23.6139 17.4243 23.7272 17.5376 23.7272 17.6774C23.7272 17.7007 23.724 17.7239 23.7177 17.7463L20.3851 29.513C20.3542 29.6219 20.2548 29.697 20.1416 29.697H18.6942C18.5797 29.697 18.4795 29.6202 18.4498 29.5096L16.0074 20.4158Z" fill="white"/>
</g>
</svg>
