<svg width="32" height="40" viewBox="0 0 32 40" fill="none" xmlns="http://www.w3.org/2000/svg">
<g id="icon">
<path id="Rectangle 2526" d="M1 4.99997C1 3.15902 2.49238 1.66664 4.33333 1.66664H20.3096C20.7517 1.66664 21.1756 1.84224 21.4882 2.1548L30.5118 11.1785C30.8244 11.491 31 11.915 31 12.357V35C31 36.8409 29.5076 38.3333 27.6667 38.3333H4.33333C2.49238 38.3333 1 36.8409 1 35V4.99997Z" fill="#C6C6CD"/>
<path id="Rectangle 2527" d="M21 2.27019C21 2.04747 21.2693 1.93593 21.4268 2.09342L30.5732 11.2399C30.7307 11.3974 30.6192 11.6666 30.3964 11.6666H24.3333C22.4924 11.6666 21 10.1743 21 8.33331V2.27019Z" fill="#A7A7B0"/>
<path id="icon_file_pdf_nor" d="M25.2516 25.9184C24.8379 25.4341 23.9896 25.1986 22.6583 25.1986C21.8845 25.1986 20.8185 25.2181 19.7472 25.3771C16.821 23.2676 16.1352 21.0015 16.1352 21.0015C16.1352 21.0015 16.635 19.7471 16.6667 17.6982C16.6868 16.403 16.4814 15.437 15.9578 15.0218C15.7347 14.8449 15.4108 14.697 15.0848 14.697C14.8303 14.697 14.592 14.7707 14.3967 14.9115C12.8756 16.009 14.5363 21.1828 14.5808 21.3207C13.8629 23.0626 12.9586 24.9081 12.0279 26.5297C11.7255 27.0565 11.7255 27.0667 11.5223 27.3059C11.5223 27.3059 8.85954 28.6265 7.61092 30.0907C6.90544 30.9181 6.88254 31.4861 6.92 31.9118C6.98036 32.4223 7.63116 32.8788 8.28633 32.8788C8.3135 32.8788 8.34084 32.878 8.36762 32.8763C9.03349 32.8358 9.77415 32.6526 10.5983 31.873C11.195 31.3086 11.866 29.7758 12.7286 28.276C15.2034 27.5818 17.3814 27.0874 19.2066 26.8055C20.5451 27.5157 22.5366 28.3201 23.8922 28.3201C24.3469 28.3201 24.7128 28.2287 24.9795 28.0484C25.2986 27.8328 25.4341 27.5641 25.5183 27.0667C25.6025 26.5693 25.4853 26.1921 25.2516 25.9184ZM22.342 26.697C23.578 26.697 24.2472 26.9151 24.591 27.098C24.697 27.1544 24.7742 27.2089 24.8289 27.2543C24.732 27.3294 24.5414 27.4243 24.1971 27.4243C23.626 27.4243 22.8765 27.1823 21.9623 26.7036C22.0924 26.6992 22.219 26.697 22.342 26.697ZM15.2432 15.7931L15.2453 15.7879C15.4383 15.93 15.5284 16.9281 15.5103 17.5068C15.486 18.2834 15.4802 18.5835 15.3827 19.0606C15.1185 18.0659 15.0997 16.2779 15.2432 15.7931ZM15.3042 23.0606C15.907 24.0536 16.6715 25.0591 17.5328 25.827C15.8516 26.1874 14.4556 26.5181 13.4512 26.8696C14.5278 25.005 15.2335 23.2454 15.3042 23.0606ZM8.51592 31.4738C8.66804 31.2488 9.08367 30.8128 10.1377 29.9697C9.57203 31.2728 8.93672 31.4738 8.34612 31.7878C8.39069 31.6845 8.44678 31.5761 8.51592 31.4738Z" fill="white"/>
</g>
</svg>
