<svg width="32" height="40" viewBox="0 0 32 40" fill="none" xmlns="http://www.w3.org/2000/svg">
<g id="icon">
<path id="Rectangle 2530" d="M1 4.99984C1 3.15889 2.49238 1.6665 4.33333 1.6665H20.3096C20.7517 1.6665 21.1756 1.8421 21.4882 2.15466L30.5118 11.1783C30.8244 11.4909 31 11.9148 31 12.3569V34.9998C31 36.8408 29.5076 38.3332 27.6667 38.3332H4.33333C2.49238 38.3332 1 36.8408 1 34.9998V4.99984Z" fill="#C6C6CD"/>
<path id="Rectangle 2531" opacity="0.8" d="M21 2.27006C21 2.04733 21.2693 1.93579 21.4268 2.09328L30.5732 11.2397C30.7307 11.3972 30.6192 11.6665 30.3964 11.6665H24.3333C22.4924 11.6665 21 10.1741 21 8.33317V2.27006Z" fill="#A7A7B0"/>
<path id="Subtract" d="M13.3038 30.8251V24.8477H16.1402C16.8218 24.8477 17.5001 24.7878 18.1749 24.668C18.8621 24.546 19.479 24.3316 20.0243 24.0244C20.5793 23.7117 21.032 23.2837 21.3799 22.7429C21.7332 22.1938 21.9077 21.5053 21.9077 20.6814C21.9077 20.1383 21.8345 19.6179 21.688 19.1206C21.5371 18.6083 21.2705 18.1546 20.8902 17.7622C20.5082 17.3681 19.9947 17.0617 19.3529 16.8413C18.717 16.6229 17.92 16.5151 16.9605 16.5151H11.6886C11.5586 16.5151 11.4531 16.6206 11.4531 16.7506V30.8251C11.4531 30.9552 11.5586 31.0606 11.6886 31.0606H13.0683C13.1983 31.0606 13.3038 30.9552 13.3038 30.8251ZM17.8627 23.1217C17.3692 23.1978 16.8082 23.236 16.1801 23.236H13.3037V18.1268H16.5803C17.8243 18.1268 18.7172 18.3424 19.2601 18.7594C19.7912 19.1673 20.057 19.7679 20.057 20.5837C20.057 21.1479 19.9675 21.5968 19.7935 21.9308C19.6202 22.2634 19.3773 22.5236 19.062 22.7154C18.738 22.9123 18.3387 23.0483 17.8627 23.1217Z" fill="white"/>
</g>
</svg>
