<svg width="32" height="40" viewBox="0 0 32 40" fill="none" xmlns="http://www.w3.org/2000/svg">
<g id="icon">
<path id="Rectangle 2526" d="M1 4.99997C1 3.15902 2.49238 1.66664 4.33333 1.66664H20.3096C20.7517 1.66664 21.1756 1.84224 21.4882 2.1548L30.5118 11.1785C30.8244 11.491 31 11.915 31 12.357V35C31 36.8409 29.5076 38.3333 27.6667 38.3333H4.33333C2.49238 38.3333 1 36.8409 1 35V4.99997Z" fill="#C6C6CD"/>
<path id="Rectangle 2527" opacity="0.7" d="M21 2.27019C21 2.04747 21.2693 1.93593 21.4268 2.09342L30.5732 11.2399C30.7307 11.3974 30.6192 11.6666 30.3964 11.6666H24.3333C22.4924 11.6666 21 10.1743 21 8.33331V2.27019Z" fill="#A7A7B0"/>
<path id="Union" d="M16.9089 17.8787V30.3787C16.9089 30.5043 16.8072 30.606 16.6816 30.606H15.318C15.1925 30.606 15.0907 30.5043 15.0907 30.3787V17.8787H9.40891C9.28339 17.8787 9.18164 17.777 9.18164 17.6515V16.2878C9.18164 16.1623 9.28339 16.0606 9.40891 16.0606H22.5907C22.7163 16.0606 22.818 16.1623 22.818 16.2878V17.6515C22.818 17.777 22.7163 17.8787 22.5907 17.8787H16.9089Z" fill="white"/>
</g>
</svg>
