<svg width="32" height="40" viewBox="0 0 32 40" fill="none" xmlns="http://www.w3.org/2000/svg">
<g id="icon">
<path id="Rectangle 2526" d="M1 4.99984C1 3.15889 2.49238 1.6665 4.33333 1.6665H20.3096C20.7517 1.6665 21.1756 1.8421 21.4882 2.15466L30.5118 11.1783C30.8244 11.4909 31 11.9148 31 12.3569V34.9998C31 36.8408 29.5076 38.3332 27.6667 38.3332H4.33333C2.49238 38.3332 1 36.8408 1 34.9998V4.99984Z" fill="#C6C6CD"/>
<path id="Rectangle 2527" opacity="0.7" d="M21 2.27006C21 2.04733 21.2693 1.93579 21.4268 2.09328L30.5732 11.2397C30.7307 11.3972 30.6192 11.6665 30.3964 11.6665H24.3333C22.4924 11.6665 21 10.1741 21 8.33317V2.27006Z" fill="#A7A7B0"/>
<path id="Union" d="M16.907 17.8787V30.3787C16.907 30.5042 16.8052 30.606 16.6797 30.606H15.3161C15.1905 30.606 15.0888 30.5042 15.0888 30.3787V17.8787H9.40696C9.28144 17.8787 9.17969 17.777 9.17969 17.6515V16.2878C9.17969 16.1623 9.28144 16.0605 9.40696 16.0605H22.5888C22.7143 16.0605 22.8161 16.1623 22.8161 16.2878V17.6515C22.8161 17.777 22.7143 17.8787 22.5888 17.8787H16.907Z" fill="white"/>
</g>
</svg>
