<svg width="32" height="40" viewBox="0 0 32 40" fill="none" xmlns="http://www.w3.org/2000/svg">
<g id="icon">
<path id="Rectangle 2526" d="M1 5.00008C1 3.15913 2.49238 1.66675 4.33333 1.66675H20.3096C20.7517 1.66675 21.1756 1.84234 21.4882 2.1549L30.5118 11.1786C30.8244 11.4912 31 11.9151 31 12.3571V35.0001C31 36.841 29.5076 38.3334 27.6667 38.3334H4.33333C2.49238 38.3334 1 36.841 1 35.0001V5.00008Z" fill="#336DF4"/>
<path id="Rectangle 2527" opacity="0.7" d="M21 2.2703C21 2.04757 21.2693 1.93603 21.4268 2.09352L30.5732 11.24C30.7307 11.3975 30.6192 11.6667 30.3964 11.6667H24.3333C22.4924 11.6667 21 10.1744 21 8.33341V2.2703Z" fill="#0442D2"/>
<path id="Union" d="M16.907 17.8787V30.3787C16.907 30.5042 16.8052 30.606 16.6797 30.606H15.3161C15.1905 30.606 15.0888 30.5042 15.0888 30.3787V17.8787H9.40696C9.28144 17.8787 9.17969 17.777 9.17969 17.6515V16.2878C9.17969 16.1623 9.28144 16.0605 9.40696 16.0605H22.5888C22.7143 16.0605 22.8161 16.1623 22.8161 16.2878V17.6515C22.8161 17.777 22.7143 17.8787 22.5888 17.8787H16.907Z" fill="white"/>
</g>
</svg>
