<svg width="32" height="40" viewBox="0 0 32 40" fill="none" xmlns="http://www.w3.org/2000/svg">
<g id="icon">
<path id="Rectangle 2530" opacity="0.9" d="M1 4.99997C1 3.15902 2.49238 1.66664 4.33333 1.66664H20.3096C20.7517 1.66664 21.1756 1.84224 21.4882 2.1548L30.5118 11.1785C30.8244 11.491 31 11.915 31 12.357V35C31 36.8409 29.5076 38.3333 27.6667 38.3333H4.33333C2.49238 38.3333 1 36.8409 1 35V4.99997Z" fill="#C6C6CD"/>
<path id="Rectangle 2531" opacity="0.6" d="M21 2.27019C21 2.04747 21.2693 1.93593 21.4268 2.09342L30.5732 11.2399C30.7307 11.3974 30.6192 11.6666 30.3964 11.6666H24.3333C22.4924 11.6666 21 10.1743 21 8.33331V2.27019Z" fill="#A7A7B0"/>
<path id="&#239;&#188;&#159;" d="M19.8136 16.4407C18.904 15.579 17.7103 15.1514 16.2258 15.1514C14.5581 15.1514 13.2511 15.686 12.3042 16.775C11.5021 17.7108 11.07 18.6077 11.0082 20.0217C11.0067 20.055 11.0055 20.1162 11.0044 20.187C11.001 20.4179 11.1884 20.6059 11.4195 20.6059H12.4045C12.6337 20.6059 12.8192 20.4209 12.823 20.1918C12.8242 20.1228 12.8255 20.0633 12.8271 20.0315C12.8755 19.0547 13.1303 18.5436 13.585 17.9752C14.1592 17.2098 15.0014 16.8332 16.1576 16.8332C17.1893 16.8332 17.9629 17.0963 18.4969 17.6303C19.0058 18.1605 19.2712 18.8823 19.2712 19.7877C19.2712 20.4058 19.0472 20.9945 18.5918 21.58C18.4467 21.7613 18.2378 21.977 17.565 22.6498C16.5022 23.579 15.8458 24.3349 15.4991 25.078C15.214 25.648 15.0687 26.2959 15.0687 26.9923V27.462C15.0687 27.6921 15.2552 27.8786 15.4853 27.8786H16.4929C16.723 27.8786 16.9096 27.6921 16.9096 27.462V26.9923C16.9096 26.4021 17.0549 25.8728 17.3559 25.3568C17.5813 24.9736 17.8708 24.673 18.3754 24.2315C19.3872 23.3161 19.9485 22.7708 20.1999 22.4509C20.8038 21.6538 21.1121 20.7409 21.1121 19.7423C21.1121 18.3641 20.6794 17.2584 19.8136 16.4407ZM15.5081 29.6968C15.2779 29.6968 15.0914 29.8834 15.0914 30.1135V31.0983C15.0914 31.3285 15.2779 31.515 15.5081 31.515H16.4929C16.723 31.515 16.9096 31.3285 16.9096 31.0983V30.1135C16.9096 29.8834 16.723 29.6968 16.4929 29.6968H15.5081Z" fill="white"/>
</g>
</svg>
