<svg width="32" height="40" viewBox="0 0 32 40" fill="none" xmlns="http://www.w3.org/2000/svg">
<g id="icon">
<path id="Rectangle 2528" d="M1 5.00008C1 3.15913 2.49238 1.66675 4.33333 1.66675H20.3096C20.7517 1.66675 21.1756 1.84234 21.4882 2.1549L30.5118 11.1786C30.8244 11.4912 31 11.9151 31 12.3571V35.0001C31 36.841 29.5076 38.3334 27.6667 38.3334H4.33333C2.49238 38.3334 1 36.841 1 35.0001V5.00008Z" fill="#336DF4"/>
<path id="Rectangle 2529" opacity="0.7" d="M21 2.2703C21 2.04757 21.2693 1.93603 21.4268 2.09352L30.5732 11.24C30.7307 11.3975 30.6192 11.6667 30.3964 11.6667H24.3333C22.4924 11.6667 21 10.1744 21 8.33341V2.2703Z" fill="#0442D2"/>
<path id="&#229;&#189;&#162;&#231;&#138;&#182;" d="M7.66406 17.9165C7.66406 17.2261 8.22371 16.6665 8.91406 16.6665H17.6641C18.3544 16.6665 18.9141 17.2261 18.9141 17.9165V19.4009L20.8012 18.3393C21.6345 17.8706 22.6641 18.4728 22.6641 19.4288V25.1542C22.6641 26.1102 21.6345 26.7124 20.8012 26.2437L18.9141 25.1821V26.6665C18.9141 27.3569 18.3544 27.9165 17.6641 27.9165H8.91406C8.22371 27.9165 7.66406 27.3569 7.66406 26.6665V17.9165ZM11.4141 21.6665C12.1044 21.6665 12.6641 21.1069 12.6641 20.4165C12.6641 19.7261 12.1044 19.1665 11.4141 19.1665C10.7237 19.1665 10.1641 19.7261 10.1641 20.4165C10.1641 21.1069 10.7237 21.6665 11.4141 21.6665Z" fill="white"/>
</g>
</svg>
