<svg width="32" height="40" viewBox="0 0 32 40" fill="none" xmlns="http://www.w3.org/2000/svg">
<g id="icon">
<path id="Rectangle 2526" d="M1 4.99996C1 3.15901 2.49238 1.66663 4.33333 1.66663H20.3096C20.7517 1.66663 21.1756 1.84222 21.4882 2.15478L30.5118 11.1785C30.8244 11.491 31 11.915 31 12.357V35C31 36.8409 29.5076 38.3333 27.6667 38.3333H4.33333C2.49238 38.3333 1 36.8409 1 35V4.99996Z" fill="#C6C6CD"/>
<path id="Rectangle 2527" opacity="0.9" d="M21 2.27018C21 2.04745 21.2693 1.93591 21.4268 2.0934L30.5732 11.2398C30.7307 11.3973 30.6192 11.6666 30.3964 11.6666H24.3333C22.4924 11.6666 21 10.1742 21 8.33329V2.27018Z" fill="#A7A7B0"/>
<path id="icon_file_excel_nor" d="M10.2443 16.5151H12.064C12.1447 16.5151 12.2202 16.5548 12.266 16.6212L15.7637 21.6898L19.2798 16.6207C19.3256 16.5546 19.401 16.5151 19.4815 16.5151H21.3009C21.4365 16.5151 21.5464 16.625 21.5464 16.7606C21.5464 16.8117 21.5304 16.8615 21.5008 16.9031L16.9458 23.2925L21.8632 30.2185C21.9416 30.329 21.9156 30.4823 21.8051 30.5607C21.7636 30.5902 21.7139 30.606 21.663 30.606H19.8434C19.7628 30.606 19.6874 30.5665 19.6416 30.5002L15.7636 24.8954L11.9042 30.4998C11.8584 30.5663 11.7828 30.606 11.7021 30.606H9.88217C9.74661 30.606 9.63672 30.4962 9.63672 30.3606C9.63672 30.31 9.65237 30.2606 9.68153 30.2192L14.5623 23.2925L10.0438 16.9023C9.96558 16.7916 9.99186 16.6384 10.1025 16.5602C10.144 16.5309 10.1935 16.5151 10.2443 16.5151Z" fill="white"/>
</g>
</svg>
