<svg width="16" height="16" viewBox="0 0 16 16" fill="none" xmlns="http://www.w3.org/2000/svg">
<g clip-path="url(#clip0_1930_159006)">
<path d="M7.9974 13.9998C4.68369 13.9998 1.9974 11.3135 1.9974 7.99984C1.9974 4.68613 4.68369 1.99984 7.9974 1.99984C11.3111 1.99984 13.9974 4.68613 13.9974 7.99984C13.9974 11.3135 11.3111 13.9998 7.9974 13.9998ZM7.9974 15.3332C12.0475 15.3332 15.3307 12.0499 15.3307 7.99984C15.3307 3.94975 12.0475 0.666504 7.9974 0.666504C3.94731 0.666504 0.664062 3.94975 0.664062 7.99984C0.664062 12.0499 3.94731 15.3332 7.9974 15.3332Z" fill="#DB2E13" style="fill:#DB2E13;fill:color(display-p3 0.8588 0.1804 0.0745);fill-opacity:1;"/>
<path d="M7.9974 4.6665C7.62921 4.6665 7.33073 4.96498 7.33073 5.33317V8.6665C7.33073 9.03469 7.62921 9.33317 7.9974 9.33317C8.36559 9.33317 8.66406 9.03469 8.66406 8.6665V5.33317C8.66406 4.96498 8.36559 4.6665 7.9974 4.6665Z" fill="#DB2E13" style="fill:#DB2E13;fill:color(display-p3 0.8588 0.1804 0.0745);fill-opacity:1;"/>
<path d="M7.9974 9.99984C7.62921 9.99984 7.33073 10.2983 7.33073 10.6665C7.33073 11.0347 7.62921 11.3332 7.9974 11.3332C8.36559 11.3332 8.66406 11.0347 8.66406 10.6665C8.66406 10.2983 8.36559 9.99984 7.9974 9.99984Z" fill="#DB2E13" style="fill:#DB2E13;fill:color(display-p3 0.8588 0.1804 0.0745);fill-opacity:1;"/>
</g>
<defs>
<clipPath id="clip0_1930_159006">
<rect width="16" height="16" fill="white" style="fill:white;fill-opacity:1;"/>
</clipPath>
</defs>
</svg>
