<svg width="16" height="16" viewBox="0 0 16 16" fill="currentColor" xmlns="http://www.w3.org/2000/svg">
  <path
    d="M12.437 6.33333H13.4176C12.7059 4.01711 10.5496 2.33333 8.00001 2.33333C5.45043 2.33333 3.29412 4.01711 2.5824 6.33333H1.19964C1.94734 3.27199 4.70835 1 8.00001 1C11.2917 1 14.0527 3.27199 14.8004 6.33333H15.8963C15.9536 6.33333 16 6.38181 16 6.44161C16 6.47033 15.9891 6.49787 15.9696 6.51818L14.2767 8.28576C14.2159 8.34919 14.1174 8.34919 14.0567 8.28576L12.3637 6.51818C12.3232 6.47589 12.3232 6.40733 12.3637 6.36505C12.3832 6.34474 12.4095 6.33333 12.437 6.33333Z"
    fill="currentColor" style="fill:currentColor;fill-opacity:1;" />
  <path
    d="M3.56296 9.66667H2.5824C3.29411 11.9829 5.45042 13.6667 8 13.6667C10.5496 13.6667 12.7059 11.9829 13.4176 9.66667H14.8004C14.0527 12.728 11.2917 15 8 15C4.70834 15 1.94734 12.728 1.19963 9.66667H0.103709C0.076204 9.66667 0.0498254 9.65526 0.0303755 9.63495C-0.0101252 9.59267 -0.0101252 9.52411 0.0303755 9.48182L1.72333 7.71424C1.78408 7.65081 1.88258 7.65081 1.94333 7.71424L3.63629 9.48182C3.65574 9.50213 3.66667 9.52967 3.66667 9.55839C3.66667 9.61819 3.62024 9.66667 3.56296 9.66667Z"
    fill="currentColor" style="fill:currentColor;fill-opacity:1;" />
  <path
    d="M8.67672 5H7.34015L5.00001 11H6.34407L7.02746 9.34409H8.93271L9.67654 11H11L8.67672 5ZM8.6202 8.00001H7.37163L8.00991 6.31981L8.6202 8.00001Z"
    fill="currentColor" style="fill:currentColor;fill-opacity:1;" />
</svg>
