<svg width="40" height="40" viewBox="0 0 40 40" fill="none" xmlns="http://www.w3.org/2000/svg">
<path d="M33.3334 17.5002C33.3334 10.1364 27.3638 4.16683 20 4.16683C12.6362 4.16683 6.66671 10.1364 6.66671 17.5002C6.66671 22.9718 10.9703 28.9065 20.0022 35.1543C29.0316 28.9214 33.3334 22.988 33.3334 17.5002ZM20.9278 38.5552C20.3664 38.9306 19.634 38.9303 19.0731 38.5542C8.57994 31.5193 3.33337 24.5013 3.33337 17.5002C3.33337 8.29542 10.7953 0.833496 20 0.833496C29.2048 0.833496 36.6667 8.29542 36.6667 17.5002C36.6667 24.5185 31.4204 31.5368 20.9278 38.5552ZM20 24.1668C16.3181 24.1668 13.3334 21.1821 13.3334 17.5002C13.3334 13.8183 16.3181 10.8335 20 10.8335C23.6819 10.8335 26.6667 13.8183 26.6667 17.5002C26.6667 21.1821 23.6819 24.1668 20 24.1668ZM20 20.8335C21.841 20.8335 23.3334 19.3411 23.3334 17.5002C23.3334 15.6592 21.841 14.1668 20 14.1668C18.1591 14.1668 16.6667 15.6592 16.6667 17.5002C16.6667 19.3411 18.1591 20.8335 20 20.8335Z" fill="#3071F2"/>
</svg>
