<svg width="40" height="41" viewBox="0 0 40 41" fill="none" xmlns="http://www.w3.org/2000/svg">
<path d="M10.5393 36.7242C10.614 36.835 10.7222 36.9189 10.8482 36.9637C10.9741 37.0085 11.1111 37.0117 11.239 36.973C11.3669 36.9342 11.479 36.8555 11.5589 36.7484C11.6387 36.6413 11.6821 36.5114 11.6827 36.3778V4.29104C11.6827 4.1254 11.6168 3.96655 11.4996 3.84943C11.3824 3.73231 11.2234 3.6665 11.0577 3.6665H8.97433C8.80886 3.6665 8.65015 3.73207 8.53298 3.84883C8.41582 3.96559 8.34978 4.12401 8.34933 4.28936V26.7651H4.08265C4.0137 26.765 3.94607 26.784 3.88721 26.8199C3.82835 26.8558 3.78052 26.9072 3.749 26.9685C3.71748 27.0298 3.70347 27.0985 3.70853 27.1673C3.71358 27.236 3.7375 27.302 3.77765 27.358L10.4027 36.5527C10.4287 36.5889 10.4583 36.6223 10.491 36.6526L10.5393 36.7242ZM15.641 31.4205C15.4752 31.4205 15.3162 31.3547 15.199 31.2376C15.0818 31.1205 15.016 30.9616 15.016 30.796V28.7142C15.016 28.3695 15.296 28.0897 15.641 28.0897H27.7243C27.8901 28.0897 28.0491 28.1555 28.1663 28.2726C28.2835 28.3897 28.3493 28.5486 28.3493 28.7142V30.796C28.3493 30.9616 28.2835 31.1205 28.1663 31.2376C28.0491 31.3547 27.8901 31.4205 27.7243 31.4205H15.641ZM15.016 20.2489C15.016 20.5937 15.296 20.8735 15.641 20.8735H32.0581C32.4031 20.8735 32.6831 20.5937 32.6831 20.2489V18.1672C32.6831 18.0016 32.6173 17.8427 32.5001 17.7256C32.3829 17.6085 32.2239 17.5427 32.0581 17.5427H15.641C15.4752 17.5427 15.3162 17.6085 15.199 17.7256C15.0818 17.8427 15.016 18.0016 15.016 18.1672V20.2489ZM15.641 10.3264C15.4752 10.3264 15.3162 10.2607 15.199 10.1435C15.0818 10.0264 15.016 9.86758 15.016 9.70194V7.6202C15.016 7.27546 15.296 6.99567 15.641 6.99567L36.0417 6.99565C36.2075 6.99565 36.3665 7.06145 36.4837 7.17858C36.6009 7.2957 36.6667 7.45455 36.6667 7.62018V9.70192C36.6667 9.86756 36.6009 10.0264 36.4837 10.1435C36.3665 10.2606 36.2075 10.3264 36.0417 10.3264L15.641 10.3264Z" fill="#3071F2"/>
</svg>
