<svg width="40" height="40" viewBox="0 0 40 40" fill="none" xmlns="http://www.w3.org/2000/svg">
<g id="coz_earth">
<path id="Union" d="M38.3333 19.9998C38.3333 30.1251 30.1252 38.3332 20 38.3332C9.87474 38.3332 1.66663 30.1251 1.66663 19.9998C1.66663 9.87462 9.87474 1.6665 20 1.6665C30.1252 1.6665 38.3333 9.87462 38.3333 19.9998ZM16.2649 34.5311C16.0517 33.7899 15.8333 32.9265 15.8333 32.4998C15.8333 31.6665 14.1666 29.9998 14.1666 29.9998C14.1666 29.9998 10.8333 29.1665 9.99996 27.4998C9.16663 25.8332 10.8333 23.3332 10.8333 23.3332L5.17851 17.6784C5.06096 18.435 4.99996 19.2103 4.99996 19.9998C4.99996 26.9946 9.78772 32.8711 16.2649 34.5311ZM35 19.9998C35 12.854 30.0032 6.8753 23.3132 5.36698C23.2637 7.12098 23.0924 10.2407 22.5 10.8332C21.6666 11.6665 17.5 12.4998 17.5 12.4998L15.8333 15.8332L10.8333 16.6665L11.6666 19.9998H20L26.6666 22.4998C26.6666 22.4998 28 22.8332 27.5 24.1665C26.8543 25.4578 24.7078 31.7518 23.7738 34.5211C30.2313 32.8477 35 26.9806 35 19.9998Z" fill="#3071F2"/>
</g>
</svg>
