<svg width="32" height="40" viewBox="0 0 32 40" fill="none" xmlns="http://www.w3.org/2000/svg">
<g id="icon">
<path id="Rectangle 2528" d="M1 4.99996C1 3.15901 2.49238 1.66663 4.33333 1.66663H20.3096C20.7517 1.66663 21.1756 1.84222 21.4882 2.15478L30.5118 11.1785C30.8244 11.491 31 11.915 31 12.357V35C31 36.8409 29.5076 38.3333 27.6667 38.3333H4.33333C2.49238 38.3333 1 36.8409 1 35V4.99996Z" fill="#FFC60A"/>
<path id="Rectangle 2529" opacity="0.8" d="M21 2.27018C21 2.04745 21.2693 1.93591 21.4268 2.0934L30.5732 11.2398C30.7307 11.3973 30.6192 11.6666 30.3964 11.6666H24.3333C22.4924 11.6666 21 10.1742 21 8.33329V2.27018Z" fill="#D99904"/>
<g id="&#229;&#189;&#162;&#231;&#138;&#182;&#231;&#187;&#147;&#229;&#144;&#136;">
<path d="M9.95312 16.6666C9.03265 16.6666 8.28646 17.4128 8.28646 18.3333V18.6363C8.28646 19.5568 9.03265 20.303 9.95312 20.303H10.2562C11.1766 20.303 11.9228 19.5568 11.9228 18.6363V18.3333C11.9228 17.4128 11.1766 16.6666 10.2562 16.6666H9.95312Z" fill="white"/>
<path d="M23.8254 21.2663C24.4434 20.5989 25.5592 21.0362 25.5592 21.9457V30.8333C25.5592 31.2935 25.1861 31.6666 24.7259 31.6666L8.33494 31.6666C7.76879 31.6666 7.46033 31.0055 7.82405 30.5716L12.7 24.7554C13.3661 23.9609 14.5883 23.9609 15.2544 24.7554L17.792 27.7824L23.8254 21.2663Z" fill="white"/>
</g>
</g>
</svg>
