<svg width="32" height="40" viewBox="0 0 32 40" fill="none" xmlns="http://www.w3.org/2000/svg">
<g id="icon">
<path id="Rectangle 2528" d="M1 4.99997C1 3.15902 2.49238 1.66664 4.33333 1.66664H20.3096C20.7517 1.66664 21.1756 1.84224 21.4882 2.1548L30.5118 11.1785C30.8244 11.491 31 11.915 31 12.357V35C31 36.8409 29.5076 38.3333 27.6667 38.3333H4.33333C2.49238 38.3333 1 36.8409 1 35V4.99997Z" fill="#336DF4"/>
<path id="Rectangle 2529" opacity="0.7" d="M21 2.27019C21 2.04747 21.2693 1.93593 21.4268 2.09342L30.5732 11.2399C30.7307 11.3974 30.6192 11.6666 30.3964 11.6666H24.3333C22.4924 11.6666 21 10.1743 21 8.33331V2.27019Z" fill="#0442D2"/>
<path id="&#229;&#144;&#136;&#229;&#185;&#182;&#229;&#189;&#162;&#231;&#138;&#182;" d="M21.714 15.8334C22.2399 15.8334 22.6663 16.2531 22.6663 16.7709V29.8959C22.6663 30.4136 22.2399 30.8334 21.714 30.8334H10.2854C9.7594 30.8334 9.33301 30.4136 9.33301 29.8959V16.7709C9.33301 16.2531 9.7594 15.8334 10.2854 15.8334H21.714ZM17.9044 26.1459H14.0949V29.4271H17.9044V26.1459ZM16.9521 27.0834V28.1682H15.0473V27.0834H16.9521ZM17.9484 19.5834H15.9997V21.4584H14.0949V23.3334H15.9997V25.2084H17.9484V23.3334H16.0436V21.4584H17.9484V19.5834ZM15.9997 17.7084H14.0949V19.5834H15.9997V17.7084Z" fill="white"/>
</g>
</svg>
