<svg width="25" height="24" viewBox="0 0 25 24" fill="none" xmlns="http://www.w3.org/2000/svg">
<path fill-rule="evenodd" clip-rule="evenodd" d="M4.21054 1.5C2.98969 1.5 2 2.48969 2 3.71054V20.2896C2 21.5104 2.98969 22.5001 4.21054 22.5001H20.7896C22.0104 22.5001 23.0001 21.5104 23.0001 20.2896V3.71054C23.0001 2.48969 22.0104 1.5 20.7896 1.5H4.21054ZM7.71563 8.09264C7.71563 7.08544 8.53212 6.26895 9.53932 6.26895C10.5465 6.26895 11.363 7.08544 11.363 8.09264C11.363 9.09984 10.5465 9.91633 9.53932 9.91633C8.53212 9.91633 7.71563 9.09984 7.71563 8.09264ZM18.184 9.57697C18.184 9.24258 17.7825 9.07208 17.5419 9.30432L12.0841 14.5725L10.6802 13.2051C10.5331 13.0618 10.2985 13.0618 10.1514 13.2051L6.22038 17.034C5.97681 17.2713 6.14477 17.6844 6.48479 17.6844H13.7409L13.7481 17.6844L17.8051 17.6844C18.0144 17.6844 18.1841 17.5148 18.1841 17.3055L18.184 9.57697Z" fill="url(#paint0_linear_1170_181385)" style=""/>
<defs>
<linearGradient id="paint0_linear_1170_181385" x1="12.5001" y1="1.5" x2="12.5001" y2="22.5001" gradientUnits="userSpaceOnUse">
<stop stop-color="#FFC059" style="stop-color:#FFC059;stop-color:color(display-p3 1.0000 0.7547 0.3502);stop-opacity:1;"/>
<stop offset="1" stop-color="#F8A00E" style="stop-color:#F8A00E;stop-color:color(display-p3 0.9733 0.6270 0.0559);stop-opacity:1;"/>
</linearGradient>
</defs>
</svg>
