<svg width="80" height="80" viewBox="0 0 80 80" fill="none" xmlns="http://www.w3.org/2000/svg">
  <rect width="80" height="80" rx="8" fill="#FFB233" />
  <path fill-rule="evenodd" clip-rule="evenodd"
    d="M26.1842 22.5C24.1495 22.5 22.5 24.1495 22.5 26.1842V53.816C22.5 55.8507 24.1495 57.5002 26.1842 57.5002H53.816C55.8507 57.5002 57.5002 55.8507 57.5002 53.816V26.1842C57.5002 24.1495 55.8507 22.5 53.816 22.5H26.1842ZM32.026 33.4877C32.026 31.8091 33.3869 30.4482 35.0655 30.4482C36.7442 30.4482 38.105 31.8091 38.105 33.4877C38.105 35.1664 36.7442 36.5272 35.0655 36.5272C33.3869 36.5272 32.026 35.1664 32.026 33.4877ZM49.4734 35.9616C49.4734 35.4043 48.8042 35.1201 48.4032 35.5072L39.3068 44.2876L36.967 42.0085C36.7218 41.7696 36.3309 41.7696 36.0856 42.0085L29.534 48.39C29.128 48.7854 29.408 49.474 29.9746 49.474H42.0682L42.0802 49.474L48.8418 49.474C49.1907 49.474 49.4734 49.1913 49.4734 48.8425L49.4734 35.9616Z"
    fill="white" />
  <path
    d="M80 52V72C80 76.4183 76.4183 80 72 80H52V80C54.2091 80 56 78.2091 56 76V64C56 59.5817 59.5817 56 64 56H76C78.2091 56 80 54.2091 80 52V52Z"
    fill="#1D1C23" fill-opacity="0.3" />
  <path fill-rule="evenodd" clip-rule="evenodd"
    d="M67.4083 67.7147L70.8981 64.2239L71.7826 65.1083L68.2928 68.5991C68.0727 68.8192 67.4707 68.7958 67.2844 68.7828C67.2513 68.7805 67.2265 68.7556 67.2242 68.7225C67.2113 68.5362 67.1886 67.9344 67.4083 67.7147ZM72.4583 64.4324L72.0774 64.8134L71.1929 63.9289L71.5738 63.5479C71.8374 63.2843 72.2491 63.2686 72.4934 63.5129C72.7376 63.7571 72.7219 64.1688 72.4583 64.4324ZM64.2365 64.7374C64.2365 64.601 64.3472 64.4904 64.4836 64.4904H68.0673C68.3381 64.4904 68.5577 64.2708 68.5577 63.9999C68.5577 63.729 68.3381 63.5095 68.0673 63.5095L64.4836 63.5095C63.8054 63.5095 63.2556 64.0592 63.2556 64.7374L63.2556 71.5192C63.2556 72.1974 63.8054 72.7472 64.4836 72.7472H71.2654C71.9431 72.7472 72.4934 72.1985 72.4934 71.5198V67.9356C72.4934 67.6647 72.2738 67.4451 72.0029 67.4451C71.7321 67.4451 71.5125 67.6647 71.5125 67.9356V71.5198C71.5125 71.6558 71.4023 71.7663 71.2654 71.7663H64.4836C64.3472 71.7663 64.2365 71.6557 64.2365 71.5192L64.2365 64.7374Z"
    fill="white" />
</svg>
