<svg width="80" height="80" viewBox="0 0 80 80" fill="none" xmlns="http://www.w3.org/2000/svg">
  <rect width="80" height="80" rx="8" fill="#35C566"
    style="fill:#35C566;fill:color(display-p3 0.2078 0.7725 0.4000);fill-opacity:1;" />
  <path
    d="M80 52V72C80 76.4183 76.4183 80 72 80H52C54.2091 80 56 78.2091 56 76V64C56 59.5817 59.5817 56 64 56H76C78.2091 56 80 54.2091 80 52Z"
    fill="#1D1C23" fill-opacity="0.3"
    style="fill:#1D1C23;fill:color(display-p3 0.1137 0.1098 0.1373);fill-opacity:0.3;" />
  <path fill-rule="evenodd" clip-rule="evenodd"
    d="M67.4085 67.7145L70.8983 64.2237L71.7828 65.1082L68.293 68.599C68.0729 68.8191 67.4709 68.7957 67.2846 68.7826C67.2515 68.7803 67.2267 68.7555 67.2244 68.7223C67.2116 68.5361 67.1888 67.9343 67.4085 67.7145ZM72.4585 64.4323L72.0776 64.8133L71.1932 63.9288L71.5741 63.5478C71.8377 63.2842 72.2494 63.2685 72.4936 63.5127C72.7378 63.757 72.7221 64.1687 72.4585 64.4323ZM64.2368 64.7373C64.2368 64.6009 64.3474 64.4902 64.4838 64.4902H68.0675C68.3384 64.4902 68.558 64.2706 68.558 63.9998C68.558 63.7289 68.3384 63.5093 68.0675 63.5093L64.4838 63.5093C63.8056 63.5093 63.2559 64.0591 63.2559 64.7373L63.2559 71.5191C63.2559 72.1973 63.8056 72.7471 64.4838 72.7471H71.2656C71.9433 72.7471 72.4936 72.1983 72.4936 71.5197V67.9354C72.4936 67.6646 72.274 67.445 72.0031 67.445C71.7323 67.445 71.5127 67.6646 71.5127 67.9354V71.5197C71.5127 71.6556 71.4026 71.7662 71.2656 71.7662H64.4838C64.3474 71.7662 64.2368 71.6555 64.2368 71.5191L64.2368 64.7373Z"
    fill="white" style="fill:white;fill-opacity:1;" />
  <path fill-rule="evenodd" clip-rule="evenodd"
    d="M25.0539 22.5005C24.5646 22.5005 24.168 22.8971 24.168 23.3864V49.2652C24.168 51.4493 25.0697 53.544 26.6747 55.0884C28.2798 56.6328 30.4567 57.5005 32.7265 57.5005H54.9487C55.438 57.5005 55.8346 57.1039 55.8346 56.6146V30.7358C55.8346 28.5516 54.9329 26.457 53.3279 24.9125C51.7229 23.3681 49.5459 22.5005 47.2761 22.5005H25.0539ZM44.7787 31.2504H31.2559V44.7731C31.2559 46.9697 33.0366 48.7504 35.2332 48.7504H48.7559V35.2276C48.7559 33.031 46.9752 31.2504 44.7787 31.2504ZM41.1336 38.8072V33.6367H44.7787C45.6573 33.6367 46.3696 34.349 46.3696 35.2276V38.8072H41.1336ZM33.6423 33.6367H38.7472V38.8072H33.6423V33.6367ZM33.6423 44.7731V41.1936H38.7472V46.364H35.2332C34.3546 46.364 33.6423 45.6517 33.6423 44.7731ZM46.3696 46.364H41.1336V41.1936H46.3696V46.364Z"
    fill="white" style="fill:white;fill-opacity:1;" />
</svg>
