<svg width="80" height="80" viewBox="0 0 80 80" fill="none" xmlns="http://www.w3.org/2000/svg">
  <rect width="80" height="80" rx="8" fill="#2288FF"
    style="fill:#2288FF;fill:color(display-p3 0.1347 0.5317 1.0000);fill-opacity:1;" />
  <path fill-rule="evenodd" clip-rule="evenodd"
    d="M25.0541 22.4985C24.5647 22.4985 24.168 22.8953 24.168 23.3847V49.2701C24.168 51.4547 25.0699 53.55 26.6754 55.0948C28.2808 56.6396 30.4583 57.5074 32.7287 57.5074H54.9566C55.446 57.5074 55.8427 57.1107 55.8427 56.6213V30.7359C55.8427 28.5512 54.9408 26.456 53.3353 24.9112C51.7299 23.3664 49.5524 22.4985 47.282 22.4985H25.0541ZM31.6639 34.5015C31.6639 33.857 32.1864 33.3346 32.8309 33.3346H47.1679C47.8124 33.3346 48.3348 33.857 48.3348 34.5015C48.3348 35.146 47.8124 35.6685 47.1679 35.6685H32.8309C32.1864 35.6685 31.6639 35.146 31.6639 34.5015ZM31.6639 40.1697C31.6639 39.5252 32.1864 39.0027 32.8309 39.0027H47.1679C47.8124 39.0027 48.3348 39.5252 48.3348 40.1697C48.3348 40.8141 47.8124 41.3366 47.1679 41.3366H32.8309C32.1864 41.3366 31.6639 40.8141 31.6639 40.1697ZM32.8309 44.6708C32.1864 44.6708 31.6639 45.1933 31.6639 45.8378C31.6639 46.4823 32.1864 47.0047 32.8309 47.0047H40.4995C41.144 47.0047 41.6665 46.4823 41.6665 45.8378C41.6665 45.1933 41.144 44.6708 40.4995 44.6708H32.8309Z"
    fill="white" style="fill:white;fill-opacity:1;" />
  <path
    d="M80 52V72C80 76.4183 76.4183 80 72 80H52C54.2091 80 56 78.2091 56 76V64C56 59.5817 59.5817 56 64 56H76C78.2091 56 80 54.2091 80 52Z"
    fill="#1D1C23" fill-opacity="0.3"
    style="fill:#1D1C23;fill:color(display-p3 0.1137 0.1098 0.1373);fill-opacity:0.3;" />
  <path fill-rule="evenodd" clip-rule="evenodd"
    d="M67.4085 67.7145L70.8983 64.2237L71.7828 65.1082L68.293 68.599C68.0729 68.8191 67.4709 68.7957 67.2846 68.7826C67.2515 68.7803 67.2267 68.7555 67.2244 68.7223C67.2116 68.5361 67.1888 67.9343 67.4085 67.7145ZM72.4585 64.4323L72.0776 64.8133L71.1932 63.9288L71.5741 63.5478C71.8377 63.2842 72.2494 63.2685 72.4936 63.5127C72.7378 63.757 72.7221 64.1687 72.4585 64.4323ZM64.2368 64.7373C64.2368 64.6009 64.3474 64.4902 64.4838 64.4902H68.0675C68.3384 64.4902 68.558 64.2706 68.558 63.9998C68.558 63.7289 68.3384 63.5093 68.0675 63.5093L64.4838 63.5093C63.8056 63.5093 63.2559 64.0591 63.2559 64.7373L63.2559 71.5191C63.2559 72.1973 63.8056 72.7471 64.4838 72.7471H71.2656C71.9433 72.7471 72.4936 72.1983 72.4936 71.5197V67.9354C72.4936 67.6646 72.274 67.445 72.0031 67.445C71.7323 67.445 71.5127 67.6646 71.5127 67.9354V71.5197C71.5127 71.6556 71.4026 71.7662 71.2656 71.7662H64.4838C64.3474 71.7662 64.2368 71.6555 64.2368 71.5191L64.2368 64.7373Z"
    fill="white" style="fill:white;fill-opacity:1;" />
</svg>
