<svg width="24" height="24" viewBox="0 0 48 48" fill="none" xmlns="http://www.w3.org/2000/svg">
  <path fill-rule="evenodd" clip-rule="evenodd"
    d="M6.07115 2.99902C5.48389 2.99902 5.00781 3.4751 5.00781 4.06237V35.1248C5.00781 37.7465 6.09013 40.2607 8.01667 42.1145C9.94321 43.9683 12.5562 45.0097 15.2807 45.0097H41.9541C42.5414 45.0097 43.0175 44.5336 43.0175 43.9464V12.8839C43.0175 10.2623 41.9352 7.74801 40.0086 5.89423C38.0821 4.04046 35.4691 2.99902 32.7446 2.99902H6.07115ZM14 17.4023C14 16.6289 14.627 16.002 15.4004 16.002H32.6047C33.3781 16.002 34.0051 16.6289 34.0051 17.4023C34.0051 18.1757 33.3781 18.8027 32.6047 18.8027H15.4004C14.627 18.8027 14 18.1757 14 17.4023ZM14 24.204C14 23.4306 14.627 22.8037 15.4004 22.8037H32.6047C33.3781 22.8037 34.0051 23.4306 34.0051 24.204C34.0051 24.9774 33.3781 25.6044 32.6047 25.6044H15.4004C14.627 25.6044 14 24.9774 14 24.204ZM15.4004 29.6054C14.627 29.6054 14 30.2324 14 31.0058C14 31.7792 14.627 32.4061 15.4004 32.4061H24.6027C25.3761 32.4061 26.0031 31.7792 26.0031 31.0058C26.0031 30.2324 25.3761 29.6054 24.6027 29.6054H15.4004Z"
    fill="url(#paint0_linear_478_75494)" style="" />
  <defs>
    <linearGradient id="paint0_linear_478_75494" x1="24.0126" y1="2.99902" x2="24.0126" y2="45.0097"
      gradientUnits="userSpaceOnUse">
      <stop stop-color="#67A5FF"
        style="stop-color:#67A5FF;stop-color:color(display-p3 0.4039 0.6471 1.0000);stop-opacity:1;" />
      <stop offset="1" stop-color="#2273FF"
        style="stop-color:#2273FF;stop-color:color(display-p3 0.1333 0.4510 1.0000);stop-opacity:1;" />
    </linearGradient>
  </defs>
</svg>
