<svg width="20" height="21" viewBox="0 0 20 21" fill="none" xmlns="http://www.w3.org/2000/svg">
<g id="coz_send_fill">
<path id="Union" d="M17.8476 11.5956C18.2478 11.3775 18.4981 10.9583 18.4981 10.4993C18.4981 10.0403 18.2478 9.62307 17.8476 9.40495L3.3342 1.54702C2.94728 1.33649 2.49018 1.34597 2.11084 1.57168C1.73151 1.79738 1.50391 2.19758 1.50391 2.6414L3.10518 8.89575L9.91326 9.89239C10.3035 9.89239 10.6188 10.1636 10.6188 10.4993C10.6188 10.835 10.3035 11.1063 9.91326 11.1063C6.07652 11.6687 3.80806 11.9987 3.1079 12.0961L1.50391 18.3573C1.50391 18.8011 1.73151 19.2013 2.11084 19.4289C2.49018 19.6546 2.94728 19.6641 3.3342 19.4535L17.8476 11.5956Z" fill="url(#paint0_linear_491_89054)"/>
</g>
<defs>
<linearGradient id="paint0_linear_491_89054" x1="10.001" y1="1.39551" x2="10.001" y2="19.6051" gradientUnits="userSpaceOnUse">
<stop stop-color="#A700FA"/>
<stop offset="1" stop-color="#5147FF"/>
</linearGradient>
</defs>
</svg>
