<svg width="64" height="64" viewBox="0 0 64 64" fill="none" xmlns="http://www.w3.org/2000/svg">
  <g id="coz_image_broken">
    <g id="Union">
      <path
        d="M42.7765 5.33301H7.99935C5.06602 5.33301 2.66602 7.73301 2.66602 10.6663V53.333C2.66602 56.2663 5.06602 58.6663 7.99935 58.6663H11.9844L15.0636 53.333H7.99935V10.6663H39.6973L42.7765 5.33301Z"
        fill="#060709" fill-opacity="0.3" />
      <path
        d="M25.1667 35.8339L24.5648 35.232C24.2524 34.9196 23.7459 34.9196 23.4335 35.232L12.0315 46.634C11.5275 47.138 11.8845 47.9997 12.5972 47.9997H18.1428L25.1667 35.8339Z"
        fill="#060709" fill-opacity="0.3" />
      <path
        d="M27.3804 47.9997L31.9997 39.9989L49.2999 22.6987C49.8039 22.1947 50.6656 22.5517 50.6656 23.2644V47.1997C50.6656 47.6415 50.3074 47.9997 49.8656 47.9997H35.4041L35.4011 47.9997H27.3804Z"
        fill="#060709" fill-opacity="0.3" />
      <path
        d="M24.3012 53.333H55.9994V10.6663H48.9349L52.0141 5.33301H55.9994C58.9327 5.33301 61.3327 7.73301 61.3327 10.6663V53.333C61.3327 56.2663 58.9327 58.6663 55.9994 58.6663H21.222L24.3012 53.333Z"
        fill="#060709" fill-opacity="0.3" />
      <path
        d="M23.9993 21.333C23.9993 24.2785 21.6115 26.6663 18.666 26.6663C15.7205 26.6663 13.3327 24.2785 13.3327 21.333C13.3327 18.3875 15.7205 15.9997 18.666 15.9997C21.6115 15.9997 23.9993 18.3875 23.9993 21.333Z"
        fill="#060709" fill-opacity="0.3" />
    </g>
  </g>
</svg>
