<svg width="32" height="40" viewBox="0 0 32 40" fill="none" xmlns="http://www.w3.org/2000/svg">
  <g id="icon">
    <path id="Rectangle 2526"
      d="M1 5.00032C1 3.15938 2.49238 1.66699 4.33333 1.66699H20.3096C20.7517 1.66699 21.1756 1.84259 21.4882 2.15515L30.5118 11.1788C30.8244 11.4914 31 11.9153 31 12.3573V35.0003C31 36.8413 29.5076 38.3337 27.6667 38.3337H4.33333C2.49238 38.3337 1 36.8413 1 35.0003V5.00032Z"
      fill="#F22435" />
    <path id="Rectangle 2527"
      d="M21 2.27054C21 2.04782 21.2693 1.93628 21.4268 2.09377L30.5732 11.2402C30.7307 11.3977 30.6192 11.667 30.3964 11.667H24.3333C22.4924 11.667 21 10.1746 21 8.33366V2.27054Z"
      fill="white" fill-opacity="0.6" />
    <path id="icon_file_pdf_nor"
      d="M25.2518 25.9187C24.8381 25.4344 23.9899 25.1989 22.6586 25.1989C21.8847 25.1989 20.8187 25.2184 19.7474 25.3774C16.8213 23.2679 16.1355 21.0018 16.1355 21.0018C16.1355 21.0018 16.6352 19.7474 16.6669 17.6985C16.687 16.4033 16.4817 15.4373 15.958 15.0221C15.735 14.8452 15.4111 14.6973 15.085 14.6973C14.8305 14.6973 14.5922 14.771 14.397 14.9118C12.8758 16.0093 14.5366 21.1831 14.581 21.321C13.8632 23.0629 12.9589 24.9084 12.0281 26.53C11.7257 27.0568 11.7257 27.067 11.5226 27.3062C11.5226 27.3062 8.85979 28.6268 7.61117 30.091C6.90568 30.9184 6.88279 31.4864 6.92024 31.9121C6.9806 32.4226 7.6314 32.8791 8.28657 32.8791C8.31375 32.8791 8.34109 32.8783 8.36787 32.8766C9.03373 32.8361 9.7744 32.6529 10.5986 31.8733C11.1953 31.3089 11.8662 29.7761 12.7288 28.2763C15.2036 27.5821 17.3816 27.0877 19.2069 26.8058C20.5454 27.516 22.5368 28.3204 23.8925 28.3204C24.3472 28.3204 24.713 28.229 24.9797 28.0487C25.2988 27.8331 25.4343 27.5644 25.5185 27.067C25.6028 26.5696 25.4855 26.1924 25.2518 25.9187ZM22.3422 26.6973C23.5782 26.6973 24.2475 26.9154 24.5913 27.0983C24.6973 27.1547 24.7744 27.2092 24.8291 27.2546C24.7322 27.3297 24.5417 27.4246 24.1973 27.4246C23.6263 27.4246 22.8767 27.1826 21.9626 26.7039C22.0926 26.6995 22.2192 26.6973 22.3422 26.6973ZM15.2435 15.7934L15.2456 15.7882C15.4385 15.9303 15.5286 16.9284 15.5105 17.5071C15.4862 18.2837 15.4805 18.5838 15.383 19.0609C15.1187 18.0662 15.1 16.2782 15.2435 15.7934ZM15.3044 23.0609C15.9073 24.0539 16.6717 25.0594 17.5331 25.8273C15.8519 26.1877 14.4559 26.5184 13.4514 26.87C14.5281 25.0053 15.2338 23.2457 15.3044 23.0609ZM8.51616 31.4741C8.66829 31.2491 9.08392 30.8131 10.138 29.97C9.57227 31.2731 8.93696 31.4741 8.34636 31.7881C8.39094 31.6848 8.44702 31.5764 8.51616 31.4741Z"
      fill="white" />
  </g>
</svg>
