<svg width="200" height="200" viewBox="0 0 200 200" fill="none" xmlns="http://www.w3.org/2000/svg">
  <g id="SVG" clip-path="url(#clip0_2697_59356)">
    <path id="Vector" d="M100.749 191.987C106.964 191.429 109.45 182.788 111.108 176.935L116.08 191.987H100.749Z"
      fill="black" stroke="black" />
    <path id="Vector_2"
      d="M103.973 62.9743C100.032 57.9437 102.024 49.1557 111.318 39.9402C124.298 28.058 136.847 30.6854 137.435 30.9599C138.023 31.2344 150.439 40.0194 162.26 52.2647C174.082 64.5099 186.453 74.9969 186.605 91.7998C186.758 108.603 169.346 114.685 156.573 114.761C143.8 114.837 115.296 114.479 109.821 113.567C106.386 118.074 100.923 122.945 98.9084 124.001C103.135 127.633 118.226 142.977 120.041 146.217C121.856 149.458 129.763 160.736 126.133 178.496C124.47 186.634 117.964 190.801 111.242 192.108C111.242 192.108 102.036 192.056 98.9084 192.108C91.1321 192.238 10.8886 192.108 8.55517 192.108C6.22176 192.108 5.54895 190.015 8.55517 183.91C11.5614 177.805 22.6449 158.542 28.4534 155.104C30.7649 153.8 35.9864 157.174 37.0838 157.956C38.11 158.687 39.1051 159.55 40.5275 159.432C41.95 159.313 49.3663 159.28 51.7358 159.357C47.4505 156.357 31.7026 141.672 29.7782 134.527C28.2489 128.849 30.0789 125.569 30.8916 124.812C22.363 119.824 13.6849 109.92 17.0807 95.2047C18.0332 91.077 20.6119 86.7769 22.5343 85.5382C26.1495 83.2087 38.4161 82.0313 45.8545 81.352C78.5523 78.3659 153.04 79.448 155.302 79.4695C152.184 77.0944 140.103 63.5378 139.822 63.0812C139.049 65.2938 135.994 68.1035 133.711 67.7874C131.685 67.5069 130.558 64.3341 132.902 59.3074C132.095 60.1317 131.256 60.9141 130.411 61.6007C129.167 62.6124 127.607 62.8197 127.041 61.6007C126.542 60.5285 126.708 58.4841 127.86 55.7601C126.628 56.9222 125.401 57.8872 124.299 58.4453C120.61 60.312 119.698 53.2123 124.64 47.1704C117.537 50.6427 115.523 53.479 113.759 57.6388C112.672 60.2028 112.288 62.5533 109.297 63.8825C107.003 64.9022 105.082 64.3905 103.973 62.9743Z"
      fill="white" />
    <path id="Vector_3"
      d="M124.64 47.1704C117.537 50.6427 115.523 53.479 113.759 57.6388C112.672 60.2028 112.288 62.5533 109.297 63.8825C107.003 64.9022 105.082 64.3905 103.973 62.9743C100.032 57.9437 102.024 49.1557 111.318 39.9402C124.298 28.058 136.847 30.6854 137.435 30.9599C138.023 31.2344 150.439 40.0194 162.26 52.2647C174.082 64.5099 186.453 74.9969 186.605 91.7998C186.758 108.603 169.346 114.685 156.573 114.761C143.8 114.837 115.296 114.479 109.821 113.567M124.64 47.1704C131.639 44.5726 131.278 42.1983 130.866 41.7279C130.454 41.2574 126.228 44.4651 124.64 47.1704ZM124.64 47.1704C119.698 53.2123 120.61 60.312 124.299 58.4453C129.147 55.9917 136.386 45.6727 135.941 45.3268C135.625 45.0809 133.867 46.0738 130.62 50.8241C127.079 56.0054 126.275 59.9522 127.041 61.6007C127.607 62.8197 129.167 62.6124 130.411 61.6007C135.204 57.7034 139.821 50.7163 139.575 50.5407C139.329 50.3651 137.732 50.9884 133.966 57.3084C130.287 63.4832 131.428 67.4713 133.711 67.7874C135.994 68.1035 139.049 65.2938 139.822 63.0812C140.103 63.5378 152.184 77.0944 155.302 79.4695M109.821 113.567C106.386 118.074 100.923 122.945 98.9084 124.001M109.821 113.567C113.405 108.653 116.582 103.629 118.134 98.2721M155.302 79.4695C153.04 79.448 78.5523 78.3659 45.8545 81.352C38.4161 82.0313 26.1495 83.2087 22.5343 85.5382C20.6119 86.7769 18.0332 91.077 17.0807 95.2047C13.6849 109.92 22.363 119.824 30.8916 124.812M155.302 79.4695C157.563 79.491 161.438 80.1644 161.106 82.5709C160.89 84.1323 156.389 80.4494 155.302 79.4695ZM98.9084 124.001C103.135 127.633 118.226 142.977 120.041 146.217C121.856 149.458 129.763 160.736 126.133 178.496C124.47 186.634 117.964 190.801 111.242 192.108C111.242 192.108 102.036 192.056 98.9084 192.108C91.1321 192.238 10.8886 192.108 8.55517 192.108C6.22176 192.108 5.54895 190.015 8.55517 183.91C11.5614 177.805 22.6449 158.542 28.4534 155.104C30.7649 153.8 35.9864 157.174 37.0838 157.956C38.11 158.687 39.1051 159.55 40.5275 159.432C41.95 159.313 49.3663 159.28 51.7358 159.357M98.9084 124.001C96.6165 124.001 90.7454 124.001 88.0964 124.001M51.7358 159.357C54.7946 159.456 61.3307 158.866 63.583 160.9C65.6279 162.747 64.1419 165.492 61.0496 164.742C57.4122 163.859 52.9212 160.186 51.7358 159.357ZM51.7358 159.357C47.4505 156.357 31.7026 141.672 29.7782 134.527C28.2489 128.849 30.0789 125.569 30.8916 124.812M88.0964 124.001C80.0087 115.502 70.3925 107.822 65.2849 104.111M88.0964 124.001C88.9352 124.883 89.7576 125.773 90.5567 126.669C92.5002 128.847 99.0319 136.266 99.6817 140.816C100.051 143.403 99.7415 147.609 98.7755 151.776M30.8916 124.812C34.2264 126.6 42.7695 130.887 50.2636 133.724M50.2636 133.724C59.6313 137.271 69.4569 139.982 72.6401 143.62C75.8233 147.258 71.8787 152.292 70.727 156.371C70.4364 157.4 70.1046 158.961 70.4616 159.864C70.9131 161.004 72.2369 161.227 74.2052 159.694C77.7304 156.949 80.8578 150.129 81.5086 148.122C82.1594 146.116 77.0741 156.386 76.5317 160.921C75.9894 165.456 80.0199 164.713 82.7287 160.921C85.9012 156.479 87.5286 151.376 87.7455 150.4C87.9625 149.424 85.0129 155.845 84.1457 159.694C83.912 160.732 83.3026 163.166 84.1457 164.136C85.1047 165.239 87.017 164.95 89.2218 161.41C91.7386 157.368 93.6028 151.702 93.8197 150.4C94.0366 149.099 90.7657 157.706 90.2724 161.898C89.926 164.84 90.935 166.275 94.45 161.898C96.4373 159.423 97.8851 155.616 98.7755 151.776M50.2636 133.724C48.2901 136.441 46.0125 139.015 39.457 140.045M98.7755 151.776C101.959 154.697 106.119 160.024 107.017 165.952C107.915 171.881 107.017 179.415 97.6167 187.298M65.2849 104.111C59.58 99.9652 56.3188 99.5478 53.8284 99.5478C50.1874 99.5478 49.351 101.504 52.6689 102.748C55.9867 103.993 62.0179 104.111 65.2849 104.111ZM65.2849 104.111C67.8362 104.111 70.9808 104.111 72.1994 104.111"
      stroke="#515151" />
    <path id="Vector_4" fill-rule="evenodd" clip-rule="evenodd"
      d="M115.942 192.126L110.767 176.459L110.643 176.896C109.814 179.826 108.782 183.434 107.185 186.38C105.586 189.328 103.443 191.576 100.406 191.848L100.418 192.126H115.942Z"
      fill="#515151" />
    <path id="Vector_5" fill-rule="evenodd" clip-rule="evenodd"
      d="M122.415 137.352L127.509 146.829H120.059L114.965 137.352H122.415Z" fill="#C6CACD" />
    <path id="Vector_6" d="M104.096 141.476H138.046L152.872 168.908H118.922L104.096 141.476Z" fill="white"
      stroke="#515151" />
    <path id="Vector_7" d="M183.117 155.135H139.521V193.996H183.117V155.135Z" fill="#E6E8EA" stroke="#515151" />
    <path id="Vector_8" d="M139.868 154.692L149.154 137.852H192.608L183.322 154.692H139.868Z" fill="#E6E8EA"
      stroke="#515151" />
    <path id="Vector_9" d="M139.407 155.135H111.223V193.996H139.407V155.135Z" fill="#E6E8EA" stroke="#515151" />
    <path id="Vector_10" fill-rule="evenodd" clip-rule="evenodd"
      d="M166.556 154.913L170.458 147.944H164.326L160.735 154.356H160.423V154.913V167.735H166.556V154.913Z"
      fill="#515151" />
    <path id="Vector_11"
      d="M45.5783 71.8461C63.8982 71.8461 78.7494 56.9949 78.7494 38.675C78.7494 20.3551 63.8982 5.50391 45.5783 5.50391C27.2584 5.50391 12.4072 20.3551 12.4072 38.675C12.4072 56.9949 27.2584 71.8461 45.5783 71.8461Z"
      fill="#EAF5FF" />
    <path id="Vector_12" fill-rule="evenodd" clip-rule="evenodd"
      d="M48.8461 47.665C50.6179 47.215 51.7204 45.5669 51.3111 43.7853C51.0323 42.5717 51.5826 41.3761 52.4498 40.4825C55.4773 37.3627 57.5348 32.7049 56.1132 27.7053C55.3646 24.9884 53.3434 22.6095 50.6833 21.1086C47.7791 19.509 44.2101 19.2031 40.8075 20.2426L40.6361 20.3154C34.8596 22.2833 32.3351 27.3701 32.3805 32.2789C32.3995 34.3262 34.4998 35.484 36.4691 34.924C38.4729 34.3542 39.4418 32.1175 40.1034 30.1421C40.4945 28.9745 41.3603 27.9109 43.0322 27.3905C44.9906 26.7616 46.3829 27.1822 47.1882 27.6496C48.0663 28.2885 48.7729 29.0001 48.9652 29.9299C49.8124 32.4026 48.1401 35.1354 46.2285 36.3514C43.5453 38.0338 43.2021 41.8296 43.7714 45.1416C44.1324 47.2422 46.3165 48.3075 48.3823 47.7828L48.8461 47.665ZM48.8717 50.8187C51.0242 50.1214 53.3344 51.3012 54.0317 53.4537C54.7289 55.6062 53.5492 57.9164 51.3967 58.6136C49.2442 59.3109 46.934 58.1312 46.2367 55.9787C45.5395 53.8262 46.7192 51.5159 48.8717 50.8187Z"
      fill="#0064FA" />
    <path id="Vector_13" fill-rule="evenodd" clip-rule="evenodd"
      d="M98.6325 82.5785L98.522 82.5688L98.4877 82.6743C97.7016 85.0957 96.8311 87.9064 96.9691 90.7095C97.1077 93.5236 98.262 96.323 101.502 98.7181C104.667 101.057 108.08 100.494 110.687 98.5588C113.288 96.6288 115.105 93.324 115.105 90.1368C115.105 88.8872 114.291 87.8175 113.058 86.9175C111.823 86.0155 110.141 85.2636 108.343 84.6522C104.746 83.4288 100.649 82.7556 98.6325 82.5785ZM115.813 104.266C114.483 107.369 111.185 111.947 109.698 113.851L109.813 113.705L115.054 114.077L115.091 113.997C115.323 113.505 115.5 112.803 115.638 111.998C115.776 111.191 115.875 110.269 115.944 109.334C116.082 107.464 116.103 105.529 116.08 104.318L115.813 104.266ZM30.8576 124.273L30.697 124.171L29.3633 129.209L29.4735 129.257C33.8679 131.154 43.5848 133.309 50.5631 133.867L50.625 133.599C42.8485 130.557 34.4308 126.532 30.8576 124.273Z"
      fill="#515151" />
    <path id="Vector_14" d="M71.0303 48.9888C76.2791 50.2249 87.1498 55.3866 88.6429 66.1442" stroke="#515151" />
    <path id="Vector_15"
      d="M108.084 96.5774C102.358 96.5774 97.7168 91.936 97.7168 86.2106C97.7168 80.4851 102.358 75.8438 108.084 75.8438C113.809 75.8438 118.451 80.4851 118.451 86.2106C118.451 91.936 113.809 96.5774 108.084 96.5774Z"
      fill="white" stroke="#515151" stroke-miterlimit="10" />
    <path id="Vector_16" fill-rule="evenodd" clip-rule="evenodd"
      d="M110.797 85.8621C110.694 85.6555 110.443 85.5718 110.236 85.6751C108.821 86.3824 107.28 86.5592 106.71 86.5592C106.479 86.5592 106.292 86.7464 106.292 86.9773C106.292 87.2082 106.479 87.3954 106.71 87.3954C107.379 87.3954 109.055 87.2008 110.61 86.4231C110.817 86.3198 110.9 86.0686 110.797 85.8621ZM108.135 89.3776C108.1 88.8916 108.465 88.469 108.951 88.4337C109.437 88.3983 109.86 88.7637 109.895 89.2497C109.93 89.7357 109.565 90.1584 109.079 90.1937C108.593 90.229 108.17 89.8637 108.135 89.3776ZM115.238 88.4333C114.752 88.4687 114.387 88.8913 114.422 89.3773C114.457 89.8633 114.88 90.2286 115.366 90.1933C115.852 90.158 116.217 89.7354 116.182 89.2494C116.147 88.7634 115.724 88.398 115.238 88.4333Z"
      fill="#515151" />
    <path id="Vector_17"
      d="M100.584 87.3134C100.584 87.3134 94.8492 80.6963 99.9223 76.2848C106.54 70.3294 121.097 75.8437 121.097 75.8437C121.097 75.8437 120.877 82.902 116.245 83.7843C111.833 84.446 103.672 81.358 103.672 81.358L100.584 87.3134Z"
      fill="#515151" />
    <path id="Vector_18"
      d="M98.3782 88.637C96.9164 88.637 95.7314 87.452 95.7314 85.9902C95.7314 84.5283 96.9164 83.3433 98.3782 83.3433C99.8401 83.3433 101.025 84.5283 101.025 85.9902C101.025 87.452 99.8401 88.637 98.3782 88.637Z"
      fill="white" stroke="#515151" stroke-miterlimit="10" />
  </g>
  <defs>
    <clipPath id="clip0_2697_59356">
      <rect width="200" height="200" fill="white" />
    </clipPath>
  </defs>
</svg>
